%TF.GenerationSoftware,Altium Limited,Altium Designer,23.1.1 (15)*%
G04 Layer_Color=2752767*
%FSLAX45Y45*%
%MOMM*%
%TF.SameCoordinates,3B15BE60-5205-462F-B1BE-89E8C5D5736D*%
%TF.FilePolarity,Positive*%
%TF.FileFunction,Drawing*%
%TF.Part,Single*%
G01*
G75*
%TA.AperFunction,NonConductor*%
%ADD188C,0.12700*%
%ADD189C,0.16933*%
%ADD190C,0.10160*%
D188*
X7099200Y10809200D02*
Y10910800D01*
X7200800D01*
Y10809200D01*
X7099200D01*
X10174200Y8899200D02*
Y9000800D01*
X10275800D01*
Y8899200D01*
X10174200D01*
X10194520Y8919520D02*
Y8980480D01*
X10255480D01*
Y8919520D01*
X10194520D01*
X9874200Y8899200D02*
Y9000800D01*
X9975800D01*
Y8899200D01*
X9874200D01*
X9894520Y8919520D02*
Y8980480D01*
X9955480D01*
Y8919520D01*
X9894520D01*
X10174200Y9349200D02*
Y9450800D01*
X10275800D01*
Y9349200D01*
X10174200D01*
X10194520Y9369520D02*
Y9430480D01*
X10255480D01*
Y9369520D01*
X10194520D01*
X9874200Y9349200D02*
Y9450800D01*
X9975800D01*
Y9349200D01*
X9874200D01*
X9894520Y9369520D02*
Y9430480D01*
X9955480D01*
Y9369520D01*
X9894520D01*
X8124200Y8874200D02*
Y8975800D01*
X8225800D01*
Y8874200D01*
X8124200D01*
X8144520Y8894520D02*
Y8955480D01*
X8205480D01*
Y8894520D01*
X8144520D01*
X7824200Y8874200D02*
Y8975800D01*
X7925800D01*
Y8874200D01*
X7824200D01*
X7844520Y8894520D02*
Y8955480D01*
X7905480D01*
Y8894520D01*
X7844520D01*
X8124200Y9324200D02*
Y9425800D01*
X8225800D01*
Y9324200D01*
X8124200D01*
X8144520Y9344520D02*
Y9405480D01*
X8205480D01*
Y9344520D01*
X8144520D01*
X7824200Y9324200D02*
Y9425800D01*
X7925800D01*
Y9324200D01*
X7824200D01*
X7844520Y9344520D02*
Y9405480D01*
X7905480D01*
Y9344520D01*
X7844520D01*
X12224200Y8899200D02*
Y9000800D01*
X12325800D01*
Y8899200D01*
X12224200D01*
X12244520Y8919520D02*
Y8980480D01*
X12305480D01*
Y8919520D01*
X12244520D01*
X11924200Y8899200D02*
Y9000800D01*
X12025800D01*
Y8899200D01*
X11924200D01*
X11944520Y8919520D02*
Y8980480D01*
X12005480D01*
Y8919520D01*
X11944520D01*
X12224200Y9349200D02*
Y9450800D01*
X12325800D01*
Y9349200D01*
X12224200D01*
X12244520Y9369520D02*
Y9430480D01*
X12305480D01*
Y9369520D01*
X12244520D01*
X11924200Y9349200D02*
Y9450800D01*
X12025800D01*
Y9349200D01*
X11924200D01*
X11944520Y9369520D02*
Y9430480D01*
X12005480D01*
Y9369520D01*
X11944520D01*
X7551200Y3034100D02*
X7576600D01*
X7602000Y3059500D01*
X7627400Y3034100D01*
X7652800D01*
Y3059500D01*
X7627400Y3084900D01*
X7652800Y3110300D01*
Y3135700D01*
X7627400D01*
X7602000Y3110300D01*
X7576600Y3135700D01*
X7551200D01*
Y3110300D01*
X7576600Y3084900D01*
X7551200Y3059500D01*
Y3034100D01*
Y3237300D02*
X7576600D01*
X7602000Y3262700D01*
X7627400Y3237300D01*
X7652800D01*
Y3262700D01*
X7627400Y3288100D01*
X7652800Y3313500D01*
Y3338900D01*
X7627400D01*
X7602000Y3313500D01*
X7576600Y3338900D01*
X7551200D01*
Y3313500D01*
X7576600Y3288100D01*
X7551200Y3262700D01*
Y3237300D01*
X7043200Y3135700D02*
X7068600D01*
X7094000Y3161100D01*
X7119400Y3135700D01*
X7144800D01*
Y3161100D01*
X7119400Y3186500D01*
X7144800Y3211900D01*
Y3237300D01*
X7119400D01*
X7094000Y3211900D01*
X7068600Y3237300D01*
X7043200D01*
Y3211900D01*
X7068600Y3186500D01*
X7043200Y3161100D01*
Y3135700D01*
X6600000Y9149200D02*
X6549200Y9250800D01*
X6650800D01*
X6600000Y9149200D01*
X7099200Y10089200D02*
Y10190800D01*
X7200800D01*
Y10089200D01*
X7099200D01*
X6600000Y3149200D02*
X6549200Y3250800D01*
X6650800D01*
X6600000Y3149200D01*
X13600000D02*
X13549200Y3250800D01*
X13650800D01*
X13600000Y3149200D01*
Y9724200D02*
X13549200Y9825800D01*
X13650800D01*
X13600000Y9724200D01*
X6835000Y3709200D02*
X6860400Y3734600D01*
X6885800D01*
X6860400Y3760000D01*
X6885800Y3785400D01*
X6860400D01*
X6835000Y3810800D01*
X6809600Y3785400D01*
X6784200D01*
X6809600Y3760000D01*
X6784200Y3734600D01*
X6809600D01*
X6835000Y3709200D01*
Y4289200D02*
X6860400Y4314600D01*
X6885800D01*
X6860400Y4340000D01*
X6885800Y4365400D01*
X6860400D01*
X6835000Y4390800D01*
X6809600Y4365400D01*
X6784200D01*
X6809600Y4340000D01*
X6784200Y4314600D01*
X6809600D01*
X6835000Y4289200D01*
X6834200Y4431700D02*
X6859600Y4482500D01*
X6834200Y4533300D01*
X6885000Y4507900D01*
X6935800Y4533300D01*
X6910400Y4482500D01*
X6935800Y4431700D01*
X6885000Y4457100D01*
X6834200Y4431700D01*
Y3566700D02*
X6859600Y3617500D01*
X6834200Y3668300D01*
X6885000Y3642900D01*
X6935800Y3668300D01*
X6910400Y3617500D01*
X6935800Y3566700D01*
X6885000Y3592100D01*
X6834200Y3566700D01*
X6439600Y3592100D02*
Y3566700D01*
X6490400D01*
Y3592100D01*
X6515800D01*
Y3642900D01*
X6490400D01*
Y3668300D01*
X6439600D01*
Y3642900D01*
X6414200D01*
Y3592100D01*
X6439600D01*
Y4457100D02*
Y4431700D01*
X6490400D01*
Y4457100D01*
X6515800D01*
Y4507900D01*
X6490400D01*
Y4533300D01*
X6439600D01*
Y4507900D01*
X6414200D01*
Y4457100D01*
X6439600D01*
X11559200Y4330000D02*
X11610000Y4380800D01*
X11660800Y4330000D01*
X11610000Y4279200D01*
X11559200Y4330000D01*
X13259200Y7940000D02*
X13310001Y7990800D01*
X13360800Y7940000D01*
X13310001Y7889200D01*
X13259200Y7940000D01*
X13189200D02*
X13239999Y7990800D01*
X13290800Y7940000D01*
X13239999Y7889200D01*
X13189200Y7940000D01*
X13259200Y7870000D02*
X13310001Y7920800D01*
X13360800Y7870000D01*
X13310001Y7819200D01*
X13259200Y7870000D01*
X13189200D02*
X13239999Y7920800D01*
X13290800Y7870000D01*
X13239999Y7819200D01*
X13189200Y7870000D01*
X9189200Y5070000D02*
X9240000Y5120800D01*
X9290800Y5070000D01*
X9240000Y5019200D01*
X9189200Y5070000D01*
X9959200Y4480000D02*
X10010000Y4530800D01*
X10060800Y4480000D01*
X10010000Y4429200D01*
X9959200Y4480000D01*
X9619200Y4270000D02*
X9670000Y4320800D01*
X9720800Y4270000D01*
X9670000Y4219200D01*
X9619200Y4270000D01*
X10009200Y5520000D02*
X10060000Y5570800D01*
X10110800Y5520000D01*
X10060000Y5469200D01*
X10009200Y5520000D01*
X8989200Y5140000D02*
X9040000Y5190800D01*
X9090800Y5140000D01*
X9040000Y5089200D01*
X8989200Y5140000D01*
X7439200Y4510000D02*
X7490000Y4560800D01*
X7540800Y4510000D01*
X7490000Y4459200D01*
X7439200Y4510000D01*
X7389200Y3820000D02*
X7440000Y3870800D01*
X7490800Y3820000D01*
X7440000Y3769200D01*
X7389200Y3820000D01*
X7119200D02*
X7170000Y3870800D01*
X7220800Y3820000D01*
X7170000Y3769200D01*
X7119200Y3820000D01*
X10409200Y3430000D02*
X10460000Y3480800D01*
X10510800Y3430000D01*
X10460000Y3379200D01*
X10409200Y3430000D01*
X10479200Y3230000D02*
X10530000Y3280800D01*
X10580800Y3230000D01*
X10530000Y3179200D01*
X10479200Y3230000D01*
X9519200Y4150000D02*
X9570000Y4200800D01*
X9620800Y4150000D01*
X9570000Y4099200D01*
X9519200Y4150000D01*
X6324500Y6002658D02*
X6375300Y6053458D01*
X6426100Y6002658D01*
X6375300Y5951858D01*
X6324500Y6002658D01*
Y5932658D02*
X6375300Y5983458D01*
X6426100Y5932658D01*
X6375300Y5881858D01*
X6324500Y5932658D01*
Y5862658D02*
X6375300Y5913458D01*
X6426100Y5862658D01*
X6375300Y5811858D01*
X6324500Y5862658D01*
X6404500Y6072658D02*
X6455300Y6123458D01*
X6506100Y6072658D01*
X6455300Y6021858D01*
X6404500Y6072658D01*
Y6002658D02*
X6455300Y6053458D01*
X6506100Y6002658D01*
X6455300Y5951858D01*
X6404500Y6002658D01*
Y5932658D02*
X6455300Y5983458D01*
X6506100Y5932658D01*
X6455300Y5881858D01*
X6404500Y5932658D01*
Y5862658D02*
X6455300Y5913458D01*
X6506100Y5862658D01*
X6455300Y5811858D01*
X6404500Y5862658D01*
X6324500Y6072658D02*
X6375300Y6123458D01*
X6426100Y6072658D01*
X6375300Y6021858D01*
X6324500Y6072658D01*
X12939200Y3030000D02*
X12989999Y3080800D01*
X13040800Y3030000D01*
X12989999Y2979200D01*
X12939200Y3030000D01*
X6429200Y4910000D02*
X6480000Y4960800D01*
X6530800Y4910000D01*
X6480000Y4859200D01*
X6429200Y4910000D01*
Y4990000D02*
X6480000Y5040800D01*
X6530800Y4990000D01*
X6480000Y4939200D01*
X6429200Y4990000D01*
X6429200Y5070000D02*
X6480000Y5120800D01*
X6530800Y5070000D01*
X6480000Y5019200D01*
X6429200Y5070000D01*
Y5150000D02*
X6480000Y5200800D01*
X6530800Y5150000D01*
X6480000Y5099200D01*
X6429200Y5150000D01*
Y5220000D02*
X6480000Y5270800D01*
X6530800Y5220000D01*
X6480000Y5169200D01*
X6429200Y5220000D01*
Y5290000D02*
X6480000Y5340800D01*
X6530800Y5290000D01*
X6480000Y5239200D01*
X6429200Y5290000D01*
Y5360000D02*
X6480000Y5410800D01*
X6530800Y5360000D01*
X6480000Y5309200D01*
X6429200Y5360000D01*
X6429200Y5430000D02*
X6480000Y5480800D01*
X6530800Y5430000D01*
X6480000Y5379200D01*
X6429200Y5430000D01*
X6359200D02*
X6410000Y5480800D01*
X6460800Y5430000D01*
X6410000Y5379200D01*
X6359200Y5430000D01*
X6359200Y5360000D02*
X6410000Y5410800D01*
X6460800Y5360000D01*
X6410000Y5309200D01*
X6359200Y5360000D01*
X6359200Y5290000D02*
X6410000Y5340800D01*
X6460800Y5290000D01*
X6410000Y5239200D01*
X6359200Y5290000D01*
Y5220000D02*
X6410000Y5270800D01*
X6460800Y5220000D01*
X6410000Y5169200D01*
X6359200Y5220000D01*
X6359200Y5150000D02*
X6410000Y5200800D01*
X6460800Y5150000D01*
X6410000Y5099200D01*
X6359200Y5150000D01*
Y5070000D02*
X6410000Y5120800D01*
X6460800Y5070000D01*
X6410000Y5019200D01*
X6359200Y5070000D01*
X6359200Y4990000D02*
X6410000Y5040800D01*
X6460800Y4990000D01*
X6410000Y4939200D01*
X6359200Y4990000D01*
Y4910000D02*
X6410000Y4960800D01*
X6460800Y4910000D01*
X6410000Y4859200D01*
X6359200Y4910000D01*
X6499200Y5430000D02*
X6550000Y5480800D01*
X6600800Y5430000D01*
X6550000Y5379200D01*
X6499200Y5430000D01*
X6499200Y5360000D02*
X6550000Y5410800D01*
X6600800Y5360000D01*
X6550000Y5309200D01*
X6499200Y5360000D01*
X6499200Y5290000D02*
X6550000Y5340800D01*
X6600800Y5290000D01*
X6550000Y5239200D01*
X6499200Y5290000D01*
Y5220000D02*
X6550000Y5270800D01*
X6600800Y5220000D01*
X6550000Y5169200D01*
X6499200Y5220000D01*
X6499200Y5150000D02*
X6550000Y5200800D01*
X6600800Y5150000D01*
X6550000Y5099200D01*
X6499200Y5150000D01*
X6499200Y5070000D02*
X6550000Y5120800D01*
X6600800Y5070000D01*
X6550000Y5019200D01*
X6499200Y5070000D01*
Y4990000D02*
X6550000Y5040800D01*
X6600800Y4990000D01*
X6550000Y4939200D01*
X6499200Y4990000D01*
Y4910000D02*
X6550000Y4960800D01*
X6600800Y4910000D01*
X6550000Y4859200D01*
X6499200Y4910000D01*
X6579200Y5430000D02*
X6630000Y5480800D01*
X6680800Y5430000D01*
X6630000Y5379200D01*
X6579200Y5430000D01*
Y5360000D02*
X6630000Y5410800D01*
X6680800Y5360000D01*
X6630000Y5309200D01*
X6579200Y5360000D01*
Y5290000D02*
X6630000Y5340800D01*
X6680800Y5290000D01*
X6630000Y5239200D01*
X6579200Y5290000D01*
Y5220000D02*
X6630000Y5270800D01*
X6680800Y5220000D01*
X6630000Y5169200D01*
X6579200Y5220000D01*
Y5150000D02*
X6630000Y5200800D01*
X6680800Y5150000D01*
X6630000Y5099200D01*
X6579200Y5150000D01*
Y5070000D02*
X6630000Y5120800D01*
X6680800Y5070000D01*
X6630000Y5019200D01*
X6579200Y5070000D01*
Y4990000D02*
X6630000Y5040800D01*
X6680800Y4990000D01*
X6630000Y4939200D01*
X6579200Y4990000D01*
Y4910000D02*
X6630000Y4960800D01*
X6680800Y4910000D01*
X6630000Y4859200D01*
X6579200Y4910000D01*
X12419200Y2950000D02*
X12470000Y3000800D01*
X12520800Y2950000D01*
X12470000Y2899200D01*
X12419200Y2950000D01*
X12499200D02*
X12550000Y3000800D01*
X12600800Y2950000D01*
X12550000Y2899200D01*
X12499200Y2950000D01*
X12579200D02*
X12630000Y3000800D01*
X12680800Y2950000D01*
X12630000Y2899200D01*
X12579200Y2950000D01*
X12659200D02*
X12710000Y3000800D01*
X12760800Y2950000D01*
X12710000Y2899200D01*
X12659200Y2950000D01*
X12729200D02*
X12780000Y3000800D01*
X12830800Y2950000D01*
X12780000Y2899200D01*
X12729200Y2950000D01*
X12799200D02*
X12850000Y3000800D01*
X12900800Y2950000D01*
X12850000Y2899200D01*
X12799200Y2950000D01*
X12869200D02*
X12920000Y3000800D01*
X12970799Y2950000D01*
X12920000Y2899200D01*
X12869200Y2950000D01*
X12939200D02*
X12989999Y3000800D01*
X13040800Y2950000D01*
X12989999Y2899200D01*
X12939200Y2950000D01*
X12419200Y3030000D02*
X12470000Y3080800D01*
X12520800Y3030000D01*
X12470000Y2979200D01*
X12419200Y3030000D01*
X12499200D02*
X12550000Y3080800D01*
X12600800Y3030000D01*
X12550000Y2979200D01*
X12499200Y3030000D01*
X12579200D02*
X12630000Y3080800D01*
X12680800Y3030000D01*
X12630000Y2979200D01*
X12579200Y3030000D01*
X12659200D02*
X12710000Y3080800D01*
X12760800Y3030000D01*
X12710000Y2979200D01*
X12659200Y3030000D01*
X12729200D02*
X12780000Y3080800D01*
X12830800Y3030000D01*
X12780000Y2979200D01*
X12729200Y3030000D01*
X12799200D02*
X12850000Y3080800D01*
X12900800Y3030000D01*
X12850000Y2979200D01*
X12799200Y3030000D01*
X12869200D02*
X12920000Y3080800D01*
X12970799Y3030000D01*
X12920000Y2979200D01*
X12869200Y3030000D01*
X12419200Y3170000D02*
X12470000Y3220800D01*
X12520800Y3170000D01*
X12470000Y3119200D01*
X12419200Y3170000D01*
X12499200D02*
X12550000Y3220800D01*
X12600800Y3170000D01*
X12550000Y3119200D01*
X12499200Y3170000D01*
X12579200D02*
X12630000Y3220800D01*
X12680800Y3170000D01*
X12630000Y3119200D01*
X12579200Y3170000D01*
X12659200D02*
X12710000Y3220800D01*
X12760800Y3170000D01*
X12710000Y3119200D01*
X12659200Y3170000D01*
X12729200D02*
X12780000Y3220800D01*
X12830800Y3170000D01*
X12780000Y3119200D01*
X12729200Y3170000D01*
X12799200D02*
X12850000Y3220800D01*
X12900800Y3170000D01*
X12850000Y3119200D01*
X12799200Y3170000D01*
X12869200D02*
X12920000Y3220800D01*
X12970799Y3170000D01*
X12920000Y3119200D01*
X12869200Y3170000D01*
X12939200D02*
X12989999Y3220800D01*
X13040800Y3170000D01*
X12989999Y3119200D01*
X12939200Y3170000D01*
Y3100000D02*
X12989999Y3150800D01*
X13040800Y3100000D01*
X12989999Y3049200D01*
X12939200Y3100000D01*
X12869200D02*
X12920000Y3150800D01*
X12970799Y3100000D01*
X12920000Y3049200D01*
X12869200Y3100000D01*
X12799200D02*
X12850000Y3150800D01*
X12900800Y3100000D01*
X12850000Y3049200D01*
X12799200Y3100000D01*
X12729200D02*
X12780000Y3150800D01*
X12830800Y3100000D01*
X12780000Y3049200D01*
X12729200Y3100000D01*
X12659200D02*
X12710000Y3150800D01*
X12760800Y3100000D01*
X12710000Y3049200D01*
X12659200Y3100000D01*
X12579200D02*
X12630000Y3150800D01*
X12680800Y3100000D01*
X12630000Y3049200D01*
X12579200Y3100000D01*
X12499200D02*
X12550000Y3150800D01*
X12600800Y3100000D01*
X12550000Y3049200D01*
X12499200Y3100000D01*
X12419200D02*
X12470000Y3150800D01*
X12520800Y3100000D01*
X12470000Y3049200D01*
X12419200Y3100000D01*
X12639200Y4000000D02*
X12690000Y4050800D01*
X12740800Y4000000D01*
X12690000Y3949200D01*
X12639200Y4000000D01*
X12779200Y4030000D02*
X12830000Y4080800D01*
X12880800Y4030000D01*
X12830000Y3979200D01*
X12779200Y4030000D01*
X9521418Y5400000D02*
X9572218Y5450800D01*
X9623018Y5400000D01*
X9572218Y5349200D01*
X9521418Y5400000D01*
X9409200Y4170000D02*
X9460000Y4220800D01*
X9510800Y4170000D01*
X9460000Y4119200D01*
X9409200Y4170000D01*
X10049200Y5410000D02*
X10100000Y5460800D01*
X10150800Y5410000D01*
X10100000Y5359200D01*
X10049200Y5410000D01*
X10159200Y5520000D02*
X10210000Y5570800D01*
X10260800Y5520000D01*
X10210000Y5469200D01*
X10159200Y5520000D01*
X6759200Y5830000D02*
X6810000Y5880800D01*
X6860800Y5830000D01*
X6810000Y5779200D01*
X6759200Y5830000D01*
X11379200Y7260000D02*
X11430000Y7310800D01*
X11480800Y7260000D01*
X11430000Y7209200D01*
X11379200Y7260000D01*
Y7320000D02*
X11430000Y7370800D01*
X11480800Y7320000D01*
X11430000Y7269200D01*
X11379200Y7320000D01*
Y7400000D02*
X11430000Y7450800D01*
X11480800Y7400000D01*
X11430000Y7349200D01*
X11379200Y7400000D01*
Y7480000D02*
X11430000Y7530800D01*
X11480800Y7480000D01*
X11430000Y7429200D01*
X11379200Y7480000D01*
X13439200Y7960000D02*
X13489999Y8010800D01*
X13540800Y7960000D01*
X13489999Y7909200D01*
X13439200Y7960000D01*
X13429201Y7360000D02*
X13480000Y7410800D01*
X13530800Y7360000D01*
X13480000Y7309200D01*
X13429201Y7360000D01*
X13215878Y6722405D02*
X13266678Y6773205D01*
X13317477Y6722405D01*
X13266678Y6671605D01*
X13215878Y6722405D01*
X13294836Y6390240D02*
X13345638Y6441040D01*
X13396437Y6390240D01*
X13345638Y6339440D01*
X13294836Y6390240D01*
X12709200Y7470000D02*
X12760000Y7520800D01*
X12810800Y7470000D01*
X12760000Y7419200D01*
X12709200Y7470000D01*
X11707389Y11099973D02*
X11758189Y11150773D01*
X11808989Y11099973D01*
X11758189Y11049173D01*
X11707389Y11099973D01*
X11703984Y11171657D02*
X11754784Y11222457D01*
X11805584Y11171657D01*
X11754784Y11120857D01*
X11703984Y11171657D01*
Y11241657D02*
X11754784Y11292457D01*
X11805584Y11241657D01*
X11754784Y11190857D01*
X11703984Y11241657D01*
X9789200Y4270000D02*
X9840000Y4320800D01*
X9890800Y4270000D01*
X9840000Y4219200D01*
X9789200Y4270000D01*
X6359200Y6980000D02*
X6410000Y7030800D01*
X6460800Y6980000D01*
X6410000Y6929200D01*
X6359200Y6980000D01*
X11999200Y3930000D02*
X12050000Y3980800D01*
X12100800Y3930000D01*
X12050000Y3879200D01*
X11999200Y3930000D01*
X9859200Y3330000D02*
X9910000Y3380800D01*
X9960800Y3330000D01*
X9910000Y3279200D01*
X9859200Y3330000D01*
X10009200D02*
X10060000Y3380800D01*
X10110800Y3330000D01*
X10060000Y3279200D01*
X10009200Y3330000D01*
X10169200Y3340000D02*
X10220000Y3390800D01*
X10270800Y3340000D01*
X10220000Y3289200D01*
X10169200Y3340000D01*
X13079201Y9990000D02*
X13130000Y10040800D01*
X13180800Y9990000D01*
X13130000Y9939200D01*
X13079201Y9990000D01*
X11959200Y10550000D02*
X12010000Y10600800D01*
X12060800Y10550000D01*
X12010000Y10499200D01*
X11959200Y10550000D01*
Y10490000D02*
X12010000Y10540800D01*
X12060800Y10490000D01*
X12010000Y10439200D01*
X11959200Y10490000D01*
Y10420000D02*
X12010000Y10470800D01*
X12060800Y10420000D01*
X12010000Y10369200D01*
X11959200Y10420000D01*
X12049200Y10550000D02*
X12100000Y10600800D01*
X12150800Y10550000D01*
X12100000Y10499200D01*
X12049200Y10550000D01*
Y10490000D02*
X12100000Y10540800D01*
X12150800Y10490000D01*
X12100000Y10439200D01*
X12049200Y10490000D01*
Y10420000D02*
X12100000Y10470800D01*
X12150800Y10420000D01*
X12100000Y10369200D01*
X12049200Y10420000D01*
X12159200Y10550000D02*
X12210000Y10600800D01*
X12260800Y10550000D01*
X12210000Y10499200D01*
X12159200Y10550000D01*
Y10490000D02*
X12210000Y10540800D01*
X12260800Y10490000D01*
X12210000Y10439200D01*
X12159200Y10490000D01*
Y10420000D02*
X12210000Y10470800D01*
X12260800Y10420000D01*
X12210000Y10369200D01*
X12159200Y10420000D01*
X13809200Y6470000D02*
X13860001Y6520800D01*
X13910800Y6470000D01*
X13860001Y6419200D01*
X13809200Y6470000D01*
Y6400000D02*
X13860001Y6450800D01*
X13910800Y6400000D01*
X13860001Y6349200D01*
X13809200Y6400000D01*
Y6340000D02*
X13860001Y6390800D01*
X13910800Y6340000D01*
X13860001Y6289200D01*
X13809200Y6340000D01*
X13719200Y7960000D02*
X13770000Y8010800D01*
X13820799Y7960000D01*
X13770000Y7909200D01*
X13719200Y7960000D01*
X13659200D02*
X13710001Y8010800D01*
X13760800Y7960000D01*
X13710001Y7909200D01*
X13659200Y7960000D01*
X13599200D02*
X13650000Y8010800D01*
X13700800Y7960000D01*
X13650000Y7909200D01*
X13599200Y7960000D01*
X13159200Y10650000D02*
X13210001Y10700800D01*
X13260800Y10650000D01*
X13210001Y10599200D01*
X13159200Y10650000D01*
X12089200Y11030000D02*
X12140000Y11080800D01*
X12190800Y11030000D01*
X12140000Y10979200D01*
X12089200Y11030000D01*
X12149200D02*
X12200000Y11080800D01*
X12250800Y11030000D01*
X12200000Y10979200D01*
X12149200Y11030000D01*
X12219200D02*
X12270000Y11080800D01*
X12320800Y11030000D01*
X12270000Y10979200D01*
X12219200Y11030000D01*
X12089200Y11100000D02*
X12140000Y11150800D01*
X12190800Y11100000D01*
X12140000Y11049200D01*
X12089200Y11100000D01*
X12149200D02*
X12200000Y11150800D01*
X12250800Y11100000D01*
X12200000Y11049200D01*
X12149200Y11100000D01*
X12219200D02*
X12270000Y11150800D01*
X12320800Y11100000D01*
X12270000Y11049200D01*
X12219200Y11100000D01*
X12279200Y10730000D02*
X12330000Y10780800D01*
X12380800Y10730000D01*
X12330000Y10679200D01*
X12279200Y10730000D01*
Y10800000D02*
X12330000Y10850800D01*
X12380800Y10800000D01*
X12330000Y10749200D01*
X12279200Y10800000D01*
Y10860000D02*
X12330000Y10910800D01*
X12380800Y10860000D01*
X12330000Y10809200D01*
X12279200Y10860000D01*
X13029201Y10480000D02*
X13080000Y10530800D01*
X13130800Y10480000D01*
X13080000Y10429200D01*
X13029201Y10480000D01*
X12269200Y10420000D02*
X12320000Y10470800D01*
X12370800Y10420000D01*
X12320000Y10369200D01*
X12269200Y10420000D01*
Y10490000D02*
X12320000Y10540800D01*
X12370800Y10490000D01*
X12320000Y10439200D01*
X12269200Y10490000D01*
Y10550000D02*
X12320000Y10600800D01*
X12370800Y10550000D01*
X12320000Y10499200D01*
X12269200Y10550000D01*
X11156964Y10115706D02*
X11207764Y10166506D01*
X11258564Y10115706D01*
X11207764Y10064906D01*
X11156964Y10115706D01*
Y10185706D02*
X11207764Y10236506D01*
X11258564Y10185706D01*
X11207764Y10134906D01*
X11156964Y10185706D01*
Y10265706D02*
X11207764Y10316506D01*
X11258564Y10265706D01*
X11207764Y10214906D01*
X11156964Y10265706D01*
X11066964Y10115706D02*
X11117764Y10166506D01*
X11168564Y10115706D01*
X11117764Y10064906D01*
X11066964Y10115706D01*
Y10195706D02*
X11117764Y10246506D01*
X11168564Y10195706D01*
X11117764Y10144906D01*
X11066964Y10195706D01*
Y10265706D02*
X11117764Y10316506D01*
X11168564Y10265706D01*
X11117764Y10214906D01*
X11066964Y10265706D01*
X10166964Y9805706D02*
X10217764Y9856506D01*
X10268564Y9805706D01*
X10217764Y9754906D01*
X10166964Y9805706D01*
Y9875706D02*
X10217764Y9926506D01*
X10268564Y9875706D01*
X10217764Y9824906D01*
X10166964Y9875706D01*
Y9945706D02*
X10217764Y9996506D01*
X10268564Y9945706D01*
X10217764Y9894906D01*
X10166964Y9945706D01*
X10979200Y11280000D02*
X11030000Y11330800D01*
X11080800Y11280000D01*
X11030000Y11229200D01*
X10979200Y11280000D01*
X10899200D02*
X10950000Y11330800D01*
X11000800Y11280000D01*
X10950000Y11229200D01*
X10899200Y11280000D01*
X10819200D02*
X10870000Y11330800D01*
X10920800Y11280000D01*
X10870000Y11229200D01*
X10819200Y11280000D01*
X10749200D02*
X10800000Y11330800D01*
X10850800Y11280000D01*
X10800000Y11229200D01*
X10749200Y11280000D01*
Y11200000D02*
X10800000Y11250800D01*
X10850800Y11200000D01*
X10800000Y11149200D01*
X10749200Y11200000D01*
X10819200D02*
X10870000Y11250800D01*
X10920800Y11200000D01*
X10870000Y11149200D01*
X10819200Y11200000D01*
X10899200D02*
X10950000Y11250800D01*
X11000800Y11200000D01*
X10950000Y11149200D01*
X10899200Y11200000D01*
X10979200D02*
X11030000Y11250800D01*
X11080800Y11200000D01*
X11030000Y11149200D01*
X10979200Y11200000D01*
X10749200Y11130000D02*
X10800000Y11180800D01*
X10850800Y11130000D01*
X10800000Y11079200D01*
X10749200Y11130000D01*
X10819200D02*
X10870000Y11180800D01*
X10920800Y11130000D01*
X10870000Y11079200D01*
X10819200Y11130000D01*
X10899200D02*
X10950000Y11180800D01*
X11000800Y11130000D01*
X10950000Y11079200D01*
X10899200Y11130000D01*
X10979200D02*
X11030000Y11180800D01*
X11080800Y11130000D01*
X11030000Y11079200D01*
X10979200Y11130000D01*
X10749200Y11060000D02*
X10800000Y11110800D01*
X10850800Y11060000D01*
X10800000Y11009200D01*
X10749200Y11060000D01*
X10819200D02*
X10870000Y11110800D01*
X10920800Y11060000D01*
X10870000Y11009200D01*
X10819200Y11060000D01*
X10899200D02*
X10950000Y11110800D01*
X11000800Y11060000D01*
X10950000Y11009200D01*
X10899200Y11060000D01*
X10979200D02*
X11030000Y11110800D01*
X11080800Y11060000D01*
X11030000Y11009200D01*
X10979200Y11060000D01*
X10909200Y10280000D02*
X10960000Y10330800D01*
X11010800Y10280000D01*
X10960000Y10229200D01*
X10909200Y10280000D01*
X10539200Y10210000D02*
X10590000Y10260800D01*
X10640800Y10210000D01*
X10590000Y10159200D01*
X10539200Y10210000D01*
X10049200Y10290000D02*
X10100000Y10340800D01*
X10150800Y10290000D01*
X10100000Y10239200D01*
X10049200Y10290000D01*
X10309200Y10820000D02*
X10360000Y10870800D01*
X10410800Y10820000D01*
X10360000Y10769200D01*
X10309200Y10820000D01*
X8019200Y9800000D02*
X8070000Y9850800D01*
X8120800Y9800000D01*
X8070000Y9749200D01*
X8019200Y9800000D01*
X7919200D02*
X7970000Y9850800D01*
X8020800Y9800000D01*
X7970000Y9749200D01*
X7919200Y9800000D01*
X7829200D02*
X7880000Y9850800D01*
X7930800Y9800000D01*
X7880000Y9749200D01*
X7829200Y9800000D01*
X7749200D02*
X7800000Y9850800D01*
X7850800Y9800000D01*
X7800000Y9749200D01*
X7749200Y9800000D01*
X7679200D02*
X7730000Y9850800D01*
X7780800Y9800000D01*
X7730000Y9749200D01*
X7679200Y9800000D01*
X7599200D02*
X7650000Y9850800D01*
X7700800Y9800000D01*
X7650000Y9749200D01*
X7599200Y9800000D01*
X7529200D02*
X7580000Y9850800D01*
X7630800Y9800000D01*
X7580000Y9749200D01*
X7529200Y9800000D01*
X9249200Y10630000D02*
X9300000Y10680800D01*
X9350800Y10630000D01*
X9300000Y10579200D01*
X9249200Y10630000D01*
X8979200Y10920000D02*
X9030000Y10970800D01*
X9080800Y10920000D01*
X9030000Y10869200D01*
X8979200Y10920000D01*
X8839200D02*
X8890000Y10970800D01*
X8940800Y10920000D01*
X8890000Y10869200D01*
X8839200Y10920000D01*
X9099200D02*
X9150000Y10970800D01*
X9200800Y10920000D01*
X9150000Y10869200D01*
X9099200Y10920000D01*
X9329200Y10410000D02*
X9380000Y10460800D01*
X9430800Y10410000D01*
X9380000Y10359200D01*
X9329200Y10410000D01*
X9289200Y10290000D02*
X9340000Y10340800D01*
X9390800Y10290000D01*
X9340000Y10239200D01*
X9289200Y10290000D01*
X8539200Y11050000D02*
X8590000Y11100800D01*
X8640800Y11050000D01*
X8590000Y10999200D01*
X8539200Y11050000D01*
X8459200D02*
X8510000Y11100800D01*
X8560800Y11050000D01*
X8510000Y10999200D01*
X8459200Y11050000D01*
X8379200D02*
X8430000Y11100800D01*
X8480800Y11050000D01*
X8430000Y10999200D01*
X8379200Y11050000D01*
X8309200D02*
X8360000Y11100800D01*
X8410800Y11050000D01*
X8360000Y10999200D01*
X8309200Y11050000D01*
X8239200D02*
X8290000Y11100800D01*
X8340800Y11050000D01*
X8290000Y10999200D01*
X8239200Y11050000D01*
X8169200D02*
X8220000Y11100800D01*
X8270800Y11050000D01*
X8220000Y10999200D01*
X8169200Y11050000D01*
X8099200D02*
X8150000Y11100800D01*
X8200800Y11050000D01*
X8150000Y10999200D01*
X8099200Y11050000D01*
X8029200D02*
X8080000Y11100800D01*
X8130800Y11050000D01*
X8080000Y10999200D01*
X8029200Y11050000D01*
X7959200D02*
X8010000Y11100800D01*
X8060800Y11050000D01*
X8010000Y10999200D01*
X7959200Y11050000D01*
X7879200D02*
X7930000Y11100800D01*
X7980800Y11050000D01*
X7930000Y10999200D01*
X7879200Y11050000D01*
X8539200Y11120000D02*
X8590000Y11170800D01*
X8640800Y11120000D01*
X8590000Y11069200D01*
X8539200Y11120000D01*
X8459200D02*
X8510000Y11170800D01*
X8560800Y11120000D01*
X8510000Y11069200D01*
X8459200Y11120000D01*
X8379200D02*
X8430000Y11170800D01*
X8480800Y11120000D01*
X8430000Y11069200D01*
X8379200Y11120000D01*
X8309200D02*
X8360000Y11170800D01*
X8410800Y11120000D01*
X8360000Y11069200D01*
X8309200Y11120000D01*
X8239200D02*
X8290000Y11170800D01*
X8340800Y11120000D01*
X8290000Y11069200D01*
X8239200Y11120000D01*
X8169200D02*
X8220000Y11170800D01*
X8270800Y11120000D01*
X8220000Y11069200D01*
X8169200Y11120000D01*
X8099200D02*
X8150000Y11170800D01*
X8200800Y11120000D01*
X8150000Y11069200D01*
X8099200Y11120000D01*
X8029200D02*
X8080000Y11170800D01*
X8130800Y11120000D01*
X8080000Y11069200D01*
X8029200Y11120000D01*
X7959200D02*
X8010000Y11170800D01*
X8060800Y11120000D01*
X8010000Y11069200D01*
X7959200Y11120000D01*
X7879200D02*
X7930000Y11170800D01*
X7980800Y11120000D01*
X7930000Y11069200D01*
X7879200Y11120000D01*
X8539200Y11190000D02*
X8590000Y11240800D01*
X8640800Y11190000D01*
X8590000Y11139200D01*
X8539200Y11190000D01*
X8459200D02*
X8510000Y11240800D01*
X8560800Y11190000D01*
X8510000Y11139200D01*
X8459200Y11190000D01*
X8379200D02*
X8430000Y11240800D01*
X8480800Y11190000D01*
X8430000Y11139200D01*
X8379200Y11190000D01*
X8309200D02*
X8360000Y11240800D01*
X8410800Y11190000D01*
X8360000Y11139200D01*
X8309200Y11190000D01*
X8239200D02*
X8290000Y11240800D01*
X8340800Y11190000D01*
X8290000Y11139200D01*
X8239200Y11190000D01*
X8169200D02*
X8220000Y11240800D01*
X8270800Y11190000D01*
X8220000Y11139200D01*
X8169200Y11190000D01*
X8099200D02*
X8150000Y11240800D01*
X8200800Y11190000D01*
X8150000Y11139200D01*
X8099200Y11190000D01*
X8029200D02*
X8080000Y11240800D01*
X8130800Y11190000D01*
X8080000Y11139200D01*
X8029200Y11190000D01*
X7959200D02*
X8010000Y11240800D01*
X8060800Y11190000D01*
X8010000Y11139200D01*
X7959200Y11190000D01*
X7879200D02*
X7930000Y11240800D01*
X7980800Y11190000D01*
X7930000Y11139200D01*
X7879200Y11190000D01*
Y11270000D02*
X7930000Y11320800D01*
X7980800Y11270000D01*
X7930000Y11219200D01*
X7879200Y11270000D01*
X7959200D02*
X8010000Y11320800D01*
X8060800Y11270000D01*
X8010000Y11219200D01*
X7959200Y11270000D01*
X8029200D02*
X8080000Y11320800D01*
X8130800Y11270000D01*
X8080000Y11219200D01*
X8029200Y11270000D01*
X8099200D02*
X8150000Y11320800D01*
X8200800Y11270000D01*
X8150000Y11219200D01*
X8099200Y11270000D01*
X8169200D02*
X8220000Y11320800D01*
X8270800Y11270000D01*
X8220000Y11219200D01*
X8169200Y11270000D01*
X8239200D02*
X8290000Y11320800D01*
X8340800Y11270000D01*
X8290000Y11219200D01*
X8239200Y11270000D01*
X8309200D02*
X8360000Y11320800D01*
X8410800Y11270000D01*
X8360000Y11219200D01*
X8309200Y11270000D01*
X8379200D02*
X8430000Y11320800D01*
X8480800Y11270000D01*
X8430000Y11219200D01*
X8379200Y11270000D01*
X8459200D02*
X8510000Y11320800D01*
X8560800Y11270000D01*
X8510000Y11219200D01*
X8459200Y11270000D01*
X8539200D02*
X8590000Y11320800D01*
X8640800Y11270000D01*
X8590000Y11219200D01*
X8539200Y11270000D01*
X8009200Y10320000D02*
X8060000Y10370800D01*
X8110800Y10320000D01*
X8060000Y10269200D01*
X8009200Y10320000D01*
X7939200D02*
X7990000Y10370800D01*
X8040800Y10320000D01*
X7990000Y10269200D01*
X7939200Y10320000D01*
X7859200D02*
X7910000Y10370800D01*
X7960800Y10320000D01*
X7910000Y10269200D01*
X7859200Y10320000D01*
X7779200D02*
X7830000Y10370800D01*
X7880800Y10320000D01*
X7830000Y10269200D01*
X7779200Y10320000D01*
X7689200D02*
X7740000Y10370800D01*
X7790800Y10320000D01*
X7740000Y10269200D01*
X7689200Y10320000D01*
X7589549Y10318751D02*
X7640349Y10369551D01*
X7691149Y10318751D01*
X7640349Y10267951D01*
X7589549Y10318751D01*
X7499200Y10320000D02*
X7550000Y10370800D01*
X7600800Y10320000D01*
X7550000Y10269200D01*
X7499200Y10320000D01*
X8989200Y10470000D02*
X9040000Y10520800D01*
X9090800Y10470000D01*
X9040000Y10419200D01*
X8989200Y10470000D01*
X7729200Y10940000D02*
X7780000Y10990800D01*
X7830800Y10940000D01*
X7780000Y10889200D01*
X7729200Y10940000D01*
X7669200D02*
X7720000Y10990800D01*
X7770800Y10940000D01*
X7720000Y10889200D01*
X7669200Y10940000D01*
X7599200D02*
X7650000Y10990800D01*
X7700800Y10940000D01*
X7650000Y10889200D01*
X7599200Y10940000D01*
X7519200D02*
X7570000Y10990800D01*
X7620800Y10940000D01*
X7570000Y10889200D01*
X7519200Y10940000D01*
X7719200Y11000000D02*
X7770000Y11050800D01*
X7820800Y11000000D01*
X7770000Y10949200D01*
X7719200Y11000000D01*
X7649200D02*
X7700000Y11050800D01*
X7750800Y11000000D01*
X7700000Y10949200D01*
X7649200Y11000000D01*
X7589200D02*
X7640000Y11050800D01*
X7690800Y11000000D01*
X7640000Y10949200D01*
X7589200Y11000000D01*
X7519200D02*
X7570000Y11050800D01*
X7620800Y11000000D01*
X7570000Y10949200D01*
X7519200Y11000000D01*
X12669200Y8010000D02*
X12720000Y8060800D01*
X12770800Y8010000D01*
X12720000Y7959200D01*
X12669200Y8010000D01*
Y8080000D02*
X12720000Y8130800D01*
X12770800Y8080000D01*
X12720000Y8029200D01*
X12669200Y8080000D01*
Y8140000D02*
X12720000Y8190800D01*
X12770800Y8140000D01*
X12720000Y8089200D01*
X12669200Y8140000D01*
Y8210000D02*
X12720000Y8260800D01*
X12770800Y8210000D01*
X12720000Y8159200D01*
X12669200Y8210000D01*
Y8270000D02*
X12720000Y8320800D01*
X12770800Y8270000D01*
X12720000Y8219200D01*
X12669200Y8270000D01*
Y8340000D02*
X12720000Y8390800D01*
X12770800Y8340000D01*
X12720000Y8289200D01*
X12669200Y8340000D01*
X12599200Y8270000D02*
X12650000Y8320800D01*
X12700800Y8270000D01*
X12650000Y8219200D01*
X12599200Y8270000D01*
Y8340000D02*
X12650000Y8390800D01*
X12700800Y8340000D01*
X12650000Y8289200D01*
X12599200Y8340000D01*
Y8140000D02*
X12650000Y8190800D01*
X12700800Y8140000D01*
X12650000Y8089200D01*
X12599200Y8140000D01*
Y8210000D02*
X12650000Y8260800D01*
X12700800Y8210000D01*
X12650000Y8159200D01*
X12599200Y8210000D01*
Y8010000D02*
X12650000Y8060800D01*
X12700800Y8010000D01*
X12650000Y7959200D01*
X12599200Y8010000D01*
Y8080000D02*
X12650000Y8130800D01*
X12700800Y8080000D01*
X12650000Y8029200D01*
X12599200Y8080000D01*
X13189200Y7700000D02*
X13239999Y7750800D01*
X13290800Y7700000D01*
X13239999Y7649200D01*
X13189200Y7700000D01*
X13259200D02*
X13310001Y7750800D01*
X13360800Y7700000D01*
X13310001Y7649200D01*
X13259200Y7700000D01*
X13189200Y7760000D02*
X13239999Y7810800D01*
X13290800Y7760000D01*
X13239999Y7709200D01*
X13189200Y7760000D01*
X13259200D02*
X13310001Y7810800D01*
X13360800Y7760000D01*
X13310001Y7709200D01*
X13259200Y7760000D01*
X13189200Y7810000D02*
X13239999Y7860800D01*
X13290800Y7810000D01*
X13239999Y7759200D01*
X13189200Y7810000D01*
X13259200D02*
X13310001Y7860800D01*
X13360800Y7810000D01*
X13310001Y7759200D01*
X13259200Y7810000D01*
X12809200Y7940000D02*
X12860001Y7990800D01*
X12910800Y7940000D01*
X12860001Y7889200D01*
X12809200Y7940000D01*
Y7870000D02*
X12860001Y7920800D01*
X12910800Y7870000D01*
X12860001Y7819200D01*
X12809200Y7870000D01*
X12739200Y7940000D02*
X12790000Y7990800D01*
X12840800Y7940000D01*
X12790000Y7889200D01*
X12739200Y7940000D01*
Y7870000D02*
X12790000Y7920800D01*
X12840800Y7870000D01*
X12790000Y7819200D01*
X12739200Y7870000D01*
X12664701Y7944000D02*
X12715501Y7994800D01*
X12766301Y7944000D01*
X12715501Y7893200D01*
X12664701Y7944000D01*
Y7874000D02*
X12715501Y7924800D01*
X12766301Y7874000D01*
X12715501Y7823200D01*
X12664701Y7874000D01*
X12599200Y7940000D02*
X12650000Y7990800D01*
X12700800Y7940000D01*
X12650000Y7889200D01*
X12599200Y7940000D01*
Y7870000D02*
X12650000Y7920800D01*
X12700800Y7870000D01*
X12650000Y7819200D01*
X12599200Y7870000D01*
X12509200Y7330000D02*
X12560000Y7380800D01*
X12610800Y7330000D01*
X12560000Y7279200D01*
X12509200Y7330000D01*
X12429200D02*
X12480000Y7380800D01*
X12530800Y7330000D01*
X12480000Y7279200D01*
X12429200Y7330000D01*
Y7390000D02*
X12480000Y7440800D01*
X12530800Y7390000D01*
X12480000Y7339200D01*
X12429200Y7390000D01*
X12509200D02*
X12560000Y7440800D01*
X12610800Y7390000D01*
X12560000Y7339200D01*
X12509200Y7390000D01*
X12349200Y7450000D02*
X12400000Y7500800D01*
X12450800Y7450000D01*
X12400000Y7399200D01*
X12349200Y7450000D01*
X12429200D02*
X12480000Y7500800D01*
X12530800Y7450000D01*
X12480000Y7399200D01*
X12429200Y7450000D01*
X12509200D02*
X12560000Y7500800D01*
X12610800Y7450000D01*
X12560000Y7399200D01*
X12509200Y7450000D01*
X12509200Y7510000D02*
X12560000Y7560800D01*
X12610800Y7510000D01*
X12560000Y7459200D01*
X12509200Y7510000D01*
X12429200D02*
X12480000Y7560800D01*
X12530800Y7510000D01*
X12480000Y7459200D01*
X12429200Y7510000D01*
X12349200D02*
X12400000Y7560800D01*
X12450800Y7510000D01*
X12400000Y7459200D01*
X12349200Y7510000D01*
X12269200D02*
X12320000Y7560800D01*
X12370800Y7510000D01*
X12320000Y7459200D01*
X12269200Y7510000D01*
X12509200Y7560000D02*
X12560000Y7610800D01*
X12610800Y7560000D01*
X12560000Y7509200D01*
X12509200Y7560000D01*
X12429200D02*
X12480000Y7610800D01*
X12530800Y7560000D01*
X12480000Y7509200D01*
X12429200Y7560000D01*
X12349200D02*
X12400000Y7610800D01*
X12450800Y7560000D01*
X12400000Y7509200D01*
X12349200Y7560000D01*
X12269200D02*
X12320000Y7610800D01*
X12370800Y7560000D01*
X12320000Y7509200D01*
X12269200Y7560000D01*
X12509200Y7620000D02*
X12560000Y7670800D01*
X12610800Y7620000D01*
X12560000Y7569200D01*
X12509200Y7620000D01*
X12429200D02*
X12480000Y7670800D01*
X12530800Y7620000D01*
X12480000Y7569200D01*
X12429200Y7620000D01*
X12349200D02*
X12400000Y7670800D01*
X12450800Y7620000D01*
X12400000Y7569200D01*
X12349200Y7620000D01*
X12269200D02*
X12320000Y7670800D01*
X12370800Y7620000D01*
X12320000Y7569200D01*
X12269200Y7620000D01*
X12509200Y7680000D02*
X12560000Y7730800D01*
X12610800Y7680000D01*
X12560000Y7629200D01*
X12509200Y7680000D01*
X12429200D02*
X12480000Y7730800D01*
X12530800Y7680000D01*
X12480000Y7629200D01*
X12429200Y7680000D01*
X12349200D02*
X12400000Y7730800D01*
X12450800Y7680000D01*
X12400000Y7629200D01*
X12349200Y7680000D01*
X12269200D02*
X12320000Y7730800D01*
X12370800Y7680000D01*
X12320000Y7629200D01*
X12269200Y7680000D01*
X12509200Y7750000D02*
X12560000Y7800800D01*
X12610800Y7750000D01*
X12560000Y7699200D01*
X12509200Y7750000D01*
X12429200D02*
X12480000Y7800800D01*
X12530800Y7750000D01*
X12480000Y7699200D01*
X12429200Y7750000D01*
X12349200D02*
X12400000Y7800800D01*
X12450800Y7750000D01*
X12400000Y7699200D01*
X12349200Y7750000D01*
X12269200D02*
X12320000Y7800800D01*
X12370800Y7750000D01*
X12320000Y7699200D01*
X12269200Y7750000D01*
X12509200Y7810000D02*
X12560000Y7860800D01*
X12610800Y7810000D01*
X12560000Y7759200D01*
X12509200Y7810000D01*
X12429200D02*
X12480000Y7860800D01*
X12530800Y7810000D01*
X12480000Y7759200D01*
X12429200Y7810000D01*
X12349200D02*
X12400000Y7860800D01*
X12450800Y7810000D01*
X12400000Y7759200D01*
X12349200Y7810000D01*
X12269200D02*
X12320000Y7860800D01*
X12370800Y7810000D01*
X12320000Y7759200D01*
X12269200Y7810000D01*
X12509200Y7880000D02*
X12560000Y7930800D01*
X12610800Y7880000D01*
X12560000Y7829200D01*
X12509200Y7880000D01*
X12429200D02*
X12480000Y7930800D01*
X12530800Y7880000D01*
X12480000Y7829200D01*
X12429200Y7880000D01*
X12349200D02*
X12400000Y7930800D01*
X12450800Y7880000D01*
X12400000Y7829200D01*
X12349200Y7880000D01*
X12269200D02*
X12320000Y7930800D01*
X12370800Y7880000D01*
X12320000Y7829200D01*
X12269200Y7880000D01*
X12509200Y7940000D02*
X12560000Y7990800D01*
X12610800Y7940000D01*
X12560000Y7889200D01*
X12509200Y7940000D01*
X12429200D02*
X12480000Y7990800D01*
X12530800Y7940000D01*
X12480000Y7889200D01*
X12429200Y7940000D01*
X12349200D02*
X12400000Y7990800D01*
X12450800Y7940000D01*
X12400000Y7889200D01*
X12349200Y7940000D01*
X12269200D02*
X12320000Y7990800D01*
X12370800Y7940000D01*
X12320000Y7889200D01*
X12269200Y7940000D01*
X12505900Y7995000D02*
X12556700Y8045800D01*
X12607500Y7995000D01*
X12556700Y7944200D01*
X12505900Y7995000D01*
X12425900D02*
X12476700Y8045800D01*
X12527500Y7995000D01*
X12476700Y7944200D01*
X12425900Y7995000D01*
X12345900D02*
X12396700Y8045800D01*
X12447500Y7995000D01*
X12396700Y7944200D01*
X12345900Y7995000D01*
X12265900D02*
X12316700Y8045800D01*
X12367500Y7995000D01*
X12316700Y7944200D01*
X12265900Y7995000D01*
X12509200Y8050000D02*
X12560000Y8100800D01*
X12610800Y8050000D01*
X12560000Y7999200D01*
X12509200Y8050000D01*
X12429200D02*
X12480000Y8100800D01*
X12530800Y8050000D01*
X12480000Y7999200D01*
X12429200Y8050000D01*
X12349200D02*
X12400000Y8100800D01*
X12450800Y8050000D01*
X12400000Y7999200D01*
X12349200Y8050000D01*
X12269200D02*
X12320000Y8100800D01*
X12370800Y8050000D01*
X12320000Y7999200D01*
X12269200Y8050000D01*
X12509200Y8100000D02*
X12560000Y8150800D01*
X12610800Y8100000D01*
X12560000Y8049200D01*
X12509200Y8100000D01*
X12429200D02*
X12480000Y8150800D01*
X12530800Y8100000D01*
X12480000Y8049200D01*
X12429200Y8100000D01*
X12349200D02*
X12400000Y8150800D01*
X12450800Y8100000D01*
X12400000Y8049200D01*
X12349200Y8100000D01*
X12269200D02*
X12320000Y8150800D01*
X12370800Y8100000D01*
X12320000Y8049200D01*
X12269200Y8100000D01*
X12509200Y8150000D02*
X12560000Y8200800D01*
X12610800Y8150000D01*
X12560000Y8099200D01*
X12509200Y8150000D01*
X12429200D02*
X12480000Y8200800D01*
X12530800Y8150000D01*
X12480000Y8099200D01*
X12429200Y8150000D01*
X12349200D02*
X12400000Y8200800D01*
X12450800Y8150000D01*
X12400000Y8099200D01*
X12349200Y8150000D01*
X12269200D02*
X12320000Y8200800D01*
X12370800Y8150000D01*
X12320000Y8099200D01*
X12269200Y8150000D01*
X12509200Y8210000D02*
X12560000Y8260800D01*
X12610800Y8210000D01*
X12560000Y8159200D01*
X12509200Y8210000D01*
X12429200D02*
X12480000Y8260800D01*
X12530800Y8210000D01*
X12480000Y8159200D01*
X12429200Y8210000D01*
X12349200D02*
X12400000Y8260800D01*
X12450800Y8210000D01*
X12400000Y8159200D01*
X12349200Y8210000D01*
X12269200D02*
X12320000Y8260800D01*
X12370800Y8210000D01*
X12320000Y8159200D01*
X12269200Y8210000D01*
X12509200Y8270000D02*
X12560000Y8320800D01*
X12610800Y8270000D01*
X12560000Y8219200D01*
X12509200Y8270000D01*
X12429200D02*
X12480000Y8320800D01*
X12530800Y8270000D01*
X12480000Y8219200D01*
X12429200Y8270000D01*
X12349200D02*
X12400000Y8320800D01*
X12450800Y8270000D01*
X12400000Y8219200D01*
X12349200Y8270000D01*
X12269200D02*
X12320000Y8320800D01*
X12370800Y8270000D01*
X12320000Y8219200D01*
X12269200Y8270000D01*
X12509200Y8330000D02*
X12560000Y8380800D01*
X12610800Y8330000D01*
X12560000Y8279200D01*
X12509200Y8330000D01*
X12429200D02*
X12480000Y8380800D01*
X12530800Y8330000D01*
X12480000Y8279200D01*
X12429200Y8330000D01*
X12349200D02*
X12400000Y8380800D01*
X12450800Y8330000D01*
X12400000Y8279200D01*
X12349200Y8330000D01*
X12269200D02*
X12320000Y8380800D01*
X12370800Y8330000D01*
X12320000Y8279200D01*
X12269200Y8330000D01*
X10589200Y7120000D02*
X10640000Y7170800D01*
X10690800Y7120000D01*
X10640000Y7069200D01*
X10589200Y7120000D01*
X10669200D02*
X10720000Y7170800D01*
X10770800Y7120000D01*
X10720000Y7069200D01*
X10669200Y7120000D01*
X10749200D02*
X10800000Y7170800D01*
X10850800Y7120000D01*
X10800000Y7069200D01*
X10749200Y7120000D01*
X10739200Y7350000D02*
X10790000Y7400800D01*
X10840800Y7350000D01*
X10790000Y7299200D01*
X10739200Y7350000D01*
X10659200D02*
X10710000Y7400800D01*
X10760800Y7350000D01*
X10710000Y7299200D01*
X10659200Y7350000D01*
X10579200D02*
X10630000Y7400800D01*
X10680800Y7350000D01*
X10630000Y7299200D01*
X10579200Y7350000D01*
X9229200Y7390000D02*
X9280000Y7440800D01*
X9330800Y7390000D01*
X9280000Y7339200D01*
X9229200Y7390000D01*
X9309200D02*
X9360000Y7440800D01*
X9410800Y7390000D01*
X9360000Y7339200D01*
X9309200Y7390000D01*
X9229200Y7460000D02*
X9280000Y7510800D01*
X9330800Y7460000D01*
X9280000Y7409200D01*
X9229200Y7460000D01*
X9309200D02*
X9360000Y7510800D01*
X9410800Y7460000D01*
X9360000Y7409200D01*
X9309200Y7460000D01*
X9219200Y7530000D02*
X9270000Y7580800D01*
X9320800Y7530000D01*
X9270000Y7479200D01*
X9219200Y7530000D01*
X9299200D02*
X9350000Y7580800D01*
X9400800Y7530000D01*
X9350000Y7479200D01*
X9299200Y7530000D01*
Y7620000D02*
X9350000Y7670800D01*
X9400800Y7620000D01*
X9350000Y7569200D01*
X9299200Y7620000D01*
X9219200D02*
X9270000Y7670800D01*
X9320800Y7620000D01*
X9270000Y7569200D01*
X9219200Y7620000D01*
X9769200Y8070000D02*
X9820000Y8120800D01*
X9870800Y8070000D01*
X9820000Y8019200D01*
X9769200Y8070000D01*
Y8140000D02*
X9820000Y8190800D01*
X9870800Y8140000D01*
X9820000Y8089200D01*
X9769200Y8140000D01*
Y8200000D02*
X9820000Y8250800D01*
X9870800Y8200000D01*
X9820000Y8149200D01*
X9769200Y8200000D01*
Y8270000D02*
X9820000Y8320800D01*
X9870800Y8270000D01*
X9820000Y8219200D01*
X9769200Y8270000D01*
Y8340000D02*
X9820000Y8390800D01*
X9870800Y8340000D01*
X9820000Y8289200D01*
X9769200Y8340000D01*
Y8390000D02*
X9820000Y8440800D01*
X9870800Y8390000D01*
X9820000Y8339200D01*
X9769200Y8390000D01*
X9389200D02*
X9440000Y8440800D01*
X9490800Y8390000D01*
X9440000Y8339200D01*
X9389200Y8390000D01*
X9469200D02*
X9520000Y8440800D01*
X9570800Y8390000D01*
X9520000Y8339200D01*
X9469200Y8390000D01*
X9549200D02*
X9600000Y8440800D01*
X9650800Y8390000D01*
X9600000Y8339200D01*
X9549200Y8390000D01*
X9629200D02*
X9680000Y8440800D01*
X9730800Y8390000D01*
X9680000Y8339200D01*
X9629200Y8390000D01*
X9709535Y8386095D02*
X9760335Y8436895D01*
X9811135Y8386095D01*
X9760335Y8335295D01*
X9709535Y8386095D01*
X9389200Y8340000D02*
X9440000Y8390800D01*
X9490800Y8340000D01*
X9440000Y8289200D01*
X9389200Y8340000D01*
X9469200D02*
X9520000Y8390800D01*
X9570800Y8340000D01*
X9520000Y8289200D01*
X9469200Y8340000D01*
X9549200D02*
X9600000Y8390800D01*
X9650800Y8340000D01*
X9600000Y8289200D01*
X9549200Y8340000D01*
X9629200D02*
X9680000Y8390800D01*
X9730800Y8340000D01*
X9680000Y8289200D01*
X9629200Y8340000D01*
X9709535Y8336095D02*
X9760335Y8386895D01*
X9811135Y8336095D01*
X9760335Y8285295D01*
X9709535Y8336095D01*
X9389200Y8270000D02*
X9440000Y8320800D01*
X9490800Y8270000D01*
X9440000Y8219200D01*
X9389200Y8270000D01*
X9469200D02*
X9520000Y8320800D01*
X9570800Y8270000D01*
X9520000Y8219200D01*
X9469200Y8270000D01*
X9549200D02*
X9600000Y8320800D01*
X9650800Y8270000D01*
X9600000Y8219200D01*
X9549200Y8270000D01*
X9629200D02*
X9680000Y8320800D01*
X9730800Y8270000D01*
X9680000Y8219200D01*
X9629200Y8270000D01*
X9709535Y8266095D02*
X9760335Y8316895D01*
X9811135Y8266095D01*
X9760335Y8215295D01*
X9709535Y8266095D01*
X9389200Y8200000D02*
X9440000Y8250800D01*
X9490800Y8200000D01*
X9440000Y8149200D01*
X9389200Y8200000D01*
X9469200D02*
X9520000Y8250800D01*
X9570800Y8200000D01*
X9520000Y8149200D01*
X9469200Y8200000D01*
X9549200D02*
X9600000Y8250800D01*
X9650800Y8200000D01*
X9600000Y8149200D01*
X9549200Y8200000D01*
X9629200D02*
X9680000Y8250800D01*
X9730800Y8200000D01*
X9680000Y8149200D01*
X9629200Y8200000D01*
X9709535Y8196095D02*
X9760335Y8246895D01*
X9811135Y8196095D01*
X9760335Y8145295D01*
X9709535Y8196095D01*
X9389200Y8140000D02*
X9440000Y8190800D01*
X9490800Y8140000D01*
X9440000Y8089200D01*
X9389200Y8140000D01*
X9469200D02*
X9520000Y8190800D01*
X9570800Y8140000D01*
X9520000Y8089200D01*
X9469200Y8140000D01*
X9549200D02*
X9600000Y8190800D01*
X9650800Y8140000D01*
X9600000Y8089200D01*
X9549200Y8140000D01*
X9629200D02*
X9680000Y8190800D01*
X9730800Y8140000D01*
X9680000Y8089200D01*
X9629200Y8140000D01*
X9709535Y8136095D02*
X9760335Y8186895D01*
X9811135Y8136095D01*
X9760335Y8085295D01*
X9709535Y8136095D01*
X9389200Y8070000D02*
X9440000Y8120800D01*
X9490800Y8070000D01*
X9440000Y8019200D01*
X9389200Y8070000D01*
X9469200D02*
X9520000Y8120800D01*
X9570800Y8070000D01*
X9520000Y8019200D01*
X9469200Y8070000D01*
X9549200D02*
X9600000Y8120800D01*
X9650800Y8070000D01*
X9600000Y8019200D01*
X9549200Y8070000D01*
X9629200D02*
X9680000Y8120800D01*
X9730800Y8070000D01*
X9680000Y8019200D01*
X9629200Y8070000D01*
X9709535Y8066095D02*
X9760335Y8116895D01*
X9811135Y8066095D01*
X9760335Y8015295D01*
X9709535Y8066095D01*
X9779200Y7440000D02*
X9830000Y7490800D01*
X9880800Y7440000D01*
X9830000Y7389200D01*
X9779200Y7440000D01*
X9769200Y8000000D02*
X9820000Y8050800D01*
X9870800Y8000000D01*
X9820000Y7949200D01*
X9769200Y8000000D01*
X9389200Y7940000D02*
X9440000Y7990800D01*
X9490800Y7940000D01*
X9440000Y7889200D01*
X9389200Y7940000D01*
Y8000000D02*
X9440000Y8050800D01*
X9490800Y8000000D01*
X9440000Y7949200D01*
X9389200Y8000000D01*
X9469200D02*
X9520000Y8050800D01*
X9570800Y8000000D01*
X9520000Y7949200D01*
X9469200Y8000000D01*
X9549200D02*
X9600000Y8050800D01*
X9650800Y8000000D01*
X9600000Y7949200D01*
X9549200Y8000000D01*
X9629200D02*
X9680000Y8050800D01*
X9730800Y8000000D01*
X9680000Y7949200D01*
X9629200Y8000000D01*
X9709535Y7996095D02*
X9760335Y8046895D01*
X9811135Y7996095D01*
X9760335Y7945295D01*
X9709535Y7996095D01*
X9459200Y7920000D02*
X9510000Y7970800D01*
X9560800Y7920000D01*
X9510000Y7869200D01*
X9459200Y7920000D01*
X9539200D02*
X9590000Y7970800D01*
X9640800Y7920000D01*
X9590000Y7869200D01*
X9539200Y7920000D01*
X9619200D02*
X9670000Y7970800D01*
X9720800Y7920000D01*
X9670000Y7869200D01*
X9619200Y7920000D01*
X9699200D02*
X9750000Y7970800D01*
X9800800Y7920000D01*
X9750000Y7869200D01*
X9699200Y7920000D01*
X9779535Y7916095D02*
X9830335Y7966895D01*
X9881135Y7916095D01*
X9830335Y7865295D01*
X9779535Y7916095D01*
X9459200Y7860000D02*
X9510000Y7910800D01*
X9560800Y7860000D01*
X9510000Y7809200D01*
X9459200Y7860000D01*
X9539200D02*
X9590000Y7910800D01*
X9640800Y7860000D01*
X9590000Y7809200D01*
X9539200Y7860000D01*
X9619200D02*
X9670000Y7910800D01*
X9720800Y7860000D01*
X9670000Y7809200D01*
X9619200Y7860000D01*
X9699200D02*
X9750000Y7910800D01*
X9800800Y7860000D01*
X9750000Y7809200D01*
X9699200Y7860000D01*
X9779535Y7856095D02*
X9830335Y7906895D01*
X9881135Y7856095D01*
X9830335Y7805295D01*
X9779535Y7856095D01*
X9459200Y7790000D02*
X9510000Y7840800D01*
X9560800Y7790000D01*
X9510000Y7739200D01*
X9459200Y7790000D01*
X9539200D02*
X9590000Y7840800D01*
X9640800Y7790000D01*
X9590000Y7739200D01*
X9539200Y7790000D01*
X9619200D02*
X9670000Y7840800D01*
X9720800Y7790000D01*
X9670000Y7739200D01*
X9619200Y7790000D01*
X9699200D02*
X9750000Y7840800D01*
X9800800Y7790000D01*
X9750000Y7739200D01*
X9699200Y7790000D01*
X9779535Y7786095D02*
X9830335Y7836895D01*
X9881135Y7786095D01*
X9830335Y7735295D01*
X9779535Y7786095D01*
X9459200Y7720000D02*
X9510000Y7770800D01*
X9560800Y7720000D01*
X9510000Y7669200D01*
X9459200Y7720000D01*
X9539200D02*
X9590000Y7770800D01*
X9640800Y7720000D01*
X9590000Y7669200D01*
X9539200Y7720000D01*
X9619200D02*
X9670000Y7770800D01*
X9720800Y7720000D01*
X9670000Y7669200D01*
X9619200Y7720000D01*
X9699200D02*
X9750000Y7770800D01*
X9800800Y7720000D01*
X9750000Y7669200D01*
X9699200Y7720000D01*
X9779535Y7716095D02*
X9830335Y7766895D01*
X9881135Y7716095D01*
X9830335Y7665295D01*
X9779535Y7716095D01*
X9459200Y7650000D02*
X9510000Y7700800D01*
X9560800Y7650000D01*
X9510000Y7599200D01*
X9459200Y7650000D01*
X9539200D02*
X9590000Y7700800D01*
X9640800Y7650000D01*
X9590000Y7599200D01*
X9539200Y7650000D01*
X9619200D02*
X9670000Y7700800D01*
X9720800Y7650000D01*
X9670000Y7599200D01*
X9619200Y7650000D01*
X9699200D02*
X9750000Y7700800D01*
X9800800Y7650000D01*
X9750000Y7599200D01*
X9699200Y7650000D01*
X9779535Y7646095D02*
X9830335Y7696895D01*
X9881135Y7646095D01*
X9830335Y7595295D01*
X9779535Y7646095D01*
X9459200Y7580000D02*
X9510000Y7630800D01*
X9560800Y7580000D01*
X9510000Y7529200D01*
X9459200Y7580000D01*
X9539200D02*
X9590000Y7630800D01*
X9640800Y7580000D01*
X9590000Y7529200D01*
X9539200Y7580000D01*
X9619200D02*
X9670000Y7630800D01*
X9720800Y7580000D01*
X9670000Y7529200D01*
X9619200Y7580000D01*
X9699200D02*
X9750000Y7630800D01*
X9800800Y7580000D01*
X9750000Y7529200D01*
X9699200Y7580000D01*
X9779535Y7576095D02*
X9830335Y7626895D01*
X9881135Y7576095D01*
X9830335Y7525295D01*
X9779535Y7576095D01*
X9459200Y7510000D02*
X9510000Y7560800D01*
X9560800Y7510000D01*
X9510000Y7459200D01*
X9459200Y7510000D01*
X9539200D02*
X9590000Y7560800D01*
X9640800Y7510000D01*
X9590000Y7459200D01*
X9539200Y7510000D01*
X9619200D02*
X9670000Y7560800D01*
X9720800Y7510000D01*
X9670000Y7459200D01*
X9619200Y7510000D01*
X9699200D02*
X9750000Y7560800D01*
X9800800Y7510000D01*
X9750000Y7459200D01*
X9699200Y7510000D01*
X9779535Y7506095D02*
X9830335Y7556895D01*
X9881135Y7506095D01*
X9830335Y7455295D01*
X9779535Y7506095D01*
X9698865Y7443905D02*
X9749665Y7494705D01*
X9800465Y7443905D01*
X9749665Y7393105D01*
X9698865Y7443905D01*
X9618865D02*
X9669665Y7494705D01*
X9720465Y7443905D01*
X9669665Y7393105D01*
X9618865Y7443905D01*
X9538865D02*
X9589665Y7494705D01*
X9640465Y7443905D01*
X9589665Y7393105D01*
X9538865Y7443905D01*
X9458865D02*
X9509665Y7494705D01*
X9560465Y7443905D01*
X9509665Y7393105D01*
X9458865Y7443905D01*
X8679200Y7560000D02*
X8730000Y7610800D01*
X8780800Y7560000D01*
X8730000Y7509200D01*
X8679200Y7560000D01*
Y7640000D02*
X8730000Y7690800D01*
X8780800Y7640000D01*
X8730000Y7589200D01*
X8679200Y7640000D01*
Y7720000D02*
X8730000Y7770800D01*
X8780800Y7720000D01*
X8730000Y7669200D01*
X8679200Y7720000D01*
X8769200D02*
X8820000Y7770800D01*
X8870800Y7720000D01*
X8820000Y7669200D01*
X8769200Y7720000D01*
Y7640000D02*
X8820000Y7690800D01*
X8870800Y7640000D01*
X8820000Y7589200D01*
X8769200Y7640000D01*
Y7560000D02*
X8820000Y7610800D01*
X8870800Y7560000D01*
X8820000Y7509200D01*
X8769200Y7560000D01*
X8839200Y7730000D02*
X8890000Y7780800D01*
X8940800Y7730000D01*
X8890000Y7679200D01*
X8839200Y7730000D01*
Y7650000D02*
X8890000Y7700800D01*
X8940800Y7650000D01*
X8890000Y7599200D01*
X8839200Y7650000D01*
Y7570000D02*
X8890000Y7620800D01*
X8940800Y7570000D01*
X8890000Y7519200D01*
X8839200Y7570000D01*
X8909200Y7730000D02*
X8960000Y7780800D01*
X9010800Y7730000D01*
X8960000Y7679200D01*
X8909200Y7730000D01*
Y7650000D02*
X8960000Y7700800D01*
X9010800Y7650000D01*
X8960000Y7599200D01*
X8909200Y7650000D01*
Y7570000D02*
X8960000Y7620800D01*
X9010800Y7570000D01*
X8960000Y7519200D01*
X8909200Y7570000D01*
X8979200Y7730000D02*
X9030000Y7780800D01*
X9080800Y7730000D01*
X9030000Y7679200D01*
X8979200Y7730000D01*
Y7650000D02*
X9030000Y7700800D01*
X9080800Y7650000D01*
X9030000Y7599200D01*
X8979200Y7650000D01*
Y7570000D02*
X9030000Y7620800D01*
X9080800Y7570000D01*
X9030000Y7519200D01*
X8979200Y7570000D01*
X7409200Y7390000D02*
X7460000Y7440800D01*
X7510800Y7390000D01*
X7460000Y7339200D01*
X7409200Y7390000D01*
Y7310000D02*
X7460000Y7360800D01*
X7510800Y7310000D01*
X7460000Y7259200D01*
X7409200Y7310000D01*
Y7230000D02*
X7460000Y7280800D01*
X7510800Y7230000D01*
X7460000Y7179200D01*
X7409200Y7230000D01*
X7339200D02*
X7390000Y7280800D01*
X7440800Y7230000D01*
X7390000Y7179200D01*
X7339200Y7230000D01*
Y7310000D02*
X7390000Y7360800D01*
X7440800Y7310000D01*
X7390000Y7259200D01*
X7339200Y7310000D01*
Y7390000D02*
X7390000Y7440800D01*
X7440800Y7390000D01*
X7390000Y7339200D01*
X7339200Y7390000D01*
X7269200Y7230000D02*
X7320000Y7280800D01*
X7370800Y7230000D01*
X7320000Y7179200D01*
X7269200Y7230000D01*
Y7310000D02*
X7320000Y7360800D01*
X7370800Y7310000D01*
X7320000Y7259200D01*
X7269200Y7310000D01*
Y7390000D02*
X7320000Y7440800D01*
X7370800Y7390000D01*
X7320000Y7339200D01*
X7269200Y7390000D01*
X7199200Y7230000D02*
X7250000Y7280800D01*
X7300800Y7230000D01*
X7250000Y7179200D01*
X7199200Y7230000D01*
Y7310000D02*
X7250000Y7360800D01*
X7300800Y7310000D01*
X7250000Y7259200D01*
X7199200Y7310000D01*
Y7390000D02*
X7250000Y7440800D01*
X7300800Y7390000D01*
X7250000Y7339200D01*
X7199200Y7390000D01*
X7129200Y7220000D02*
X7180000Y7270800D01*
X7230800Y7220000D01*
X7180000Y7169200D01*
X7129200Y7220000D01*
Y7300000D02*
X7180000Y7350800D01*
X7230800Y7300000D01*
X7180000Y7249200D01*
X7129200Y7300000D01*
Y7380000D02*
X7180000Y7430800D01*
X7230800Y7380000D01*
X7180000Y7329200D01*
X7129200Y7380000D01*
X7039200D02*
X7090000Y7430800D01*
X7140800Y7380000D01*
X7090000Y7329200D01*
X7039200Y7380000D01*
Y7300000D02*
X7090000Y7350800D01*
X7140800Y7300000D01*
X7090000Y7249200D01*
X7039200Y7300000D01*
Y7220000D02*
X7090000Y7270800D01*
X7140800Y7220000D01*
X7090000Y7169200D01*
X7039200Y7220000D01*
X8539200Y8330000D02*
X8590000Y8380800D01*
X8640800Y8330000D01*
X8590000Y8279200D01*
X8539200Y8330000D01*
X8459200D02*
X8510000Y8380800D01*
X8560800Y8330000D01*
X8510000Y8279200D01*
X8459200Y8330000D01*
X8379200D02*
X8430000Y8380800D01*
X8480800Y8330000D01*
X8430000Y8279200D01*
X8379200Y8330000D01*
X8309200D02*
X8360000Y8380800D01*
X8410800Y8330000D01*
X8360000Y8279200D01*
X8309200Y8330000D01*
X8229200D02*
X8280000Y8380800D01*
X8330800Y8330000D01*
X8280000Y8279200D01*
X8229200Y8330000D01*
X8149200D02*
X8200000Y8380800D01*
X8250800Y8330000D01*
X8200000Y8279200D01*
X8149200Y8330000D01*
X8539200Y8250000D02*
X8590000Y8300800D01*
X8640800Y8250000D01*
X8590000Y8199200D01*
X8539200Y8250000D01*
X8459200D02*
X8510000Y8300800D01*
X8560800Y8250000D01*
X8510000Y8199200D01*
X8459200Y8250000D01*
X8379200D02*
X8430000Y8300800D01*
X8480800Y8250000D01*
X8430000Y8199200D01*
X8379200Y8250000D01*
X8309200D02*
X8360000Y8300800D01*
X8410800Y8250000D01*
X8360000Y8199200D01*
X8309200Y8250000D01*
X8229200D02*
X8280000Y8300800D01*
X8330800Y8250000D01*
X8280000Y8199200D01*
X8229200Y8250000D01*
X8149200D02*
X8200000Y8300800D01*
X8250800Y8250000D01*
X8200000Y8199200D01*
X8149200Y8250000D01*
X8539200Y8170000D02*
X8590000Y8220800D01*
X8640800Y8170000D01*
X8590000Y8119200D01*
X8539200Y8170000D01*
X8459200D02*
X8510000Y8220800D01*
X8560800Y8170000D01*
X8510000Y8119200D01*
X8459200Y8170000D01*
X8379200D02*
X8430000Y8220800D01*
X8480800Y8170000D01*
X8430000Y8119200D01*
X8379200Y8170000D01*
X8309200D02*
X8360000Y8220800D01*
X8410800Y8170000D01*
X8360000Y8119200D01*
X8309200Y8170000D01*
X8229200D02*
X8280000Y8220800D01*
X8330800Y8170000D01*
X8280000Y8119200D01*
X8229200Y8170000D01*
X8149200D02*
X8200000Y8220800D01*
X8250800Y8170000D01*
X8200000Y8119200D01*
X8149200Y8170000D01*
X8539200Y8090000D02*
X8590000Y8140800D01*
X8640800Y8090000D01*
X8590000Y8039200D01*
X8539200Y8090000D01*
X8459200D02*
X8510000Y8140800D01*
X8560800Y8090000D01*
X8510000Y8039200D01*
X8459200Y8090000D01*
X8379200D02*
X8430000Y8140800D01*
X8480800Y8090000D01*
X8430000Y8039200D01*
X8379200Y8090000D01*
X8309200D02*
X8360000Y8140800D01*
X8410800Y8090000D01*
X8360000Y8039200D01*
X8309200Y8090000D01*
X8229200D02*
X8280000Y8140800D01*
X8330800Y8090000D01*
X8280000Y8039200D01*
X8229200Y8090000D01*
X8149200D02*
X8200000Y8140800D01*
X8250800Y8090000D01*
X8200000Y8039200D01*
X8149200Y8090000D01*
X8151700Y8019889D02*
X8202500Y8070689D01*
X8253300Y8019889D01*
X8202500Y7969089D01*
X8151700Y8019889D01*
X8231700D02*
X8282500Y8070689D01*
X8333300Y8019889D01*
X8282500Y7969089D01*
X8231700Y8019889D01*
X8311700D02*
X8362500Y8070689D01*
X8413300Y8019889D01*
X8362500Y7969089D01*
X8311700Y8019889D01*
X8381700D02*
X8432500Y8070689D01*
X8483300Y8019889D01*
X8432500Y7969089D01*
X8381700Y8019889D01*
X8461700D02*
X8512500Y8070689D01*
X8563300Y8019889D01*
X8512500Y7969089D01*
X8461700Y8019889D01*
X8541700D02*
X8592500Y8070689D01*
X8643300Y8019889D01*
X8592500Y7969089D01*
X8541700Y8019889D01*
X8739200Y7860000D02*
X8790000Y7910800D01*
X8840800Y7860000D01*
X8790000Y7809200D01*
X8739200Y7860000D01*
X8709200Y7930000D02*
X8760000Y7980800D01*
X8810800Y7930000D01*
X8760000Y7879200D01*
X8709200Y7930000D01*
X8629200D02*
X8680000Y7980800D01*
X8730800Y7930000D01*
X8680000Y7879200D01*
X8629200Y7930000D01*
X8549200D02*
X8600000Y7980800D01*
X8650800Y7930000D01*
X8600000Y7879200D01*
X8549200Y7930000D01*
X8469200D02*
X8520000Y7980800D01*
X8570800Y7930000D01*
X8520000Y7879200D01*
X8469200Y7930000D01*
X8389200D02*
X8440000Y7980800D01*
X8490800Y7930000D01*
X8440000Y7879200D01*
X8389200Y7930000D01*
X8309200D02*
X8360000Y7980800D01*
X8410800Y7930000D01*
X8360000Y7879200D01*
X8309200Y7930000D01*
X8229200D02*
X8280000Y7980800D01*
X8330800Y7930000D01*
X8280000Y7879200D01*
X8229200Y7930000D01*
X8149200D02*
X8200000Y7980800D01*
X8250800Y7930000D01*
X8200000Y7879200D01*
X8149200Y7930000D01*
X9179200Y7950000D02*
X9230000Y8000800D01*
X9280800Y7950000D01*
X9230000Y7899200D01*
X9179200Y7950000D01*
X9099200D02*
X9150000Y8000800D01*
X9200800Y7950000D01*
X9150000Y7899200D01*
X9099200Y7950000D01*
X9019200D02*
X9070000Y8000800D01*
X9120800Y7950000D01*
X9070000Y7899200D01*
X9019200Y7950000D01*
X8939200D02*
X8990000Y8000800D01*
X9040800Y7950000D01*
X8990000Y7899200D01*
X8939200Y7950000D01*
X8979200Y7860000D02*
X9030000Y7910800D01*
X9080800Y7860000D01*
X9030000Y7809200D01*
X8979200Y7860000D01*
X8899200D02*
X8950000Y7910800D01*
X9000800Y7860000D01*
X8950000Y7809200D01*
X8899200Y7860000D01*
X8819200D02*
X8870000Y7910800D01*
X8920800Y7860000D01*
X8870000Y7809200D01*
X8819200Y7860000D01*
X8659200D02*
X8710000Y7910800D01*
X8760800Y7860000D01*
X8710000Y7809200D01*
X8659200Y7860000D01*
X8579200D02*
X8630000Y7910800D01*
X8680800Y7860000D01*
X8630000Y7809200D01*
X8579200Y7860000D01*
X8499200D02*
X8550000Y7910800D01*
X8600800Y7860000D01*
X8550000Y7809200D01*
X8499200Y7860000D01*
X8419200D02*
X8470000Y7910800D01*
X8520800Y7860000D01*
X8470000Y7809200D01*
X8419200Y7860000D01*
X8349200D02*
X8400000Y7910800D01*
X8450800Y7860000D01*
X8400000Y7809200D01*
X8349200Y7860000D01*
X8269200D02*
X8320000Y7910800D01*
X8370800Y7860000D01*
X8320000Y7809200D01*
X8269200Y7860000D01*
X8189200D02*
X8240000Y7910800D01*
X8290800Y7860000D01*
X8240000Y7809200D01*
X8189200Y7860000D01*
X8109200D02*
X8160000Y7910800D01*
X8210800Y7860000D01*
X8160000Y7809200D01*
X8109200Y7860000D01*
X8349200Y7790000D02*
X8400000Y7840800D01*
X8450800Y7790000D01*
X8400000Y7739200D01*
X8349200Y7790000D01*
X8269200D02*
X8320000Y7840800D01*
X8370800Y7790000D01*
X8320000Y7739200D01*
X8269200Y7790000D01*
X8189200D02*
X8240000Y7840800D01*
X8290800Y7790000D01*
X8240000Y7739200D01*
X8189200Y7790000D01*
X8109200D02*
X8160000Y7840800D01*
X8210800Y7790000D01*
X8160000Y7739200D01*
X8109200Y7790000D01*
X8349200Y7720000D02*
X8400000Y7770800D01*
X8450800Y7720000D01*
X8400000Y7669200D01*
X8349200Y7720000D01*
X8269200D02*
X8320000Y7770800D01*
X8370800Y7720000D01*
X8320000Y7669200D01*
X8269200Y7720000D01*
X8189200D02*
X8240000Y7770800D01*
X8290800Y7720000D01*
X8240000Y7669200D01*
X8189200Y7720000D01*
X8109200D02*
X8160000Y7770800D01*
X8210800Y7720000D01*
X8160000Y7669200D01*
X8109200Y7720000D01*
X8349200Y7650000D02*
X8400000Y7700800D01*
X8450800Y7650000D01*
X8400000Y7599200D01*
X8349200Y7650000D01*
X8269200D02*
X8320000Y7700800D01*
X8370800Y7650000D01*
X8320000Y7599200D01*
X8269200Y7650000D01*
X8189200D02*
X8240000Y7700800D01*
X8290800Y7650000D01*
X8240000Y7599200D01*
X8189200Y7650000D01*
X8109200D02*
X8160000Y7700800D01*
X8210800Y7650000D01*
X8160000Y7599200D01*
X8109200Y7650000D01*
X8359200Y7570000D02*
X8410000Y7620800D01*
X8460800Y7570000D01*
X8410000Y7519200D01*
X8359200Y7570000D01*
X8279200D02*
X8330000Y7620800D01*
X8380800Y7570000D01*
X8330000Y7519200D01*
X8279200Y7570000D01*
X8199200D02*
X8250000Y7620800D01*
X8300800Y7570000D01*
X8250000Y7519200D01*
X8199200Y7570000D01*
X8119200D02*
X8170000Y7620800D01*
X8220800Y7570000D01*
X8170000Y7519200D01*
X8119200Y7570000D01*
X8349200Y7500000D02*
X8400000Y7550800D01*
X8450800Y7500000D01*
X8400000Y7449200D01*
X8349200Y7500000D01*
X8269200D02*
X8320000Y7550800D01*
X8370800Y7500000D01*
X8320000Y7449200D01*
X8269200Y7500000D01*
X8189200D02*
X8240000Y7550800D01*
X8290800Y7500000D01*
X8240000Y7449200D01*
X8189200Y7500000D01*
X8109200D02*
X8160000Y7550800D01*
X8210800Y7500000D01*
X8160000Y7449200D01*
X8109200Y7500000D01*
Y7430000D02*
X8160000Y7480800D01*
X8210800Y7430000D01*
X8160000Y7379200D01*
X8109200Y7430000D01*
X8189200D02*
X8240000Y7480800D01*
X8290800Y7430000D01*
X8240000Y7379200D01*
X8189200Y7430000D01*
X8269200D02*
X8320000Y7480800D01*
X8370800Y7430000D01*
X8320000Y7379200D01*
X8269200Y7430000D01*
X8349200D02*
X8400000Y7480800D01*
X8450800Y7430000D01*
X8400000Y7379200D01*
X8349200Y7430000D01*
X9999200Y3850000D02*
X10050000Y3900800D01*
X10100800Y3850000D01*
X10050000Y3799200D01*
X9999200Y3850000D01*
X10277227Y2973736D02*
X10328027Y3024536D01*
X10378827Y2973736D01*
X10328027Y2922936D01*
X10277227Y2973736D01*
X10299200Y3330000D02*
X10350000Y3380800D01*
X10400800Y3330000D01*
X10350000Y3279200D01*
X10299200Y3330000D01*
X9788844Y4072079D02*
X9839644Y4122879D01*
X9890444Y4072079D01*
X9839644Y4021279D01*
X9788844Y4072079D01*
X9932362Y3996125D02*
X9983162Y4046925D01*
X10033962Y3996125D01*
X9983162Y3945325D01*
X9932362Y3996125D01*
X9850782Y3720007D02*
X9901582Y3770807D01*
X9952382Y3720007D01*
X9901582Y3669207D01*
X9850782Y3720007D01*
X9879200Y3620000D02*
X9930000Y3670800D01*
X9980800Y3620000D01*
X9930000Y3569200D01*
X9879200Y3620000D01*
X7644267Y3822599D02*
X7695067Y3873399D01*
X7745867Y3822599D01*
X7695067Y3771799D01*
X7644267Y3822599D01*
X7247162Y3821996D02*
X7297962Y3872796D01*
X7348762Y3821996D01*
X7297962Y3771196D01*
X7247162Y3821996D01*
X7399200Y3040000D02*
X7450000Y3090800D01*
X7500800Y3040000D01*
X7450000Y2989200D01*
X7399200Y3040000D01*
X6809074Y3061769D02*
X6859874Y3112569D01*
X6910674Y3061769D01*
X6859874Y3010969D01*
X6809074Y3061769D01*
X7009200Y2980000D02*
X7060000Y3030800D01*
X7110800Y2980000D01*
X7060000Y2929200D01*
X7009200Y2980000D01*
X7650094Y3583847D02*
X7700894Y3634647D01*
X7751694Y3583847D01*
X7700894Y3533047D01*
X7650094Y3583847D01*
X7549200Y3580000D02*
X7600000Y3630800D01*
X7650800Y3580000D01*
X7600000Y3529200D01*
X7549200Y3580000D01*
X7326700Y3372500D02*
X7377500Y3423300D01*
X7428300Y3372500D01*
X7377500Y3321700D01*
X7326700Y3372500D01*
X12849200Y3860000D02*
X12900000Y3910800D01*
X12950800Y3860000D01*
X12900000Y3809200D01*
X12849200Y3860000D01*
X12592349Y3898502D02*
X12643149Y3949302D01*
X12693949Y3898502D01*
X12643149Y3847702D01*
X12592349Y3898502D01*
X12379200Y3850000D02*
X12430000Y3900800D01*
X12480800Y3850000D01*
X12430000Y3799200D01*
X12379200Y3850000D01*
X12218498Y3846263D02*
X12269298Y3897063D01*
X12320098Y3846263D01*
X12269298Y3795463D01*
X12218498Y3846263D01*
X10499074Y3521346D02*
X10549874Y3572146D01*
X10600674Y3521346D01*
X10549874Y3470546D01*
X10499074Y3521346D01*
X10419200Y3620000D02*
X10470000Y3670800D01*
X10520800Y3620000D01*
X10470000Y3569200D01*
X10419200Y3620000D01*
X12499200Y3810000D02*
X12550000Y3860800D01*
X12600800Y3810000D01*
X12550000Y3759200D01*
X12499200Y3810000D01*
X12129200D02*
X12180000Y3860800D01*
X12230800Y3810000D01*
X12180000Y3759200D01*
X12129200Y3810000D01*
X11752137Y4042814D02*
X11802937Y4093614D01*
X11853737Y4042814D01*
X11802937Y3992014D01*
X11752137Y4042814D01*
X11879200Y3920000D02*
X11930000Y3970800D01*
X11980800Y3920000D01*
X11930000Y3869200D01*
X11879200Y3920000D01*
X11449200Y3500000D02*
X11500000Y3550800D01*
X11550800Y3500000D01*
X11500000Y3449200D01*
X11449200Y3500000D01*
X11394200Y3110000D02*
X11445000Y3160800D01*
X11495800Y3110000D01*
X11445000Y3059200D01*
X11394200Y3110000D01*
X11854200D02*
X11905000Y3160800D01*
X11955800Y3110000D01*
X11905000Y3059200D01*
X11854200Y3110000D01*
X12119200D02*
X12170000Y3160800D01*
X12220800Y3110000D01*
X12170000Y3059200D01*
X12119200Y3110000D01*
X13079201Y3110001D02*
X13130000Y3160801D01*
X13180800Y3110001D01*
X13130000Y3059201D01*
X13079201Y3110001D01*
X12949200Y3500000D02*
X13000000Y3550800D01*
X13050800Y3500000D01*
X13000000Y3449200D01*
X12949200Y3500000D01*
X13549200Y3690000D02*
X13600000Y3740800D01*
X13650800Y3690000D01*
X13600000Y3639200D01*
X13549200Y3690000D01*
X12726700Y3847500D02*
X12777500Y3898300D01*
X12828300Y3847500D01*
X12777500Y3796700D01*
X12726700Y3847500D01*
X12409200Y6160000D02*
X12460000Y6210800D01*
X12510800Y6160000D01*
X12460000Y6109200D01*
X12409200Y6160000D01*
X11479200Y5350000D02*
X11530000Y5400800D01*
X11580800Y5350000D01*
X11530000Y5299200D01*
X11479200Y5350000D01*
X12074837Y6170241D02*
X12125637Y6221041D01*
X12176437Y6170241D01*
X12125637Y6119441D01*
X12074837Y6170241D01*
X11929200Y6070000D02*
X11980000Y6120800D01*
X12030800Y6070000D01*
X11980000Y6019200D01*
X11929200Y6070000D01*
X10599200Y4530000D02*
X10650000Y4580800D01*
X10700800Y4530000D01*
X10650000Y4479200D01*
X10599200Y4530000D01*
X12919200Y7380000D02*
X12970000Y7430800D01*
X13020799Y7380000D01*
X12970000Y7329200D01*
X12919200Y7380000D01*
X13168518Y7449789D02*
X13219318Y7500589D01*
X13270119Y7449789D01*
X13219318Y7398989D01*
X13168518Y7449789D01*
X11089200Y4760000D02*
X11140000Y4810800D01*
X11190800Y4760000D01*
X11140000Y4709200D01*
X11089200Y4760000D01*
X6829200Y7260000D02*
X6880000Y7310800D01*
X6930800Y7260000D01*
X6880000Y7209200D01*
X6829200Y7260000D01*
X6369200Y7280000D02*
X6420000Y7330800D01*
X6470800Y7280000D01*
X6420000Y7229200D01*
X6369200Y7280000D01*
X6359200Y7120000D02*
X6410000Y7170800D01*
X6460800Y7120000D01*
X6410000Y7069200D01*
X6359200Y7120000D01*
X10839200Y4790000D02*
X10890000Y4840800D01*
X10940800Y4790000D01*
X10890000Y4739200D01*
X10839200Y4790000D01*
X10638278Y4779542D02*
X10689078Y4830342D01*
X10739878Y4779542D01*
X10689078Y4728742D01*
X10638278Y4779542D01*
X7219200Y7000000D02*
X7270000Y7050800D01*
X7320800Y7000000D01*
X7270000Y6949200D01*
X7219200Y7000000D01*
X7029200D02*
X7080000Y7050800D01*
X7130800Y7000000D01*
X7080000Y6949200D01*
X7029200Y7000000D01*
X6879200D02*
X6930000Y7050800D01*
X6980800Y7000000D01*
X6930000Y6949200D01*
X6879200Y7000000D01*
X8148579Y6180777D02*
X8199379Y6231577D01*
X8250179Y6180777D01*
X8199379Y6129977D01*
X8148579Y6180777D01*
X8049200Y5060000D02*
X8100000Y5110800D01*
X8150800Y5060000D01*
X8100000Y5009200D01*
X8049200Y5060000D01*
X7899200Y5050000D02*
X7950000Y5100800D01*
X8000800Y5050000D01*
X7950000Y4999200D01*
X7899200Y5050000D01*
X8129200Y5520000D02*
X8180000Y5570800D01*
X8230800Y5520000D01*
X8180000Y5469200D01*
X8129200Y5520000D01*
X8079200Y5740000D02*
X8130000Y5790800D01*
X8180800Y5740000D01*
X8130000Y5689200D01*
X8079200Y5740000D01*
X7699200Y5900000D02*
X7750000Y5950800D01*
X7800800Y5900000D01*
X7750000Y5849200D01*
X7699200Y5900000D01*
X7929200Y5740000D02*
X7980000Y5790800D01*
X8030800Y5740000D01*
X7980000Y5689200D01*
X7929200Y5740000D01*
X7799200Y6500000D02*
X7850000Y6550800D01*
X7900800Y6500000D01*
X7850000Y6449200D01*
X7799200Y6500000D01*
X7010758Y6461709D02*
X7061558Y6512509D01*
X7112358Y6461709D01*
X7061558Y6410909D01*
X7010758Y6461709D01*
X7490988Y6501663D02*
X7541788Y6552463D01*
X7592588Y6501663D01*
X7541788Y6450863D01*
X7490988Y6501663D01*
X7299200Y6290000D02*
X7350000Y6340800D01*
X7400800Y6290000D01*
X7350000Y6239200D01*
X7299200Y6290000D01*
X7079698Y6339497D02*
X7130498Y6390297D01*
X7181298Y6339497D01*
X7130498Y6288697D01*
X7079698Y6339497D01*
X6929200Y6340000D02*
X6980000Y6390800D01*
X7030800Y6340000D01*
X6980000Y6289200D01*
X6929200Y6340000D01*
X10012794Y4613642D02*
X10063594Y4664442D01*
X10114394Y4613642D01*
X10063594Y4562842D01*
X10012794Y4613642D01*
X8657862Y6218442D02*
X8708662Y6269242D01*
X8759462Y6218442D01*
X8708662Y6167642D01*
X8657862Y6218442D01*
X8351659Y5620406D02*
X8402459Y5671206D01*
X8453259Y5620406D01*
X8402459Y5569606D01*
X8351659Y5620406D01*
X6497862Y6783442D02*
X6548662Y6834242D01*
X6599462Y6783442D01*
X6548662Y6732642D01*
X6497862Y6783442D01*
X6497862Y6323443D02*
X6548662Y6374243D01*
X6599462Y6323443D01*
X6548662Y6272643D01*
X6497862Y6323443D01*
Y6158443D02*
X6548662Y6209243D01*
X6599462Y6158443D01*
X6548662Y6107643D01*
X6497862Y6158443D01*
Y5698443D02*
X6548662Y5749243D01*
X6599462Y5698443D01*
X6548662Y5647643D01*
X6497862Y5698443D01*
X7645191Y5498528D02*
X7695991Y5549329D01*
X7746791Y5498528D01*
X7695991Y5447728D01*
X7645191Y5498528D01*
X7602861Y4943442D02*
X7653661Y4994242D01*
X7704461Y4943442D01*
X7653661Y4892642D01*
X7602861Y4943442D01*
X7645191Y4623023D02*
X7695991Y4673823D01*
X7746791Y4623023D01*
X7695991Y4572223D01*
X7645191Y4623023D01*
X6504200Y5530000D02*
X6555000Y5580800D01*
X6605800Y5530000D01*
X6555000Y5479200D01*
X6504200Y5530000D01*
X6504200Y4770000D02*
X6555000Y4820800D01*
X6605800Y4770000D01*
X6555000Y4719200D01*
X6504200Y4770000D01*
X7548809Y5343364D02*
X7599609Y5394164D01*
X7650409Y5343364D01*
X7599609Y5292564D01*
X7548809Y5343364D01*
X7562535Y5107139D02*
X7613335Y5157939D01*
X7664135Y5107139D01*
X7613335Y5056339D01*
X7562535Y5107139D01*
X7557478Y4782060D02*
X7608278Y4832860D01*
X7659078Y4782060D01*
X7608278Y4731260D01*
X7557478Y4782060D01*
X7207115Y4628912D02*
X7257915Y4679712D01*
X7308715Y4628912D01*
X7257915Y4578112D01*
X7207115Y4628912D01*
X7209200Y4730000D02*
X7260000Y4780800D01*
X7310800Y4730000D01*
X7260000Y4679200D01*
X7209200Y4730000D01*
X7059200Y4810000D02*
X7110000Y4860800D01*
X7160800Y4810000D01*
X7110000Y4759200D01*
X7059200Y4810000D01*
X7069200Y5800000D02*
X7120000Y5850800D01*
X7170800Y5800000D01*
X7120000Y5749200D01*
X7069200Y5800000D01*
X7459200Y5820000D02*
X7510000Y5870800D01*
X7560800Y5820000D01*
X7510000Y5769200D01*
X7459200Y5820000D01*
X7205131Y5499879D02*
X7255931Y5550679D01*
X7306731Y5499879D01*
X7255931Y5449079D01*
X7205131Y5499879D01*
X7129200Y5490000D02*
X7180000Y5540800D01*
X7230800Y5490000D01*
X7180000Y5439200D01*
X7129200Y5490000D01*
X7209200Y5410000D02*
X7260000Y5460800D01*
X7310800Y5410000D01*
X7260000Y5359200D01*
X7209200Y5410000D01*
X7211638Y4950803D02*
X7262438Y5001603D01*
X7313238Y4950803D01*
X7262438Y4900003D01*
X7211638Y4950803D01*
X7205130Y5049612D02*
X7255930Y5100412D01*
X7306730Y5049612D01*
X7255930Y4998812D01*
X7205130Y5049612D01*
X7139200Y5110000D02*
X7190000Y5160800D01*
X7240800Y5110000D01*
X7190000Y5059200D01*
X7139200Y5110000D01*
X12958742Y5559865D02*
X13009541Y5610665D01*
X13060341Y5559865D01*
X13009541Y5509065D01*
X12958742Y5559865D01*
X12957948Y5059599D02*
X13008749Y5110399D01*
X13059549Y5059599D01*
X13008749Y5008799D01*
X12957948Y5059599D01*
X12979201Y4820000D02*
X13030000Y4870800D01*
X13080800Y4820000D01*
X13030000Y4769200D01*
X12979201Y4820000D01*
X12677492Y4094618D02*
X12728292Y4145418D01*
X12779092Y4094618D01*
X12728292Y4043818D01*
X12677492Y4094618D01*
X12809200Y4100000D02*
X12860001Y4150800D01*
X12910800Y4100000D01*
X12860001Y4049200D01*
X12809200Y4100000D01*
X12979201Y4250000D02*
X13030000Y4300800D01*
X13080800Y4250000D01*
X13030000Y4199200D01*
X12979201Y4250000D01*
X12809200Y4340000D02*
X12860001Y4390800D01*
X12910800Y4340000D01*
X12860001Y4289200D01*
X12809200Y4340000D01*
X7229200Y4080000D02*
X7280000Y4130800D01*
X7330800Y4080000D01*
X7280000Y4029200D01*
X7229200Y4080000D01*
X7439200Y4380000D02*
X7490000Y4430800D01*
X7540800Y4380000D01*
X7490000Y4329200D01*
X7439200Y4380000D01*
X6919200Y4670000D02*
X6970000Y4720800D01*
X7020800Y4670000D01*
X6970000Y4619200D01*
X6919200Y4670000D01*
X6890059Y4581944D02*
X6940859Y4632744D01*
X6991659Y4581944D01*
X6940859Y4531144D01*
X6890059Y4581944D01*
X7039200Y3730000D02*
X7090000Y3780800D01*
X7140800Y3730000D01*
X7090000Y3679200D01*
X7039200Y3730000D01*
X7219200Y4500000D02*
X7270000Y4550800D01*
X7320800Y4500000D01*
X7270000Y4449200D01*
X7219200Y4500000D01*
X7349200Y4430000D02*
X7400000Y4480800D01*
X7450800Y4430000D01*
X7400000Y4379200D01*
X7349200Y4430000D01*
X7719200Y4380000D02*
X7770000Y4430800D01*
X7820800Y4380000D01*
X7770000Y4329200D01*
X7719200Y4380000D01*
X7709200Y4470000D02*
X7760000Y4520800D01*
X7810800Y4470000D01*
X7760000Y4419200D01*
X7709200Y4470000D01*
X9018563Y4529363D02*
X9069363Y4580163D01*
X9120163Y4529363D01*
X9069363Y4478563D01*
X9018563Y4529363D01*
X11611984Y4771143D02*
X11662784Y4821943D01*
X11713584Y4771143D01*
X11662784Y4720343D01*
X11611984Y4771143D01*
X11189665Y4370722D02*
X11240465Y4421522D01*
X11291265Y4370722D01*
X11240465Y4319922D01*
X11189665Y4370722D01*
X12593452Y4264098D02*
X12644252Y4314898D01*
X12695052Y4264098D01*
X12644252Y4213298D01*
X12593452Y4264098D01*
X12549200Y4850000D02*
X12600000Y4900800D01*
X12650800Y4850000D01*
X12600000Y4799200D01*
X12549200Y4850000D01*
X13159200Y4545000D02*
X13210001Y4595800D01*
X13260800Y4545000D01*
X13210001Y4494200D01*
X13159200Y4545000D01*
X13049200Y3920000D02*
X13100000Y3970800D01*
X13150800Y3920000D01*
X13100000Y3869200D01*
X13049200Y3920000D01*
X12914200Y4575000D02*
X12964999Y4625800D01*
X13015800Y4575000D01*
X12964999Y4524200D01*
X12914200Y4575000D01*
X11739200Y4480000D02*
X11790000Y4530800D01*
X11840800Y4480000D01*
X11790000Y4429200D01*
X11739200Y4480000D01*
Y4620000D02*
X11790000Y4670800D01*
X11840800Y4620000D01*
X11790000Y4569200D01*
X11739200Y4620000D01*
X13549200Y4150000D02*
X13600000Y4200800D01*
X13650800Y4150000D01*
X13600000Y4099200D01*
X13549200Y4150000D01*
X13549200Y4315000D02*
X13600000Y4365800D01*
X13650800Y4315000D01*
X13600000Y4264200D01*
X13549200Y4315000D01*
X13549200Y4775000D02*
X13600000Y4825800D01*
X13650800Y4775000D01*
X13600000Y4724200D01*
X13549200Y4775000D01*
X13540500Y5095000D02*
X13591299Y5145800D01*
X13642101Y5095000D01*
X13591299Y5044200D01*
X13540500Y5095000D01*
X13150500Y5325000D02*
X13201300Y5375800D01*
X13252100Y5325000D01*
X13201300Y5274200D01*
X13150500Y5325000D01*
X13540500Y5555000D02*
X13591299Y5605800D01*
X13642101Y5555000D01*
X13591299Y5504200D01*
X13540500Y5555000D01*
Y5720000D02*
X13591299Y5770800D01*
X13642101Y5720000D01*
X13591299Y5669200D01*
X13540500Y5720000D01*
Y6180000D02*
X13591299Y6230800D01*
X13642101Y6180000D01*
X13591299Y6129200D01*
X13540500Y6180000D01*
X13029201Y5950000D02*
X13080000Y6000800D01*
X13130800Y5950000D01*
X13080000Y5899200D01*
X13029201Y5950000D01*
X12822989Y5641425D02*
X12873788Y5692225D01*
X12924590Y5641425D01*
X12873788Y5590625D01*
X12822989Y5641425D01*
X12819200Y5010000D02*
X12870000Y5060800D01*
X12920799Y5010000D01*
X12870000Y4959200D01*
X12819200Y5010000D01*
X12538206Y5058949D02*
X12589006Y5109749D01*
X12639806Y5058949D01*
X12589006Y5008149D01*
X12538206Y5058949D01*
X12520289Y5812193D02*
X12571089Y5862993D01*
X12621889Y5812193D01*
X12571089Y5761393D01*
X12520289Y5812193D01*
X12679200Y5810000D02*
X12730000Y5860800D01*
X12780800Y5810000D01*
X12730000Y5759200D01*
X12679200Y5810000D01*
X11899200Y5508800D02*
X11950000Y5559600D01*
X12000800Y5508800D01*
X11950000Y5458000D01*
X11899200Y5508800D01*
Y5050000D02*
X11950000Y5100800D01*
X12000800Y5050000D01*
X11950000Y4999200D01*
X11899200Y5050000D01*
X8719200Y4130000D02*
X8770000Y4180800D01*
X8820800Y4130000D01*
X8770000Y4079200D01*
X8719200Y4130000D01*
X8789200Y4860000D02*
X8840000Y4910800D01*
X8890800Y4860000D01*
X8840000Y4809200D01*
X8789200Y4860000D01*
X8859200Y3990000D02*
X8910000Y4040800D01*
X8960800Y3990000D01*
X8910000Y3939200D01*
X8859200Y3990000D01*
X9079200Y3780000D02*
X9130000Y3830800D01*
X9180800Y3780000D01*
X9130000Y3729200D01*
X9079200Y3780000D01*
X9519200Y3380000D02*
X9570000Y3430800D01*
X9620800Y3380000D01*
X9570000Y3329200D01*
X9519200Y3380000D01*
X9089200Y4790000D02*
X9140000Y4840800D01*
X9190800Y4790000D01*
X9140000Y4739200D01*
X9089200Y4790000D01*
X8001700Y7067500D02*
X8052500Y7118300D01*
X8103300Y7067500D01*
X8052500Y7016700D01*
X8001700Y7067500D01*
X9369200Y5610000D02*
X9420000Y5660800D01*
X9470800Y5610000D01*
X9420000Y5559200D01*
X9369200Y5610000D01*
X9909200Y5930000D02*
X9960000Y5980800D01*
X10010800Y5930000D01*
X9960000Y5879200D01*
X9909200Y5930000D01*
X10009200Y6030000D02*
X10060000Y6080800D01*
X10110800Y6030000D01*
X10060000Y5979200D01*
X10009200Y6030000D01*
X9799200Y6050000D02*
X9850000Y6100800D01*
X9900800Y6050000D01*
X9850000Y5999200D01*
X9799200Y6050000D01*
X9699200Y6150000D02*
X9750000Y6200800D01*
X9800800Y6150000D01*
X9750000Y6099200D01*
X9699200Y6150000D01*
X9809200Y6240000D02*
X9860000Y6290800D01*
X9910800Y6240000D01*
X9860000Y6189200D01*
X9809200Y6240000D01*
X9918637Y6138371D02*
X9969437Y6189171D01*
X10020237Y6138371D01*
X9969437Y6087571D01*
X9918637Y6138371D01*
X9909200Y6330000D02*
X9960000Y6380800D01*
X10010800Y6330000D01*
X9960000Y6279200D01*
X9909200Y6330000D01*
X10019200Y6240000D02*
X10070000Y6290800D01*
X10120800Y6240000D01*
X10070000Y6189200D01*
X10019200Y6240000D01*
X10699200Y3730000D02*
X10750000Y3780800D01*
X10800800Y3730000D01*
X10750000Y3679200D01*
X10699200Y3730000D01*
X10729200Y3850000D02*
X10780000Y3900800D01*
X10830800Y3850000D01*
X10780000Y3799200D01*
X10729200Y3850000D01*
X10610392Y5707668D02*
X10661192Y5758468D01*
X10711992Y5707668D01*
X10661192Y5656868D01*
X10610392Y5707668D01*
X10129200Y6130000D02*
X10180000Y6180800D01*
X10230800Y6130000D01*
X10180000Y6079200D01*
X10129200Y6130000D01*
X10589200Y6470000D02*
X10640000Y6520800D01*
X10690800Y6470000D01*
X10640000Y6419200D01*
X10589200Y6470000D01*
X10719200Y5810000D02*
X10770000Y5860800D01*
X10820800Y5810000D01*
X10770000Y5759200D01*
X10719200Y5810000D01*
X10935845Y6250000D02*
X10986645Y6300800D01*
X11037445Y6250000D01*
X10986645Y6199200D01*
X10935845Y6250000D01*
X10299200Y7280000D02*
X10350000Y7330800D01*
X10400800Y7280000D01*
X10350000Y7229200D01*
X10299200Y7280000D01*
X12019468Y7124077D02*
X12070268Y7174877D01*
X12121068Y7124077D01*
X12070268Y7073277D01*
X12019468Y7124077D01*
X10959200Y4510000D02*
X11010000Y4560800D01*
X11060800Y4510000D01*
X11010000Y4459200D01*
X10959200Y4510000D01*
X10219200Y5030000D02*
X10270000Y5080800D01*
X10320800Y5030000D01*
X10270000Y4979200D01*
X10219200Y5030000D01*
X11782212Y6923569D02*
X11833012Y6974369D01*
X11883812Y6923569D01*
X11833012Y6872769D01*
X11782212Y6923569D01*
X11733762Y6873046D02*
X11784562Y6923846D01*
X11835362Y6873046D01*
X11784562Y6822246D01*
X11733762Y6873046D01*
X10118697Y6680503D02*
X10169497Y6731303D01*
X10220297Y6680503D01*
X10169497Y6629703D01*
X10118697Y6680503D01*
X10069200Y6730000D02*
X10120000Y6780800D01*
X10170800Y6730000D01*
X10120000Y6679200D01*
X10069200Y6730000D01*
X11141593Y7614326D02*
X11192393Y7665126D01*
X11243193Y7614326D01*
X11192393Y7563526D01*
X11141593Y7614326D01*
X11169200Y7550000D02*
X11220000Y7600800D01*
X11270800Y7550000D01*
X11220000Y7499200D01*
X11169200Y7550000D01*
X9834712Y6757357D02*
X9885512Y6808157D01*
X9936312Y6757357D01*
X9885512Y6706557D01*
X9834712Y6757357D01*
X9779200Y6800000D02*
X9830000Y6850800D01*
X9880800Y6800000D01*
X9830000Y6749200D01*
X9779200Y6800000D01*
X7552424Y6806864D02*
X7603224Y6857664D01*
X7654024Y6806864D01*
X7603224Y6756064D01*
X7552424Y6806864D01*
X7609543Y6847327D02*
X7660343Y6898127D01*
X7711143Y6847327D01*
X7660343Y6796527D01*
X7609543Y6847327D01*
X9179200Y6270000D02*
X9230000Y6320800D01*
X9280800Y6270000D01*
X9230000Y6219200D01*
X9179200Y6270000D01*
X9167692Y6339047D02*
X9218492Y6389847D01*
X9269292Y6339047D01*
X9218492Y6288247D01*
X9167692Y6339047D01*
X9429200Y4760000D02*
X9480000Y4810800D01*
X9530800Y4760000D01*
X9480000Y4709200D01*
X9429200Y4760000D01*
X10489200Y6560000D02*
X10540000Y6610800D01*
X10590800Y6560000D01*
X10540000Y6509200D01*
X10489200Y6560000D01*
X10759200Y6400000D02*
X10810000Y6450800D01*
X10860800Y6400000D01*
X10810000Y6349200D01*
X10759200Y6400000D01*
X9759200Y4660000D02*
X9810000Y4710800D01*
X9860800Y4660000D01*
X9810000Y4609200D01*
X9759200Y4660000D01*
X10249200Y5390000D02*
X10300000Y5440800D01*
X10350800Y5390000D01*
X10300000Y5339200D01*
X10249200Y5390000D01*
X10249822Y5865961D02*
X10300622Y5916761D01*
X10351422Y5865961D01*
X10300622Y5815161D01*
X10249822Y5865961D01*
X10227770Y5736596D02*
X10278570Y5787396D01*
X10329370Y5736596D01*
X10278570Y5685796D01*
X10227770Y5736596D01*
X9046978Y5040914D02*
X9097778Y5091714D01*
X9148578Y5040914D01*
X9097778Y4990114D01*
X9046978Y5040914D01*
X9259200Y5720000D02*
X9310000Y5770800D01*
X9360800Y5720000D01*
X9310000Y5669200D01*
X9259200Y5720000D01*
X9559200Y5510000D02*
X9610000Y5560800D01*
X9660800Y5510000D01*
X9610000Y5459200D01*
X9559200Y5510000D01*
X9716022Y5639091D02*
X9766822Y5689891D01*
X9817622Y5639091D01*
X9766822Y5588291D01*
X9716022Y5639091D01*
X9659200Y5740000D02*
X9710000Y5790800D01*
X9760800Y5740000D01*
X9710000Y5689200D01*
X9659200Y5740000D01*
X9435542Y5071069D02*
X9486342Y5121869D01*
X9537142Y5071069D01*
X9486342Y5020269D01*
X9435542Y5071069D01*
X9416506Y4935197D02*
X9467306Y4985997D01*
X9518106Y4935197D01*
X9467306Y4884397D01*
X9416506Y4935197D01*
X9585560Y5130000D02*
X9636360Y5180800D01*
X9687160Y5130000D01*
X9636360Y5079200D01*
X9585560Y5130000D01*
X10799200Y3920000D02*
X10850000Y3970800D01*
X10900800Y3920000D01*
X10850000Y3869200D01*
X10799200Y3920000D01*
X9589200Y3320000D02*
X9640000Y3370800D01*
X9690800Y3320000D01*
X9640000Y3269200D01*
X9589200Y3320000D01*
X10859200Y4610000D02*
X10910000Y4660800D01*
X10960800Y4610000D01*
X10910000Y4559200D01*
X10859200Y4610000D01*
X10139200Y5090000D02*
X10190000Y5140800D01*
X10240800Y5090000D01*
X10190000Y5039200D01*
X10139200Y5090000D01*
X8959200Y4470000D02*
X9010000Y4520800D01*
X9060800Y4470000D01*
X9010000Y4419200D01*
X8959200Y4470000D01*
X8679200Y4760000D02*
X8730000Y4810800D01*
X8780800Y4760000D01*
X8730000Y4709200D01*
X8679200Y4760000D01*
D189*
X10125800Y9175000D02*
G03*
X10125800Y9175000I-50800J0D01*
G01*
X8075800Y9150000D02*
G03*
X8075800Y9150000I-50800J0D01*
G01*
X12175800Y9175000D02*
G03*
X12175800Y9175000I-50800J0D01*
G01*
X6600800Y9825000D02*
G03*
X6600800Y9825000I-50800J0D01*
G01*
Y11175000D02*
G03*
X6600800Y11175000I-50800J0D01*
G01*
D190*
X10105480Y9175000D02*
G03*
X10105480Y9175000I-30480J0D01*
G01*
X8055480Y9150000D02*
G03*
X8055480Y9150000I-30480J0D01*
G01*
X12155480Y9175000D02*
G03*
X12155480Y9175000I-30480J0D01*
G01*
%TF.MD5,b896b84401cb993387c072a2869de00a*%
M02*
