%TF.GenerationSoftware,Altium Limited,Altium Designer,23.1.1 (15)*%
G04 Layer_Color=16711935*
%FSLAX45Y45*%
%MOMM*%
%TF.SameCoordinates,3B15BE60-5205-462F-B1BE-89E8C5D5736D*%
%TF.FilePolarity,Positive*%
%TF.FileFunction,Other,Mechanical_13*%
%TF.Part,Single*%
G01*
G75*
%TA.AperFunction,NonConductor*%
%ADD93C,0.50000*%
%ADD94C,0.20000*%
%ADD95C,0.25000*%
%ADD96C,0.10000*%
%ADD97C,0.30000*%
%ADD98C,0.17500*%
%ADD171C,0.25400*%
%ADD174C,0.15000*%
D93*
X6967754Y5500000D02*
G03*
X6967754Y5500000I-7754J0D01*
G01*
X12182754Y3505001D02*
G03*
X12182754Y3505001I-7754J0D01*
G01*
D94*
X10270000Y10740000D02*
X10470000D01*
X10270000Y10540000D02*
Y10740000D01*
Y10540000D02*
X10470000D01*
Y10740000D01*
X9514999Y10715000D02*
X9905000D01*
X9514999D02*
X9515000Y10324999D01*
X9905000D01*
Y10715000D01*
X8570000Y9957500D02*
Y10347500D01*
X8180000D02*
X8570000D01*
X8180000Y9957500D02*
Y10347500D01*
Y9957500D02*
X8570000D01*
X13210001Y4295000D02*
Y4795001D01*
X13744901Y4795000D01*
Y4295001D02*
Y4795000D01*
X13210001Y4295000D02*
X13744901Y4295001D01*
X12979999Y10727500D02*
Y11117500D01*
X13370000D01*
Y10727500D02*
Y11117500D01*
X12979999Y10727500D02*
X13370000D01*
X8725000Y10525000D02*
X8925000Y10525000D01*
Y10325000D02*
Y10525000D01*
X8725000Y10325000D02*
X8925000D01*
X8725000D02*
Y10525000D01*
X6940000Y5680000D02*
Y6180000D01*
X6405100Y5680000D02*
X6940000D01*
X6405100Y6180000D02*
X6405100Y5680000D01*
X6405100Y6180000D02*
X6940000D01*
X11425000Y3500000D02*
X11925000D01*
X11925000Y2965100D02*
X11925000Y3500000D01*
X11425000Y2965100D02*
X11925000Y2965100D01*
X11425000Y3500000D02*
X11425000Y2965100D01*
X6940000Y6805000D02*
X6940000Y6305000D01*
X6405100Y6305000D02*
X6940000Y6305000D01*
X6405100Y6305000D02*
Y6805000D01*
X6940000D01*
X13210001Y3670000D02*
Y4170000D01*
X13744901Y4170000D01*
Y3670000D02*
Y4170000D01*
X13210001Y3670000D02*
X13744901Y3670000D01*
X12439100Y6000300D02*
X12439100Y6320300D01*
X12099100Y6000300D02*
X12439100Y6000300D01*
X12099100Y6000300D02*
Y6320300D01*
X12439100Y6320300D01*
X12635000Y3660000D02*
Y3820000D01*
Y3660000D02*
X12914999D01*
Y3820000D01*
X12635000Y3820000D02*
X12914999Y3820000D01*
X7515000Y3405000D02*
Y3565000D01*
X7235000D02*
X7515000D01*
X7235000Y3405000D02*
Y3565000D01*
Y3405000D02*
X7515000D01*
X12055000Y4970000D02*
X12055000Y5530000D01*
X12795000D01*
X12055000Y4970000D02*
X12795000D01*
X12795000Y5530000D01*
X13201300Y5075000D02*
X13736200Y5075001D01*
X13736200Y5575000D02*
X13736200Y5075001D01*
X13201300Y5575001D02*
X13736200Y5575000D01*
X13201300Y5075000D02*
Y5575001D01*
Y5700000D02*
X13736200Y5700001D01*
X13736200Y6200000D02*
X13736200Y5700001D01*
X13201300Y6200001D02*
X13736200Y6200000D01*
X13201300Y5700000D02*
Y6200001D01*
X7947500Y6020000D02*
Y6340000D01*
X8367500D01*
X7947500Y6020000D02*
X8367500D01*
Y6340000D01*
X7380000Y6340000D02*
Y6660000D01*
X7720000D01*
Y6340000D02*
Y6660000D01*
X7380000Y6340000D02*
X7720000D01*
X7922500Y5360000D02*
Y5680000D01*
X8342500D01*
X7922500Y5360000D02*
X8342500D01*
Y5680000D01*
X7355000Y5665000D02*
Y5985000D01*
X7695000D01*
Y5665000D02*
Y5985000D01*
X7355000Y5665000D02*
X7695000D01*
X12082500Y4283500D02*
Y4843500D01*
X12822501D01*
X12082500Y4283500D02*
X12822501D01*
Y4843500D01*
X6800000Y10826677D02*
Y10893322D01*
X6800000Y10106678D02*
Y10173323D01*
X6766677Y10140000D02*
X6833322D01*
X6500016Y10400032D02*
Y10366710D01*
Y10383371D01*
X6583323D01*
X6599984Y10366710D01*
Y10350049D01*
X6583323Y10333387D01*
X6599984Y10483339D02*
X6500016D01*
X6550000Y10433355D01*
Y10500000D01*
X6516678Y10533323D02*
X6500016Y10549984D01*
Y10583307D01*
X6516678Y10599968D01*
X6583323D01*
X6599984Y10583307D01*
Y10549984D01*
X6583323Y10533323D01*
X6516678D01*
X6599984Y10633291D02*
Y10666613D01*
Y10649952D01*
X6500016D01*
X6516678Y10633291D01*
X13600015Y10343403D02*
Y10276758D01*
X13650000D01*
Y10310081D01*
Y10276758D01*
X13699985D01*
Y10376726D02*
X13600015D01*
X13633337Y10410049D01*
X13600015Y10443371D01*
X13699985D01*
Y10543339D02*
Y10476694D01*
X13633337Y10543339D01*
X13616676D01*
X13600015Y10526678D01*
Y10493355D01*
X13616676Y10476694D01*
X13699985Y10626645D02*
X13600015D01*
X13650000Y10576662D01*
Y10643307D01*
X13616676Y10676629D02*
X13600015Y10693291D01*
Y10726613D01*
X13616676Y10743274D01*
X13683322D01*
X13699985Y10726613D01*
Y10693291D01*
X13683322Y10676629D01*
X13616676D01*
X13699985Y10826581D02*
X13600015D01*
X13650000Y10776597D01*
Y10843242D01*
X6570016Y10273403D02*
Y10206758D01*
X6619999D01*
Y10240081D01*
Y10206758D01*
X6669983D01*
Y10306726D02*
X6570016D01*
X6603338Y10340048D01*
X6570016Y10373371D01*
X6669983D01*
Y10473339D02*
Y10406694D01*
X6603338Y10473339D01*
X6586677D01*
X6570016Y10456678D01*
Y10423355D01*
X6586677Y10406694D01*
X6669983Y10556645D02*
X6570016D01*
X6619999Y10506661D01*
Y10573307D01*
X6586677Y10606629D02*
X6570016Y10623291D01*
Y10656613D01*
X6586677Y10673274D01*
X6653322D01*
X6669983Y10656613D01*
Y10623291D01*
X6653322Y10606629D01*
X6586677D01*
Y10706597D02*
X6570016Y10723258D01*
Y10756581D01*
X6586677Y10773242D01*
X6603338D01*
X6619999Y10756581D01*
Y10739920D01*
Y10756581D01*
X6636661Y10773242D01*
X6653322D01*
X6669983Y10756581D01*
Y10723258D01*
X6653322Y10706597D01*
X6520016Y7673403D02*
Y7606758D01*
X6570000D01*
Y7640080D01*
Y7606758D01*
X6619984D01*
Y7706726D02*
X6520016D01*
X6553339Y7740048D01*
X6520016Y7773371D01*
X6619984D01*
Y7873338D02*
Y7806693D01*
X6553339Y7873338D01*
X6536677D01*
X6520016Y7856677D01*
Y7823355D01*
X6536677Y7806693D01*
X6619984Y7956645D02*
X6520016D01*
X6570000Y7906661D01*
Y7973306D01*
X6536677Y8006629D02*
X6520016Y8023290D01*
Y8056613D01*
X6536677Y8073274D01*
X6603322D01*
X6619984Y8056613D01*
Y8023290D01*
X6603322Y8006629D01*
X6536677D01*
X6619984Y8173242D02*
Y8106597D01*
X6553339Y8173242D01*
X6536677D01*
X6520016Y8156581D01*
Y8123258D01*
X6536677Y8106597D01*
X11150016Y5520064D02*
Y5453419D01*
X11200000D01*
Y5486742D01*
Y5453419D01*
X11249984D01*
Y5553387D02*
X11150016D01*
X11183339Y5586710D01*
X11150016Y5620032D01*
X11249984D01*
Y5720000D02*
Y5653355D01*
X11183339Y5720000D01*
X11166677D01*
X11150016Y5703339D01*
Y5670016D01*
X11166677Y5653355D01*
X11249984Y5803307D02*
X11150016D01*
X11200000Y5753323D01*
Y5819968D01*
X11166677Y5853291D02*
X11150016Y5869952D01*
Y5903274D01*
X11166677Y5919936D01*
X11233322D01*
X11249984Y5903274D01*
Y5869952D01*
X11233322Y5853291D01*
X11166677D01*
X11249984Y5953258D02*
Y5986581D01*
Y5969920D01*
X11150016D01*
X11166677Y5953258D01*
D95*
X12679992Y3610000D02*
G03*
X12679992Y3610000I-4992J0D01*
G01*
X7479992Y3615000D02*
G03*
X7479992Y3615000I-4992J0D01*
G01*
X8302500Y6082500D02*
G03*
X8302500Y6082500I-12500J0D01*
G01*
X8277500Y5422500D02*
G03*
X8277500Y5422500I-12500J0D01*
G01*
D96*
X10358345Y6103015D02*
Y6173726D01*
X9969437Y6562635D02*
X10393700Y6138371D01*
X9545173D02*
X9969437Y6562635D01*
X9545173Y6138371D02*
X9969437Y5714107D01*
X10393700Y6138371D01*
X9922241Y3495146D02*
X10629348Y4202253D01*
X9215134D02*
X9922241Y3495146D01*
X9215134Y4202253D02*
X9922241Y4909360D01*
X10629348Y4202253D01*
X10593993Y4166898D02*
Y4237608D01*
X13462500Y6787500D02*
X13767500D01*
X13462500Y6612500D02*
X13767500D01*
Y6787500D01*
X13462500Y6612500D02*
X13462500Y6787500D01*
X8675000Y7880000D02*
Y8555000D01*
X8625001Y8605000D02*
X8675000Y8555000D01*
X8125001Y8605000D02*
X8625001D01*
X8125001Y7880000D02*
Y8605000D01*
Y7880000D02*
X8675000D01*
X13082500Y7410000D02*
X13110001Y7437500D01*
Y7410000D02*
Y7490000D01*
X12989999D02*
X13110001D01*
X12989999Y7410000D02*
Y7490000D01*
Y7410000D02*
X13110001D01*
X11513500Y7931000D02*
Y8606000D01*
Y7931000D02*
X11563500Y7881000D01*
X12063500Y7881000D01*
Y8606000D01*
X11513500Y8606000D02*
X12063500Y8606000D01*
X12800000Y7875000D02*
Y8550000D01*
X12750000Y8600000D02*
X12800000Y8550000D01*
X12250000Y8600000D02*
X12750000D01*
X12250000Y7875000D02*
Y8600000D01*
Y7875000D02*
X12800000D01*
X10250000Y7975000D02*
Y8650000D01*
Y7975000D02*
X10300000Y7925000D01*
X10800000D01*
Y8650000D01*
X10250000D02*
X10800000D01*
X7424972Y7924987D02*
Y8599987D01*
Y7924987D02*
X7474972Y7874987D01*
X7974972D01*
Y8599987D01*
X7424972D02*
X7974972D01*
X9925000Y7925000D02*
Y8600001D01*
X9875000Y8650000D02*
X9925000Y8600001D01*
X9375000Y8650000D02*
X9875000D01*
X9375000Y7925000D02*
Y8650000D01*
Y7925000D02*
X9925000D01*
X8310000Y6690000D02*
Y6810000D01*
X8390000D01*
Y6690000D02*
Y6810000D01*
X8310000Y6690000D02*
X8390000D01*
X8310000Y6717500D02*
X8337500Y6690000D01*
X7915000Y7012501D02*
X7942500Y7040000D01*
X7915000Y6960001D02*
Y7040000D01*
Y6960001D02*
X8035000D01*
Y7040000D01*
X7915000D02*
X8035000D01*
X7860000Y6742500D02*
X7887500Y6715001D01*
X7860000D02*
X7940000D01*
Y6835000D01*
X7860000D02*
X7940000D01*
X7860000Y6715001D02*
Y6835000D01*
X9080000Y7147500D02*
X9107500Y7120000D01*
X9080000D02*
X9160000D01*
Y7240000D01*
X9080000D02*
X9160000D01*
X9080000Y7120000D02*
Y7240000D01*
X10310000Y7087500D02*
X10337500Y7060000D01*
X10310000D02*
X10390000D01*
Y7180000D01*
X10310000D02*
X10390000D01*
X10310000Y7060000D02*
Y7180000D01*
X10090000Y7062500D02*
X10117500Y7090000D01*
X10090000Y7010000D02*
Y7090000D01*
Y7010000D02*
X10210000D01*
Y7090000D01*
X10090000D02*
X10210000D01*
X12182500Y7010000D02*
X12210000Y7037500D01*
Y7010000D02*
Y7090000D01*
X12090000D02*
X12210000D01*
X12090000Y7010000D02*
Y7090000D01*
Y7010000D02*
X12210000D01*
X12660000Y6742500D02*
X12687500Y6715000D01*
X12660000D02*
X12740000D01*
Y6835000D01*
X12660000D02*
X12740000D01*
X12660000Y6715000D02*
Y6835000D01*
X12185000Y6742500D02*
X12212500Y6715000D01*
X12185000D02*
X12265000D01*
Y6835000D01*
X12185000D02*
X12265000D01*
X12185000Y6715000D02*
Y6835000D01*
X12982500Y10430000D02*
X13032500Y10380000D01*
X12982500D02*
X13182500D01*
Y10580000D01*
X12982500D02*
X13182500D01*
X12982500Y10380000D02*
Y10580000D01*
X11665000Y3935000D02*
X11785000D01*
X11665000D02*
Y4015000D01*
X11785000D01*
Y3935000D02*
Y4015000D01*
X11757500Y3935000D02*
X11785000Y3962500D01*
X7590000Y4640000D02*
Y4760000D01*
X7510000Y4640000D02*
X7590000D01*
X7510000D02*
Y4760000D01*
X7590000D01*
X7562500D02*
X7590000Y4732500D01*
X7590000Y4965000D02*
Y5085000D01*
X7510000Y4965000D02*
X7590000D01*
X7510000D02*
Y5085000D01*
X7590000D01*
X7562500D02*
X7590000Y5057500D01*
X7500000Y5360000D02*
Y5480000D01*
X7580000D01*
Y5360000D02*
Y5480000D01*
X7500000Y5360000D02*
X7580000D01*
X7500000Y5387500D02*
X7527500Y5360000D01*
X10320000Y3166661D02*
Y3133338D01*
X10336661Y3150000D02*
X10303339D01*
X12043339Y6045000D02*
X12076661D01*
X12060000Y6061661D02*
Y6028338D01*
X10010000Y3166661D02*
Y3133339D01*
X10026662Y3150000D02*
X9993339D01*
X9855000Y3176661D02*
Y3143339D01*
X9871662Y3160000D02*
X9838339D01*
X10165000Y3166661D02*
Y3133339D01*
X10181662Y3150000D02*
X10148339D01*
D97*
X13830276Y10560000D02*
G03*
X13830276Y10560000I-180278J0D01*
G01*
X6800277Y10490000D02*
G03*
X6800277Y10490000I-180278J0D01*
G01*
X6750278Y7890000D02*
G03*
X6750278Y7890000I-180278J0D01*
G01*
X11380277Y5720000D02*
G03*
X11380277Y5720000I-180278J0D01*
G01*
X12166971Y5440000D02*
G03*
X12166971Y5440000I-11971J0D01*
G01*
X12194471Y4753500D02*
G03*
X12194471Y4753500I-11971J0D01*
G01*
X6350000Y5640000D02*
X7050000Y5640000D01*
Y4660000D02*
Y5640000D01*
X6350000Y4660000D02*
X7050000Y4660000D01*
X6350000Y5640000D02*
X6350000Y4660000D01*
X12075000Y2905000D02*
X12075000Y3605000D01*
X13250000Y3605000D01*
Y2905001D02*
Y3605000D01*
X12075000Y2905000D02*
X13250000Y2905001D01*
X7500000Y9675000D02*
Y11325000D01*
X5600000D02*
X7500000D01*
X5600000Y9675000D02*
Y11325000D01*
Y9675000D02*
X7500000D01*
X6175000Y3525000D02*
X7000000D01*
X7075000Y3600000D01*
X7075000Y4500000D02*
X7075000Y3600000D01*
X7000000Y4575000D02*
X7075000Y4500000D01*
X6950000Y4575000D02*
X7000000D01*
X6175000Y3525000D02*
Y4575000D01*
X6950000D01*
X7175000Y3905000D02*
Y4205000D01*
X7225000Y4255000D01*
X7400000Y4255000D01*
X7175000Y3905000D02*
X7625000D01*
Y4255000D01*
X7400000Y4255000D02*
X7625000Y4255000D01*
D98*
X7835000Y11275000D02*
X7835000Y10775000D01*
X7515000D02*
X7835000D01*
X7515000D02*
X7515000Y11275000D01*
X7835000D01*
X13595700Y7342200D02*
Y7697800D01*
Y7342200D02*
X13824300D01*
Y7697800D01*
X13595700D02*
X13824300D01*
X13815900Y7115700D02*
Y7344300D01*
X13384100Y7115700D02*
X13815900D01*
X13384100D02*
Y7344300D01*
X13815900D01*
X13825900Y7705700D02*
Y7934300D01*
X13394099Y7705700D02*
X13825900D01*
X13394099D02*
Y7934300D01*
X13825900D01*
X10932500Y10510000D02*
X10932500Y10210000D01*
X10767500Y10510000D02*
X10932500Y10510000D01*
X10767500Y10210000D02*
Y10510000D01*
Y10210000D02*
X10932500D01*
X10889999Y10377500D02*
X11190000D01*
Y10542500D01*
X10890000D02*
X11190000D01*
X10889999Y10377500D02*
X10890000Y10542500D01*
X9915700Y10875900D02*
X10144300D01*
X10144300Y10444100D02*
X10144300Y10875900D01*
X9915699Y10444100D02*
X10144300D01*
X9915699D02*
X9915700Y10875900D01*
X10117500Y10220000D02*
X10282500D01*
X10117500Y10520000D02*
X10117500Y10220000D01*
X10117500Y10520000D02*
X10282500D01*
X10282500Y10220000D02*
X10282500Y10520000D01*
X9870000Y9760000D02*
X9870000Y10260000D01*
X10190000Y10260000D01*
X10190000Y9760000D02*
X10190000Y10260000D01*
X9870000Y9760000D02*
X10190000D01*
X9560000Y9760000D02*
Y10260000D01*
X9880000Y10260000D01*
X9880000Y9760000D02*
X9880000Y10260000D01*
X9560000Y9760000D02*
X9880000D01*
X8817500Y10600000D02*
Y10900000D01*
Y10600000D02*
X8982500D01*
Y10900000D01*
X8817500D02*
X8982500D01*
X8667500Y10600000D02*
Y10900000D01*
Y10600000D02*
X8832500D01*
Y10900000D01*
X8667500D02*
X8832500D01*
X8589100Y10048200D02*
Y10276800D01*
X9020900D01*
Y10048200D02*
Y10276800D01*
X8589100Y10048200D02*
X9020900D01*
X9335000Y10202500D02*
Y10367500D01*
X9035000Y10202500D02*
X9335000D01*
X9035000D02*
Y10367500D01*
X9335000D01*
X9075000Y10492500D02*
X9375000D01*
X9075000Y10327500D02*
Y10492500D01*
Y10327500D02*
X9375000D01*
Y10492500D01*
X9075000Y10457500D02*
X9375000D01*
Y10622500D01*
X9075000D02*
X9375000D01*
X9075000Y10457500D02*
Y10622500D01*
X9067500Y10900000D02*
X9067500Y10600000D01*
X9232500D01*
X9232500Y10900000D01*
X9067500D02*
X9232500D01*
X9107500Y10600000D02*
Y10900000D01*
X8942500D02*
X9107500D01*
X8942500Y10600000D02*
Y10900000D01*
Y10600000D02*
X9107500D01*
X7405000Y7255000D02*
X7645000D01*
X7405000D02*
Y7795000D01*
X7645000D01*
Y7255000D02*
Y7795000D01*
X10150000Y2895000D02*
Y3125000D01*
Y2895000D02*
X10290000D01*
Y3125000D01*
X10150000D02*
X10290000D01*
X6795000Y2910000D02*
X7025000D01*
Y3050000D01*
X6795000D02*
X7025000D01*
X6795000Y2910000D02*
Y3050000D01*
X6425000Y7192500D02*
Y7357500D01*
X6725000D01*
Y7192500D02*
Y7357500D01*
X6425000Y7192500D02*
X6725000D01*
X6425000Y7042500D02*
X6725000D01*
Y7207500D01*
X6425000D02*
X6725000D01*
X6425000Y7042500D02*
Y7207500D01*
X6422800Y7067499D02*
X6722800D01*
X6422800D02*
X6422800Y6902500D01*
X6722800D01*
X6722800Y7067499D01*
X6910000Y6322500D02*
X7210000Y6322500D01*
X6910000Y6157500D02*
Y6322500D01*
Y6157500D02*
X7210001D01*
X7210000Y6322500D02*
X7210001Y6157500D01*
X6860000Y6982500D02*
X7160000D01*
X6860000Y6817500D02*
Y6982500D01*
Y6817500D02*
X7160000D01*
Y6982500D01*
X7180000Y4815000D02*
Y5045000D01*
X7040000D02*
X7180000D01*
X7040000Y4815000D02*
Y5045000D01*
Y4815000D02*
X7180000D01*
Y5045000D02*
Y5275000D01*
X7040000D02*
X7180000D01*
X7040000Y5045000D02*
Y5275000D01*
Y5045000D02*
X7180000D01*
X7040000Y5325000D02*
Y5555000D01*
Y5325000D02*
X7180000D01*
Y5555000D01*
X7040000D02*
X7180000D01*
X12960001Y4585000D02*
Y4815000D01*
Y4585000D02*
X13100000D01*
Y4815000D01*
X12960001D02*
X13100000D01*
Y4265000D02*
Y4495000D01*
X12960001D02*
X13100000D01*
X12960001Y4265000D02*
Y4495000D01*
Y4265000D02*
X13100000D01*
X13080000Y5065000D02*
Y5295000D01*
X12939999D02*
X13080000D01*
X12939999Y5065000D02*
Y5295000D01*
Y5065000D02*
X13080000D01*
X12939999Y5325000D02*
Y5555000D01*
Y5325000D02*
X13080000D01*
Y5555000D01*
X12939999D02*
X13080000D01*
X13384100Y7114300D02*
X13815900D01*
X13384100Y6885700D02*
Y7114300D01*
Y6885700D02*
X13815900D01*
Y7114300D01*
X13364101Y6514300D02*
X13795900D01*
X13364101Y6285700D02*
Y6514300D01*
Y6285700D02*
X13795900D01*
Y6514300D01*
X13277499Y6500000D02*
Y6800000D01*
Y6500000D02*
X13442500D01*
Y6800000D01*
X13277499D02*
X13442500D01*
X12590000Y10600000D02*
X12910001D01*
X12590000D02*
X12590000Y10100000D01*
X12910001D01*
X12910001Y10600000D01*
X11695000Y7280000D02*
Y7820000D01*
X11455000D02*
X11695000D01*
X11455000Y7280000D02*
Y7820000D01*
Y7280000D02*
X11695000D01*
X7275000Y6821000D02*
X7305000Y6791000D01*
X7245000D02*
X7275000Y6821000D01*
Y6753500D02*
Y6821000D01*
X7190000Y6613500D02*
X7360000D01*
X7190000D02*
Y6963500D01*
X7360000D01*
Y6613500D02*
Y6963500D01*
X8735000Y7490001D02*
Y7810000D01*
X8235000Y7810000D02*
X8735000Y7810000D01*
X8235000Y7490000D02*
Y7810000D01*
Y7490000D02*
X8735000Y7490001D01*
X7782500Y7552500D02*
Y7807500D01*
X8267500D01*
Y7552500D02*
Y7807500D01*
X7782500Y7552500D02*
X8267500D01*
X12875000Y7490000D02*
Y7810000D01*
X12375000D02*
X12875000D01*
X12375000Y7490000D02*
Y7810000D01*
Y7490000D02*
X12875000D01*
X12892500Y7800000D02*
X13057501D01*
Y7500000D02*
Y7800000D01*
X12892500Y7500000D02*
X13057501D01*
X12892500D02*
Y7800000D01*
X12895700Y7842200D02*
Y8197800D01*
Y7842200D02*
X13124300D01*
Y8197800D01*
X12895700D02*
X13124300D01*
X12885699Y8615900D02*
X13114301D01*
Y8184100D02*
Y8615900D01*
X12885699Y8184100D02*
X13114301D01*
X12885699D02*
Y8615900D01*
X11907500Y7572500D02*
Y7827500D01*
X12392500D01*
Y7572500D02*
Y7827500D01*
X11907500Y7572500D02*
X12392500D01*
X11439300Y8247200D02*
Y8602800D01*
X11210700D02*
X11439300D01*
X11210700Y8247200D02*
Y8602800D01*
Y8247200D02*
X11439300D01*
Y7834100D02*
Y8265900D01*
X11210700D02*
X11439300D01*
X11210700Y7834100D02*
Y8265900D01*
Y7834100D02*
X11439300D01*
X10845000Y7305000D02*
Y7845000D01*
X10605000D02*
X10845000D01*
X10605000Y7305000D02*
Y7845000D01*
Y7305000D02*
X10845000D01*
X9225000Y7515000D02*
Y7835000D01*
Y7515000D02*
X9725000D01*
Y7835000D01*
X9225000D02*
X9725000D01*
X10214300Y7859100D02*
Y8290900D01*
X9985700D02*
X10214300D01*
X9985700Y7859100D02*
Y8290900D01*
Y7859100D02*
X10214300D01*
X10192500Y7522500D02*
Y7777500D01*
X9707501Y7522500D02*
X10192500D01*
X9707501D02*
Y7777500D01*
X10192500D01*
X8760700Y8209100D02*
Y8640900D01*
Y8209100D02*
X8989300D01*
Y8640900D01*
X8760700D02*
X8989300D01*
X9060700Y8209100D02*
Y8640900D01*
Y8209100D02*
X9289300D01*
Y8640900D01*
X9060700D02*
X9289300D01*
X8760700Y7872200D02*
Y8227800D01*
Y7872200D02*
X8989300D01*
Y8227800D01*
X8760700D02*
X8989300D01*
X9060700Y7872200D02*
Y8227800D01*
Y7872200D02*
X9289300D01*
Y8227800D01*
X9060700D02*
X9289300D01*
X10214300Y8272200D02*
Y8627800D01*
X9985700D02*
X10214300D01*
X9985700Y8272200D02*
Y8627800D01*
Y8272200D02*
X10214300D01*
X8582500Y6600000D02*
Y6900000D01*
X8417500D02*
X8582500D01*
X8417500Y6600000D02*
Y6900000D01*
Y6600000D02*
X8582500D01*
X8114300Y6627401D02*
Y6927400D01*
X7949300D02*
X8114300D01*
X7949300Y6627401D02*
Y6927400D01*
Y6627401D02*
X8114300D01*
X7339300Y8247200D02*
Y8602800D01*
X7110700D02*
X7339300D01*
X7110700Y8247200D02*
Y8602800D01*
Y8247200D02*
X7339300D01*
Y7834100D02*
Y8265900D01*
X7110700D02*
X7339300D01*
X7110700Y7834100D02*
Y8265900D01*
Y7834100D02*
X7339300D01*
X13357501Y7500000D02*
Y7800000D01*
X13192500D02*
X13357501D01*
X13192500Y7500000D02*
Y7800000D01*
Y7500000D02*
X13357501D01*
X13042500D02*
Y7800000D01*
Y7500000D02*
X13207501D01*
Y7800000D01*
X13042500D02*
X13207501D01*
X9332500Y7025000D02*
Y7325000D01*
X9167500D02*
X9332500D01*
X9167500Y7025000D02*
Y7325000D01*
Y7025000D02*
X9332500D01*
X10000000Y6817500D02*
X10300000D01*
Y6982500D01*
X10000000D02*
X10300000D01*
X10000000Y6817500D02*
Y6982500D01*
X12492501Y6625000D02*
X12657500D01*
X12492501D02*
Y6925000D01*
X12657500D01*
Y6625000D02*
Y6925000D01*
X12182500Y6625000D02*
Y6925000D01*
X12017500D02*
X12182500D01*
X12017500Y6625000D02*
Y6925000D01*
Y6625000D02*
X12182500D01*
X10854999Y11015000D02*
X11174999D01*
X10854999D02*
X10855000Y10515000D01*
X11174999D01*
X11174999Y11015000D01*
X11180000Y11015000D02*
X11499999Y11015000D01*
X11180000Y10515000D02*
Y11015000D01*
Y10515000D02*
X11499999Y10515000D01*
X11499999Y11015000D01*
X11190000Y11005000D02*
Y11325000D01*
Y11005000D02*
X11690000D01*
Y11325000D01*
X11190000D02*
X11690000D01*
X11475700Y11007800D02*
X11704300D01*
X11704300Y10652200D01*
X11475700Y10652200D02*
X11704300Y10652200D01*
X11475700Y11007800D02*
X11475700Y10652200D01*
X12290000Y10600000D02*
X12610000D01*
X12290000D02*
X12290000Y10100000D01*
X12610000D01*
X12610000Y10600000D01*
X10377501Y10515001D02*
X10542500Y10515000D01*
X10542500Y10215000D01*
X10377500D02*
X10542500D01*
X10377500D02*
X10377501Y10515001D01*
X10507500Y10210000D02*
X10672500D01*
X10507500D02*
Y10510000D01*
X10672500D01*
Y10210000D02*
Y10510000D01*
X10247500Y10215000D02*
X10412500D01*
X10247500Y10515000D02*
X10247500Y10215000D01*
X10247500Y10515000D02*
X10412500D01*
X10412500Y10215000D02*
X10412500Y10515000D01*
X12097500Y10565000D02*
X12262500D01*
X12097500D02*
Y10865000D01*
X12262500D01*
Y10565000D02*
Y10865000D01*
X12640000Y10675000D02*
X12959999D01*
Y11175000D01*
X12640000D02*
X12959999D01*
X12640000Y10675000D02*
Y11175000D01*
X12340000Y10675000D02*
X12660000D01*
Y11175000D01*
X12340000D02*
X12660000D01*
X12340000Y10675000D02*
Y11175000D01*
X10637500Y10510000D02*
X10802500D01*
Y10209999D02*
Y10510000D01*
X10637500Y10209999D02*
X10802500Y10209999D01*
X10637500Y10209999D02*
Y10510000D01*
X10545700Y10674100D02*
Y11105900D01*
Y10674100D02*
X10774300D01*
X10774300Y11105900D01*
X10545700Y11105900D02*
X10774300Y11105900D01*
X11952200Y10095700D02*
Y10324300D01*
X12307800D01*
Y10095700D02*
Y10324300D01*
X11952200Y10095700D02*
X12307800D01*
X11660000Y10600000D02*
X11980000D01*
X11660000D02*
X11660000Y10100000D01*
X11980000D01*
X11980000Y10600000D01*
X13114301Y9884100D02*
Y10315900D01*
X12885699D02*
X13114301D01*
X12885699Y9884100D02*
Y10315900D01*
Y9884100D02*
X13114301D01*
X13089999Y10137500D02*
Y10302500D01*
X13389999D01*
Y10137500D02*
Y10302500D01*
X13089999Y10137500D02*
X13389999D01*
X8460700Y10434100D02*
Y10865900D01*
Y10434100D02*
X8689300D01*
Y10865900D01*
X8460700D02*
X8689300D01*
X8140000Y10925000D02*
X8460000D01*
X8140000Y10425000D02*
Y10925000D01*
Y10425000D02*
X8460000D01*
Y10925000D01*
X7515000Y9800000D02*
X7835000D01*
Y10300000D01*
X7515000D02*
X7835000D01*
X7515000Y9800000D02*
Y10300000D01*
X7815000Y9800000D02*
X8135000D01*
Y10300000D01*
X7815000D02*
X8135000D01*
X7815000Y9800000D02*
Y10300000D01*
X7610700Y10802800D02*
X7839300D01*
Y10447200D02*
Y10802800D01*
X7610700Y10447200D02*
X7839300D01*
X7610700D02*
Y10802800D01*
X7840000Y10925000D02*
X8159999D01*
X7840000Y10425000D02*
Y10925000D01*
Y10425000D02*
X8159999D01*
Y10925000D01*
X7350000Y5617500D02*
Y5782500D01*
X7050000Y5617500D02*
X7350000Y5617500D01*
X7050000Y5617500D02*
Y5782500D01*
X7350000Y5782500D01*
X7295000Y5510000D02*
X7295000Y5650000D01*
X7065000Y5510000D02*
X7295000D01*
X7065000D02*
X7065000Y5650000D01*
X7295000D01*
X9840000Y2895001D02*
Y3125001D01*
Y2895001D02*
X9980000Y2895001D01*
X9980001Y3125001D01*
X9840000D02*
X9980001D01*
X9995000Y3095000D02*
Y3325001D01*
Y3095000D02*
X10135000D01*
Y3325001D01*
X9995000D02*
X10135000D01*
X12120000Y5905000D02*
Y6135000D01*
X11980000D02*
X12120000D01*
X11980000Y5905000D02*
Y6135000D01*
Y5905000D02*
X12120000D01*
X9840000Y3095000D02*
Y3325000D01*
Y3095000D02*
X9980000D01*
Y3325000D01*
X9840000D02*
X9980000D01*
X7910000Y5345000D02*
X8140000D01*
X7910000Y5205000D02*
Y5345000D01*
Y5205000D02*
X8140000D01*
Y5345000D01*
X7130000Y3815000D02*
X7270000D01*
Y3585000D02*
Y3815000D01*
X7130000Y3585000D02*
X7270000D01*
X7130000D02*
Y3815000D01*
X7230000D02*
X7370000D01*
Y3585000D02*
Y3815000D01*
X7230000Y3585000D02*
X7370000D01*
X7230000D02*
Y3815000D01*
X7330000D02*
X7470000D01*
Y3585000D02*
Y3815000D01*
X7330000Y3585000D02*
X7470000D01*
X7330000D02*
Y3815000D01*
X7430000D02*
X7570000D01*
Y3585000D02*
Y3815000D01*
X7430000Y3585000D02*
X7570000D01*
X7430000D02*
Y3815000D01*
X7490000Y5230000D02*
Y5370000D01*
X7260000Y5230000D02*
X7490000D01*
X7260000D02*
Y5370000D01*
X7490000D01*
Y5080000D02*
Y5220000D01*
X7260000Y5080000D02*
X7490000D01*
X7260000D02*
Y5220000D01*
X7490000D01*
Y4755000D02*
Y4895000D01*
X7260000Y4755000D02*
X7490000D01*
X7260000D02*
Y4895000D01*
X7490000D01*
X12830000Y4360000D02*
Y4590000D01*
Y4360000D02*
X12970000D01*
Y4590000D01*
X12830000D02*
X12970000D01*
X6998000Y2996500D02*
X6998000Y3376500D01*
X6998000Y2996500D02*
X7698000D01*
X7698000Y3376500D02*
X7698000Y2996500D01*
X6998000Y3376500D02*
X7698000D01*
X10377270Y6285598D02*
X10589402Y6497729D01*
X10472729Y6614402D02*
X10589402Y6497729D01*
X10260597Y6402270D02*
X10472729Y6614402D01*
X10260597Y6402270D02*
X10377270Y6285598D01*
X10600762Y5657565D02*
X10717435Y5774237D01*
X10388630Y5869697D02*
X10600762Y5657565D01*
X10388630Y5869697D02*
X10505303Y5986369D01*
X10717435Y5774237D01*
X10697729Y5760598D02*
X10814402Y5877270D01*
X10485597Y5972730D02*
X10697729Y5760598D01*
X10485597Y5972730D02*
X10602269Y6089402D01*
X10814402Y5877270D01*
X9493180Y5955815D02*
X9655815Y5793180D01*
X9394185Y5856820D02*
X9493180Y5955815D01*
X9394185Y5856820D02*
X9556820Y5694185D01*
X9655815Y5793180D01*
X9472730Y5560598D02*
X9589402Y5677270D01*
X9260598Y5772730D02*
X9472730Y5560598D01*
X9260598Y5772730D02*
X9377270Y5889402D01*
X9589402Y5677270D01*
X10460598Y6197729D02*
X10577270Y6314402D01*
X10789402Y6102270D01*
X10672729Y5985597D02*
X10789402Y6102270D01*
X10460598Y6197729D02*
X10672729Y5985597D01*
X10572729Y6514402D02*
X10689402Y6397729D01*
X10477270Y6185597D02*
X10689402Y6397729D01*
X10360598Y6302270D02*
X10477270Y6185597D01*
X10360598Y6302270D02*
X10572729Y6514402D01*
X10871842Y5991513D02*
X11033486Y6153158D01*
X10566513Y6296842D02*
X10871842Y5991513D01*
X10566513Y6296842D02*
X10728158Y6458486D01*
X11033486Y6153158D01*
X10718180Y3819185D02*
X10880815Y3981820D01*
X10781820Y4080815D02*
X10880815Y3981820D01*
X10619185Y3918180D02*
X10781820Y4080815D01*
X10619185Y3918180D02*
X10718180Y3819185D01*
X8969185Y4418180D02*
X9131820Y4580815D01*
X8969185Y4418180D02*
X9068180Y4319185D01*
X9230815Y4481820D01*
X9131820Y4580815D02*
X9230815Y4481820D01*
X10768180Y4530815D02*
X10930815Y4368180D01*
X10669185Y4431820D02*
X10768180Y4530815D01*
X10669185Y4431820D02*
X10831820Y4269185D01*
X10930815Y4368180D01*
X9578180Y5170815D02*
X9740815Y5008180D01*
X9479185Y5071820D02*
X9578180Y5170815D01*
X9479185Y5071820D02*
X9641820Y4909185D01*
X9740815Y5008180D01*
X9119185Y4568180D02*
X9281820Y4730816D01*
X9119185Y4568180D02*
X9218180Y4469185D01*
X9380815Y4631820D01*
X9281820Y4730816D02*
X9380815Y4631820D01*
X9539185Y3451820D02*
X9701820Y3289185D01*
X9800815Y3388180D01*
X9638180Y3550815D02*
X9800815Y3388180D01*
X9539185Y3451820D02*
X9638180Y3550815D01*
X8761809Y3879540D02*
X8924444Y4042175D01*
X8825449Y4141170D02*
X8924444Y4042175D01*
X8662814Y3978535D02*
X8825449Y4141170D01*
X8662814Y3978535D02*
X8761809Y3879540D01*
X8733525Y4183597D02*
X8896159Y4020962D01*
X8995155Y4119957D01*
X8832520Y4282592D02*
X8995155Y4119957D01*
X8733525Y4183597D02*
X8832520Y4282592D01*
X8973941Y3667409D02*
X9136576Y3830043D01*
X9037581Y3929038D02*
X9136576Y3830043D01*
X8874946Y3766404D02*
X9037581Y3929038D01*
X8874946Y3766404D02*
X8973941Y3667409D01*
X9115363Y3999749D02*
X9277997Y3837114D01*
X9016368Y3900754D02*
X9115363Y3999749D01*
X9016368Y3900754D02*
X9179002Y3738119D01*
X9277997Y3837114D01*
X8903230Y3738119D02*
X9065865Y3900754D01*
X8966870Y3999749D02*
X9065865Y3900754D01*
X8804235Y3837114D02*
X8966870Y3999749D01*
X8804235Y3837114D02*
X8903230Y3738119D01*
X8874946Y4042176D02*
X9037581Y3879541D01*
X9136576Y3978536D01*
X8973941Y4141171D02*
X9136576Y3978536D01*
X8874946Y4042176D02*
X8973941Y4141171D01*
X10143180Y5130815D02*
X10305815Y4968180D01*
X10044185Y5031820D02*
X10143180Y5130815D01*
X10044185Y5031820D02*
X10206820Y4869185D01*
X10305815Y4968180D01*
X9919185Y5568180D02*
X10081820Y5730815D01*
X9919185Y5568180D02*
X10018180Y5469185D01*
X10180815Y5631820D01*
X10081820Y5730815D02*
X10180815Y5631820D01*
X9494185D02*
X9656820Y5469185D01*
X9755815Y5568180D01*
X9593180Y5730815D02*
X9755815Y5568180D01*
X9494185Y5631820D02*
X9593180Y5730815D01*
X9197730Y4839402D02*
X9314403Y4722729D01*
X9102270Y4510598D02*
X9314403Y4722729D01*
X8985598Y4627270D02*
X9102270Y4510598D01*
X8985598Y4627270D02*
X9197730Y4839402D01*
X8785598Y4602270D02*
X8997730Y4814402D01*
X8785598Y4602270D02*
X8902270Y4485598D01*
X9114402Y4697730D01*
X8997730Y4814402D02*
X9114402Y4697730D01*
X12120000Y6105000D02*
Y6335000D01*
X11980000D02*
X12120000D01*
X11980000Y6105000D02*
Y6335000D01*
Y6105000D02*
X12120000D01*
X12084999Y6015000D02*
X12085000Y5875000D01*
X12084999Y6015000D02*
X12315000Y6015000D01*
Y5875000D02*
Y6015000D01*
X12085000Y5875000D02*
X12315000D01*
X9995000Y3125001D02*
X10135000D01*
Y2895000D02*
Y3125001D01*
X9995000Y2895000D02*
X10135000D01*
X9995000D02*
Y3125001D01*
X9685000Y3335001D02*
X9825000D01*
Y3105000D02*
Y3335001D01*
X9685000Y3105000D02*
X9825000Y3105000D01*
X9685000Y3105000D02*
X9685000Y3335001D01*
X9685000Y2905001D02*
Y3135001D01*
Y2905001D02*
X9825000D01*
X9825000Y3135001D02*
X9825000Y2905001D01*
X9685000Y3135001D02*
X9825000D01*
X11880000Y6335000D02*
X12020000D01*
Y6105000D02*
Y6335000D01*
X11880000Y6105000D02*
X12020000D01*
X11880000D02*
Y6335000D01*
X10150000Y3325000D02*
X10290000D01*
Y3095000D02*
Y3325000D01*
X10150000Y3095000D02*
X10290000D01*
X10150000D02*
Y3325000D01*
X11885000Y3605000D02*
Y3745000D01*
X12115000D01*
Y3605000D02*
Y3745000D01*
X11885000Y3605000D02*
X12115000D01*
X11850000Y3742500D02*
X12150000D01*
X12150000Y3907499D01*
X11850000D02*
X12150000D01*
X11850000Y3742500D02*
Y3907499D01*
X12385000Y3795000D02*
X12615000Y3795000D01*
X12385000Y3655000D02*
Y3795000D01*
Y3655000D02*
X12615000D01*
Y3795000D01*
X12109999Y3655000D02*
X12340000D01*
X12340000Y3795000D02*
X12340000Y3655000D01*
X12109999Y3795000D02*
X12340000D01*
X12109999Y3655000D02*
X12109999Y3795000D01*
X11575000Y3907500D02*
X11875000Y3907500D01*
X11575000Y3742500D02*
Y3907500D01*
Y3742500D02*
X11875000Y3742500D01*
Y3907500D01*
Y3592500D02*
Y3757500D01*
X11575000Y3592500D02*
X11875000D01*
X11575000D02*
Y3757500D01*
X11875000D01*
X7490000Y4655000D02*
Y4795000D01*
X7260000Y4655000D02*
X7490000D01*
X7260000D02*
Y4795000D01*
X7490000D01*
Y4980000D02*
Y5120000D01*
X7260000Y4980000D02*
X7490000D01*
X7260000D02*
Y5120000D01*
X7490000D01*
Y5330000D02*
Y5470000D01*
X7260000Y5330000D02*
X7490000D01*
X7260000D02*
Y5470000D01*
X7490000D01*
X7260000Y4555000D02*
Y4695000D01*
X7490000D01*
Y4555000D02*
Y4695000D01*
X7260000Y4555000D02*
X7490000Y4555000D01*
X7260000Y4880000D02*
Y5020000D01*
X7490000D01*
Y4880000D02*
Y5020000D01*
X7260000Y4880000D02*
X7490000D01*
X7260000Y5430000D02*
Y5570000D01*
X7490000D01*
Y5430000D02*
Y5570000D01*
X7260000Y5430000D02*
X7490000D01*
X8685598Y4702270D02*
X8897730Y4914402D01*
X8685598Y4702270D02*
X8802270Y4585598D01*
X9014402Y4797730D01*
X8897730Y4914402D02*
X9014402Y4797730D01*
X10852270Y4664402D02*
X11064402Y4452270D01*
X10735598Y4547730D02*
X10852270Y4664402D01*
X10735598Y4547730D02*
X10947730Y4335598D01*
X11064402Y4452270D01*
X7530000Y3815000D02*
X7670000D01*
Y3585000D02*
Y3815000D01*
X7530000Y3585000D02*
X7670000D01*
X7530000D02*
Y3815000D01*
X10681820Y3694185D02*
X10780815Y3793180D01*
X10519185Y3856820D02*
X10681820Y3694185D01*
X10519185Y3856820D02*
X10618180Y3955815D01*
X10780815Y3793180D01*
X7630000Y3585000D02*
X7770000D01*
X7630000D02*
Y3815000D01*
X7770000D01*
Y3585000D02*
Y3815000D01*
X7465000Y4280000D02*
Y4420000D01*
X7235000Y4280000D02*
X7465000D01*
X7235000D02*
Y4420000D01*
X7465000D01*
X7092500Y4275000D02*
Y4575000D01*
Y4275000D02*
X7257500D01*
Y4575000D01*
X7092500D02*
X7257500D01*
X7740000Y4305000D02*
X7740001Y4445000D01*
X7510000Y4305000D02*
X7740000D01*
X7510000D02*
X7510000Y4445000D01*
X7740001D01*
X7740000Y4405001D02*
Y4545000D01*
X7510000Y4405000D02*
X7740000Y4405001D01*
X7510000Y4545000D02*
X7510000Y4405000D01*
X7510000Y4545000D02*
X7740000D01*
X12535000Y5530000D02*
Y5670000D01*
X12765000D01*
Y5530000D02*
Y5670000D01*
X12535000Y5530000D02*
X12765000D01*
X12500000Y5642500D02*
X12800000D01*
Y5807500D01*
X12500000D02*
X12800000D01*
X12500000Y5642500D02*
Y5807500D01*
X12805000Y5240000D02*
X12945000D01*
Y5010000D02*
Y5240000D01*
X12805000Y5010000D02*
X12945000D01*
X12805000D02*
Y5240000D01*
X11880000Y5260000D02*
X12020000D01*
X11880000D02*
Y5490000D01*
X12020000D01*
Y5260000D02*
Y5490000D01*
X12805000Y5440000D02*
X12945000D01*
Y5210000D02*
Y5440000D01*
X12805000Y5210000D02*
X12945000D01*
X12805000D02*
Y5440000D01*
Y5640000D02*
X12945000D01*
Y5410000D02*
Y5640000D01*
X12805000Y5410000D02*
X12945000D01*
X12805000D02*
Y5640000D01*
X11880000Y5060000D02*
X12020000D01*
X11880000D02*
Y5290000D01*
X12020000D01*
Y5060000D02*
Y5290000D01*
X8165000Y5880000D02*
Y6020000D01*
X7935000Y5880000D02*
X8165000D01*
X7935000D02*
Y6020000D01*
X8165000D01*
X7900000Y5907500D02*
X8200000D01*
X7900000Y5742500D02*
Y5907500D01*
Y5742500D02*
X8200000D01*
Y5907500D01*
X7345000Y6385000D02*
Y6615000D01*
X7205000D02*
X7345000D01*
X7205000Y6385000D02*
Y6615000D01*
Y6385000D02*
X7345000D01*
X7710000Y6230000D02*
Y6370000D01*
X7940000D01*
Y6230000D02*
Y6370000D01*
X7710000Y6230000D02*
X7940000D01*
X7705000Y6565000D02*
X7845000D01*
Y6335000D02*
Y6565000D01*
X7705000Y6335000D02*
X7845000D01*
X7705000D02*
Y6565000D01*
X7875000Y5232500D02*
X8175000Y5232500D01*
X7875000Y5067500D02*
Y5232500D01*
Y5067500D02*
X8175000Y5067500D01*
Y5232500D01*
X7360000Y6000000D02*
Y6350000D01*
X7190000D02*
X7360000D01*
X7190000Y6000000D02*
Y6350000D01*
Y6000000D02*
X7360000D01*
X7275000Y6140000D02*
Y6207500D01*
X7245000Y6177500D02*
X7275000Y6207500D01*
X7305000Y6177500D01*
X7345000Y5760000D02*
Y5990000D01*
X7205000D02*
X7345000D01*
X7205000Y5760000D02*
Y5990000D01*
Y5760000D02*
X7345000D01*
X7685000Y5555000D02*
Y5695000D01*
X7915000D01*
Y5555000D02*
Y5695000D01*
X7685000Y5555000D02*
X7915000D01*
X7680000Y5890000D02*
X7820000D01*
Y5660000D02*
Y5890000D01*
X7680000Y5660000D02*
X7820000D01*
X7680000D02*
Y5890000D01*
X11930000Y4665000D02*
X12070000D01*
Y4435000D02*
Y4665000D01*
X11930000Y4435000D02*
X12070000D01*
X11930000D02*
Y4665000D01*
X11792500Y4400000D02*
Y4700000D01*
Y4400000D02*
X11957500D01*
Y4700000D01*
X11792500D02*
X11957500D01*
X12830000Y4790000D02*
X12970000D01*
Y4560000D02*
Y4790000D01*
X12830000Y4560000D02*
X12970000D01*
X12830000D02*
Y4790000D01*
X12790000Y4105000D02*
X12930000D01*
X12790000D02*
Y4335000D01*
X12930000D01*
Y4105000D02*
Y4335000D01*
X12640000Y5015000D02*
X12780000D01*
Y4785000D02*
Y5015000D01*
X12640000Y4785000D02*
X12780000D01*
X12640000D02*
Y5015000D01*
X12660000Y4095000D02*
X12800000D01*
X12660000D02*
Y4325000D01*
X12800000D01*
Y4095000D02*
Y4325000D01*
X12541742Y3789984D02*
Y3690016D01*
X12591726D01*
X12608387Y3706678D01*
Y3773323D01*
X12591726Y3789984D01*
X12541742D01*
X12708355Y3690016D02*
X12641710D01*
X12708355Y3756661D01*
Y3773323D01*
X12691694Y3789984D01*
X12658371D01*
X12641710Y3773323D01*
X12808324Y3690016D02*
X12741678D01*
X12808324Y3756661D01*
Y3773323D01*
X12791661Y3789984D01*
X12758339D01*
X12741678Y3773323D01*
X12841644D02*
X12858307Y3789984D01*
X12891629D01*
X12908290Y3773323D01*
Y3706678D01*
X12891629Y3690016D01*
X12858307D01*
X12841644Y3706678D01*
Y3773323D01*
X12941612D02*
X12958275Y3789984D01*
X12991597D01*
X13008258Y3773323D01*
Y3756661D01*
X12991597Y3740000D01*
X12974936D01*
X12991597D01*
X13008258Y3723339D01*
Y3706678D01*
X12991597Y3690016D01*
X12958275D01*
X12941612Y3706678D01*
X11821822Y8139371D02*
X11755177D01*
X11738516Y8122710D01*
Y8089387D01*
X11755177Y8072726D01*
X11821822D01*
X11838484Y8089387D01*
Y8122710D01*
X11805161Y8106049D02*
X11838484Y8139371D01*
Y8122710D02*
X11821822Y8139371D01*
Y8172694D02*
X11838484Y8189355D01*
Y8222678D01*
X11821822Y8239339D01*
X11755177D01*
X11738516Y8222678D01*
Y8189355D01*
X11755177Y8172694D01*
X11771839D01*
X11788500Y8189355D01*
Y8239339D01*
X11755177Y8272662D02*
X11738516Y8289323D01*
Y8322646D01*
X11755177Y8339307D01*
X11821822D01*
X11838484Y8322646D01*
Y8289323D01*
X11821822Y8272662D01*
X11755177D01*
X11838484Y8439274D02*
Y8372629D01*
X11771839Y8439274D01*
X11755177D01*
X11738516Y8422613D01*
Y8389291D01*
X11755177Y8372629D01*
X7733294Y8100035D02*
X7666649D01*
X7649987Y8083374D01*
Y8050051D01*
X7666649Y8033390D01*
X7733294D01*
X7749955Y8050051D01*
Y8083374D01*
X7716633Y8066712D02*
X7749955Y8100035D01*
Y8083374D02*
X7733294Y8100035D01*
X7749955Y8133358D02*
Y8166680D01*
Y8150019D01*
X7649987D01*
X7666649Y8133358D01*
X7749955Y8216664D02*
Y8249987D01*
Y8233325D01*
X7649987D01*
X7666649Y8216664D01*
Y8299970D02*
X7649987Y8316632D01*
Y8349954D01*
X7666649Y8366615D01*
X7733294D01*
X7749955Y8349954D01*
Y8316632D01*
X7733294Y8299970D01*
X7666649D01*
X7749955Y8466583D02*
Y8399938D01*
X7683310Y8466583D01*
X7666649D01*
X7649987Y8449922D01*
Y8416600D01*
X7666649Y8399938D01*
X7449984Y4288266D02*
X7350016D01*
Y4238282D01*
X7366677Y4221621D01*
X7433322D01*
X7449984Y4238282D01*
Y4288266D01*
X7350016Y4188298D02*
Y4154976D01*
Y4171637D01*
X7449984D01*
X7433322Y4188298D01*
Y4104992D02*
X7449984Y4088330D01*
Y4055008D01*
X7433322Y4038347D01*
X7416661D01*
X7400000Y4055008D01*
X7383339Y4038347D01*
X7366677D01*
X7350016Y4055008D01*
Y4088330D01*
X7366677Y4104992D01*
X7383339D01*
X7400000Y4088330D01*
X7416661Y4104992D01*
X7433322D01*
X7400000Y4088330D02*
Y4055008D01*
X7433322Y4005024D02*
X7449984Y3988363D01*
Y3955040D01*
X7433322Y3938379D01*
X7366677D01*
X7350016Y3955040D01*
Y3988363D01*
X7366677Y4005024D01*
X7433322D01*
X7350016Y3905056D02*
Y3871734D01*
Y3888395D01*
X7449984D01*
X7433322Y3905056D01*
X7599927Y3435016D02*
Y3534984D01*
X7549943D01*
X7533282Y3518322D01*
Y3451677D01*
X7549943Y3435016D01*
X7599927D01*
X7499959Y3534984D02*
X7466637D01*
X7483298D01*
Y3435016D01*
X7499959Y3451677D01*
X7416653Y3518322D02*
X7399991Y3534984D01*
X7366669D01*
X7350008Y3518322D01*
Y3451677D01*
X7366669Y3435016D01*
X7399991D01*
X7416653Y3451677D01*
Y3468339D01*
X7399991Y3485000D01*
X7350008D01*
X7316685Y3451677D02*
X7300024Y3435016D01*
X7266701D01*
X7250040Y3451677D01*
Y3518322D01*
X7266701Y3534984D01*
X7300024D01*
X7316685Y3518322D01*
Y3451677D01*
X7150072Y3534984D02*
X7216717D01*
X7150072Y3468339D01*
Y3451677D01*
X7166733Y3435016D01*
X7200056D01*
X7216717Y3451677D01*
X12235777Y6310251D02*
X12302422D01*
X12319084Y6326912D01*
Y6360235D01*
X12302422Y6376896D01*
X12235777D01*
X12219116Y6360235D01*
Y6326912D01*
X12252439Y6343574D02*
X12219116Y6310251D01*
Y6326912D02*
X12235777Y6310251D01*
X12219116Y6210283D02*
Y6276928D01*
X12285761Y6210283D01*
X12302422D01*
X12319084Y6226944D01*
Y6260267D01*
X12302422Y6276928D01*
Y6176960D02*
X12319084Y6160299D01*
Y6126977D01*
X12302422Y6110315D01*
X12285761D01*
X12269100Y6126977D01*
Y6143638D01*
Y6126977D01*
X12252439Y6110315D01*
X12235777D01*
X12219116Y6126977D01*
Y6160299D01*
X12235777Y6176960D01*
X12302422Y6076993D02*
X12319084Y6060331D01*
Y6027009D01*
X12302422Y6010348D01*
X12235777D01*
X12219116Y6027009D01*
Y6060331D01*
X12235777Y6076993D01*
X12302422D01*
X12219116Y5977025D02*
Y5943702D01*
Y5960363D01*
X12319084D01*
X12302422Y5977025D01*
X7583323Y6350049D02*
X7516678D01*
X7500017Y6333388D01*
Y6300065D01*
X7516678Y6283404D01*
X7583323D01*
X7599985Y6300065D01*
Y6333388D01*
X7566662Y6316727D02*
X7599985Y6350049D01*
Y6333388D02*
X7583323Y6350049D01*
X7599985Y6450017D02*
Y6383372D01*
X7533340Y6450017D01*
X7516678D01*
X7500017Y6433356D01*
Y6400033D01*
X7516678Y6383372D01*
Y6483340D02*
X7500017Y6500001D01*
Y6533323D01*
X7516678Y6549985D01*
X7583323D01*
X7599985Y6533323D01*
Y6500001D01*
X7583323Y6483340D01*
X7516678D01*
Y6583307D02*
X7500017Y6599969D01*
Y6633291D01*
X7516678Y6649952D01*
X7583323D01*
X7599985Y6633291D01*
Y6599969D01*
X7583323Y6583307D01*
X7516678D01*
X7599985Y6683275D02*
Y6716598D01*
Y6699937D01*
X7500017D01*
X7516678Y6683275D01*
X8366677Y8363290D02*
X8433322D01*
X8449984Y8379951D01*
Y8413274D01*
X8433322Y8429935D01*
X8366677D01*
X8350016Y8413274D01*
Y8379951D01*
X8383338Y8396613D02*
X8350016Y8363290D01*
Y8379951D02*
X8366677Y8363290D01*
X8350016Y8329967D02*
Y8296645D01*
Y8313306D01*
X8449984D01*
X8433322Y8329967D01*
X8350016Y8246661D02*
Y8213338D01*
Y8230000D01*
X8449984D01*
X8433322Y8246661D01*
Y8163355D02*
X8449984Y8146693D01*
Y8113371D01*
X8433322Y8096709D01*
X8366677D01*
X8350016Y8113371D01*
Y8146693D01*
X8366677Y8163355D01*
X8433322D01*
X8350016Y8063387D02*
Y8030064D01*
Y8046725D01*
X8449984D01*
X8433322Y8063387D01*
X7558322Y5658387D02*
X7491677D01*
X7475016Y5641726D01*
Y5608403D01*
X7491677Y5591742D01*
X7558322D01*
X7574984Y5608403D01*
Y5641726D01*
X7541661Y5625064D02*
X7574984Y5658387D01*
Y5641726D02*
X7558322Y5658387D01*
X7574984Y5758354D02*
Y5691709D01*
X7508339Y5758354D01*
X7491677D01*
X7475016Y5741693D01*
Y5708371D01*
X7491677Y5691709D01*
X7574984Y5858322D02*
Y5791677D01*
X7508339Y5858322D01*
X7491677D01*
X7475016Y5841661D01*
Y5808339D01*
X7491677Y5791677D01*
Y5891645D02*
X7475016Y5908306D01*
Y5941629D01*
X7491677Y5958290D01*
X7558322D01*
X7574984Y5941629D01*
Y5908306D01*
X7558322Y5891645D01*
X7491677D01*
X7574984Y6058258D02*
Y5991613D01*
X7508339Y6058258D01*
X7491677D01*
X7475016Y6041597D01*
Y6008274D01*
X7491677Y5991613D01*
X9616677Y8416621D02*
X9683323D01*
X9699984Y8433282D01*
Y8466605D01*
X9683323Y8483266D01*
X9616677D01*
X9600016Y8466605D01*
Y8433282D01*
X9633339Y8449944D02*
X9600016Y8416621D01*
Y8433282D02*
X9616677Y8416621D01*
X9600016Y8383298D02*
Y8349976D01*
Y8366637D01*
X9699984D01*
X9683323Y8383298D01*
Y8299992D02*
X9699984Y8283331D01*
Y8250008D01*
X9683323Y8233347D01*
X9616677D01*
X9600016Y8250008D01*
Y8283331D01*
X9616677Y8299992D01*
X9683323D01*
Y8200024D02*
X9699984Y8183363D01*
Y8150040D01*
X9683323Y8133379D01*
X9616677D01*
X9600016Y8150040D01*
Y8183363D01*
X9616677Y8200024D01*
X9683323D01*
X9600016Y8100056D02*
Y8066734D01*
Y8083395D01*
X9699984D01*
X9683323Y8100056D01*
X12491678Y8324968D02*
X12558323D01*
X12574984Y8341629D01*
Y8374952D01*
X12558323Y8391613D01*
X12491678D01*
X12475016Y8374952D01*
Y8341629D01*
X12508339Y8358291D02*
X12475016Y8324968D01*
Y8341629D02*
X12491678Y8324968D01*
Y8291645D02*
X12475016Y8274984D01*
Y8241661D01*
X12491678Y8225000D01*
X12558323D01*
X12574984Y8241661D01*
Y8274984D01*
X12558323Y8291645D01*
X12541661D01*
X12525000Y8274984D01*
Y8225000D01*
X12558323Y8191678D02*
X12574984Y8175016D01*
Y8141694D01*
X12558323Y8125033D01*
X12491678D01*
X12475016Y8141694D01*
Y8175016D01*
X12491678Y8191678D01*
X12558323D01*
X12475016Y8091710D02*
Y8058387D01*
Y8075048D01*
X12574984D01*
X12558323Y8091710D01*
X10558323Y8141719D02*
X10491678D01*
X10475016Y8125057D01*
Y8091735D01*
X10491678Y8075074D01*
X10558323D01*
X10574984Y8091735D01*
Y8125057D01*
X10541662Y8108396D02*
X10574984Y8141719D01*
Y8125057D02*
X10558323Y8141719D01*
X10574984Y8175041D02*
Y8208364D01*
Y8191703D01*
X10475016D01*
X10491678Y8175041D01*
Y8258348D02*
X10475016Y8275009D01*
Y8308332D01*
X10491678Y8324993D01*
X10558323D01*
X10574984Y8308332D01*
Y8275009D01*
X10558323Y8258348D01*
X10491678D01*
Y8358316D02*
X10475016Y8374977D01*
Y8408299D01*
X10491678Y8424961D01*
X10558323D01*
X10574984Y8408299D01*
Y8374977D01*
X10558323Y8358316D01*
X10491678D01*
X10574984Y8524928D02*
Y8458283D01*
X10508339Y8524928D01*
X10491678D01*
X10475016Y8508267D01*
Y8474945D01*
X10491678Y8458283D01*
D171*
X7132170Y3262675D02*
X7081386D01*
X7106778D01*
Y3135717D01*
X7081386Y3110325D01*
X7055995D01*
X7030603Y3135717D01*
X7182953Y3110325D02*
X7233737D01*
X7208345D01*
Y3262675D01*
X7182953Y3237284D01*
X7309912Y3135717D02*
X7335304Y3110325D01*
X7386088D01*
X7411479Y3135717D01*
Y3237284D01*
X7386088Y3262675D01*
X7335304D01*
X7309912Y3237284D01*
Y3211892D01*
X7335304Y3186500D01*
X7411479D01*
X7462263Y3237284D02*
X7487655Y3262675D01*
X7538438D01*
X7563830Y3237284D01*
Y3135717D01*
X7538438Y3110325D01*
X7487655D01*
X7462263Y3135717D01*
Y3237284D01*
X7614614Y3110325D02*
X7665397D01*
X7640006D01*
Y3262675D01*
X7614614Y3237284D01*
D174*
X12500049Y3354984D02*
X12466726D01*
X12483388D01*
Y3271678D01*
X12466726Y3255016D01*
X12450065D01*
X12433404Y3271678D01*
X12600017Y3255016D02*
X12533372D01*
X12600017Y3321661D01*
Y3338323D01*
X12583356Y3354984D01*
X12550033D01*
X12533372Y3338323D01*
X12699985Y3255016D02*
X12633339D01*
X12699985Y3321661D01*
Y3338323D01*
X12683323Y3354984D01*
X12650001D01*
X12633339Y3338323D01*
X12733307D02*
X12749969Y3354984D01*
X12783291D01*
X12799952Y3338323D01*
Y3271678D01*
X12783291Y3255016D01*
X12749969D01*
X12733307Y3271678D01*
Y3338323D01*
X12833275Y3255016D02*
X12866599D01*
X12849936D01*
Y3354984D01*
X12833275Y3338323D01*
X12216734Y5299984D02*
Y5216677D01*
X12233395Y5200016D01*
X12266718D01*
X12283379Y5216677D01*
Y5299984D01*
X12316702Y5200016D02*
X12350024D01*
X12333363D01*
Y5299984D01*
X12316702Y5283322D01*
X12466653Y5299984D02*
X12400008D01*
Y5250000D01*
X12433331Y5266661D01*
X12449992D01*
X12466653Y5250000D01*
Y5216677D01*
X12449992Y5200016D01*
X12416670D01*
X12400008Y5216677D01*
X12499976Y5283322D02*
X12516637Y5299984D01*
X12549960D01*
X12566621Y5283322D01*
Y5216677D01*
X12549960Y5200016D01*
X12516637D01*
X12499976Y5216677D01*
Y5283322D01*
X12599944Y5200016D02*
X12633266D01*
X12616605D01*
Y5299984D01*
X12599944Y5283322D01*
X8365758Y5470016D02*
Y5553323D01*
X8349097Y5569984D01*
X8315774D01*
X8299113Y5553323D01*
Y5470016D01*
X8199145Y5569984D02*
X8265790D01*
X8199145Y5503339D01*
Y5486678D01*
X8215806Y5470016D01*
X8249129D01*
X8265790Y5486678D01*
X8165822D02*
X8149161Y5470016D01*
X8115838D01*
X8099177Y5486678D01*
Y5553323D01*
X8115838Y5569984D01*
X8149161D01*
X8165822Y5553323D01*
Y5486678D01*
X8065855D02*
X8049193Y5470016D01*
X8015871D01*
X7999210Y5486678D01*
Y5553323D01*
X8015871Y5569984D01*
X8049193D01*
X8065855Y5553323D01*
Y5486678D01*
X7899242Y5569984D02*
X7965887D01*
X7899242Y5503339D01*
Y5486678D01*
X7915903Y5470016D01*
X7949225D01*
X7965887Y5486678D01*
X8374096Y6130016D02*
Y6213322D01*
X8357435Y6229983D01*
X8324112D01*
X8307451Y6213322D01*
Y6130016D01*
X8207483Y6229983D02*
X8274128D01*
X8207483Y6163338D01*
Y6146677D01*
X8224144Y6130016D01*
X8257467D01*
X8274128Y6146677D01*
X8174160D02*
X8157499Y6130016D01*
X8124177D01*
X8107515Y6146677D01*
Y6213322D01*
X8124177Y6229983D01*
X8157499D01*
X8174160Y6213322D01*
Y6146677D01*
X8074193D02*
X8057531Y6130016D01*
X8024209D01*
X8007548Y6146677D01*
Y6213322D01*
X8024209Y6229983D01*
X8057531D01*
X8074193Y6213322D01*
Y6146677D01*
X7974225Y6229983D02*
X7940902D01*
X7957563D01*
Y6130016D01*
X7974225Y6146677D01*
X12244234Y4613484D02*
Y4530177D01*
X12260896Y4513516D01*
X12294218D01*
X12310879Y4530177D01*
Y4613484D01*
X12344202Y4513516D02*
X12377525D01*
X12360864D01*
Y4613484D01*
X12344202Y4596822D01*
X12427509Y4613484D02*
X12494154D01*
Y4596822D01*
X12427509Y4530177D01*
Y4513516D01*
X12527476Y4596822D02*
X12544138Y4613484D01*
X12577460D01*
X12594121Y4596822D01*
Y4530177D01*
X12577460Y4513516D01*
X12544138D01*
X12527476Y4530177D01*
Y4596822D01*
X12627444Y4513516D02*
X12660767D01*
X12644106D01*
Y4613484D01*
X12627444Y4596822D01*
X6799984Y5291621D02*
Y5324943D01*
Y5308282D01*
X6716677D01*
X6700016Y5324943D01*
Y5341604D01*
X6716677Y5358266D01*
X6700016Y5258298D02*
Y5224975D01*
Y5241636D01*
X6799984D01*
X6783322Y5258298D01*
X6799984Y5108346D02*
Y5174991D01*
X6750000D01*
X6766661Y5141669D01*
Y5125008D01*
X6750000Y5108346D01*
X6716677D01*
X6700016Y5125008D01*
Y5158330D01*
X6716677Y5174991D01*
X6783322Y5075024D02*
X6799984Y5058362D01*
Y5025040D01*
X6783322Y5008379D01*
X6716677D01*
X6700016Y5025040D01*
Y5058362D01*
X6716677Y5075024D01*
X6783322D01*
X6700016Y4975056D02*
Y4941733D01*
Y4958394D01*
X6799984D01*
X6783322Y4975056D01*
X6724984Y4191621D02*
Y4224944D01*
Y4208282D01*
X6641678D01*
X6625016Y4224944D01*
Y4241605D01*
X6641678Y4258266D01*
X6625016Y4158298D02*
Y4124976D01*
Y4141637D01*
X6724984D01*
X6708323Y4158298D01*
Y4074992D02*
X6724984Y4058330D01*
Y4025008D01*
X6708323Y4008347D01*
X6691661D01*
X6675000Y4025008D01*
X6658339Y4008347D01*
X6641678D01*
X6625016Y4025008D01*
Y4058330D01*
X6641678Y4074992D01*
X6658339D01*
X6675000Y4058330D01*
X6691661Y4074992D01*
X6708323D01*
X6675000Y4058330D02*
Y4025008D01*
X6708323Y3975024D02*
X6724984Y3958363D01*
Y3925040D01*
X6708323Y3908379D01*
X6641678D01*
X6625016Y3925040D01*
Y3958363D01*
X6641678Y3975024D01*
X6708323D01*
X6625016Y3875056D02*
Y3841734D01*
Y3858395D01*
X6724984D01*
X6708323Y3875056D01*
X7708322Y11124968D02*
X7724984Y11141629D01*
Y11174951D01*
X7708322Y11191613D01*
X7641677D01*
X7625016Y11174951D01*
Y11141629D01*
X7641677Y11124968D01*
X7724984Y11025000D02*
Y11091645D01*
X7675000D01*
X7691661Y11058323D01*
Y11041661D01*
X7675000Y11025000D01*
X7641677D01*
X7625016Y11041661D01*
Y11074984D01*
X7641677Y11091645D01*
X7708322Y10991677D02*
X7724984Y10975016D01*
Y10941693D01*
X7708322Y10925032D01*
X7641677D01*
X7625016Y10941693D01*
Y10975016D01*
X7641677Y10991677D01*
X7708322D01*
X7625016Y10891709D02*
Y10858387D01*
Y10875048D01*
X7724984D01*
X7708322Y10891709D01*
X13759984Y7669952D02*
Y7736597D01*
X13710001D01*
Y7703274D01*
Y7736597D01*
X13660016D01*
X13759984Y7636629D02*
X13660016D01*
Y7586645D01*
X13676677Y7569984D01*
X13693340D01*
X13710001Y7586645D01*
Y7636629D01*
Y7586645D01*
X13726662Y7569984D01*
X13743323D01*
X13759984Y7586645D01*
Y7636629D01*
Y7470016D02*
X13743323Y7503339D01*
X13710001Y7536661D01*
X13676677D01*
X13660016Y7520000D01*
Y7486677D01*
X13676677Y7470016D01*
X13693340D01*
X13710001Y7486677D01*
Y7536661D01*
X13743323Y7436693D02*
X13759984Y7420032D01*
Y7386709D01*
X13743323Y7370048D01*
X13676677D01*
X13660016Y7386709D01*
Y7420032D01*
X13676677Y7436693D01*
X13743323D01*
X13660016Y7336725D02*
Y7303403D01*
Y7320064D01*
X13759984D01*
X13743323Y7336725D01*
X13716629Y7196678D02*
X13733290Y7180016D01*
X13766612D01*
X13783273Y7196678D01*
Y7263323D01*
X13766612Y7279984D01*
X13733290D01*
X13716629Y7263323D01*
X13616661Y7180016D02*
X13649983Y7196678D01*
X13683305Y7230000D01*
Y7263323D01*
X13666644Y7279984D01*
X13633322D01*
X13616661Y7263323D01*
Y7246661D01*
X13633322Y7230000D01*
X13683305D01*
X13583337Y7196678D02*
X13566676Y7180016D01*
X13533354D01*
X13516693Y7196678D01*
Y7263323D01*
X13533354Y7279984D01*
X13566676D01*
X13583337Y7263323D01*
Y7196678D01*
X13416725Y7279984D02*
X13483369D01*
X13416725Y7213339D01*
Y7196678D01*
X13433386Y7180016D01*
X13466708D01*
X13483369Y7196678D01*
X13709969Y7786677D02*
X13726630Y7770016D01*
X13759950D01*
X13776613Y7786677D01*
Y7853322D01*
X13759950Y7869984D01*
X13726630D01*
X13709969Y7853322D01*
X13610001Y7770016D02*
X13643323Y7786677D01*
X13676645Y7820000D01*
Y7853322D01*
X13659984Y7869984D01*
X13626662D01*
X13610001Y7853322D01*
Y7836661D01*
X13626662Y7820000D01*
X13676645D01*
X13576677Y7786677D02*
X13560016Y7770016D01*
X13526694D01*
X13510033Y7786677D01*
Y7853322D01*
X13526694Y7869984D01*
X13560016D01*
X13576677Y7853322D01*
Y7786677D01*
X13476709Y7869984D02*
X13443387D01*
X13460048D01*
Y7770016D01*
X13476709Y7786677D01*
X10899984Y10176726D02*
X10800016D01*
Y10226710D01*
X10816677Y10243371D01*
X10850000D01*
X10866661Y10226710D01*
Y10176726D01*
Y10210048D02*
X10899984Y10243371D01*
X10800016Y10343339D02*
Y10276694D01*
X10850000D01*
X10833339Y10310016D01*
Y10326678D01*
X10850000Y10343339D01*
X10883322D01*
X10899984Y10326678D01*
Y10293355D01*
X10883322Y10276694D01*
X10816677Y10376661D02*
X10800016Y10393323D01*
Y10426645D01*
X10816677Y10443307D01*
X10883322D01*
X10899984Y10426645D01*
Y10393323D01*
X10883322Y10376661D01*
X10816677D01*
Y10476629D02*
X10800016Y10493291D01*
Y10526613D01*
X10816677Y10543274D01*
X10833339D01*
X10850000Y10526613D01*
X10866661Y10543274D01*
X10883322D01*
X10899984Y10526613D01*
Y10493291D01*
X10883322Y10476629D01*
X10866661D01*
X10850000Y10493291D01*
X10833339Y10476629D01*
X10816677D01*
X10850000Y10493291D02*
Y10526613D01*
X10856726Y10410016D02*
Y10509984D01*
X10906710D01*
X10923371Y10493322D01*
Y10460000D01*
X10906710Y10443339D01*
X10856726D01*
X10890048D02*
X10923371Y10410016D01*
X11023339Y10509984D02*
X10956694D01*
Y10460000D01*
X10990016Y10476661D01*
X11006678D01*
X11023339Y10460000D01*
Y10426677D01*
X11006678Y10410016D01*
X10973355D01*
X10956694Y10426677D01*
X11056661Y10493322D02*
X11073323Y10509984D01*
X11106645D01*
X11123306Y10493322D01*
Y10426677D01*
X11106645Y10410016D01*
X11073323D01*
X11056661Y10426677D01*
Y10493322D01*
X11156629Y10509984D02*
X11223274D01*
Y10493322D01*
X11156629Y10426677D01*
Y10410016D01*
X10063323Y10768299D02*
X10079984Y10784960D01*
Y10818282D01*
X10063323Y10834944D01*
X9996677D01*
X9980016Y10818282D01*
Y10784960D01*
X9996677Y10768299D01*
X10079984Y10668331D02*
Y10734976D01*
X10030000D01*
X10046661Y10701653D01*
Y10684992D01*
X10030000Y10668331D01*
X9996677D01*
X9980016Y10684992D01*
Y10718314D01*
X9996677Y10734976D01*
X9980016Y10635008D02*
Y10601685D01*
Y10618347D01*
X10079984D01*
X10063323Y10635008D01*
X9980016Y10501718D02*
X10079984D01*
X10030000Y10551702D01*
Y10485056D01*
X10166677Y10261701D02*
X10150016Y10245040D01*
Y10211718D01*
X10166677Y10195056D01*
X10233322D01*
X10249984Y10211718D01*
Y10245040D01*
X10233322Y10261701D01*
X10150016Y10361669D02*
Y10295024D01*
X10200000D01*
X10183339Y10328347D01*
Y10345008D01*
X10200000Y10361669D01*
X10233322D01*
X10249984Y10345008D01*
Y10311685D01*
X10233322Y10295024D01*
X10249984Y10394992D02*
Y10428314D01*
Y10411653D01*
X10150016D01*
X10166677Y10394992D01*
Y10478298D02*
X10150016Y10494960D01*
Y10528282D01*
X10166677Y10544943D01*
X10183339D01*
X10200000Y10528282D01*
Y10511621D01*
Y10528282D01*
X10216661Y10544943D01*
X10233322D01*
X10249984Y10528282D01*
Y10494960D01*
X10233322Y10478298D01*
X9996677Y9901702D02*
X9980015Y9885040D01*
Y9851718D01*
X9996677Y9835057D01*
X10063322D01*
X10079983Y9851718D01*
Y9885040D01*
X10063322Y9901702D01*
X9980015Y10001669D02*
Y9935024D01*
X10029999D01*
X10013338Y9968347D01*
Y9985008D01*
X10029999Y10001669D01*
X10063322D01*
X10079983Y9985008D01*
Y9951686D01*
X10063322Y9935024D01*
X10079983Y10034992D02*
Y10068315D01*
Y10051654D01*
X9980015D01*
X9996677Y10034992D01*
X9980015Y10184944D02*
X9996677Y10151621D01*
X10029999Y10118299D01*
X10063322D01*
X10079983Y10134960D01*
Y10168282D01*
X10063322Y10184944D01*
X10046661D01*
X10029999Y10168282D01*
Y10118299D01*
X9686677Y9901702D02*
X9670015Y9885040D01*
Y9851718D01*
X9686677Y9835057D01*
X9753322D01*
X9769983Y9851718D01*
Y9885040D01*
X9753322Y9901702D01*
X9670015Y10001669D02*
Y9935024D01*
X9719999D01*
X9703338Y9968347D01*
Y9985008D01*
X9719999Y10001669D01*
X9753322D01*
X9769983Y9985008D01*
Y9951686D01*
X9753322Y9935024D01*
X9769983Y10034992D02*
Y10068315D01*
Y10051654D01*
X9670015D01*
X9686677Y10034992D01*
X9670015Y10184944D02*
Y10118299D01*
X9719999D01*
X9703338Y10151621D01*
Y10168282D01*
X9719999Y10184944D01*
X9753322D01*
X9769983Y10168282D01*
Y10134960D01*
X9753322Y10118299D01*
X8850016Y10933274D02*
X8949984D01*
Y10883290D01*
X8933322Y10866629D01*
X8900000D01*
X8883339Y10883290D01*
Y10933274D01*
Y10899951D02*
X8850016Y10866629D01*
X8949984Y10766661D02*
Y10833306D01*
X8900000D01*
X8916661Y10799983D01*
Y10783322D01*
X8900000Y10766661D01*
X8866677D01*
X8850016Y10783322D01*
Y10816645D01*
X8866677Y10833306D01*
X8933322Y10733338D02*
X8949984Y10716677D01*
Y10683354D01*
X8933322Y10666693D01*
X8866677D01*
X8850016Y10683354D01*
Y10716677D01*
X8866677Y10733338D01*
X8933322D01*
X8850016Y10566725D02*
Y10633370D01*
X8916661Y10566725D01*
X8933322D01*
X8949984Y10583387D01*
Y10616709D01*
X8933322Y10633370D01*
X8700016Y10916613D02*
X8799984D01*
Y10866629D01*
X8783323Y10849968D01*
X8750000D01*
X8733339Y10866629D01*
Y10916613D01*
Y10883290D02*
X8700016Y10849968D01*
X8799984Y10750000D02*
Y10816645D01*
X8750000D01*
X8766661Y10783323D01*
Y10766661D01*
X8750000Y10750000D01*
X8716678D01*
X8700016Y10766661D01*
Y10799984D01*
X8716678Y10816645D01*
X8783323Y10716677D02*
X8799984Y10700016D01*
Y10666693D01*
X8783323Y10650032D01*
X8716678D01*
X8700016Y10666693D01*
Y10700016D01*
X8716678Y10716677D01*
X8783323D01*
X8700016Y10616710D02*
Y10583387D01*
Y10600048D01*
X8799984D01*
X8783323Y10616710D01*
X8688371Y10195823D02*
X8671710Y10212484D01*
X8638387D01*
X8621726Y10195823D01*
Y10129178D01*
X8638387Y10112516D01*
X8671710D01*
X8688371Y10129178D01*
X8788339Y10212484D02*
X8721694D01*
Y10162500D01*
X8755016Y10179161D01*
X8771677D01*
X8788339Y10162500D01*
Y10129178D01*
X8771677Y10112516D01*
X8738355D01*
X8721694Y10129178D01*
X8821661Y10195823D02*
X8838323Y10212484D01*
X8871645D01*
X8888306Y10195823D01*
Y10129178D01*
X8871645Y10112516D01*
X8838323D01*
X8821661Y10129178D01*
Y10195823D01*
X8988274Y10212484D02*
X8954952Y10195823D01*
X8921629Y10162500D01*
Y10129178D01*
X8938290Y10112516D01*
X8971613D01*
X8988274Y10129178D01*
Y10145839D01*
X8971613Y10162500D01*
X8921629D01*
X9301629Y10251678D02*
X9318290Y10235016D01*
X9351612D01*
X9368274Y10251678D01*
Y10318323D01*
X9351612Y10334984D01*
X9318290D01*
X9301629Y10318323D01*
X9201661Y10235016D02*
X9268306D01*
Y10285000D01*
X9234983Y10268339D01*
X9218322D01*
X9201661Y10285000D01*
Y10318323D01*
X9218322Y10334984D01*
X9251644D01*
X9268306Y10318323D01*
X9168338Y10251678D02*
X9151677Y10235016D01*
X9118354D01*
X9101693Y10251678D01*
Y10318323D01*
X9118354Y10334984D01*
X9151677D01*
X9168338Y10318323D01*
Y10251678D01*
X9001725Y10235016D02*
X9068370D01*
Y10285000D01*
X9035048Y10268339D01*
X9018386D01*
X9001725Y10285000D01*
Y10318323D01*
X9018386Y10334984D01*
X9051709D01*
X9068370Y10318323D01*
X9408274Y10459983D02*
Y10360016D01*
X9358290D01*
X9341629Y10376677D01*
Y10409999D01*
X9358290Y10426661D01*
X9408274D01*
X9374952D02*
X9341629Y10459983D01*
X9241661Y10360016D02*
X9308307D01*
Y10409999D01*
X9274984Y10393338D01*
X9258323D01*
X9241661Y10409999D01*
Y10443322D01*
X9258323Y10459983D01*
X9291645D01*
X9308307Y10443322D01*
X9208339Y10376677D02*
X9191677Y10360016D01*
X9158355D01*
X9141694Y10376677D01*
Y10443322D01*
X9158355Y10459983D01*
X9191677D01*
X9208339Y10443322D01*
Y10376677D01*
X9041726Y10360016D02*
X9075048Y10376677D01*
X9108371Y10409999D01*
Y10443322D01*
X9091710Y10459983D01*
X9058387D01*
X9041726Y10443322D01*
Y10426661D01*
X9058387Y10409999D01*
X9108371D01*
X9041726Y10490016D02*
Y10589984D01*
X9091710D01*
X9108371Y10573323D01*
Y10540000D01*
X9091710Y10523339D01*
X9041726D01*
X9075048D02*
X9108371Y10490016D01*
X9208338Y10589984D02*
X9141693D01*
Y10540000D01*
X9175016Y10556661D01*
X9191677D01*
X9208338Y10540000D01*
Y10506677D01*
X9191677Y10490016D01*
X9158355D01*
X9141693Y10506677D01*
X9241661Y10573323D02*
X9258323Y10589984D01*
X9291645D01*
X9308306Y10573323D01*
Y10506677D01*
X9291645Y10490016D01*
X9258323D01*
X9241661Y10506677D01*
Y10573323D01*
X9408274Y10589984D02*
X9341629D01*
Y10540000D01*
X9374952Y10556661D01*
X9391613D01*
X9408274Y10540000D01*
Y10506677D01*
X9391613Y10490016D01*
X9358290D01*
X9341629Y10506677D01*
X9100016Y10933274D02*
X9199984D01*
Y10883290D01*
X9183323Y10866629D01*
X9150000D01*
X9133339Y10883290D01*
Y10933274D01*
Y10899951D02*
X9100016Y10866629D01*
X9199984Y10766661D02*
Y10833306D01*
X9150000D01*
X9166661Y10799983D01*
Y10783322D01*
X9150000Y10766661D01*
X9116677D01*
X9100016Y10783322D01*
Y10816645D01*
X9116677Y10833306D01*
X9183323Y10733338D02*
X9199984Y10716677D01*
Y10683354D01*
X9183323Y10666693D01*
X9116677D01*
X9100016Y10683354D01*
Y10716677D01*
X9116677Y10733338D01*
X9183323D01*
Y10633370D02*
X9199984Y10616709D01*
Y10583387D01*
X9183323Y10566725D01*
X9166661D01*
X9150000Y10583387D01*
Y10600048D01*
Y10583387D01*
X9133339Y10566725D01*
X9116677D01*
X9100016Y10583387D01*
Y10616709D01*
X9116677Y10633370D01*
X9074983Y10566726D02*
X8975016D01*
Y10616710D01*
X8991677Y10633371D01*
X9024999D01*
X9041661Y10616710D01*
Y10566726D01*
Y10600048D02*
X9074983Y10633371D01*
X8975016Y10733339D02*
Y10666694D01*
X9024999D01*
X9008338Y10700016D01*
Y10716678D01*
X9024999Y10733339D01*
X9058322D01*
X9074983Y10716678D01*
Y10683355D01*
X9058322Y10666694D01*
X8991677Y10766661D02*
X8975016Y10783323D01*
Y10816645D01*
X8991677Y10833307D01*
X9058322D01*
X9074983Y10816645D01*
Y10783323D01*
X9058322Y10766661D01*
X8991677D01*
X9074983Y10916613D02*
X8975016D01*
X9024999Y10866629D01*
Y10933274D01*
X7574984Y7308403D02*
X7475016D01*
Y7358387D01*
X7491678Y7375048D01*
X7525000D01*
X7541662Y7358387D01*
Y7308403D01*
Y7341726D02*
X7574984Y7375048D01*
Y7408371D02*
Y7441694D01*
Y7425032D01*
X7475016D01*
X7491678Y7408371D01*
X7574984Y7491677D02*
Y7525000D01*
Y7508339D01*
X7475016D01*
X7491678Y7491677D01*
Y7574984D02*
X7475016Y7591645D01*
Y7624968D01*
X7491678Y7641629D01*
X7558323D01*
X7574984Y7624968D01*
Y7591645D01*
X7558323Y7574984D01*
X7491678D01*
Y7674952D02*
X7475016Y7691613D01*
Y7724936D01*
X7491678Y7741597D01*
X7508339D01*
X7525000Y7724936D01*
Y7708274D01*
Y7724936D01*
X7541662Y7741597D01*
X7558323D01*
X7574984Y7724936D01*
Y7691613D01*
X7558323Y7674952D01*
X10282684Y3243258D02*
X10182716D01*
Y3193274D01*
X10199377Y3176613D01*
X10266022D01*
X10282684Y3193274D01*
Y3243258D01*
X10182716Y3076645D02*
Y3143290D01*
X10249361Y3076645D01*
X10266022D01*
X10282684Y3093306D01*
Y3126629D01*
X10266022Y3143290D01*
Y3043322D02*
X10282684Y3026661D01*
Y2993338D01*
X10266022Y2976677D01*
X10249361D01*
X10232700Y2993338D01*
Y3010000D01*
Y2993338D01*
X10216038Y2976677D01*
X10199377D01*
X10182716Y2993338D01*
Y3026661D01*
X10199377Y3043322D01*
X10266022Y2943355D02*
X10282684Y2926693D01*
Y2893371D01*
X10266022Y2876710D01*
X10199377D01*
X10182716Y2893371D01*
Y2926693D01*
X10199377Y2943355D01*
X10266022D01*
X10182716Y2793403D02*
X10282684D01*
X10232700Y2843387D01*
Y2776742D01*
X6701734Y3029984D02*
Y2930016D01*
X6751718D01*
X6768379Y2946677D01*
Y3013322D01*
X6751718Y3029984D01*
X6701734D01*
X6801702Y2930016D02*
X6835024D01*
X6818363D01*
Y3029984D01*
X6801702Y3013322D01*
X6885008Y2946677D02*
X6901669Y2930016D01*
X6934992D01*
X6951653Y2946677D01*
Y3013322D01*
X6934992Y3029984D01*
X6901669D01*
X6885008Y3013322D01*
Y2996661D01*
X6901669Y2980000D01*
X6951653D01*
X6984976Y3013322D02*
X7001637Y3029984D01*
X7034960D01*
X7051621Y3013322D01*
Y2946677D01*
X7034960Y2930016D01*
X7001637D01*
X6984976Y2946677D01*
Y3013322D01*
X7084944Y2930016D02*
X7118266D01*
X7101605D01*
Y3029984D01*
X7084944Y3013322D01*
X6433379Y7308322D02*
X6416718Y7324984D01*
X6383395D01*
X6366734Y7308322D01*
Y7241677D01*
X6383395Y7225016D01*
X6416718D01*
X6433379Y7241677D01*
X6466702Y7225016D02*
X6500024D01*
X6483363D01*
Y7324984D01*
X6466702Y7308322D01*
X6616653Y7225016D02*
X6550008D01*
X6616653Y7291661D01*
Y7308322D01*
X6599992Y7324984D01*
X6566670D01*
X6550008Y7308322D01*
X6649976D02*
X6666637Y7324984D01*
X6699960D01*
X6716621Y7308322D01*
Y7241677D01*
X6699960Y7225016D01*
X6666637D01*
X6649976Y7241677D01*
Y7308322D01*
X6749944Y7225016D02*
X6783266D01*
X6766605D01*
Y7324984D01*
X6749944Y7308322D01*
X6350073Y7075016D02*
Y7174984D01*
X6400057D01*
X6416718Y7158322D01*
Y7125000D01*
X6400057Y7108339D01*
X6350073D01*
X6383395D02*
X6416718Y7075016D01*
X6450040D02*
X6483363D01*
X6466702D01*
Y7174984D01*
X6450040Y7158322D01*
X6599992Y7075016D02*
X6533347D01*
X6599992Y7141661D01*
Y7158322D01*
X6583331Y7174984D01*
X6550008D01*
X6533347Y7158322D01*
X6633315D02*
X6649976Y7174984D01*
X6683299D01*
X6699960Y7158322D01*
Y7091677D01*
X6683299Y7075016D01*
X6649976D01*
X6633315Y7091677D01*
Y7158322D01*
X6799927Y7075016D02*
X6733282D01*
X6799927Y7141661D01*
Y7158322D01*
X6783266Y7174984D01*
X6749944D01*
X6733282Y7158322D01*
X6781066Y7034984D02*
Y6935016D01*
X6731082D01*
X6714421Y6951677D01*
Y6985000D01*
X6731082Y7001661D01*
X6781066D01*
X6747743D02*
X6714421Y7034984D01*
X6681098D02*
X6647776D01*
X6664437D01*
Y6935016D01*
X6681098Y6951677D01*
X6531147Y7034984D02*
X6597792D01*
X6531147Y6968339D01*
Y6951677D01*
X6547808Y6935016D01*
X6581130D01*
X6597792Y6951677D01*
X6497824D02*
X6481163Y6935016D01*
X6447840D01*
X6431179Y6951677D01*
Y7018322D01*
X6447840Y7034984D01*
X6481163D01*
X6497824Y7018322D01*
Y6951677D01*
X6397856Y7034984D02*
X6364534D01*
X6381195D01*
Y6935016D01*
X6397856Y6951677D01*
X7226613Y6206677D02*
X7243274Y6190016D01*
X7276596D01*
X7293258Y6206677D01*
Y6273322D01*
X7276596Y6289984D01*
X7243274D01*
X7226613Y6273322D01*
X7126645Y6289984D02*
X7193290D01*
X7126645Y6223339D01*
Y6206677D01*
X7143306Y6190016D01*
X7176629D01*
X7193290Y6206677D01*
X7093322D02*
X7076661Y6190016D01*
X7043338D01*
X7026677Y6206677D01*
Y6273322D01*
X7043338Y6289984D01*
X7076661D01*
X7093322Y6273322D01*
Y6206677D01*
X6993354D02*
X6976693Y6190016D01*
X6943370D01*
X6926709Y6206677D01*
Y6273322D01*
X6943370Y6289984D01*
X6976693D01*
X6993354Y6273322D01*
Y6206677D01*
X6893387D02*
X6876725Y6190016D01*
X6843403D01*
X6826741Y6206677D01*
Y6223339D01*
X6843403Y6240000D01*
X6860064D01*
X6843403D01*
X6826741Y6256661D01*
Y6273322D01*
X6843403Y6289984D01*
X6876725D01*
X6893387Y6273322D01*
X7176613Y6866677D02*
X7193274Y6850016D01*
X7226597D01*
X7243258Y6866677D01*
Y6933322D01*
X7226597Y6949983D01*
X7193274D01*
X7176613Y6933322D01*
X7076645Y6949983D02*
X7143290D01*
X7076645Y6883338D01*
Y6866677D01*
X7093306Y6850016D01*
X7126629D01*
X7143290Y6866677D01*
X7043322D02*
X7026661Y6850016D01*
X6993339D01*
X6976677Y6866677D01*
Y6933322D01*
X6993339Y6949983D01*
X7026661D01*
X7043322Y6933322D01*
Y6866677D01*
X6943355D02*
X6926693Y6850016D01*
X6893371D01*
X6876710Y6866677D01*
Y6933322D01*
X6893371Y6949983D01*
X6926693D01*
X6943355Y6933322D01*
Y6866677D01*
X6776742Y6850016D02*
X6810064Y6866677D01*
X6843387Y6899999D01*
Y6933322D01*
X6826725Y6949983D01*
X6793403D01*
X6776742Y6933322D01*
Y6916661D01*
X6793403Y6899999D01*
X6843387D01*
X7060016Y4705072D02*
X7159983D01*
Y4755056D01*
X7143322Y4771717D01*
X7076677D01*
X7060016Y4755056D01*
Y4705072D01*
X7159983Y4805040D02*
Y4838363D01*
Y4821702D01*
X7060016D01*
X7076677Y4805040D01*
X7060016Y4954992D02*
Y4888347D01*
X7109999D01*
X7093338Y4921669D01*
Y4938330D01*
X7109999Y4954992D01*
X7143322D01*
X7159983Y4938330D01*
Y4905008D01*
X7143322Y4888347D01*
X7076677Y4988314D02*
X7060016Y5004976D01*
Y5038298D01*
X7076677Y5054959D01*
X7143322D01*
X7159983Y5038298D01*
Y5004976D01*
X7143322Y4988314D01*
X7076677D01*
Y5088282D02*
X7060016Y5104944D01*
Y5138266D01*
X7076677Y5154927D01*
X7093338D01*
X7109999Y5138266D01*
Y5121605D01*
Y5138266D01*
X7126661Y5154927D01*
X7143322D01*
X7159983Y5138266D01*
Y5104944D01*
X7143322Y5088282D01*
X7060016Y4935072D02*
X7159984D01*
Y4985056D01*
X7143322Y5001717D01*
X7076677D01*
X7060016Y4985056D01*
Y4935072D01*
X7159984Y5035040D02*
Y5068363D01*
Y5051702D01*
X7060016D01*
X7076677Y5035040D01*
X7060016Y5184992D02*
Y5118347D01*
X7110000D01*
X7093339Y5151669D01*
Y5168331D01*
X7110000Y5184992D01*
X7143322D01*
X7159984Y5168331D01*
Y5135008D01*
X7143322Y5118347D01*
X7076677Y5218314D02*
X7060016Y5234976D01*
Y5268298D01*
X7076677Y5284959D01*
X7143322D01*
X7159984Y5268298D01*
Y5234976D01*
X7143322Y5218314D01*
X7076677D01*
X7159984Y5384927D02*
Y5318282D01*
X7093339Y5384927D01*
X7076677D01*
X7060016Y5368266D01*
Y5334944D01*
X7076677Y5318282D01*
X7159984Y5648266D02*
X7060016D01*
Y5598282D01*
X7076677Y5581621D01*
X7143323D01*
X7159984Y5598282D01*
Y5648266D01*
X7060016Y5548298D02*
Y5514976D01*
Y5531637D01*
X7159984D01*
X7143323Y5548298D01*
X7159984Y5398347D02*
Y5464992D01*
X7110000D01*
X7126661Y5431669D01*
Y5415008D01*
X7110000Y5398347D01*
X7076677D01*
X7060016Y5415008D01*
Y5448330D01*
X7076677Y5464992D01*
X7143323Y5365024D02*
X7159984Y5348363D01*
Y5315040D01*
X7143323Y5298379D01*
X7076677D01*
X7060016Y5315040D01*
Y5348363D01*
X7076677Y5365024D01*
X7143323D01*
X7060016Y5265056D02*
Y5231734D01*
Y5248395D01*
X7159984D01*
X7143323Y5265056D01*
X13079984Y4924927D02*
X12980016D01*
Y4874944D01*
X12996678Y4858282D01*
X13063322D01*
X13079984Y4874944D01*
Y4924927D01*
X12980016Y4824960D02*
Y4791637D01*
Y4808298D01*
X13079984D01*
X13063322Y4824960D01*
X13079984Y4741653D02*
Y4675008D01*
X13063322D01*
X12996678Y4741653D01*
X12980016D01*
X13063322Y4641685D02*
X13079984Y4625024D01*
Y4591702D01*
X13063322Y4575040D01*
X12996678D01*
X12980016Y4591702D01*
Y4625024D01*
X12996678Y4641685D01*
X13063322D01*
X12980016Y4475073D02*
Y4541718D01*
X13046661Y4475073D01*
X13063322D01*
X13079984Y4491734D01*
Y4525056D01*
X13063322Y4541718D01*
X12980016Y4171734D02*
X13079984D01*
Y4221718D01*
X13063322Y4238379D01*
X12996678D01*
X12980016Y4221718D01*
Y4171734D01*
X13079984Y4271702D02*
Y4305024D01*
Y4288363D01*
X12980016D01*
X12996678Y4271702D01*
X12980016Y4355008D02*
Y4421653D01*
X12996678D01*
X13063322Y4355008D01*
X13079984D01*
X12996678Y4454976D02*
X12980016Y4471637D01*
Y4504960D01*
X12996678Y4521621D01*
X13063322D01*
X13079984Y4504960D01*
Y4471637D01*
X13063322Y4454976D01*
X12996678D01*
X13079984Y4554944D02*
Y4588266D01*
Y4571605D01*
X12980016D01*
X12996678Y4554944D01*
X12960016Y4971734D02*
X13059984D01*
Y5021718D01*
X13043323Y5038379D01*
X12976677D01*
X12960016Y5021718D01*
Y4971734D01*
X13059984Y5071702D02*
Y5105024D01*
Y5088363D01*
X12960016D01*
X12976677Y5071702D01*
X12960016Y5221653D02*
X12976677Y5188330D01*
X13010001Y5155008D01*
X13043323D01*
X13059984Y5171669D01*
Y5204992D01*
X13043323Y5221653D01*
X13026662D01*
X13010001Y5204992D01*
Y5155008D01*
X12976677Y5254976D02*
X12960016Y5271637D01*
Y5304960D01*
X12976677Y5321621D01*
X13043323D01*
X13059984Y5304960D01*
Y5271637D01*
X13043323Y5254976D01*
X12976677D01*
X13059984Y5354944D02*
Y5388266D01*
Y5371605D01*
X12960016D01*
X12976677Y5354944D01*
X13059984Y5664927D02*
X12960016D01*
Y5614943D01*
X12976678Y5598282D01*
X13043323D01*
X13059984Y5614943D01*
Y5664927D01*
X12960016Y5564959D02*
Y5531637D01*
Y5548298D01*
X13059984D01*
X13043323Y5564959D01*
X13059984Y5415008D02*
X13043323Y5448330D01*
X13010001Y5481653D01*
X12976678D01*
X12960016Y5464992D01*
Y5431669D01*
X12976678Y5415008D01*
X12993340D01*
X13010001Y5431669D01*
Y5481653D01*
X13043323Y5381685D02*
X13059984Y5365024D01*
Y5331701D01*
X13043323Y5315040D01*
X12976678D01*
X12960016Y5331701D01*
Y5365024D01*
X12976678Y5381685D01*
X13043323D01*
X12960016Y5215072D02*
Y5281717D01*
X13026662Y5215072D01*
X13043323D01*
X13059984Y5231734D01*
Y5265056D01*
X13043323Y5281717D01*
X13716629Y6966677D02*
X13733290Y6950016D01*
X13766612D01*
X13783273Y6966677D01*
Y7033322D01*
X13766612Y7049984D01*
X13733290D01*
X13716629Y7033322D01*
X13616661Y6950016D02*
X13649983Y6966677D01*
X13683305Y7000000D01*
Y7033322D01*
X13666644Y7049984D01*
X13633322D01*
X13616661Y7033322D01*
Y7016661D01*
X13633322Y7000000D01*
X13683305D01*
X13583337Y6966677D02*
X13566676Y6950016D01*
X13533354D01*
X13516693Y6966677D01*
Y7033322D01*
X13533354Y7049984D01*
X13566676D01*
X13583337Y7033322D01*
Y6966677D01*
X13483369D02*
X13466708Y6950016D01*
X13433386D01*
X13416725Y6966677D01*
Y6983339D01*
X13433386Y7000000D01*
X13450047D01*
X13433386D01*
X13416725Y7016661D01*
Y7033322D01*
X13433386Y7049984D01*
X13466708D01*
X13483369Y7033322D01*
X13696629Y6366677D02*
X13713290Y6350015D01*
X13746613D01*
X13763274Y6366677D01*
Y6433322D01*
X13746613Y6449983D01*
X13713290D01*
X13696629Y6433322D01*
X13596661Y6350015D02*
X13629984Y6366677D01*
X13663306Y6399999D01*
Y6433322D01*
X13646645Y6449983D01*
X13613322D01*
X13596661Y6433322D01*
Y6416661D01*
X13613322Y6399999D01*
X13663306D01*
X13563338Y6366677D02*
X13546677Y6350015D01*
X13513354D01*
X13496693Y6366677D01*
Y6433322D01*
X13513354Y6449983D01*
X13546677D01*
X13563338Y6433322D01*
Y6366677D01*
X13396725Y6350015D02*
X13463370D01*
Y6399999D01*
X13430048Y6383338D01*
X13413387D01*
X13396725Y6399999D01*
Y6433322D01*
X13413387Y6449983D01*
X13446709D01*
X13463370Y6433322D01*
X13393323Y6766629D02*
X13409984Y6783290D01*
Y6816613D01*
X13393323Y6833274D01*
X13326677D01*
X13310016Y6816613D01*
Y6783290D01*
X13326677Y6766629D01*
X13409984Y6666661D02*
X13393323Y6699984D01*
X13360001Y6733306D01*
X13326677D01*
X13310016Y6716645D01*
Y6683322D01*
X13326677Y6666661D01*
X13343340D01*
X13360001Y6683322D01*
Y6733306D01*
X13393323Y6633339D02*
X13409984Y6616677D01*
Y6583355D01*
X13393323Y6566693D01*
X13326677D01*
X13310016Y6583355D01*
Y6616677D01*
X13326677Y6633339D01*
X13393323D01*
X13310016Y6483387D02*
X13409984D01*
X13360001Y6533371D01*
Y6466726D01*
X12783322Y10458298D02*
X12799984Y10474959D01*
Y10508281D01*
X12783322Y10524943D01*
X12716677D01*
X12700016Y10508281D01*
Y10474959D01*
X12716677Y10458298D01*
X12799984Y10358330D02*
Y10424975D01*
X12750000D01*
X12766661Y10391653D01*
Y10374991D01*
X12750000Y10358330D01*
X12716677D01*
X12700016Y10374991D01*
Y10408314D01*
X12716677Y10424975D01*
X12700016Y10325007D02*
Y10291685D01*
Y10308346D01*
X12799984D01*
X12783322Y10325007D01*
Y10241701D02*
X12799984Y10225039D01*
Y10191717D01*
X12783322Y10175056D01*
X12766661D01*
X12750000Y10191717D01*
X12733339Y10175056D01*
X12716677D01*
X12700016Y10191717D01*
Y10225039D01*
X12716677Y10241701D01*
X12733339D01*
X12750000Y10225039D01*
X12766661Y10241701D01*
X12783322D01*
X12750000Y10225039D02*
Y10191717D01*
X11624984Y7366726D02*
X11525016D01*
Y7416710D01*
X11541677Y7433371D01*
X11575000D01*
X11591661Y7416710D01*
Y7366726D01*
Y7400049D02*
X11624984Y7433371D01*
X11608322Y7466694D02*
X11624984Y7483355D01*
Y7516678D01*
X11608322Y7533339D01*
X11541677D01*
X11525016Y7516678D01*
Y7483355D01*
X11541677Y7466694D01*
X11558339D01*
X11575000Y7483355D01*
Y7533339D01*
X11541677Y7566662D02*
X11525016Y7583323D01*
Y7616646D01*
X11541677Y7633307D01*
X11608322D01*
X11624984Y7616646D01*
Y7583323D01*
X11608322Y7566662D01*
X11541677D01*
Y7666630D02*
X11525016Y7683291D01*
Y7716613D01*
X11541677Y7733275D01*
X11558339D01*
X11575000Y7716613D01*
Y7699952D01*
Y7716613D01*
X11591661Y7733275D01*
X11608322D01*
X11624984Y7716613D01*
Y7683291D01*
X11608322Y7666630D01*
X7225016Y6570653D02*
X7324984D01*
Y6620637D01*
X7308322Y6637298D01*
X7241677D01*
X7225016Y6620637D01*
Y6570653D01*
X7324984Y6737266D02*
Y6670621D01*
X7258339Y6737266D01*
X7241677D01*
X7225016Y6720605D01*
Y6687282D01*
X7241677Y6670621D01*
Y6770589D02*
X7225016Y6787250D01*
Y6820573D01*
X7241677Y6837234D01*
X7308322D01*
X7324984Y6820573D01*
Y6787250D01*
X7308322Y6770589D01*
X7241677D01*
Y6870556D02*
X7225016Y6887218D01*
Y6920540D01*
X7241677Y6937202D01*
X7308322D01*
X7324984Y6920540D01*
Y6887218D01*
X7308322Y6870556D01*
X7241677D01*
X7324984Y6970524D02*
Y7003847D01*
Y6987186D01*
X7225016D01*
X7241677Y6970524D01*
X8634951Y7616678D02*
X8651612Y7600016D01*
X8684935D01*
X8701596Y7616678D01*
Y7683323D01*
X8684935Y7699984D01*
X8651612D01*
X8634951Y7683323D01*
X8601628Y7699984D02*
X8568306D01*
X8584967D01*
Y7600016D01*
X8601628Y7616678D01*
X8518322Y7699984D02*
X8485000D01*
X8501661D01*
Y7600016D01*
X8518322Y7616678D01*
X8435016D02*
X8418354Y7600016D01*
X8385032D01*
X8368371Y7616678D01*
Y7683323D01*
X8385032Y7699984D01*
X8418354D01*
X8435016Y7683323D01*
Y7616678D01*
X8285064Y7699984D02*
Y7600016D01*
X8335048Y7650000D01*
X8268403D01*
X7875048Y7713322D02*
X7858387Y7729984D01*
X7825065D01*
X7808403Y7713322D01*
Y7646677D01*
X7825065Y7630016D01*
X7858387D01*
X7875048Y7646677D01*
X7908371Y7630016D02*
X7941694D01*
X7925032D01*
Y7729984D01*
X7908371Y7713322D01*
X7991677Y7630016D02*
X8025000D01*
X8008339D01*
Y7729984D01*
X7991677Y7713322D01*
X8074984D02*
X8091645Y7729984D01*
X8124968D01*
X8141629Y7713322D01*
Y7646677D01*
X8124968Y7630016D01*
X8091645D01*
X8074984Y7646677D01*
Y7713322D01*
X8174952D02*
X8191613Y7729984D01*
X8224936D01*
X8241597Y7713322D01*
Y7696661D01*
X8224936Y7680000D01*
X8208274D01*
X8224936D01*
X8241597Y7663338D01*
Y7646677D01*
X8224936Y7630016D01*
X8191613D01*
X8174952Y7646677D01*
X12741630Y7616678D02*
X12758291Y7600016D01*
X12791613D01*
X12808275Y7616678D01*
Y7683323D01*
X12791613Y7699984D01*
X12758291D01*
X12741630Y7683323D01*
X12708307D02*
X12691645Y7699984D01*
X12658323D01*
X12641662Y7683323D01*
Y7616678D01*
X12658323Y7600016D01*
X12691645D01*
X12708307Y7616678D01*
Y7633339D01*
X12691645Y7650000D01*
X12641662D01*
X12608339Y7616678D02*
X12591678Y7600016D01*
X12558355D01*
X12541694Y7616678D01*
Y7683323D01*
X12558355Y7699984D01*
X12591678D01*
X12608339Y7683323D01*
Y7616678D01*
X12458387Y7699984D02*
Y7600016D01*
X12508371Y7650000D01*
X12441726D01*
X13008324Y7791621D02*
X13024985Y7808282D01*
Y7841605D01*
X13008324Y7858266D01*
X12941678D01*
X12925017Y7841605D01*
Y7808282D01*
X12941678Y7791621D01*
X12925017Y7758298D02*
Y7724976D01*
Y7741637D01*
X13024985D01*
X13008324Y7758298D01*
Y7674992D02*
X13024985Y7658331D01*
Y7625008D01*
X13008324Y7608347D01*
X12991663D01*
X12975002Y7625008D01*
Y7641670D01*
Y7625008D01*
X12958339Y7608347D01*
X12941678D01*
X12925017Y7625008D01*
Y7658331D01*
X12941678Y7674992D01*
X13008324Y7575024D02*
X13024985Y7558363D01*
Y7525040D01*
X13008324Y7508379D01*
X12941678D01*
X12925017Y7525040D01*
Y7558363D01*
X12941678Y7575024D01*
X13008324D01*
X12925017Y7475056D02*
Y7441734D01*
Y7458395D01*
X13024985D01*
X13008324Y7475056D01*
X12960016Y8203274D02*
X13059984D01*
Y8153290D01*
X13043323Y8136629D01*
X13010001D01*
X12993340Y8153290D01*
Y8203274D01*
Y8169951D02*
X12960016Y8136629D01*
X12976677Y8103306D02*
X12960016Y8086644D01*
Y8053322D01*
X12976677Y8036661D01*
X13043323D01*
X13059984Y8053322D01*
Y8086644D01*
X13043323Y8103306D01*
X13026662D01*
X13010001Y8086644D01*
Y8036661D01*
X13043323Y8003338D02*
X13059984Y7986677D01*
Y7953354D01*
X13043323Y7936693D01*
X12976677D01*
X12960016Y7953354D01*
Y7986677D01*
X12976677Y8003338D01*
X13043323D01*
X12960016Y7853386D02*
X13059984D01*
X13010001Y7903370D01*
Y7836725D01*
X13033324Y8499968D02*
X13049985Y8516629D01*
Y8549952D01*
X13033324Y8566613D01*
X12966678D01*
X12950017Y8549952D01*
Y8516629D01*
X12966678Y8499968D01*
Y8466645D02*
X12950017Y8449984D01*
Y8416661D01*
X12966678Y8400000D01*
X13033324D01*
X13049985Y8416661D01*
Y8449984D01*
X13033324Y8466645D01*
X13016663D01*
X13000000Y8449984D01*
Y8400000D01*
X13033324Y8366677D02*
X13049985Y8350016D01*
Y8316694D01*
X13033324Y8300032D01*
X12966678D01*
X12950017Y8316694D01*
Y8350016D01*
X12966678Y8366677D01*
X13033324D01*
X12950017Y8266710D02*
Y8233387D01*
Y8250048D01*
X13049985D01*
X13033324Y8266710D01*
X12033371Y7733323D02*
X12016710Y7749984D01*
X11983388D01*
X11966726Y7733323D01*
Y7666678D01*
X11983388Y7650016D01*
X12016710D01*
X12033371Y7666678D01*
X12066694D02*
X12083355Y7650016D01*
X12116678D01*
X12133339Y7666678D01*
Y7733323D01*
X12116678Y7749984D01*
X12083355D01*
X12066694Y7733323D01*
Y7716661D01*
X12083355Y7700000D01*
X12133339D01*
X12166662Y7733323D02*
X12183323Y7749984D01*
X12216646D01*
X12233307Y7733323D01*
Y7666678D01*
X12216646Y7650016D01*
X12183323D01*
X12166662Y7666678D01*
Y7733323D01*
X12266630D02*
X12283291Y7749984D01*
X12316613D01*
X12333275Y7733323D01*
Y7716661D01*
X12316613Y7700000D01*
X12299952D01*
X12316613D01*
X12333275Y7683339D01*
Y7666678D01*
X12316613Y7650016D01*
X12283291D01*
X12266630Y7666678D01*
X11374984Y8241726D02*
X11275016D01*
Y8291710D01*
X11291678Y8308371D01*
X11325000D01*
X11341662Y8291710D01*
Y8241726D01*
Y8275048D02*
X11374984Y8308371D01*
X11358323Y8341694D02*
X11374984Y8358355D01*
Y8391677D01*
X11358323Y8408339D01*
X11291678D01*
X11275016Y8391677D01*
Y8358355D01*
X11291678Y8341694D01*
X11308339D01*
X11325000Y8358355D01*
Y8408339D01*
X11291678Y8441661D02*
X11275016Y8458323D01*
Y8491645D01*
X11291678Y8508306D01*
X11358323D01*
X11374984Y8491645D01*
Y8458323D01*
X11358323Y8441661D01*
X11291678D01*
X11275016Y8608274D02*
Y8541629D01*
X11325000D01*
X11308339Y8574952D01*
Y8591613D01*
X11325000Y8608274D01*
X11358323D01*
X11374984Y8591613D01*
Y8558290D01*
X11358323Y8541629D01*
X11291678Y7933371D02*
X11275016Y7916710D01*
Y7883387D01*
X11291678Y7866726D01*
X11358323D01*
X11374984Y7883387D01*
Y7916710D01*
X11358323Y7933371D01*
Y7966693D02*
X11374984Y7983355D01*
Y8016677D01*
X11358323Y8033339D01*
X11291678D01*
X11275016Y8016677D01*
Y7983355D01*
X11291678Y7966693D01*
X11308339D01*
X11325000Y7983355D01*
Y8033339D01*
X11291678Y8066661D02*
X11275016Y8083323D01*
Y8116645D01*
X11291678Y8133306D01*
X11358323D01*
X11374984Y8116645D01*
Y8083323D01*
X11358323Y8066661D01*
X11291678D01*
X11374984Y8233274D02*
Y8166629D01*
X11308339Y8233274D01*
X11291678D01*
X11275016Y8216613D01*
Y8183290D01*
X11291678Y8166629D01*
X10774984Y7350073D02*
X10675016D01*
Y7400057D01*
X10691678Y7416718D01*
X10725000D01*
X10741662Y7400057D01*
Y7350073D01*
Y7383396D02*
X10774984Y7416718D01*
Y7450041D02*
Y7483363D01*
Y7466702D01*
X10675016D01*
X10691678Y7450041D01*
Y7533347D02*
X10675016Y7550009D01*
Y7583331D01*
X10691678Y7599992D01*
X10758323D01*
X10774984Y7583331D01*
Y7550009D01*
X10758323Y7533347D01*
X10691678D01*
Y7633315D02*
X10675016Y7649977D01*
Y7683299D01*
X10691678Y7699960D01*
X10758323D01*
X10774984Y7683299D01*
Y7649977D01*
X10758323Y7633315D01*
X10691678D01*
Y7733283D02*
X10675016Y7749944D01*
Y7783267D01*
X10691678Y7799928D01*
X10708339D01*
X10725000Y7783267D01*
Y7766605D01*
Y7783267D01*
X10741662Y7799928D01*
X10758323D01*
X10774984Y7783267D01*
Y7749944D01*
X10758323Y7733283D01*
X9316718Y7708323D02*
X9300057Y7724984D01*
X9266734D01*
X9250073Y7708323D01*
Y7641678D01*
X9266734Y7625016D01*
X9300057D01*
X9316718Y7641678D01*
X9350041Y7625016D02*
X9383363D01*
X9366702D01*
Y7724984D01*
X9350041Y7708323D01*
X9433347D02*
X9450009Y7724984D01*
X9483331D01*
X9499992Y7708323D01*
Y7641678D01*
X9483331Y7625016D01*
X9450009D01*
X9433347Y7641678D01*
Y7708323D01*
X9533315D02*
X9549976Y7724984D01*
X9583299D01*
X9599960Y7708323D01*
Y7641678D01*
X9583299Y7625016D01*
X9549976D01*
X9533315Y7641678D01*
Y7708323D01*
X9683267Y7625016D02*
Y7724984D01*
X9633283Y7675000D01*
X9699928D01*
X10066678Y7916718D02*
X10050016Y7900057D01*
Y7866734D01*
X10066678Y7850073D01*
X10133323D01*
X10149984Y7866734D01*
Y7900057D01*
X10133323Y7916718D01*
X10149984Y7950040D02*
Y7983363D01*
Y7966702D01*
X10050016D01*
X10066678Y7950040D01*
Y8033347D02*
X10050016Y8050008D01*
Y8083331D01*
X10066678Y8099992D01*
X10133323D01*
X10149984Y8083331D01*
Y8050008D01*
X10133323Y8033347D01*
X10066678D01*
Y8133315D02*
X10050016Y8149976D01*
Y8183299D01*
X10066678Y8199960D01*
X10133323D01*
X10149984Y8183299D01*
Y8149976D01*
X10133323Y8133315D01*
X10066678D01*
X10149984Y8299928D02*
Y8233282D01*
X10083339Y8299928D01*
X10066678D01*
X10050016Y8283266D01*
Y8249944D01*
X10066678Y8233282D01*
X10108282Y7616678D02*
X10124943Y7600016D01*
X10158266D01*
X10174927Y7616678D01*
Y7683323D01*
X10158266Y7699984D01*
X10124943D01*
X10108282Y7683323D01*
X10074960Y7699984D02*
X10041637D01*
X10058298D01*
Y7600016D01*
X10074960Y7616678D01*
X9991653D02*
X9974992Y7600016D01*
X9941669D01*
X9925008Y7616678D01*
Y7683323D01*
X9941669Y7699984D01*
X9974992D01*
X9991653Y7683323D01*
Y7616678D01*
X9891685D02*
X9875024Y7600016D01*
X9841701D01*
X9825040Y7616678D01*
Y7683323D01*
X9841701Y7699984D01*
X9875024D01*
X9891685Y7683323D01*
Y7616678D01*
X9791718D02*
X9775056Y7600016D01*
X9741734D01*
X9725072Y7616678D01*
Y7633339D01*
X9741734Y7650000D01*
X9758395D01*
X9741734D01*
X9725072Y7666662D01*
Y7683323D01*
X9741734Y7699984D01*
X9775056D01*
X9791718Y7683323D01*
X8908323Y8558291D02*
X8924984Y8574952D01*
Y8608274D01*
X8908323Y8624936D01*
X8841678D01*
X8825016Y8608274D01*
Y8574952D01*
X8841678Y8558291D01*
X8825016Y8524968D02*
Y8491645D01*
Y8508307D01*
X8924984D01*
X8908323Y8524968D01*
X8825016Y8441662D02*
Y8408339D01*
Y8425000D01*
X8924984D01*
X8908323Y8441662D01*
Y8358355D02*
X8924984Y8341694D01*
Y8308371D01*
X8908323Y8291710D01*
X8841678D01*
X8825016Y8308371D01*
Y8341694D01*
X8841678Y8358355D01*
X8908323D01*
X8825016Y8258387D02*
Y8225065D01*
Y8241726D01*
X8924984D01*
X8908323Y8258387D01*
X9208323Y8566621D02*
X9224984Y8583283D01*
Y8616605D01*
X9208323Y8633266D01*
X9141678D01*
X9125017Y8616605D01*
Y8583283D01*
X9141678Y8566621D01*
X9125017Y8533299D02*
Y8499976D01*
Y8516637D01*
X9224984D01*
X9208323Y8533299D01*
Y8449992D02*
X9224984Y8433331D01*
Y8400008D01*
X9208323Y8383347D01*
X9141678D01*
X9125017Y8400008D01*
Y8433331D01*
X9141678Y8449992D01*
X9208323D01*
Y8350024D02*
X9224984Y8333363D01*
Y8300041D01*
X9208323Y8283379D01*
X9141678D01*
X9125017Y8300041D01*
Y8333363D01*
X9141678Y8350024D01*
X9208323D01*
X9125017Y8250057D02*
Y8216734D01*
Y8233395D01*
X9224984D01*
X9208323Y8250057D01*
X8825017Y8266597D02*
X8924984D01*
Y8216613D01*
X8908323Y8199952D01*
X8875001D01*
X8858339Y8216613D01*
Y8266597D01*
Y8233274D02*
X8825017Y8199952D01*
Y8166629D02*
Y8133307D01*
Y8149968D01*
X8924984D01*
X8908323Y8166629D01*
X8825017Y8083323D02*
Y8050000D01*
Y8066661D01*
X8924984D01*
X8908323Y8083323D01*
Y8000016D02*
X8924984Y7983355D01*
Y7950032D01*
X8908323Y7933371D01*
X8841678D01*
X8825017Y7950032D01*
Y7983355D01*
X8841678Y8000016D01*
X8908323D01*
X8825017Y7850065D02*
X8924984D01*
X8875001Y7900048D01*
Y7833403D01*
X9125017Y8274928D02*
X9224984D01*
Y8224944D01*
X9208323Y8208283D01*
X9175000D01*
X9158339Y8224944D01*
Y8274928D01*
Y8241605D02*
X9125017Y8208283D01*
Y8174960D02*
Y8141638D01*
Y8158299D01*
X9224984D01*
X9208323Y8174960D01*
Y8091654D02*
X9224984Y8074992D01*
Y8041670D01*
X9208323Y8025009D01*
X9141678D01*
X9125017Y8041670D01*
Y8074992D01*
X9141678Y8091654D01*
X9208323D01*
Y7991686D02*
X9224984Y7975024D01*
Y7941702D01*
X9208323Y7925041D01*
X9141678D01*
X9125017Y7941702D01*
Y7975024D01*
X9141678Y7991686D01*
X9208323D01*
X9125017Y7841734D02*
X9224984D01*
X9175000Y7891718D01*
Y7825073D01*
X10149984Y8225073D02*
X10050016D01*
Y8275057D01*
X10066678Y8291718D01*
X10100000D01*
X10116662Y8275057D01*
Y8225073D01*
Y8258395D02*
X10149984Y8291718D01*
Y8325040D02*
Y8358363D01*
Y8341702D01*
X10050016D01*
X10066678Y8325040D01*
Y8408347D02*
X10050016Y8425008D01*
Y8458331D01*
X10066678Y8474992D01*
X10133323D01*
X10149984Y8458331D01*
Y8425008D01*
X10133323Y8408347D01*
X10066678D01*
Y8508315D02*
X10050016Y8524976D01*
Y8558299D01*
X10066678Y8574960D01*
X10133323D01*
X10149984Y8558299D01*
Y8524976D01*
X10133323Y8508315D01*
X10066678D01*
X10050016Y8674928D02*
Y8608283D01*
X10100000D01*
X10083339Y8641605D01*
Y8658266D01*
X10100000Y8674928D01*
X10133323D01*
X10149984Y8658266D01*
Y8624944D01*
X10133323Y8608283D01*
X8549984Y6550065D02*
X8450016D01*
Y6600049D01*
X8466678Y6616710D01*
X8500000D01*
X8516661Y6600049D01*
Y6550065D01*
Y6583387D02*
X8549984Y6616710D01*
Y6650033D02*
Y6683355D01*
Y6666694D01*
X8450016D01*
X8466678Y6650033D01*
X8549984Y6733339D02*
Y6766662D01*
Y6750000D01*
X8450016D01*
X8466678Y6733339D01*
Y6816645D02*
X8450016Y6833307D01*
Y6866629D01*
X8466678Y6883291D01*
X8533323D01*
X8549984Y6866629D01*
Y6833307D01*
X8533323Y6816645D01*
X8466678D01*
X8549984Y6916613D02*
Y6949936D01*
Y6933275D01*
X8450016D01*
X8466678Y6916613D01*
X8081784Y6560804D02*
X7981816D01*
Y6610788D01*
X7998478Y6627449D01*
X8031800D01*
X8048462Y6610788D01*
Y6560804D01*
Y6594126D02*
X8081784Y6627449D01*
Y6660772D02*
Y6694094D01*
Y6677433D01*
X7981816D01*
X7998478Y6660772D01*
X8081784Y6744078D02*
Y6777400D01*
Y6760739D01*
X7981816D01*
X7998478Y6744078D01*
Y6827384D02*
X7981816Y6844046D01*
Y6877368D01*
X7998478Y6894029D01*
X8065123D01*
X8081784Y6877368D01*
Y6844046D01*
X8065123Y6827384D01*
X7998478D01*
X8081784Y6993997D02*
Y6927352D01*
X8015139Y6993997D01*
X7998478D01*
X7981816Y6977336D01*
Y6944014D01*
X7998478Y6927352D01*
X7274984Y8208404D02*
X7175016D01*
Y8258388D01*
X7191678Y8275049D01*
X7225000D01*
X7241661Y8258388D01*
Y8208404D01*
Y8241726D02*
X7274984Y8275049D01*
Y8308371D02*
Y8341694D01*
Y8325033D01*
X7175016D01*
X7191678Y8308371D01*
X7274984Y8391678D02*
Y8425000D01*
Y8408339D01*
X7175016D01*
X7191678Y8391678D01*
Y8474984D02*
X7175016Y8491646D01*
Y8524968D01*
X7191678Y8541629D01*
X7258323D01*
X7274984Y8524968D01*
Y8491646D01*
X7258323Y8474984D01*
X7191678D01*
X7175016Y8641597D02*
Y8574952D01*
X7225000D01*
X7208339Y8608275D01*
Y8624936D01*
X7225000Y8641597D01*
X7258323D01*
X7274984Y8624936D01*
Y8591613D01*
X7258323Y8574952D01*
X7191678Y7900049D02*
X7175016Y7883388D01*
Y7850065D01*
X7191678Y7833404D01*
X7258323D01*
X7274984Y7850065D01*
Y7883388D01*
X7258323Y7900049D01*
X7274984Y7933371D02*
Y7966694D01*
Y7950033D01*
X7175016D01*
X7191678Y7933371D01*
X7274984Y8016678D02*
Y8050000D01*
Y8033339D01*
X7175016D01*
X7191678Y8016678D01*
Y8099984D02*
X7175016Y8116646D01*
Y8149968D01*
X7191678Y8166629D01*
X7258323D01*
X7274984Y8149968D01*
Y8116646D01*
X7258323Y8099984D01*
X7191678D01*
X7274984Y8266597D02*
Y8199952D01*
X7208339Y8266597D01*
X7191678D01*
X7175016Y8249936D01*
Y8216613D01*
X7191678Y8199952D01*
X13324985Y7441734D02*
X13225017D01*
Y7491718D01*
X13241678Y7508379D01*
X13275002D01*
X13291663Y7491718D01*
Y7441734D01*
Y7475057D02*
X13324985Y7508379D01*
Y7541702D02*
Y7575024D01*
Y7558363D01*
X13225017D01*
X13241678Y7541702D01*
Y7625008D02*
X13225017Y7641670D01*
Y7674992D01*
X13241678Y7691653D01*
X13258339D01*
X13275002Y7674992D01*
Y7658331D01*
Y7674992D01*
X13291663Y7691653D01*
X13308324D01*
X13324985Y7674992D01*
Y7641670D01*
X13308324Y7625008D01*
X13241678Y7724976D02*
X13225017Y7741638D01*
Y7774960D01*
X13241678Y7791621D01*
X13308324D01*
X13324985Y7774960D01*
Y7741638D01*
X13308324Y7724976D01*
X13241678D01*
X13324985Y7824944D02*
Y7858266D01*
Y7841605D01*
X13225017D01*
X13241678Y7824944D01*
X13075017Y7874928D02*
X13174985D01*
Y7824944D01*
X13158324Y7808283D01*
X13125002D01*
X13108339Y7824944D01*
Y7874928D01*
Y7841605D02*
X13075017Y7808283D01*
Y7774960D02*
Y7741637D01*
Y7758298D01*
X13174985D01*
X13158324Y7774960D01*
Y7691653D02*
X13174985Y7674992D01*
Y7641670D01*
X13158324Y7625008D01*
X13141663D01*
X13125002Y7641670D01*
Y7658331D01*
Y7641670D01*
X13108339Y7625008D01*
X13091678D01*
X13075017Y7641670D01*
Y7674992D01*
X13091678Y7691653D01*
X13158324Y7591686D02*
X13174985Y7575024D01*
Y7541702D01*
X13158324Y7525041D01*
X13091678D01*
X13075017Y7541702D01*
Y7575024D01*
X13091678Y7591686D01*
X13158324D01*
X13075017Y7425073D02*
Y7491718D01*
X13141663Y7425073D01*
X13158324D01*
X13174985Y7441734D01*
Y7475056D01*
X13158324Y7491718D01*
X9299984Y6966734D02*
X9200016D01*
Y7016718D01*
X9216678Y7033379D01*
X9250000D01*
X9266662Y7016718D01*
Y6966734D01*
Y7000057D02*
X9299984Y7033379D01*
Y7066702D02*
Y7100024D01*
Y7083363D01*
X9200016D01*
X9216678Y7066702D01*
Y7150008D02*
X9200016Y7166670D01*
Y7199992D01*
X9216678Y7216653D01*
X9283323D01*
X9299984Y7199992D01*
Y7166670D01*
X9283323Y7150008D01*
X9216678D01*
Y7249976D02*
X9200016Y7266637D01*
Y7299960D01*
X9216678Y7316621D01*
X9283323D01*
X9299984Y7299960D01*
Y7266637D01*
X9283323Y7249976D01*
X9216678D01*
X9299984Y7349944D02*
Y7383266D01*
Y7366605D01*
X9200016D01*
X9216678Y7349944D01*
X9925073Y6850016D02*
Y6949984D01*
X9975057D01*
X9991718Y6933323D01*
Y6900000D01*
X9975057Y6883339D01*
X9925073D01*
X9958395D02*
X9991718Y6850016D01*
X10025041D02*
X10058363D01*
X10041702D01*
Y6949984D01*
X10025041Y6933323D01*
X10108347D02*
X10125008Y6949984D01*
X10158331D01*
X10174992Y6933323D01*
Y6866678D01*
X10158331Y6850016D01*
X10125008D01*
X10108347Y6866678D01*
Y6933323D01*
X10208315D02*
X10224976Y6949984D01*
X10258299D01*
X10274960Y6933323D01*
Y6866678D01*
X10258299Y6850016D01*
X10224976D01*
X10208315Y6866678D01*
Y6933323D01*
X10374928Y6850016D02*
X10308283D01*
X10374928Y6916661D01*
Y6933323D01*
X10358267Y6949984D01*
X10324944D01*
X10308283Y6933323D01*
X12624984Y6608387D02*
X12525017D01*
Y6658371D01*
X12541678Y6675032D01*
X12575001D01*
X12591662Y6658371D01*
Y6608387D01*
Y6641709D02*
X12624984Y6675032D01*
X12608323Y6708355D02*
X12624984Y6725016D01*
Y6758339D01*
X12608323Y6775000D01*
X12541678D01*
X12525017Y6758339D01*
Y6725016D01*
X12541678Y6708355D01*
X12558339D01*
X12575001Y6725016D01*
Y6775000D01*
X12541678Y6808322D02*
X12525017Y6824984D01*
Y6858306D01*
X12541678Y6874967D01*
X12608323D01*
X12624984Y6858306D01*
Y6824984D01*
X12608323Y6808322D01*
X12541678D01*
X12624984Y6908290D02*
Y6941613D01*
Y6924952D01*
X12525017D01*
X12541678Y6908290D01*
X12149984Y6591726D02*
X12050016D01*
Y6641710D01*
X12066677Y6658371D01*
X12100000D01*
X12116661Y6641710D01*
Y6591726D01*
Y6625048D02*
X12149984Y6658371D01*
X12133322Y6691694D02*
X12149984Y6708355D01*
Y6741678D01*
X12133322Y6758339D01*
X12066677D01*
X12050016Y6741678D01*
Y6708355D01*
X12066677Y6691694D01*
X12083339D01*
X12100000Y6708355D01*
Y6758339D01*
X12066677Y6791662D02*
X12050016Y6808323D01*
Y6841645D01*
X12066677Y6858307D01*
X12133322D01*
X12149984Y6841645D01*
Y6808323D01*
X12133322Y6791662D01*
X12066677D01*
X12149984Y6958274D02*
Y6891629D01*
X12083339Y6958274D01*
X12066677D01*
X12050016Y6941613D01*
Y6908291D01*
X12066677Y6891629D01*
X11048322Y10856637D02*
X11064983Y10873298D01*
Y10906621D01*
X11048322Y10923282D01*
X10981677D01*
X10965015Y10906621D01*
Y10873298D01*
X10981677Y10856637D01*
X11064983Y10756669D02*
Y10823314D01*
X11014999D01*
X11031660Y10789992D01*
Y10773330D01*
X11014999Y10756669D01*
X10981677D01*
X10965015Y10773330D01*
Y10806653D01*
X10981677Y10823314D01*
X10965015Y10723347D02*
Y10690024D01*
Y10706685D01*
X11064983D01*
X11048322Y10723347D01*
X10965015Y10640040D02*
Y10606718D01*
Y10623379D01*
X11064983D01*
X11048322Y10640040D01*
X11373322Y10873299D02*
X11389983Y10889960D01*
Y10923282D01*
X11373322Y10939944D01*
X11306677D01*
X11290016Y10923282D01*
Y10889960D01*
X11306677Y10873299D01*
X11389983Y10773331D02*
Y10839976D01*
X11339999D01*
X11356661Y10806653D01*
Y10789992D01*
X11339999Y10773331D01*
X11306677D01*
X11290016Y10789992D01*
Y10823314D01*
X11306677Y10839976D01*
X11290016Y10740008D02*
Y10706685D01*
Y10723347D01*
X11389983D01*
X11373322Y10740008D01*
Y10656702D02*
X11389983Y10640040D01*
Y10606718D01*
X11373322Y10590057D01*
X11306677D01*
X11290016Y10606718D01*
Y10640040D01*
X11306677Y10656702D01*
X11373322D01*
X11323371Y11198323D02*
X11306710Y11214984D01*
X11273387D01*
X11256726Y11198323D01*
Y11131678D01*
X11273387Y11115016D01*
X11306710D01*
X11323371Y11131678D01*
X11423339Y11214984D02*
X11356694D01*
Y11165000D01*
X11390016Y11181661D01*
X11406677D01*
X11423339Y11165000D01*
Y11131678D01*
X11406677Y11115016D01*
X11373355D01*
X11356694Y11131678D01*
X11456661Y11198323D02*
X11473323Y11214984D01*
X11506645D01*
X11523306Y11198323D01*
Y11131678D01*
X11506645Y11115016D01*
X11473323D01*
X11456661Y11131678D01*
Y11198323D01*
X11556629Y11131678D02*
X11573291Y11115016D01*
X11606613D01*
X11623274Y11131678D01*
Y11198323D01*
X11606613Y11214984D01*
X11573291D01*
X11556629Y11198323D01*
Y11181661D01*
X11573291Y11165000D01*
X11623274D01*
X11639984Y10996613D02*
Y11063258D01*
X11590000D01*
Y11029936D01*
Y11063258D01*
X11540016D01*
X11639984Y10963290D02*
X11540016D01*
Y10913306D01*
X11556677Y10896645D01*
X11573339D01*
X11590000Y10913306D01*
Y10963290D01*
Y10913306D01*
X11606661Y10896645D01*
X11623322D01*
X11639984Y10913306D01*
Y10963290D01*
Y10796677D02*
Y10863322D01*
X11590000D01*
X11606661Y10830000D01*
Y10813339D01*
X11590000Y10796677D01*
X11556677D01*
X11540016Y10813339D01*
Y10846661D01*
X11556677Y10863322D01*
X11623322Y10763355D02*
X11639984Y10746693D01*
Y10713371D01*
X11623322Y10696710D01*
X11556677D01*
X11540016Y10713371D01*
Y10746693D01*
X11556677Y10763355D01*
X11623322D01*
X11540016Y10596742D02*
Y10663387D01*
X11606661Y10596742D01*
X11623322D01*
X11639984Y10613403D01*
Y10646725D01*
X11623322Y10663387D01*
X12483323Y10458298D02*
X12499984Y10474959D01*
Y10508281D01*
X12483323Y10524943D01*
X12416677D01*
X12400016Y10508281D01*
Y10474959D01*
X12416677Y10458298D01*
X12499984Y10358330D02*
Y10424975D01*
X12450000D01*
X12466661Y10391653D01*
Y10374991D01*
X12450000Y10358330D01*
X12416677D01*
X12400016Y10374991D01*
Y10408314D01*
X12416677Y10424975D01*
X12400016Y10325007D02*
Y10291685D01*
Y10308346D01*
X12499984D01*
X12483323Y10325007D01*
X12416677Y10241701D02*
X12400016Y10225039D01*
Y10191717D01*
X12416677Y10175056D01*
X12483323D01*
X12499984Y10191717D01*
Y10225039D01*
X12483323Y10241701D01*
X12466661D01*
X12450000Y10225039D01*
Y10175056D01*
X10410016Y10523282D02*
X10509984D01*
Y10473298D01*
X10493322Y10456637D01*
X10460000D01*
X10443339Y10473298D01*
Y10523282D01*
Y10489960D02*
X10410016Y10456637D01*
X10509984Y10356669D02*
Y10423314D01*
X10460000D01*
X10476661Y10389992D01*
Y10373331D01*
X10460000Y10356669D01*
X10426677D01*
X10410016Y10373331D01*
Y10406653D01*
X10426677Y10423314D01*
X10410016Y10323347D02*
Y10290024D01*
Y10306685D01*
X10509984D01*
X10493322Y10323347D01*
X10410016Y10240040D02*
Y10206718D01*
Y10223379D01*
X10509984D01*
X10493322Y10240040D01*
X10639984Y10176726D02*
X10540016D01*
Y10226710D01*
X10556677Y10243371D01*
X10590000D01*
X10606661Y10226710D01*
Y10176726D01*
Y10210048D02*
X10639984Y10243371D01*
X10540016Y10343339D02*
Y10276694D01*
X10590000D01*
X10573339Y10310016D01*
Y10326678D01*
X10590000Y10343339D01*
X10623322D01*
X10639984Y10326678D01*
Y10293355D01*
X10623322Y10276694D01*
X10556677Y10376661D02*
X10540016Y10393323D01*
Y10426645D01*
X10556677Y10443307D01*
X10623322D01*
X10639984Y10426645D01*
Y10393323D01*
X10623322Y10376661D01*
X10556677D01*
X10623322Y10476629D02*
X10639984Y10493291D01*
Y10526613D01*
X10623322Y10543274D01*
X10556677D01*
X10540016Y10526613D01*
Y10493291D01*
X10556677Y10476629D01*
X10573339D01*
X10590000Y10493291D01*
Y10543274D01*
X10379984Y10190056D02*
X10280016D01*
Y10240040D01*
X10296677Y10256701D01*
X10330000D01*
X10346661Y10240040D01*
Y10190056D01*
Y10223379D02*
X10379984Y10256701D01*
X10280016Y10356669D02*
Y10290024D01*
X10330000D01*
X10313339Y10323347D01*
Y10340008D01*
X10330000Y10356669D01*
X10363322D01*
X10379984Y10340008D01*
Y10306686D01*
X10363322Y10290024D01*
X10379984Y10389992D02*
Y10423314D01*
Y10406653D01*
X10280016D01*
X10296677Y10389992D01*
X10379984Y10539943D02*
Y10473298D01*
X10313339Y10539943D01*
X10296677D01*
X10280016Y10523282D01*
Y10489960D01*
X10296677Y10473298D01*
X12229983Y10540056D02*
X12130016D01*
Y10590040D01*
X12146677Y10606701D01*
X12180000D01*
X12196661Y10590040D01*
Y10540056D01*
Y10573379D02*
X12229983Y10606701D01*
X12130016Y10706669D02*
Y10640024D01*
X12180000D01*
X12163338Y10673347D01*
Y10690008D01*
X12180000Y10706669D01*
X12213322D01*
X12229983Y10690008D01*
Y10656686D01*
X12213322Y10640024D01*
X12229983Y10739992D02*
Y10773314D01*
Y10756653D01*
X12130016D01*
X12146677Y10739992D01*
X12229983Y10873282D02*
X12130016D01*
X12180000Y10823298D01*
Y10889943D01*
X12766677Y10825032D02*
X12750016Y10808371D01*
Y10775048D01*
X12766677Y10758387D01*
X12833322D01*
X12849983Y10775048D01*
Y10808371D01*
X12833322Y10825032D01*
X12750016Y10925000D02*
Y10858355D01*
X12800000D01*
X12783338Y10891677D01*
Y10908339D01*
X12800000Y10925000D01*
X12833322D01*
X12849983Y10908339D01*
Y10875016D01*
X12833322Y10858355D01*
X12849983Y11024968D02*
Y10958323D01*
X12783338Y11024968D01*
X12766677D01*
X12750016Y11008306D01*
Y10974984D01*
X12766677Y10958323D01*
X12849983Y11058290D02*
Y11091613D01*
Y11074952D01*
X12750016D01*
X12766677Y11058290D01*
X12466677Y10808370D02*
X12450016Y10791709D01*
Y10758387D01*
X12466677Y10741725D01*
X12533322D01*
X12549984Y10758387D01*
Y10791709D01*
X12533322Y10808370D01*
X12450016Y10908338D02*
Y10841693D01*
X12500000D01*
X12483339Y10875016D01*
Y10891677D01*
X12500000Y10908338D01*
X12533322D01*
X12549984Y10891677D01*
Y10858354D01*
X12533322Y10841693D01*
X12549984Y11008306D02*
Y10941661D01*
X12483339Y11008306D01*
X12466677D01*
X12450016Y10991645D01*
Y10958322D01*
X12466677Y10941661D01*
X12549984Y11108274D02*
Y11041629D01*
X12483339Y11108274D01*
X12466677D01*
X12450016Y11091613D01*
Y11058290D01*
X12466677Y11041629D01*
X10670016Y10534943D02*
X10769984D01*
Y10484959D01*
X10753322Y10468298D01*
X10720000D01*
X10703339Y10484959D01*
Y10534943D01*
Y10501620D02*
X10670016Y10468298D01*
X10769984Y10368330D02*
Y10434975D01*
X10720000D01*
X10736661Y10401653D01*
Y10384991D01*
X10720000Y10368330D01*
X10686677D01*
X10670016Y10384991D01*
Y10418314D01*
X10686677Y10434975D01*
X10670016Y10335007D02*
Y10301685D01*
Y10318346D01*
X10769984D01*
X10753322Y10335007D01*
Y10251701D02*
X10769984Y10235039D01*
Y10201717D01*
X10753322Y10185056D01*
X10686677D01*
X10670016Y10201717D01*
Y10235039D01*
X10686677Y10251701D01*
X10753322D01*
X10693323Y10998298D02*
X10709984Y11014959D01*
Y11048282D01*
X10693323Y11064943D01*
X10626678D01*
X10610016Y11048282D01*
Y11014959D01*
X10626678Y10998298D01*
X10709984Y10898331D02*
Y10964976D01*
X10660000D01*
X10676661Y10931653D01*
Y10914992D01*
X10660000Y10898331D01*
X10626678D01*
X10610016Y10914992D01*
Y10948314D01*
X10626678Y10964976D01*
X10610016Y10865008D02*
Y10831685D01*
Y10848346D01*
X10709984D01*
X10693323Y10865008D01*
X10610016Y10715056D02*
Y10781701D01*
X10676661Y10715056D01*
X10693323D01*
X10709984Y10731717D01*
Y10765040D01*
X10693323Y10781701D01*
X11963387Y10259984D02*
X11896742D01*
Y10210000D01*
X11930065D01*
X11896742D01*
Y10160016D01*
X11996710Y10259984D02*
Y10160016D01*
X12046694D01*
X12063355Y10176677D01*
Y10193339D01*
X12046694Y10210000D01*
X11996710D01*
X12046694D01*
X12063355Y10226661D01*
Y10243322D01*
X12046694Y10259984D01*
X11996710D01*
X12163323D02*
X12096678D01*
Y10210000D01*
X12130000Y10226661D01*
X12146662D01*
X12163323Y10210000D01*
Y10176677D01*
X12146662Y10160016D01*
X12113339D01*
X12096678Y10176677D01*
X12196645Y10243322D02*
X12213307Y10259984D01*
X12246629D01*
X12263290Y10243322D01*
Y10176677D01*
X12246629Y10160016D01*
X12213307D01*
X12196645Y10176677D01*
Y10243322D01*
X12296613D02*
X12313275Y10259984D01*
X12346597D01*
X12363258Y10243322D01*
Y10226661D01*
X12346597Y10210000D01*
X12329936D01*
X12346597D01*
X12363258Y10193339D01*
Y10176677D01*
X12346597Y10160016D01*
X12313275D01*
X12296613Y10176677D01*
X11853322Y10458298D02*
X11869984Y10474959D01*
Y10508282D01*
X11853322Y10524943D01*
X11786677D01*
X11770016Y10508282D01*
Y10474959D01*
X11786677Y10458298D01*
X11869984Y10358330D02*
Y10424975D01*
X11820000D01*
X11836661Y10391653D01*
Y10374991D01*
X11820000Y10358330D01*
X11786677D01*
X11770016Y10374991D01*
Y10408314D01*
X11786677Y10424975D01*
X11770016Y10325008D02*
Y10291685D01*
Y10308346D01*
X11869984D01*
X11853322Y10325008D01*
X11869984Y10241701D02*
Y10175056D01*
X11853322D01*
X11786677Y10241701D01*
X11770016D01*
X12966676Y9983371D02*
X12950015Y9966710D01*
Y9933387D01*
X12966676Y9916726D01*
X13033322D01*
X13049985Y9933387D01*
Y9966710D01*
X13033322Y9983371D01*
X12950015Y10083338D02*
Y10016693D01*
X13000000D01*
X12983339Y10050016D01*
Y10066677D01*
X13000000Y10083338D01*
X13033322D01*
X13049985Y10066677D01*
Y10033355D01*
X13033322Y10016693D01*
X13049985Y10183306D02*
Y10116661D01*
X12983339Y10183306D01*
X12966676D01*
X12950015Y10166645D01*
Y10133323D01*
X12966676Y10116661D01*
Y10216629D02*
X12950015Y10233290D01*
Y10266613D01*
X12966676Y10283274D01*
X13033322D01*
X13049985Y10266613D01*
Y10233290D01*
X13033322Y10216629D01*
X12966676D01*
X13065056Y10170016D02*
Y10269984D01*
X13115041D01*
X13131702Y10253322D01*
Y10220000D01*
X13115041Y10203338D01*
X13065056D01*
X13098380D02*
X13131702Y10170016D01*
X13231670Y10269984D02*
X13165024D01*
Y10220000D01*
X13198347Y10236661D01*
X13215009D01*
X13231670Y10220000D01*
Y10186677D01*
X13215009Y10170016D01*
X13181686D01*
X13165024Y10186677D01*
X13264992Y10170016D02*
X13298315D01*
X13281653D01*
Y10269984D01*
X13264992Y10253322D01*
X13348299D02*
X13364960Y10269984D01*
X13398282D01*
X13414943Y10253322D01*
Y10236661D01*
X13398282Y10220000D01*
X13381621D01*
X13398282D01*
X13414943Y10203338D01*
Y10186677D01*
X13398282Y10170016D01*
X13364960D01*
X13348299Y10186677D01*
X8608322Y10766629D02*
X8624984Y10783290D01*
Y10816612D01*
X8608322Y10833274D01*
X8541677D01*
X8525016Y10816612D01*
Y10783290D01*
X8541677Y10766629D01*
X8624984Y10666661D02*
Y10733306D01*
X8575000D01*
X8591661Y10699983D01*
Y10683322D01*
X8575000Y10666661D01*
X8541677D01*
X8525016Y10683322D01*
Y10716645D01*
X8541677Y10733306D01*
X8608322Y10633338D02*
X8624984Y10616677D01*
Y10583354D01*
X8608322Y10566693D01*
X8541677D01*
X8525016Y10583354D01*
Y10616677D01*
X8541677Y10633338D01*
X8608322D01*
X8525016Y10483386D02*
X8624984D01*
X8575000Y10533370D01*
Y10466725D01*
X8333323Y10791629D02*
X8349984Y10808290D01*
Y10841612D01*
X8333323Y10858274D01*
X8266678D01*
X8250017Y10841612D01*
Y10808290D01*
X8266678Y10791629D01*
X8349984Y10691661D02*
Y10758306D01*
X8300000D01*
X8316662Y10724983D01*
Y10708322D01*
X8300000Y10691661D01*
X8266678D01*
X8250017Y10708322D01*
Y10741645D01*
X8266678Y10758306D01*
X8333323Y10658338D02*
X8349984Y10641677D01*
Y10608354D01*
X8333323Y10591693D01*
X8266678D01*
X8250017Y10608354D01*
Y10641677D01*
X8266678Y10658338D01*
X8333323D01*
Y10558370D02*
X8349984Y10541709D01*
Y10508386D01*
X8333323Y10491725D01*
X8316662D01*
X8300000Y10508386D01*
Y10525048D01*
Y10508386D01*
X8283339Y10491725D01*
X8266678D01*
X8250017Y10508386D01*
Y10541709D01*
X8266678Y10558370D01*
X7641677Y9933371D02*
X7625016Y9916710D01*
Y9883387D01*
X7641677Y9866726D01*
X7708322D01*
X7724984Y9883387D01*
Y9916710D01*
X7708322Y9933371D01*
X7625016Y10033339D02*
Y9966694D01*
X7675000D01*
X7658339Y10000016D01*
Y10016678D01*
X7675000Y10033339D01*
X7708322D01*
X7724984Y10016678D01*
Y9983355D01*
X7708322Y9966694D01*
X7641677Y10066662D02*
X7625016Y10083323D01*
Y10116646D01*
X7641677Y10133307D01*
X7708322D01*
X7724984Y10116646D01*
Y10083323D01*
X7708322Y10066662D01*
X7641677D01*
X7625016Y10166629D02*
Y10233274D01*
X7641677D01*
X7708322Y10166629D01*
X7724984D01*
X7941677Y9933371D02*
X7925016Y9916710D01*
Y9883387D01*
X7941677Y9866726D01*
X8008322D01*
X8024983Y9883387D01*
Y9916710D01*
X8008322Y9933371D01*
X7925016Y10033339D02*
Y9966694D01*
X7975000D01*
X7958338Y10000016D01*
Y10016677D01*
X7975000Y10033339D01*
X8008322D01*
X8024983Y10016677D01*
Y9983355D01*
X8008322Y9966694D01*
X7941677Y10066661D02*
X7925016Y10083323D01*
Y10116645D01*
X7941677Y10133306D01*
X8008322D01*
X8024983Y10116645D01*
Y10083323D01*
X8008322Y10066661D01*
X7941677D01*
Y10166629D02*
X7925016Y10183291D01*
Y10216613D01*
X7941677Y10233274D01*
X7958338D01*
X7975000Y10216613D01*
X7991661Y10233274D01*
X8008322D01*
X8024983Y10216613D01*
Y10183291D01*
X8008322Y10166629D01*
X7991661D01*
X7975000Y10183291D01*
X7958338Y10166629D01*
X7941677D01*
X7975000Y10183291D02*
Y10216613D01*
X7774983Y10774952D02*
Y10841597D01*
X7725000D01*
Y10808274D01*
Y10841597D01*
X7675016D01*
X7774983Y10741629D02*
X7675016D01*
Y10691645D01*
X7691677Y10674984D01*
X7708338D01*
X7725000Y10691645D01*
Y10741629D01*
Y10691645D01*
X7741661Y10674984D01*
X7758322D01*
X7774983Y10691645D01*
Y10741629D01*
Y10575016D02*
Y10641661D01*
X7725000D01*
X7741661Y10608338D01*
Y10591677D01*
X7725000Y10575016D01*
X7691677D01*
X7675016Y10591677D01*
Y10625000D01*
X7691677Y10641661D01*
X7758322Y10541693D02*
X7774983Y10525032D01*
Y10491709D01*
X7758322Y10475048D01*
X7691677D01*
X7675016Y10491709D01*
Y10525032D01*
X7691677Y10541693D01*
X7758322D01*
X7675016Y10441725D02*
Y10408403D01*
Y10425064D01*
X7774983D01*
X7758322Y10441725D01*
X8033322Y10791629D02*
X8049983Y10808290D01*
Y10841613D01*
X8033322Y10858274D01*
X7966677D01*
X7950016Y10841613D01*
Y10808290D01*
X7966677Y10791629D01*
X8049983Y10691661D02*
Y10758306D01*
X7999999D01*
X8016661Y10724984D01*
Y10708322D01*
X7999999Y10691661D01*
X7966677D01*
X7950016Y10708322D01*
Y10741645D01*
X7966677Y10758306D01*
X8033322Y10658338D02*
X8049983Y10641677D01*
Y10608354D01*
X8033322Y10591693D01*
X7966677D01*
X7950016Y10608354D01*
Y10641677D01*
X7966677Y10658338D01*
X8033322D01*
X7950016Y10491726D02*
Y10558371D01*
X8016661Y10491726D01*
X8033322D01*
X8049983Y10508387D01*
Y10541709D01*
X8033322Y10558371D01*
X7341621Y5666678D02*
X7358282Y5650016D01*
X7391605D01*
X7408266Y5666678D01*
Y5733323D01*
X7391605Y5749984D01*
X7358282D01*
X7341621Y5733323D01*
X7308298Y5749984D02*
X7274976D01*
X7291637D01*
Y5650016D01*
X7308298Y5666678D01*
X7158347Y5650016D02*
X7224992D01*
Y5700000D01*
X7191669Y5683339D01*
X7175008D01*
X7158347Y5700000D01*
Y5733323D01*
X7175008Y5749984D01*
X7208331D01*
X7224992Y5733323D01*
X7125024Y5666678D02*
X7108363Y5650016D01*
X7075040D01*
X7058379Y5666678D01*
Y5733323D01*
X7075040Y5749984D01*
X7108363D01*
X7125024Y5733323D01*
Y5666678D01*
X7025056Y5749984D02*
X6991734D01*
X7008395D01*
Y5650016D01*
X7025056Y5666678D01*
X7338283Y5533977D02*
X7354944Y5517316D01*
X7388266D01*
X7404928Y5533977D01*
Y5600622D01*
X7388266Y5617283D01*
X7354944D01*
X7338283Y5600622D01*
X7304960Y5617283D02*
X7271637D01*
X7288298D01*
Y5517316D01*
X7304960Y5533977D01*
X7155008Y5517316D02*
X7221653D01*
Y5567300D01*
X7188331Y5550638D01*
X7171669D01*
X7155008Y5567300D01*
Y5600622D01*
X7171669Y5617283D01*
X7204992D01*
X7221653Y5600622D01*
X7121686Y5533977D02*
X7105024Y5517316D01*
X7071702D01*
X7055040Y5533977D01*
Y5600622D01*
X7071702Y5617283D01*
X7105024D01*
X7121686Y5600622D01*
Y5533977D01*
X6955073Y5617283D02*
X7021718D01*
X6955073Y5550638D01*
Y5533977D01*
X6971734Y5517316D01*
X7005056D01*
X7021718Y5533977D01*
X9972684Y3226597D02*
X9872716D01*
Y3176613D01*
X9889378Y3159952D01*
X9956023D01*
X9972684Y3176613D01*
Y3226597D01*
X9872716Y3059984D02*
Y3126630D01*
X9939361Y3059984D01*
X9956023D01*
X9972684Y3076646D01*
Y3109968D01*
X9956023Y3126630D01*
Y3026662D02*
X9972684Y3010000D01*
Y2976678D01*
X9956023Y2960017D01*
X9939361D01*
X9922700Y2976678D01*
Y2993339D01*
Y2976678D01*
X9906039Y2960017D01*
X9889378D01*
X9872716Y2976678D01*
Y3010000D01*
X9889378Y3026662D01*
X9956023Y2926694D02*
X9972684Y2910033D01*
Y2876710D01*
X9956023Y2860049D01*
X9889378D01*
X9872716Y2876710D01*
Y2910033D01*
X9889378Y2926694D01*
X9956023D01*
X9872716Y2826726D02*
Y2793404D01*
Y2810065D01*
X9972684D01*
X9956023Y2826726D01*
X10015016Y3443258D02*
X10114984D01*
Y3393274D01*
X10098322Y3376613D01*
X10065000D01*
X10048339Y3393274D01*
Y3443258D01*
Y3409936D02*
X10015016Y3376613D01*
Y3276645D02*
Y3343290D01*
X10081661Y3276645D01*
X10098322D01*
X10114984Y3293307D01*
Y3326629D01*
X10098322Y3343290D01*
Y3243323D02*
X10114984Y3226661D01*
Y3193339D01*
X10098322Y3176678D01*
X10081661D01*
X10065000Y3193339D01*
Y3210000D01*
Y3193339D01*
X10048339Y3176678D01*
X10031677D01*
X10015016Y3193339D01*
Y3226661D01*
X10031677Y3243323D01*
X10098322Y3143355D02*
X10114984Y3126694D01*
Y3093371D01*
X10098322Y3076710D01*
X10031677D01*
X10015016Y3093371D01*
Y3126694D01*
X10031677Y3143355D01*
X10098322D01*
X10015016Y2976742D02*
Y3043387D01*
X10081661Y2976742D01*
X10098322D01*
X10114984Y2993403D01*
Y3026726D01*
X10098322Y3043387D01*
X12099983Y5786742D02*
X12000016D01*
Y5836725D01*
X12016677Y5853387D01*
X12050000D01*
X12066661Y5836725D01*
Y5786742D01*
Y5820064D02*
X12099983Y5853387D01*
Y5953354D02*
Y5886709D01*
X12033338Y5953354D01*
X12016677D01*
X12000016Y5936693D01*
Y5903371D01*
X12016677Y5886709D01*
Y5986677D02*
X12000016Y6003339D01*
Y6036661D01*
X12016677Y6053322D01*
X12033338D01*
X12050000Y6036661D01*
Y6020000D01*
Y6036661D01*
X12066661Y6053322D01*
X12083322D01*
X12099983Y6036661D01*
Y6003339D01*
X12083322Y5986677D01*
X12016677Y6086645D02*
X12000016Y6103306D01*
Y6136629D01*
X12016677Y6153290D01*
X12083322D01*
X12099983Y6136629D01*
Y6103306D01*
X12083322Y6086645D01*
X12016677D01*
X12000016Y6186613D02*
Y6253258D01*
X12016677D01*
X12083322Y6186613D01*
X12099983D01*
X9860016Y3426597D02*
X9959984D01*
Y3376613D01*
X9943323Y3359952D01*
X9910000D01*
X9893339Y3376613D01*
Y3426597D01*
Y3393275D02*
X9860016Y3359952D01*
Y3259984D02*
Y3326629D01*
X9926661Y3259984D01*
X9943323D01*
X9959984Y3276645D01*
Y3309968D01*
X9943323Y3326629D01*
Y3226662D02*
X9959984Y3210000D01*
Y3176678D01*
X9943323Y3160017D01*
X9926661D01*
X9910000Y3176678D01*
Y3193339D01*
Y3176678D01*
X9893339Y3160017D01*
X9876678D01*
X9860016Y3176678D01*
Y3210000D01*
X9876678Y3226662D01*
X9943323Y3126694D02*
X9959984Y3110032D01*
Y3076710D01*
X9943323Y3060049D01*
X9876678D01*
X9860016Y3076710D01*
Y3110032D01*
X9876678Y3126694D01*
X9943323D01*
X9860016Y3026726D02*
Y2993403D01*
Y3010065D01*
X9959984D01*
X9943323Y3026726D01*
X8191613Y5228978D02*
X8208274Y5212316D01*
X8241597D01*
X8258258Y5228978D01*
Y5295623D01*
X8241597Y5312284D01*
X8208274D01*
X8191613Y5295623D01*
X8091645Y5312284D02*
X8158291D01*
X8091645Y5245639D01*
Y5228978D01*
X8108307Y5212316D01*
X8141629D01*
X8158291Y5228978D01*
X8058323D02*
X8041661Y5212316D01*
X8008339D01*
X7991678Y5228978D01*
Y5295623D01*
X8008339Y5312284D01*
X8041661D01*
X8058323Y5295623D01*
Y5228978D01*
X7958355D02*
X7941694Y5212316D01*
X7908371D01*
X7891710Y5228978D01*
Y5295623D01*
X7908371Y5312284D01*
X7941694D01*
X7958355Y5295623D01*
Y5228978D01*
X7791742Y5212316D02*
X7858387D01*
Y5262300D01*
X7825065Y5245639D01*
X7808403D01*
X7791742Y5262300D01*
Y5295623D01*
X7808403Y5312284D01*
X7841726D01*
X7858387Y5295623D01*
X7150016Y3908266D02*
X7249984D01*
Y3858282D01*
X7233323Y3841621D01*
X7200000D01*
X7183339Y3858282D01*
Y3908266D01*
Y3874944D02*
X7150016Y3841621D01*
Y3808298D02*
Y3774976D01*
Y3791637D01*
X7249984D01*
X7233323Y3808298D01*
X7166678Y3724992D02*
X7150016Y3708331D01*
Y3675008D01*
X7166678Y3658347D01*
X7233323D01*
X7249984Y3675008D01*
Y3708331D01*
X7233323Y3724992D01*
X7216661D01*
X7200000Y3708331D01*
Y3658347D01*
X7233323Y3625024D02*
X7249984Y3608363D01*
Y3575040D01*
X7233323Y3558379D01*
X7166678D01*
X7150016Y3575040D01*
Y3608363D01*
X7166678Y3625024D01*
X7233323D01*
X7150016Y3525056D02*
Y3491734D01*
Y3508395D01*
X7249984D01*
X7233323Y3525056D01*
X7250016Y3924927D02*
X7349984D01*
Y3874943D01*
X7333322Y3858282D01*
X7300000D01*
X7283338Y3874943D01*
Y3924927D01*
Y3891605D02*
X7250016Y3858282D01*
Y3824960D02*
Y3791637D01*
Y3808298D01*
X7349984D01*
X7333322Y3824960D01*
X7266677Y3741653D02*
X7250016Y3724992D01*
Y3691669D01*
X7266677Y3675008D01*
X7333322D01*
X7349984Y3691669D01*
Y3724992D01*
X7333322Y3741653D01*
X7316661D01*
X7300000Y3724992D01*
Y3675008D01*
X7333322Y3641685D02*
X7349984Y3625024D01*
Y3591701D01*
X7333322Y3575040D01*
X7266677D01*
X7250016Y3591701D01*
Y3625024D01*
X7266677Y3641685D01*
X7333322D01*
X7250016Y3475073D02*
Y3541718D01*
X7316661Y3475073D01*
X7333322D01*
X7349984Y3491734D01*
Y3525056D01*
X7333322Y3541718D01*
X7350016Y3924927D02*
X7449984D01*
Y3874943D01*
X7433322Y3858282D01*
X7400000D01*
X7383339Y3874943D01*
Y3924927D01*
Y3891605D02*
X7350016Y3858282D01*
Y3824959D02*
Y3791637D01*
Y3808298D01*
X7449984D01*
X7433322Y3824959D01*
X7366677Y3741653D02*
X7350016Y3724992D01*
Y3691669D01*
X7366677Y3675008D01*
X7433322D01*
X7449984Y3691669D01*
Y3724992D01*
X7433322Y3741653D01*
X7416661D01*
X7400000Y3724992D01*
Y3675008D01*
X7433322Y3641685D02*
X7449984Y3625024D01*
Y3591701D01*
X7433322Y3575040D01*
X7366677D01*
X7350016Y3591701D01*
Y3625024D01*
X7366677Y3641685D01*
X7433322D01*
Y3541717D02*
X7449984Y3525056D01*
Y3491733D01*
X7433322Y3475072D01*
X7416661D01*
X7400000Y3491733D01*
Y3508395D01*
Y3491733D01*
X7383339Y3475072D01*
X7366677D01*
X7350016Y3491733D01*
Y3525056D01*
X7366677Y3541717D01*
X7450016Y3924927D02*
X7549984D01*
Y3874943D01*
X7533322Y3858282D01*
X7500000D01*
X7483338Y3874943D01*
Y3924927D01*
Y3891605D02*
X7450016Y3858282D01*
Y3824960D02*
Y3791637D01*
Y3808298D01*
X7549984D01*
X7533322Y3824960D01*
X7466677Y3741653D02*
X7450016Y3724992D01*
Y3691669D01*
X7466677Y3675008D01*
X7533322D01*
X7549984Y3691669D01*
Y3724992D01*
X7533322Y3741653D01*
X7516661D01*
X7500000Y3724992D01*
Y3675008D01*
X7533322Y3641685D02*
X7549984Y3625024D01*
Y3591701D01*
X7533322Y3575040D01*
X7466677D01*
X7450016Y3591701D01*
Y3625024D01*
X7466677Y3641685D01*
X7533322D01*
X7450016Y3491734D02*
X7549984D01*
X7500000Y3541718D01*
Y3475073D01*
X7583266Y5349983D02*
Y5250016D01*
X7533282D01*
X7516621Y5266677D01*
Y5300000D01*
X7533282Y5316661D01*
X7583266D01*
X7549943D02*
X7516621Y5349983D01*
X7483298D02*
X7449976D01*
X7466637D01*
Y5250016D01*
X7483298Y5266677D01*
X7333347Y5250016D02*
X7399992D01*
Y5300000D01*
X7366669Y5283338D01*
X7350008D01*
X7333347Y5300000D01*
Y5333322D01*
X7350008Y5349983D01*
X7383330D01*
X7399992Y5333322D01*
X7300024Y5266677D02*
X7283363Y5250016D01*
X7250040D01*
X7233379Y5266677D01*
Y5333322D01*
X7250040Y5349983D01*
X7283363D01*
X7300024Y5333322D01*
Y5266677D01*
X7200056Y5349983D02*
X7166734D01*
X7183395D01*
Y5250016D01*
X7200056Y5266677D01*
X7599927Y5199984D02*
Y5100016D01*
X7549943D01*
X7533282Y5116678D01*
Y5150000D01*
X7549943Y5166661D01*
X7599927D01*
X7566605D02*
X7533282Y5199984D01*
X7499960D02*
X7466637D01*
X7483298D01*
Y5100016D01*
X7499960Y5116678D01*
X7350008Y5100016D02*
X7416653D01*
Y5150000D01*
X7383331Y5133339D01*
X7366669D01*
X7350008Y5150000D01*
Y5183323D01*
X7366669Y5199984D01*
X7399992D01*
X7416653Y5183323D01*
X7316685Y5116678D02*
X7300024Y5100016D01*
X7266701D01*
X7250040Y5116678D01*
Y5183323D01*
X7266701Y5199984D01*
X7300024D01*
X7316685Y5183323D01*
Y5116678D01*
X7150073Y5199984D02*
X7216718D01*
X7150073Y5133339D01*
Y5116678D01*
X7166734Y5100016D01*
X7200056D01*
X7216718Y5116678D01*
X7599927Y4874983D02*
Y4775015D01*
X7549943D01*
X7533282Y4791677D01*
Y4824999D01*
X7549943Y4841661D01*
X7599927D01*
X7566605D02*
X7533282Y4874983D01*
X7499960D02*
X7466637D01*
X7483298D01*
Y4775015D01*
X7499960Y4791677D01*
X7350008Y4775015D02*
X7416653D01*
Y4824999D01*
X7383331Y4808338D01*
X7366669D01*
X7350008Y4824999D01*
Y4858322D01*
X7366669Y4874983D01*
X7399992D01*
X7416653Y4858322D01*
X7316685Y4791677D02*
X7300024Y4775015D01*
X7266701D01*
X7250040Y4791677D01*
Y4858322D01*
X7266701Y4874983D01*
X7300024D01*
X7316685Y4858322D01*
Y4791677D01*
X7216718D02*
X7200056Y4775015D01*
X7166734D01*
X7150073Y4791677D01*
Y4808338D01*
X7166734Y4824999D01*
X7183395D01*
X7166734D01*
X7150073Y4841661D01*
Y4858322D01*
X7166734Y4874983D01*
X7200056D01*
X7216718Y4858322D01*
X12850015Y4699927D02*
X12949985D01*
Y4649943D01*
X12933324Y4633282D01*
X12900000D01*
X12883339Y4649943D01*
Y4699927D01*
Y4666604D02*
X12850015Y4633282D01*
Y4599959D02*
Y4566637D01*
Y4583298D01*
X12949985D01*
X12933324Y4599959D01*
X12949985Y4516653D02*
Y4450008D01*
X12933324D01*
X12866678Y4516653D01*
X12850015D01*
X12933324Y4416685D02*
X12949985Y4400023D01*
Y4366701D01*
X12933324Y4350040D01*
X12866678D01*
X12850015Y4366701D01*
Y4400023D01*
X12866678Y4416685D01*
X12933324D01*
Y4316717D02*
X12949985Y4300056D01*
Y4266733D01*
X12933324Y4250072D01*
X12916661D01*
X12900000Y4266733D01*
Y4283395D01*
Y4266733D01*
X12883339Y4250072D01*
X12866678D01*
X12850015Y4266733D01*
Y4300056D01*
X12866678Y4316717D01*
X10318968Y6391093D02*
X10295405D01*
X10271843Y6367531D01*
Y6343968D01*
X10318968Y6296843D01*
X10342530D01*
X10366093Y6320405D01*
Y6343968D01*
X10342530Y6414656D02*
Y6438219D01*
X10366093Y6461781D01*
X10389655Y6461781D01*
X10401437Y6450000D01*
Y6426437D01*
X10424999Y6426437D01*
X10436781Y6414656D01*
Y6391093D01*
X10413218Y6367531D01*
X10389655D01*
X10377874Y6379312D01*
Y6402875D01*
X10354312Y6402875D01*
X10342530Y6414656D01*
X10377874Y6402875D02*
X10401437Y6426437D01*
X10413218Y6485344D02*
Y6508907D01*
X10436781Y6532469D01*
X10460343Y6532469D01*
X10507468Y6485344D01*
X10507469Y6461781D01*
X10483906Y6438219D01*
X10460343D01*
X10413218Y6485344D01*
X10519250Y6614938D02*
X10507469Y6579594D01*
Y6532469D01*
X10531031Y6508907D01*
X10554594D01*
X10578157Y6532469D01*
X10578156Y6556032D01*
X10566375Y6567813D01*
X10542813D01*
X10507469Y6532469D01*
X10606048Y5721826D02*
Y5698264D01*
X10629611Y5674701D01*
X10653174D01*
X10700299Y5721826D01*
Y5745389D01*
X10676736Y5768951D01*
X10653174D01*
X10582486Y5745389D02*
X10558923D01*
X10535360Y5768951D01*
X10535360Y5792514D01*
X10547142Y5804295D01*
X10570704D01*
X10570704Y5827858D01*
X10582486Y5839639D01*
X10606048D01*
X10629611Y5816077D01*
Y5792514D01*
X10617829Y5780733D01*
X10594267D01*
X10594267Y5757170D01*
X10582486Y5745389D01*
X10594267Y5780733D02*
X10570704Y5804295D01*
Y5874983D02*
X10547141Y5898546D01*
X10558923Y5886765D01*
X10488235Y5816077D01*
X10511798D01*
X10452891Y5874983D02*
X10429328D01*
X10405766Y5898546D01*
Y5922109D01*
X10452891Y5969234D01*
X10476454Y5969234D01*
X10500016Y5945671D01*
Y5922109D01*
X10452891Y5874983D01*
X10691234Y5836640D02*
Y5813078D01*
X10714797Y5789515D01*
X10738360D01*
X10785485Y5836640D01*
Y5860203D01*
X10761922Y5883765D01*
X10738360D01*
X10667672Y5860203D02*
X10644109D01*
X10620546Y5883765D01*
X10620546Y5907328D01*
X10632328Y5919110D01*
X10655890D01*
X10655890Y5942672D01*
X10667672Y5954453D01*
X10691234D01*
X10714797Y5930891D01*
Y5907328D01*
X10703015Y5895547D01*
X10679453D01*
X10679453Y5871984D01*
X10667672Y5860203D01*
X10679453Y5895547D02*
X10655890Y5919110D01*
Y5989798D02*
X10632327Y6013360D01*
X10644109Y6001579D01*
X10573421Y5930891D01*
X10596984D01*
Y6048704D02*
X10573421Y6072266D01*
X10585202Y6060485D01*
X10514514Y5989798D01*
X10538077D01*
X9574926Y5709988D02*
Y5686425D01*
X9598489Y5662862D01*
X9622052D01*
X9669177Y5709988D01*
Y5733550D01*
X9645614Y5757113D01*
X9622052D01*
X9551364Y5733550D02*
X9527801D01*
X9504238Y5757113D01*
X9504239Y5780675D01*
X9516020Y5792457D01*
X9539582D01*
X9539582Y5816019D01*
X9551364Y5827801D01*
X9574926D01*
X9598489Y5804238D01*
Y5780675D01*
X9586708Y5768894D01*
X9563145D01*
X9563145Y5745332D01*
X9551364Y5733550D01*
X9563145Y5768894D02*
X9539582Y5792457D01*
X9480676Y5804238D02*
X9457113D01*
X9433550Y5827801D01*
X9433551Y5851363D01*
X9480676Y5898488D01*
X9504238Y5898489D01*
X9527801Y5874926D01*
Y5851363D01*
X9480676Y5804238D01*
X9351081Y5910270D02*
X9398207Y5863145D01*
X9433550Y5898489D01*
X9398207Y5910270D01*
X9386425Y5922051D01*
Y5945614D01*
X9409988Y5969176D01*
X9433550Y5969177D01*
X9457113Y5945614D01*
Y5922051D01*
X9483907Y5618968D02*
Y5595406D01*
X9507469Y5571843D01*
X9531032D01*
X9578157Y5618968D01*
Y5642531D01*
X9554595Y5666093D01*
X9531032D01*
X9460344Y5642531D02*
X9436781D01*
X9413219Y5666093D01*
X9413219Y5689656D01*
X9425000Y5701437D01*
X9448563D01*
X9448563Y5725000D01*
X9460344Y5736781D01*
X9483907D01*
X9507469Y5713219D01*
Y5689656D01*
X9495688Y5677875D01*
X9472125D01*
X9472125Y5654312D01*
X9460344Y5642531D01*
X9472125Y5677875D02*
X9448563Y5701437D01*
X9389656Y5713219D02*
X9366093D01*
X9342531Y5736781D01*
X9342531Y5760344D01*
X9389656Y5807469D01*
X9413219Y5807469D01*
X9436781Y5783907D01*
Y5760344D01*
X9389656Y5713219D01*
X9342531Y5878157D02*
X9271843Y5807469D01*
X9342531D01*
X9295406Y5854594D01*
X10577875Y6244250D02*
Y6267813D01*
X10554312Y6291375D01*
X10530749D01*
X10483624Y6244250D01*
Y6220688D01*
X10507187Y6197125D01*
X10530749D01*
X10601437Y6220688D02*
X10625000D01*
X10648563Y6197125D01*
X10648562Y6173562D01*
X10636781Y6161781D01*
X10613219D01*
X10613219Y6138218D01*
X10601437Y6126437D01*
X10577875D01*
X10554312Y6150000D01*
Y6173562D01*
X10566093Y6185343D01*
X10589656D01*
X10589656Y6208906D01*
X10601437Y6220688D01*
X10589656Y6185343D02*
X10613219Y6161781D01*
X10672125Y6150000D02*
X10695688D01*
X10719251Y6126437D01*
X10719250Y6102875D01*
X10672125Y6055749D01*
X10648563Y6055749D01*
X10625000Y6079312D01*
Y6102875D01*
X10672125Y6150000D01*
X10683907Y6020405D02*
X10707469Y5996842D01*
X10695688Y6008624D01*
X10766376Y6079312D01*
X10742813D01*
X10631031Y6408906D02*
X10654594D01*
X10678156Y6432468D01*
Y6456031D01*
X10631031Y6503156D01*
X10607469D01*
X10583906Y6479594D01*
Y6456031D01*
X10607469Y6385343D02*
Y6361780D01*
X10583906Y6338218D01*
X10560344Y6338218D01*
X10548562Y6349999D01*
Y6373562D01*
X10525000Y6373562D01*
X10513218Y6385343D01*
Y6408906D01*
X10536781Y6432468D01*
X10560344D01*
X10572125Y6420687D01*
Y6397124D01*
X10595687Y6397124D01*
X10607469Y6385343D01*
X10572125Y6397124D02*
X10548562Y6373562D01*
X10536781Y6314655D02*
Y6291092D01*
X10513218Y6267530D01*
X10489656Y6267530D01*
X10442531Y6314655D01*
X10442530Y6338218D01*
X10466093Y6361780D01*
X10489656D01*
X10536781Y6314655D01*
X10466093Y6243967D02*
Y6220404D01*
X10442530Y6196842D01*
X10418968Y6196842D01*
X10407186Y6208623D01*
Y6232186D01*
X10418968Y6243967D01*
X10407186Y6232186D01*
X10383624D01*
X10371843Y6243967D01*
X10371842Y6267530D01*
X10395405Y6291092D01*
X10418968D01*
X10858906Y6118968D02*
Y6095405D01*
X10882469Y6071843D01*
X10906032D01*
X10953157Y6118968D01*
Y6142531D01*
X10929594Y6166093D01*
X10906032D01*
X10835344Y6142531D02*
X10811781D01*
X10788218Y6166093D01*
X10788219Y6189656D01*
X10800000Y6201437D01*
X10823562D01*
X10823563Y6225000D01*
X10835344Y6236781D01*
X10858906D01*
X10882469Y6213218D01*
Y6189656D01*
X10870688Y6177875D01*
X10847125D01*
X10847125Y6154312D01*
X10835344Y6142531D01*
X10847125Y6177875D02*
X10823562Y6201437D01*
X10764656Y6213218D02*
X10741093D01*
X10717531Y6236781D01*
X10717531Y6260344D01*
X10764656Y6307469D01*
X10788218Y6307469D01*
X10811781Y6283906D01*
Y6260344D01*
X10764656Y6213218D01*
X10705749Y6389938D02*
X10752874Y6342813D01*
X10658624D01*
X10646843Y6331032D01*
X10646843Y6307469D01*
X10670405Y6283906D01*
X10693968D01*
X10634988Y3900073D02*
X10611425D01*
X10587863Y3876511D01*
Y3852948D01*
X10634988Y3805823D01*
X10658550D01*
X10682113Y3829386D01*
Y3852948D01*
X10646769Y3935418D02*
X10693894Y3982543D01*
X10705676Y3970761D01*
Y3876511D01*
X10717457Y3864730D01*
X10729238Y3994324D02*
Y4017887D01*
X10752801Y4041449D01*
X10776364Y4041449D01*
X10823489Y3994324D01*
X10823489Y3970761D01*
X10799926Y3947199D01*
X10776364D01*
X10729238Y3994324D01*
X10835270Y4123918D02*
X10788145Y4076793D01*
X10823489Y4041449D01*
X10835270Y4076793D01*
X10847052Y4088574D01*
X10870614D01*
X10894177Y4065012D01*
X10894177Y4041449D01*
X10870614Y4017887D01*
X10847051D01*
X9215012Y4499926D02*
X9238574D01*
X9262137Y4523489D01*
Y4547052D01*
X9215012Y4594177D01*
X9191449D01*
X9167886Y4570614D01*
Y4547052D01*
X9203230Y4464582D02*
X9156105Y4417457D01*
X9144324Y4429239D01*
Y4523489D01*
X9132542Y4535270D01*
X9120761Y4405676D02*
Y4382113D01*
X9097198Y4358550D01*
X9073636Y4358551D01*
X9026511Y4405676D01*
X9026511Y4429238D01*
X9050073Y4452801D01*
X9073636D01*
X9120761Y4405676D01*
X8955823Y4358550D02*
X9026511Y4287862D01*
Y4358550D01*
X8979385Y4311425D01*
X10849926Y4284988D02*
Y4261426D01*
X10873489Y4237863D01*
X10897051D01*
X10944176Y4284988D01*
Y4308551D01*
X10920614Y4332114D01*
X10897051D01*
X10814582Y4296770D02*
X10767457Y4343895D01*
X10779238Y4355676D01*
X10873489D01*
X10885270Y4367458D01*
X10755675Y4379239D02*
X10732113D01*
X10708550Y4402801D01*
X10708550Y4426364D01*
X10755675Y4473489D01*
X10779238Y4473489D01*
X10802801Y4449927D01*
Y4426364D01*
X10755675Y4379239D01*
X10626081Y4485271D02*
X10661425Y4473489D01*
X10708550D01*
X10732113Y4497052D01*
Y4520615D01*
X10708550Y4544177D01*
X10684988Y4544177D01*
X10673206Y4532396D01*
Y4508834D01*
X10708550Y4473489D01*
X9763157Y4957531D02*
X9692469Y4886843D01*
X9657125Y4922187D01*
Y4945750D01*
X9680688Y4969312D01*
X9704251D01*
X9739594Y4933968D01*
X9716032Y4957531D02*
Y5004656D01*
X9633563Y4969312D02*
X9610000D01*
X9586437Y4992875D01*
X9586438Y5016437D01*
X9598219Y5028219D01*
X9621781D01*
X9621781Y5051781D01*
X9633563Y5063563D01*
X9657125D01*
X9680688Y5040000D01*
Y5016437D01*
X9668906Y5004656D01*
X9645344D01*
X9645344Y4981094D01*
X9633563Y4969312D01*
X9645344Y5004656D02*
X9621781Y5028219D01*
X9562875Y5040000D02*
X9539312D01*
X9515749Y5063563D01*
X9515750Y5087125D01*
X9562875Y5134250D01*
X9586437Y5134251D01*
X9610000Y5110688D01*
Y5087125D01*
X9562875Y5040000D01*
X9551093Y5169595D02*
X9527531Y5193157D01*
X9539312Y5181376D01*
X9468624Y5110688D01*
X9492187D01*
X9359121Y4644036D02*
X9382684D01*
X9406247Y4667598D01*
Y4691161D01*
X9359121Y4738286D01*
X9335559D01*
X9311996Y4714724D01*
Y4691161D01*
X9347340Y4608692D02*
X9300215Y4561567D01*
X9288434Y4573348D01*
Y4667598D01*
X9276652Y4679380D01*
X9205964Y4608692D02*
X9182402Y4585129D01*
X9194183Y4596911D01*
X9264871Y4526223D01*
Y4549785D01*
X9205964Y4490879D02*
Y4467316D01*
X9182402Y4443754D01*
X9158839D01*
X9147058Y4455535D01*
Y4479097D01*
X9158839Y4490879D01*
X9147058Y4479097D01*
X9123495Y4479098D01*
X9111714Y4490879D01*
X9111714Y4514441D01*
X9135276Y4538004D01*
X9158839D01*
X9620074Y3535012D02*
Y3558575D01*
X9596511Y3582137D01*
X9572948D01*
X9525823Y3535012D01*
Y3511449D01*
X9549386Y3487887D01*
X9572948D01*
X9655418Y3523231D02*
X9702543Y3476106D01*
X9690761Y3464324D01*
X9596511D01*
X9584730Y3452543D01*
X9714324Y3440761D02*
X9737887D01*
X9761450Y3417199D01*
X9761449Y3393636D01*
X9714324Y3346511D01*
X9690762Y3346511D01*
X9667199Y3370074D01*
Y3393636D01*
X9714324Y3440761D01*
X9773231Y3264042D02*
X9726106Y3311167D01*
X9820356D01*
X9832137Y3322948D01*
X9832138Y3346511D01*
X9808575Y3370074D01*
X9785012D01*
X8699379Y3845417D02*
X8628691Y3916105D01*
X8664035Y3951449D01*
X8687597D01*
X8711160Y3927886D01*
Y3904323D01*
X8675816Y3868979D01*
X8699379Y3892542D02*
X8746504D01*
X8711160Y3975011D02*
Y3998574D01*
X8734722Y4022136D01*
X8758285Y4022136D01*
X8770067Y4010355D01*
Y3986793D01*
X8793629Y3986792D01*
X8805410Y3975011D01*
Y3951449D01*
X8781848Y3927886D01*
X8758285D01*
X8746504Y3939667D01*
Y3963230D01*
X8722941Y3963230D01*
X8711160Y3975011D01*
X8746504Y3963230D02*
X8770067Y3986793D01*
X8781848Y4045699D02*
Y4069262D01*
X8805410Y4092824D01*
X8828973Y4092824D01*
X8876098Y4045699D01*
X8876098Y4022136D01*
X8852536Y3998574D01*
X8828973D01*
X8781848Y4045699D01*
X8946786Y4092824D02*
X8876098Y4163512D01*
Y4092824D01*
X8923223Y4139950D01*
X8814413Y4266789D02*
Y4290352D01*
X8790851Y4313914D01*
X8767288D01*
X8720163Y4266789D01*
Y4243226D01*
X8743725Y4219664D01*
X8767288D01*
X8837976Y4243226D02*
X8861539D01*
X8885101Y4219664D01*
X8885101Y4196101D01*
X8873320Y4184320D01*
X8849758D01*
X8849757Y4160757D01*
X8837976Y4148976D01*
X8814413D01*
X8790851Y4172539D01*
Y4196101D01*
X8802632Y4207882D01*
X8826195D01*
X8826195Y4231445D01*
X8837976Y4243226D01*
X8826195Y4207882D02*
X8849758Y4184320D01*
X8908664Y4172539D02*
X8932227D01*
X8955789Y4148976D01*
X8955789Y4125413D01*
X8908664Y4078288D01*
X8885101Y4078288D01*
X8861539Y4101851D01*
Y4125413D01*
X8908664Y4172539D01*
X8932227Y4054725D02*
Y4031163D01*
X8955789Y4007600D01*
X8979352Y4007600D01*
X9026477Y4054725D01*
X9026477Y4078288D01*
X9002915Y4101851D01*
X8979352D01*
X8967571Y4090069D01*
Y4066507D01*
X9002914Y4031163D01*
X8911510Y3633285D02*
X8840822Y3703973D01*
X8876166Y3739317D01*
X8899729D01*
X8923292Y3715755D01*
Y3692192D01*
X8887948Y3656848D01*
X8911510Y3680410D02*
X8958635D01*
X8923292Y3762880D02*
Y3786443D01*
X8946854Y3810005D01*
X8970417Y3810005D01*
X8982198Y3798224D01*
Y3774661D01*
X9005761Y3774661D01*
X9017542Y3762880D01*
Y3739317D01*
X8993979Y3715755D01*
X8970417D01*
X8958636Y3727536D01*
Y3751099D01*
X8935073Y3751098D01*
X8923292Y3762880D01*
X8958636Y3751099D02*
X8982198Y3774661D01*
X8993979Y3833568D02*
Y3857130D01*
X9017542Y3880693D01*
X9041105Y3880693D01*
X9088230Y3833568D01*
X9088230Y3810005D01*
X9064667Y3786443D01*
X9041105D01*
X8993979Y3833568D01*
X9100011Y3963162D02*
X9088230Y3927818D01*
Y3880693D01*
X9111793Y3857130D01*
X9135355D01*
X9158918Y3880693D01*
X9158918Y3904256D01*
X9147137Y3916037D01*
X9123574D01*
X9088230Y3880693D01*
X9197109Y3753922D02*
Y3730359D01*
X9220672Y3706797D01*
X9244234D01*
X9291360Y3753922D01*
Y3777484D01*
X9267797Y3801047D01*
X9244234D01*
X9173547Y3777484D02*
X9149984D01*
X9126421Y3801047D01*
X9126421Y3824610D01*
X9138203Y3836391D01*
X9161765D01*
X9161765Y3859954D01*
X9173547Y3871735D01*
X9197109D01*
X9220672Y3848172D01*
Y3824610D01*
X9208890Y3812829D01*
X9185328D01*
X9185328Y3789266D01*
X9173547Y3777484D01*
X9185328Y3812829D02*
X9161765Y3836391D01*
X9102859Y3848172D02*
X9079296D01*
X9055733Y3871735D01*
X9055733Y3895298D01*
X9102859Y3942423D01*
X9126421Y3942423D01*
X9149984Y3918860D01*
Y3895298D01*
X9102859Y3848172D01*
X9020389Y3907079D02*
X8973264Y3954204D01*
X8985046Y3965985D01*
X9079296D01*
X9091077Y3977767D01*
X8840800Y3703996D02*
X8770112Y3774684D01*
X8805456Y3810027D01*
X8829018D01*
X8852581Y3786465D01*
Y3762902D01*
X8817237Y3727558D01*
X8840800Y3751121D02*
X8887925D01*
X8852581Y3833590D02*
Y3857153D01*
X8876144Y3880715D01*
X8899706Y3880715D01*
X8911488Y3868934D01*
Y3845372D01*
X8935050Y3845371D01*
X8946831Y3833590D01*
Y3810027D01*
X8923269Y3786465D01*
X8899706D01*
X8887925Y3798246D01*
Y3821809D01*
X8864363Y3821809D01*
X8852581Y3833590D01*
X8887925Y3821809D02*
X8911488Y3845372D01*
X8923269Y3904278D02*
Y3927841D01*
X8946831Y3951403D01*
X8970394Y3951403D01*
X9017519Y3904278D01*
X9017519Y3880715D01*
X8993957Y3857153D01*
X8970394D01*
X8923269Y3904278D01*
X9029301Y4033872D02*
X8982176Y3986747D01*
X9017519Y3951403D01*
X9029301Y3986747D01*
X9041082Y3998528D01*
X9064645D01*
X9088207Y3974966D01*
X9088207Y3951403D01*
X9064645Y3927841D01*
X9041082D01*
X8955835Y4125367D02*
Y4148930D01*
X8932272Y4172493D01*
X8908709D01*
X8861584Y4125367D01*
Y4101805D01*
X8885147Y4078242D01*
X8908709D01*
X8979397Y4101805D02*
X9002960D01*
X9026522Y4078242D01*
X9026522Y4054680D01*
X9014741Y4042898D01*
X8991179D01*
X8991178Y4019336D01*
X8979397Y4007554D01*
X8955835D01*
X8932272Y4031117D01*
Y4054680D01*
X8944053Y4066461D01*
X8967616D01*
X8967616Y4090023D01*
X8979397Y4101805D01*
X8967616Y4066461D02*
X8991179Y4042898D01*
X9050085Y4031117D02*
X9073648D01*
X9097210Y4007554D01*
X9097210Y3983992D01*
X9050085Y3936867D01*
X9026522Y3936866D01*
X9002960Y3960429D01*
Y3983992D01*
X9050085Y4031117D01*
X9120773Y3960429D02*
X9144336D01*
X9167898Y3936866D01*
X9167898Y3913304D01*
X9156117Y3901522D01*
X9132554D01*
Y3877960D01*
X9120773Y3866179D01*
X9097210Y3866178D01*
X9073648Y3889741D01*
Y3913304D01*
X9085429Y3925085D01*
X9108992D01*
Y3948648D01*
X9120773Y3960429D01*
X9108992Y3925085D02*
X9132554Y3901522D01*
X10224926Y4884988D02*
Y4861425D01*
X10248488Y4837863D01*
X10272051D01*
X10319176Y4884988D01*
Y4908550D01*
X10295614Y4932113D01*
X10272051D01*
X10189582Y4896769D02*
X10142456Y4943894D01*
X10154238Y4955675D01*
X10248488D01*
X10260270Y4967457D01*
X10130675Y4979238D02*
X10107112D01*
X10083550Y5002801D01*
X10083550Y5026363D01*
X10130675Y5073488D01*
X10154238Y5073489D01*
X10177800Y5049926D01*
Y5026363D01*
X10130675Y4979238D01*
X10059987Y5049926D02*
X10036424D01*
X10012862Y5073489D01*
X10012862Y5097051D01*
X10024643Y5108833D01*
X10048206D01*
X10059987Y5097051D01*
X10048206Y5108833D01*
Y5132395D01*
X10059987Y5144176D01*
X10083550Y5144177D01*
X10107112Y5120614D01*
Y5097051D01*
X10144250Y5764938D02*
X10214938Y5694250D01*
X10179594Y5658907D01*
X10156032D01*
X10132469Y5682469D01*
Y5706032D01*
X10167813Y5741376D01*
X10144250Y5717813D02*
X10097125D01*
X10132469Y5635344D02*
Y5611781D01*
X10108907Y5588219D01*
X10085344Y5588219D01*
X10073563Y5600000D01*
Y5623563D01*
X10050000Y5623563D01*
X10038219Y5635344D01*
Y5658907D01*
X10061781Y5682469D01*
X10085344D01*
X10097125Y5670688D01*
Y5647125D01*
X10120688Y5647125D01*
X10132469Y5635344D01*
X10097125Y5647125D02*
X10073563Y5623563D01*
X10061781Y5564656D02*
Y5541093D01*
X10038219Y5517531D01*
X10014656Y5517531D01*
X9967531Y5564656D01*
X9967531Y5588219D01*
X9991093Y5611781D01*
X10014656D01*
X10061781Y5564656D01*
X9991093Y5493968D02*
Y5470405D01*
X9967531Y5446843D01*
X9943968Y5446843D01*
X9932187Y5458624D01*
Y5482187D01*
X9943968Y5493968D01*
X9932187Y5482187D01*
X9908624D01*
X9896843Y5493968D01*
X9896843Y5517531D01*
X9920405Y5541093D01*
X9943968D01*
X9460062Y5694250D02*
X9530750Y5764938D01*
X9566093Y5729594D01*
Y5706032D01*
X9542531Y5682469D01*
X9518968D01*
X9483624Y5717813D01*
X9507187Y5694250D02*
Y5647125D01*
X9589656Y5682469D02*
X9613219D01*
X9636781Y5658907D01*
X9636781Y5635344D01*
X9625000Y5623563D01*
X9601437D01*
X9601437Y5600000D01*
X9589656Y5588219D01*
X9566093D01*
X9542531Y5611781D01*
Y5635344D01*
X9554312Y5647125D01*
X9577875D01*
X9577875Y5670688D01*
X9589656Y5682469D01*
X9577875Y5647125D02*
X9601437Y5623563D01*
X9660344Y5611781D02*
X9683907D01*
X9707469Y5588219D01*
X9707469Y5564656D01*
X9660344Y5517531D01*
X9636781Y5517531D01*
X9613219Y5541093D01*
Y5564656D01*
X9660344Y5611781D01*
X9719251Y5435062D02*
X9672125Y5482187D01*
X9766376D01*
X9778157Y5493968D01*
X9778157Y5517531D01*
X9754595Y5541093D01*
X9731032D01*
X9250141Y4728016D02*
X9273704D01*
X9297266Y4751579D01*
Y4775141D01*
X9250141Y4822266D01*
X9226578D01*
X9203016Y4798704D01*
Y4775141D01*
X9238360Y4692672D02*
X9191235Y4645547D01*
X9179453Y4657328D01*
Y4751579D01*
X9167672Y4763360D01*
X9096984Y4692672D02*
X9073421Y4669109D01*
X9085203Y4680891D01*
X9155891Y4610203D01*
Y4633765D01*
X8990952Y4586640D02*
X9038077Y4633765D01*
Y4539515D01*
X9049859Y4527734D01*
X9073421D01*
X9096984Y4551296D01*
Y4574859D01*
X9091376Y4720688D02*
X9138501Y4767813D01*
X9103157Y4803157D01*
X9079594Y4779594D01*
X9103157Y4803157D01*
X9067813Y4838501D01*
Y4697125D02*
X8997125Y4767813D01*
X8961781Y4732469D01*
Y4708906D01*
X8973563Y4697125D01*
X8997125Y4697125D01*
X9032469Y4732469D01*
X8997125Y4697125D01*
Y4673562D01*
X9008907Y4661781D01*
X9032469Y4661781D01*
X9067813Y4697125D01*
X8997125Y4626437D02*
X8950000Y4579312D01*
X8938219Y4591093D01*
Y4685343D01*
X8926437Y4697125D01*
X8914656Y4567530D02*
Y4543968D01*
X8891093Y4520405D01*
X8867531Y4520405D01*
X8820406Y4567530D01*
X8820406Y4591093D01*
X8843968Y4614655D01*
X8867531D01*
X8914656Y4567530D01*
X8785062Y4555749D02*
X8761499Y4532187D01*
X8773280Y4543968D01*
X8843968Y4473280D01*
Y4496842D01*
X12016677Y5936757D02*
X12000016Y5953419D01*
Y5986741D01*
X12016677Y6003403D01*
X12033338D01*
X12066661Y5970080D01*
X12083322D02*
X12099983D01*
Y6036725D02*
X12000016D01*
Y6086709D01*
X12016677Y6103370D01*
X12050000D01*
X12066661Y6086709D01*
Y6036725D01*
Y6070048D02*
X12099983Y6103370D01*
Y6203338D02*
Y6136693D01*
X12033338Y6203338D01*
X12016677D01*
X12000016Y6186677D01*
Y6153354D01*
X12016677Y6136693D01*
Y6236661D02*
X12000016Y6253322D01*
Y6286645D01*
X12016677Y6303306D01*
X12033338D01*
X12050000Y6286645D01*
Y6269983D01*
Y6286645D01*
X12066661Y6303306D01*
X12083322D01*
X12099983Y6286645D01*
Y6253322D01*
X12083322Y6236661D01*
X12016677Y6336629D02*
X12000016Y6353290D01*
Y6386613D01*
X12016677Y6403274D01*
X12083322D01*
X12099983Y6386613D01*
Y6353290D01*
X12083322Y6336629D01*
X12016677D01*
X12000016Y6503242D02*
X12016677Y6469919D01*
X12050000Y6436596D01*
X12083322D01*
X12099983Y6453258D01*
Y6486580D01*
X12083322Y6503242D01*
X12066661D01*
X12050000Y6486580D01*
Y6436596D01*
X11966742Y6007684D02*
Y5907716D01*
X12016726D01*
X12033387Y5924377D01*
Y5991022D01*
X12016726Y6007684D01*
X11966742D01*
X12133354Y5907716D02*
X12066709D01*
X12133354Y5974361D01*
Y5991022D01*
X12116693Y6007684D01*
X12083371D01*
X12066709Y5991022D01*
X12166677D02*
X12183339Y6007684D01*
X12216661D01*
X12233322Y5991022D01*
Y5974361D01*
X12216661Y5957700D01*
X12200000D01*
X12216661D01*
X12233322Y5941038D01*
Y5924377D01*
X12216661Y5907716D01*
X12183339D01*
X12166677Y5924377D01*
X12266645Y5991022D02*
X12283306Y6007684D01*
X12316629D01*
X12333290Y5991022D01*
Y5924377D01*
X12316629Y5907716D01*
X12283306D01*
X12266645Y5924377D01*
Y5991022D01*
X12433258Y6007684D02*
X12366613D01*
Y5957700D01*
X12399935Y5974361D01*
X12416597D01*
X12433258Y5957700D01*
Y5924377D01*
X12416597Y5907716D01*
X12383274D01*
X12366613Y5924377D01*
X10127683Y3243258D02*
X10027716D01*
Y3193275D01*
X10044377Y3176613D01*
X10111022D01*
X10127683Y3193275D01*
Y3243258D01*
X10027716Y3076646D02*
Y3143291D01*
X10094361Y3076646D01*
X10111022D01*
X10127683Y3093307D01*
Y3126629D01*
X10111022Y3143291D01*
Y3043323D02*
X10127683Y3026661D01*
Y2993339D01*
X10111022Y2976678D01*
X10094361D01*
X10077699Y2993339D01*
Y3010000D01*
Y2993339D01*
X10061038Y2976678D01*
X10044377D01*
X10027716Y2993339D01*
Y3026661D01*
X10044377Y3043323D01*
X10111022Y2943355D02*
X10127683Y2926694D01*
Y2893371D01*
X10111022Y2876710D01*
X10044377D01*
X10027716Y2893371D01*
Y2926694D01*
X10044377Y2943355D01*
X10111022D01*
X10027716Y2776742D02*
Y2843387D01*
X10094361Y2776742D01*
X10111022D01*
X10127683Y2793403D01*
Y2826726D01*
X10111022Y2843387D01*
X9705016Y3453259D02*
X9804984D01*
Y3403275D01*
X9788323Y3386613D01*
X9755000D01*
X9738339Y3403275D01*
Y3453259D01*
Y3419936D02*
X9705016Y3386613D01*
Y3286646D02*
Y3353291D01*
X9771661Y3286646D01*
X9788323D01*
X9804984Y3303307D01*
Y3336629D01*
X9788323Y3353291D01*
Y3253323D02*
X9804984Y3236662D01*
Y3203339D01*
X9788323Y3186678D01*
X9771661D01*
X9755000Y3203339D01*
Y3220000D01*
Y3203339D01*
X9738339Y3186678D01*
X9721678D01*
X9705016Y3203339D01*
Y3236662D01*
X9721678Y3253323D01*
X9788323Y3153355D02*
X9804984Y3136694D01*
Y3103371D01*
X9788323Y3086710D01*
X9721678D01*
X9705016Y3103371D01*
Y3136694D01*
X9721678Y3153355D01*
X9788323D01*
Y3053387D02*
X9804984Y3036726D01*
Y3003403D01*
X9788323Y2986742D01*
X9771661D01*
X9755000Y3003403D01*
Y3020065D01*
Y3003403D01*
X9738339Y2986742D01*
X9721678D01*
X9705016Y3003403D01*
Y3036726D01*
X9721678Y3053387D01*
X9817684Y3253258D02*
X9717716D01*
Y3203275D01*
X9734378Y3186613D01*
X9801023D01*
X9817684Y3203275D01*
Y3253258D01*
X9717716Y3086646D02*
Y3153291D01*
X9784361Y3086646D01*
X9801023D01*
X9817684Y3103307D01*
Y3136629D01*
X9801023Y3153291D01*
Y3053323D02*
X9817684Y3036661D01*
Y3003339D01*
X9801023Y2986678D01*
X9784361D01*
X9767700Y3003339D01*
Y3020000D01*
Y3003339D01*
X9751039Y2986678D01*
X9734378D01*
X9717716Y3003339D01*
Y3036661D01*
X9734378Y3053323D01*
X9801023Y2953355D02*
X9817684Y2936694D01*
Y2903371D01*
X9801023Y2886710D01*
X9734378D01*
X9717716Y2903371D01*
Y2936694D01*
X9734378Y2953355D01*
X9801023D01*
Y2853387D02*
X9817684Y2836726D01*
Y2803403D01*
X9801023Y2786742D01*
X9784361D01*
X9767700Y2803403D01*
Y2820065D01*
Y2803403D01*
X9751039Y2786742D01*
X9734378D01*
X9717716Y2803403D01*
Y2836726D01*
X9734378Y2853387D01*
X11900016Y6453258D02*
X11999983D01*
Y6403274D01*
X11983322Y6386613D01*
X11949999D01*
X11933338Y6403274D01*
Y6453258D01*
Y6419935D02*
X11900016Y6386613D01*
Y6286645D02*
Y6353290D01*
X11966661Y6286645D01*
X11983322D01*
X11999983Y6303306D01*
Y6336628D01*
X11983322Y6353290D01*
Y6253322D02*
X11999983Y6236661D01*
Y6203338D01*
X11983322Y6186677D01*
X11966661D01*
X11949999Y6203338D01*
Y6219999D01*
Y6203338D01*
X11933338Y6186677D01*
X11916677D01*
X11900016Y6203338D01*
Y6236661D01*
X11916677Y6253322D01*
X11983322Y6153354D02*
X11999983Y6136693D01*
Y6103370D01*
X11983322Y6086709D01*
X11916677D01*
X11900016Y6103370D01*
Y6136693D01*
X11916677Y6153354D01*
X11983322D01*
X11999983Y5986741D02*
Y6053386D01*
X11949999D01*
X11966661Y6020064D01*
Y6003403D01*
X11949999Y5986741D01*
X11916677D01*
X11900016Y6003403D01*
Y6036725D01*
X11916677Y6053386D01*
X10170016Y3443258D02*
X10269984D01*
Y3393274D01*
X10253323Y3376613D01*
X10220000D01*
X10203339Y3393274D01*
Y3443258D01*
Y3409935D02*
X10170016Y3376613D01*
Y3276645D02*
Y3343290D01*
X10236661Y3276645D01*
X10253323D01*
X10269984Y3293306D01*
Y3326629D01*
X10253323Y3343290D01*
Y3243322D02*
X10269984Y3226661D01*
Y3193338D01*
X10253323Y3176677D01*
X10236661D01*
X10220000Y3193338D01*
Y3210000D01*
Y3193338D01*
X10203339Y3176677D01*
X10186678D01*
X10170016Y3193338D01*
Y3226661D01*
X10186678Y3243322D01*
X10253323Y3143354D02*
X10269984Y3126693D01*
Y3093370D01*
X10253323Y3076709D01*
X10186678D01*
X10170016Y3093370D01*
Y3126693D01*
X10186678Y3143354D01*
X10253323D01*
X10170016Y2993403D02*
X10269984D01*
X10220000Y3043387D01*
Y2976742D01*
X11833387Y3721023D02*
X11816726Y3737684D01*
X11783403D01*
X11766742Y3721023D01*
Y3654378D01*
X11783403Y3637716D01*
X11816726D01*
X11833387Y3654378D01*
X11933355Y3637716D02*
X11866710D01*
X11933355Y3704361D01*
Y3721023D01*
X11916693Y3737684D01*
X11883371D01*
X11866710Y3721023D01*
X12033322Y3637716D02*
X11966677D01*
X12033322Y3704361D01*
Y3721023D01*
X12016661Y3737684D01*
X11983339D01*
X11966677Y3721023D01*
X12066645D02*
X12083307Y3737684D01*
X12116629D01*
X12133290Y3721023D01*
Y3654378D01*
X12116629Y3637716D01*
X12083307D01*
X12066645Y3654378D01*
Y3721023D01*
X12233258Y3637716D02*
X12166613D01*
X12233258Y3704361D01*
Y3721023D01*
X12216597Y3737684D01*
X12183274D01*
X12166613Y3721023D01*
X11850048Y3858322D02*
X11833387Y3874984D01*
X11800065D01*
X11783403Y3858322D01*
Y3791677D01*
X11800065Y3775016D01*
X11833387D01*
X11850048Y3791677D01*
X11950016Y3775016D02*
X11883371D01*
X11950016Y3841661D01*
Y3858322D01*
X11933355Y3874984D01*
X11900033D01*
X11883371Y3858322D01*
X12049984Y3775016D02*
X11983339D01*
X12049984Y3841661D01*
Y3858322D01*
X12033323Y3874984D01*
X12000000D01*
X11983339Y3858322D01*
X12083307D02*
X12099968Y3874984D01*
X12133291D01*
X12149952Y3858322D01*
Y3791677D01*
X12133291Y3775016D01*
X12099968D01*
X12083307Y3791677D01*
Y3858322D01*
X12183275Y3775016D02*
X12216597D01*
X12199936D01*
Y3874984D01*
X12183275Y3858322D01*
X12733257Y3675016D02*
Y3774983D01*
X12683274D01*
X12666612Y3758322D01*
Y3691677D01*
X12683274Y3675016D01*
X12733257D01*
X12566645Y3774983D02*
X12633290D01*
X12566645Y3708338D01*
Y3691677D01*
X12583306Y3675016D01*
X12616628D01*
X12633290Y3691677D01*
X12466677Y3774983D02*
X12533322D01*
X12466677Y3708338D01*
Y3691677D01*
X12483338Y3675016D01*
X12516661D01*
X12533322Y3691677D01*
X12433354D02*
X12416693Y3675016D01*
X12383370D01*
X12366709Y3691677D01*
Y3758322D01*
X12383370Y3774983D01*
X12416693D01*
X12433354Y3758322D01*
Y3691677D01*
X12266741Y3774983D02*
X12333386D01*
X12266741Y3708338D01*
Y3691677D01*
X12283402Y3675016D01*
X12316725D01*
X12333386Y3691677D01*
X12008403Y3774984D02*
Y3675016D01*
X12058387D01*
X12075048Y3691677D01*
Y3758322D01*
X12058387Y3774984D01*
X12008403D01*
X12175016Y3675016D02*
X12108371D01*
X12175016Y3741661D01*
Y3758322D01*
X12158355Y3774984D01*
X12125032D01*
X12108371Y3758322D01*
X12274984Y3675016D02*
X12208339D01*
X12274984Y3741661D01*
Y3758322D01*
X12258323Y3774984D01*
X12225000D01*
X12208339Y3758322D01*
X12308307D02*
X12324968Y3774984D01*
X12358290D01*
X12374952Y3758322D01*
Y3691677D01*
X12358290Y3675016D01*
X12324968D01*
X12308307Y3691677D01*
Y3758322D01*
X12408274Y3675016D02*
X12441597D01*
X12424936D01*
Y3774984D01*
X12408274Y3758322D01*
X11883282Y3791677D02*
X11899943Y3775016D01*
X11933266D01*
X11949927Y3791677D01*
Y3858322D01*
X11933266Y3874984D01*
X11899943D01*
X11883282Y3858322D01*
X11849960Y3874984D02*
X11816637D01*
X11833298D01*
Y3775016D01*
X11849960Y3791677D01*
X11766653D02*
X11749992Y3775016D01*
X11716669D01*
X11700008Y3791677D01*
Y3808339D01*
X11716669Y3825000D01*
X11733331D01*
X11716669D01*
X11700008Y3841661D01*
Y3858322D01*
X11716669Y3874984D01*
X11749992D01*
X11766653Y3858322D01*
X11666685Y3791677D02*
X11650024Y3775016D01*
X11616701D01*
X11600040Y3791677D01*
Y3858322D01*
X11616701Y3874984D01*
X11650024D01*
X11666685Y3858322D01*
Y3791677D01*
X11500073Y3874984D02*
X11566718D01*
X11500073Y3808339D01*
Y3791677D01*
X11516734Y3775016D01*
X11550056D01*
X11566718Y3791677D01*
X11949927Y3724983D02*
Y3625016D01*
X11899943D01*
X11883282Y3641677D01*
Y3675000D01*
X11899943Y3691661D01*
X11949927D01*
X11916605D02*
X11883282Y3724983D01*
X11849960D02*
X11816637D01*
X11833298D01*
Y3625016D01*
X11849960Y3641677D01*
X11766653D02*
X11749992Y3625016D01*
X11716669D01*
X11700008Y3641677D01*
Y3658338D01*
X11716669Y3675000D01*
X11733331D01*
X11716669D01*
X11700008Y3691661D01*
Y3708322D01*
X11716669Y3724983D01*
X11749992D01*
X11766653Y3708322D01*
X11666685Y3641677D02*
X11650024Y3625016D01*
X11616701D01*
X11600040Y3641677D01*
Y3708322D01*
X11616701Y3724983D01*
X11650024D01*
X11666685Y3708322D01*
Y3641677D01*
X11566718D02*
X11550056Y3625016D01*
X11516734D01*
X11500073Y3641677D01*
Y3658338D01*
X11516734Y3675000D01*
X11533395D01*
X11516734D01*
X11500073Y3691661D01*
Y3708322D01*
X11516734Y3724983D01*
X11550056D01*
X11566718Y3708322D01*
X7599927Y4774984D02*
Y4675016D01*
X7549943D01*
X7533282Y4691677D01*
Y4725000D01*
X7549943Y4741661D01*
X7599927D01*
X7566605D02*
X7533282Y4774984D01*
X7499960D02*
X7466637D01*
X7483298D01*
Y4675016D01*
X7499960Y4691677D01*
X7350008Y4675016D02*
X7416653D01*
Y4725000D01*
X7383331Y4708339D01*
X7366669D01*
X7350008Y4725000D01*
Y4758322D01*
X7366669Y4774984D01*
X7399992D01*
X7416653Y4758322D01*
X7316685Y4691677D02*
X7300024Y4675016D01*
X7266701D01*
X7250040Y4691677D01*
Y4758322D01*
X7266701Y4774984D01*
X7300024D01*
X7316685Y4758322D01*
Y4691677D01*
X7150073Y4675016D02*
X7183395Y4691677D01*
X7216718Y4725000D01*
Y4758322D01*
X7200056Y4774984D01*
X7166734D01*
X7150073Y4758322D01*
Y4741661D01*
X7166734Y4725000D01*
X7216718D01*
X7599927Y5099983D02*
Y5000016D01*
X7549943D01*
X7533282Y5016677D01*
Y5050000D01*
X7549943Y5066661D01*
X7599927D01*
X7566605D02*
X7533282Y5099983D01*
X7499960D02*
X7466637D01*
X7483298D01*
Y5000016D01*
X7499960Y5016677D01*
X7350008Y5000016D02*
X7416653D01*
Y5050000D01*
X7383331Y5033338D01*
X7366669D01*
X7350008Y5050000D01*
Y5083322D01*
X7366669Y5099983D01*
X7399992D01*
X7416653Y5083322D01*
X7316685Y5016677D02*
X7300024Y5000016D01*
X7266701D01*
X7250040Y5016677D01*
Y5083322D01*
X7266701Y5099983D01*
X7300024D01*
X7316685Y5083322D01*
Y5016677D01*
X7150073Y5000016D02*
X7216718D01*
Y5050000D01*
X7183395Y5033338D01*
X7166734D01*
X7150073Y5050000D01*
Y5083322D01*
X7166734Y5099983D01*
X7200056D01*
X7216718Y5083322D01*
X7599927Y5449984D02*
Y5350016D01*
X7549943D01*
X7533282Y5366678D01*
Y5400000D01*
X7549943Y5416662D01*
X7599927D01*
X7566605D02*
X7533282Y5449984D01*
X7499960D02*
X7466637D01*
X7483298D01*
Y5350016D01*
X7499960Y5366678D01*
X7350008Y5350016D02*
X7416653D01*
Y5400000D01*
X7383331Y5383339D01*
X7366669D01*
X7350008Y5400000D01*
Y5433323D01*
X7366669Y5449984D01*
X7399992D01*
X7416653Y5433323D01*
X7316685Y5366678D02*
X7300024Y5350016D01*
X7266701D01*
X7250040Y5366678D01*
Y5433323D01*
X7266701Y5449984D01*
X7300024D01*
X7316685Y5433323D01*
Y5366678D01*
X7166734Y5449984D02*
Y5350016D01*
X7216718Y5400000D01*
X7150073D01*
X7216718Y4671022D02*
X7200056Y4687684D01*
X7166734D01*
X7150073Y4671022D01*
Y4604377D01*
X7166734Y4587716D01*
X7200056D01*
X7216718Y4604377D01*
X7250040Y4587716D02*
X7283363D01*
X7266702D01*
Y4687684D01*
X7250040Y4671022D01*
X7399992Y4687684D02*
X7333347D01*
Y4637700D01*
X7366669Y4654361D01*
X7383331D01*
X7399992Y4637700D01*
Y4604377D01*
X7383331Y4587716D01*
X7350008D01*
X7333347Y4604377D01*
X7433315Y4671022D02*
X7449976Y4687684D01*
X7483298D01*
X7499960Y4671022D01*
Y4604377D01*
X7483298Y4587716D01*
X7449976D01*
X7433315Y4604377D01*
Y4671022D01*
X7599927Y4687684D02*
X7533282D01*
Y4637700D01*
X7566605Y4654361D01*
X7583266D01*
X7599927Y4637700D01*
Y4604377D01*
X7583266Y4587716D01*
X7549944D01*
X7533282Y4604377D01*
X7216718Y4996023D02*
X7200056Y5012684D01*
X7166734D01*
X7150073Y4996023D01*
Y4929377D01*
X7166734Y4912716D01*
X7200056D01*
X7216718Y4929377D01*
X7250040Y4912716D02*
X7283363D01*
X7266702D01*
Y5012684D01*
X7250040Y4996023D01*
X7399992Y5012684D02*
X7333347D01*
Y4962700D01*
X7366669Y4979361D01*
X7383331D01*
X7399992Y4962700D01*
Y4929377D01*
X7383331Y4912716D01*
X7350008D01*
X7333347Y4929377D01*
X7433315Y4996023D02*
X7449976Y5012684D01*
X7483298D01*
X7499960Y4996023D01*
Y4929377D01*
X7483298Y4912716D01*
X7449976D01*
X7433315Y4929377D01*
Y4996023D01*
X7583266Y4912716D02*
Y5012684D01*
X7533282Y4962700D01*
X7599927D01*
X7216718Y5546022D02*
X7200056Y5562684D01*
X7166734D01*
X7150073Y5546022D01*
Y5479377D01*
X7166734Y5462716D01*
X7200056D01*
X7216718Y5479377D01*
X7250040Y5462716D02*
X7283363D01*
X7266702D01*
Y5562684D01*
X7250040Y5546022D01*
X7399992Y5562684D02*
X7333347D01*
Y5512700D01*
X7366669Y5529361D01*
X7383331D01*
X7399992Y5512700D01*
Y5479377D01*
X7383331Y5462716D01*
X7350008D01*
X7333347Y5479377D01*
X7433315Y5546022D02*
X7449976Y5562684D01*
X7483298D01*
X7499960Y5546022D01*
Y5479377D01*
X7483298Y5462716D01*
X7449976D01*
X7433315Y5479377D01*
Y5546022D01*
X7533282D02*
X7549944Y5562684D01*
X7583266D01*
X7599927Y5546022D01*
Y5529361D01*
X7583266Y5512700D01*
X7566605D01*
X7583266D01*
X7599927Y5496039D01*
Y5479377D01*
X7583266Y5462716D01*
X7549944D01*
X7533282Y5479377D01*
X8938360Y4791235D02*
X8961922D01*
X8985485Y4814797D01*
Y4838360D01*
X8938360Y4885485D01*
X8914797D01*
X8891235Y4861922D01*
Y4838360D01*
X8926579Y4755890D02*
X8879453Y4708765D01*
X8867672Y4720547D01*
Y4814797D01*
X8855891Y4826578D01*
X8785203Y4755890D02*
X8761640Y4732328D01*
X8773421Y4744109D01*
X8844109Y4673421D01*
Y4696984D01*
X8726296D02*
X8702734Y4673421D01*
X8714515Y4685202D01*
X8785203Y4614515D01*
Y4638077D01*
X10947125Y4405750D02*
Y4382187D01*
X10970688Y4358625D01*
X10994251D01*
X11041376Y4405750D01*
Y4429312D01*
X11017813Y4452875D01*
X10994251D01*
X10911781Y4417531D02*
X10864656Y4464656D01*
X10876437Y4476437D01*
X10970688D01*
X10982469Y4488219D01*
X10852875Y4500000D02*
X10829312D01*
X10805749Y4523563D01*
X10805750Y4547125D01*
X10852875Y4594250D01*
X10876437Y4594251D01*
X10900000Y4570688D01*
Y4547125D01*
X10852875Y4500000D01*
X10841093Y4629595D02*
X10817531Y4653157D01*
X10829312Y4641376D01*
X10758624Y4570688D01*
X10782187D01*
X7550016Y3866613D02*
X7649984D01*
Y3816629D01*
X7633323Y3799968D01*
X7600000D01*
X7583339Y3816629D01*
Y3866613D01*
Y3833291D02*
X7550016Y3799968D01*
X7649984Y3766645D02*
Y3700000D01*
X7633323D01*
X7566678Y3766645D01*
X7550016D01*
X7633323Y3666677D02*
X7649984Y3650016D01*
Y3616694D01*
X7633323Y3600032D01*
X7566678D01*
X7550016Y3616694D01*
Y3650016D01*
X7566678Y3666677D01*
X7633323D01*
X7550016Y3566710D02*
Y3533387D01*
Y3550048D01*
X7649984D01*
X7633323Y3566710D01*
X10814938Y3730749D02*
X10744251Y3660062D01*
X10708907Y3695406D01*
Y3718968D01*
X10732469Y3742531D01*
X10756032D01*
X10791376Y3707187D01*
X10767813Y3730749D02*
Y3777875D01*
X10673563Y3730749D02*
X10626437Y3777875D01*
X10638219Y3789656D01*
X10732469D01*
X10744251Y3801437D01*
X10614656Y3813219D02*
X10591093D01*
X10567531Y3836781D01*
X10567531Y3860344D01*
X10614656Y3907469D01*
X10638219Y3907469D01*
X10661781Y3883907D01*
Y3860344D01*
X10614656Y3813219D01*
X10555750Y3989938D02*
X10602875Y3942813D01*
X10508624D01*
X10496843Y3931032D01*
X10496843Y3907469D01*
X10520405Y3883907D01*
X10543968D01*
X7653978Y3591702D02*
X7637316Y3575041D01*
Y3541718D01*
X7653978Y3525057D01*
X7720623D01*
X7737284Y3541718D01*
Y3575041D01*
X7720623Y3591702D01*
X7637316Y3625024D02*
Y3691670D01*
X7653978D01*
X7720623Y3625024D01*
X7737284D01*
Y3724992D02*
Y3758315D01*
Y3741654D01*
X7637316D01*
X7653978Y3724992D01*
X7637316Y3874944D02*
X7653978Y3841621D01*
X7687300Y3808299D01*
X7720623D01*
X7737284Y3824960D01*
Y3858283D01*
X7720623Y3874944D01*
X7703961D01*
X7687300Y3858283D01*
Y3808299D01*
X7508282Y4303977D02*
X7524943Y4287316D01*
X7558266D01*
X7574927Y4303977D01*
Y4370622D01*
X7558266Y4387283D01*
X7524943D01*
X7508282Y4370622D01*
X7474959Y4387283D02*
X7441637D01*
X7458298D01*
Y4287316D01*
X7474959Y4303977D01*
X7391653D02*
X7374991Y4287316D01*
X7341669D01*
X7325008Y4303977D01*
Y4320638D01*
X7341669Y4337299D01*
X7325008Y4353961D01*
Y4370622D01*
X7341669Y4387283D01*
X7374991D01*
X7391653Y4370622D01*
Y4353961D01*
X7374991Y4337299D01*
X7391653Y4320638D01*
Y4303977D01*
X7374991Y4337299D02*
X7341669D01*
X7291685Y4303977D02*
X7275024Y4287316D01*
X7241701D01*
X7225040Y4303977D01*
Y4370622D01*
X7241701Y4387283D01*
X7275024D01*
X7291685Y4370622D01*
Y4303977D01*
X7125072Y4387283D02*
X7191717D01*
X7125072Y4320638D01*
Y4303977D01*
X7141733Y4287316D01*
X7175056D01*
X7191717Y4303977D01*
X7208322Y4566621D02*
X7224984Y4583282D01*
Y4616605D01*
X7208322Y4633266D01*
X7141677D01*
X7125016Y4616605D01*
Y4583282D01*
X7141677Y4566621D01*
X7125016Y4533298D02*
Y4499976D01*
Y4516637D01*
X7224984D01*
X7208322Y4533298D01*
Y4449992D02*
X7224984Y4433330D01*
Y4400008D01*
X7208322Y4383347D01*
X7191661D01*
X7175000Y4400008D01*
X7158338Y4383347D01*
X7141677D01*
X7125016Y4400008D01*
Y4433330D01*
X7141677Y4449992D01*
X7158338D01*
X7175000Y4433330D01*
X7191661Y4449992D01*
X7208322D01*
X7175000Y4433330D02*
Y4400008D01*
X7208322Y4350024D02*
X7224984Y4333363D01*
Y4300040D01*
X7208322Y4283379D01*
X7141677D01*
X7125016Y4300040D01*
Y4333363D01*
X7141677Y4350024D01*
X7208322D01*
X7125016Y4250056D02*
Y4216734D01*
Y4233395D01*
X7224984D01*
X7208322Y4250056D01*
X7849927Y4424984D02*
Y4325016D01*
X7799943D01*
X7783282Y4341677D01*
Y4375000D01*
X7799943Y4391661D01*
X7849927D01*
X7816605D02*
X7783282Y4424984D01*
X7749959D02*
X7716637D01*
X7733298D01*
Y4325016D01*
X7749959Y4341677D01*
X7666653D02*
X7649992Y4325016D01*
X7616669D01*
X7600008Y4341677D01*
Y4358339D01*
X7616669Y4375000D01*
X7600008Y4391661D01*
Y4408322D01*
X7616669Y4424984D01*
X7649992D01*
X7666653Y4408322D01*
Y4391661D01*
X7649992Y4375000D01*
X7666653Y4358339D01*
Y4341677D01*
X7649992Y4375000D02*
X7616669D01*
X7566685Y4341677D02*
X7550024Y4325016D01*
X7516701D01*
X7500040Y4341677D01*
Y4408322D01*
X7516701Y4424984D01*
X7550024D01*
X7566685Y4408322D01*
Y4341677D01*
X7400072Y4424984D02*
X7466717D01*
X7400072Y4358339D01*
Y4341677D01*
X7416733Y4325016D01*
X7450056D01*
X7466717Y4341677D01*
X7833266Y4524984D02*
Y4425016D01*
X7783282D01*
X7766621Y4441678D01*
Y4475000D01*
X7783282Y4491662D01*
X7833266D01*
X7799944D02*
X7766621Y4524984D01*
X7733298D02*
X7699976D01*
X7716637D01*
Y4425016D01*
X7733298Y4441678D01*
X7649992D02*
X7633331Y4425016D01*
X7600008D01*
X7583347Y4441678D01*
Y4458339D01*
X7600008Y4475000D01*
X7583347Y4491662D01*
Y4508323D01*
X7600008Y4524984D01*
X7633331D01*
X7649992Y4508323D01*
Y4491662D01*
X7633331Y4475000D01*
X7649992Y4458339D01*
Y4441678D01*
X7633331Y4475000D02*
X7600008D01*
X7550024Y4441678D02*
X7533363Y4425016D01*
X7500040D01*
X7483379Y4441678D01*
Y4508323D01*
X7500040Y4524984D01*
X7533363D01*
X7550024Y4508323D01*
Y4441678D01*
X7450056Y4524984D02*
X7416734D01*
X7433395D01*
Y4425016D01*
X7450056Y4441678D01*
X12491718Y5646022D02*
X12475057Y5662684D01*
X12441734D01*
X12425073Y5646022D01*
Y5579377D01*
X12441734Y5562716D01*
X12475057D01*
X12491718Y5579377D01*
X12525040Y5562716D02*
X12558363D01*
X12541702D01*
Y5662684D01*
X12525040Y5646022D01*
X12674992Y5662684D02*
X12641669Y5646022D01*
X12608347Y5612700D01*
Y5579377D01*
X12625008Y5562716D01*
X12658331D01*
X12674992Y5579377D01*
Y5596039D01*
X12658331Y5612700D01*
X12608347D01*
X12708315Y5646022D02*
X12724976Y5662684D01*
X12758299D01*
X12774960Y5646022D01*
Y5579377D01*
X12758299Y5562716D01*
X12724976D01*
X12708315Y5579377D01*
Y5646022D01*
X12874928Y5562716D02*
X12808282D01*
X12874928Y5629361D01*
Y5646022D01*
X12858266Y5662684D01*
X12824944D01*
X12808282Y5646022D01*
X12508379Y5758322D02*
X12491718Y5774984D01*
X12458395D01*
X12441734Y5758322D01*
Y5691677D01*
X12458395Y5675016D01*
X12491718D01*
X12508379Y5691677D01*
X12541702Y5675016D02*
X12575024D01*
X12558363D01*
Y5774984D01*
X12541702Y5758322D01*
X12691653Y5774984D02*
X12658331Y5758322D01*
X12625008Y5725000D01*
Y5691677D01*
X12641670Y5675016D01*
X12674992D01*
X12691653Y5691677D01*
Y5708339D01*
X12674992Y5725000D01*
X12625008D01*
X12724976Y5758322D02*
X12741637Y5774984D01*
X12774960D01*
X12791621Y5758322D01*
Y5691677D01*
X12774960Y5675016D01*
X12741637D01*
X12724976Y5691677D01*
Y5758322D01*
X12824944Y5675016D02*
X12858266D01*
X12841605D01*
Y5774984D01*
X12824944Y5758322D01*
X12825015Y5349927D02*
X12924985D01*
Y5299943D01*
X12908322Y5283282D01*
X12875000D01*
X12858339Y5299943D01*
Y5349927D01*
Y5316605D02*
X12825015Y5283282D01*
Y5249959D02*
Y5216637D01*
Y5233298D01*
X12924985D01*
X12908322Y5249959D01*
X12924985Y5100008D02*
X12908322Y5133330D01*
X12875000Y5166653D01*
X12841676D01*
X12825015Y5149991D01*
Y5116669D01*
X12841676Y5100008D01*
X12858339D01*
X12875000Y5116669D01*
Y5166653D01*
X12908322Y5066685D02*
X12924985Y5050024D01*
Y5016701D01*
X12908322Y5000040D01*
X12841676D01*
X12825015Y5016701D01*
Y5050024D01*
X12841676Y5066685D01*
X12908322D01*
Y4966717D02*
X12924985Y4950056D01*
Y4916733D01*
X12908322Y4900072D01*
X12891661D01*
X12875000Y4916733D01*
Y4933395D01*
Y4916733D01*
X12858339Y4900072D01*
X12841676D01*
X12825015Y4916733D01*
Y4950056D01*
X12841676Y4966717D01*
X11999984Y5166734D02*
X11900016D01*
Y5216718D01*
X11916678Y5233379D01*
X11950000D01*
X11966662Y5216718D01*
Y5166734D01*
Y5200056D02*
X11999984Y5233379D01*
Y5266702D02*
Y5300024D01*
Y5283363D01*
X11900016D01*
X11916678Y5266702D01*
X11900016Y5416653D02*
X11916678Y5383331D01*
X11950000Y5350008D01*
X11983323D01*
X11999984Y5366669D01*
Y5399992D01*
X11983323Y5416653D01*
X11966662D01*
X11950000Y5399992D01*
Y5350008D01*
X11916678Y5449976D02*
X11900016Y5466637D01*
Y5499960D01*
X11916678Y5516621D01*
X11983323D01*
X11999984Y5499960D01*
Y5466637D01*
X11983323Y5449976D01*
X11916678D01*
X11999984Y5549944D02*
Y5583266D01*
Y5566605D01*
X11900016D01*
X11916678Y5549944D01*
X12825015Y5549927D02*
X12924985D01*
Y5499943D01*
X12908322Y5483282D01*
X12875000D01*
X12858339Y5499943D01*
Y5549927D01*
Y5516605D02*
X12825015Y5483282D01*
Y5449959D02*
Y5416637D01*
Y5433298D01*
X12924985D01*
X12908322Y5449959D01*
X12924985Y5300008D02*
X12908322Y5333330D01*
X12875000Y5366653D01*
X12841676D01*
X12825015Y5349992D01*
Y5316669D01*
X12841676Y5300008D01*
X12858339D01*
X12875000Y5316669D01*
Y5366653D01*
X12908322Y5266685D02*
X12924985Y5250024D01*
Y5216701D01*
X12908322Y5200040D01*
X12841676D01*
X12825015Y5216701D01*
Y5250024D01*
X12841676Y5266685D01*
X12908322D01*
X12825015Y5116733D02*
X12924985D01*
X12875000Y5166717D01*
Y5100072D01*
X12825015Y5749927D02*
X12924985D01*
Y5699943D01*
X12908322Y5683282D01*
X12875000D01*
X12858339Y5699943D01*
Y5749927D01*
Y5716605D02*
X12825015Y5683282D01*
Y5649959D02*
Y5616637D01*
Y5633298D01*
X12924985D01*
X12908322Y5649959D01*
X12924985Y5500008D02*
X12908322Y5533331D01*
X12875000Y5566653D01*
X12841676D01*
X12825015Y5549992D01*
Y5516669D01*
X12841676Y5500008D01*
X12858339D01*
X12875000Y5516669D01*
Y5566653D01*
X12908322Y5466685D02*
X12924985Y5450024D01*
Y5416701D01*
X12908322Y5400040D01*
X12841676D01*
X12825015Y5416701D01*
Y5450024D01*
X12841676Y5466685D01*
X12908322D01*
X12924985Y5300072D02*
Y5366717D01*
X12875000D01*
X12891661Y5333395D01*
Y5316734D01*
X12875000Y5300072D01*
X12841676D01*
X12825015Y5316734D01*
Y5350056D01*
X12841676Y5366717D01*
X11999984Y4950073D02*
X11900016D01*
Y5000057D01*
X11916677Y5016718D01*
X11950000D01*
X11966661Y5000057D01*
Y4950073D01*
Y4983395D02*
X11999984Y5016718D01*
Y5050041D02*
Y5083363D01*
Y5066702D01*
X11900016D01*
X11916677Y5050041D01*
X11900016Y5199992D02*
X11916677Y5166670D01*
X11950000Y5133347D01*
X11983322D01*
X11999984Y5150008D01*
Y5183331D01*
X11983322Y5199992D01*
X11966661D01*
X11950000Y5183331D01*
Y5133347D01*
X11916677Y5233315D02*
X11900016Y5249976D01*
Y5283299D01*
X11916677Y5299960D01*
X11983322D01*
X11999984Y5283299D01*
Y5249976D01*
X11983322Y5233315D01*
X11916677D01*
X11999984Y5399928D02*
Y5333283D01*
X11933339Y5399928D01*
X11916677D01*
X11900016Y5383267D01*
Y5349944D01*
X11916677Y5333283D01*
X8216613Y5903978D02*
X8233274Y5887316D01*
X8266596D01*
X8283258Y5903978D01*
Y5970623D01*
X8266596Y5987284D01*
X8233274D01*
X8216613Y5970623D01*
X8116645Y5987284D02*
X8183290D01*
X8116645Y5920639D01*
Y5903978D01*
X8133306Y5887316D01*
X8166629D01*
X8183290Y5903978D01*
X8083322D02*
X8066661Y5887316D01*
X8033338D01*
X8016677Y5903978D01*
Y5970623D01*
X8033338Y5987284D01*
X8066661D01*
X8083322Y5970623D01*
Y5903978D01*
X7983354D02*
X7966693Y5887316D01*
X7933370D01*
X7916709Y5903978D01*
Y5970623D01*
X7933370Y5987284D01*
X7966693D01*
X7983354Y5970623D01*
Y5903978D01*
X7816742Y5987284D02*
X7883387D01*
X7816742Y5920639D01*
Y5903978D01*
X7833403Y5887316D01*
X7866725D01*
X7883387Y5903978D01*
X8199952Y5791678D02*
X8216613Y5775016D01*
X8249935D01*
X8266597Y5791678D01*
Y5858323D01*
X8249935Y5874984D01*
X8216613D01*
X8199952Y5858323D01*
X8099984Y5874984D02*
X8166629D01*
X8099984Y5808339D01*
Y5791678D01*
X8116645Y5775016D01*
X8149967D01*
X8166629Y5791678D01*
X8066661D02*
X8050000Y5775016D01*
X8016677D01*
X8000016Y5791678D01*
Y5858323D01*
X8016677Y5874984D01*
X8050000D01*
X8066661Y5858323D01*
Y5791678D01*
X7966693D02*
X7950032Y5775016D01*
X7916709D01*
X7900048Y5791678D01*
Y5858323D01*
X7916709Y5874984D01*
X7950032D01*
X7966693Y5858323D01*
Y5791678D01*
X7866725Y5874984D02*
X7833403D01*
X7850064D01*
Y5775016D01*
X7866725Y5791678D01*
X7225016Y6266742D02*
X7324984D01*
Y6316725D01*
X7308322Y6333387D01*
X7241677D01*
X7225016Y6316725D01*
Y6266742D01*
X7324984Y6433354D02*
Y6366709D01*
X7258339Y6433354D01*
X7241677D01*
X7225016Y6416693D01*
Y6383371D01*
X7241677Y6366709D01*
Y6466677D02*
X7225016Y6483339D01*
Y6516661D01*
X7241677Y6533322D01*
X7308322D01*
X7324984Y6516661D01*
Y6483339D01*
X7308322Y6466677D01*
X7241677D01*
Y6566645D02*
X7225016Y6583306D01*
Y6616629D01*
X7241677Y6633290D01*
X7308322D01*
X7324984Y6616629D01*
Y6583306D01*
X7308322Y6566645D01*
X7241677D01*
X7324984Y6733258D02*
Y6666613D01*
X7258339Y6733258D01*
X7241677D01*
X7225016Y6716597D01*
Y6683274D01*
X7241677Y6666613D01*
X7608403Y6250016D02*
Y6349984D01*
X7658387D01*
X7675048Y6333323D01*
Y6300000D01*
X7658387Y6283339D01*
X7608403D01*
X7641726D02*
X7675048Y6250016D01*
X7775016D02*
X7708371D01*
X7775016Y6316661D01*
Y6333323D01*
X7758355Y6349984D01*
X7725033D01*
X7708371Y6333323D01*
X7808339D02*
X7825000Y6349984D01*
X7858323D01*
X7874984Y6333323D01*
Y6266678D01*
X7858323Y6250016D01*
X7825000D01*
X7808339Y6266678D01*
Y6333323D01*
X7908307D02*
X7924968Y6349984D01*
X7958291D01*
X7974952Y6333323D01*
Y6266678D01*
X7958291Y6250016D01*
X7924968D01*
X7908307Y6266678D01*
Y6333323D01*
X8008275Y6250016D02*
X8041597D01*
X8024936D01*
Y6349984D01*
X8008275Y6333323D01*
X7725016Y6683258D02*
X7824984D01*
Y6633274D01*
X7808323Y6616613D01*
X7775000D01*
X7758339Y6633274D01*
Y6683258D01*
Y6649935D02*
X7725016Y6616613D01*
Y6516645D02*
Y6583290D01*
X7791661Y6516645D01*
X7808323D01*
X7824984Y6533306D01*
Y6566629D01*
X7808323Y6583290D01*
Y6483322D02*
X7824984Y6466661D01*
Y6433338D01*
X7808323Y6416677D01*
X7741678D01*
X7725016Y6433338D01*
Y6466661D01*
X7741678Y6483322D01*
X7808323D01*
Y6383355D02*
X7824984Y6366693D01*
Y6333371D01*
X7808323Y6316709D01*
X7741678D01*
X7725016Y6333371D01*
Y6366693D01*
X7741678Y6383355D01*
X7808323D01*
X7725016Y6216742D02*
Y6283387D01*
X7791661Y6216742D01*
X7808323D01*
X7824984Y6233403D01*
Y6266725D01*
X7808323Y6283387D01*
X8191613Y5116678D02*
X8208274Y5100016D01*
X8241597D01*
X8258258Y5116678D01*
Y5183323D01*
X8241597Y5199984D01*
X8208274D01*
X8191613Y5183323D01*
X8091645Y5199984D02*
X8158291D01*
X8091645Y5133339D01*
Y5116678D01*
X8108307Y5100016D01*
X8141629D01*
X8158291Y5116678D01*
X8058323D02*
X8041661Y5100016D01*
X8008339D01*
X7991678Y5116678D01*
Y5183323D01*
X8008339Y5199984D01*
X8041661D01*
X8058323Y5183323D01*
Y5116678D01*
X7958355D02*
X7941694Y5100016D01*
X7908371D01*
X7891710Y5116678D01*
Y5183323D01*
X7908371Y5199984D01*
X7941694D01*
X7958355Y5183323D01*
Y5116678D01*
X7808403Y5199984D02*
Y5100016D01*
X7858387Y5150000D01*
X7791742D01*
X7225016Y5940492D02*
X7324984D01*
Y5990476D01*
X7308322Y6007137D01*
X7241677D01*
X7225016Y5990476D01*
Y5940492D01*
X7324984Y6107105D02*
Y6040460D01*
X7258339Y6107105D01*
X7241677D01*
X7225016Y6090443D01*
Y6057121D01*
X7241677Y6040460D01*
Y6140427D02*
X7225016Y6157089D01*
Y6190411D01*
X7241677Y6207072D01*
X7308322D01*
X7324984Y6190411D01*
Y6157089D01*
X7308322Y6140427D01*
X7241677D01*
Y6240395D02*
X7225016Y6257057D01*
Y6290379D01*
X7241677Y6307040D01*
X7308322D01*
X7324984Y6290379D01*
Y6257057D01*
X7308322Y6240395D01*
X7241677D01*
Y6340363D02*
X7225016Y6357024D01*
Y6390347D01*
X7241677Y6407008D01*
X7258339D01*
X7275000Y6390347D01*
Y6373685D01*
Y6390347D01*
X7291661Y6407008D01*
X7308322D01*
X7324984Y6390347D01*
Y6357024D01*
X7308322Y6340363D01*
X7225016Y5641742D02*
X7324984D01*
Y5691725D01*
X7308322Y5708387D01*
X7241677D01*
X7225016Y5691725D01*
Y5641742D01*
X7324984Y5808354D02*
Y5741709D01*
X7258339Y5808354D01*
X7241677D01*
X7225016Y5791693D01*
Y5758371D01*
X7241677Y5741709D01*
Y5841677D02*
X7225016Y5858339D01*
Y5891661D01*
X7241677Y5908322D01*
X7308322D01*
X7324984Y5891661D01*
Y5858339D01*
X7308322Y5841677D01*
X7241677D01*
Y5941645D02*
X7225016Y5958306D01*
Y5991629D01*
X7241677Y6008290D01*
X7308322D01*
X7324984Y5991629D01*
Y5958306D01*
X7308322Y5941645D01*
X7241677D01*
X7324984Y6091597D02*
X7225016D01*
X7275000Y6041613D01*
Y6108258D01*
X7566742Y5575016D02*
Y5674984D01*
X7616726D01*
X7633387Y5658322D01*
Y5625000D01*
X7616726Y5608339D01*
X7566742D01*
X7600064D02*
X7633387Y5575016D01*
X7733355D02*
X7666710D01*
X7733355Y5641661D01*
Y5658322D01*
X7716693Y5674984D01*
X7683371D01*
X7666710Y5658322D01*
X7766677D02*
X7783339Y5674984D01*
X7816661D01*
X7833322Y5658322D01*
Y5591677D01*
X7816661Y5575016D01*
X7783339D01*
X7766677Y5591677D01*
Y5658322D01*
X7866645D02*
X7883307Y5674984D01*
X7916629D01*
X7933290Y5658322D01*
Y5591677D01*
X7916629Y5575016D01*
X7883307D01*
X7866645Y5591677D01*
Y5658322D01*
X7966613D02*
X7983274Y5674984D01*
X8016597D01*
X8033258Y5658322D01*
Y5641661D01*
X8016597Y5625000D01*
X7999935D01*
X8016597D01*
X8033258Y5608339D01*
Y5591677D01*
X8016597Y5575016D01*
X7983274D01*
X7966613Y5591677D01*
X7783323Y6058242D02*
X7799984Y6041580D01*
Y6008258D01*
X7783323Y5991597D01*
X7766661D01*
X7733339Y6024919D01*
X7716677D02*
X7700016D01*
Y5958274D02*
X7799984D01*
Y5908290D01*
X7783323Y5891629D01*
X7750000D01*
X7733339Y5908290D01*
Y5958274D01*
Y5924952D02*
X7700016Y5891629D01*
Y5791661D02*
Y5858306D01*
X7766661Y5791661D01*
X7783323D01*
X7799984Y5808322D01*
Y5841645D01*
X7783323Y5858306D01*
Y5758338D02*
X7799984Y5741677D01*
Y5708355D01*
X7783323Y5691693D01*
X7716677D01*
X7700016Y5708355D01*
Y5741677D01*
X7716677Y5758338D01*
X7783323D01*
Y5658371D02*
X7799984Y5641709D01*
Y5608387D01*
X7783323Y5591726D01*
X7716677D01*
X7700016Y5608387D01*
Y5641709D01*
X7716677Y5658371D01*
X7783323D01*
X7700016Y5508419D02*
X7799984D01*
X7750000Y5558403D01*
Y5491758D01*
X12046022Y4708282D02*
X12062684Y4724943D01*
Y4758266D01*
X12046022Y4774927D01*
X11979377D01*
X11962716Y4758266D01*
Y4724943D01*
X11979377Y4708282D01*
X11962716Y4674959D02*
Y4641637D01*
Y4658298D01*
X12062684D01*
X12046022Y4674959D01*
X12062684Y4591653D02*
Y4525008D01*
X12046022D01*
X11979377Y4591653D01*
X11962716D01*
X12046022Y4491685D02*
X12062684Y4475024D01*
Y4441701D01*
X12046022Y4425040D01*
X11979377D01*
X11962716Y4441701D01*
Y4475024D01*
X11979377Y4491685D01*
X12046022D01*
X11962716Y4325072D02*
Y4391717D01*
X12029361Y4325072D01*
X12046022D01*
X12062684Y4341734D01*
Y4375056D01*
X12046022Y4391717D01*
X11908323Y4691621D02*
X11924984Y4708282D01*
Y4741605D01*
X11908323Y4758266D01*
X11841678D01*
X11825016Y4741605D01*
Y4708282D01*
X11841678Y4691621D01*
X11825016Y4658298D02*
Y4624976D01*
Y4641637D01*
X11924984D01*
X11908323Y4658298D01*
X11924984Y4574992D02*
Y4508347D01*
X11908323D01*
X11841678Y4574992D01*
X11825016D01*
X11908323Y4475024D02*
X11924984Y4458363D01*
Y4425040D01*
X11908323Y4408379D01*
X11841678D01*
X11825016Y4425040D01*
Y4458363D01*
X11841678Y4475024D01*
X11908323D01*
X11825016Y4375056D02*
Y4341734D01*
Y4358395D01*
X11924984D01*
X11908323Y4375056D01*
X12850015Y4899927D02*
X12949985D01*
Y4849943D01*
X12933324Y4833282D01*
X12900000D01*
X12883339Y4849943D01*
Y4899927D01*
Y4866604D02*
X12850015Y4833282D01*
Y4799959D02*
Y4766637D01*
Y4783298D01*
X12949985D01*
X12933324Y4799959D01*
X12949985Y4716653D02*
Y4650008D01*
X12933324D01*
X12866678Y4716653D01*
X12850015D01*
X12933324Y4616685D02*
X12949985Y4600024D01*
Y4566701D01*
X12933324Y4550040D01*
X12866678D01*
X12850015Y4566701D01*
Y4600024D01*
X12866678Y4616685D01*
X12933324D01*
X12850015Y4466733D02*
X12949985D01*
X12900000Y4516717D01*
Y4450072D01*
X12813977Y4061718D02*
X12797316Y4045056D01*
Y4011734D01*
X12813977Y3995073D01*
X12880621D01*
X12897284Y4011734D01*
Y4045056D01*
X12880621Y4061718D01*
X12897284Y4095040D02*
Y4128363D01*
Y4111702D01*
X12797316D01*
X12813977Y4095040D01*
X12797316Y4178347D02*
Y4244992D01*
X12813977D01*
X12880621Y4178347D01*
X12897284D01*
X12813977Y4278315D02*
X12797316Y4294976D01*
Y4328298D01*
X12813977Y4344960D01*
X12880621D01*
X12897284Y4328298D01*
Y4294976D01*
X12880621Y4278315D01*
X12813977D01*
Y4378282D02*
X12797316Y4394944D01*
Y4428266D01*
X12813977Y4444927D01*
X12830640D01*
X12847301Y4428266D01*
Y4411605D01*
Y4428266D01*
X12863960Y4444927D01*
X12880621D01*
X12897284Y4428266D01*
Y4394944D01*
X12880621Y4378282D01*
X12660016Y5124927D02*
X12759984D01*
Y5074943D01*
X12743323Y5058282D01*
X12710000D01*
X12693339Y5074943D01*
Y5124927D01*
Y5091605D02*
X12660016Y5058282D01*
Y5024959D02*
Y4991637D01*
Y5008298D01*
X12759984D01*
X12743323Y5024959D01*
X12759984Y4941653D02*
Y4875008D01*
X12743323D01*
X12676678Y4941653D01*
X12660016D01*
X12743323Y4841685D02*
X12759984Y4825024D01*
Y4791701D01*
X12743323Y4775040D01*
X12676678D01*
X12660016Y4791701D01*
Y4825024D01*
X12676678Y4841685D01*
X12743323D01*
X12660016Y4675072D02*
Y4741717D01*
X12726661Y4675072D01*
X12743323D01*
X12759984Y4691734D01*
Y4725056D01*
X12743323Y4741717D01*
X12779984Y4001734D02*
X12680016D01*
Y4051718D01*
X12696677Y4068379D01*
X12730000D01*
X12746661Y4051718D01*
Y4001734D01*
Y4035056D02*
X12779984Y4068379D01*
Y4101702D02*
Y4135024D01*
Y4118363D01*
X12680016D01*
X12696677Y4101702D01*
X12680016Y4185008D02*
Y4251653D01*
X12696677D01*
X12763322Y4185008D01*
X12779984D01*
X12696677Y4284976D02*
X12680016Y4301637D01*
Y4334960D01*
X12696677Y4351621D01*
X12763322D01*
X12779984Y4334960D01*
Y4301637D01*
X12763322Y4284976D01*
X12696677D01*
X12779984Y4384944D02*
Y4418266D01*
Y4401605D01*
X12680016D01*
X12696677Y4384944D01*
%TF.MD5,1df959d647c1e14d1e1d5bd025d79cc8*%
M02*
