%TF.GenerationSoftware,Altium Limited,Altium Designer,23.1.1 (15)*%
G04 Layer_Physical_Order=3*
G04 Layer_Color=36540*
%FSLAX45Y45*%
%MOMM*%
%TF.SameCoordinates,3B15BE60-5205-462F-B1BE-89E8C5D5736D*%
%TF.FilePolarity,Positive*%
%TF.FileFunction,Copper,L3,Inr,Signal*%
%TF.Part,Single*%
G01*
G75*
%TA.AperFunction,Conductor*%
%ADD75C,0.30000*%
%ADD78C,0.50000*%
%TA.AperFunction,ComponentPad*%
%ADD85C,5.20000*%
%ADD86C,1.52400*%
%ADD87C,1.06700*%
%ADD88O,3.00000X1.90000*%
%ADD89C,0.60000*%
%ADD90O,2.20000X1.00000*%
%ADD91O,1.90000X1.00000*%
%TA.AperFunction,ViaPad*%
%ADD92C,0.50000*%
G36*
X13662659Y11336507D02*
X13668468Y11334101D01*
X13673695Y11330607D01*
X13675919Y11328384D01*
X13677077Y11327336D01*
X13679669Y11325603D01*
X13682550Y11324409D01*
X13685609Y11323801D01*
X13687167Y11323725D01*
X13704193D01*
X13723128Y11319958D01*
X13740965Y11312570D01*
X13757018Y11301844D01*
X13859872Y11198990D01*
X13859871Y11198990D01*
X13871620Y11187241D01*
X13890082Y11159611D01*
X13902798Y11128910D01*
X13909282Y11096317D01*
Y11059520D01*
X13909326Y11058622D01*
X13909677Y11056861D01*
X13910364Y11055203D01*
X13911362Y11053710D01*
X13911964Y11053044D01*
X13911125Y7565213D01*
X13898422Y7558426D01*
X13897804Y7558840D01*
X13889999Y7560392D01*
X13150002D01*
X13150000Y7560392D01*
X13142197Y7558840D01*
X13135580Y7554419D01*
X13135580Y7554418D01*
X13125581Y7544419D01*
X13121159Y7537804D01*
X13119608Y7530000D01*
Y6280000D01*
X13121159Y6272196D01*
X13125581Y6265581D01*
X13132196Y6261160D01*
X13139999Y6259608D01*
X13609608D01*
Y6204161D01*
X13611160Y6196358D01*
X13615907Y6184895D01*
Y6175106D01*
X13611160Y6163643D01*
X13609608Y6155839D01*
Y5744161D01*
X13611160Y5736358D01*
X13615907Y5724895D01*
Y5715106D01*
X13611160Y5703643D01*
X13609608Y5695839D01*
Y5579161D01*
X13611160Y5571358D01*
X13615907Y5559895D01*
Y5550106D01*
X13611160Y5538643D01*
X13609608Y5530839D01*
Y5119161D01*
X13611160Y5111358D01*
X13615907Y5099895D01*
Y5090106D01*
X13611160Y5078643D01*
X13609608Y5070839D01*
Y4808640D01*
X13611160Y4800836D01*
X13615581Y4794220D01*
X13620862Y4788939D01*
X13624608Y4779895D01*
Y4770106D01*
X13620862Y4761061D01*
X13615581Y4755780D01*
X13611160Y4749164D01*
X13609608Y4741361D01*
Y4348641D01*
X13609608Y4348640D01*
X13611160Y4340836D01*
X13615581Y4334220D01*
X13620862Y4328939D01*
X13624608Y4319895D01*
Y4310106D01*
X13620862Y4301061D01*
X13615581Y4295780D01*
X13611160Y4289165D01*
X13609608Y4281361D01*
Y4183641D01*
X13609608Y4183640D01*
X13611160Y4175836D01*
X13615581Y4169221D01*
X13615581Y4169220D01*
X13620862Y4163939D01*
X13624608Y4154895D01*
Y4145106D01*
X13620862Y4136061D01*
X13615581Y4130780D01*
X13611160Y4124164D01*
X13609608Y4116360D01*
Y3723639D01*
X13611160Y3715836D01*
X13615581Y3709220D01*
X13620862Y3703939D01*
X13624608Y3694895D01*
Y3685105D01*
X13620862Y3676061D01*
X13613939Y3669138D01*
X13604895Y3665392D01*
X13595105D01*
X13586061Y3669138D01*
X13579138Y3676061D01*
X13575392Y3685105D01*
Y3690000D01*
X13573840Y3697804D01*
X13569418Y3704419D01*
X13562804Y3708840D01*
X13555000Y3710392D01*
X11860392D01*
Y4090000D01*
X11858840Y4097804D01*
X11854419Y4104419D01*
X11847804Y4108840D01*
X11840000Y4110392D01*
X11620000D01*
X11612196Y4108840D01*
X11605581Y4104419D01*
X11601160Y4097804D01*
X11599608Y4090000D01*
Y3690000D01*
Y3570000D01*
Y3070392D01*
X10265881D01*
Y3340000D01*
X10265000Y3344432D01*
Y3348951D01*
X10263271Y3353126D01*
X10262389Y3357558D01*
X10259878Y3361316D01*
X10258149Y3365490D01*
X10254954Y3368685D01*
X10252443Y3372443D01*
X10248685Y3374954D01*
X10245490Y3378149D01*
X10241316Y3379878D01*
X10237558Y3382389D01*
X10233126Y3383271D01*
X10228951Y3385000D01*
X10224432D01*
X10220000Y3385881D01*
X10215568Y3385000D01*
X10211049D01*
X10206874Y3383271D01*
X10202442Y3382389D01*
X10198684Y3379878D01*
X10194509Y3378149D01*
X10191314Y3374954D01*
X10187557Y3372443D01*
X10185046Y3368685D01*
X10181851Y3365490D01*
X10180122Y3361316D01*
X10177611Y3357558D01*
X10176729Y3353126D01*
X10175000Y3348951D01*
Y3344432D01*
X10174118Y3340000D01*
Y3070392D01*
X8830392D01*
Y4088400D01*
X8828840Y4096204D01*
X8824419Y4102819D01*
X8817804Y4107240D01*
X8805104Y4112500D01*
X8797300Y4114053D01*
X8789496Y4112500D01*
X8785322Y4109711D01*
X8774895Y4105392D01*
X8765105D01*
X8756061Y4109138D01*
X8749138Y4116061D01*
X8745392Y4125106D01*
Y4134895D01*
X8749138Y4143939D01*
X8756061Y4150862D01*
X8765105Y4154608D01*
X8774895D01*
X8785322Y4150289D01*
X8789496Y4147500D01*
X8797300Y4145948D01*
X8805104Y4147500D01*
X8817804Y4152761D01*
X8824419Y4157181D01*
X8828840Y4163797D01*
X8830392Y4171600D01*
Y4826359D01*
X8830392Y4826361D01*
X8828840Y4834164D01*
X8824419Y4840780D01*
X8819138Y4846061D01*
X8818417Y4847803D01*
X8818416Y4847804D01*
X8813996Y4854419D01*
X8807380Y4858840D01*
X8799577Y4860392D01*
X8464142D01*
X8456339Y4858840D01*
X8449723Y4854419D01*
X8445303Y4847804D01*
X8441160Y4837803D01*
X8439608Y4830000D01*
Y2930000D01*
X8441160Y2922196D01*
X8445581Y2915581D01*
X8452196Y2911160D01*
X8460000Y2909608D01*
X10290163D01*
X10297967Y2911160D01*
X10304583Y2915581D01*
X10309003Y2922196D01*
X10314264Y2934896D01*
X10315816Y2942700D01*
X10314264Y2950504D01*
X10309843Y2957119D01*
X10307165Y2959797D01*
X10303419Y2968842D01*
Y2978631D01*
X10307165Y2987675D01*
X10314088Y2994598D01*
X10323133Y2998344D01*
X10332922D01*
X10341966Y2994598D01*
X10348889Y2987675D01*
X10352635Y2978631D01*
Y2968842D01*
X10348889Y2959797D01*
X10346211Y2957119D01*
X10341790Y2950504D01*
X10340238Y2942700D01*
X10341791Y2934896D01*
X10347051Y2922196D01*
X10351472Y2915581D01*
X10358087Y2911160D01*
X10365891Y2909608D01*
X11740000D01*
X11747804Y2911160D01*
X11754419Y2915581D01*
X11758840Y2922196D01*
X11760392Y2930000D01*
Y3439608D01*
X12958400D01*
X12966203Y3441160D01*
X12972820Y3445581D01*
X12977240Y3452196D01*
X12982501Y3464896D01*
X12984053Y3472700D01*
X12982501Y3480504D01*
X12979710Y3484678D01*
X12975392Y3495106D01*
Y3504895D01*
X12979138Y3513939D01*
X12986061Y3520862D01*
X12995107Y3524608D01*
X13004895D01*
X13013939Y3520862D01*
X13020862Y3513939D01*
X13024608Y3504895D01*
Y3495106D01*
X13020290Y3484679D01*
X13017499Y3480504D01*
X13015948Y3472700D01*
X13017500Y3464896D01*
X13022760Y3452196D01*
X13027180Y3445581D01*
X13033797Y3441160D01*
X13041600Y3439608D01*
X13901151D01*
X13910129Y3430627D01*
X13910065Y3159179D01*
Y3137447D01*
X13901584Y3094818D01*
X13884950Y3054663D01*
X13860805Y3018524D01*
X13845438Y3003157D01*
X13803935Y2961655D01*
X13803935D01*
X13786246Y2943966D01*
X13744644Y2916169D01*
X13698419Y2897022D01*
X13649347Y2887261D01*
X6550652D01*
X6501580Y2897022D01*
X6455355Y2916169D01*
X6413754Y2943966D01*
X6344760Y3012960D01*
X6344760D01*
X6332360Y3025359D01*
X6312875Y3054521D01*
X6299454Y3086923D01*
X6292612Y3121321D01*
X6292611Y3138856D01*
X6291339Y3140129D01*
X6289340Y3143121D01*
X6287963Y3146446D01*
X6287261Y3149975D01*
Y3151775D01*
Y11087205D01*
Y11092570D01*
X6289354Y11103095D01*
X6293461Y11113009D01*
X6299423Y11121932D01*
X6303217Y11125726D01*
Y11135474D01*
X6307020Y11154595D01*
X6314481Y11172607D01*
X6325312Y11188818D01*
X6409578Y11273083D01*
X6409578Y11273083D01*
Y11273083D01*
X6424951Y11288456D01*
X6461103Y11312612D01*
X6501273Y11329251D01*
X6543917Y11337733D01*
X13656493D01*
X13662659Y11336507D01*
D02*
G37*
G36*
X13889999Y6510000D02*
X13912738D01*
Y3460000D01*
X13041600D01*
X13036339Y3472700D01*
X13038148Y3474510D01*
X13045000Y3491049D01*
Y3508951D01*
X13038148Y3525491D01*
X13025491Y3538149D01*
X13008951Y3545000D01*
X12991049D01*
X12974510Y3538149D01*
X12961852Y3525491D01*
X12955000Y3508951D01*
Y3491049D01*
X12961852Y3474510D01*
X12963661Y3472700D01*
X12958400Y3460000D01*
X11740000D01*
Y2930000D01*
X10365891D01*
X10360630Y2942700D01*
X10366176Y2948246D01*
X10373027Y2964785D01*
Y2982687D01*
X10366176Y2999227D01*
X10353518Y3011885D01*
X10336978Y3018736D01*
X10319076D01*
X10302537Y3011885D01*
X10289878Y2999227D01*
X10283027Y2982687D01*
Y2964785D01*
X10289878Y2948246D01*
X10295424Y2942700D01*
X10290163Y2930000D01*
X8460000D01*
Y4830000D01*
X8464142Y4840000D01*
X8799577D01*
X8801851Y4834510D01*
X8810000Y4826361D01*
Y4171600D01*
X8797300Y4166340D01*
X8795490Y4168149D01*
X8778951Y4175000D01*
X8761049D01*
X8744510Y4168149D01*
X8731851Y4155491D01*
X8725000Y4138951D01*
Y4121049D01*
X8731851Y4104510D01*
X8744510Y4091851D01*
X8761049Y4085000D01*
X8778951D01*
X8795490Y4091851D01*
X8797300Y4093661D01*
X8810000Y4088400D01*
Y3050000D01*
X11620000D01*
Y3570000D01*
Y4090000D01*
X11840000D01*
Y3690000D01*
X13555000D01*
Y3681049D01*
X13561852Y3664510D01*
X13574510Y3651851D01*
X13591049Y3645000D01*
X13608951D01*
X13625490Y3651851D01*
X13630000Y3656360D01*
X13638148Y3664510D01*
X13645000Y3681049D01*
Y3698951D01*
X13638148Y3715490D01*
X13630000Y3723639D01*
Y4116360D01*
X13638148Y4124510D01*
X13645000Y4141049D01*
Y4158951D01*
X13638148Y4175491D01*
X13630000Y4183640D01*
Y4281361D01*
X13638148Y4289510D01*
X13645000Y4306049D01*
Y4323951D01*
X13638148Y4340491D01*
X13630000Y4348640D01*
Y4741361D01*
X13638148Y4749510D01*
X13645000Y4766049D01*
Y4783951D01*
X13638148Y4800491D01*
X13630000Y4808640D01*
Y5070839D01*
X13636301Y5086049D01*
Y5103951D01*
X13630000Y5119161D01*
Y5530839D01*
X13636301Y5546049D01*
Y5563951D01*
X13630000Y5579161D01*
Y5695839D01*
X13636301Y5711049D01*
Y5728951D01*
X13630000Y5744161D01*
Y6155839D01*
X13636301Y6171049D01*
Y6188951D01*
X13630000Y6204161D01*
Y6280000D01*
X13139999D01*
Y7530000D01*
X13150000Y7540000D01*
X13889999D01*
Y6510000D01*
D02*
G37*
%LPC*%
G36*
X12420829Y11320274D02*
X12420762Y11320261D01*
X12420697Y11320273D01*
X11784669Y11312013D01*
X11784626Y11312004D01*
X11784584Y11312011D01*
X11780749Y11311180D01*
X11776886Y11310359D01*
X11776850Y11310335D01*
X11776808Y11310326D01*
X11773599Y11308101D01*
X11770328Y11305853D01*
X11770304Y11305817D01*
X11770269Y11305792D01*
X11768151Y11302502D01*
X11765994Y11299181D01*
X11765986Y11299138D01*
X11765963Y11299102D01*
X11762681Y11290778D01*
X11762181Y11288019D01*
X11761765Y11286657D01*
X11746823D01*
X11746264Y11289640D01*
X11745192Y11292311D01*
X11744419Y11295084D01*
X11741920Y11300028D01*
X11739851Y11302670D01*
X11737952Y11305433D01*
X11737412Y11305784D01*
X11737014Y11306292D01*
X11734092Y11307940D01*
X11731280Y11309767D01*
X11730646Y11309885D01*
X11730084Y11310201D01*
X11726754Y11310606D01*
X11723457Y11311218D01*
X11074735Y11302793D01*
X11070970Y11301993D01*
X11067197Y11301242D01*
X11067085Y11301168D01*
X11066952Y11301139D01*
X11063779Y11298959D01*
X11060581Y11296822D01*
X11060506Y11296710D01*
X11060395Y11296633D01*
X11058300Y11293408D01*
X11056161Y11290206D01*
X11056134Y11290074D01*
X11056061Y11289961D01*
X11055359Y11286177D01*
X11054608Y11282403D01*
Y11275105D01*
X11050862Y11266061D01*
X11047517Y11262716D01*
X11046271Y11260851D01*
X11044723Y11259230D01*
X11039454Y11250933D01*
X11038186Y11247661D01*
X11036764Y11244441D01*
X11036753Y11243961D01*
X11036580Y11243514D01*
X11036661Y11240003D01*
X11036580Y11236487D01*
X11036753Y11236040D01*
X11036764Y11235559D01*
X11038185Y11232342D01*
X11039453Y11229067D01*
X11044723Y11220770D01*
X11046272Y11219148D01*
X11047517Y11217284D01*
X11050862Y11213939D01*
X11054608Y11204895D01*
Y11195105D01*
X11050862Y11186060D01*
X11044220Y11179419D01*
X11039800Y11172804D01*
X11038248Y11165000D01*
X11039800Y11157196D01*
X11044220Y11150581D01*
X11044221Y11150580D01*
X11050862Y11143939D01*
X11054608Y11134895D01*
Y11125106D01*
X11050862Y11116061D01*
X11044221Y11109420D01*
X11044220Y11109419D01*
X11039800Y11102804D01*
X11038248Y11095000D01*
X11039800Y11087196D01*
X11044220Y11080581D01*
X11050862Y11073939D01*
X11054608Y11064895D01*
Y11055105D01*
X11050862Y11046061D01*
X11043939Y11039138D01*
X11034895Y11035392D01*
X11025106D01*
X11016061Y11039138D01*
X11012716Y11042483D01*
X11010851Y11043729D01*
X11009230Y11045277D01*
X11000934Y11050547D01*
X10997661Y11051814D01*
X10994441Y11053236D01*
X10993961Y11053247D01*
X10993514Y11053420D01*
X10990004Y11053339D01*
X10986487Y11053421D01*
X10986040Y11053247D01*
X10985560Y11053236D01*
X10982342Y11051815D01*
X10979067Y11050547D01*
X10970771Y11045277D01*
X10969148Y11043729D01*
X10967284Y11042483D01*
X10963939Y11039138D01*
X10954895Y11035392D01*
X10945106D01*
X10936061Y11039138D01*
X10932716Y11042483D01*
X10930851Y11043729D01*
X10929230Y11045277D01*
X10920933Y11050547D01*
X10917661Y11051814D01*
X10914441Y11053236D01*
X10913961Y11053247D01*
X10913514Y11053420D01*
X10910004Y11053339D01*
X10906487Y11053421D01*
X10906040Y11053247D01*
X10905560Y11053236D01*
X10902342Y11051815D01*
X10899067Y11050547D01*
X10890770Y11045277D01*
X10889148Y11043729D01*
X10887284Y11042483D01*
X10883939Y11039138D01*
X10874895Y11035392D01*
X10865106D01*
X10856061Y11039138D01*
X10849419Y11045780D01*
X10842804Y11050200D01*
X10835000Y11051753D01*
X10827197Y11050200D01*
X10820581Y11045780D01*
X10820580Y11045779D01*
X10813940Y11039138D01*
X10804895Y11035392D01*
X10795106D01*
X10786061Y11039138D01*
X10779138Y11046061D01*
X10775392Y11055105D01*
Y11064895D01*
X10779139Y11073939D01*
X10785780Y11080581D01*
X10790200Y11087196D01*
X10791753Y11095000D01*
X10790200Y11102804D01*
X10785780Y11109419D01*
X10785779Y11109420D01*
X10779139Y11116060D01*
X10775392Y11125106D01*
Y11134895D01*
X10779139Y11143940D01*
X10785780Y11150581D01*
X10790200Y11157196D01*
X10791753Y11165000D01*
X10790200Y11172804D01*
X10785780Y11179419D01*
X10785779Y11179420D01*
X10779139Y11186061D01*
X10775392Y11195105D01*
Y11204895D01*
X10779139Y11213939D01*
X10782483Y11217284D01*
X10783730Y11219149D01*
X10785277Y11220770D01*
X10790547Y11229067D01*
X10791814Y11232339D01*
X10793236Y11235559D01*
X10793248Y11236039D01*
X10793421Y11236486D01*
X10793339Y11239997D01*
X10793421Y11243513D01*
X10793248Y11243960D01*
X10793236Y11244441D01*
X10791815Y11247658D01*
X10790547Y11250933D01*
X10785277Y11259230D01*
X10783729Y11260852D01*
X10782483Y11262716D01*
X10779139Y11266061D01*
X10773840Y11278852D01*
X10773803Y11278908D01*
X10773789Y11278975D01*
X10771585Y11282228D01*
X10769419Y11285468D01*
X10769364Y11285505D01*
X10769325Y11285562D01*
X10762128Y11292666D01*
X10762072Y11292703D01*
X10762034Y11292758D01*
X10758734Y11294902D01*
X10755484Y11297043D01*
X10755418Y11297056D01*
X10755361Y11297093D01*
X10751524Y11297804D01*
X10747670Y11298545D01*
X10747604Y11298531D01*
X10747538Y11298543D01*
X10119735Y11290390D01*
X10115970Y11289590D01*
X10112196Y11288840D01*
X10112084Y11288765D01*
X10111952Y11288737D01*
X10108779Y11286557D01*
X10105581Y11284419D01*
X10105506Y11284307D01*
X10105395Y11284231D01*
X10103300Y11281005D01*
X10101160Y11277804D01*
X10101134Y11277672D01*
X10101061Y11277558D01*
X10100359Y11273775D01*
X10099608Y11270000D01*
Y11250000D01*
Y10330423D01*
X10101160Y10322620D01*
X10105581Y10316004D01*
X10112196Y10311584D01*
X10112197Y10311583D01*
X10113939Y10310862D01*
X10120862Y10303939D01*
X10124608Y10294895D01*
Y10285105D01*
X10120862Y10276061D01*
X10113939Y10269138D01*
X10112197Y10268417D01*
X10112196Y10268416D01*
X10105581Y10263996D01*
X10101160Y10257380D01*
X10099608Y10249577D01*
Y9428892D01*
X10100129Y9426275D01*
X10100303Y9423614D01*
X10100898Y9422408D01*
X10101160Y9421088D01*
X10102643Y9418869D01*
X10103822Y9416478D01*
X10104833Y9415591D01*
X10105581Y9414472D01*
X10107799Y9412990D01*
X10109804Y9411232D01*
X10111078Y9410800D01*
X10112196Y9410052D01*
X10114813Y9409532D01*
X10117338Y9408674D01*
X10128800Y9407165D01*
Y9392835D01*
X10117338Y9391326D01*
X10114813Y9390469D01*
X10112196Y9389948D01*
X10111078Y9389201D01*
X10109804Y9388769D01*
X10107799Y9387010D01*
X10105581Y9385528D01*
X10104833Y9384410D01*
X10103822Y9383523D01*
X10102642Y9381130D01*
X10101160Y9378912D01*
X10100898Y9377593D01*
X10100303Y9376386D01*
X10100128Y9373724D01*
X10099608Y9371109D01*
Y9279777D01*
X10089533Y9272046D01*
X10087836Y9272500D01*
X10062164D01*
X10037367Y9265855D01*
X10015134Y9253020D01*
X9996981Y9234866D01*
X9984145Y9212634D01*
X9977500Y9187836D01*
Y9162164D01*
X9984145Y9137367D01*
X9996981Y9115134D01*
X10015134Y9096981D01*
X10037367Y9084145D01*
X10062164Y9077500D01*
X10087836D01*
X10089533Y9077955D01*
X10099608Y9070223D01*
Y8978892D01*
X10100129Y8976275D01*
X10100303Y8973614D01*
X10100898Y8972408D01*
X10101160Y8971088D01*
X10102643Y8968869D01*
X10103822Y8966478D01*
X10104833Y8965591D01*
X10105581Y8964472D01*
X10107799Y8962990D01*
X10109804Y8961232D01*
X10111078Y8960799D01*
X10112196Y8960052D01*
X10114813Y8959531D01*
X10117338Y8958674D01*
X10128800Y8957165D01*
Y8942835D01*
X10117338Y8941326D01*
X10114813Y8940469D01*
X10112196Y8939948D01*
X10111078Y8939201D01*
X10109804Y8938769D01*
X10107799Y8937010D01*
X10105581Y8935528D01*
X10104833Y8934410D01*
X10103822Y8933522D01*
X10102642Y8931129D01*
X10101160Y8928912D01*
X10100898Y8927593D01*
X10100303Y8926386D01*
X10100128Y8923724D01*
X10099608Y8921109D01*
Y7600000D01*
Y7580000D01*
X10100528Y7575377D01*
X10100425Y7574846D01*
X10099659Y7570937D01*
X10099665Y7570908D01*
X10099660Y7570878D01*
X10104182Y6774884D01*
X10104697Y6772369D01*
X10094510Y6768149D01*
X10081851Y6755490D01*
X10075000Y6738951D01*
Y6721049D01*
X10081851Y6704510D01*
X10094510Y6691851D01*
X10111049Y6685000D01*
X10124497D01*
Y6671552D01*
X10117413Y6661871D01*
X10114104Y6659633D01*
X10110863Y6657454D01*
X10110847Y6657430D01*
X10110822Y6657413D01*
X10108652Y6654125D01*
X10106461Y6650826D01*
X10106456Y6650796D01*
X10106440Y6650773D01*
X10105701Y6646946D01*
X10104932Y6643018D01*
X10104937Y6642989D01*
X10104932Y6642960D01*
X10107702Y6155349D01*
X10108100Y6153410D01*
X10108105Y6151430D01*
X10108890Y6149550D01*
X10109299Y6147554D01*
X10110408Y6145915D01*
X10111171Y6144088D01*
X10112615Y6142651D01*
X10113757Y6140964D01*
X10115410Y6139873D01*
X10116813Y6138477D01*
X10118698Y6137703D01*
X10120398Y6136581D01*
X10122341Y6136206D01*
X10123390Y6129740D01*
X10122472Y6123030D01*
X10120477Y6122621D01*
X10118837Y6121512D01*
X10117010Y6120750D01*
X10115575Y6119306D01*
X10113886Y6118164D01*
X10112796Y6116511D01*
X10111400Y6115107D01*
X10110625Y6113223D01*
X10109504Y6111523D01*
X10109129Y6109580D01*
X10108376Y6107748D01*
X10108382Y6105710D01*
X10107996Y6103711D01*
X10109441Y5849398D01*
X10100486Y5840392D01*
X8970000D01*
X8962197Y5838840D01*
X8952196Y5834698D01*
X8945581Y5830277D01*
X8941160Y5823661D01*
X8939608Y5815858D01*
Y5230392D01*
X8140000D01*
X8132196Y5228840D01*
X8125581Y5224419D01*
X8121160Y5217804D01*
X8119608Y5210000D01*
Y5081022D01*
X8121160Y5073218D01*
X8124608Y5064895D01*
Y5055105D01*
X8121160Y5046782D01*
X8119608Y5038978D01*
Y4860392D01*
X7720392D01*
Y4908181D01*
X7718840Y4915985D01*
X7714419Y4922601D01*
X7707804Y4927021D01*
X7697359Y4931347D01*
X7698661Y4934492D01*
Y4952393D01*
X7697359Y4955538D01*
X7707804Y4959864D01*
X7714419Y4964284D01*
X7718840Y4970900D01*
X7720392Y4978704D01*
Y5453529D01*
X7719216Y5459441D01*
X7721481Y5460379D01*
X7734140Y5473038D01*
X7740991Y5489578D01*
Y5507479D01*
X7734140Y5524019D01*
X7721481Y5536678D01*
X7704942Y5543528D01*
X7687040D01*
X7670500Y5536678D01*
X7657842Y5524019D01*
X7650991Y5507479D01*
Y5489578D01*
X7644853Y5480392D01*
X7277244D01*
X7269441Y5478840D01*
X7260826Y5475271D01*
X7251037D01*
X7242422Y5478840D01*
X7234618Y5480392D01*
X7213640D01*
X7205836Y5478840D01*
X7199220Y5474419D01*
X7199220Y5474419D01*
X7195581Y5470780D01*
X7191160Y5464164D01*
X7189608Y5456360D01*
Y5150423D01*
X7191160Y5142620D01*
X7195581Y5136004D01*
X7202196Y5131584D01*
X7202197Y5131583D01*
X7203939Y5130862D01*
X7210862Y5123939D01*
X7214608Y5114895D01*
Y5105105D01*
X7210862Y5096061D01*
X7203939Y5089138D01*
X7202197Y5088417D01*
X7202196Y5088416D01*
X7195581Y5083996D01*
X7191160Y5077380D01*
X7189608Y5069577D01*
Y4974983D01*
X7190000Y4973014D01*
Y4971005D01*
X7190769Y4969149D01*
X7191160Y4967180D01*
X7192276Y4965511D01*
X7193045Y4963654D01*
X7194465Y4962234D01*
X7195581Y4960564D01*
X7197250Y4959449D01*
X7198671Y4958028D01*
X7199419Y4957718D01*
X7200718Y4952608D01*
Y4948996D01*
X7199419Y4943888D01*
X7198671Y4943578D01*
X7197251Y4942158D01*
X7195581Y4941042D01*
X7194465Y4939372D01*
X7193045Y4937952D01*
X7192276Y4936095D01*
X7191160Y4934426D01*
X7190769Y4932457D01*
X7190000Y4930601D01*
Y4928592D01*
X7189608Y4926622D01*
Y4669075D01*
X7189629Y4668970D01*
X7189609Y4668863D01*
X7190404Y4665072D01*
X7191160Y4661272D01*
X7191221Y4661182D01*
X7191243Y4661076D01*
X7193422Y4657886D01*
X7195581Y4654656D01*
X7195671Y4654596D01*
X7195732Y4654507D01*
X7204805Y4645621D01*
X7204895Y4645562D01*
X7204958Y4645472D01*
X7208235Y4643380D01*
X7211466Y4641269D01*
X7211573Y4641249D01*
X7211664Y4641191D01*
X7215477Y4640514D01*
X7219286Y4639798D01*
X7219392Y4639820D01*
X7219498Y4639801D01*
X7226115Y4639939D01*
X7229801Y4640753D01*
X7233494Y4641487D01*
X7233673Y4641607D01*
X7233885Y4641654D01*
X7236978Y4643816D01*
X7240109Y4645908D01*
X7243976Y4649774D01*
X7253020Y4653520D01*
X7262809D01*
X7271854Y4649774D01*
X7274405Y4647223D01*
X7274584Y4647103D01*
X7274708Y4646926D01*
X7277039Y4645438D01*
X7278747Y4642881D01*
X7278777Y4642851D01*
X7282523Y4633807D01*
Y4624018D01*
X7278777Y4614973D01*
X7271854Y4608050D01*
X7262809Y4604304D01*
X7253020D01*
X7241131Y4609229D01*
X7239537Y4610294D01*
X7231733Y4611846D01*
X7223930Y4610294D01*
X7223929Y4610294D01*
X7212197Y4605434D01*
X7212196Y4605434D01*
X7205581Y4601013D01*
X7201160Y4594397D01*
X7199608Y4586594D01*
Y4530067D01*
X7199657Y4529821D01*
X7199614Y4529573D01*
X7200433Y4525921D01*
X7201160Y4522263D01*
X7201300Y4522055D01*
X7201354Y4521810D01*
X7203505Y4518753D01*
X7205581Y4515647D01*
X7205790Y4515508D01*
X7205934Y4515303D01*
X7209086Y4513305D01*
X7212196Y4511227D01*
X7212443Y4511178D01*
X7212654Y4511044D01*
X7221318Y4507698D01*
X7223032Y4507400D01*
X7224068Y4507220D01*
X7227056Y4506128D01*
Y4493872D01*
X7224068Y4492780D01*
X7223200Y4492629D01*
X7221318Y4492301D01*
X7212654Y4488956D01*
X7212443Y4488822D01*
X7212196Y4488773D01*
X7209090Y4486697D01*
X7205934Y4484697D01*
X7205789Y4484492D01*
X7205581Y4484352D01*
X7203506Y4481248D01*
X7201355Y4478190D01*
X7201300Y4477945D01*
X7201160Y4477737D01*
X7200432Y4474075D01*
X7199614Y4470426D01*
X7199657Y4470179D01*
X7199608Y4469933D01*
Y3870190D01*
X7186908Y3861704D01*
X7178951Y3865000D01*
X7161049D01*
X7144509Y3858149D01*
X7131851Y3845490D01*
X7125000Y3828951D01*
Y3811049D01*
X7131851Y3794510D01*
X7144509Y3781851D01*
X7161049Y3775000D01*
X7178951D01*
X7186908Y3778296D01*
X7199608Y3769810D01*
Y3100392D01*
X7000000D01*
X6992196Y3098840D01*
X6985581Y3094419D01*
X6981160Y3087804D01*
X6979608Y3080000D01*
Y2940000D01*
X6981160Y2932196D01*
X6985581Y2925581D01*
X6992196Y2921160D01*
X7000000Y2919608D01*
X7780000D01*
X7787804Y2921160D01*
X7794419Y2925581D01*
X7798840Y2932196D01*
X7800392Y2940000D01*
Y4334299D01*
X7800000Y4336269D01*
Y4338278D01*
X7799231Y4340133D01*
X7798840Y4342103D01*
X7797724Y4343773D01*
X7796955Y4345629D01*
X7795535Y4347048D01*
X7794419Y4348718D01*
X7792749Y4349835D01*
X7791328Y4351255D01*
X7790279Y4351956D01*
X7788424Y4352724D01*
X7786754Y4353840D01*
X7784784Y4354232D01*
X7782928Y4355000D01*
X7780920D01*
X7778951Y4355392D01*
X7765105D01*
X7756061Y4359138D01*
X7749138Y4366061D01*
X7745392Y4375105D01*
Y4384894D01*
X7749138Y4393939D01*
X7755968Y4400769D01*
X7756307Y4401275D01*
X7756792Y4401642D01*
X7758506Y4404567D01*
X7760389Y4407385D01*
X7760507Y4407982D01*
X7760815Y4408507D01*
X7761280Y4411865D01*
X7761941Y4415189D01*
X7761822Y4415785D01*
X7761906Y4416388D01*
X7761231Y4427841D01*
X7760346Y4431233D01*
X7759621Y4434666D01*
X7758283Y4437792D01*
X7756109Y4440965D01*
X7753956Y4444188D01*
X7753854Y4444256D01*
X7753786Y4444356D01*
X7750543Y4446468D01*
X7747340Y4448608D01*
X7746061Y4449138D01*
X7739138Y4456061D01*
X7735392Y4465105D01*
Y4474895D01*
X7739138Y4483939D01*
X7746061Y4490862D01*
X7755105Y4494608D01*
X7768420D01*
X7769438Y4494405D01*
X7771408Y4494797D01*
X7773418D01*
X7775273Y4495565D01*
X7777242Y4495957D01*
X7778913Y4497073D01*
X7780769Y4497842D01*
X7791329Y4504898D01*
X7792749Y4506318D01*
X7794419Y4507434D01*
X7795535Y4509104D01*
X7796955Y4510524D01*
X7797724Y4512379D01*
X7798840Y4514049D01*
X7799231Y4516019D01*
X7800000Y4517875D01*
Y4519884D01*
X7800392Y4521853D01*
Y4649608D01*
X8370000D01*
X8377804Y4651160D01*
X8384419Y4655581D01*
X8388840Y4662196D01*
X8390392Y4670000D01*
Y4939608D01*
X8939608D01*
Y4380000D01*
X8941160Y4372196D01*
X8945581Y4365581D01*
X8952196Y4361160D01*
X8960000Y4359608D01*
X9369608D01*
Y3270000D01*
X9371160Y3262196D01*
X9375581Y3255581D01*
X9382196Y3251160D01*
X9390000Y3249608D01*
X9700937D01*
X9701029Y3249626D01*
X9701121Y3249609D01*
X9704928Y3250402D01*
X9708741Y3251160D01*
X9708819Y3251212D01*
X9708910Y3251231D01*
X9712118Y3253417D01*
X9715357Y3255581D01*
X9715409Y3255659D01*
X9715486Y3255711D01*
X9724385Y3264772D01*
X9724436Y3264850D01*
X9724513Y3264904D01*
X9726608Y3268164D01*
X9728746Y3271427D01*
X9728763Y3271520D01*
X9728814Y3271598D01*
X9729501Y3275412D01*
X9730228Y3279245D01*
X9730209Y3279336D01*
X9730225Y3279428D01*
X9713282Y4219782D01*
X9712874Y4221655D01*
X9712857Y4223573D01*
X9712035Y4225506D01*
X9711589Y4227556D01*
X9710496Y4229130D01*
X9709746Y4230896D01*
X9708149Y4244510D01*
X9715000Y4261049D01*
Y4278951D01*
X9708149Y4295490D01*
X9705731Y4307328D01*
X9706767Y4308941D01*
X9708111Y4310309D01*
X9708897Y4312257D01*
X9710031Y4314022D01*
X9710371Y4315908D01*
X9711090Y4317687D01*
X9711070Y4319787D01*
X9711443Y4321852D01*
X9710926Y4350547D01*
X9719825Y4359608D01*
X10759925D01*
X10768815Y4350538D01*
X10759889Y3904257D01*
X10759907Y3904154D01*
X10759886Y3904053D01*
X10760603Y3900249D01*
X10761285Y3896424D01*
X10761341Y3896336D01*
X10761360Y3896234D01*
X10763473Y3893004D01*
X10765572Y3889721D01*
X10765658Y3889661D01*
X10765715Y3889575D01*
X10774389Y3880725D01*
X10774475Y3880667D01*
X10774532Y3880581D01*
X10777756Y3878426D01*
X10780960Y3876239D01*
X10781061Y3876218D01*
X10781148Y3876160D01*
X10793217Y3871160D01*
X10801021Y3869608D01*
X10920000D01*
X10927804Y3871160D01*
X10934419Y3875581D01*
X10938840Y3882196D01*
X10940392Y3890000D01*
Y4359608D01*
X11195601D01*
X11196303Y4359748D01*
X11202316Y4345232D01*
X11214975Y4332573D01*
X11231514Y4325722D01*
X11249416D01*
X11265956Y4332573D01*
X11278614Y4345232D01*
X11284627Y4359748D01*
X11285330Y4359608D01*
X11559810D01*
X11568296Y4346908D01*
X11565000Y4338951D01*
Y4321049D01*
X11571851Y4304510D01*
X11584509Y4291851D01*
X11601049Y4285000D01*
X11618951D01*
X11635490Y4291851D01*
X11648149Y4304510D01*
X11655000Y4321049D01*
Y4338951D01*
X11651704Y4346908D01*
X11660190Y4359608D01*
X11807232D01*
X11808241Y4359808D01*
X11809264Y4359709D01*
X11812114Y4360579D01*
X11815036Y4361160D01*
X11815891Y4361732D01*
X11816875Y4362032D01*
X11829529Y4368822D01*
X11831880Y4370758D01*
X11834403Y4372468D01*
X11834931Y4373270D01*
X11835672Y4373880D01*
X11837104Y4376570D01*
X11838779Y4379114D01*
X11838960Y4380056D01*
X11839411Y4380903D01*
X11839705Y4383937D01*
X11840279Y4386927D01*
X11839053Y4569555D01*
X11838655Y4571488D01*
X11838648Y4573463D01*
X11837860Y4575348D01*
X11837449Y4577348D01*
X11836341Y4578982D01*
X11835579Y4580804D01*
X11834130Y4582243D01*
X11832984Y4583934D01*
X11831334Y4585020D01*
X11829934Y4586411D01*
X11817177Y4594873D01*
X11815350Y4595623D01*
X11813708Y4596720D01*
X11811705Y4597118D01*
X11809816Y4597894D01*
X11807841Y4597887D01*
X11805905Y4598272D01*
X11803902Y4597874D01*
X11801859Y4597867D01*
X11800037Y4597105D01*
X11798101Y4596720D01*
X11794895Y4595392D01*
X11785105D01*
X11776061Y4599138D01*
X11769138Y4606061D01*
X11765392Y4615105D01*
Y4624894D01*
X11769138Y4633939D01*
X11776061Y4640862D01*
X11785105Y4644608D01*
X11794895D01*
X11797534Y4643515D01*
X11799537Y4643116D01*
X11801427Y4642341D01*
X11803401Y4642348D01*
X11805338Y4641963D01*
X11807341Y4642361D01*
X11809383Y4642368D01*
X11811204Y4643129D01*
X11813141Y4643515D01*
X11814840Y4644650D01*
X11816724Y4645437D01*
X11829367Y4653947D01*
X11830805Y4655395D01*
X11832497Y4656542D01*
X11833583Y4658192D01*
X11834974Y4659592D01*
X11835749Y4661481D01*
X11836872Y4663187D01*
X11837245Y4665126D01*
X11837994Y4666953D01*
X11837987Y4668995D01*
X11838372Y4671001D01*
X11823939Y6821526D01*
X11823541Y6823459D01*
X11823534Y6825435D01*
X11822746Y6827320D01*
X11822334Y6829319D01*
X11821227Y6830953D01*
X11820465Y6832775D01*
X11821037Y6843526D01*
X11822711Y6847555D01*
X11829562Y6864095D01*
Y6878569D01*
X11841963D01*
X11858502Y6885420D01*
X11871161Y6898078D01*
X11878012Y6914618D01*
Y6932520D01*
X11871161Y6949059D01*
X11858502Y6961718D01*
X11841963Y6968568D01*
X11824061D01*
X11822947Y6969307D01*
X11820392Y7350061D01*
Y7370000D01*
X11819630Y7373829D01*
X11818910Y7377630D01*
X11818859Y7377710D01*
X11818840Y7377804D01*
X11816673Y7381046D01*
X11814551Y7384286D01*
X11814472Y7384340D01*
X11814419Y7384419D01*
X11811185Y7386580D01*
X11807976Y7388767D01*
X11807883Y7388787D01*
X11807804Y7388840D01*
X11803995Y7389597D01*
X11800187Y7390391D01*
X11472736Y7393395D01*
X11472671Y7393383D01*
X11472606Y7393396D01*
X11468780Y7392646D01*
X11464919Y7391915D01*
X11464863Y7391878D01*
X11464798Y7391865D01*
X11461546Y7389706D01*
X11458263Y7387555D01*
X11458225Y7387500D01*
X11458170Y7387464D01*
X11448944Y7378289D01*
X11448919Y7378251D01*
X11448881Y7378225D01*
X11446701Y7374951D01*
X11444505Y7371685D01*
X11444496Y7371641D01*
X11444471Y7371603D01*
X11443710Y7367745D01*
X11442931Y7363886D01*
X11442940Y7363841D01*
X11442931Y7363797D01*
X11442953Y7350296D01*
X11442952Y7350295D01*
X11442953Y7350294D01*
Y7350262D01*
X11443719Y7346445D01*
X11444505Y7342491D01*
X11444514Y7342478D01*
X11444517Y7342461D01*
X11446696Y7339213D01*
X11448925Y7335876D01*
X11450862Y7333939D01*
X11454608Y7324895D01*
Y7315106D01*
X11450862Y7306061D01*
X11449220Y7304420D01*
X11444800Y7297804D01*
X11443247Y7290001D01*
X11444799Y7282197D01*
X11449220Y7275581D01*
X11450862Y7273939D01*
X11454608Y7264895D01*
Y7255105D01*
X11450862Y7246061D01*
X11443939Y7239138D01*
X11434895Y7235392D01*
X11425105D01*
X11416061Y7239138D01*
X11409138Y7246061D01*
X11405392Y7255105D01*
Y7264895D01*
X11409138Y7273939D01*
X11410780Y7275581D01*
X11415201Y7282197D01*
X11416753Y7290001D01*
X11415200Y7297804D01*
X11410780Y7304419D01*
X11410779Y7304420D01*
X11409138Y7306061D01*
X11405392Y7315106D01*
Y7324895D01*
X11409138Y7333939D01*
X11412483Y7337284D01*
X11413729Y7339149D01*
X11415277Y7340770D01*
X11420547Y7349066D01*
X11421817Y7352346D01*
X11423236Y7355560D01*
X11423248Y7356039D01*
X11423421Y7356486D01*
X11423339Y7360000D01*
X11423421Y7363514D01*
X11423248Y7363961D01*
X11423236Y7364440D01*
X11421816Y7367658D01*
X11420547Y7370934D01*
X11415277Y7379230D01*
X11413728Y7380853D01*
X11412483Y7382716D01*
X11407042Y7388157D01*
X11403809Y7390317D01*
X11400599Y7392505D01*
X11400506Y7392524D01*
X11400427Y7392577D01*
X11396618Y7393335D01*
X11392810Y7394128D01*
X10840711Y7399194D01*
X10838692Y7398811D01*
X10836637Y7398821D01*
X10834821Y7398078D01*
X10832893Y7397713D01*
X10831174Y7396587D01*
X10829272Y7395810D01*
X10827879Y7394429D01*
X10826237Y7393354D01*
X10825080Y7391656D01*
X10823620Y7390210D01*
X10815102Y7377587D01*
X10814307Y7375692D01*
X10813166Y7373984D01*
X10812783Y7372060D01*
X10812024Y7370250D01*
X10812014Y7368195D01*
X10811613Y7366180D01*
X10811996Y7364256D01*
X10811987Y7362294D01*
X10812765Y7360391D01*
X10813166Y7358376D01*
X10814608Y7354895D01*
Y7345105D01*
X10810862Y7336061D01*
X10803939Y7329138D01*
X10794894Y7325392D01*
X10785105D01*
X10776060Y7329139D01*
X10772716Y7332483D01*
X10770851Y7333729D01*
X10769230Y7335277D01*
X10760934Y7340547D01*
X10757654Y7341817D01*
X10754440Y7343237D01*
X10753961Y7343248D01*
X10753514Y7343421D01*
X10750000Y7343339D01*
X10746485Y7343421D01*
X10746039Y7343248D01*
X10745560Y7343237D01*
X10742342Y7341816D01*
X10739066Y7340547D01*
X10730769Y7335277D01*
X10729147Y7333728D01*
X10727284Y7332483D01*
X10723939Y7329139D01*
X10714894Y7325392D01*
X10705105D01*
X10696061Y7329139D01*
X10692716Y7332483D01*
X10690851Y7333729D01*
X10689230Y7335277D01*
X10680934Y7340547D01*
X10677654Y7341817D01*
X10674440Y7343237D01*
X10673961Y7343248D01*
X10673514Y7343421D01*
X10670000Y7343339D01*
X10666486Y7343421D01*
X10666039Y7343248D01*
X10665560Y7343237D01*
X10662342Y7341816D01*
X10659066Y7340547D01*
X10650770Y7335277D01*
X10649148Y7333728D01*
X10647284Y7332483D01*
X10643939Y7329139D01*
X10634895Y7325392D01*
X10625105D01*
X10616061Y7329138D01*
X10609138Y7336061D01*
X10605392Y7345105D01*
Y7354895D01*
X10609138Y7363939D01*
X10616061Y7370862D01*
X10625105Y7374608D01*
X10634895D01*
X10643939Y7370862D01*
X10647284Y7367517D01*
X10649149Y7366271D01*
X10650770Y7364723D01*
X10659066Y7359453D01*
X10662346Y7358183D01*
X10665560Y7356764D01*
X10666039Y7356752D01*
X10666486Y7356579D01*
X10670000Y7356661D01*
X10673514Y7356579D01*
X10673961Y7356752D01*
X10674440Y7356764D01*
X10677658Y7358184D01*
X10680934Y7359453D01*
X10689230Y7364723D01*
X10690852Y7366272D01*
X10692716Y7367517D01*
X10696061Y7370862D01*
X10705105Y7374608D01*
X10710000D01*
X10717804Y7376160D01*
X10724419Y7380581D01*
X10728840Y7387196D01*
X10730392Y7395000D01*
Y7580000D01*
Y10899608D01*
X12430000D01*
X12437804Y10901160D01*
X12444419Y10905581D01*
X12448840Y10912196D01*
X12450392Y10920000D01*
Y10994314D01*
X13055219D01*
X13174313Y10875219D01*
Y10677954D01*
X13171851Y10675491D01*
X13164999Y10658951D01*
Y10641049D01*
X13171851Y10624510D01*
X13184509Y10611851D01*
X13201048Y10605000D01*
X13218951D01*
X13235490Y10611851D01*
X13248149Y10624510D01*
X13255000Y10641049D01*
Y10658951D01*
X13248149Y10675491D01*
X13245686Y10677954D01*
Y10890000D01*
X13242969Y10903656D01*
X13235234Y10915234D01*
X13095235Y11055234D01*
X13083656Y11062969D01*
X13070000Y11065686D01*
X12450392D01*
Y11290961D01*
X12450379Y11291026D01*
X12450392Y11291093D01*
X12449600Y11294939D01*
X12448840Y11298764D01*
X12448802Y11298820D01*
X12448789Y11298886D01*
X12446597Y11302121D01*
X12444419Y11305380D01*
X12444363Y11305418D01*
X12444325Y11305473D01*
X12435287Y11314395D01*
X12435231Y11314432D01*
X12435192Y11314488D01*
X12431910Y11316620D01*
X12428643Y11318773D01*
X12428576Y11318785D01*
X12428520Y11318822D01*
X12424690Y11319532D01*
X12420829Y11320274D01*
D02*
G37*
G36*
X6605000Y11290992D02*
X6495000D01*
X6464979Y11287040D01*
X6437004Y11275452D01*
X6412981Y11257019D01*
X6394548Y11232996D01*
X6382960Y11205021D01*
X6379008Y11175000D01*
X6382960Y11144979D01*
X6394548Y11117004D01*
X6412981Y11092981D01*
X6437004Y11074548D01*
X6464979Y11062960D01*
X6495000Y11059008D01*
X6605000D01*
X6635021Y11062960D01*
X6662996Y11074548D01*
X6687019Y11092981D01*
X6705452Y11117004D01*
X6717040Y11144979D01*
X6720992Y11175000D01*
X6717040Y11205021D01*
X6705452Y11232996D01*
X6687019Y11257019D01*
X6662996Y11275452D01*
X6635021Y11287040D01*
X6605000Y11290992D01*
D02*
G37*
G36*
X7778951Y11045000D02*
X7761049D01*
X7744510Y11038149D01*
X7735000Y11028640D01*
X7725491Y11038149D01*
X7708951Y11045000D01*
X7691049D01*
X7674510Y11038149D01*
X7670000Y11033640D01*
X7665490Y11038149D01*
X7648951Y11045000D01*
X7631049D01*
X7614510Y11038149D01*
X7605000Y11028640D01*
X7595491Y11038149D01*
X7578951Y11045000D01*
X7561049D01*
X7544510Y11038149D01*
X7531851Y11025491D01*
X7525000Y11008951D01*
Y10991049D01*
X7531851Y10974510D01*
X7536361Y10970000D01*
X7531851Y10965490D01*
X7525000Y10948951D01*
Y10931049D01*
X7531851Y10914510D01*
X7544510Y10901851D01*
X7561049Y10895000D01*
X7578951D01*
X7595491Y10901851D01*
X7601703Y10908064D01*
X7610000Y10913334D01*
X7618297Y10908064D01*
X7624510Y10901851D01*
X7641049Y10895000D01*
X7658951D01*
X7675490Y10901851D01*
X7685000Y10911360D01*
X7694510Y10901851D01*
X7711049Y10895000D01*
X7728951D01*
X7745490Y10901851D01*
X7750000Y10906360D01*
X7754510Y10901851D01*
X7771049Y10895000D01*
X7788951D01*
X7805490Y10901851D01*
X7818149Y10914510D01*
X7825000Y10931049D01*
Y10948951D01*
X7818149Y10965490D01*
X7808436Y10975203D01*
X7815000Y10991049D01*
Y11008951D01*
X7808149Y11025491D01*
X7795490Y11038149D01*
X7778951Y11045000D01*
D02*
G37*
G36*
X9038951Y10965000D02*
X9021049D01*
X9004510Y10958149D01*
X8991851Y10945490D01*
X8985000Y10928951D01*
Y10911049D01*
X8991851Y10894510D01*
X8994314Y10892046D01*
Y10864781D01*
X8945219Y10815686D01*
X8210000D01*
X8196344Y10812969D01*
X8184766Y10805234D01*
X8034766Y10655233D01*
X8027031Y10643656D01*
X8024314Y10630000D01*
Y10530392D01*
X6370000D01*
X6362196Y10528840D01*
X6355581Y10524419D01*
X6351160Y10517804D01*
X6349608Y10510000D01*
Y9853880D01*
X6350257Y9850619D01*
X6350690Y9847325D01*
X6351028Y9846740D01*
X6351160Y9846076D01*
X6353007Y9843312D01*
X6354669Y9840434D01*
X6355205Y9840023D01*
X6355581Y9839461D01*
X6358344Y9837614D01*
X6360981Y9835591D01*
X6361634Y9835416D01*
X6362196Y9835040D01*
X6365457Y9834392D01*
X6367534Y9833835D01*
X6372265Y9825000D01*
X6367534Y9816165D01*
X6365457Y9815609D01*
X6362196Y9814960D01*
X6361634Y9814584D01*
X6360981Y9814409D01*
X6358344Y9812386D01*
X6355581Y9810540D01*
X6355205Y9809978D01*
X6354669Y9809566D01*
X6353007Y9806688D01*
X6351160Y9803924D01*
X6351028Y9803260D01*
X6350690Y9802675D01*
X6350257Y9799381D01*
X6349608Y9796120D01*
Y9236492D01*
X6350192Y9233554D01*
X6350486Y9230572D01*
X6350963Y9229680D01*
X6351160Y9228688D01*
X6352824Y9226198D01*
X6354237Y9223555D01*
X6355019Y9222913D01*
X6355581Y9222072D01*
X6358071Y9220408D01*
X6360387Y9218507D01*
X6361355Y9218214D01*
X6362196Y9217652D01*
X6365135Y9217067D01*
X6368001Y9216198D01*
X6380000Y9215016D01*
Y9184984D01*
X6368001Y9183802D01*
X6365134Y9182932D01*
X6362196Y9182348D01*
X6361355Y9181786D01*
X6360388Y9181492D01*
X6358072Y9179592D01*
X6355581Y9177928D01*
X6355019Y9177086D01*
X6354237Y9176445D01*
X6352825Y9173803D01*
X6351160Y9171312D01*
X6350963Y9170320D01*
X6350486Y9169428D01*
X6350192Y9166446D01*
X6349608Y9163508D01*
Y7310066D01*
X6349657Y7309820D01*
X6349614Y7309572D01*
X6350431Y7305927D01*
X6351160Y7302263D01*
X6351300Y7302054D01*
X6351355Y7301808D01*
X6353505Y7298753D01*
X6355581Y7295647D01*
X6355790Y7295507D01*
X6355934Y7295302D01*
X6359088Y7293303D01*
X6362196Y7291226D01*
X6362443Y7291177D01*
X6362655Y7291043D01*
X6371320Y7287698D01*
X6373033Y7287400D01*
X6374069Y7287219D01*
X6377057Y7286128D01*
X6377057Y7273872D01*
X6374069Y7272781D01*
X6373194Y7272628D01*
X6371320Y7272302D01*
X6362655Y7268957D01*
X6362443Y7268822D01*
X6362196Y7268773D01*
X6359089Y7266697D01*
X6355934Y7264698D01*
X6355789Y7264492D01*
X6355581Y7264353D01*
X6353506Y7261248D01*
X6351355Y7258191D01*
X6351300Y7257946D01*
X6351160Y7257737D01*
X6350432Y7254076D01*
X6349614Y7250428D01*
X6349657Y7250180D01*
X6349608Y7249934D01*
Y7161600D01*
X6351160Y7153796D01*
X6355581Y7147181D01*
X6362196Y7142760D01*
X6374896Y7137500D01*
X6382700Y7135947D01*
X6390504Y7137500D01*
X6394678Y7140289D01*
X6405106Y7144608D01*
X6414895D01*
X6423939Y7140862D01*
X6430862Y7133939D01*
X6434608Y7124895D01*
Y7115105D01*
X6430862Y7106061D01*
X6423939Y7099138D01*
X6414895Y7095392D01*
X6405106D01*
X6394679Y7099711D01*
X6390504Y7102501D01*
X6382700Y7104053D01*
X6374896Y7102500D01*
X6362196Y7097240D01*
X6355581Y7092819D01*
X6351160Y7086204D01*
X6349608Y7078400D01*
Y7021600D01*
X6351160Y7013796D01*
X6355581Y7007181D01*
X6362196Y7002760D01*
X6369472Y6999746D01*
X6365000Y6988951D01*
Y6971049D01*
X6369472Y6960254D01*
X6362196Y6957240D01*
X6355581Y6952819D01*
X6351160Y6946204D01*
X6349608Y6938400D01*
Y6200000D01*
X6351160Y6192196D01*
X6355581Y6185581D01*
X6362196Y6181160D01*
X6370000Y6179608D01*
X6531399D01*
X6539203Y6181160D01*
X6543767Y6183051D01*
X6553556D01*
X6558120Y6181160D01*
X6565924Y6179608D01*
X7420000D01*
X7427804Y6181160D01*
X7434419Y6185581D01*
X7438840Y6192196D01*
X7440392Y6200000D01*
Y7179972D01*
X7440000Y7181943D01*
Y7183951D01*
X7439232Y7185806D01*
X7438840Y7187776D01*
X7437723Y7189447D01*
X7436955Y7191302D01*
X7435535Y7192721D01*
X7434419Y7194392D01*
X7432748Y7195508D01*
X7431329Y7196928D01*
X7418629Y7205414D01*
X7416773Y7206182D01*
X7415103Y7207298D01*
X7413134Y7207690D01*
X7411278Y7208459D01*
X7409269D01*
X7407299Y7208850D01*
X7405330Y7208459D01*
X7403321D01*
X7401465Y7207690D01*
X7399496Y7207298D01*
X7394895Y7205392D01*
X7385105D01*
X7376060Y7209138D01*
X7369419Y7215780D01*
X7362804Y7220200D01*
X7355000Y7221753D01*
X7347196Y7220200D01*
X7340581Y7215780D01*
X7340580Y7215779D01*
X7333939Y7209138D01*
X7324895Y7205392D01*
X7315106D01*
X7306061Y7209138D01*
X7299419Y7215780D01*
X7292804Y7220200D01*
X7285000Y7221753D01*
X7277196Y7220200D01*
X7270581Y7215780D01*
X7263939Y7209138D01*
X7254895Y7205392D01*
X7245105D01*
X7236061Y7209138D01*
X7235656Y7209543D01*
X7233985Y7210660D01*
X7232565Y7212080D01*
X7230710Y7212848D01*
X7229040Y7213963D01*
X7227070Y7214355D01*
X7225214Y7215124D01*
X7223206Y7215124D01*
X7221237Y7215516D01*
X7219266Y7215124D01*
X7217257Y7215123D01*
X7214169Y7214509D01*
X7212315Y7213741D01*
X7210345Y7213349D01*
X7208674Y7212233D01*
X7206819Y7211464D01*
X7205399Y7210044D01*
X7203730Y7208929D01*
X7193939Y7199139D01*
X7184895Y7195392D01*
X7175106D01*
X7166061Y7199139D01*
X7156271Y7208929D01*
X7149655Y7213349D01*
X7141851Y7214901D01*
X7128150D01*
X7128149Y7214901D01*
X7120345Y7213349D01*
X7113729Y7208929D01*
X7113729Y7208928D01*
X7103939Y7199139D01*
X7094895Y7195392D01*
X7085105D01*
X7076061Y7199138D01*
X7069138Y7206061D01*
X7065392Y7215105D01*
Y7224895D01*
X7069139Y7233939D01*
X7072483Y7237284D01*
X7073729Y7239149D01*
X7075277Y7240770D01*
X7080547Y7249066D01*
X7081817Y7252346D01*
X7083237Y7255560D01*
X7083248Y7256039D01*
X7083421Y7256486D01*
X7083339Y7260000D01*
X7083421Y7263514D01*
X7083248Y7263961D01*
X7083237Y7264440D01*
X7081816Y7267658D01*
X7080547Y7270934D01*
X7075277Y7279230D01*
X7073728Y7280852D01*
X7072483Y7282716D01*
X7069139Y7286061D01*
X7065392Y7295105D01*
Y7304894D01*
X7069139Y7313939D01*
X7072483Y7317284D01*
X7073729Y7319149D01*
X7075277Y7320770D01*
X7080547Y7329067D01*
X7081814Y7332339D01*
X7083236Y7335559D01*
X7083247Y7336039D01*
X7083420Y7336486D01*
X7083339Y7339996D01*
X7083421Y7343513D01*
X7083247Y7343960D01*
X7083236Y7344440D01*
X7081815Y7347658D01*
X7080547Y7350933D01*
X7075277Y7359230D01*
X7073729Y7360852D01*
X7072483Y7362716D01*
X7069139Y7366061D01*
X7065392Y7375105D01*
Y7384895D01*
X7069138Y7393939D01*
X7076061Y7400862D01*
X7085105Y7404608D01*
X7094895D01*
X7103940Y7400862D01*
X7113729Y7391071D01*
X7120345Y7386651D01*
X7128149Y7385099D01*
X7141850D01*
X7141851Y7385099D01*
X7149655Y7386651D01*
X7156271Y7391071D01*
X7156271Y7391072D01*
X7166061Y7400862D01*
X7175106Y7404608D01*
X7184895D01*
X7193939Y7400862D01*
X7194344Y7400457D01*
X7196015Y7399340D01*
X7197435Y7397920D01*
X7199290Y7397152D01*
X7200960Y7396037D01*
X7202930Y7395645D01*
X7204786Y7394876D01*
X7206795Y7394876D01*
X7208763Y7394484D01*
X7210734Y7394876D01*
X7212743Y7394876D01*
X7215831Y7395491D01*
X7217685Y7396259D01*
X7219655Y7396651D01*
X7221326Y7397767D01*
X7223181Y7398536D01*
X7224601Y7399956D01*
X7226270Y7401071D01*
X7236061Y7410861D01*
X7245105Y7414608D01*
X7254895D01*
X7263939Y7410861D01*
X7270581Y7404220D01*
X7277196Y7399800D01*
X7285000Y7398248D01*
X7292804Y7399800D01*
X7299419Y7404220D01*
X7299420Y7404221D01*
X7306060Y7410861D01*
X7315106Y7414608D01*
X7324895D01*
X7333940Y7410861D01*
X7340581Y7404220D01*
X7347196Y7399800D01*
X7355000Y7398247D01*
X7362804Y7399800D01*
X7369419Y7404220D01*
X7369420Y7404221D01*
X7376061Y7410861D01*
X7385105Y7414608D01*
X7394895D01*
X7399496Y7412702D01*
X7401466Y7412310D01*
X7403321Y7411541D01*
X7405330D01*
X7407300Y7411150D01*
X7409270Y7411542D01*
X7411278D01*
X7413133Y7412310D01*
X7415103Y7412702D01*
X7416773Y7413818D01*
X7418629Y7414586D01*
X7431329Y7423072D01*
X7432749Y7424492D01*
X7434419Y7425608D01*
X7435535Y7427278D01*
X7436955Y7428698D01*
X7437724Y7430554D01*
X7438840Y7432224D01*
X7439231Y7434193D01*
X7440000Y7436049D01*
Y7438059D01*
X7440392Y7440028D01*
Y10025178D01*
X7440078Y10026757D01*
X7440141Y10028368D01*
X7439308Y10030624D01*
X7438840Y10032981D01*
X7437945Y10034321D01*
X7437387Y10035832D01*
X7435755Y10037598D01*
X7434419Y10039597D01*
X7433080Y10040492D01*
X7431986Y10041675D01*
X7429803Y10042681D01*
X7427804Y10044017D01*
X7426651Y10044247D01*
X7425968Y10044450D01*
X7424760Y10045006D01*
X7423452Y10045320D01*
X7417246Y10056401D01*
X7423105Y10074433D01*
X7430000Y10117964D01*
Y10139608D01*
X8120000D01*
X8127804Y10141160D01*
X8134419Y10145581D01*
X8138840Y10152196D01*
X8140392Y10160000D01*
Y10510000D01*
X8138840Y10517804D01*
X8134419Y10524419D01*
X8127804Y10528840D01*
X8120000Y10530392D01*
X8095686D01*
Y10615218D01*
X8224782Y10744314D01*
X8960000D01*
X8973656Y10747031D01*
X8985234Y10754766D01*
X9029782Y10799314D01*
X9210219D01*
X9264314Y10745219D01*
Y10657954D01*
X9261851Y10655491D01*
X9255000Y10638951D01*
Y10621049D01*
X9261851Y10604510D01*
X9274510Y10591851D01*
X9291049Y10585000D01*
X9308951D01*
X9325490Y10591851D01*
X9338149Y10604510D01*
X9345000Y10621049D01*
Y10638951D01*
X9338149Y10655491D01*
X9335686Y10657954D01*
Y10760000D01*
X9332969Y10773656D01*
X9325234Y10785234D01*
X9250234Y10860234D01*
X9238656Y10867969D01*
X9225000Y10870686D01*
X9065686D01*
Y10892046D01*
X9068149Y10894510D01*
X9075000Y10911049D01*
Y10928951D01*
X9068149Y10945490D01*
X9055490Y10958149D01*
X9038951Y10965000D01*
D02*
G37*
G36*
X13820000Y10420392D02*
X12360423D01*
X12352620Y10418840D01*
X12346004Y10414419D01*
X12341584Y10407804D01*
X12341583Y10407803D01*
X12340862Y10406061D01*
X12333939Y10399138D01*
X12324895Y10395392D01*
X12315105D01*
X12306061Y10399138D01*
X12299138Y10406061D01*
X12298417Y10407803D01*
X12298416Y10407804D01*
X12293996Y10414419D01*
X12287380Y10418840D01*
X12279577Y10420392D01*
X12250423D01*
X12242619Y10418840D01*
X12236004Y10414419D01*
X12231583Y10407804D01*
X12230862Y10406061D01*
X12223939Y10399138D01*
X12214895Y10395392D01*
X12205105D01*
X12196061Y10399138D01*
X12189138Y10406061D01*
X12188417Y10407804D01*
X12183996Y10414419D01*
X12177381Y10418840D01*
X12169577Y10420392D01*
X12140423D01*
X12132619Y10418840D01*
X12126004Y10414419D01*
X12121583Y10407804D01*
X12120862Y10406061D01*
X12113939Y10399138D01*
X12104895Y10395392D01*
X12095105D01*
X12086060Y10399139D01*
X12076270Y10408929D01*
X12069655Y10413349D01*
X12061851Y10414901D01*
X12048150D01*
X12048149Y10414902D01*
X12040345Y10413349D01*
X12033730Y10408929D01*
X12033729Y10408928D01*
X12023939Y10399139D01*
X12014895Y10395392D01*
X12005106D01*
X11996061Y10399138D01*
X11989138Y10406061D01*
X11988417Y10407804D01*
X11983996Y10414419D01*
X11977381Y10418840D01*
X11969577Y10420392D01*
X10924142D01*
X10916339Y10418840D01*
X10909723Y10414419D01*
X10905303Y10407804D01*
X10901160Y10397803D01*
X10899608Y10390000D01*
Y10321600D01*
X10901160Y10313796D01*
X10905581Y10307181D01*
X10912196Y10302760D01*
X10924896Y10297500D01*
X10932700Y10295947D01*
X10940504Y10297500D01*
X10944678Y10300289D01*
X10955105Y10304608D01*
X10964895D01*
X10973939Y10300862D01*
X10980862Y10293939D01*
X10984608Y10284895D01*
Y10275105D01*
X10980862Y10266061D01*
X10973939Y10259138D01*
X10964895Y10255392D01*
X10955105D01*
X10944678Y10259711D01*
X10940504Y10262500D01*
X10932700Y10264052D01*
X10924896Y10262500D01*
X10912196Y10257240D01*
X10905581Y10252819D01*
X10901160Y10246204D01*
X10899608Y10238400D01*
Y9600000D01*
X10901160Y9592196D01*
X10905581Y9585581D01*
X10912196Y9581160D01*
X10920000Y9579608D01*
X13259608D01*
Y8605881D01*
X12220000D01*
X12202442Y8602389D01*
X12187557Y8592443D01*
X11947557Y8352443D01*
X11937611Y8337558D01*
X11934118Y8320000D01*
Y6070000D01*
X11935000Y6065568D01*
Y6061049D01*
X11936729Y6056874D01*
X11937611Y6052442D01*
X11940122Y6048684D01*
X11941851Y6044510D01*
X11945046Y6041315D01*
X11947557Y6037557D01*
X11951314Y6035046D01*
X11954509Y6031851D01*
X11958684Y6030122D01*
X11962442Y6027611D01*
X11966874Y6026729D01*
X11971049Y6025000D01*
X11975568D01*
X11980000Y6024119D01*
X11984432Y6025000D01*
X11988951D01*
X11993126Y6026729D01*
X11997558Y6027611D01*
X12001316Y6030122D01*
X12005490Y6031851D01*
X12008685Y6035046D01*
X12012443Y6037557D01*
X12014954Y6041315D01*
X12018149Y6044510D01*
X12019878Y6048684D01*
X12022389Y6052442D01*
X12023271Y6056874D01*
X12025000Y6061049D01*
Y6065568D01*
X12025881Y6070000D01*
Y8300995D01*
X12239005Y8514118D01*
X13259608D01*
Y7994332D01*
X13249985Y7985849D01*
X13247931Y7985000D01*
X13231049D01*
X13214510Y7978149D01*
X13201851Y7965491D01*
X13195000Y7948951D01*
Y7931049D01*
X13201851Y7914510D01*
X13211360Y7905000D01*
X13201851Y7895490D01*
X13195000Y7878951D01*
Y7861049D01*
X13201851Y7844510D01*
X13206361Y7840000D01*
X13201851Y7835490D01*
X13195000Y7818951D01*
Y7801049D01*
X13201648Y7785000D01*
X13195000Y7768951D01*
Y7751049D01*
X13201851Y7734510D01*
X13206360Y7730000D01*
X13201851Y7725491D01*
X13195000Y7708951D01*
Y7691049D01*
X13201851Y7674510D01*
X13214510Y7661851D01*
X13231049Y7655000D01*
X13248952D01*
X13265491Y7661851D01*
X13275000Y7671361D01*
X13284509Y7661851D01*
X13301048Y7655000D01*
X13318951D01*
X13335490Y7661851D01*
X13348149Y7674510D01*
X13355000Y7691049D01*
Y7708951D01*
X13348149Y7725491D01*
X13343640Y7730000D01*
X13348149Y7734510D01*
X13355000Y7751049D01*
Y7768951D01*
X13348352Y7785000D01*
X13355000Y7801049D01*
Y7818951D01*
X13348149Y7835490D01*
X13343640Y7840000D01*
X13348149Y7844510D01*
X13355000Y7861049D01*
Y7878951D01*
X13350726Y7889269D01*
X13351448Y7890839D01*
X13353345Y7893542D01*
X13359885Y7900000D01*
X13361853Y7899608D01*
X13448399D01*
X13456204Y7901160D01*
X13462819Y7905581D01*
X13467239Y7912196D01*
X13472501Y7924896D01*
X13474052Y7932700D01*
X13472501Y7940504D01*
X13469711Y7944678D01*
X13465392Y7955106D01*
Y7964895D01*
X13469138Y7973939D01*
X13476060Y7980862D01*
X13485104Y7984608D01*
X13494894D01*
X13503938Y7980862D01*
X13510863Y7973939D01*
X13514607Y7964895D01*
Y7955106D01*
X13510289Y7944679D01*
X13507500Y7940504D01*
X13505946Y7932700D01*
X13507500Y7924896D01*
X13512759Y7912196D01*
X13517180Y7905581D01*
X13523796Y7901160D01*
X13531599Y7899608D01*
X13820000D01*
X13827805Y7901160D01*
X13834419Y7905581D01*
X13838840Y7912196D01*
X13840392Y7920000D01*
Y9698053D01*
X13839999Y9700023D01*
Y9702031D01*
X13839232Y9703886D01*
X13838840Y9705857D01*
X13837723Y9707527D01*
X13836955Y9709382D01*
X13835535Y9710802D01*
X13834419Y9712472D01*
X13832748Y9713588D01*
X13831329Y9715009D01*
X13829472Y9715777D01*
X13827805Y9716893D01*
X13825835Y9717285D01*
X13823978Y9718053D01*
X13822209Y9718405D01*
X13815154Y9728965D01*
X13820000Y9753332D01*
Y9796668D01*
X13815154Y9821035D01*
X13822209Y9831595D01*
X13823978Y9831947D01*
X13825835Y9832715D01*
X13827805Y9833107D01*
X13829472Y9834223D01*
X13831329Y9834992D01*
X13832748Y9836412D01*
X13834419Y9837528D01*
X13835535Y9839197D01*
X13836955Y9840618D01*
X13837724Y9842474D01*
X13838840Y9844143D01*
X13839232Y9846113D01*
X13839999Y9847969D01*
Y9849977D01*
X13840392Y9851947D01*
Y10400000D01*
X13838840Y10407804D01*
X13834419Y10414419D01*
X13827805Y10418840D01*
X13820000Y10420392D01*
D02*
G37*
G36*
X12287665Y9496200D02*
X12262335D01*
X12237869Y9489644D01*
X12215932Y9476979D01*
X12198021Y9459068D01*
X12185356Y9437132D01*
X12178800Y9412665D01*
Y9387335D01*
X12185356Y9362868D01*
X12198021Y9340932D01*
X12215932Y9323021D01*
X12237869Y9310356D01*
X12262335Y9303800D01*
X12287665D01*
X12312132Y9310356D01*
X12334069Y9323021D01*
X12351979Y9340932D01*
X12364644Y9362868D01*
X12371200Y9387335D01*
Y9412665D01*
X12364644Y9437132D01*
X12351979Y9459068D01*
X12334069Y9476979D01*
X12312132Y9489644D01*
X12287665Y9496200D01*
D02*
G37*
G36*
X11987665D02*
X11962335D01*
X11937869Y9489644D01*
X11915932Y9476979D01*
X11898021Y9459068D01*
X11885356Y9437132D01*
X11878800Y9412665D01*
Y9387335D01*
X11885356Y9362868D01*
X11898021Y9340932D01*
X11915932Y9323021D01*
X11937869Y9310356D01*
X11962335Y9303800D01*
X11987665D01*
X12012132Y9310356D01*
X12034069Y9323021D01*
X12051979Y9340932D01*
X12064644Y9362868D01*
X12071200Y9387335D01*
Y9412665D01*
X12064644Y9437132D01*
X12051979Y9459068D01*
X12034069Y9476979D01*
X12012132Y9489644D01*
X11987665Y9496200D01*
D02*
G37*
G36*
X9937665D02*
X9912335D01*
X9887868Y9489644D01*
X9865932Y9476979D01*
X9848021Y9459068D01*
X9835356Y9437132D01*
X9828800Y9412665D01*
Y9387335D01*
X9835356Y9362868D01*
X9848021Y9340932D01*
X9865932Y9323021D01*
X9887868Y9310356D01*
X9912335Y9303800D01*
X9937665D01*
X9962132Y9310356D01*
X9984068Y9323021D01*
X10001979Y9340932D01*
X10014644Y9362868D01*
X10021200Y9387335D01*
Y9412665D01*
X10014644Y9437132D01*
X10001979Y9459068D01*
X9984068Y9476979D01*
X9962132Y9489644D01*
X9937665Y9496200D01*
D02*
G37*
G36*
X8187665Y9471200D02*
X8162335D01*
X8137868Y9464644D01*
X8115932Y9451979D01*
X8098021Y9434069D01*
X8085356Y9412132D01*
X8078800Y9387665D01*
Y9362335D01*
X8085356Y9337869D01*
X8098021Y9315932D01*
X8115932Y9298021D01*
X8137868Y9285356D01*
X8162335Y9278800D01*
X8187665D01*
X8212132Y9285356D01*
X8234068Y9298021D01*
X8251979Y9315932D01*
X8264644Y9337869D01*
X8271200Y9362335D01*
Y9387665D01*
X8264644Y9412132D01*
X8251979Y9434069D01*
X8234068Y9451979D01*
X8212132Y9464644D01*
X8187665Y9471200D01*
D02*
G37*
G36*
X7887665D02*
X7862335D01*
X7837869Y9464644D01*
X7815932Y9451979D01*
X7798021Y9434069D01*
X7785356Y9412132D01*
X7778800Y9387665D01*
Y9362335D01*
X7785356Y9337869D01*
X7798021Y9315932D01*
X7815932Y9298021D01*
X7837869Y9285356D01*
X7862335Y9278800D01*
X7887665D01*
X7912132Y9285356D01*
X7934068Y9298021D01*
X7951979Y9315932D01*
X7964644Y9337869D01*
X7971200Y9362335D01*
Y9387665D01*
X7964644Y9412132D01*
X7951979Y9434069D01*
X7934068Y9451979D01*
X7912132Y9464644D01*
X7887665Y9471200D01*
D02*
G37*
G36*
X12137837Y9272500D02*
X12112164D01*
X12087367Y9265855D01*
X12065134Y9253020D01*
X12046981Y9234866D01*
X12034145Y9212634D01*
X12027500Y9187836D01*
Y9162164D01*
X12034145Y9137367D01*
X12046981Y9115134D01*
X12065134Y9096981D01*
X12087367Y9084145D01*
X12112164Y9077500D01*
X12137837D01*
X12162634Y9084145D01*
X12184867Y9096981D01*
X12203020Y9115134D01*
X12215856Y9137367D01*
X12222500Y9162164D01*
Y9187836D01*
X12215856Y9212634D01*
X12203020Y9234866D01*
X12184867Y9253020D01*
X12162634Y9265855D01*
X12137837Y9272500D01*
D02*
G37*
G36*
X8037836Y9247500D02*
X8012164D01*
X7987367Y9240856D01*
X7965134Y9228020D01*
X7946981Y9209867D01*
X7934145Y9187634D01*
X7927500Y9162836D01*
Y9137164D01*
X7934145Y9112367D01*
X7946981Y9090134D01*
X7965134Y9071981D01*
X7987367Y9059145D01*
X8012164Y9052500D01*
X8037836D01*
X8062634Y9059145D01*
X8084866Y9071981D01*
X8103020Y9090134D01*
X8115855Y9112367D01*
X8122500Y9137164D01*
Y9162836D01*
X8115855Y9187634D01*
X8103020Y9209867D01*
X8084866Y9228020D01*
X8062634Y9240856D01*
X8037836Y9247500D01*
D02*
G37*
G36*
X12287665Y9046200D02*
X12262335D01*
X12237869Y9039644D01*
X12215932Y9026979D01*
X12198021Y9009068D01*
X12185356Y8987132D01*
X12178800Y8962665D01*
Y8937335D01*
X12185356Y8912868D01*
X12198021Y8890932D01*
X12215932Y8873021D01*
X12237869Y8860356D01*
X12262335Y8853800D01*
X12287665D01*
X12312132Y8860356D01*
X12334069Y8873021D01*
X12351979Y8890932D01*
X12364644Y8912868D01*
X12371200Y8937335D01*
Y8962665D01*
X12364644Y8987132D01*
X12351979Y9009068D01*
X12334069Y9026979D01*
X12312132Y9039644D01*
X12287665Y9046200D01*
D02*
G37*
G36*
X11987665D02*
X11962335D01*
X11937869Y9039644D01*
X11915932Y9026979D01*
X11898021Y9009068D01*
X11885356Y8987132D01*
X11878800Y8962665D01*
Y8937335D01*
X11885356Y8912868D01*
X11898021Y8890932D01*
X11915932Y8873021D01*
X11937869Y8860356D01*
X11962335Y8853800D01*
X11987665D01*
X12012132Y8860356D01*
X12034069Y8873021D01*
X12051979Y8890932D01*
X12064644Y8912868D01*
X12071200Y8937335D01*
Y8962665D01*
X12064644Y8987132D01*
X12051979Y9009068D01*
X12034069Y9026979D01*
X12012132Y9039644D01*
X11987665Y9046200D01*
D02*
G37*
G36*
X9937665D02*
X9912335D01*
X9887868Y9039644D01*
X9865932Y9026979D01*
X9848021Y9009068D01*
X9835356Y8987132D01*
X9828800Y8962665D01*
Y8937335D01*
X9835356Y8912868D01*
X9848021Y8890932D01*
X9865932Y8873021D01*
X9887868Y8860356D01*
X9912335Y8853800D01*
X9937665D01*
X9962132Y8860356D01*
X9984068Y8873021D01*
X10001979Y8890932D01*
X10014644Y8912868D01*
X10021200Y8937335D01*
Y8962665D01*
X10014644Y8987132D01*
X10001979Y9009068D01*
X9984068Y9026979D01*
X9962132Y9039644D01*
X9937665Y9046200D01*
D02*
G37*
G36*
X8187665Y9021200D02*
X8162335D01*
X8137868Y9014644D01*
X8115932Y9001979D01*
X8098021Y8984068D01*
X8085356Y8962132D01*
X8078800Y8937665D01*
Y8912335D01*
X8085356Y8887868D01*
X8098021Y8865932D01*
X8115932Y8848021D01*
X8137868Y8835356D01*
X8162335Y8828800D01*
X8187665D01*
X8212132Y8835356D01*
X8234068Y8848021D01*
X8251979Y8865932D01*
X8264644Y8887868D01*
X8271200Y8912335D01*
Y8937665D01*
X8264644Y8962132D01*
X8251979Y8984068D01*
X8234068Y9001979D01*
X8212132Y9014644D01*
X8187665Y9021200D01*
D02*
G37*
G36*
X7887665D02*
X7862335D01*
X7837869Y9014644D01*
X7815932Y9001979D01*
X7798021Y8984068D01*
X7785356Y8962132D01*
X7778800Y8937665D01*
Y8912335D01*
X7785356Y8887868D01*
X7798021Y8865932D01*
X7815932Y8848021D01*
X7837869Y8835356D01*
X7862335Y8828800D01*
X7887665D01*
X7912132Y8835356D01*
X7934068Y8848021D01*
X7951979Y8865932D01*
X7964644Y8887868D01*
X7971200Y8912335D01*
Y8937665D01*
X7964644Y8962132D01*
X7951979Y8984068D01*
X7934068Y9001979D01*
X7912132Y9014644D01*
X7887665Y9021200D01*
D02*
G37*
G36*
X9828951Y8435000D02*
X9811049D01*
X9794509Y8428149D01*
X9788215Y8421855D01*
X9785825Y8424244D01*
X9769286Y8431095D01*
X9751384D01*
X9734845Y8424244D01*
X9730195Y8419595D01*
X9718201Y8415508D01*
X9713823Y8419816D01*
X9705490Y8428149D01*
X9688951Y8435000D01*
X9671049D01*
X9654510Y8428149D01*
X9648297Y8421936D01*
X9640000Y8416666D01*
X9631703Y8421936D01*
X9625491Y8428149D01*
X9608951Y8435000D01*
X9591049D01*
X9574510Y8428149D01*
X9568297Y8421936D01*
X9560000Y8416666D01*
X9551703Y8421936D01*
X9545490Y8428149D01*
X9528951Y8435000D01*
X9511049D01*
X9494510Y8428149D01*
X9488297Y8421936D01*
X9480000Y8416666D01*
X9471703Y8421936D01*
X9465490Y8428149D01*
X9448951Y8435000D01*
X9431049D01*
X9414509Y8428149D01*
X9401851Y8415490D01*
X9395000Y8398951D01*
Y8381049D01*
X9401648Y8365000D01*
X9395000Y8348951D01*
Y8331049D01*
X9401851Y8314510D01*
X9411360Y8305000D01*
X9401851Y8295490D01*
X9395000Y8278951D01*
Y8261049D01*
X9401851Y8244510D01*
X9411360Y8235000D01*
X9401851Y8225491D01*
X9395000Y8208951D01*
Y8191049D01*
X9401851Y8174510D01*
X9406361Y8170000D01*
X9401851Y8165490D01*
X9395000Y8148951D01*
Y8131049D01*
X9401851Y8114510D01*
X9411360Y8105000D01*
X9401851Y8095491D01*
X9395000Y8078951D01*
Y8061049D01*
X9401851Y8044510D01*
X9411360Y8035000D01*
X9401851Y8025490D01*
X9395000Y8008951D01*
Y7991049D01*
X9401851Y7974510D01*
X9406360Y7970000D01*
X9401851Y7965491D01*
X9395000Y7948951D01*
Y7931049D01*
X9401851Y7914510D01*
X9414509Y7901851D01*
X9431049Y7895000D01*
X9448951D01*
X9455274Y7897619D01*
X9467123Y7892104D01*
X9470582Y7882427D01*
X9465000Y7868951D01*
Y7851049D01*
X9471851Y7834510D01*
X9481361Y7825000D01*
X9471851Y7815490D01*
X9465000Y7798951D01*
Y7781049D01*
X9471851Y7764509D01*
X9481361Y7755000D01*
X9471851Y7745490D01*
X9465000Y7728951D01*
Y7711049D01*
X9471851Y7694510D01*
X9481361Y7685000D01*
X9471851Y7675490D01*
X9465000Y7658951D01*
Y7641049D01*
X9471851Y7624510D01*
X9481361Y7615000D01*
X9471851Y7605491D01*
X9465000Y7588951D01*
Y7571049D01*
X9471851Y7554510D01*
X9481361Y7545000D01*
X9471851Y7535490D01*
X9465000Y7518951D01*
Y7501049D01*
X9471851Y7484510D01*
X9479240Y7477120D01*
X9471516Y7469395D01*
X9464665Y7452856D01*
Y7434954D01*
X9471516Y7418414D01*
X9484174Y7405756D01*
X9500714Y7398905D01*
X9518616D01*
X9535155Y7405756D01*
X9541368Y7411969D01*
X9549665Y7417238D01*
X9557962Y7411969D01*
X9564174Y7405756D01*
X9580714Y7398905D01*
X9598616D01*
X9615155Y7405756D01*
X9621368Y7411969D01*
X9629665Y7417238D01*
X9637962Y7411969D01*
X9644175Y7405756D01*
X9660714Y7398905D01*
X9678616D01*
X9695155Y7405756D01*
X9701368Y7411969D01*
X9709665Y7417239D01*
X9717962Y7411969D01*
X9724174Y7405756D01*
X9740714Y7398905D01*
X9758616D01*
X9775155Y7405756D01*
X9779804Y7410405D01*
X9791799Y7414492D01*
X9796177Y7410184D01*
X9804509Y7401851D01*
X9821049Y7395000D01*
X9838951D01*
X9855490Y7401851D01*
X9868149Y7414510D01*
X9875000Y7431049D01*
Y7448951D01*
X9868149Y7465491D01*
X9860760Y7472880D01*
X9868484Y7480605D01*
X9875335Y7497144D01*
Y7515046D01*
X9868484Y7531586D01*
X9858974Y7541095D01*
X9868484Y7550605D01*
X9875335Y7567144D01*
Y7585046D01*
X9868484Y7601586D01*
X9858975Y7611095D01*
X9868484Y7620605D01*
X9875335Y7637144D01*
Y7655046D01*
X9868484Y7671586D01*
X9858974Y7681095D01*
X9868484Y7690605D01*
X9875335Y7707144D01*
Y7725046D01*
X9868484Y7741586D01*
X9858975Y7751095D01*
X9868484Y7760605D01*
X9875335Y7777144D01*
Y7795046D01*
X9868484Y7811586D01*
X9858974Y7821095D01*
X9868484Y7830605D01*
X9875335Y7847144D01*
Y7865046D01*
X9868484Y7881586D01*
X9863975Y7886095D01*
X9868484Y7890605D01*
X9875335Y7907144D01*
Y7925046D01*
X9868484Y7941586D01*
X9855826Y7954244D01*
X9852859Y7969220D01*
X9858149Y7974510D01*
X9865000Y7991049D01*
Y8008951D01*
X9858149Y8025490D01*
X9848639Y8035000D01*
X9858149Y8044510D01*
X9865000Y8061049D01*
Y8078951D01*
X9858149Y8095491D01*
X9848639Y8105000D01*
X9858149Y8114510D01*
X9865000Y8131049D01*
Y8148951D01*
X9858149Y8165490D01*
X9853639Y8170000D01*
X9858149Y8174510D01*
X9865000Y8191049D01*
Y8208951D01*
X9858149Y8225491D01*
X9848639Y8235000D01*
X9858149Y8244510D01*
X9865000Y8261049D01*
Y8278951D01*
X9858149Y8295490D01*
X9848639Y8305000D01*
X9858149Y8314510D01*
X9865000Y8331049D01*
Y8348951D01*
X9858352Y8365000D01*
X9865000Y8381049D01*
Y8398951D01*
X9858149Y8415490D01*
X9845490Y8428149D01*
X9828951Y8435000D01*
D02*
G37*
G36*
X12728951Y8385000D02*
X12711049D01*
X12694510Y8378149D01*
X12685000Y8368640D01*
X12675491Y8378149D01*
X12658951Y8385000D01*
X12641049D01*
X12624510Y8378149D01*
X12611851Y8365491D01*
X12609769Y8360464D01*
X12606642Y8359126D01*
X12595189Y8358451D01*
X12585490Y8368149D01*
X12568951Y8375000D01*
X12551049D01*
X12534510Y8368149D01*
X12528297Y8361936D01*
X12520000Y8356666D01*
X12511703Y8361936D01*
X12505491Y8368149D01*
X12488951Y8375000D01*
X12471049D01*
X12454510Y8368149D01*
X12448297Y8361936D01*
X12440000Y8356667D01*
X12431703Y8361936D01*
X12425491Y8368149D01*
X12408951Y8375000D01*
X12391049D01*
X12374510Y8368149D01*
X12368297Y8361936D01*
X12360000Y8356667D01*
X12351703Y8361936D01*
X12345490Y8368149D01*
X12328951Y8375000D01*
X12311049D01*
X12294510Y8368149D01*
X12281851Y8355491D01*
X12275000Y8338951D01*
Y8321049D01*
X12281851Y8304510D01*
X12286360Y8300000D01*
X12281851Y8295490D01*
X12275000Y8278951D01*
Y8261049D01*
X12281851Y8244510D01*
X12286360Y8240000D01*
X12281851Y8235491D01*
X12275000Y8218951D01*
Y8201049D01*
X12281851Y8184510D01*
X12286360Y8180000D01*
X12281851Y8175490D01*
X12275000Y8158951D01*
Y8141049D01*
X12281648Y8125000D01*
X12275000Y8108951D01*
Y8091049D01*
X12281648Y8075000D01*
X12275000Y8058951D01*
Y8041049D01*
X12281851Y8024509D01*
X12282211Y8024150D01*
X12278551Y8020490D01*
X12271700Y8003951D01*
Y7986049D01*
X12278551Y7969510D01*
X12282211Y7965850D01*
X12281851Y7965491D01*
X12275000Y7948951D01*
Y7931049D01*
X12281851Y7914510D01*
X12286360Y7910000D01*
X12281851Y7905490D01*
X12275000Y7888951D01*
Y7871049D01*
X12281851Y7854510D01*
X12291361Y7845000D01*
X12281851Y7835490D01*
X12275000Y7818951D01*
Y7801049D01*
X12281851Y7784509D01*
X12286360Y7780000D01*
X12281851Y7775490D01*
X12275000Y7758951D01*
Y7741049D01*
X12281851Y7724510D01*
X12291361Y7715000D01*
X12281851Y7705490D01*
X12275000Y7688951D01*
Y7671049D01*
X12281851Y7654509D01*
X12286360Y7650000D01*
X12281851Y7645490D01*
X12275000Y7628951D01*
Y7611049D01*
X12281851Y7594510D01*
X12286360Y7590000D01*
X12281851Y7585491D01*
X12275000Y7568951D01*
Y7551049D01*
X12281648Y7535000D01*
X12275000Y7518951D01*
Y7501049D01*
X12281851Y7484510D01*
X12294510Y7471851D01*
X12311049Y7465000D01*
X12328951D01*
X12345490Y7471851D01*
X12347379Y7473740D01*
X12358146Y7466546D01*
X12355000Y7458951D01*
Y7441049D01*
X12361851Y7424510D01*
X12374509Y7411851D01*
X12391049Y7405000D01*
X12408951D01*
X12425490Y7411851D01*
X12427380Y7413740D01*
X12438146Y7406546D01*
X12435000Y7398951D01*
Y7381049D01*
X12441851Y7364510D01*
X12446360Y7360000D01*
X12441851Y7355490D01*
X12435000Y7338951D01*
Y7321049D01*
X12441851Y7304510D01*
X12454510Y7291851D01*
X12471049Y7285000D01*
X12488951D01*
X12505490Y7291851D01*
X12511703Y7298064D01*
X12520000Y7303334D01*
X12528297Y7298064D01*
X12534509Y7291851D01*
X12551049Y7285000D01*
X12568951D01*
X12585490Y7291851D01*
X12598149Y7304510D01*
X12605000Y7321049D01*
Y7338951D01*
X12598149Y7355490D01*
X12593639Y7360000D01*
X12598149Y7364510D01*
X12605000Y7381049D01*
Y7398951D01*
X12598149Y7415490D01*
X12593639Y7420000D01*
X12598149Y7424510D01*
X12605000Y7441049D01*
Y7458951D01*
X12598149Y7475491D01*
X12593640Y7480000D01*
X12598149Y7484510D01*
X12605000Y7501049D01*
Y7518951D01*
X12598352Y7535000D01*
X12605000Y7551049D01*
Y7568951D01*
X12598149Y7585491D01*
X12593640Y7590000D01*
X12598149Y7594510D01*
X12605000Y7611049D01*
Y7628951D01*
X12598149Y7645490D01*
X12593640Y7650000D01*
X12598149Y7654509D01*
X12605000Y7671049D01*
Y7688951D01*
X12598149Y7705490D01*
X12588639Y7715000D01*
X12598149Y7724510D01*
X12605000Y7741049D01*
Y7758951D01*
X12598149Y7775490D01*
X12593640Y7780000D01*
X12598149Y7784509D01*
X12605000Y7801049D01*
Y7818951D01*
X12598149Y7835490D01*
X12594789Y7838851D01*
X12598036Y7846080D01*
X12611564Y7845203D01*
X12611851Y7844510D01*
X12624510Y7831851D01*
X12641049Y7825000D01*
X12658951D01*
X12675491Y7831851D01*
X12684750Y7841111D01*
X12690010Y7835851D01*
X12706550Y7829000D01*
X12724452D01*
X12740991Y7835851D01*
X12742226Y7837086D01*
X12759731Y7836630D01*
X12764510Y7831851D01*
X12781049Y7825000D01*
X12798951D01*
X12815491Y7831851D01*
X12825000Y7841360D01*
X12834509Y7831851D01*
X12851048Y7825000D01*
X12868951D01*
X12885490Y7831851D01*
X12898149Y7844510D01*
X12905000Y7861049D01*
Y7878951D01*
X12898149Y7895490D01*
X12888638Y7905000D01*
X12898149Y7914510D01*
X12905000Y7931049D01*
Y7948951D01*
X12898149Y7965491D01*
X12885490Y7978149D01*
X12868951Y7985000D01*
X12851048D01*
X12834509Y7978149D01*
X12825000Y7968640D01*
X12815491Y7978149D01*
X12798951Y7985000D01*
X12781049D01*
X12770245Y7980525D01*
X12760525Y7990245D01*
X12765000Y8001049D01*
Y8018951D01*
X12758149Y8035490D01*
X12748639Y8045000D01*
X12758149Y8054510D01*
X12765000Y8071049D01*
Y8088951D01*
X12758149Y8105491D01*
X12753639Y8110000D01*
X12758149Y8114510D01*
X12765000Y8131049D01*
Y8148951D01*
X12758149Y8165490D01*
X12748639Y8175000D01*
X12758149Y8184510D01*
X12765000Y8201049D01*
Y8218951D01*
X12758149Y8235491D01*
X12753639Y8240000D01*
X12758149Y8244510D01*
X12765000Y8261049D01*
Y8278951D01*
X12758149Y8295490D01*
X12748639Y8305000D01*
X12758149Y8314510D01*
X12765000Y8331049D01*
Y8348951D01*
X12758149Y8365491D01*
X12745490Y8378149D01*
X12728951Y8385000D01*
D02*
G37*
G36*
X8598951Y8375000D02*
X8581049D01*
X8564510Y8368149D01*
X8558297Y8361936D01*
X8550000Y8356667D01*
X8541703Y8361936D01*
X8535490Y8368149D01*
X8518951Y8375000D01*
X8501049D01*
X8484510Y8368149D01*
X8478297Y8361936D01*
X8470000Y8356667D01*
X8461703Y8361936D01*
X8455490Y8368149D01*
X8438951Y8375000D01*
X8421049D01*
X8404509Y8368149D01*
X8395000Y8358640D01*
X8385490Y8368149D01*
X8368951Y8375000D01*
X8351049D01*
X8334510Y8368149D01*
X8328297Y8361936D01*
X8320000Y8356666D01*
X8311703Y8361936D01*
X8305491Y8368149D01*
X8288951Y8375000D01*
X8271049D01*
X8254510Y8368149D01*
X8248297Y8361936D01*
X8240000Y8356667D01*
X8231703Y8361936D01*
X8225491Y8368149D01*
X8208951Y8375000D01*
X8191049D01*
X8174510Y8368149D01*
X8161851Y8355491D01*
X8155000Y8338951D01*
Y8321049D01*
X8161851Y8304510D01*
X8168064Y8298297D01*
X8173334Y8290000D01*
X8168064Y8281703D01*
X8161851Y8275490D01*
X8155000Y8258951D01*
Y8241049D01*
X8161851Y8224510D01*
X8168064Y8218297D01*
X8173334Y8210000D01*
X8168064Y8201703D01*
X8161851Y8195490D01*
X8155000Y8178951D01*
Y8161049D01*
X8161851Y8144509D01*
X8168064Y8138297D01*
X8173334Y8130000D01*
X8168064Y8121703D01*
X8161851Y8115490D01*
X8155000Y8098951D01*
Y8081049D01*
X8161851Y8064510D01*
X8172666Y8053695D01*
X8164351Y8045380D01*
X8157500Y8028840D01*
Y8010938D01*
X8164351Y7994399D01*
X8176168Y7982582D01*
X8176459Y7976703D01*
X8175572Y7968589D01*
X8174509Y7968149D01*
X8161851Y7955490D01*
X8155000Y7938951D01*
Y7921049D01*
X8157409Y7915234D01*
X8148362Y7903887D01*
X8134510Y7898149D01*
X8121851Y7885490D01*
X8115000Y7868951D01*
Y7851049D01*
X8121851Y7834510D01*
X8131360Y7825000D01*
X8121851Y7815490D01*
X8115000Y7798951D01*
Y7781049D01*
X8121851Y7764509D01*
X8131360Y7755000D01*
X8121851Y7745490D01*
X8115000Y7728951D01*
Y7711049D01*
X8121851Y7694510D01*
X8131360Y7685000D01*
X8121851Y7675490D01*
X8115000Y7658951D01*
Y7641049D01*
X8121851Y7624510D01*
X8134509Y7611851D01*
X8136783Y7600422D01*
X8131851Y7595491D01*
X8125000Y7578951D01*
Y7561049D01*
X8131851Y7544510D01*
X8131869Y7544491D01*
X8134509Y7538149D01*
X8121851Y7525490D01*
X8115000Y7508951D01*
Y7491049D01*
X8121851Y7474510D01*
X8131360Y7465000D01*
X8121851Y7455491D01*
X8115000Y7438951D01*
Y7421049D01*
X8121851Y7404510D01*
X8134510Y7391851D01*
X8151049Y7385000D01*
X8168951D01*
X8185490Y7391851D01*
X8191703Y7398064D01*
X8200000Y7403334D01*
X8208297Y7398064D01*
X8214510Y7391851D01*
X8231049Y7385000D01*
X8248951D01*
X8265490Y7391851D01*
X8271703Y7398064D01*
X8280000Y7403334D01*
X8288297Y7398064D01*
X8294510Y7391851D01*
X8311049Y7385000D01*
X8328951D01*
X8345491Y7391851D01*
X8351703Y7398064D01*
X8360000Y7403334D01*
X8368297Y7398064D01*
X8374510Y7391851D01*
X8391049Y7385000D01*
X8408951D01*
X8425490Y7391851D01*
X8438149Y7404510D01*
X8445000Y7421049D01*
Y7438951D01*
X8438149Y7455491D01*
X8428639Y7465000D01*
X8438149Y7474510D01*
X8445000Y7491049D01*
Y7508951D01*
X8438149Y7525490D01*
X8438130Y7525509D01*
X8435491Y7531851D01*
X8448149Y7544510D01*
X8455000Y7561049D01*
Y7578951D01*
X8448149Y7595491D01*
X8435491Y7608149D01*
X8433217Y7619578D01*
X8438149Y7624510D01*
X8445000Y7641049D01*
Y7658951D01*
X8438149Y7675490D01*
X8428639Y7685000D01*
X8438149Y7694510D01*
X8445000Y7711049D01*
Y7728951D01*
X8438149Y7745490D01*
X8428639Y7755000D01*
X8438149Y7764509D01*
X8445000Y7781049D01*
Y7798951D01*
X8440525Y7809755D01*
X8450245Y7819475D01*
X8461049Y7815000D01*
X8478951D01*
X8495490Y7821851D01*
X8501703Y7828064D01*
X8510000Y7833334D01*
X8518297Y7828064D01*
X8524509Y7821851D01*
X8541049Y7815000D01*
X8558951D01*
X8575490Y7821851D01*
X8581703Y7828064D01*
X8590000Y7833334D01*
X8598297Y7828064D01*
X8604510Y7821851D01*
X8621049Y7815000D01*
X8638951D01*
X8655490Y7821851D01*
X8661703Y7828064D01*
X8670000Y7833334D01*
X8678297Y7828064D01*
X8684509Y7821851D01*
X8701049Y7815000D01*
X8718951D01*
X8735490Y7821851D01*
X8741703Y7828064D01*
X8750000Y7833334D01*
X8758297Y7828064D01*
X8764510Y7821851D01*
X8781049Y7815000D01*
X8798951D01*
X8815490Y7821851D01*
X8821703Y7828064D01*
X8830000Y7833334D01*
X8838297Y7828064D01*
X8844510Y7821851D01*
X8861049Y7815000D01*
X8878951D01*
X8895490Y7821851D01*
X8901703Y7828064D01*
X8910000Y7833334D01*
X8918297Y7828064D01*
X8924510Y7821851D01*
X8941049Y7815000D01*
X8958951D01*
X8975491Y7821851D01*
X8981703Y7828064D01*
X8990000Y7833334D01*
X8998297Y7828064D01*
X9004510Y7821851D01*
X9021049Y7815000D01*
X9038951D01*
X9055490Y7821851D01*
X9068149Y7834510D01*
X9075000Y7851049D01*
Y7868951D01*
X9068149Y7885490D01*
X9061339Y7892300D01*
X9066600Y7905000D01*
X9078951D01*
X9095490Y7911851D01*
X9101703Y7918064D01*
X9110000Y7923334D01*
X9118297Y7918064D01*
X9124510Y7911851D01*
X9141049Y7905000D01*
X9158951D01*
X9175490Y7911851D01*
X9181703Y7918064D01*
X9190000Y7923334D01*
X9198297Y7918064D01*
X9204509Y7911851D01*
X9221049Y7905000D01*
X9238951D01*
X9255490Y7911851D01*
X9268149Y7924510D01*
X9275000Y7941049D01*
Y7958951D01*
X9268149Y7975491D01*
X9255490Y7988149D01*
X9238951Y7995000D01*
X9221049D01*
X9204509Y7988149D01*
X9198297Y7981936D01*
X9190000Y7976666D01*
X9181703Y7981936D01*
X9175490Y7988149D01*
X9158951Y7995000D01*
X9141049D01*
X9124510Y7988149D01*
X9118297Y7981936D01*
X9110000Y7976667D01*
X9101703Y7981936D01*
X9095490Y7988149D01*
X9078951Y7995000D01*
X9061049D01*
X9044509Y7988149D01*
X9038297Y7981936D01*
X9030000Y7976667D01*
X9021703Y7981936D01*
X9015490Y7988149D01*
X8998951Y7995000D01*
X8981049D01*
X8964509Y7988149D01*
X8951851Y7975491D01*
X8945000Y7958951D01*
Y7941049D01*
X8951851Y7924510D01*
X8958661Y7917700D01*
X8953400Y7905000D01*
X8941049D01*
X8924510Y7898149D01*
X8918297Y7891936D01*
X8910000Y7886666D01*
X8901703Y7891936D01*
X8895490Y7898149D01*
X8878951Y7905000D01*
X8861049D01*
X8844510Y7898149D01*
X8838297Y7891936D01*
X8830000Y7886666D01*
X8821703Y7891936D01*
X8815490Y7898149D01*
X8810173Y7900351D01*
X8803212Y7916733D01*
X8805000Y7921049D01*
Y7938951D01*
X8798149Y7955490D01*
X8785490Y7968149D01*
X8768951Y7975000D01*
X8751049D01*
X8734510Y7968149D01*
X8728297Y7961936D01*
X8720000Y7956666D01*
X8711703Y7961936D01*
X8705491Y7968149D01*
X8688951Y7975000D01*
X8671049D01*
X8654510Y7968149D01*
X8648297Y7961936D01*
X8640000Y7956666D01*
X8631703Y7961936D01*
X8625490Y7968149D01*
X8621928Y7969625D01*
X8620568Y7973810D01*
X8620297Y7984047D01*
X8630649Y7994399D01*
X8637500Y8010938D01*
Y8028840D01*
X8630649Y8045380D01*
X8619834Y8056195D01*
X8628149Y8064510D01*
X8635000Y8081049D01*
Y8098951D01*
X8628149Y8115490D01*
X8621936Y8121703D01*
X8616666Y8130000D01*
X8621936Y8138297D01*
X8628149Y8144509D01*
X8635000Y8161049D01*
Y8178951D01*
X8628149Y8195490D01*
X8621936Y8201703D01*
X8616667Y8210000D01*
X8621936Y8218297D01*
X8628149Y8224510D01*
X8635000Y8241049D01*
Y8258951D01*
X8628149Y8275490D01*
X8621936Y8281703D01*
X8616667Y8290000D01*
X8621936Y8298297D01*
X8628149Y8304510D01*
X8635000Y8321049D01*
Y8338951D01*
X8628149Y8355491D01*
X8615491Y8368149D01*
X8598951Y8375000D01*
D02*
G37*
G36*
X11201344Y7659326D02*
X11183442D01*
X11166902Y7652475D01*
X11154244Y7639816D01*
X11147393Y7623277D01*
Y7605375D01*
X11154244Y7588835D01*
X11166902Y7576177D01*
X11179904Y7570791D01*
X11175000Y7558951D01*
Y7541049D01*
X11181851Y7524509D01*
X11194509Y7511851D01*
X11211049Y7505000D01*
X11228951D01*
X11245490Y7511851D01*
X11258149Y7524509D01*
X11265000Y7541049D01*
Y7558951D01*
X11258149Y7575490D01*
X11245490Y7588149D01*
X11232488Y7593534D01*
X11237393Y7605375D01*
Y7623277D01*
X11230542Y7639816D01*
X11217883Y7652475D01*
X11201344Y7659326D01*
D02*
G37*
G36*
X12978951Y7425000D02*
X12961049D01*
X12944510Y7418149D01*
X12931851Y7405491D01*
X12925000Y7388951D01*
Y7371049D01*
X12931851Y7354510D01*
X12944510Y7341851D01*
X12961049Y7335000D01*
X12978951D01*
X12995491Y7341851D01*
X13008150Y7354510D01*
X13014999Y7371049D01*
Y7388951D01*
X13008150Y7405491D01*
X12995491Y7418149D01*
X12978951Y7425000D01*
D02*
G37*
G36*
X7669294Y6892327D02*
X7651392D01*
X7634853Y6885476D01*
X7622194Y6872818D01*
X7618179Y6863123D01*
X7612174Y6851864D01*
X7594273D01*
X7577733Y6845013D01*
X7565075Y6832354D01*
X7558224Y6815815D01*
Y6797913D01*
X7565075Y6781373D01*
X7577733Y6768715D01*
X7594273Y6761864D01*
X7612175D01*
X7628714Y6768715D01*
X7641373Y6781373D01*
X7645388Y6791068D01*
X7651393Y6802327D01*
X7669294D01*
X7685834Y6809178D01*
X7698492Y6821837D01*
X7705343Y6838376D01*
Y6856278D01*
X7698492Y6872818D01*
X7685834Y6885476D01*
X7669294Y6892327D01*
D02*
G37*
G36*
X9838951Y6845000D02*
X9821049D01*
X9804509Y6838149D01*
X9791851Y6825491D01*
X9785000Y6808951D01*
Y6791049D01*
X9791851Y6774510D01*
X9804509Y6761851D01*
X9821049Y6755000D01*
X9838951D01*
X9840512Y6750036D01*
Y6748406D01*
X9847363Y6731867D01*
X9860021Y6719208D01*
X9876561Y6712357D01*
X9894463D01*
X9911002Y6719208D01*
X9923661Y6731867D01*
X9930512Y6748406D01*
Y6766308D01*
X9923661Y6782847D01*
X9911002Y6795506D01*
X9894463Y6802357D01*
X9876561D01*
X9875000Y6807321D01*
Y6808951D01*
X9868149Y6825491D01*
X9855490Y6838149D01*
X9838951Y6845000D01*
D02*
G37*
G36*
X9227443Y6384047D02*
X9209541D01*
X9193001Y6377196D01*
X9180343Y6364538D01*
X9173492Y6347998D01*
Y6330096D01*
X9180343Y6313557D01*
X9193001Y6300898D01*
X9193708Y6297347D01*
X9191851Y6295490D01*
X9185000Y6278951D01*
Y6261049D01*
X9191851Y6244509D01*
X9204510Y6231851D01*
X9221049Y6225000D01*
X9238951D01*
X9255491Y6231851D01*
X9268149Y6244509D01*
X9275000Y6261049D01*
Y6278951D01*
X9268149Y6295490D01*
X9255491Y6308149D01*
X9254784Y6311700D01*
X9256641Y6313557D01*
X9263492Y6330096D01*
Y6347998D01*
X9256641Y6364538D01*
X9243982Y6377196D01*
X9227443Y6384047D01*
D02*
G37*
G36*
X8717612Y6263442D02*
X8699711D01*
X8683171Y6256592D01*
X8670513Y6243933D01*
X8663662Y6227393D01*
Y6209492D01*
X8670513Y6192952D01*
X8683171Y6180293D01*
X8699711Y6173443D01*
X8717612D01*
X8734152Y6180293D01*
X8746811Y6192952D01*
X8753661Y6209492D01*
Y6227393D01*
X8746811Y6243933D01*
X8734152Y6256592D01*
X8717612Y6263442D01*
D02*
G37*
G36*
X12738951Y5855000D02*
X12721049D01*
X12704510Y5848149D01*
X12691851Y5835490D01*
X12685000Y5818951D01*
Y5801049D01*
X12691851Y5784510D01*
X12704510Y5771851D01*
X12721049Y5765000D01*
X12738951D01*
X12755490Y5771851D01*
X12768149Y5784510D01*
X12775000Y5801049D01*
Y5818951D01*
X12768149Y5835490D01*
X12755490Y5848149D01*
X12738951Y5855000D01*
D02*
G37*
G36*
X7128951Y5845000D02*
X7111049D01*
X7094510Y5838149D01*
X7081851Y5825491D01*
X7075000Y5808951D01*
Y5791049D01*
X7081851Y5774510D01*
X7094510Y5761851D01*
X7111049Y5755000D01*
X7128951D01*
X7145490Y5761851D01*
X7158149Y5774510D01*
X7165000Y5791049D01*
Y5808951D01*
X7158149Y5825491D01*
X7145490Y5838149D01*
X7128951Y5845000D01*
D02*
G37*
G36*
X7988951Y5785000D02*
X7971049D01*
X7954510Y5778149D01*
X7941851Y5765490D01*
X7935000Y5748951D01*
Y5731049D01*
X7941851Y5714510D01*
X7954510Y5701851D01*
X7971049Y5695000D01*
X7988951D01*
X8005490Y5701851D01*
X8018149Y5714510D01*
X8025000Y5731049D01*
Y5748951D01*
X8018149Y5765490D01*
X8005490Y5778149D01*
X7988951Y5785000D01*
D02*
G37*
G36*
X8411410Y5665406D02*
X8393508D01*
X8376969Y5658555D01*
X8364310Y5645897D01*
X8357459Y5629357D01*
Y5611455D01*
X8364310Y5594916D01*
X8376969Y5582257D01*
X8393508Y5575406D01*
X8411410D01*
X8427950Y5582257D01*
X8440608Y5594916D01*
X8447459Y5611455D01*
Y5629357D01*
X8440608Y5645897D01*
X8427950Y5658555D01*
X8411410Y5665406D01*
D02*
G37*
G36*
X7958951Y5095000D02*
X7941049D01*
X7924510Y5088149D01*
X7911851Y5075490D01*
X7905000Y5058951D01*
Y5041049D01*
X7911851Y5024510D01*
X7924510Y5011851D01*
X7941049Y5005000D01*
X7958951D01*
X7975491Y5011851D01*
X7988149Y5024510D01*
X7995000Y5041049D01*
Y5058951D01*
X7988149Y5075490D01*
X7975491Y5088149D01*
X7958951Y5095000D01*
D02*
G37*
G36*
X12878951Y5055000D02*
X12861049D01*
X12844508Y5048149D01*
X12831851Y5035490D01*
X12825000Y5018951D01*
Y5001049D01*
X12831851Y4984509D01*
X12844508Y4971851D01*
X12861049Y4965000D01*
X12878951D01*
X12895490Y4971851D01*
X12908150Y4984509D01*
X12914999Y5001049D01*
Y5018951D01*
X12908150Y5035490D01*
X12895490Y5048149D01*
X12878951Y5055000D01*
D02*
G37*
G36*
X12608951Y4895000D02*
X12591049D01*
X12574510Y4888149D01*
X12561851Y4875490D01*
X12555000Y4858951D01*
Y4841049D01*
X12561851Y4824510D01*
X12574510Y4811851D01*
X12591049Y4805000D01*
X12608951D01*
X12625490Y4811851D01*
X12638149Y4824510D01*
X12645000Y4841049D01*
Y4858951D01*
X12638149Y4875490D01*
X12625490Y4888149D01*
X12608951Y4895000D01*
D02*
G37*
G36*
X12973952Y4620000D02*
X12956049D01*
X12939510Y4613149D01*
X12926851Y4600490D01*
X12920000Y4583951D01*
Y4566049D01*
X12926851Y4549510D01*
X12939510Y4536851D01*
X12956049Y4530000D01*
X12973952D01*
X12990491Y4536851D01*
X13003149Y4549510D01*
X13010001Y4566049D01*
Y4583951D01*
X13003149Y4600490D01*
X12990491Y4613149D01*
X12973952Y4620000D01*
D02*
G37*
G36*
X6978951Y4715000D02*
X6961049D01*
X6944510Y4708149D01*
X6931851Y4695490D01*
X6925000Y4678951D01*
Y4661049D01*
X6931851Y4644510D01*
X6936717Y4639644D01*
X6931908Y4626944D01*
X6915368Y4620093D01*
X6902710Y4607435D01*
X6895859Y4590895D01*
Y4572993D01*
X6898837Y4565804D01*
X6890351Y4553104D01*
X6825000D01*
X6806726Y4550698D01*
X6789698Y4543645D01*
X6775075Y4532425D01*
X6763855Y4517802D01*
X6756802Y4500774D01*
X6754396Y4482500D01*
X6756802Y4464227D01*
X6763855Y4447198D01*
X6775075Y4432576D01*
X6789698Y4421355D01*
X6806726Y4414302D01*
X6825000Y4411896D01*
X6945000D01*
X6963274Y4414302D01*
X6980302Y4421355D01*
X6994925Y4432576D01*
X7006145Y4447198D01*
X7013198Y4464227D01*
X7015604Y4482500D01*
X7013198Y4500774D01*
X7006145Y4517802D01*
X6994925Y4532425D01*
X6982485Y4541970D01*
X6979123Y4554818D01*
X6979529Y4557711D01*
X6985859Y4572993D01*
Y4590895D01*
X6979008Y4607435D01*
X6974142Y4612300D01*
X6978951Y4625000D01*
X6995490Y4631851D01*
X7008149Y4644510D01*
X7015000Y4661049D01*
Y4678951D01*
X7008149Y4695490D01*
X6995490Y4708149D01*
X6978951Y4715000D01*
D02*
G37*
G36*
X6510000Y4553104D02*
X6420000D01*
X6401727Y4550698D01*
X6384698Y4543645D01*
X6370076Y4532425D01*
X6358855Y4517802D01*
X6351802Y4500774D01*
X6349396Y4482500D01*
X6351802Y4464227D01*
X6358855Y4447198D01*
X6370076Y4432576D01*
X6384698Y4421355D01*
X6401727Y4414302D01*
X6420000Y4411896D01*
X6510000D01*
X6528273Y4414302D01*
X6545302Y4421355D01*
X6559924Y4432576D01*
X6571145Y4447198D01*
X6578198Y4464227D01*
X6580604Y4482500D01*
X6578198Y4500774D01*
X6571145Y4517802D01*
X6559924Y4532425D01*
X6545302Y4543645D01*
X6528273Y4550698D01*
X6510000Y4553104D01*
D02*
G37*
G36*
X12868951Y4385000D02*
X12851048D01*
X12834509Y4378149D01*
X12821851Y4365490D01*
X12814999Y4348951D01*
Y4331049D01*
X12821851Y4314510D01*
X12834509Y4301851D01*
X12851048Y4295000D01*
X12868951D01*
X12885490Y4301851D01*
X12898149Y4314510D01*
X12905000Y4331049D01*
Y4348951D01*
X12898149Y4365490D01*
X12885490Y4378149D01*
X12868951Y4385000D01*
D02*
G37*
G36*
X6844946Y4390000D02*
X6825054D01*
X6806677Y4382388D01*
X6792612Y4368323D01*
X6785000Y4349946D01*
Y4330054D01*
X6792612Y4311677D01*
X6806677Y4297612D01*
X6825054Y4290000D01*
X6844946D01*
X6863323Y4297612D01*
X6877388Y4311677D01*
X6885000Y4330054D01*
Y4349946D01*
X6877388Y4368323D01*
X6863323Y4382388D01*
X6844946Y4390000D01*
D02*
G37*
G36*
X9848951Y4315000D02*
X9831049D01*
X9814509Y4308149D01*
X9801851Y4295491D01*
X9795000Y4278951D01*
Y4261049D01*
X9801851Y4244510D01*
X9814509Y4231851D01*
X9831049Y4225000D01*
X9848951D01*
X9865490Y4231851D01*
X9878149Y4244510D01*
X9885000Y4261049D01*
Y4278951D01*
X9878149Y4295491D01*
X9865490Y4308149D01*
X9848951Y4315000D01*
D02*
G37*
G36*
X12653203Y4309098D02*
X12635301D01*
X12618762Y4302247D01*
X12606103Y4289588D01*
X12599252Y4273049D01*
Y4255147D01*
X12606103Y4238607D01*
X12618762Y4225949D01*
X12635301Y4219098D01*
X12653203D01*
X12669743Y4225949D01*
X12682401Y4238607D01*
X12689252Y4255147D01*
Y4273049D01*
X12682401Y4289588D01*
X12669743Y4302247D01*
X12653203Y4309098D01*
D02*
G37*
G36*
X9848595Y4117079D02*
X9830693D01*
X9814154Y4110228D01*
X9801495Y4097569D01*
X9794644Y4081030D01*
Y4063128D01*
X9801495Y4046589D01*
X9814154Y4033930D01*
X9830693Y4027079D01*
X9848595D01*
X9865134Y4033930D01*
X9877793Y4046589D01*
X9884644Y4063128D01*
Y4081030D01*
X9877793Y4097569D01*
X9865134Y4110228D01*
X9848595Y4117079D01*
D02*
G37*
G36*
X12838951Y4075000D02*
X12821049D01*
X12804510Y4068149D01*
X12791851Y4055490D01*
X12785000Y4038951D01*
Y4021049D01*
X12791851Y4004510D01*
X12804510Y3991851D01*
X12821049Y3985000D01*
X12838951D01*
X12855490Y3991851D01*
X12868149Y4004510D01*
X12875000Y4021049D01*
Y4038951D01*
X12868149Y4055490D01*
X12855490Y4068149D01*
X12838951Y4075000D01*
D02*
G37*
G36*
X12698951Y4045000D02*
X12681049D01*
X12664510Y4038149D01*
X12651851Y4025490D01*
X12645000Y4008951D01*
Y3991049D01*
X12651851Y3974509D01*
X12664510Y3961851D01*
X12681049Y3955000D01*
X12698951D01*
X12715490Y3961851D01*
X12728149Y3974509D01*
X12735000Y3991049D01*
Y4008951D01*
X12728149Y4025490D01*
X12715490Y4038149D01*
X12698951Y4045000D01*
D02*
G37*
G36*
X9992113Y4041125D02*
X9974211D01*
X9957672Y4034274D01*
X9945013Y4021615D01*
X9938162Y4005076D01*
Y3987174D01*
X9945013Y3970634D01*
X9957672Y3957976D01*
X9974211Y3951125D01*
X9992113D01*
X10008653Y3957976D01*
X10021311Y3970634D01*
X10028162Y3987174D01*
Y4005076D01*
X10021311Y4021615D01*
X10008653Y4034274D01*
X9992113Y4041125D01*
D02*
G37*
G36*
X12080000Y5980392D02*
X11900000D01*
X11892196Y5978840D01*
X11885581Y5974419D01*
X11881160Y5967804D01*
X11879608Y5960000D01*
Y5538867D01*
X11879657Y5538621D01*
X11879614Y5538373D01*
X11880433Y5534721D01*
X11881160Y5531063D01*
X11881300Y5530855D01*
X11881354Y5530610D01*
X11883505Y5527554D01*
X11885581Y5524447D01*
X11885790Y5524308D01*
X11885934Y5524103D01*
X11889086Y5522106D01*
X11892196Y5520027D01*
X11892443Y5519978D01*
X11892654Y5519844D01*
X11901318Y5516498D01*
X11904068Y5516020D01*
X11905000Y5515742D01*
Y5501858D01*
X11904068Y5501580D01*
X11901318Y5501102D01*
X11892654Y5497756D01*
X11892443Y5497622D01*
X11892196Y5497573D01*
X11889090Y5495497D01*
X11885934Y5493497D01*
X11885789Y5493292D01*
X11885581Y5493153D01*
X11883506Y5490048D01*
X11881355Y5486991D01*
X11881300Y5486745D01*
X11881160Y5486537D01*
X11880432Y5482875D01*
X11879614Y5479227D01*
X11879657Y5478979D01*
X11879608Y5478733D01*
Y5080067D01*
X11879657Y5079821D01*
X11879614Y5079574D01*
X11880433Y5075921D01*
X11881160Y5072263D01*
X11881300Y5072055D01*
X11881354Y5071810D01*
X11883505Y5068754D01*
X11885581Y5065647D01*
X11885790Y5065508D01*
X11885934Y5065303D01*
X11889086Y5063306D01*
X11892196Y5061227D01*
X11892443Y5061178D01*
X11892654Y5061044D01*
X11901318Y5057699D01*
X11903032Y5057401D01*
X11904068Y5057220D01*
X11907056Y5056128D01*
Y5043872D01*
X11904068Y5042780D01*
X11903200Y5042629D01*
X11901318Y5042302D01*
X11892654Y5038956D01*
X11892443Y5038822D01*
X11892196Y5038773D01*
X11889090Y5036697D01*
X11885934Y5034697D01*
X11885789Y5034492D01*
X11885581Y5034353D01*
X11883506Y5031248D01*
X11881355Y5028191D01*
X11881300Y5027945D01*
X11881160Y5027737D01*
X11880432Y5024075D01*
X11879614Y5020427D01*
X11879657Y5020179D01*
X11879608Y5019933D01*
Y4265881D01*
X11490000D01*
X11472442Y4262389D01*
X11457557Y4252443D01*
X11307557Y4102443D01*
X11297611Y4087558D01*
X11294118Y4070000D01*
Y3779005D01*
X11150995Y3635881D01*
X10729005D01*
X10592443Y3772443D01*
X10577558Y3782389D01*
X10560000Y3785881D01*
X10170000D01*
X10152442Y3782389D01*
X10137557Y3772443D01*
X10027557Y3662443D01*
X10017611Y3647558D01*
X10014118Y3630000D01*
Y3330000D01*
X10015000Y3325568D01*
Y3321049D01*
X10016729Y3316874D01*
X10017611Y3312442D01*
X10020122Y3308684D01*
X10021851Y3304510D01*
X10025046Y3301314D01*
X10027557Y3297557D01*
X10031314Y3295046D01*
X10034510Y3291851D01*
X10038684Y3290122D01*
X10042442Y3287611D01*
X10046874Y3286729D01*
X10051049Y3285000D01*
X10055568D01*
X10060000Y3284118D01*
X10064432Y3285000D01*
X10068951D01*
X10073126Y3286729D01*
X10077558Y3287611D01*
X10081316Y3290122D01*
X10085490Y3291851D01*
X10088685Y3295046D01*
X10092443Y3297557D01*
X10094954Y3301314D01*
X10098149Y3304510D01*
X10099878Y3308684D01*
X10102389Y3312442D01*
X10103271Y3316874D01*
X10105000Y3321049D01*
Y3325568D01*
X10105881Y3330000D01*
Y3610995D01*
X10189005Y3694118D01*
X10540995D01*
X10677557Y3557557D01*
X10692442Y3547611D01*
X10710000Y3544118D01*
X11170000D01*
X11187558Y3547611D01*
X11202443Y3557557D01*
X11372443Y3727557D01*
X11382389Y3742442D01*
X11385881Y3760000D01*
Y4050995D01*
X11509005Y4174118D01*
X11879608D01*
Y3970028D01*
X11880000Y3968057D01*
Y3966049D01*
X11880768Y3964194D01*
X11881160Y3962224D01*
X11882277Y3960553D01*
X11883045Y3958698D01*
X11884465Y3957279D01*
X11885581Y3955608D01*
X11887252Y3954492D01*
X11888671Y3953072D01*
X11901371Y3944586D01*
X11903227Y3943818D01*
X11904897Y3942702D01*
X11906866Y3942310D01*
X11908722Y3941542D01*
X11910731D01*
X11912701Y3941150D01*
X11914670Y3941542D01*
X11916679D01*
X11918535Y3942310D01*
X11920504Y3942702D01*
X11925105Y3944608D01*
X11934895D01*
X11943939Y3940862D01*
X11950862Y3933939D01*
X11954608Y3924895D01*
Y3915105D01*
X11950289Y3904678D01*
X11947500Y3900504D01*
X11945948Y3892700D01*
X11947500Y3884896D01*
X11952760Y3872196D01*
X11957181Y3865581D01*
X11963796Y3861160D01*
X11971600Y3859608D01*
X12080000D01*
X12087804Y3861160D01*
X12094419Y3865581D01*
X12098840Y3872196D01*
X12100392Y3880000D01*
Y3910000D01*
Y5960000D01*
X12098840Y5967804D01*
X12094419Y5974419D01*
X12087804Y5978840D01*
X12080000Y5980392D01*
D02*
G37*
G36*
X12652100Y3943502D02*
X12634198D01*
X12617658Y3936651D01*
X12605000Y3923992D01*
X12598149Y3907453D01*
Y3889551D01*
X12605000Y3873011D01*
X12617658Y3860353D01*
X12634198Y3853502D01*
X12652100D01*
X12668639Y3860353D01*
X12681298Y3873011D01*
X12688149Y3889551D01*
Y3907453D01*
X12681298Y3923992D01*
X12668639Y3936651D01*
X12652100Y3943502D01*
D02*
G37*
G36*
X12908951Y3905000D02*
X12891049D01*
X12874510Y3898149D01*
X12861852Y3885490D01*
X12855000Y3868951D01*
Y3851049D01*
X12861852Y3834509D01*
X12874510Y3821851D01*
X12891049Y3815000D01*
X12908951D01*
X12925491Y3821851D01*
X12938148Y3834509D01*
X12945000Y3851049D01*
Y3868951D01*
X12938148Y3885490D01*
X12925491Y3898149D01*
X12908951Y3905000D01*
D02*
G37*
G36*
X12438951Y3895000D02*
X12421049D01*
X12404510Y3888149D01*
X12391851Y3875490D01*
X12385000Y3858951D01*
Y3841049D01*
X12391851Y3824509D01*
X12404510Y3811851D01*
X12421049Y3805000D01*
X12438951D01*
X12455490Y3811851D01*
X12468149Y3824509D01*
X12475000Y3841049D01*
Y3858951D01*
X12468149Y3875490D01*
X12455490Y3888149D01*
X12438951Y3895000D01*
D02*
G37*
G36*
X10058951D02*
X10041049D01*
X10024510Y3888149D01*
X10011851Y3875490D01*
X10005000Y3858951D01*
Y3841049D01*
X10011851Y3824509D01*
X10024510Y3811851D01*
X10041049Y3805000D01*
X10058951D01*
X10075490Y3811851D01*
X10088149Y3824509D01*
X10095000Y3841049D01*
Y3858951D01*
X10088149Y3875490D01*
X10075490Y3888149D01*
X10058951Y3895000D01*
D02*
G37*
G36*
X12278249Y3891263D02*
X12260347D01*
X12243808Y3884412D01*
X12231149Y3871753D01*
X12224298Y3855214D01*
Y3837312D01*
X12231149Y3820773D01*
X12243808Y3808114D01*
X12260347Y3801263D01*
X12278249D01*
X12294789Y3808114D01*
X12307447Y3820773D01*
X12314298Y3837312D01*
Y3855214D01*
X12307447Y3871753D01*
X12294789Y3884412D01*
X12278249Y3891263D01*
D02*
G37*
G36*
X6844946Y3810000D02*
X6825054D01*
X6806677Y3802388D01*
X6792612Y3788323D01*
X6785000Y3769946D01*
Y3750054D01*
X6792612Y3731677D01*
X6806677Y3717612D01*
X6825054Y3710000D01*
X6844946D01*
X6863323Y3717612D01*
X6877388Y3731677D01*
X6885000Y3750054D01*
Y3769946D01*
X6877388Y3788323D01*
X6863323Y3802388D01*
X6844946Y3810000D01*
D02*
G37*
G36*
X9910533Y3765007D02*
X9892631D01*
X9876092Y3758156D01*
X9863433Y3745497D01*
X9856583Y3728958D01*
Y3711056D01*
X9863433Y3694516D01*
X9876092Y3681858D01*
X9892631Y3675007D01*
X9910533D01*
X9927073Y3681858D01*
X9939731Y3694516D01*
X9946582Y3711056D01*
Y3728958D01*
X9939731Y3745497D01*
X9927073Y3758156D01*
X9910533Y3765007D01*
D02*
G37*
G36*
X10478951Y3665000D02*
X10461049D01*
X10444509Y3658149D01*
X10431851Y3645491D01*
X10425000Y3628951D01*
Y3611049D01*
X10431851Y3594510D01*
X10444509Y3581851D01*
X10461049Y3575000D01*
X10478951D01*
X10495490Y3581851D01*
X10508149Y3594510D01*
X10515000Y3611049D01*
Y3628951D01*
X10508149Y3645491D01*
X10495490Y3658149D01*
X10478951Y3665000D01*
D02*
G37*
G36*
X9938951D02*
X9921049D01*
X9904510Y3658149D01*
X9891851Y3645491D01*
X9885000Y3628951D01*
Y3611049D01*
X9891851Y3594510D01*
X9904510Y3581851D01*
X9921049Y3575000D01*
X9938951D01*
X9955490Y3581851D01*
X9968149Y3594510D01*
X9975000Y3611049D01*
Y3628951D01*
X9968149Y3645491D01*
X9955490Y3658149D01*
X9938951Y3665000D01*
D02*
G37*
G36*
X6945000Y3688104D02*
X6825000D01*
X6806726Y3685698D01*
X6789698Y3678645D01*
X6775075Y3667424D01*
X6763855Y3652802D01*
X6756802Y3635774D01*
X6754396Y3617500D01*
X6756802Y3599226D01*
X6763855Y3582198D01*
X6775075Y3567576D01*
X6789698Y3556355D01*
X6806726Y3549302D01*
X6825000Y3546896D01*
X6945000D01*
X6963274Y3549302D01*
X6980302Y3556355D01*
X6994925Y3567576D01*
X7006145Y3582198D01*
X7013198Y3599226D01*
X7015604Y3617500D01*
X7013198Y3635774D01*
X7006145Y3652802D01*
X6994925Y3667424D01*
X6980302Y3678645D01*
X6963274Y3685698D01*
X6945000Y3688104D01*
D02*
G37*
G36*
X6510000D02*
X6420000D01*
X6401727Y3685698D01*
X6384698Y3678645D01*
X6370076Y3667424D01*
X6358855Y3652802D01*
X6351802Y3635774D01*
X6349396Y3617500D01*
X6351802Y3599226D01*
X6358855Y3582198D01*
X6370076Y3567576D01*
X6384698Y3556355D01*
X6401727Y3549302D01*
X6420000Y3546896D01*
X6510000D01*
X6528273Y3549302D01*
X6545302Y3556355D01*
X6559924Y3567576D01*
X6571145Y3582198D01*
X6578198Y3599226D01*
X6580604Y3617500D01*
X6578198Y3635774D01*
X6571145Y3652802D01*
X6559924Y3667424D01*
X6545302Y3678645D01*
X6528273Y3685698D01*
X6510000Y3688104D01*
D02*
G37*
G36*
X10558825Y3566345D02*
X10540923D01*
X10524383Y3559495D01*
X10511725Y3546836D01*
X10504874Y3530296D01*
Y3512395D01*
X10511725Y3495855D01*
X10524383Y3483196D01*
X10540923Y3476346D01*
X10558825D01*
X10575364Y3483196D01*
X10588023Y3495855D01*
X10594874Y3512395D01*
Y3530296D01*
X10588023Y3546836D01*
X10575364Y3559495D01*
X10558825Y3566345D01*
D02*
G37*
G36*
X11508951Y3545000D02*
X11491049D01*
X11474510Y3538149D01*
X11461851Y3525491D01*
X11455000Y3508951D01*
Y3491049D01*
X11461851Y3474510D01*
X11474510Y3461851D01*
X11491049Y3455000D01*
X11508951D01*
X11525491Y3461851D01*
X11538149Y3474510D01*
X11545000Y3491049D01*
Y3508951D01*
X11538149Y3525491D01*
X11525491Y3538149D01*
X11508951Y3545000D01*
D02*
G37*
G36*
X10468951Y3475000D02*
X10451049D01*
X10434509Y3468149D01*
X10421851Y3455490D01*
X10415000Y3438951D01*
Y3421049D01*
X10421851Y3404510D01*
X10434509Y3391851D01*
X10451049Y3385000D01*
X10468951D01*
X10485490Y3391851D01*
X10498149Y3404510D01*
X10505000Y3421049D01*
Y3438951D01*
X10498149Y3455490D01*
X10485490Y3468149D01*
X10468951Y3475000D01*
D02*
G37*
G36*
X10358951Y3375000D02*
X10341049D01*
X10324509Y3368149D01*
X10311851Y3355490D01*
X10305000Y3338951D01*
Y3321049D01*
X10311851Y3304510D01*
X10324509Y3291851D01*
X10341049Y3285000D01*
X10358951D01*
X10375490Y3291851D01*
X10388149Y3304510D01*
X10395000Y3321049D01*
Y3338951D01*
X10388149Y3355490D01*
X10375490Y3368149D01*
X10358951Y3375000D01*
D02*
G37*
G36*
X9918951D02*
X9901049D01*
X9884510Y3368149D01*
X9871851Y3355490D01*
X9865000Y3338951D01*
Y3321049D01*
X9871851Y3304510D01*
X9884510Y3291851D01*
X9901049Y3285000D01*
X9918951D01*
X9935490Y3291851D01*
X9948149Y3304510D01*
X9955000Y3321049D01*
Y3338951D01*
X9948149Y3355490D01*
X9935490Y3368149D01*
X9918951Y3375000D01*
D02*
G37*
G36*
X10538951Y3275000D02*
X10521049D01*
X10504510Y3268149D01*
X10491851Y3255490D01*
X10485000Y3238951D01*
Y3221049D01*
X10491851Y3204509D01*
X10504510Y3191851D01*
X10521049Y3185000D01*
X10538951D01*
X10555490Y3191851D01*
X10568149Y3204509D01*
X10575000Y3221049D01*
Y3238951D01*
X10568149Y3255490D01*
X10555490Y3268149D01*
X10538951Y3275000D01*
D02*
G37*
G36*
X7103656Y3259850D02*
X7084343D01*
X7065688Y3254851D01*
X7048962Y3245195D01*
X7035305Y3231538D01*
X7025649Y3214812D01*
X7020650Y3196157D01*
Y3176844D01*
X7025649Y3158188D01*
X7035305Y3141462D01*
X7048962Y3127806D01*
X7065688Y3118149D01*
X7084343Y3113150D01*
X7103656D01*
X7122312Y3118149D01*
X7139038Y3127806D01*
X7152694Y3141462D01*
X7162351Y3158188D01*
X7167350Y3176844D01*
Y3196157D01*
X7162351Y3214812D01*
X7152694Y3231538D01*
X7139038Y3245195D01*
X7122312Y3254851D01*
X7103656Y3259850D01*
D02*
G37*
G36*
X13621667Y3420000D02*
X13578333D01*
X13535828Y3411545D01*
X13495792Y3394961D01*
X13459758Y3370885D01*
X13429115Y3340242D01*
X13405038Y3304209D01*
X13388455Y3264172D01*
X13380000Y3221668D01*
Y3178332D01*
X13388455Y3135828D01*
X13405038Y3095791D01*
X13429115Y3059758D01*
X13459758Y3029115D01*
X13495792Y3005039D01*
X13535828Y2988455D01*
X13578333Y2980000D01*
X13621667D01*
X13664172Y2988455D01*
X13704208Y3005039D01*
X13740242Y3029115D01*
X13770885Y3059758D01*
X13794962Y3095791D01*
X13811545Y3135828D01*
X13820000Y3178332D01*
Y3221668D01*
X13811545Y3264172D01*
X13794962Y3304209D01*
X13770885Y3340242D01*
X13740242Y3370885D01*
X13704208Y3394961D01*
X13664172Y3411545D01*
X13621667Y3420000D01*
D02*
G37*
G36*
X6621668D02*
X6578332D01*
X6535828Y3411545D01*
X6495791Y3394961D01*
X6459758Y3370885D01*
X6429115Y3340242D01*
X6405039Y3304209D01*
X6388455Y3264172D01*
X6380000Y3221668D01*
Y3178332D01*
X6388455Y3135828D01*
X6405039Y3095791D01*
X6429115Y3059758D01*
X6459758Y3029115D01*
X6495791Y3005039D01*
X6535828Y2988455D01*
X6578332Y2980000D01*
X6621668D01*
X6664172Y2988455D01*
X6704209Y3005039D01*
X6740242Y3029115D01*
X6770885Y3059758D01*
X6794961Y3095791D01*
X6811545Y3135828D01*
X6820000Y3178332D01*
Y3221668D01*
X6811545Y3264172D01*
X6794961Y3304209D01*
X6770885Y3340242D01*
X6740242Y3370885D01*
X6704209Y3394961D01*
X6664172Y3411545D01*
X6621668Y3420000D01*
D02*
G37*
%LPD*%
G36*
X12430000Y11290961D02*
Y10920000D01*
X10710000D01*
Y7580000D01*
Y7395000D01*
X10701049D01*
X10684509Y7388149D01*
X10678297Y7381936D01*
X10670000Y7376666D01*
X10661703Y7381936D01*
X10655491Y7388149D01*
X10638951Y7395000D01*
X10621049D01*
X10604510Y7388149D01*
X10591851Y7375490D01*
X10585000Y7358951D01*
Y7341049D01*
X10591851Y7324510D01*
X10604510Y7311851D01*
X10621049Y7305000D01*
X10638951D01*
X10655491Y7311851D01*
X10661703Y7318064D01*
X10670000Y7323334D01*
X10678297Y7318064D01*
X10684509Y7311851D01*
X10701049Y7305000D01*
X10718951D01*
X10735490Y7311851D01*
X10741703Y7318064D01*
X10750000Y7323334D01*
X10758296Y7318064D01*
X10764509Y7311851D01*
X10781049Y7305000D01*
X10798951D01*
X10815490Y7311851D01*
X10828149Y7324510D01*
X10835000Y7341049D01*
Y7358951D01*
X10832005Y7366180D01*
X10840523Y7378803D01*
X11392623Y7373737D01*
X11398064Y7368297D01*
X11403334Y7360000D01*
X11398064Y7351703D01*
X11391851Y7345491D01*
X11385000Y7328951D01*
Y7311049D01*
X11391851Y7294510D01*
X11396361Y7290000D01*
X11391851Y7285490D01*
X11385000Y7268951D01*
Y7251049D01*
X11391851Y7234510D01*
X11404510Y7221851D01*
X11421049Y7215000D01*
X11438951D01*
X11455490Y7221851D01*
X11468149Y7234510D01*
X11475000Y7251049D01*
Y7268951D01*
X11468149Y7285490D01*
X11463639Y7290000D01*
X11468149Y7294510D01*
X11475000Y7311049D01*
Y7328951D01*
X11468149Y7345491D01*
X11463345Y7350295D01*
X11463323Y7363829D01*
X11472549Y7373004D01*
X11800000Y7370000D01*
Y7350000D01*
X11802639Y6956835D01*
X11794863Y6949059D01*
X11788012Y6932520D01*
Y6918046D01*
X11775611D01*
X11759071Y6911195D01*
X11746413Y6898536D01*
X11739562Y6881997D01*
Y6864095D01*
X11746413Y6847555D01*
X11759071Y6834897D01*
X11775611Y6828046D01*
X11793513D01*
X11803548Y6821389D01*
X11817981Y4670864D01*
X11805338Y4662354D01*
X11798951Y4665000D01*
X11781049D01*
X11764510Y4658149D01*
X11751851Y4645490D01*
X11745000Y4628951D01*
Y4611049D01*
X11751851Y4594509D01*
X11764510Y4581851D01*
X11781049Y4575000D01*
X11798951D01*
X11805905Y4577880D01*
X11818662Y4569418D01*
X11819887Y4386791D01*
X11807232Y4380000D01*
X11285330D01*
X11278614Y4396213D01*
X11265956Y4408871D01*
X11249416Y4415722D01*
X11231514D01*
X11214975Y4408871D01*
X11202316Y4396213D01*
X11195601Y4380000D01*
X10920000D01*
Y3890000D01*
X10801021D01*
X10788951Y3895000D01*
X10780277Y3903849D01*
X10789800Y4380000D01*
X9690000D01*
X9691054Y4321485D01*
X9682036Y4315341D01*
X9678469Y4315000D01*
X9661049D01*
X9644510Y4308149D01*
X9631851Y4295491D01*
X9625000Y4278951D01*
Y4261049D01*
X9631851Y4244510D01*
X9644510Y4231851D01*
X9661049Y4225000D01*
X9678951D01*
X9682270Y4226375D01*
X9692893Y4219415D01*
X9709837Y3279061D01*
X9700937Y3270000D01*
X9390000D01*
Y4370000D01*
X9394142Y4380000D01*
X8960000D01*
Y4960000D01*
X8370000D01*
Y4670000D01*
X7780000D01*
Y4521853D01*
X7769440Y4514797D01*
X7768951Y4515000D01*
X7751049D01*
X7734510Y4508149D01*
X7721851Y4495490D01*
X7715000Y4478951D01*
Y4461049D01*
X7721851Y4444510D01*
X7734510Y4431851D01*
X7739536Y4429769D01*
X7740874Y4426642D01*
X7741549Y4415189D01*
X7731851Y4405490D01*
X7725000Y4388951D01*
Y4371049D01*
X7731851Y4354509D01*
X7744510Y4341851D01*
X7761049Y4335000D01*
X7778951D01*
X7780000Y4334299D01*
Y2940000D01*
X7000000D01*
Y3080000D01*
X7220000D01*
Y4469933D01*
X7228664Y4473279D01*
X7232700Y4473660D01*
X7244510Y4461851D01*
X7261049Y4455000D01*
X7278951D01*
X7295490Y4461851D01*
X7308149Y4474509D01*
X7315000Y4491049D01*
Y4508951D01*
X7308149Y4525490D01*
X7295490Y4538149D01*
X7278951Y4545000D01*
X7261049D01*
X7244510Y4538149D01*
X7232700Y4526339D01*
X7228664Y4526721D01*
X7220000Y4530067D01*
Y4586594D01*
X7231733Y4591454D01*
X7232424Y4590763D01*
X7248964Y4583912D01*
X7266866D01*
X7283405Y4590763D01*
X7296064Y4603422D01*
X7302915Y4619961D01*
Y4637863D01*
X7296064Y4654403D01*
X7293167Y4657300D01*
X7295019Y4661771D01*
X7288824Y4661642D01*
X7283405Y4667061D01*
X7266866Y4673912D01*
X7248964D01*
X7232424Y4667061D01*
X7225690Y4660327D01*
X7219073Y4660189D01*
X7210000Y4669075D01*
Y4926622D01*
X7222700Y4929149D01*
X7224289Y4925312D01*
X7236948Y4912654D01*
X7253487Y4905803D01*
X7271389D01*
X7287929Y4912654D01*
X7300587Y4925312D01*
X7307438Y4941852D01*
Y4959754D01*
X7300587Y4976293D01*
X7287929Y4988952D01*
X7271389Y4995803D01*
X7253487D01*
X7236948Y4988952D01*
X7224289Y4976293D01*
X7222700Y4972457D01*
X7210000Y4974983D01*
Y5069577D01*
X7215491Y5071851D01*
X7228149Y5084510D01*
X7235000Y5101049D01*
Y5118951D01*
X7228149Y5135490D01*
X7215491Y5148149D01*
X7210000Y5150423D01*
Y5456360D01*
X7213640Y5460000D01*
X7234618D01*
X7246980Y5454879D01*
X7264882D01*
X7277244Y5460000D01*
X7671416D01*
X7687040Y5453529D01*
X7700000D01*
Y4978704D01*
X7687300Y4973443D01*
X7679152Y4981592D01*
X7662612Y4988442D01*
X7644710D01*
X7628171Y4981592D01*
X7615512Y4968933D01*
X7608661Y4952393D01*
Y4934492D01*
X7615512Y4917952D01*
X7628171Y4905293D01*
X7644710Y4898443D01*
X7662612D01*
X7679152Y4905293D01*
X7687300Y4913442D01*
X7700000Y4908181D01*
Y4835858D01*
X7710000Y4840000D01*
X8140000D01*
Y5038978D01*
X8145000Y5051049D01*
Y5068951D01*
X8140000Y5081022D01*
Y5210000D01*
X8960000D01*
Y5815858D01*
X8970000Y5820000D01*
X10130000D01*
X10128387Y6103827D01*
X10141073Y6106387D01*
X10141851Y6104510D01*
X10154510Y6091851D01*
X10171049Y6085000D01*
X10188951D01*
X10205490Y6091851D01*
X10218149Y6104510D01*
X10225000Y6121049D01*
Y6138951D01*
X10218149Y6155490D01*
X10205490Y6168149D01*
X10188951Y6175000D01*
X10171049D01*
X10154510Y6168149D01*
X10141851Y6155490D01*
X10140809Y6152973D01*
X10128094Y6155465D01*
X10125323Y6643076D01*
X10137994Y6648367D01*
X10144007Y6642353D01*
X10160546Y6635503D01*
X10178448D01*
X10194988Y6642353D01*
X10207646Y6655012D01*
X10214497Y6671552D01*
Y6689453D01*
X10207646Y6705993D01*
X10194988Y6718652D01*
X10178448Y6725502D01*
X10165000D01*
Y6738951D01*
X10158149Y6755490D01*
X10145491Y6768149D01*
X10128951Y6775000D01*
X10124574D01*
X10120051Y7570994D01*
X10129006Y7580000D01*
X10120000D01*
Y7600000D01*
Y8921109D01*
X10132700Y8922781D01*
X10135356Y8912868D01*
X10148021Y8890932D01*
X10165932Y8873021D01*
X10187868Y8860356D01*
X10212335Y8853800D01*
X10237665D01*
X10262132Y8860356D01*
X10284068Y8873021D01*
X10301979Y8890932D01*
X10314644Y8912868D01*
X10321200Y8937335D01*
Y8962665D01*
X10314644Y8987132D01*
X10301979Y9009068D01*
X10284068Y9026979D01*
X10262132Y9039644D01*
X10237665Y9046200D01*
X10212335D01*
X10187868Y9039644D01*
X10165932Y9026979D01*
X10148021Y9009068D01*
X10135356Y8987132D01*
X10132700Y8977220D01*
X10120000Y8978892D01*
Y9088398D01*
X10134866Y9096981D01*
X10153020Y9115134D01*
X10165855Y9137367D01*
X10172500Y9162164D01*
Y9187836D01*
X10165855Y9212634D01*
X10153020Y9234866D01*
X10134866Y9253020D01*
X10120000Y9261603D01*
Y9371109D01*
X10132700Y9372781D01*
X10135356Y9362868D01*
X10148021Y9340932D01*
X10165932Y9323021D01*
X10187868Y9310356D01*
X10212335Y9303800D01*
X10237665D01*
X10262132Y9310356D01*
X10284068Y9323021D01*
X10301979Y9340932D01*
X10314644Y9362868D01*
X10321200Y9387335D01*
Y9412665D01*
X10314644Y9437132D01*
X10301979Y9459068D01*
X10284068Y9476979D01*
X10262132Y9489644D01*
X10237665Y9496200D01*
X10212335D01*
X10187868Y9489644D01*
X10165932Y9476979D01*
X10148021Y9459068D01*
X10135356Y9437132D01*
X10132700Y9427220D01*
X10120000Y9428892D01*
Y10249577D01*
X10125491Y10251851D01*
X10138149Y10264510D01*
X10145000Y10281049D01*
Y10298951D01*
X10138149Y10315490D01*
X10125491Y10328149D01*
X10120000Y10330423D01*
Y11250000D01*
Y11270000D01*
X10747803Y11278153D01*
X10755000Y11271049D01*
X10761851Y11254510D01*
X10768064Y11248297D01*
X10773334Y11240000D01*
X10768064Y11231703D01*
X10761851Y11225490D01*
X10755000Y11208951D01*
Y11191049D01*
X10761851Y11174510D01*
X10771361Y11165000D01*
X10761851Y11155491D01*
X10755000Y11138951D01*
Y11121049D01*
X10761851Y11104510D01*
X10771361Y11095000D01*
X10761851Y11085490D01*
X10755000Y11068951D01*
Y11051049D01*
X10761851Y11034510D01*
X10774510Y11021851D01*
X10791049Y11015000D01*
X10808951D01*
X10825491Y11021851D01*
X10835000Y11031360D01*
X10844510Y11021851D01*
X10861049Y11015000D01*
X10878951D01*
X10895491Y11021851D01*
X10901703Y11028064D01*
X10910000Y11033334D01*
X10918297Y11028064D01*
X10924510Y11021851D01*
X10941049Y11015000D01*
X10958951D01*
X10975491Y11021851D01*
X10981703Y11028064D01*
X10990000Y11033334D01*
X10998297Y11028064D01*
X11004510Y11021851D01*
X11021049Y11015000D01*
X11038951D01*
X11055491Y11021851D01*
X11068149Y11034510D01*
X11075000Y11051049D01*
Y11068951D01*
X11068149Y11085490D01*
X11058640Y11095000D01*
X11068149Y11104510D01*
X11075000Y11121049D01*
Y11138951D01*
X11068149Y11155491D01*
X11058640Y11165000D01*
X11068149Y11174510D01*
X11075000Y11191049D01*
Y11208951D01*
X11068149Y11225490D01*
X11061936Y11231703D01*
X11056667Y11240000D01*
X11061936Y11248297D01*
X11068149Y11254510D01*
X11075000Y11271049D01*
Y11282403D01*
X11723722Y11290828D01*
X11726221Y11285884D01*
X11727665Y11278178D01*
X11716635Y11267147D01*
X11709784Y11250608D01*
Y11232706D01*
X11716635Y11216167D01*
X11726144Y11206657D01*
X11716635Y11197148D01*
X11709784Y11180608D01*
Y11162706D01*
X11716635Y11146167D01*
X11728689Y11134113D01*
X11720040Y11125464D01*
X11713189Y11108924D01*
Y11091023D01*
X11720040Y11074483D01*
X11732698Y11061824D01*
X11749238Y11054974D01*
X11767140D01*
X11783679Y11061824D01*
X11796338Y11074483D01*
X11803189Y11091023D01*
Y11108924D01*
X11796338Y11125464D01*
X11784284Y11137518D01*
X11792933Y11146167D01*
X11799784Y11162706D01*
Y11180608D01*
X11792933Y11197148D01*
X11783423Y11206657D01*
X11792933Y11216167D01*
X11799784Y11232706D01*
Y11250608D01*
X11792933Y11267147D01*
X11781207Y11278873D01*
X11781652Y11283299D01*
X11784934Y11291623D01*
X12420961Y11299883D01*
X12430000Y11290961D01*
D02*
G37*
%LPC*%
G36*
X10368951Y10865000D02*
X10351049D01*
X10334510Y10858149D01*
X10321851Y10845490D01*
X10315000Y10828951D01*
Y10811049D01*
X10321851Y10794510D01*
X10334510Y10781851D01*
X10351049Y10775000D01*
X10368951D01*
X10385491Y10781851D01*
X10398149Y10794510D01*
X10405000Y10811049D01*
Y10828951D01*
X10398149Y10845490D01*
X10385491Y10858149D01*
X10368951Y10865000D01*
D02*
G37*
G36*
X10598951Y10255000D02*
X10581049D01*
X10564509Y10248149D01*
X10551851Y10235490D01*
X10545000Y10218951D01*
Y10201049D01*
X10551851Y10184509D01*
X10564509Y10171851D01*
X10581049Y10165000D01*
X10598951D01*
X10615490Y10171851D01*
X10628149Y10184509D01*
X10635000Y10201049D01*
Y10218951D01*
X10628149Y10235490D01*
X10615490Y10248149D01*
X10598951Y10255000D01*
D02*
G37*
G36*
X10226715Y9990706D02*
X10208813D01*
X10192274Y9983855D01*
X10179615Y9971196D01*
X10172764Y9954657D01*
Y9936755D01*
X10179615Y9920216D01*
X10189125Y9910706D01*
X10179615Y9901197D01*
X10172764Y9884657D01*
Y9866755D01*
X10179615Y9850216D01*
X10189125Y9840706D01*
X10179615Y9831196D01*
X10172764Y9814657D01*
Y9796755D01*
X10179615Y9780216D01*
X10192274Y9767557D01*
X10208813Y9760706D01*
X10226715D01*
X10243255Y9767557D01*
X10255913Y9780216D01*
X10262764Y9796755D01*
Y9814657D01*
X10255913Y9831196D01*
X10246404Y9840706D01*
X10255913Y9850216D01*
X10262764Y9866755D01*
Y9884657D01*
X10255913Y9901197D01*
X10246404Y9910706D01*
X10255913Y9920216D01*
X10262764Y9936755D01*
Y9954657D01*
X10255913Y9971196D01*
X10243255Y9983855D01*
X10226715Y9990706D01*
D02*
G37*
G36*
X10358951Y7325000D02*
X10341049D01*
X10324509Y7318149D01*
X10311851Y7305490D01*
X10305000Y7288951D01*
Y7271049D01*
X10311851Y7254509D01*
X10324509Y7241851D01*
X10341049Y7235000D01*
X10358951D01*
X10375490Y7241851D01*
X10388149Y7254509D01*
X10395000Y7271049D01*
Y7288951D01*
X10388149Y7305490D01*
X10375490Y7318149D01*
X10358951Y7325000D01*
D02*
G37*
G36*
X10808951Y7165000D02*
X10791049D01*
X10774510Y7158149D01*
X10768297Y7151936D01*
X10760000Y7146666D01*
X10751703Y7151936D01*
X10745490Y7158149D01*
X10728951Y7165000D01*
X10711049D01*
X10694509Y7158149D01*
X10688297Y7151936D01*
X10680000Y7146666D01*
X10671703Y7151936D01*
X10665490Y7158149D01*
X10648951Y7165000D01*
X10631049D01*
X10614510Y7158149D01*
X10601851Y7145490D01*
X10595000Y7128951D01*
Y7111049D01*
X10601851Y7094510D01*
X10614510Y7081851D01*
X10631049Y7075000D01*
X10648951D01*
X10665490Y7081851D01*
X10671703Y7088064D01*
X10680000Y7093334D01*
X10688297Y7088064D01*
X10694509Y7081851D01*
X10711049Y7075000D01*
X10728951D01*
X10745490Y7081851D01*
X10751703Y7088064D01*
X10760000Y7093334D01*
X10768297Y7088064D01*
X10774510Y7081851D01*
X10791049Y7075000D01*
X10808951D01*
X10825490Y7081851D01*
X10838149Y7094510D01*
X10845000Y7111049D01*
Y7128951D01*
X10838149Y7145490D01*
X10825490Y7158149D01*
X10808951Y7165000D01*
D02*
G37*
G36*
X10548951Y6605000D02*
X10531049D01*
X10514510Y6598149D01*
X10501851Y6585491D01*
X10495000Y6568951D01*
Y6551049D01*
X10501851Y6534510D01*
X10514510Y6521851D01*
X10531049Y6515000D01*
X10548951D01*
X10565490Y6521851D01*
X10578149Y6534510D01*
X10585000Y6551049D01*
Y6568951D01*
X10578149Y6585491D01*
X10565490Y6598149D01*
X10548951Y6605000D01*
D02*
G37*
G36*
X10648951Y6515000D02*
X10631049D01*
X10614510Y6508149D01*
X10601851Y6495490D01*
X10595000Y6478951D01*
Y6461049D01*
X10601851Y6444510D01*
X10614510Y6431851D01*
X10631049Y6425000D01*
X10648951D01*
X10665490Y6431851D01*
X10678149Y6444510D01*
X10685000Y6461049D01*
Y6478951D01*
X10678149Y6495490D01*
X10665490Y6508149D01*
X10648951Y6515000D01*
D02*
G37*
G36*
X10818951Y6445000D02*
X10801049D01*
X10784510Y6438149D01*
X10771851Y6425490D01*
X10765000Y6408951D01*
Y6391049D01*
X10771851Y6374509D01*
X10784510Y6361851D01*
X10801049Y6355000D01*
X10818951D01*
X10835490Y6361851D01*
X10848149Y6374509D01*
X10855000Y6391049D01*
Y6408951D01*
X10848149Y6425490D01*
X10835490Y6438149D01*
X10818951Y6445000D01*
D02*
G37*
G36*
X10995596Y6295000D02*
X10977694D01*
X10961154Y6288149D01*
X10948496Y6275490D01*
X10941645Y6258951D01*
Y6241049D01*
X10948496Y6224510D01*
X10961154Y6211851D01*
X10977694Y6205000D01*
X10995596D01*
X11012135Y6211851D01*
X11024794Y6224510D01*
X11031645Y6241049D01*
Y6258951D01*
X11024794Y6275490D01*
X11012135Y6288149D01*
X10995596Y6295000D01*
D02*
G37*
G36*
X10309572Y5910961D02*
X10291671D01*
X10275131Y5904110D01*
X10262472Y5891452D01*
X10255622Y5874912D01*
Y5857010D01*
X10262472Y5840471D01*
X10275131Y5827812D01*
X10291671Y5820961D01*
X10309572D01*
X10326112Y5827812D01*
X10338771Y5840471D01*
X10345621Y5857010D01*
Y5874912D01*
X10338771Y5891452D01*
X10326112Y5904110D01*
X10309572Y5910961D01*
D02*
G37*
G36*
X10778951Y5855000D02*
X10761049D01*
X10744510Y5848149D01*
X10731851Y5835490D01*
X10725000Y5818951D01*
Y5801049D01*
X10731851Y5784510D01*
X10744510Y5771851D01*
X10761049Y5765000D01*
X10778951D01*
X10795490Y5771851D01*
X10808149Y5784510D01*
X10815000Y5801049D01*
Y5818951D01*
X10808149Y5835490D01*
X10795490Y5848149D01*
X10778951Y5855000D01*
D02*
G37*
G36*
X9718951Y5785000D02*
X9701049D01*
X9684509Y5778149D01*
X9671851Y5765490D01*
X9665000Y5748951D01*
Y5731049D01*
X9671851Y5714510D01*
X9684509Y5701851D01*
X9701049Y5695000D01*
X9718951D01*
X9735490Y5701851D01*
X9748149Y5714510D01*
X9755000Y5731049D01*
Y5748951D01*
X9748149Y5765490D01*
X9735490Y5778149D01*
X9718951Y5785000D01*
D02*
G37*
G36*
X10287521Y5781596D02*
X10269619D01*
X10253080Y5774745D01*
X10240421Y5762087D01*
X10233570Y5745547D01*
Y5727645D01*
X10240421Y5711106D01*
X10253080Y5698447D01*
X10269619Y5691596D01*
X10287521D01*
X10304061Y5698447D01*
X10316719Y5711106D01*
X10323570Y5727645D01*
Y5745547D01*
X10316719Y5762087D01*
X10304061Y5774745D01*
X10287521Y5781596D01*
D02*
G37*
G36*
X10670143Y5752667D02*
X10652241D01*
X10635701Y5745817D01*
X10623043Y5733158D01*
X10616192Y5716618D01*
Y5698717D01*
X10623043Y5682177D01*
X10635701Y5669519D01*
X10652241Y5662668D01*
X10670143D01*
X10686682Y5669519D01*
X10699341Y5682177D01*
X10706192Y5698717D01*
Y5716618D01*
X10699341Y5733158D01*
X10686682Y5745817D01*
X10670143Y5752667D01*
D02*
G37*
G36*
X9775773Y5684090D02*
X9757871D01*
X9741332Y5677240D01*
X9728673Y5664581D01*
X9721822Y5648042D01*
Y5630140D01*
X9728673Y5613600D01*
X9741332Y5600942D01*
X9757871Y5594091D01*
X9775773D01*
X9792313Y5600942D01*
X9804971Y5613600D01*
X9811822Y5630140D01*
Y5648042D01*
X9804971Y5664581D01*
X9792313Y5677240D01*
X9775773Y5684090D01*
D02*
G37*
G36*
X9428951Y5655000D02*
X9411049D01*
X9394510Y5648149D01*
X9381851Y5635490D01*
X9375000Y5618951D01*
Y5601049D01*
X9381851Y5584510D01*
X9394510Y5571851D01*
X9411049Y5565000D01*
X9428951D01*
X9445490Y5571851D01*
X9458149Y5584510D01*
X9465000Y5601049D01*
Y5618951D01*
X9458149Y5635490D01*
X9445490Y5648149D01*
X9428951Y5655000D01*
D02*
G37*
G36*
X10218951Y5565000D02*
X10201049D01*
X10184509Y5558149D01*
X10171851Y5545490D01*
X10165000Y5528951D01*
Y5511049D01*
X10171851Y5494509D01*
X10184509Y5481851D01*
X10201049Y5475000D01*
X10218951D01*
X10235490Y5481851D01*
X10248149Y5494509D01*
X10255000Y5511049D01*
Y5528951D01*
X10248149Y5545490D01*
X10235490Y5558149D01*
X10218951Y5565000D01*
D02*
G37*
G36*
X10108951Y5455000D02*
X10091049D01*
X10074510Y5448149D01*
X10061851Y5435491D01*
X10055000Y5418951D01*
Y5401049D01*
X10061851Y5384510D01*
X10074510Y5371851D01*
X10091049Y5365000D01*
X10108951D01*
X10125491Y5371851D01*
X10138149Y5384510D01*
X10145000Y5401049D01*
Y5418951D01*
X10138149Y5435491D01*
X10125491Y5448149D01*
X10108951Y5455000D01*
D02*
G37*
G36*
X9581169Y5445000D02*
X9563267D01*
X9546728Y5438149D01*
X9534069Y5425490D01*
X9527218Y5408951D01*
Y5391049D01*
X9534069Y5374509D01*
X9546728Y5361851D01*
X9563267Y5355000D01*
X9581169D01*
X9597709Y5361851D01*
X9610367Y5374509D01*
X9617218Y5391049D01*
Y5408951D01*
X9610367Y5425490D01*
X9597709Y5438149D01*
X9581169Y5445000D01*
D02*
G37*
G36*
X10308951Y5435000D02*
X10291049D01*
X10274510Y5428149D01*
X10261851Y5415490D01*
X10255000Y5398951D01*
Y5381049D01*
X10261851Y5364509D01*
X10274510Y5351851D01*
X10291049Y5345000D01*
X10308951D01*
X10325490Y5351851D01*
X10338149Y5364509D01*
X10345000Y5381049D01*
Y5398951D01*
X10338149Y5415490D01*
X10325490Y5428149D01*
X10308951Y5435000D01*
D02*
G37*
G36*
X11538951Y5395000D02*
X11521049D01*
X11504510Y5388149D01*
X11491851Y5375490D01*
X11485000Y5358951D01*
Y5341049D01*
X11491851Y5324510D01*
X11504510Y5311851D01*
X11521049Y5305000D01*
X11538951D01*
X11555490Y5311851D01*
X11568149Y5324510D01*
X11575000Y5341049D01*
Y5358951D01*
X11568149Y5375490D01*
X11555490Y5388149D01*
X11538951Y5395000D01*
D02*
G37*
G36*
X9048951Y5185000D02*
X9031049D01*
X9014510Y5178149D01*
X9001851Y5165490D01*
X8995000Y5148951D01*
Y5131049D01*
X9001851Y5114509D01*
X9014510Y5101851D01*
X9031049Y5095000D01*
X9048951D01*
X9065490Y5101851D01*
X9078149Y5114509D01*
X9085000Y5131049D01*
Y5148951D01*
X9078149Y5165490D01*
X9065490Y5178149D01*
X9048951Y5185000D01*
D02*
G37*
G36*
X9495293Y5116069D02*
X9477391D01*
X9460852Y5109218D01*
X9448193Y5096559D01*
X9441342Y5080020D01*
Y5062118D01*
X9448193Y5045578D01*
X9460852Y5032920D01*
X9477391Y5026069D01*
X9495293D01*
X9511833Y5032920D01*
X9524491Y5045578D01*
X9531342Y5062118D01*
Y5080020D01*
X9524491Y5096559D01*
X9511833Y5109218D01*
X9495293Y5116069D01*
D02*
G37*
G36*
X9248951Y5115000D02*
X9231049D01*
X9214510Y5108149D01*
X9201851Y5095490D01*
X9195000Y5078951D01*
Y5061049D01*
X9201851Y5044510D01*
X9214510Y5031851D01*
X9231049Y5025000D01*
X9248951D01*
X9265490Y5031851D01*
X9278149Y5044510D01*
X9285000Y5061049D01*
Y5078951D01*
X9278149Y5095490D01*
X9265490Y5108149D01*
X9248951Y5115000D01*
D02*
G37*
G36*
X9106729Y5085914D02*
X9088827D01*
X9072288Y5079063D01*
X9059629Y5066404D01*
X9052778Y5049865D01*
Y5031963D01*
X9059629Y5015424D01*
X9072288Y5002765D01*
X9088827Y4995914D01*
X9106729D01*
X9123269Y5002765D01*
X9135927Y5015424D01*
X9142778Y5031963D01*
Y5049865D01*
X9135927Y5066404D01*
X9123269Y5079063D01*
X9106729Y5085914D01*
D02*
G37*
G36*
X10278951Y5075000D02*
X10261049D01*
X10244510Y5068149D01*
X10231851Y5055491D01*
X10225000Y5038951D01*
Y5021049D01*
X10231851Y5004510D01*
X10244510Y4991851D01*
X10261049Y4985000D01*
X10278951D01*
X10295490Y4991851D01*
X10308149Y5004510D01*
X10315000Y5021049D01*
Y5038951D01*
X10308149Y5055491D01*
X10295490Y5068149D01*
X10278951Y5075000D01*
D02*
G37*
G36*
X9476257Y4980197D02*
X9458355D01*
X9441816Y4973346D01*
X9429157Y4960687D01*
X9422307Y4944148D01*
Y4926246D01*
X9429157Y4909706D01*
X9441816Y4897048D01*
X9458355Y4890197D01*
X9476257D01*
X9492797Y4897048D01*
X9505455Y4909706D01*
X9512306Y4926246D01*
Y4944148D01*
X9505455Y4960687D01*
X9492797Y4973346D01*
X9476257Y4980197D01*
D02*
G37*
G36*
X10898951Y4835000D02*
X10881049D01*
X10864510Y4828149D01*
X10851851Y4815490D01*
X10845000Y4798951D01*
Y4781049D01*
X10851851Y4764510D01*
X10864510Y4751851D01*
X10881049Y4745000D01*
X10898951D01*
X10915490Y4751851D01*
X10928149Y4764510D01*
X10935000Y4781049D01*
Y4798951D01*
X10928149Y4815490D01*
X10915490Y4828149D01*
X10898951Y4835000D01*
D02*
G37*
G36*
X9148951D02*
X9131049D01*
X9114510Y4828149D01*
X9101851Y4815490D01*
X9095000Y4798951D01*
Y4781049D01*
X9101851Y4764510D01*
X9114510Y4751851D01*
X9131049Y4745000D01*
X9148951D01*
X9165490Y4751851D01*
X9178149Y4764510D01*
X9185000Y4781049D01*
Y4798951D01*
X9178149Y4815490D01*
X9165490Y4828149D01*
X9148951Y4835000D01*
D02*
G37*
G36*
X10698029Y4824542D02*
X10680127D01*
X10663588Y4817691D01*
X10650929Y4805032D01*
X10644078Y4788493D01*
Y4770591D01*
X10650929Y4754051D01*
X10663588Y4741393D01*
X10680127Y4734542D01*
X10698029D01*
X10714568Y4741393D01*
X10727227Y4754051D01*
X10734078Y4770591D01*
Y4788493D01*
X10727227Y4805032D01*
X10714568Y4817691D01*
X10698029Y4824542D01*
D02*
G37*
G36*
X11671735Y4816143D02*
X11653833D01*
X11637293Y4809292D01*
X11624635Y4796634D01*
X11617784Y4780094D01*
Y4762192D01*
X11624635Y4745653D01*
X11637293Y4732994D01*
X11653833Y4726143D01*
X11671735D01*
X11688274Y4732994D01*
X11700933Y4745653D01*
X11707784Y4762192D01*
Y4780094D01*
X11700933Y4796634D01*
X11688274Y4809292D01*
X11671735Y4816143D01*
D02*
G37*
G36*
X11148951Y4805000D02*
X11131049D01*
X11114510Y4798149D01*
X11101851Y4785490D01*
X11095000Y4768951D01*
Y4751049D01*
X11101851Y4734509D01*
X11114510Y4721851D01*
X11131049Y4715000D01*
X11148951D01*
X11165490Y4721851D01*
X11178149Y4734509D01*
X11185000Y4751049D01*
Y4768951D01*
X11178149Y4785490D01*
X11165490Y4798149D01*
X11148951Y4805000D01*
D02*
G37*
G36*
X9488951D02*
X9471049D01*
X9454510Y4798149D01*
X9441851Y4785490D01*
X9435000Y4768951D01*
Y4751049D01*
X9441851Y4734509D01*
X9454510Y4721851D01*
X9471049Y4715000D01*
X9488951D01*
X9505491Y4721851D01*
X9518149Y4734509D01*
X9525000Y4751049D01*
Y4768951D01*
X9518149Y4785490D01*
X9505491Y4798149D01*
X9488951Y4805000D01*
D02*
G37*
G36*
X9818951Y4705000D02*
X9801049D01*
X9784510Y4698149D01*
X9771851Y4685491D01*
X9765000Y4668951D01*
Y4651049D01*
X9771851Y4634510D01*
X9784510Y4621851D01*
X9801049Y4615000D01*
X9818951D01*
X9835490Y4621851D01*
X9848149Y4634510D01*
X9855000Y4651049D01*
Y4668951D01*
X9848149Y4685491D01*
X9835490Y4698149D01*
X9818951Y4705000D01*
D02*
G37*
G36*
X7730614Y4670000D02*
X7690000D01*
X7661613Y4669409D01*
X7666628Y4657300D01*
X7657842Y4648513D01*
X7650991Y4631974D01*
Y4614072D01*
X7657842Y4597533D01*
X7670500Y4584874D01*
X7687040Y4578023D01*
X7704942D01*
X7721481Y4584874D01*
X7734140Y4597533D01*
X7740991Y4614072D01*
Y4631974D01*
X7734140Y4648513D01*
X7725353Y4657300D01*
X7730614Y4670000D01*
D02*
G37*
G36*
X10072545Y4658642D02*
X10054643D01*
X10038104Y4651791D01*
X10025445Y4639133D01*
X10018594Y4622593D01*
Y4604691D01*
X10025445Y4588152D01*
X10038104Y4575493D01*
X10054643Y4568642D01*
X10072545D01*
X10089085Y4575493D01*
X10101743Y4588152D01*
X10108594Y4604691D01*
Y4622593D01*
X10101743Y4639133D01*
X10089085Y4651791D01*
X10072545Y4658642D01*
D02*
G37*
G36*
X10658951Y4575000D02*
X10641049D01*
X10624510Y4568149D01*
X10611851Y4555491D01*
X10605000Y4538951D01*
Y4521049D01*
X10611851Y4504510D01*
X10624510Y4491851D01*
X10641049Y4485000D01*
X10658951D01*
X10675490Y4491851D01*
X10688149Y4504510D01*
X10695000Y4521049D01*
Y4538951D01*
X10688149Y4555491D01*
X10675490Y4568149D01*
X10658951Y4575000D01*
D02*
G37*
G36*
X9078314Y4574363D02*
X9060412D01*
X9043872Y4567512D01*
X9031214Y4554853D01*
X9024363Y4538314D01*
Y4520412D01*
X9031214Y4503872D01*
X9043872Y4491214D01*
X9060412Y4484363D01*
X9078314D01*
X9094853Y4491214D01*
X9107512Y4503872D01*
X9114363Y4520412D01*
Y4538314D01*
X9107512Y4554853D01*
X9094853Y4567512D01*
X9078314Y4574363D01*
D02*
G37*
G36*
X11018951Y4555000D02*
X11001049D01*
X10984510Y4548149D01*
X10971851Y4535491D01*
X10965000Y4518951D01*
Y4501049D01*
X10971851Y4484510D01*
X10984510Y4471851D01*
X11001049Y4465000D01*
X11018951D01*
X11035491Y4471851D01*
X11048149Y4484510D01*
X11055000Y4501049D01*
Y4518951D01*
X11048149Y4535491D01*
X11035491Y4548149D01*
X11018951Y4555000D01*
D02*
G37*
G36*
X7498951D02*
X7481049D01*
X7464510Y4548149D01*
X7451851Y4535491D01*
X7445000Y4518951D01*
Y4501049D01*
X7451851Y4484510D01*
X7464510Y4471851D01*
X7481049Y4465000D01*
X7498951D01*
X7515490Y4471851D01*
X7528149Y4484510D01*
X7535000Y4501049D01*
Y4518951D01*
X7528149Y4535491D01*
X7515490Y4548149D01*
X7498951Y4555000D01*
D02*
G37*
G36*
X10018951Y4525000D02*
X10001049D01*
X9984510Y4518149D01*
X9971851Y4505490D01*
X9965000Y4488951D01*
Y4471049D01*
X9971851Y4454510D01*
X9984510Y4441851D01*
X10001049Y4435000D01*
X10018951D01*
X10035490Y4441851D01*
X10048149Y4454510D01*
X10055000Y4471049D01*
Y4488951D01*
X10048149Y4505490D01*
X10035490Y4518149D01*
X10018951Y4525000D01*
D02*
G37*
G36*
X7408951Y4475000D02*
X7391049D01*
X7374510Y4468149D01*
X7361851Y4455490D01*
X7355000Y4438951D01*
Y4421049D01*
X7361851Y4404510D01*
X7374510Y4391851D01*
X7391049Y4385000D01*
X7408951D01*
X7425490Y4391851D01*
X7434340Y4400701D01*
X7438149Y4404509D01*
X7449112Y4398880D01*
X7445000Y4388951D01*
Y4371049D01*
X7451851Y4354509D01*
X7464510Y4341851D01*
X7481049Y4335000D01*
X7498951D01*
X7515490Y4341851D01*
X7528149Y4354509D01*
X7535000Y4371049D01*
Y4388951D01*
X7528149Y4405490D01*
X7515490Y4418149D01*
X7498951Y4425000D01*
X7481049D01*
X7464510Y4418149D01*
X7455660Y4409299D01*
X7451851Y4405491D01*
X7440888Y4411120D01*
X7445000Y4421049D01*
Y4438951D01*
X7438149Y4455490D01*
X7425490Y4468149D01*
X7408951Y4475000D01*
D02*
G37*
G36*
X9468951Y4215000D02*
X9451049D01*
X9434509Y4208149D01*
X9421851Y4195490D01*
X9415000Y4178951D01*
Y4161049D01*
X9421851Y4144510D01*
X9434509Y4131851D01*
X9451049Y4125000D01*
X9468951D01*
X9485490Y4131851D01*
X9498149Y4144510D01*
X9505000Y4161049D01*
Y4178951D01*
X9498149Y4195490D01*
X9485490Y4208149D01*
X9468951Y4215000D01*
D02*
G37*
G36*
X9578951Y4195000D02*
X9561049D01*
X9544509Y4188149D01*
X9531851Y4175491D01*
X9525000Y4158951D01*
Y4141049D01*
X9531851Y4124510D01*
X9544509Y4111851D01*
X9561049Y4105000D01*
X9578951D01*
X9595490Y4111851D01*
X9608149Y4124510D01*
X9615000Y4141049D01*
Y4158951D01*
X9608149Y4175491D01*
X9595490Y4188149D01*
X9578951Y4195000D01*
D02*
G37*
G36*
X7288951Y4125000D02*
X7271049D01*
X7254509Y4118149D01*
X7241851Y4105490D01*
X7235000Y4088951D01*
Y4071049D01*
X7241851Y4054509D01*
X7254509Y4041851D01*
X7271049Y4035000D01*
X7288951D01*
X7305490Y4041851D01*
X7318149Y4054509D01*
X7325000Y4071049D01*
Y4088951D01*
X7318149Y4105490D01*
X7305490Y4118149D01*
X7288951Y4125000D01*
D02*
G37*
G36*
X7704018Y3867599D02*
X7686116D01*
X7669576Y3860748D01*
X7656918Y3848090D01*
X7650067Y3831550D01*
Y3813648D01*
X7656918Y3797109D01*
X7669576Y3784450D01*
X7686116Y3777599D01*
X7704018D01*
X7720557Y3784450D01*
X7733216Y3797109D01*
X7740067Y3813648D01*
Y3831550D01*
X7733216Y3848090D01*
X7720557Y3860748D01*
X7704018Y3867599D01*
D02*
G37*
G36*
X7306912Y3866996D02*
X7289011D01*
X7272471Y3860145D01*
X7259813Y3847486D01*
X7252962Y3830947D01*
Y3813045D01*
X7259813Y3796505D01*
X7272471Y3783847D01*
X7289011Y3776996D01*
X7306912D01*
X7323452Y3783847D01*
X7336111Y3796505D01*
X7342961Y3813045D01*
Y3830947D01*
X7336111Y3847486D01*
X7323452Y3860145D01*
X7306912Y3866996D01*
D02*
G37*
G36*
X7448951Y3865000D02*
X7431049D01*
X7414510Y3858149D01*
X7401851Y3845490D01*
X7395000Y3828951D01*
Y3811049D01*
X7401851Y3794510D01*
X7414510Y3781851D01*
X7431049Y3775000D01*
X7448951D01*
X7465491Y3781851D01*
X7478149Y3794510D01*
X7485000Y3811049D01*
Y3828951D01*
X7478149Y3845490D01*
X7465491Y3858149D01*
X7448951Y3865000D01*
D02*
G37*
G36*
X7709845Y3628847D02*
X7691943D01*
X7675403Y3621996D01*
X7662745Y3609337D01*
X7655894Y3592798D01*
Y3574896D01*
X7662745Y3558356D01*
X7675403Y3545698D01*
X7691943Y3538847D01*
X7709845D01*
X7726384Y3545698D01*
X7739043Y3558356D01*
X7745894Y3574896D01*
Y3592798D01*
X7739043Y3609337D01*
X7726384Y3621996D01*
X7709845Y3628847D01*
D02*
G37*
G36*
X9578951Y3425000D02*
X9561049D01*
X9544509Y3418149D01*
X9531851Y3405491D01*
X9525000Y3388951D01*
Y3371049D01*
X9531851Y3354510D01*
X9544509Y3341851D01*
X9561049Y3335000D01*
X9578951D01*
X9595490Y3341851D01*
X9608149Y3354510D01*
X9615000Y3371049D01*
Y3388951D01*
X9608149Y3405491D01*
X9595490Y3418149D01*
X9578951Y3425000D01*
D02*
G37*
G36*
X7386451Y3417500D02*
X7368549D01*
X7352010Y3410649D01*
X7339351Y3397991D01*
X7332500Y3381451D01*
Y3363549D01*
X7339351Y3347010D01*
X7352010Y3334351D01*
X7368549Y3327500D01*
X7386451D01*
X7402991Y3334351D01*
X7415649Y3347010D01*
X7422500Y3363549D01*
Y3381451D01*
X7415649Y3397991D01*
X7402991Y3410649D01*
X7386451Y3417500D01*
D02*
G37*
G36*
X7611656Y3361450D02*
X7592343D01*
X7573688Y3356451D01*
X7556962Y3346795D01*
X7543305Y3333138D01*
X7533649Y3316412D01*
X7528650Y3297757D01*
Y3278444D01*
X7533649Y3259788D01*
X7543305Y3243062D01*
X7556962Y3229406D01*
X7573688Y3219749D01*
X7592343Y3214750D01*
X7611656D01*
X7630312Y3219749D01*
X7647038Y3229406D01*
X7660694Y3243062D01*
X7670351Y3259788D01*
X7675350Y3278444D01*
Y3297757D01*
X7670351Y3316412D01*
X7660694Y3333138D01*
X7647038Y3346795D01*
X7630312Y3356451D01*
X7611656Y3361450D01*
D02*
G37*
G36*
Y3158250D02*
X7592343D01*
X7573688Y3153252D01*
X7556962Y3143595D01*
X7543305Y3129938D01*
X7533649Y3113212D01*
X7528650Y3094557D01*
Y3075244D01*
X7533649Y3056588D01*
X7543305Y3039862D01*
X7556962Y3026206D01*
X7573688Y3016549D01*
X7592343Y3011550D01*
X7611656D01*
X7630312Y3016549D01*
X7647038Y3026206D01*
X7660694Y3039862D01*
X7670351Y3056588D01*
X7675350Y3075244D01*
Y3094557D01*
X7670351Y3113212D01*
X7660694Y3129938D01*
X7647038Y3143595D01*
X7630312Y3153252D01*
X7611656Y3158250D01*
D02*
G37*
G36*
X7458951Y3085000D02*
X7441049D01*
X7424510Y3078149D01*
X7411851Y3065490D01*
X7405000Y3048951D01*
Y3031049D01*
X7411851Y3014510D01*
X7424510Y3001851D01*
X7441049Y2995000D01*
X7458951D01*
X7475491Y3001851D01*
X7488149Y3014510D01*
X7495000Y3031049D01*
Y3048951D01*
X7488149Y3065490D01*
X7475491Y3078149D01*
X7458951Y3085000D01*
D02*
G37*
%LPD*%
G36*
X8120000Y10160000D02*
X7430000D01*
Y10162037D01*
X7423105Y10205567D01*
X7409486Y10247483D01*
X7389477Y10286752D01*
X7363572Y10322408D01*
X7332408Y10353572D01*
X7296752Y10379478D01*
X7257483Y10399486D01*
X7215567Y10413105D01*
X7172036Y10420000D01*
X7127963D01*
X7084433Y10413105D01*
X7042517Y10399486D01*
X7003248Y10379478D01*
X6967592Y10353572D01*
X6936428Y10322408D01*
X6910522Y10286752D01*
X6890514Y10247483D01*
X6876895Y10205567D01*
X6870000Y10162037D01*
Y10117964D01*
X6876895Y10074433D01*
X6890514Y10032517D01*
X6910522Y9993248D01*
X6936428Y9957592D01*
X6967592Y9926428D01*
X7003248Y9900522D01*
X7042517Y9880514D01*
X7084433Y9866895D01*
X7127963Y9860000D01*
X7172036D01*
X7215567Y9866895D01*
X7257483Y9880514D01*
X7296752Y9900522D01*
X7332408Y9926428D01*
X7363572Y9957592D01*
X7389477Y9993248D01*
X7407300Y10028227D01*
X7420000Y10025178D01*
Y7440028D01*
X7407300Y7431542D01*
X7398951Y7435000D01*
X7381049D01*
X7364510Y7428149D01*
X7355000Y7418639D01*
X7345491Y7428149D01*
X7328951Y7435000D01*
X7311049D01*
X7294510Y7428149D01*
X7285000Y7418639D01*
X7275490Y7428149D01*
X7258951Y7435000D01*
X7241049D01*
X7224510Y7428149D01*
X7211851Y7415491D01*
X7208763Y7414876D01*
X7205491Y7418149D01*
X7188951Y7425000D01*
X7171049D01*
X7154510Y7418149D01*
X7141851Y7405491D01*
X7128149D01*
X7115490Y7418149D01*
X7098951Y7425000D01*
X7081049D01*
X7064510Y7418149D01*
X7051851Y7405490D01*
X7045000Y7388951D01*
Y7371049D01*
X7051851Y7354510D01*
X7058064Y7348297D01*
X7063334Y7340000D01*
X7058064Y7331703D01*
X7051851Y7325490D01*
X7045000Y7308951D01*
Y7291049D01*
X7051851Y7274509D01*
X7058064Y7268297D01*
X7063334Y7260000D01*
X7058064Y7251703D01*
X7051851Y7245490D01*
X7045000Y7228951D01*
Y7211049D01*
X7051851Y7194510D01*
X7064510Y7181851D01*
X7081049Y7175000D01*
X7098951D01*
X7115490Y7181851D01*
X7128149Y7194509D01*
X7141851D01*
X7154510Y7181851D01*
X7171049Y7175000D01*
X7188951D01*
X7205491Y7181851D01*
X7218149Y7194509D01*
X7221237Y7195124D01*
X7224510Y7191851D01*
X7241049Y7185000D01*
X7258951D01*
X7275490Y7191851D01*
X7285000Y7201361D01*
X7294510Y7191851D01*
X7311049Y7185000D01*
X7328951D01*
X7345491Y7191851D01*
X7355000Y7201361D01*
X7364510Y7191851D01*
X7381049Y7185000D01*
X7398951D01*
X7407300Y7188458D01*
X7420000Y7179972D01*
Y6200000D01*
X6565924D01*
X6557612Y6203443D01*
X6539711D01*
X6531399Y6200000D01*
X6370000D01*
Y6938400D01*
X6382700Y6943661D01*
X6384510Y6941851D01*
X6401049Y6935000D01*
X6418951D01*
X6435491Y6941851D01*
X6448149Y6954510D01*
X6455000Y6971049D01*
Y6988951D01*
X6448149Y7005490D01*
X6435491Y7018149D01*
X6418951Y7025000D01*
X6401049D01*
X6384510Y7018149D01*
X6382700Y7016339D01*
X6370000Y7021600D01*
Y7078400D01*
X6382700Y7083661D01*
X6384510Y7081851D01*
X6401049Y7075000D01*
X6418951D01*
X6435491Y7081851D01*
X6448149Y7094510D01*
X6455000Y7111049D01*
Y7128951D01*
X6448149Y7145490D01*
X6435491Y7158149D01*
X6418951Y7165000D01*
X6401049D01*
X6384510Y7158149D01*
X6382700Y7156339D01*
X6370000Y7161600D01*
Y7249934D01*
X6378665Y7253279D01*
X6382700Y7253661D01*
X6394510Y7241851D01*
X6411049Y7235000D01*
X6428951D01*
X6445491Y7241851D01*
X6458149Y7254509D01*
X6465000Y7271049D01*
Y7288951D01*
X6458149Y7305490D01*
X6445491Y7318149D01*
X6428951Y7325000D01*
X6411049D01*
X6394510Y7318149D01*
X6382700Y7306339D01*
X6378665Y7306721D01*
X6370000Y7310066D01*
Y9163508D01*
X6382700Y9164759D01*
X6388455Y9135828D01*
X6405039Y9095791D01*
X6429115Y9059758D01*
X6459758Y9029115D01*
X6495791Y9005039D01*
X6535828Y8988454D01*
X6578332Y8980000D01*
X6621668D01*
X6664172Y8988454D01*
X6704209Y9005039D01*
X6740242Y9029115D01*
X6770885Y9059758D01*
X6794961Y9095791D01*
X6811545Y9135828D01*
X6820000Y9178332D01*
Y9221668D01*
X6811545Y9264171D01*
X6794961Y9304209D01*
X6770885Y9340242D01*
X6740242Y9370885D01*
X6704209Y9394961D01*
X6664172Y9411545D01*
X6621668Y9420000D01*
X6578332D01*
X6535828Y9411545D01*
X6495791Y9394961D01*
X6459758Y9370885D01*
X6429115Y9340242D01*
X6405039Y9304209D01*
X6388455Y9264171D01*
X6382700Y9235241D01*
X6370000Y9236492D01*
Y9796120D01*
X6382700Y9796953D01*
X6382960Y9794979D01*
X6394548Y9767004D01*
X6412981Y9742981D01*
X6437004Y9724548D01*
X6464979Y9712960D01*
X6495000Y9709008D01*
X6605000D01*
X6635021Y9712960D01*
X6662996Y9724548D01*
X6687019Y9742981D01*
X6705452Y9767004D01*
X6717040Y9794979D01*
X6720992Y9825000D01*
X6717040Y9855021D01*
X6705452Y9882996D01*
X6687019Y9907019D01*
X6662996Y9925452D01*
X6635021Y9937040D01*
X6605000Y9940992D01*
X6495000D01*
X6464979Y9937040D01*
X6437004Y9925452D01*
X6412981Y9907019D01*
X6394548Y9882996D01*
X6382960Y9855021D01*
X6382700Y9853048D01*
X6370000Y9853880D01*
Y10510000D01*
X8120000D01*
Y10160000D01*
D02*
G37*
%LPC*%
G36*
X6888951Y7305000D02*
X6871049D01*
X6854510Y7298149D01*
X6841851Y7285490D01*
X6835000Y7268951D01*
Y7251049D01*
X6841851Y7234510D01*
X6854510Y7221851D01*
X6871049Y7215000D01*
X6888951D01*
X6905490Y7221851D01*
X6918149Y7234510D01*
X6925000Y7251049D01*
Y7268951D01*
X6918149Y7285490D01*
X6905490Y7298149D01*
X6888951Y7305000D01*
D02*
G37*
G36*
X7088951Y7045000D02*
X7071049D01*
X7054510Y7038149D01*
X7041851Y7025490D01*
X7035000Y7008951D01*
Y6991049D01*
X7041851Y6974510D01*
X7054510Y6961851D01*
X7071049Y6955000D01*
X7088951D01*
X7105490Y6961851D01*
X7118149Y6974510D01*
X7125000Y6991049D01*
Y7008951D01*
X7118149Y7025490D01*
X7105490Y7038149D01*
X7088951Y7045000D01*
D02*
G37*
G36*
X6557613Y6828442D02*
X6539711D01*
X6523171Y6821591D01*
X6510513Y6808933D01*
X6503662Y6792393D01*
Y6774491D01*
X6510513Y6757952D01*
X6523171Y6745293D01*
X6539711Y6738442D01*
X6557613D01*
X6574152Y6745293D01*
X6586811Y6757952D01*
X6593662Y6774491D01*
Y6792393D01*
X6586811Y6808933D01*
X6574152Y6821591D01*
X6557613Y6828442D01*
D02*
G37*
G36*
X7070509Y6506709D02*
X7052607D01*
X7036067Y6499858D01*
X7023409Y6487199D01*
X7016558Y6470660D01*
Y6452758D01*
X7023409Y6436218D01*
X7036067Y6423560D01*
X7052607Y6416709D01*
X7070509D01*
X7087048Y6423560D01*
X7099707Y6436218D01*
X7106558Y6452758D01*
Y6470660D01*
X7099707Y6487199D01*
X7087048Y6499858D01*
X7070509Y6506709D01*
D02*
G37*
G36*
X7139449Y6384497D02*
X7121547D01*
X7105007Y6377646D01*
X7092349Y6364987D01*
X7085498Y6348448D01*
Y6330546D01*
X7092349Y6314006D01*
X7105007Y6301348D01*
X7121547Y6294497D01*
X7139449D01*
X7155988Y6301348D01*
X7168647Y6314006D01*
X7175498Y6330546D01*
Y6348448D01*
X7168647Y6364987D01*
X7155988Y6377646D01*
X7139449Y6384497D01*
D02*
G37*
G36*
X6557612Y6368442D02*
X6539711D01*
X6523171Y6361592D01*
X6510513Y6348933D01*
X6503662Y6332393D01*
Y6314492D01*
X6510513Y6297952D01*
X6523171Y6285293D01*
X6539711Y6278443D01*
X6557612D01*
X6574152Y6285293D01*
X6586811Y6297952D01*
X6593661Y6314492D01*
Y6332393D01*
X6586811Y6348933D01*
X6574152Y6361592D01*
X6557612Y6368442D01*
D02*
G37*
%LPD*%
G36*
X13820000Y9851947D02*
X13807300Y9849421D01*
X13794962Y9879209D01*
X13770885Y9915242D01*
X13740242Y9945885D01*
X13704208Y9969961D01*
X13664172Y9986545D01*
X13621667Y9995000D01*
X13578333D01*
X13535828Y9986545D01*
X13495792Y9969961D01*
X13459758Y9945885D01*
X13429115Y9915242D01*
X13405038Y9879209D01*
X13388455Y9839172D01*
X13380000Y9796668D01*
Y9753332D01*
X13388455Y9710828D01*
X13405038Y9670791D01*
X13429115Y9634758D01*
X13459758Y9604115D01*
X13495792Y9580039D01*
X13535828Y9563455D01*
X13578333Y9555000D01*
X13621667D01*
X13664172Y9563455D01*
X13704208Y9580039D01*
X13740242Y9604115D01*
X13770885Y9634758D01*
X13794962Y9670791D01*
X13807300Y9700579D01*
X13820000Y9698053D01*
Y7920000D01*
X13531599D01*
X13526340Y7932700D01*
X13528149Y7934510D01*
X13535001Y7951049D01*
Y7968951D01*
X13528149Y7985491D01*
X13515491Y7998149D01*
X13498952Y8005000D01*
X13481049D01*
X13464510Y7998149D01*
X13451851Y7985491D01*
X13445000Y7968951D01*
Y7951049D01*
X13451851Y7934510D01*
X13453661Y7932700D01*
X13448399Y7920000D01*
X13361853D01*
X13354797Y7930560D01*
X13355000Y7931049D01*
Y7948951D01*
X13348149Y7965491D01*
X13335490Y7978149D01*
X13318951Y7985000D01*
X13301048D01*
X13292700Y7981542D01*
X13280000Y7990028D01*
Y9590000D01*
X13270000Y9600000D01*
X10920000D01*
Y10238400D01*
X10932700Y10243660D01*
X10934510Y10241851D01*
X10951049Y10235000D01*
X10968951D01*
X10985490Y10241851D01*
X10998149Y10254510D01*
X11005000Y10271049D01*
Y10288951D01*
X10998149Y10305490D01*
X10985490Y10318149D01*
X10968951Y10325000D01*
X10951049D01*
X10934510Y10318149D01*
X10932700Y10316340D01*
X10920000Y10321600D01*
Y10390000D01*
X10924142Y10400000D01*
X11969577D01*
X11971851Y10394510D01*
X11984510Y10381851D01*
X12001049Y10375000D01*
X12018951D01*
X12035491Y10381851D01*
X12048149Y10394510D01*
X12061851D01*
X12074510Y10381851D01*
X12091049Y10375000D01*
X12108951D01*
X12125490Y10381851D01*
X12138149Y10394510D01*
X12140423Y10400000D01*
X12169577D01*
X12171851Y10394510D01*
X12184510Y10381851D01*
X12201049Y10375000D01*
X12218951D01*
X12235490Y10381851D01*
X12248149Y10394510D01*
X12250423Y10400000D01*
X12279577D01*
X12281851Y10394510D01*
X12294510Y10381851D01*
X12311049Y10375000D01*
X12328951D01*
X12345490Y10381851D01*
X12358149Y10394510D01*
X12360423Y10400000D01*
X13820000D01*
Y9851947D01*
D02*
G37*
%LPC*%
G36*
X13138951Y10035000D02*
X13121049D01*
X13104509Y10028149D01*
X13091850Y10015491D01*
X13085001Y9998951D01*
Y9981049D01*
X13091850Y9964510D01*
X13104509Y9951851D01*
X13121049Y9945000D01*
X13138951D01*
X13155490Y9951851D01*
X13168149Y9964510D01*
X13175000Y9981049D01*
Y9998951D01*
X13168149Y10015491D01*
X13155490Y10028149D01*
X13138951Y10035000D01*
D02*
G37*
%LPD*%
G36*
X12080000Y3910000D02*
Y3880000D01*
X11971600D01*
X11966340Y3892700D01*
X11968149Y3894510D01*
X11975000Y3911049D01*
Y3928951D01*
X11968149Y3945490D01*
X11955490Y3958149D01*
X11938951Y3965000D01*
X11921049D01*
X11912700Y3961542D01*
X11900000Y3970028D01*
Y5019933D01*
X11908664Y5023279D01*
X11912700Y5023661D01*
X11924510Y5011851D01*
X11941049Y5005000D01*
X11958951D01*
X11975490Y5011851D01*
X11988149Y5024510D01*
X11995000Y5041049D01*
Y5058951D01*
X11988149Y5075490D01*
X11975490Y5088149D01*
X11958951Y5095000D01*
X11941049D01*
X11924510Y5088149D01*
X11912700Y5076340D01*
X11908664Y5076721D01*
X11900000Y5080067D01*
Y5478733D01*
X11908664Y5482079D01*
X11912700Y5482460D01*
X11924510Y5470651D01*
X11941049Y5463800D01*
X11958951D01*
X11975490Y5470651D01*
X11988149Y5483310D01*
X11995000Y5499849D01*
Y5517751D01*
X11988149Y5534290D01*
X11975490Y5546949D01*
X11958951Y5553800D01*
X11941049D01*
X11924510Y5546949D01*
X11912700Y5535140D01*
X11908664Y5535521D01*
X11900000Y5538867D01*
Y5960000D01*
X12080000D01*
Y3910000D01*
D02*
G37*
%LPC*%
G36*
X13488951Y7405000D02*
X13471049D01*
X13454510Y7398149D01*
X13441850Y7385490D01*
X13435001Y7368951D01*
Y7351049D01*
X13441850Y7334510D01*
X13454510Y7321851D01*
X13471049Y7315000D01*
X13488951D01*
X13505490Y7321851D01*
X13518149Y7334510D01*
X13525000Y7351049D01*
Y7368951D01*
X13518149Y7385490D01*
X13505490Y7398149D01*
X13488951Y7405000D01*
D02*
G37*
G36*
X13275629Y6767405D02*
X13257727D01*
X13241187Y6760554D01*
X13228529Y6747896D01*
X13221678Y6731356D01*
Y6713454D01*
X13228529Y6696915D01*
X13241187Y6684256D01*
X13257727Y6677405D01*
X13275629D01*
X13292168Y6684256D01*
X13304826Y6696915D01*
X13311678Y6713454D01*
Y6731356D01*
X13304826Y6747896D01*
X13292168Y6760554D01*
X13275629Y6767405D01*
D02*
G37*
G36*
X13354588Y6435240D02*
X13336687D01*
X13320146Y6428389D01*
X13307487Y6415731D01*
X13300636Y6399191D01*
Y6381289D01*
X13307487Y6364750D01*
X13320146Y6352091D01*
X13336687Y6345241D01*
X13354588D01*
X13371127Y6352091D01*
X13383786Y6364750D01*
X13390637Y6381289D01*
Y6399191D01*
X13383786Y6415731D01*
X13371127Y6428389D01*
X13354588Y6435240D01*
D02*
G37*
%LPD*%
D75*
X9015000Y10835000D02*
X9030000Y10850000D01*
X8960000Y10780000D02*
X9015000Y10835000D01*
X9225000D01*
X9300000Y10760000D01*
Y10630000D02*
Y10760000D01*
X12270000Y11030000D02*
X13070000D01*
X13210001Y10890000D01*
Y10650000D02*
Y10890000D01*
X9030000Y10850000D02*
Y10920000D01*
X8060000Y10630000D02*
X8210000Y10780000D01*
X8960000D01*
X8060000Y10320000D02*
Y10630000D01*
D78*
X11980000Y8320000D02*
X12220000Y8560000D01*
X13300000D01*
X11980000Y6070000D02*
Y8320000D01*
X11490000Y4220000D02*
X11920000D01*
X11340000Y4070000D02*
X11490000Y4220000D01*
X11340000Y3760000D02*
Y4070000D01*
X11170000Y3590000D02*
X11340000Y3760000D01*
X10710000Y3590000D02*
X11170000D01*
X10170000Y3740000D02*
X10560000D01*
X10710000Y3590000D01*
X10060000Y3630000D02*
X10170000Y3740000D01*
X10060000Y3330000D02*
Y3630000D01*
X10220000Y3030000D02*
Y3340000D01*
Y3030000D02*
X10230000Y3020000D01*
D85*
X7150000Y10860000D02*
D03*
Y10140000D02*
D03*
D86*
X10225000Y8950000D02*
D03*
X9925000D02*
D03*
X10225000Y9400000D02*
D03*
X9925000D02*
D03*
X10075000Y9175000D02*
D03*
X8175000Y8925000D02*
D03*
X7875000D02*
D03*
X8175000Y9375000D02*
D03*
X7875000D02*
D03*
X8025000Y9150000D02*
D03*
X12275000Y8950000D02*
D03*
X11975000D02*
D03*
X12275000Y9400000D02*
D03*
X11975000D02*
D03*
X12125000Y9175000D02*
D03*
D87*
X7602000Y3084900D02*
D03*
Y3288100D02*
D03*
X7094000Y3186500D02*
D03*
D88*
X6550000Y9825000D02*
D03*
Y11175000D02*
D03*
D89*
X6835000Y3760000D02*
D03*
Y4340000D02*
D03*
D90*
X6885000Y4482500D02*
D03*
Y3617500D02*
D03*
D91*
X6465000D02*
D03*
Y4482500D02*
D03*
D92*
X11610000Y4330000D02*
D03*
X13310001Y7940000D02*
D03*
X13239999D02*
D03*
X13310001Y7870000D02*
D03*
X13239999D02*
D03*
X9240000Y5070000D02*
D03*
X10010000Y4480000D02*
D03*
X9670000Y4270000D02*
D03*
X10060000Y5520000D02*
D03*
X9040000Y5140000D02*
D03*
X7490000Y4510000D02*
D03*
X7440000Y3820000D02*
D03*
X7170000D02*
D03*
X10460000Y3430000D02*
D03*
X10530000Y3230000D02*
D03*
X9570000Y4150000D02*
D03*
X6375300Y6002658D02*
D03*
Y5932658D02*
D03*
Y5862658D02*
D03*
X6455300Y6072658D02*
D03*
Y6002658D02*
D03*
Y5932658D02*
D03*
Y5862658D02*
D03*
X6375300Y6072658D02*
D03*
X12989999Y3030000D02*
D03*
X6480000Y4910000D02*
D03*
Y4990000D02*
D03*
X6480000Y5070000D02*
D03*
Y5150000D02*
D03*
Y5220000D02*
D03*
Y5290000D02*
D03*
Y5360000D02*
D03*
X6480000Y5430000D02*
D03*
X6410000D02*
D03*
X6410000Y5360000D02*
D03*
X6410000Y5290000D02*
D03*
Y5220000D02*
D03*
X6410000Y5150000D02*
D03*
Y5070000D02*
D03*
X6410000Y4990000D02*
D03*
Y4910000D02*
D03*
X6550000Y5430000D02*
D03*
X6550000Y5360000D02*
D03*
X6550000Y5290000D02*
D03*
Y5220000D02*
D03*
X6550000Y5150000D02*
D03*
X6550000Y5070000D02*
D03*
Y4990000D02*
D03*
Y4910000D02*
D03*
X6630000Y5430000D02*
D03*
Y5360000D02*
D03*
Y5290000D02*
D03*
Y5220000D02*
D03*
Y5150000D02*
D03*
Y5070000D02*
D03*
Y4990000D02*
D03*
Y4910000D02*
D03*
X12470000Y2950000D02*
D03*
X12550000D02*
D03*
X12630000D02*
D03*
X12710000D02*
D03*
X12780000D02*
D03*
X12850000D02*
D03*
X12920000D02*
D03*
X12989999D02*
D03*
X12470000Y3030000D02*
D03*
X12550000D02*
D03*
X12630000D02*
D03*
X12710000D02*
D03*
X12780000D02*
D03*
X12850000D02*
D03*
X12920000D02*
D03*
X12470000Y3170000D02*
D03*
X12550000D02*
D03*
X12630000D02*
D03*
X12710000D02*
D03*
X12780000D02*
D03*
X12850000D02*
D03*
X12920000D02*
D03*
X12989999D02*
D03*
Y3100000D02*
D03*
X12920000D02*
D03*
X12850000D02*
D03*
X12780000D02*
D03*
X12710000D02*
D03*
X12630000D02*
D03*
X12550000D02*
D03*
X12470000D02*
D03*
X12690000Y4000000D02*
D03*
X12830000Y4030000D02*
D03*
X9572218Y5400000D02*
D03*
X9460000Y4170000D02*
D03*
X10100000Y5410000D02*
D03*
X10210000Y5520000D02*
D03*
X6810000Y5830000D02*
D03*
X11430000Y7260000D02*
D03*
Y7320000D02*
D03*
Y7400000D02*
D03*
Y7480000D02*
D03*
X13489999Y7960000D02*
D03*
X13480000Y7360000D02*
D03*
X13266678Y6722405D02*
D03*
X13345638Y6390240D02*
D03*
X12760000Y7470000D02*
D03*
X11758189Y11099973D02*
D03*
X11754784Y11171657D02*
D03*
Y11241657D02*
D03*
X9840000Y4270000D02*
D03*
X6410000Y6980000D02*
D03*
X12050000Y3930000D02*
D03*
X9910000Y3330000D02*
D03*
X10060000D02*
D03*
X10220000Y3340000D02*
D03*
X13130000Y9990000D02*
D03*
X12010000Y10550000D02*
D03*
Y10490000D02*
D03*
Y10420000D02*
D03*
X12100000Y10550000D02*
D03*
Y10490000D02*
D03*
Y10420000D02*
D03*
X12210000Y10550000D02*
D03*
Y10490000D02*
D03*
Y10420000D02*
D03*
X13860001Y6470000D02*
D03*
Y6400000D02*
D03*
Y6340000D02*
D03*
X13770000Y7960000D02*
D03*
X13710001D02*
D03*
X13650000D02*
D03*
X13210001Y10650000D02*
D03*
X12140000Y11030000D02*
D03*
X12200000D02*
D03*
X12270000D02*
D03*
X12140000Y11100000D02*
D03*
X12200000D02*
D03*
X12270000D02*
D03*
X12330000Y10730000D02*
D03*
Y10800000D02*
D03*
Y10860000D02*
D03*
X13080000Y10480000D02*
D03*
X12320000Y10420000D02*
D03*
Y10490000D02*
D03*
Y10550000D02*
D03*
X11207764Y10115706D02*
D03*
Y10185706D02*
D03*
Y10265706D02*
D03*
X11117764Y10115706D02*
D03*
Y10195706D02*
D03*
Y10265706D02*
D03*
X10217764Y9805706D02*
D03*
Y9875706D02*
D03*
Y9945706D02*
D03*
X11030000Y11280000D02*
D03*
X10950000D02*
D03*
X10870000D02*
D03*
X10800000D02*
D03*
Y11200000D02*
D03*
X10870000D02*
D03*
X10950000D02*
D03*
X11030000D02*
D03*
X10800000Y11130000D02*
D03*
X10870000D02*
D03*
X10950000D02*
D03*
X11030000D02*
D03*
X10800000Y11060000D02*
D03*
X10870000D02*
D03*
X10950000D02*
D03*
X11030000D02*
D03*
X10960000Y10280000D02*
D03*
X10590000Y10210000D02*
D03*
X10100000Y10290000D02*
D03*
X10360000Y10820000D02*
D03*
X8070000Y9800000D02*
D03*
X7970000D02*
D03*
X7880000D02*
D03*
X7800000D02*
D03*
X7730000D02*
D03*
X7650000D02*
D03*
X7580000D02*
D03*
X9300000Y10630000D02*
D03*
X9030000Y10920000D02*
D03*
X8890000D02*
D03*
X9150000D02*
D03*
X9380000Y10410000D02*
D03*
X9340000Y10290000D02*
D03*
X8590000Y11050000D02*
D03*
X8510000D02*
D03*
X8430000D02*
D03*
X8360000D02*
D03*
X8290000D02*
D03*
X8220000D02*
D03*
X8150000D02*
D03*
X8080000D02*
D03*
X8010000D02*
D03*
X7930000D02*
D03*
X8590000Y11120000D02*
D03*
X8510000D02*
D03*
X8430000D02*
D03*
X8360000D02*
D03*
X8290000D02*
D03*
X8220000D02*
D03*
X8150000D02*
D03*
X8080000D02*
D03*
X8010000D02*
D03*
X7930000D02*
D03*
X8590000Y11190000D02*
D03*
X8510000D02*
D03*
X8430000D02*
D03*
X8360000D02*
D03*
X8290000D02*
D03*
X8220000D02*
D03*
X8150000D02*
D03*
X8080000D02*
D03*
X8010000D02*
D03*
X7930000D02*
D03*
Y11270000D02*
D03*
X8010000D02*
D03*
X8080000D02*
D03*
X8150000D02*
D03*
X8220000D02*
D03*
X8290000D02*
D03*
X8360000D02*
D03*
X8430000D02*
D03*
X8510000D02*
D03*
X8590000D02*
D03*
X8060000Y10320000D02*
D03*
X7990000D02*
D03*
X7910000D02*
D03*
X7830000D02*
D03*
X7740000D02*
D03*
X7640349Y10318751D02*
D03*
X7550000Y10320000D02*
D03*
X9040000Y10470000D02*
D03*
X7780000Y10940000D02*
D03*
X7720000D02*
D03*
X7650000D02*
D03*
X7570000D02*
D03*
X7770000Y11000000D02*
D03*
X7700000D02*
D03*
X7640000D02*
D03*
X7570000D02*
D03*
X12720000Y8010000D02*
D03*
Y8080000D02*
D03*
Y8140000D02*
D03*
Y8210000D02*
D03*
Y8270000D02*
D03*
Y8340000D02*
D03*
X12650000Y8270000D02*
D03*
Y8340000D02*
D03*
Y8140000D02*
D03*
Y8210000D02*
D03*
Y8010000D02*
D03*
Y8080000D02*
D03*
X13239999Y7700000D02*
D03*
X13310001D02*
D03*
X13239999Y7760000D02*
D03*
X13310001D02*
D03*
X13239999Y7810000D02*
D03*
X13310001D02*
D03*
X12860001Y7940000D02*
D03*
Y7870000D02*
D03*
X12790000Y7940000D02*
D03*
Y7870000D02*
D03*
X12715501Y7944000D02*
D03*
Y7874000D02*
D03*
X12650000Y7940000D02*
D03*
Y7870000D02*
D03*
X12560000Y7330000D02*
D03*
X12480000D02*
D03*
Y7390000D02*
D03*
X12560000D02*
D03*
X12400000Y7450000D02*
D03*
X12480000D02*
D03*
X12560000D02*
D03*
X12560000Y7510000D02*
D03*
X12480000D02*
D03*
X12400000D02*
D03*
X12320000D02*
D03*
X12560000Y7560000D02*
D03*
X12480000D02*
D03*
X12400000D02*
D03*
X12320000D02*
D03*
X12560000Y7620000D02*
D03*
X12480000D02*
D03*
X12400000D02*
D03*
X12320000D02*
D03*
X12560000Y7680000D02*
D03*
X12480000D02*
D03*
X12400000D02*
D03*
X12320000D02*
D03*
X12560000Y7750000D02*
D03*
X12480000D02*
D03*
X12400000D02*
D03*
X12320000D02*
D03*
X12560000Y7810000D02*
D03*
X12480000D02*
D03*
X12400000D02*
D03*
X12320000D02*
D03*
X12560000Y7880000D02*
D03*
X12480000D02*
D03*
X12400000D02*
D03*
X12320000D02*
D03*
X12560000Y7940000D02*
D03*
X12480000D02*
D03*
X12400000D02*
D03*
X12320000D02*
D03*
X12556700Y7995000D02*
D03*
X12476700D02*
D03*
X12396700D02*
D03*
X12316700D02*
D03*
X12560000Y8050000D02*
D03*
X12480000D02*
D03*
X12400000D02*
D03*
X12320000D02*
D03*
X12560000Y8100000D02*
D03*
X12480000D02*
D03*
X12400000D02*
D03*
X12320000D02*
D03*
X12560000Y8150000D02*
D03*
X12480000D02*
D03*
X12400000D02*
D03*
X12320000D02*
D03*
X12560000Y8210000D02*
D03*
X12480000D02*
D03*
X12400000D02*
D03*
X12320000D02*
D03*
X12560000Y8270000D02*
D03*
X12480000D02*
D03*
X12400000D02*
D03*
X12320000D02*
D03*
X12560000Y8330000D02*
D03*
X12480000D02*
D03*
X12400000D02*
D03*
X12320000D02*
D03*
X10640000Y7120000D02*
D03*
X10720000D02*
D03*
X10800000D02*
D03*
X10790000Y7350000D02*
D03*
X10710000D02*
D03*
X10630000D02*
D03*
X9280000Y7390000D02*
D03*
X9360000D02*
D03*
X9280000Y7460000D02*
D03*
X9360000D02*
D03*
X9270000Y7530000D02*
D03*
X9350000D02*
D03*
Y7620000D02*
D03*
X9270000D02*
D03*
X9820000Y8070000D02*
D03*
Y8140000D02*
D03*
Y8200000D02*
D03*
Y8270000D02*
D03*
Y8340000D02*
D03*
Y8390000D02*
D03*
X9440000D02*
D03*
X9520000D02*
D03*
X9600000D02*
D03*
X9680000D02*
D03*
X9760335Y8386095D02*
D03*
X9440000Y8340000D02*
D03*
X9520000D02*
D03*
X9600000D02*
D03*
X9680000D02*
D03*
X9760335Y8336095D02*
D03*
X9440000Y8270000D02*
D03*
X9520000D02*
D03*
X9600000D02*
D03*
X9680000D02*
D03*
X9760335Y8266095D02*
D03*
X9440000Y8200000D02*
D03*
X9520000D02*
D03*
X9600000D02*
D03*
X9680000D02*
D03*
X9760335Y8196095D02*
D03*
X9440000Y8140000D02*
D03*
X9520000D02*
D03*
X9600000D02*
D03*
X9680000D02*
D03*
X9760335Y8136095D02*
D03*
X9440000Y8070000D02*
D03*
X9520000D02*
D03*
X9600000D02*
D03*
X9680000D02*
D03*
X9760335Y8066095D02*
D03*
X9830000Y7440000D02*
D03*
X9820000Y8000000D02*
D03*
X9440000Y7940000D02*
D03*
Y8000000D02*
D03*
X9520000D02*
D03*
X9600000D02*
D03*
X9680000D02*
D03*
X9760335Y7996095D02*
D03*
X9510000Y7920000D02*
D03*
X9590000D02*
D03*
X9670000D02*
D03*
X9750000D02*
D03*
X9830335Y7916095D02*
D03*
X9510000Y7860000D02*
D03*
X9590000D02*
D03*
X9670000D02*
D03*
X9750000D02*
D03*
X9830335Y7856095D02*
D03*
X9510000Y7790000D02*
D03*
X9590000D02*
D03*
X9670000D02*
D03*
X9750000D02*
D03*
X9830335Y7786095D02*
D03*
X9510000Y7720000D02*
D03*
X9590000D02*
D03*
X9670000D02*
D03*
X9750000D02*
D03*
X9830335Y7716095D02*
D03*
X9510000Y7650000D02*
D03*
X9590000D02*
D03*
X9670000D02*
D03*
X9750000D02*
D03*
X9830335Y7646095D02*
D03*
X9510000Y7580000D02*
D03*
X9590000D02*
D03*
X9670000D02*
D03*
X9750000D02*
D03*
X9830335Y7576095D02*
D03*
X9510000Y7510000D02*
D03*
X9590000D02*
D03*
X9670000D02*
D03*
X9750000D02*
D03*
X9830335Y7506095D02*
D03*
X9749665Y7443905D02*
D03*
X9669665D02*
D03*
X9589665D02*
D03*
X9509665D02*
D03*
X8730000Y7560000D02*
D03*
Y7640000D02*
D03*
Y7720000D02*
D03*
X8820000D02*
D03*
Y7640000D02*
D03*
Y7560000D02*
D03*
X8890000Y7730000D02*
D03*
Y7650000D02*
D03*
Y7570000D02*
D03*
X8960000Y7730000D02*
D03*
Y7650000D02*
D03*
Y7570000D02*
D03*
X9030000Y7730000D02*
D03*
Y7650000D02*
D03*
Y7570000D02*
D03*
X7460000Y7390000D02*
D03*
Y7310000D02*
D03*
Y7230000D02*
D03*
X7390000D02*
D03*
Y7310000D02*
D03*
Y7390000D02*
D03*
X7320000Y7230000D02*
D03*
Y7310000D02*
D03*
Y7390000D02*
D03*
X7250000Y7230000D02*
D03*
Y7310000D02*
D03*
Y7390000D02*
D03*
X7180000Y7220000D02*
D03*
Y7300000D02*
D03*
Y7380000D02*
D03*
X7090000D02*
D03*
Y7300000D02*
D03*
Y7220000D02*
D03*
X8590000Y8330000D02*
D03*
X8510000D02*
D03*
X8430000D02*
D03*
X8360000D02*
D03*
X8280000D02*
D03*
X8200000D02*
D03*
X8590000Y8250000D02*
D03*
X8510000D02*
D03*
X8430000D02*
D03*
X8360000D02*
D03*
X8280000D02*
D03*
X8200000D02*
D03*
X8590000Y8170000D02*
D03*
X8510000D02*
D03*
X8430000D02*
D03*
X8360000D02*
D03*
X8280000D02*
D03*
X8200000D02*
D03*
X8590000Y8090000D02*
D03*
X8510000D02*
D03*
X8430000D02*
D03*
X8360000D02*
D03*
X8280000D02*
D03*
X8200000D02*
D03*
X8202500Y8019889D02*
D03*
X8282500D02*
D03*
X8362500D02*
D03*
X8432500D02*
D03*
X8512500D02*
D03*
X8592500D02*
D03*
X8790000Y7860000D02*
D03*
X8760000Y7930000D02*
D03*
X8680000D02*
D03*
X8600000D02*
D03*
X8520000D02*
D03*
X8440000D02*
D03*
X8360000D02*
D03*
X8280000D02*
D03*
X8200000D02*
D03*
X9230000Y7950000D02*
D03*
X9150000D02*
D03*
X9070000D02*
D03*
X8990000D02*
D03*
X9030000Y7860000D02*
D03*
X8950000D02*
D03*
X8870000D02*
D03*
X8710000D02*
D03*
X8630000D02*
D03*
X8550000D02*
D03*
X8470000D02*
D03*
X8400000D02*
D03*
X8320000D02*
D03*
X8240000D02*
D03*
X8160000D02*
D03*
X8400000Y7790000D02*
D03*
X8320000D02*
D03*
X8240000D02*
D03*
X8160000D02*
D03*
X8400000Y7720000D02*
D03*
X8320000D02*
D03*
X8240000D02*
D03*
X8160000D02*
D03*
X8400000Y7650000D02*
D03*
X8320000D02*
D03*
X8240000D02*
D03*
X8160000D02*
D03*
X8410000Y7570000D02*
D03*
X8330000D02*
D03*
X8250000D02*
D03*
X8170000D02*
D03*
X8400000Y7500000D02*
D03*
X8320000D02*
D03*
X8240000D02*
D03*
X8160000D02*
D03*
Y7430000D02*
D03*
X8240000D02*
D03*
X8320000D02*
D03*
X8400000D02*
D03*
X10050000Y3850000D02*
D03*
X10328027Y2973736D02*
D03*
X10350000Y3330000D02*
D03*
X9839644Y4072079D02*
D03*
X9983162Y3996125D02*
D03*
X9901582Y3720007D02*
D03*
X9930000Y3620000D02*
D03*
X7695067Y3822599D02*
D03*
X7297962Y3821996D02*
D03*
X7450000Y3040000D02*
D03*
X6859874Y3061769D02*
D03*
X7060000Y2980000D02*
D03*
X7700894Y3583847D02*
D03*
X7600000Y3580000D02*
D03*
X7377500Y3372500D02*
D03*
X12900000Y3860000D02*
D03*
X12643149Y3898502D02*
D03*
X12430000Y3850000D02*
D03*
X12269298Y3846263D02*
D03*
X10549874Y3521346D02*
D03*
X10470000Y3620000D02*
D03*
X12550000Y3810000D02*
D03*
X12180000D02*
D03*
X11802937Y4042814D02*
D03*
X11930000Y3920000D02*
D03*
X11500000Y3500000D02*
D03*
X11445000Y3110000D02*
D03*
X11905000D02*
D03*
X12170000D02*
D03*
X13130000Y3110001D02*
D03*
X13000000Y3500000D02*
D03*
X13600000Y3690000D02*
D03*
X12777500Y3847500D02*
D03*
X12460000Y6160000D02*
D03*
X11530000Y5350000D02*
D03*
X12125637Y6170241D02*
D03*
X11980000Y6070000D02*
D03*
X10650000Y4530000D02*
D03*
X12970000Y7380000D02*
D03*
X13219318Y7449789D02*
D03*
X11140000Y4760000D02*
D03*
X6880000Y7260000D02*
D03*
X6420000Y7280000D02*
D03*
X6410000Y7120000D02*
D03*
X10890000Y4790000D02*
D03*
X10689078Y4779542D02*
D03*
X7270000Y7000000D02*
D03*
X7080000D02*
D03*
X6930000D02*
D03*
X8199379Y6180777D02*
D03*
X8100000Y5060000D02*
D03*
X7950000Y5050000D02*
D03*
X8180000Y5520000D02*
D03*
X8130000Y5740000D02*
D03*
X7750000Y5900000D02*
D03*
X7980000Y5740000D02*
D03*
X7850000Y6500000D02*
D03*
X7061558Y6461709D02*
D03*
X7541788Y6501663D02*
D03*
X7350000Y6290000D02*
D03*
X7130498Y6339497D02*
D03*
X6980000Y6340000D02*
D03*
X10063594Y4613642D02*
D03*
X8708662Y6218442D02*
D03*
X8402459Y5620406D02*
D03*
X6548662Y6783442D02*
D03*
X6548662Y6323443D02*
D03*
Y6158443D02*
D03*
Y5698443D02*
D03*
X7695991Y5498528D02*
D03*
X7653661Y4943442D02*
D03*
X7695991Y4623023D02*
D03*
X6555000Y5530000D02*
D03*
X6555000Y4770000D02*
D03*
X7599609Y5343364D02*
D03*
X7613335Y5107139D02*
D03*
X7608278Y4782060D02*
D03*
X7257915Y4628912D02*
D03*
X7260000Y4730000D02*
D03*
X7110000Y4810000D02*
D03*
X7120000Y5800000D02*
D03*
X7510000Y5820000D02*
D03*
X7255931Y5499879D02*
D03*
X7180000Y5490000D02*
D03*
X7260000Y5410000D02*
D03*
X7262438Y4950803D02*
D03*
X7255930Y5049612D02*
D03*
X7190000Y5110000D02*
D03*
X13009541Y5559865D02*
D03*
X13008749Y5059599D02*
D03*
X13030000Y4820000D02*
D03*
X12728292Y4094618D02*
D03*
X12860001Y4100000D02*
D03*
X13030000Y4250000D02*
D03*
X12860001Y4340000D02*
D03*
X7280000Y4080000D02*
D03*
X7490000Y4380000D02*
D03*
X6970000Y4670000D02*
D03*
X6940859Y4581944D02*
D03*
X7090000Y3730000D02*
D03*
X7270000Y4500000D02*
D03*
X7400000Y4430000D02*
D03*
X7770000Y4380000D02*
D03*
X7760000Y4470000D02*
D03*
X9069363Y4529363D02*
D03*
X11662784Y4771143D02*
D03*
X11240465Y4370722D02*
D03*
X12644252Y4264098D02*
D03*
X12600000Y4850000D02*
D03*
X13210001Y4545000D02*
D03*
X13100000Y3920000D02*
D03*
X12964999Y4575000D02*
D03*
X11790000Y4480000D02*
D03*
Y4620000D02*
D03*
X13600000Y4150000D02*
D03*
X13600000Y4315000D02*
D03*
X13600000Y4775000D02*
D03*
X13591299Y5095000D02*
D03*
X13201300Y5325000D02*
D03*
X13591299Y5555000D02*
D03*
Y5720000D02*
D03*
Y6180000D02*
D03*
X13080000Y5950000D02*
D03*
X12873788Y5641425D02*
D03*
X12870000Y5010000D02*
D03*
X12589006Y5058949D02*
D03*
X12571089Y5812193D02*
D03*
X12730000Y5810000D02*
D03*
X11950000Y5508800D02*
D03*
Y5050000D02*
D03*
X8770000Y4130000D02*
D03*
X8840000Y4860000D02*
D03*
X8910000Y3990000D02*
D03*
X9130000Y3780000D02*
D03*
X9570000Y3380000D02*
D03*
X9140000Y4790000D02*
D03*
X8052500Y7067500D02*
D03*
X9420000Y5610000D02*
D03*
X9960000Y5930000D02*
D03*
X10060000Y6030000D02*
D03*
X9850000Y6050000D02*
D03*
X9750000Y6150000D02*
D03*
X9860000Y6240000D02*
D03*
X9969437Y6138371D02*
D03*
X9960000Y6330000D02*
D03*
X10070000Y6240000D02*
D03*
X10750000Y3730000D02*
D03*
X10780000Y3850000D02*
D03*
X10661192Y5707668D02*
D03*
X10180000Y6130000D02*
D03*
X10640000Y6470000D02*
D03*
X10770000Y5810000D02*
D03*
X10986645Y6250000D02*
D03*
X10350000Y7280000D02*
D03*
X12070268Y7124077D02*
D03*
X11010000Y4510000D02*
D03*
X10270000Y5030000D02*
D03*
X11833012Y6923569D02*
D03*
X11784562Y6873046D02*
D03*
X10169497Y6680503D02*
D03*
X10120000Y6730000D02*
D03*
X11192393Y7614326D02*
D03*
X11220000Y7550000D02*
D03*
X9885512Y6757357D02*
D03*
X9830000Y6800000D02*
D03*
X7603224Y6806864D02*
D03*
X7660343Y6847327D02*
D03*
X9230000Y6270000D02*
D03*
X9218492Y6339047D02*
D03*
X9480000Y4760000D02*
D03*
X10540000Y6560000D02*
D03*
X10810000Y6400000D02*
D03*
X9810000Y4660000D02*
D03*
X10300000Y5390000D02*
D03*
X10300622Y5865961D02*
D03*
X10278570Y5736596D02*
D03*
X9097778Y5040914D02*
D03*
X9310000Y5720000D02*
D03*
X9610000Y5510000D02*
D03*
X9766822Y5639091D02*
D03*
X9710000Y5740000D02*
D03*
X9486342Y5071069D02*
D03*
X9467306Y4935197D02*
D03*
X9636360Y5130000D02*
D03*
X10850000Y3920000D02*
D03*
X9640000Y3320000D02*
D03*
X10910000Y4610000D02*
D03*
X10190000Y5090000D02*
D03*
X9010000Y4470000D02*
D03*
X8730000Y4760000D02*
D03*
%TF.MD5,0d978c7b07e85ccf885dd413e971f605*%
M02*
