%TF.GenerationSoftware,Altium Limited,Altium Designer,23.1.1 (15)*%
G04 Layer_Color=8388736*
%FSLAX45Y45*%
%MOMM*%
%TF.SameCoordinates,3B15BE60-5205-462F-B1BE-89E8C5D5736D*%
%TF.FilePolarity,Negative*%
%TF.FileFunction,Soldermask,Top*%
%TF.Part,Single*%
G01*
G75*
%TA.AperFunction,TestPad*%
%ADD99R,1.70320X0.80320*%
%ADD100R,2.00320X1.40320*%
%TA.AperFunction,SMDPad,CuDef*%
G04:AMPARAMS|DCode=101|XSize=1.8032mm|YSize=2.9032mm|CornerRadius=0.3016mm|HoleSize=0mm|Usage=FLASHONLY|Rotation=270.000|XOffset=0mm|YOffset=0mm|HoleType=Round|Shape=RoundedRectangle|*
%AMROUNDEDRECTD101*
21,1,1.80320,2.30000,0,0,270.0*
21,1,1.20000,2.90320,0,0,270.0*
1,1,0.60320,-1.15000,-0.60000*
1,1,0.60320,-1.15000,0.60000*
1,1,0.60320,1.15000,0.60000*
1,1,0.60320,1.15000,-0.60000*
%
%ADD101ROUNDEDRECTD101*%
G04:AMPARAMS|DCode=102|XSize=1.2032mm|YSize=1.9032mm|CornerRadius=0.2266mm|HoleSize=0mm|Usage=FLASHONLY|Rotation=270.000|XOffset=0mm|YOffset=0mm|HoleType=Round|Shape=RoundedRectangle|*
%AMROUNDEDRECTD102*
21,1,1.20320,1.45000,0,0,270.0*
21,1,0.75000,1.90320,0,0,270.0*
1,1,0.45320,-0.72500,-0.37500*
1,1,0.45320,-0.72500,0.37500*
1,1,0.45320,0.72500,0.37500*
1,1,0.45320,0.72500,-0.37500*
%
%ADD102ROUNDEDRECTD102*%
G04:AMPARAMS|DCode=103|XSize=1.6032mm|YSize=1.9032mm|CornerRadius=0.2766mm|HoleSize=0mm|Usage=FLASHONLY|Rotation=180.000|XOffset=0mm|YOffset=0mm|HoleType=Round|Shape=RoundedRectangle|*
%AMROUNDEDRECTD103*
21,1,1.60320,1.35000,0,0,180.0*
21,1,1.05000,1.90320,0,0,180.0*
1,1,0.55320,-0.52500,0.67500*
1,1,0.55320,0.52500,0.67500*
1,1,0.55320,0.52500,-0.67500*
1,1,0.55320,-0.52500,-0.67500*
%
%ADD103ROUNDEDRECTD103*%
G04:AMPARAMS|DCode=104|XSize=1.0032mm|YSize=1.2032mm|CornerRadius=0.2016mm|HoleSize=0mm|Usage=FLASHONLY|Rotation=90.000|XOffset=0mm|YOffset=0mm|HoleType=Round|Shape=RoundedRectangle|*
%AMROUNDEDRECTD104*
21,1,1.00320,0.80000,0,0,90.0*
21,1,0.60000,1.20320,0,0,90.0*
1,1,0.40320,0.40000,0.30000*
1,1,0.40320,0.40000,-0.30000*
1,1,0.40320,-0.40000,-0.30000*
1,1,0.40320,-0.40000,0.30000*
%
%ADD104ROUNDEDRECTD104*%
G04:AMPARAMS|DCode=105|XSize=1.0032mm|YSize=1.2032mm|CornerRadius=0.2016mm|HoleSize=0mm|Usage=FLASHONLY|Rotation=0.000|XOffset=0mm|YOffset=0mm|HoleType=Round|Shape=RoundedRectangle|*
%AMROUNDEDRECTD105*
21,1,1.00320,0.80000,0,0,0.0*
21,1,0.60000,1.20320,0,0,0.0*
1,1,0.40320,0.30000,-0.40000*
1,1,0.40320,-0.30000,-0.40000*
1,1,0.40320,-0.30000,0.40000*
1,1,0.40320,0.30000,0.40000*
%
%ADD105ROUNDEDRECTD105*%
%ADD106R,0.95320X0.42820*%
%ADD107R,0.80320X0.45320*%
%ADD108R,0.60320X0.55320*%
%ADD109R,0.55320X1.50320*%
G04:AMPARAMS|DCode=110|XSize=1.6032mm|YSize=1.9032mm|CornerRadius=0.2766mm|HoleSize=0mm|Usage=FLASHONLY|Rotation=270.000|XOffset=0mm|YOffset=0mm|HoleType=Round|Shape=RoundedRectangle|*
%AMROUNDEDRECTD110*
21,1,1.60320,1.35000,0,0,270.0*
21,1,1.05000,1.90320,0,0,270.0*
1,1,0.55320,-0.67500,-0.52500*
1,1,0.55320,-0.67500,0.52500*
1,1,0.55320,0.67500,0.52500*
1,1,0.55320,0.67500,-0.52500*
%
%ADD110ROUNDEDRECTD110*%
%ADD111R,4.09320X1.65320*%
%ADD112R,1.65320X4.09320*%
G04:AMPARAMS|DCode=113|XSize=2.0032mm|YSize=2.0432mm|CornerRadius=0.3266mm|HoleSize=0mm|Usage=FLASHONLY|Rotation=90.000|XOffset=0mm|YOffset=0mm|HoleType=Round|Shape=RoundedRectangle|*
%AMROUNDEDRECTD113*
21,1,2.00320,1.39000,0,0,90.0*
21,1,1.35000,2.04320,0,0,90.0*
1,1,0.65320,0.69500,0.67500*
1,1,0.65320,0.69500,-0.67500*
1,1,0.65320,-0.69500,-0.67500*
1,1,0.65320,-0.69500,0.67500*
%
%ADD113ROUNDEDRECTD113*%
%TA.AperFunction,ConnectorPad*%
G04:AMPARAMS|DCode=114|XSize=0.8032mm|YSize=0.9032mm|CornerRadius=0.1766mm|HoleSize=0mm|Usage=FLASHONLY|Rotation=270.000|XOffset=0mm|YOffset=0mm|HoleType=Round|Shape=RoundedRectangle|*
%AMROUNDEDRECTD114*
21,1,0.80320,0.55000,0,0,270.0*
21,1,0.45000,0.90320,0,0,270.0*
1,1,0.35320,-0.27500,-0.22500*
1,1,0.35320,-0.27500,0.22500*
1,1,0.35320,0.27500,0.22500*
1,1,0.35320,0.27500,-0.22500*
%
%ADD114ROUNDEDRECTD114*%
%TA.AperFunction,SMDPad,CuDef*%
G04:AMPARAMS|DCode=115|XSize=0.8032mm|YSize=0.9032mm|CornerRadius=0.1766mm|HoleSize=0mm|Usage=FLASHONLY|Rotation=0.000|XOffset=0mm|YOffset=0mm|HoleType=Round|Shape=RoundedRectangle|*
%AMROUNDEDRECTD115*
21,1,0.80320,0.55000,0,0,0.0*
21,1,0.45000,0.90320,0,0,0.0*
1,1,0.35320,0.22500,-0.27500*
1,1,0.35320,-0.22500,-0.27500*
1,1,0.35320,-0.22500,0.27500*
1,1,0.35320,0.22500,0.27500*
%
%ADD115ROUNDEDRECTD115*%
G04:AMPARAMS|DCode=116|XSize=0.8032mm|YSize=0.9032mm|CornerRadius=0.1766mm|HoleSize=0mm|Usage=FLASHONLY|Rotation=90.000|XOffset=0mm|YOffset=0mm|HoleType=Round|Shape=RoundedRectangle|*
%AMROUNDEDRECTD116*
21,1,0.80320,0.55000,0,0,90.0*
21,1,0.45000,0.90320,0,0,90.0*
1,1,0.35320,0.27500,0.22500*
1,1,0.35320,0.27500,-0.22500*
1,1,0.35320,-0.27500,-0.22500*
1,1,0.35320,-0.27500,0.22500*
%
%ADD116ROUNDEDRECTD116*%
%ADD117R,1.70320X0.80320*%
%ADD118R,2.00320X1.40320*%
G04:AMPARAMS|DCode=119|XSize=0.8032mm|YSize=1.6532mm|CornerRadius=0.1766mm|HoleSize=0mm|Usage=FLASHONLY|Rotation=90.000|XOffset=0mm|YOffset=0mm|HoleType=Round|Shape=RoundedRectangle|*
%AMROUNDEDRECTD119*
21,1,0.80320,1.30000,0,0,90.0*
21,1,0.45000,1.65320,0,0,90.0*
1,1,0.35320,0.65000,0.22500*
1,1,0.35320,0.65000,-0.22500*
1,1,0.35320,-0.65000,-0.22500*
1,1,0.35320,-0.65000,0.22500*
%
%ADD119ROUNDEDRECTD119*%
G04:AMPARAMS|DCode=120|XSize=1.6782mm|YSize=0.5032mm|CornerRadius=0mm|HoleSize=0mm|Usage=FLASHONLY|Rotation=315.000|XOffset=0mm|YOffset=0mm|HoleType=Round|Shape=Rectangle|*
%AMROTATEDRECTD120*
4,1,4,-0.77124,0.41543,-0.41543,0.77124,0.77124,-0.41543,0.41543,-0.77124,-0.77124,0.41543,0.0*
%
%ADD120ROTATEDRECTD120*%

G04:AMPARAMS|DCode=121|XSize=1.6782mm|YSize=0.5032mm|CornerRadius=0mm|HoleSize=0mm|Usage=FLASHONLY|Rotation=225.000|XOffset=0mm|YOffset=0mm|HoleType=Round|Shape=Rectangle|*
%AMROTATEDRECTD121*
4,1,4,0.41543,0.77124,0.77124,0.41543,-0.41543,-0.77124,-0.77124,-0.41543,0.41543,0.77124,0.0*
%
%ADD121ROTATEDRECTD121*%

%TA.AperFunction,TestPad*%
G04:AMPARAMS|DCode=122|XSize=0.49mm|YSize=0.54mm|CornerRadius=0.07625mm|HoleSize=0mm|Usage=FLASHONLY|Rotation=0.000|XOffset=0mm|YOffset=0mm|HoleType=Round|Shape=RoundedRectangle|*
%AMROUNDEDRECTD122*
21,1,0.49000,0.38750,0,0,0.0*
21,1,0.33750,0.54000,0,0,0.0*
1,1,0.15250,0.16875,-0.19375*
1,1,0.15250,-0.16875,-0.19375*
1,1,0.15250,-0.16875,0.19375*
1,1,0.15250,0.16875,0.19375*
%
%ADD122ROUNDEDRECTD122*%
%TA.AperFunction,SMDPad,CuDef*%
%ADD123R,1.64000X0.74000*%
%TA.AperFunction,BGAPad,CuDef*%
%ADD124C,1.06620*%
%TA.AperFunction,SMDPad,CuDef*%
G04:AMPARAMS|DCode=125|XSize=0.8032mm|YSize=1.4032mm|CornerRadius=0.1766mm|HoleSize=0mm|Usage=FLASHONLY|Rotation=270.000|XOffset=0mm|YOffset=0mm|HoleType=Round|Shape=RoundedRectangle|*
%AMROUNDEDRECTD125*
21,1,0.80320,1.05000,0,0,270.0*
21,1,0.45000,1.40320,0,0,270.0*
1,1,0.35320,-0.52500,-0.22500*
1,1,0.35320,-0.52500,0.22500*
1,1,0.35320,0.52500,0.22500*
1,1,0.35320,0.52500,-0.22500*
%
%ADD125ROUNDEDRECTD125*%
G04:AMPARAMS|DCode=126|XSize=0.8032mm|YSize=0.9032mm|CornerRadius=0.1766mm|HoleSize=0mm|Usage=FLASHONLY|Rotation=315.000|XOffset=0mm|YOffset=0mm|HoleType=Round|Shape=RoundedRectangle|*
%AMROUNDEDRECTD126*
21,1,0.80320,0.55000,0,0,315.0*
21,1,0.45000,0.90320,0,0,315.0*
1,1,0.35320,-0.03536,-0.35355*
1,1,0.35320,-0.35355,-0.03536*
1,1,0.35320,0.03536,0.35355*
1,1,0.35320,0.35355,0.03536*
%
%ADD126ROUNDEDRECTD126*%
G04:AMPARAMS|DCode=127|XSize=0.8032mm|YSize=0.9032mm|CornerRadius=0.1766mm|HoleSize=0mm|Usage=FLASHONLY|Rotation=225.000|XOffset=0mm|YOffset=0mm|HoleType=Round|Shape=RoundedRectangle|*
%AMROUNDEDRECTD127*
21,1,0.80320,0.55000,0,0,225.0*
21,1,0.45000,0.90320,0,0,225.0*
1,1,0.35320,-0.35355,0.03536*
1,1,0.35320,-0.03536,0.35355*
1,1,0.35320,0.35355,-0.03536*
1,1,0.35320,0.03536,-0.35355*
%
%ADD127ROUNDEDRECTD127*%
G04:AMPARAMS|DCode=128|XSize=1.0032mm|YSize=1.2032mm|CornerRadius=0.2016mm|HoleSize=0mm|Usage=FLASHONLY|Rotation=225.000|XOffset=0mm|YOffset=0mm|HoleType=Round|Shape=RoundedRectangle|*
%AMROUNDEDRECTD128*
21,1,1.00320,0.80000,0,0,225.0*
21,1,0.60000,1.20320,0,0,225.0*
1,1,0.40320,-0.49498,0.07071*
1,1,0.40320,-0.07071,0.49498*
1,1,0.40320,0.49498,-0.07071*
1,1,0.40320,0.07071,-0.49498*
%
%ADD128ROUNDEDRECTD128*%
%TA.AperFunction,TestPad*%
G04:AMPARAMS|DCode=129|XSize=0.8032mm|YSize=1.2032mm|CornerRadius=0.1766mm|HoleSize=0mm|Usage=FLASHONLY|Rotation=90.000|XOffset=0mm|YOffset=0mm|HoleType=Round|Shape=RoundedRectangle|*
%AMROUNDEDRECTD129*
21,1,0.80320,0.85000,0,0,90.0*
21,1,0.45000,1.20320,0,0,90.0*
1,1,0.35320,0.42500,0.22500*
1,1,0.35320,0.42500,-0.22500*
1,1,0.35320,-0.42500,-0.22500*
1,1,0.35320,-0.42500,0.22500*
%
%ADD129ROUNDEDRECTD129*%
%TA.AperFunction,SMDPad,CuDef*%
G04:AMPARAMS|DCode=130|XSize=0.7532mm|YSize=1.2532mm|CornerRadius=0.17035mm|HoleSize=0mm|Usage=FLASHONLY|Rotation=270.000|XOffset=0mm|YOffset=0mm|HoleType=Round|Shape=RoundedRectangle|*
%AMROUNDEDRECTD130*
21,1,0.75320,0.91250,0,0,270.0*
21,1,0.41250,1.25320,0,0,270.0*
1,1,0.34070,-0.45625,-0.20625*
1,1,0.34070,-0.45625,0.20625*
1,1,0.34070,0.45625,0.20625*
1,1,0.34070,0.45625,-0.20625*
%
%ADD130ROUNDEDRECTD130*%
%ADD131R,0.75320X0.62320*%
G04:AMPARAMS|DCode=132|XSize=1.0032mm|YSize=1.2032mm|CornerRadius=0.2016mm|HoleSize=0mm|Usage=FLASHONLY|Rotation=135.000|XOffset=0mm|YOffset=0mm|HoleType=Round|Shape=RoundedRectangle|*
%AMROUNDEDRECTD132*
21,1,1.00320,0.80000,0,0,135.0*
21,1,0.60000,1.20320,0,0,135.0*
1,1,0.40320,0.07071,0.49498*
1,1,0.40320,0.49498,0.07071*
1,1,0.40320,-0.07071,-0.49498*
1,1,0.40320,-0.49498,-0.07071*
%
%ADD132ROUNDEDRECTD132*%
G04:AMPARAMS|DCode=133|XSize=1.0532mm|YSize=0.4532mm|CornerRadius=0mm|HoleSize=0mm|Usage=FLASHONLY|Rotation=225.000|XOffset=0mm|YOffset=0mm|HoleType=Round|Shape=Rectangle|*
%AMROTATEDRECTD133*
4,1,4,0.21213,0.53259,0.53259,0.21213,-0.21213,-0.53259,-0.53259,-0.21213,0.21213,0.53259,0.0*
%
%ADD133ROTATEDRECTD133*%

%ADD134P,6.29778X4X360.0*%
G04:AMPARAMS|DCode=135|XSize=1.8032mm|YSize=2.9032mm|CornerRadius=0.3016mm|HoleSize=0mm|Usage=FLASHONLY|Rotation=180.000|XOffset=0mm|YOffset=0mm|HoleType=Round|Shape=RoundedRectangle|*
%AMROUNDEDRECTD135*
21,1,1.80320,2.30000,0,0,180.0*
21,1,1.20000,2.90320,0,0,180.0*
1,1,0.60320,-0.60000,1.15000*
1,1,0.60320,0.60000,1.15000*
1,1,0.60320,0.60000,-1.15000*
1,1,0.60320,-0.60000,-1.15000*
%
%ADD135ROUNDEDRECTD135*%
%ADD136R,1.50320X0.55320*%
%ADD137R,0.80320X1.70320*%
%TA.AperFunction,TestPad*%
%ADD138R,1.40320X2.00320*%
%ADD139R,0.80320X1.70320*%
%TA.AperFunction,SMDPad,CuDef*%
G04:AMPARAMS|DCode=140|XSize=1.0532mm|YSize=0.4532mm|CornerRadius=0mm|HoleSize=0mm|Usage=FLASHONLY|Rotation=315.000|XOffset=0mm|YOffset=0mm|HoleType=Round|Shape=Rectangle|*
%AMROTATEDRECTD140*
4,1,4,-0.53259,0.21213,-0.21213,0.53259,0.53259,-0.21213,0.21213,-0.53259,-0.53259,0.21213,0.0*
%
%ADD140ROTATEDRECTD140*%

G04:AMPARAMS|DCode=141|XSize=1.6032mm|YSize=1.9032mm|CornerRadius=0.2766mm|HoleSize=0mm|Usage=FLASHONLY|Rotation=135.000|XOffset=0mm|YOffset=0mm|HoleType=Round|Shape=RoundedRectangle|*
%AMROUNDEDRECTD141*
21,1,1.60320,1.35000,0,0,135.0*
21,1,1.05000,1.90320,0,0,135.0*
1,1,0.55320,0.10607,0.84853*
1,1,0.55320,0.84853,0.10607*
1,1,0.55320,-0.10607,-0.84853*
1,1,0.55320,-0.84853,-0.10607*
%
%ADD141ROUNDEDRECTD141*%
%ADD142R,0.62320X0.75320*%
%TA.AperFunction,ConnectorPad*%
G04:AMPARAMS|DCode=143|XSize=1.8032mm|YSize=2.9032mm|CornerRadius=0.3016mm|HoleSize=0mm|Usage=FLASHONLY|Rotation=0.000|XOffset=0mm|YOffset=0mm|HoleType=Round|Shape=RoundedRectangle|*
%AMROUNDEDRECTD143*
21,1,1.80320,2.30000,0,0,0.0*
21,1,1.20000,2.90320,0,0,0.0*
1,1,0.60320,0.60000,-1.15000*
1,1,0.60320,-0.60000,-1.15000*
1,1,0.60320,-0.60000,1.15000*
1,1,0.60320,0.60000,1.15000*
%
%ADD143ROUNDEDRECTD143*%
%TA.AperFunction,SMDPad,CuDef*%
G04:AMPARAMS|DCode=144|XSize=0.7532mm|YSize=1.0032mm|CornerRadius=0.1511mm|HoleSize=0mm|Usage=FLASHONLY|Rotation=0.000|XOffset=0mm|YOffset=0mm|HoleType=Round|Shape=RoundedRectangle|*
%AMROUNDEDRECTD144*
21,1,0.75320,0.70100,0,0,0.0*
21,1,0.45100,1.00320,0,0,0.0*
1,1,0.30220,0.22550,-0.35050*
1,1,0.30220,-0.22550,-0.35050*
1,1,0.30220,-0.22550,0.35050*
1,1,0.30220,0.22550,0.35050*
%
%ADD144ROUNDEDRECTD144*%
%ADD145R,0.50320X0.90320*%
%ADD146R,1.90320X1.20320*%
G04:AMPARAMS|DCode=147|XSize=0.8332mm|YSize=1.0332mm|CornerRadius=0.18035mm|HoleSize=0mm|Usage=FLASHONLY|Rotation=90.000|XOffset=0mm|YOffset=0mm|HoleType=Round|Shape=RoundedRectangle|*
%AMROUNDEDRECTD147*
21,1,0.83320,0.67250,0,0,90.0*
21,1,0.47250,1.03320,0,0,90.0*
1,1,0.36070,0.33625,0.23625*
1,1,0.36070,0.33625,-0.23625*
1,1,0.36070,-0.33625,-0.23625*
1,1,0.36070,-0.33625,0.23625*
%
%ADD147ROUNDEDRECTD147*%
%ADD148R,5.20320X6.70320*%
%ADD149R,0.45820X0.51320*%
%ADD150R,4.11320X4.01320*%
%ADD151R,0.81320X0.91320*%
%ADD152R,0.81320X1.47320*%
G04:AMPARAMS|DCode=153|XSize=1.2032mm|YSize=2.0032mm|CornerRadius=0.2266mm|HoleSize=0mm|Usage=FLASHONLY|Rotation=0.000|XOffset=0mm|YOffset=0mm|HoleType=Round|Shape=RoundedRectangle|*
%AMROUNDEDRECTD153*
21,1,1.20320,1.55000,0,0,0.0*
21,1,0.75000,2.00320,0,0,0.0*
1,1,0.45320,0.37500,-0.77500*
1,1,0.45320,-0.37500,-0.77500*
1,1,0.45320,-0.37500,0.77500*
1,1,0.45320,0.37500,0.77500*
%
%ADD153ROUNDEDRECTD153*%
G04:AMPARAMS|DCode=154|XSize=1.2032mm|YSize=1.9032mm|CornerRadius=0.2266mm|HoleSize=0mm|Usage=FLASHONLY|Rotation=0.000|XOffset=0mm|YOffset=0mm|HoleType=Round|Shape=RoundedRectangle|*
%AMROUNDEDRECTD154*
21,1,1.20320,1.45000,0,0,0.0*
21,1,0.75000,1.90320,0,0,0.0*
1,1,0.45320,0.37500,-0.72500*
1,1,0.45320,-0.37500,-0.72500*
1,1,0.45320,-0.37500,0.72500*
1,1,0.45320,0.37500,0.72500*
%
%ADD154ROUNDEDRECTD154*%
%ADD155R,0.55320X0.60320*%
%ADD156R,0.42820X0.95320*%
%ADD157R,0.45320X0.80320*%
%ADD158R,1.40320X2.00320*%
%TA.AperFunction,TestPad*%
G04:AMPARAMS|DCode=159|XSize=0.29mm|YSize=0.54mm|CornerRadius=0.05125mm|HoleSize=0mm|Usage=FLASHONLY|Rotation=180.000|XOffset=0mm|YOffset=0mm|HoleType=Round|Shape=RoundedRectangle|*
%AMROUNDEDRECTD159*
21,1,0.29000,0.43750,0,0,180.0*
21,1,0.18750,0.54000,0,0,180.0*
1,1,0.10250,-0.09375,0.21875*
1,1,0.10250,0.09375,0.21875*
1,1,0.10250,0.09375,-0.21875*
1,1,0.10250,-0.09375,-0.21875*
%
%ADD159ROUNDEDRECTD159*%
%TA.AperFunction,SMDPad,CuDef*%
%ADD160R,1.78000X0.88000*%
%ADD161R,1.78000X0.58000*%
%TA.AperFunction,ComponentPad*%
%ADD162C,5.40320*%
%ADD163C,1.72720*%
%ADD164C,1.27020*%
%ADD165C,0.20320*%
%ADD166O,3.20320X2.10320*%
%ADD167C,1.20000*%
%ADD168O,2.30000X1.10000*%
%ADD169O,2.00000X1.10000*%
G36*
X13725000Y10635000D02*
X13800000D01*
Y10485000D01*
X13725000D01*
Y10410000D01*
X13575000D01*
Y10485000D01*
X13500000D01*
Y10635000D01*
X13575000D01*
Y10710000D01*
X13725000D01*
Y10635000D01*
D02*
G37*
G36*
X6695000Y10565000D02*
X6770000D01*
Y10415000D01*
X6695000D01*
Y10340000D01*
X6545000D01*
Y10415000D01*
X6470000D01*
Y10565000D01*
X6545000D01*
Y10640000D01*
X6695000D01*
Y10565000D01*
D02*
G37*
G36*
X6645000Y7965000D02*
X6720000D01*
Y7815000D01*
X6645000D01*
Y7740000D01*
X6495000D01*
Y7815000D01*
X6420000D01*
Y7965000D01*
X6495000D01*
Y8040000D01*
X6645000D01*
Y7965000D01*
D02*
G37*
G36*
X11275000Y5795000D02*
X11350000D01*
Y5645000D01*
X11275000D01*
Y5570000D01*
X11125000D01*
Y5645000D01*
X11050000D01*
Y5795000D01*
X11125000D01*
Y5870000D01*
X11275000D01*
Y5795000D01*
D02*
G37*
D99*
X6945000Y5400000D02*
D03*
Y5300001D02*
D03*
Y5200000D02*
D03*
Y5100000D02*
D03*
Y5000000D02*
D03*
Y4900000D02*
D03*
D100*
X6555000Y5530000D02*
D03*
X6555000Y4770000D02*
D03*
D101*
X7675000Y10885000D02*
D03*
Y11165001D02*
D03*
X10030000Y10150000D02*
D03*
X10030000Y9870000D02*
D03*
X9720000Y10150000D02*
D03*
X9720000Y9870000D02*
D03*
X7999999Y10815000D02*
D03*
X8300000D02*
D03*
X7675000Y9910000D02*
D03*
X7975000D02*
D03*
X11014999Y10905000D02*
D03*
X11340000Y10905000D02*
D03*
X11820000Y10490000D02*
D03*
X12450000D02*
D03*
X12750000D02*
D03*
X12500000Y10785000D02*
D03*
X12800000D02*
D03*
X12750000Y10209999D02*
D03*
X11014999Y10625000D02*
D03*
X11339999Y10625000D02*
D03*
X12450000Y10210000D02*
D03*
X12800000Y11065000D02*
D03*
X12500000D02*
D03*
X11820000Y10209999D02*
D03*
X8300000Y10535000D02*
D03*
X7675000Y10190000D02*
D03*
X7975000D02*
D03*
X7999999Y10535000D02*
D03*
D102*
X13710001Y7425000D02*
D03*
Y7615000D02*
D03*
X13010001Y7925000D02*
D03*
Y8115000D02*
D03*
X11325000Y8520000D02*
D03*
Y8330000D02*
D03*
X8875000Y7955000D02*
D03*
Y8145000D02*
D03*
X9175000Y7955000D02*
D03*
Y8145000D02*
D03*
X10100000Y8545000D02*
D03*
Y8355000D02*
D03*
X7225000Y8520000D02*
D03*
Y8330000D02*
D03*
X11590000Y10925000D02*
D03*
X11590000Y10735000D02*
D03*
X7725000Y10720000D02*
D03*
Y10530000D02*
D03*
D103*
X13714301Y7230000D02*
D03*
X13485699D02*
D03*
X13724300Y7820000D02*
D03*
X13495700D02*
D03*
X8919300Y10162500D02*
D03*
X8690700D02*
D03*
X13485699Y7000000D02*
D03*
X13465700Y6400000D02*
D03*
X13714301Y7000000D02*
D03*
X13694299Y6400000D02*
D03*
D104*
X10850000Y10435000D02*
D03*
X10850000Y10285000D02*
D03*
X10200000Y10445000D02*
D03*
Y10295000D02*
D03*
X8900000Y10675000D02*
D03*
Y10825000D02*
D03*
X8750000D02*
D03*
Y10675000D02*
D03*
X9150000D02*
D03*
Y10825000D02*
D03*
X9025000Y10675000D02*
D03*
Y10825000D02*
D03*
X7175000Y4500000D02*
D03*
X10330000Y10290000D02*
D03*
X10590000Y10285000D02*
D03*
X11875000Y4625000D02*
D03*
X13360001Y6725000D02*
D03*
X12975002Y7725000D02*
D03*
X13125002D02*
D03*
X13360001Y6575000D02*
D03*
X12975002Y7575000D02*
D03*
X8500000Y6675000D02*
D03*
Y6825000D02*
D03*
X8031800Y6702401D02*
D03*
Y6852401D02*
D03*
X13275002Y7575000D02*
D03*
Y7725000D02*
D03*
X13125002Y7575000D02*
D03*
X9250000Y7100000D02*
D03*
Y7250000D02*
D03*
X12575001Y6850000D02*
D03*
Y6700000D02*
D03*
X12100000Y6700000D02*
D03*
Y6850000D02*
D03*
X10460000Y10290000D02*
D03*
Y10440000D02*
D03*
X10590000Y10435000D02*
D03*
X10330000Y10440000D02*
D03*
X12180000Y10790000D02*
D03*
Y10640000D02*
D03*
X10720000Y10285000D02*
D03*
Y10435000D02*
D03*
X7175000Y4350000D02*
D03*
X11875000Y4475000D02*
D03*
D105*
X10965000Y10460000D02*
D03*
X11115000D02*
D03*
X9110000Y10285000D02*
D03*
X9260000D02*
D03*
X9150000Y10410000D02*
D03*
X9300000D02*
D03*
X9150000Y10540000D02*
D03*
X9300000D02*
D03*
X6650000Y7275000D02*
D03*
X6500000D02*
D03*
X6650000Y7125000D02*
D03*
X6500000D02*
D03*
X6647800Y6985000D02*
D03*
X6497800D02*
D03*
X7135000Y6240000D02*
D03*
X6985000D02*
D03*
X7085000Y6900000D02*
D03*
X6935000D02*
D03*
X8100000Y5150000D02*
D03*
X7275000Y5700000D02*
D03*
X8125000Y5825000D02*
D03*
X11800000Y3675000D02*
D03*
X11800000Y3825000D02*
D03*
X11925000D02*
D03*
X12575000Y5725000D02*
D03*
X10075000Y6900000D02*
D03*
X10225000D02*
D03*
X13314999Y10220000D02*
D03*
X13164999D02*
D03*
X7125000Y5700000D02*
D03*
X12075000Y3824999D02*
D03*
X11650000Y3825000D02*
D03*
Y3675000D02*
D03*
X12725000Y5725000D02*
D03*
X7975000Y5825000D02*
D03*
X7950000Y5150000D02*
D03*
D106*
X10452500Y10566200D02*
D03*
X10452500Y10713800D02*
D03*
X10287500Y10713800D02*
D03*
Y10566200D02*
D03*
D107*
X10460000Y10615000D02*
D03*
Y10665000D02*
D03*
X10280000D02*
D03*
Y10615000D02*
D03*
D108*
X10435000Y10537400D02*
D03*
Y10742600D02*
D03*
X10305000D02*
D03*
Y10537400D02*
D03*
D109*
X10370000Y10585000D02*
D03*
D110*
X10030000Y10545700D02*
D03*
Y10774300D02*
D03*
X8575000Y10764300D02*
D03*
X10660000Y11004300D02*
D03*
X13000000Y9985700D02*
D03*
X13000000Y8285700D02*
D03*
Y8514300D02*
D03*
X11325000Y7935700D02*
D03*
Y8164300D02*
D03*
X10100000Y7960700D02*
D03*
Y8189300D02*
D03*
X8875000Y8539300D02*
D03*
Y8310700D02*
D03*
X9175000Y8539300D02*
D03*
Y8310700D02*
D03*
X7225000Y7935700D02*
D03*
Y8164300D02*
D03*
X10660000Y10775700D02*
D03*
X13000000Y10214300D02*
D03*
X8575000Y10535700D02*
D03*
D111*
X9710000Y10372500D02*
D03*
Y10667500D02*
D03*
X13175000Y10775000D02*
D03*
Y11070000D02*
D03*
D112*
X8227500Y10152500D02*
D03*
X8522500D02*
D03*
D113*
X7525000Y7675000D02*
D03*
Y7375000D02*
D03*
X10725000Y7425000D02*
D03*
X11575000Y7400000D02*
D03*
Y7700001D02*
D03*
X10725000Y7725000D02*
D03*
D114*
X10220000Y3060000D02*
D03*
Y2960000D02*
D03*
X10065000Y2960000D02*
D03*
X9910000D02*
D03*
X9755000Y2970000D02*
D03*
X9910000Y3060000D02*
D03*
X10065000Y3060000D02*
D03*
X9755000Y3070000D02*
D03*
D115*
X6960000Y2980000D02*
D03*
X6860000D02*
D03*
X7400000Y4350000D02*
D03*
X7675000Y4375000D02*
D03*
X7230000Y5580000D02*
D03*
X7325000Y5500000D02*
D03*
Y4950000D02*
D03*
Y4625000D02*
D03*
X7675000Y4475000D02*
D03*
X8075000Y5275000D02*
D03*
X8100000Y5950000D02*
D03*
X11950000Y3675000D02*
D03*
X12175000Y3725000D02*
D03*
X12550000Y3725000D02*
D03*
X12600000Y5600000D02*
D03*
X7130000Y5580000D02*
D03*
X7975000Y5275000D02*
D03*
X7325000Y5300000D02*
D03*
X7425000D02*
D03*
X7325000Y5150000D02*
D03*
X7425000D02*
D03*
X7325000Y4825000D02*
D03*
X7425000D02*
D03*
X12250000Y5945000D02*
D03*
X12150000D02*
D03*
X12050001Y3675000D02*
D03*
X12450000Y3725000D02*
D03*
X12275000D02*
D03*
X7325000Y4725000D02*
D03*
X7425000D02*
D03*
X7325000Y5050000D02*
D03*
X7425000D02*
D03*
X7325000Y5400000D02*
D03*
X7425000Y5400000D02*
D03*
X7425000Y4625000D02*
D03*
Y4950000D02*
D03*
Y5500000D02*
D03*
X7300000Y4350000D02*
D03*
X7575000Y4375000D02*
D03*
X7575000Y4475000D02*
D03*
X12700000Y5600000D02*
D03*
X8000000Y5950000D02*
D03*
X7875000Y6300000D02*
D03*
X7775000D02*
D03*
X7850000Y5625000D02*
D03*
X7750000D02*
D03*
D116*
X7110000Y4880000D02*
D03*
Y4980000D02*
D03*
Y5110000D02*
D03*
Y5210000D02*
D03*
Y5490000D02*
D03*
Y5390000D02*
D03*
X13030000Y4750000D02*
D03*
Y4650000D02*
D03*
Y4330000D02*
D03*
Y4430000D02*
D03*
X13010001Y5130000D02*
D03*
Y5230000D02*
D03*
Y5490000D02*
D03*
Y5390000D02*
D03*
X12875000Y5175000D02*
D03*
Y5275000D02*
D03*
Y5475000D02*
D03*
Y5375000D02*
D03*
X7700000Y3650000D02*
D03*
X7275000Y5825000D02*
D03*
Y6450000D02*
D03*
X7750000Y5825000D02*
D03*
X7775000Y6500000D02*
D03*
X12730000Y4160000D02*
D03*
X12860001Y4170000D02*
D03*
X12000000Y4600000D02*
D03*
X12710000Y4950000D02*
D03*
X11950000Y5125000D02*
D03*
X12875000Y5575000D02*
D03*
X12050000Y6170000D02*
D03*
X10065000Y3260001D02*
D03*
Y3160000D02*
D03*
X12050000Y5970000D02*
D03*
Y6070000D02*
D03*
X9910000Y3260000D02*
D03*
X9910000Y3160000D02*
D03*
X7200000Y3650000D02*
D03*
Y3750000D02*
D03*
X7300000Y3650000D02*
D03*
Y3750000D02*
D03*
X7400000Y3650000D02*
D03*
Y3750000D02*
D03*
X7500000Y3650000D02*
D03*
Y3750000D02*
D03*
X12900000Y4525000D02*
D03*
Y4425000D02*
D03*
X12050000Y6270000D02*
D03*
X9755000Y3170000D02*
D03*
Y3270001D02*
D03*
X11950000Y6170000D02*
D03*
Y6270000D02*
D03*
X10220000Y3160000D02*
D03*
Y3260000D02*
D03*
X7600000Y3650000D02*
D03*
Y3750000D02*
D03*
X7700000Y3750000D02*
D03*
X12875000Y5075000D02*
D03*
X11950000Y5425000D02*
D03*
Y5325000D02*
D03*
Y5225000D02*
D03*
X7275000Y6550000D02*
D03*
X7775000Y6400000D02*
D03*
X7275000Y5925000D02*
D03*
X7750000Y5725000D02*
D03*
X12000000Y4500000D02*
D03*
X12900000Y4625000D02*
D03*
Y4725000D02*
D03*
X12860001Y4270000D02*
D03*
X12710000Y4850000D02*
D03*
X12730000Y4260000D02*
D03*
D117*
X13210001Y4445000D02*
D03*
X13210001Y4645000D02*
D03*
Y4545000D02*
D03*
X13201300Y5225000D02*
D03*
Y6050000D02*
D03*
Y5425000D02*
D03*
Y5850000D02*
D03*
X6940000Y5830000D02*
D03*
X6940000Y6455000D02*
D03*
X13210001Y3920000D02*
D03*
X13201300Y5325000D02*
D03*
Y5950000D02*
D03*
X6940000Y6030000D02*
D03*
X6940000Y5930000D02*
D03*
Y6655000D02*
D03*
Y6555000D02*
D03*
X13210001Y3820000D02*
D03*
Y4020000D02*
D03*
D118*
X13600000Y4315000D02*
D03*
X13600000Y4775000D02*
D03*
X6550000Y6160000D02*
D03*
Y5700000D02*
D03*
X6550000Y6785000D02*
D03*
X6550000Y6325000D02*
D03*
X13600000Y3690000D02*
D03*
X13600000Y4150000D02*
D03*
X13591299Y5555000D02*
D03*
Y5095000D02*
D03*
Y6180000D02*
D03*
Y5720000D02*
D03*
D119*
X12697500Y5186500D02*
D03*
X12152500Y5440500D02*
D03*
Y5059500D02*
D03*
X12697500Y5313500D02*
D03*
X12180000Y4627000D02*
D03*
X12697500Y5059500D02*
D03*
Y5440500D02*
D03*
X12152500Y5186500D02*
D03*
Y5313500D02*
D03*
X12725000Y4373000D02*
D03*
Y4500000D02*
D03*
Y4627000D02*
D03*
Y4754000D02*
D03*
X12180000Y4373000D02*
D03*
Y4500000D02*
D03*
Y4754000D02*
D03*
D120*
X9781669Y4873156D02*
D03*
X9286694Y4378181D02*
D03*
X9428115Y4519602D02*
D03*
X10557789Y4026325D02*
D03*
X9746313Y4837801D02*
D03*
X9710958Y4802445D02*
D03*
X9675602Y4767090D02*
D03*
X9640247Y4731735D02*
D03*
X9604892Y4696379D02*
D03*
X9569536Y4661024D02*
D03*
X9534181Y4625668D02*
D03*
X9498826Y4590313D02*
D03*
X9463470Y4554958D02*
D03*
X9392760Y4484247D02*
D03*
X9357404Y4448892D02*
D03*
X9322049Y4413537D02*
D03*
X9251338Y4342826D02*
D03*
X10062814Y3531350D02*
D03*
X10098169Y3566705D02*
D03*
X10133525Y3602061D02*
D03*
X10168880Y3637416D02*
D03*
X10204235Y3672771D02*
D03*
X10239591Y3708127D02*
D03*
X10274946Y3743482D02*
D03*
X10310301Y3778838D02*
D03*
X10345657Y3814193D02*
D03*
X10381012Y3849548D02*
D03*
X10416368Y3884903D02*
D03*
X10451723Y3920259D02*
D03*
X10487078Y3955614D02*
D03*
X10522433Y3990969D02*
D03*
X10593144Y4061680D02*
D03*
D121*
X10133525Y4802445D02*
D03*
X9746313Y3566705D02*
D03*
X10098169Y4837801D02*
D03*
X10593144Y4342826D02*
D03*
X10557789Y4378181D02*
D03*
X10522433Y4413537D02*
D03*
X10487078Y4448892D02*
D03*
X10451723Y4484247D02*
D03*
X10416368Y4519602D02*
D03*
X10381012Y4554958D02*
D03*
X10345657Y4590313D02*
D03*
X10310301Y4625668D02*
D03*
X10274946Y4661024D02*
D03*
X10239591Y4696379D02*
D03*
X10204235Y4731735D02*
D03*
X10168880Y4767090D02*
D03*
X10062814Y4873156D02*
D03*
X9251338Y4061680D02*
D03*
X9286694Y4026325D02*
D03*
X9322049Y3990969D02*
D03*
X9357404Y3955614D02*
D03*
X9392760Y3920259D02*
D03*
X9428115Y3884903D02*
D03*
X9463470Y3849548D02*
D03*
X9498826Y3814193D02*
D03*
X9534181Y3778838D02*
D03*
X9569536Y3743482D02*
D03*
X9604892Y3708127D02*
D03*
X9640247Y3672771D02*
D03*
X9675602Y3637416D02*
D03*
X9710958Y3602061D02*
D03*
X9781669Y3531350D02*
D03*
D122*
X7375000Y3445000D02*
D03*
Y3525000D02*
D03*
X12775000Y3700001D02*
D03*
X12775000Y3780000D02*
D03*
D123*
X6960000Y3730000D02*
D03*
Y4370000D02*
D03*
D124*
X7475000Y3123000D02*
D03*
X7475000Y3250000D02*
D03*
X7348000Y3250000D02*
D03*
X7221000Y3250000D02*
D03*
X7348000Y3123000D02*
D03*
X7221000Y3123000D02*
D03*
D125*
X7280000Y4080000D02*
D03*
X7520000Y4175000D02*
D03*
Y4080000D02*
D03*
Y3985000D02*
D03*
X7280000D02*
D03*
Y4175000D02*
D03*
D126*
X8828984Y4187132D02*
D03*
X8970406Y4045711D02*
D03*
X9634645Y3455355D02*
D03*
X9182538Y3833579D02*
D03*
X9560355Y5789645D02*
D03*
X10685355Y3789645D02*
D03*
X10210355Y4964645D02*
D03*
X10835355Y4364645D02*
D03*
X9489644Y5860356D02*
D03*
X10764645Y4435356D02*
D03*
X9645355Y5004645D02*
D03*
X9574645Y5075356D02*
D03*
X9705355Y3384645D02*
D03*
X8899695Y4116422D02*
D03*
X9111827Y3904289D02*
D03*
X9041117Y3975000D02*
D03*
X10139645Y5035355D02*
D03*
X9589645Y5635355D02*
D03*
X9660356Y5564645D02*
D03*
X10614645Y3860356D02*
D03*
D127*
X9135355Y4485355D02*
D03*
X9285355Y4635355D02*
D03*
X10714645Y3914645D02*
D03*
X10785356Y3985356D02*
D03*
X9064645Y4414645D02*
D03*
X9214645Y4564645D02*
D03*
X8758274Y3975000D02*
D03*
X8828984Y4045711D02*
D03*
X8970406Y3762868D02*
D03*
X9041117Y3833579D02*
D03*
X8899695D02*
D03*
X8970406Y3904289D02*
D03*
X10085355Y5635355D02*
D03*
X10014644Y5564645D02*
D03*
D128*
X9203033Y4728033D02*
D03*
X8903033Y4803033D02*
D03*
X10578033Y6403033D02*
D03*
X10371967Y6396967D02*
D03*
X10478033Y6503033D02*
D03*
X10471967Y6296967D02*
D03*
X9096967Y4621967D02*
D03*
X9003033Y4703033D02*
D03*
X8896967Y4596967D02*
D03*
X8796967Y4696967D02*
D03*
D129*
X7425000Y5825000D02*
D03*
X7450000Y6500000D02*
D03*
X12369100Y6160300D02*
D03*
X12169100Y6065300D02*
D03*
Y6255300D02*
D03*
X7650000Y6595000D02*
D03*
Y6405000D02*
D03*
X7625000Y5920000D02*
D03*
Y5730000D02*
D03*
D130*
X8265000Y5520000D02*
D03*
X8290000Y6180000D02*
D03*
Y6085000D02*
D03*
X8290000Y6275000D02*
D03*
X8025000D02*
D03*
Y6085000D02*
D03*
X8265000Y5425000D02*
D03*
X8265000Y5615000D02*
D03*
X8000000D02*
D03*
Y5425000D02*
D03*
D131*
X8055000Y7000000D02*
D03*
X12070000Y7050000D02*
D03*
X12970000Y7450000D02*
D03*
X13130000D02*
D03*
X7895000Y7000000D02*
D03*
X10230000Y7050000D02*
D03*
X10070000D02*
D03*
X12230000Y7050000D02*
D03*
X11805000Y3975000D02*
D03*
X11645000D02*
D03*
D132*
X9478033Y5671967D02*
D03*
X10953033Y4446967D02*
D03*
X10606066Y5768934D02*
D03*
X10703032Y5871967D02*
D03*
X10500000Y5875000D02*
D03*
X10596966Y5978033D02*
D03*
X9371967Y5778033D02*
D03*
X10678033Y6096966D02*
D03*
X10571967Y6203033D02*
D03*
X10846967Y4553033D02*
D03*
D133*
X9743163Y5947452D02*
D03*
X9919939Y5770675D02*
D03*
X9884584Y5806031D02*
D03*
X9849229Y5841386D02*
D03*
X9813873Y5876741D02*
D03*
X9778518Y5912097D02*
D03*
X9707807Y5982807D02*
D03*
X9672452Y6018163D02*
D03*
X9637097Y6053518D02*
D03*
X9601741Y6088874D02*
D03*
X10018934Y6506066D02*
D03*
X10054289Y6470711D02*
D03*
X10089645Y6435355D02*
D03*
X10125000Y6400000D02*
D03*
X10160355Y6364645D02*
D03*
X10195711Y6329290D02*
D03*
X10231066Y6293934D02*
D03*
X10266421Y6258579D02*
D03*
X10301776Y6223224D02*
D03*
X10337132Y6187868D02*
D03*
D134*
X9969437Y6138371D02*
D03*
D135*
X8625000Y7650000D02*
D03*
X9335000Y7675000D02*
D03*
X12765000Y7650000D02*
D03*
X8345000D02*
D03*
X12485000D02*
D03*
X9615000Y7675000D02*
D03*
D136*
X8880000Y10425000D02*
D03*
D137*
X11775000Y3500000D02*
D03*
X11575000D02*
D03*
X11675000D02*
D03*
D138*
X12170000Y3110000D02*
D03*
X13130000Y3110001D02*
D03*
D139*
X13000000Y3500000D02*
D03*
X12700000D02*
D03*
X12800000Y3500000D02*
D03*
X12900000Y3500000D02*
D03*
X12300000Y3500000D02*
D03*
X12400000Y3500000D02*
D03*
X12500000Y3500000D02*
D03*
X12600000D02*
D03*
D140*
X10301776Y6053518D02*
D03*
X10337132Y6088873D02*
D03*
X10266421Y6018163D02*
D03*
X10231066Y5982807D02*
D03*
X10195711Y5947452D02*
D03*
X10160355Y5912096D02*
D03*
X10125000Y5876741D02*
D03*
X10089645Y5841386D02*
D03*
X10054290Y5806031D02*
D03*
X10018934Y5770675D02*
D03*
X9601741Y6187868D02*
D03*
X9637096Y6223224D02*
D03*
X9672452Y6258579D02*
D03*
X9707807Y6293934D02*
D03*
X9743163Y6329290D02*
D03*
X9778518Y6364645D02*
D03*
X9813873Y6400000D02*
D03*
X9849229Y6435355D02*
D03*
X9884584Y6470711D02*
D03*
X9919939Y6506066D02*
D03*
D141*
X10880822Y6144177D02*
D03*
X10719177Y6305822D02*
D03*
D142*
X10350000Y7200000D02*
D03*
X8350000Y6670000D02*
D03*
Y6830000D02*
D03*
X7900000Y6855001D02*
D03*
Y6695000D02*
D03*
X9120000Y7260000D02*
D03*
Y7100000D02*
D03*
X10350000Y7040000D02*
D03*
X12700000Y6855000D02*
D03*
Y6695000D02*
D03*
X12225000Y6855000D02*
D03*
Y6695000D02*
D03*
X7550000Y4780000D02*
D03*
X7550000Y4620000D02*
D03*
Y5105000D02*
D03*
Y4945000D02*
D03*
X7540000Y5340000D02*
D03*
Y5500000D02*
D03*
D143*
X11300000Y11165000D02*
D03*
X11580000Y11165000D02*
D03*
D144*
X13614999Y6827500D02*
D03*
X13710001D02*
D03*
X13520000D02*
D03*
X13520000Y6572500D02*
D03*
X13710001D02*
D03*
D145*
X13007500Y10375000D02*
D03*
X13157500D02*
D03*
Y10585000D02*
D03*
X13007500D02*
D03*
X13057500D02*
D03*
X13107500D02*
D03*
Y10375000D02*
D03*
X13057500D02*
D03*
D146*
X13082500Y10480000D02*
D03*
D147*
X7275000Y6900000D02*
D03*
Y6677000D02*
D03*
Y6063500D02*
D03*
Y6286500D02*
D03*
D148*
X10075000Y9175000D02*
D03*
X8025000Y9150000D02*
D03*
X12125000Y9175000D02*
D03*
D149*
X8608301Y8000000D02*
D03*
X8191700D02*
D03*
X11580200Y8486000D02*
D03*
X11996800D02*
D03*
X12733300Y7995000D02*
D03*
X12316700D02*
D03*
X10316700Y8530000D02*
D03*
X10733300D02*
D03*
X7491672Y8479987D02*
D03*
X7908272D02*
D03*
X9858300Y8045000D02*
D03*
X9441700D02*
D03*
D150*
X8400000Y8175000D02*
D03*
X11788500Y8311000D02*
D03*
X12525000Y8170000D02*
D03*
X10525000Y8355000D02*
D03*
X7699972Y8304987D02*
D03*
X9650000Y8220001D02*
D03*
D151*
X8590501Y7949000D02*
D03*
X8463500D02*
D03*
X8336500D02*
D03*
X8209500D02*
D03*
X11598001Y8537000D02*
D03*
X11725000D02*
D03*
X11852000D02*
D03*
X11979000D02*
D03*
X12715501Y7944000D02*
D03*
X12588500D02*
D03*
X12461500D02*
D03*
X12334500D02*
D03*
X10334500Y8581000D02*
D03*
X10461500D02*
D03*
X10588500D02*
D03*
X10715501D02*
D03*
X7509472Y8530987D02*
D03*
X7636472D02*
D03*
X7763472D02*
D03*
X7890472D02*
D03*
X9840501Y7994001D02*
D03*
X9713500D02*
D03*
X9586500D02*
D03*
X9459500D02*
D03*
D152*
X8209500Y8511000D02*
D03*
X8336500D02*
D03*
X8463500D02*
D03*
X8590501D02*
D03*
X11979000Y7975000D02*
D03*
X11852000D02*
D03*
X11725000D02*
D03*
X11598001D02*
D03*
X12334500Y8506000D02*
D03*
X12461500D02*
D03*
X12588500D02*
D03*
X12715501D02*
D03*
X10715501Y8019000D02*
D03*
X10588500D02*
D03*
X10461500D02*
D03*
X10334500D02*
D03*
X7890472Y7968987D02*
D03*
X7763472D02*
D03*
X7636472D02*
D03*
X7509472D02*
D03*
X9459500Y8556000D02*
D03*
X9586500D02*
D03*
X9713500D02*
D03*
X9840501D02*
D03*
D153*
X8180000Y7680000D02*
D03*
X7870000D02*
D03*
X12305000Y7700000D02*
D03*
X11995000D02*
D03*
X9795000Y7650000D02*
D03*
X10105000D02*
D03*
D154*
X12035000Y10210000D02*
D03*
X12225000D02*
D03*
D155*
X8927599Y10360000D02*
D03*
X8722400D02*
D03*
Y10490000D02*
D03*
X8927599Y10490000D02*
D03*
D156*
X8898799Y10342500D02*
D03*
X8751200Y10342500D02*
D03*
Y10507500D02*
D03*
X8898800Y10507500D02*
D03*
D157*
X8850000Y10335000D02*
D03*
X8800000D02*
D03*
Y10515000D02*
D03*
X8850000D02*
D03*
D158*
X11445000Y3110000D02*
D03*
X11905000D02*
D03*
D159*
X12725000Y3780000D02*
D03*
X12675000D02*
D03*
X12875000Y3780000D02*
D03*
X12675000Y3700000D02*
D03*
X12875000D02*
D03*
X12725000Y3700001D02*
D03*
X12825000Y3700000D02*
D03*
Y3780000D02*
D03*
X7425000Y3445000D02*
D03*
X7475000D02*
D03*
X7275000D02*
D03*
X7475000Y3525000D02*
D03*
X7275000D02*
D03*
X7425000Y3525000D02*
D03*
X7325000D02*
D03*
Y3445000D02*
D03*
D160*
X6960000Y4290000D02*
D03*
Y3810000D02*
D03*
D161*
X6960000Y4225000D02*
D03*
Y4175000D02*
D03*
Y4125000D02*
D03*
Y3875000D02*
D03*
Y3925000D02*
D03*
Y3975000D02*
D03*
Y4025000D02*
D03*
Y4075000D02*
D03*
D162*
X7150000Y10860000D02*
D03*
Y10140000D02*
D03*
D163*
X10225000Y8950000D02*
D03*
X9925000D02*
D03*
X10225000Y9400000D02*
D03*
X9925000D02*
D03*
X10075000Y9175000D02*
D03*
X8175000Y8925000D02*
D03*
X7875000D02*
D03*
X8175000Y9375000D02*
D03*
X7875000D02*
D03*
X8025000Y9150000D02*
D03*
X12275000Y8950000D02*
D03*
X11975000D02*
D03*
X12275000Y9400000D02*
D03*
X11975000D02*
D03*
X12125000Y9175000D02*
D03*
D164*
X7602000Y3084900D02*
D03*
Y3288100D02*
D03*
X7094000Y3186500D02*
D03*
D165*
X6600000Y9200000D02*
D03*
Y3200000D02*
D03*
X13600000D02*
D03*
Y9775000D02*
D03*
D166*
X6550000Y9825000D02*
D03*
Y11175000D02*
D03*
D167*
X6835000Y3760000D02*
D03*
Y4340000D02*
D03*
D168*
X6885000Y4482500D02*
D03*
Y3617500D02*
D03*
D169*
X6465000D02*
D03*
Y4482500D02*
D03*
%TF.MD5,7f3531723ccc7bd81ae4214778300778*%
M02*
