%TF.GenerationSoftware,Altium Limited,Altium Designer,23.1.1 (15)*%
G04 Layer_Color=255*
%FSLAX45Y45*%
%MOMM*%
%TF.SameCoordinates,3B15BE60-5205-462F-B1BE-89E8C5D5736D*%
%TF.FilePolarity,Positive*%
%TF.FileFunction,Pads,Top*%
%TF.Part,Single*%
G01*
G75*
%TA.AperFunction,TestPad*%
%ADD10R,1.50000X0.60000*%
%ADD11R,1.80000X1.20000*%
%TA.AperFunction,SMDPad,CuDef*%
G04:AMPARAMS|DCode=12|XSize=1.6mm|YSize=2.7mm|CornerRadius=0.2mm|HoleSize=0mm|Usage=FLASHONLY|Rotation=270.000|XOffset=0mm|YOffset=0mm|HoleType=Round|Shape=RoundedRectangle|*
%AMROUNDEDRECTD12*
21,1,1.60000,2.30000,0,0,270.0*
21,1,1.20000,2.70000,0,0,270.0*
1,1,0.40000,-1.15000,-0.60000*
1,1,0.40000,-1.15000,0.60000*
1,1,0.40000,1.15000,0.60000*
1,1,0.40000,1.15000,-0.60000*
%
%ADD12ROUNDEDRECTD12*%
G04:AMPARAMS|DCode=13|XSize=1mm|YSize=1.7mm|CornerRadius=0.125mm|HoleSize=0mm|Usage=FLASHONLY|Rotation=270.000|XOffset=0mm|YOffset=0mm|HoleType=Round|Shape=RoundedRectangle|*
%AMROUNDEDRECTD13*
21,1,1.00000,1.45000,0,0,270.0*
21,1,0.75000,1.70000,0,0,270.0*
1,1,0.25000,-0.72500,-0.37500*
1,1,0.25000,-0.72500,0.37500*
1,1,0.25000,0.72500,0.37500*
1,1,0.25000,0.72500,-0.37500*
%
%ADD13ROUNDEDRECTD13*%
G04:AMPARAMS|DCode=14|XSize=1.4mm|YSize=1.7mm|CornerRadius=0.175mm|HoleSize=0mm|Usage=FLASHONLY|Rotation=180.000|XOffset=0mm|YOffset=0mm|HoleType=Round|Shape=RoundedRectangle|*
%AMROUNDEDRECTD14*
21,1,1.40000,1.35000,0,0,180.0*
21,1,1.05000,1.70000,0,0,180.0*
1,1,0.35000,-0.52500,0.67500*
1,1,0.35000,0.52500,0.67500*
1,1,0.35000,0.52500,-0.67500*
1,1,0.35000,-0.52500,-0.67500*
%
%ADD14ROUNDEDRECTD14*%
G04:AMPARAMS|DCode=15|XSize=0.8mm|YSize=1mm|CornerRadius=0.1mm|HoleSize=0mm|Usage=FLASHONLY|Rotation=90.000|XOffset=0mm|YOffset=0mm|HoleType=Round|Shape=RoundedRectangle|*
%AMROUNDEDRECTD15*
21,1,0.80000,0.80000,0,0,90.0*
21,1,0.60000,1.00000,0,0,90.0*
1,1,0.20000,0.40000,0.30000*
1,1,0.20000,0.40000,-0.30000*
1,1,0.20000,-0.40000,-0.30000*
1,1,0.20000,-0.40000,0.30000*
%
%ADD15ROUNDEDRECTD15*%
G04:AMPARAMS|DCode=16|XSize=0.8mm|YSize=1mm|CornerRadius=0.1mm|HoleSize=0mm|Usage=FLASHONLY|Rotation=0.000|XOffset=0mm|YOffset=0mm|HoleType=Round|Shape=RoundedRectangle|*
%AMROUNDEDRECTD16*
21,1,0.80000,0.80000,0,0,0.0*
21,1,0.60000,1.00000,0,0,0.0*
1,1,0.20000,0.30000,-0.40000*
1,1,0.20000,-0.30000,-0.40000*
1,1,0.20000,-0.30000,0.40000*
1,1,0.20000,0.30000,0.40000*
%
%ADD16ROUNDEDRECTD16*%
%ADD17R,0.75000X0.22500*%
%ADD18R,0.60000X0.25000*%
%ADD19R,0.40000X0.35000*%
%ADD20R,0.35000X1.30000*%
G04:AMPARAMS|DCode=21|XSize=1.4mm|YSize=1.7mm|CornerRadius=0.175mm|HoleSize=0mm|Usage=FLASHONLY|Rotation=270.000|XOffset=0mm|YOffset=0mm|HoleType=Round|Shape=RoundedRectangle|*
%AMROUNDEDRECTD21*
21,1,1.40000,1.35000,0,0,270.0*
21,1,1.05000,1.70000,0,0,270.0*
1,1,0.35000,-0.67500,-0.52500*
1,1,0.35000,-0.67500,0.52500*
1,1,0.35000,0.67500,0.52500*
1,1,0.35000,0.67500,-0.52500*
%
%ADD21ROUNDEDRECTD21*%
%ADD22R,3.89000X1.45000*%
%ADD23R,1.45000X3.89000*%
G04:AMPARAMS|DCode=24|XSize=1.8mm|YSize=1.84mm|CornerRadius=0.225mm|HoleSize=0mm|Usage=FLASHONLY|Rotation=90.000|XOffset=0mm|YOffset=0mm|HoleType=Round|Shape=RoundedRectangle|*
%AMROUNDEDRECTD24*
21,1,1.80000,1.39000,0,0,90.0*
21,1,1.35000,1.84000,0,0,90.0*
1,1,0.45000,0.69500,0.67500*
1,1,0.45000,0.69500,-0.67500*
1,1,0.45000,-0.69500,-0.67500*
1,1,0.45000,-0.69500,0.67500*
%
%ADD24ROUNDEDRECTD24*%
%TA.AperFunction,ConnectorPad*%
G04:AMPARAMS|DCode=25|XSize=0.6mm|YSize=0.7mm|CornerRadius=0.075mm|HoleSize=0mm|Usage=FLASHONLY|Rotation=270.000|XOffset=0mm|YOffset=0mm|HoleType=Round|Shape=RoundedRectangle|*
%AMROUNDEDRECTD25*
21,1,0.60000,0.55000,0,0,270.0*
21,1,0.45000,0.70000,0,0,270.0*
1,1,0.15000,-0.27500,-0.22500*
1,1,0.15000,-0.27500,0.22500*
1,1,0.15000,0.27500,0.22500*
1,1,0.15000,0.27500,-0.22500*
%
%ADD25ROUNDEDRECTD25*%
%TA.AperFunction,SMDPad,CuDef*%
G04:AMPARAMS|DCode=26|XSize=0.6mm|YSize=0.7mm|CornerRadius=0.075mm|HoleSize=0mm|Usage=FLASHONLY|Rotation=0.000|XOffset=0mm|YOffset=0mm|HoleType=Round|Shape=RoundedRectangle|*
%AMROUNDEDRECTD26*
21,1,0.60000,0.55000,0,0,0.0*
21,1,0.45000,0.70000,0,0,0.0*
1,1,0.15000,0.22500,-0.27500*
1,1,0.15000,-0.22500,-0.27500*
1,1,0.15000,-0.22500,0.27500*
1,1,0.15000,0.22500,0.27500*
%
%ADD26ROUNDEDRECTD26*%
G04:AMPARAMS|DCode=27|XSize=0.6mm|YSize=0.7mm|CornerRadius=0.075mm|HoleSize=0mm|Usage=FLASHONLY|Rotation=90.000|XOffset=0mm|YOffset=0mm|HoleType=Round|Shape=RoundedRectangle|*
%AMROUNDEDRECTD27*
21,1,0.60000,0.55000,0,0,90.0*
21,1,0.45000,0.70000,0,0,90.0*
1,1,0.15000,0.27500,0.22500*
1,1,0.15000,0.27500,-0.22500*
1,1,0.15000,-0.27500,-0.22500*
1,1,0.15000,-0.27500,0.22500*
%
%ADD27ROUNDEDRECTD27*%
%ADD28R,1.50000X0.60000*%
%ADD29R,1.80000X1.20000*%
G04:AMPARAMS|DCode=30|XSize=0.6mm|YSize=1.45mm|CornerRadius=0.075mm|HoleSize=0mm|Usage=FLASHONLY|Rotation=90.000|XOffset=0mm|YOffset=0mm|HoleType=Round|Shape=RoundedRectangle|*
%AMROUNDEDRECTD30*
21,1,0.60000,1.30000,0,0,90.0*
21,1,0.45000,1.45000,0,0,90.0*
1,1,0.15000,0.65000,0.22500*
1,1,0.15000,0.65000,-0.22500*
1,1,0.15000,-0.65000,-0.22500*
1,1,0.15000,-0.65000,0.22500*
%
%ADD30ROUNDEDRECTD30*%
G04:AMPARAMS|DCode=31|XSize=1.475mm|YSize=0.3mm|CornerRadius=0mm|HoleSize=0mm|Usage=FLASHONLY|Rotation=315.000|XOffset=0mm|YOffset=0mm|HoleType=Round|Shape=Rectangle|*
%AMROTATEDRECTD31*
4,1,4,-0.62756,0.41543,-0.41543,0.62756,0.62756,-0.41543,0.41543,-0.62756,-0.62756,0.41543,0.0*
%
%ADD31ROTATEDRECTD31*%

G04:AMPARAMS|DCode=32|XSize=1.475mm|YSize=0.3mm|CornerRadius=0mm|HoleSize=0mm|Usage=FLASHONLY|Rotation=225.000|XOffset=0mm|YOffset=0mm|HoleType=Round|Shape=Rectangle|*
%AMROTATEDRECTD32*
4,1,4,0.41543,0.62756,0.62756,0.41543,-0.41543,-0.62756,-0.62756,-0.41543,0.41543,0.62756,0.0*
%
%ADD32ROTATEDRECTD32*%

%TA.AperFunction,TestPad*%
G04:AMPARAMS|DCode=33|XSize=0.45mm|YSize=0.5mm|CornerRadius=0.05625mm|HoleSize=0mm|Usage=FLASHONLY|Rotation=0.000|XOffset=0mm|YOffset=0mm|HoleType=Round|Shape=RoundedRectangle|*
%AMROUNDEDRECTD33*
21,1,0.45000,0.38750,0,0,0.0*
21,1,0.33750,0.50000,0,0,0.0*
1,1,0.11250,0.16875,-0.19375*
1,1,0.11250,-0.16875,-0.19375*
1,1,0.11250,-0.16875,0.19375*
1,1,0.11250,0.16875,0.19375*
%
%ADD33ROUNDEDRECTD33*%
%TA.AperFunction,SMDPad,CuDef*%
%ADD34R,1.50000X0.60000*%
%TA.AperFunction,BGAPad,CuDef*%
%ADD35C,0.86300*%
%TA.AperFunction,SMDPad,CuDef*%
G04:AMPARAMS|DCode=36|XSize=0.6mm|YSize=1.2mm|CornerRadius=0.075mm|HoleSize=0mm|Usage=FLASHONLY|Rotation=270.000|XOffset=0mm|YOffset=0mm|HoleType=Round|Shape=RoundedRectangle|*
%AMROUNDEDRECTD36*
21,1,0.60000,1.05000,0,0,270.0*
21,1,0.45000,1.20000,0,0,270.0*
1,1,0.15000,-0.52500,-0.22500*
1,1,0.15000,-0.52500,0.22500*
1,1,0.15000,0.52500,0.22500*
1,1,0.15000,0.52500,-0.22500*
%
%ADD36ROUNDEDRECTD36*%
G04:AMPARAMS|DCode=37|XSize=0.6mm|YSize=0.7mm|CornerRadius=0.075mm|HoleSize=0mm|Usage=FLASHONLY|Rotation=315.000|XOffset=0mm|YOffset=0mm|HoleType=Round|Shape=RoundedRectangle|*
%AMROUNDEDRECTD37*
21,1,0.60000,0.55000,0,0,315.0*
21,1,0.45000,0.70000,0,0,315.0*
1,1,0.15000,-0.03536,-0.35355*
1,1,0.15000,-0.35355,-0.03536*
1,1,0.15000,0.03536,0.35355*
1,1,0.15000,0.35355,0.03536*
%
%ADD37ROUNDEDRECTD37*%
G04:AMPARAMS|DCode=38|XSize=0.6mm|YSize=0.7mm|CornerRadius=0.075mm|HoleSize=0mm|Usage=FLASHONLY|Rotation=225.000|XOffset=0mm|YOffset=0mm|HoleType=Round|Shape=RoundedRectangle|*
%AMROUNDEDRECTD38*
21,1,0.60000,0.55000,0,0,225.0*
21,1,0.45000,0.70000,0,0,225.0*
1,1,0.15000,-0.35355,0.03536*
1,1,0.15000,-0.03536,0.35355*
1,1,0.15000,0.35355,-0.03536*
1,1,0.15000,0.03536,-0.35355*
%
%ADD38ROUNDEDRECTD38*%
G04:AMPARAMS|DCode=39|XSize=0.8mm|YSize=1mm|CornerRadius=0.1mm|HoleSize=0mm|Usage=FLASHONLY|Rotation=225.000|XOffset=0mm|YOffset=0mm|HoleType=Round|Shape=RoundedRectangle|*
%AMROUNDEDRECTD39*
21,1,0.80000,0.80000,0,0,225.0*
21,1,0.60000,1.00000,0,0,225.0*
1,1,0.20000,-0.49498,0.07071*
1,1,0.20000,-0.07071,0.49498*
1,1,0.20000,0.49498,-0.07071*
1,1,0.20000,0.07071,-0.49498*
%
%ADD39ROUNDEDRECTD39*%
%TA.AperFunction,TestPad*%
G04:AMPARAMS|DCode=40|XSize=0.6mm|YSize=1mm|CornerRadius=0.075mm|HoleSize=0mm|Usage=FLASHONLY|Rotation=90.000|XOffset=0mm|YOffset=0mm|HoleType=Round|Shape=RoundedRectangle|*
%AMROUNDEDRECTD40*
21,1,0.60000,0.85000,0,0,90.0*
21,1,0.45000,1.00000,0,0,90.0*
1,1,0.15000,0.42500,0.22500*
1,1,0.15000,0.42500,-0.22500*
1,1,0.15000,-0.42500,-0.22500*
1,1,0.15000,-0.42500,0.22500*
%
%ADD40ROUNDEDRECTD40*%
%TA.AperFunction,SMDPad,CuDef*%
G04:AMPARAMS|DCode=41|XSize=0.55mm|YSize=1.05mm|CornerRadius=0.06875mm|HoleSize=0mm|Usage=FLASHONLY|Rotation=270.000|XOffset=0mm|YOffset=0mm|HoleType=Round|Shape=RoundedRectangle|*
%AMROUNDEDRECTD41*
21,1,0.55000,0.91250,0,0,270.0*
21,1,0.41250,1.05000,0,0,270.0*
1,1,0.13750,-0.45625,-0.20625*
1,1,0.13750,-0.45625,0.20625*
1,1,0.13750,0.45625,0.20625*
1,1,0.13750,0.45625,-0.20625*
%
%ADD41ROUNDEDRECTD41*%
%TA.AperFunction,SMDPad,SMDef*%
%ADD42R,1.00000X1.00000*%
%TA.AperFunction,SMDPad,CuDef*%
%ADD43R,0.55000X0.42000*%
G04:AMPARAMS|DCode=44|XSize=0.8mm|YSize=1mm|CornerRadius=0.1mm|HoleSize=0mm|Usage=FLASHONLY|Rotation=135.000|XOffset=0mm|YOffset=0mm|HoleType=Round|Shape=RoundedRectangle|*
%AMROUNDEDRECTD44*
21,1,0.80000,0.80000,0,0,135.0*
21,1,0.60000,1.00000,0,0,135.0*
1,1,0.20000,0.07071,0.49498*
1,1,0.20000,0.49498,0.07071*
1,1,0.20000,-0.07071,-0.49498*
1,1,0.20000,-0.49498,-0.07071*
%
%ADD44ROUNDEDRECTD44*%
G04:AMPARAMS|DCode=45|XSize=0.85mm|YSize=0.25mm|CornerRadius=0mm|HoleSize=0mm|Usage=FLASHONLY|Rotation=225.000|XOffset=0mm|YOffset=0mm|HoleType=Round|Shape=Rectangle|*
%AMROTATEDRECTD45*
4,1,4,0.21213,0.38891,0.38891,0.21213,-0.21213,-0.38891,-0.38891,-0.21213,0.21213,0.38891,0.0*
%
%ADD45ROTATEDRECTD45*%

%ADD46P,6.01041X4X360.0*%
G04:AMPARAMS|DCode=47|XSize=1.6mm|YSize=2.7mm|CornerRadius=0.2mm|HoleSize=0mm|Usage=FLASHONLY|Rotation=180.000|XOffset=0mm|YOffset=0mm|HoleType=Round|Shape=RoundedRectangle|*
%AMROUNDEDRECTD47*
21,1,1.60000,2.30000,0,0,180.0*
21,1,1.20000,2.70000,0,0,180.0*
1,1,0.40000,-0.60000,1.15000*
1,1,0.40000,0.60000,1.15000*
1,1,0.40000,0.60000,-1.15000*
1,1,0.40000,-0.60000,-1.15000*
%
%ADD47ROUNDEDRECTD47*%
%ADD48R,1.30000X0.35000*%
%ADD49R,0.60000X1.50000*%
%TA.AperFunction,TestPad*%
%ADD50R,1.20000X1.80000*%
%ADD51R,0.60000X1.50000*%
%TA.AperFunction,SMDPad,CuDef*%
G04:AMPARAMS|DCode=52|XSize=0.85mm|YSize=0.25mm|CornerRadius=0mm|HoleSize=0mm|Usage=FLASHONLY|Rotation=315.000|XOffset=0mm|YOffset=0mm|HoleType=Round|Shape=Rectangle|*
%AMROTATEDRECTD52*
4,1,4,-0.38891,0.21213,-0.21213,0.38891,0.38891,-0.21213,0.21213,-0.38891,-0.38891,0.21213,0.0*
%
%ADD52ROTATEDRECTD52*%

G04:AMPARAMS|DCode=53|XSize=1.4mm|YSize=1.7mm|CornerRadius=0.175mm|HoleSize=0mm|Usage=FLASHONLY|Rotation=135.000|XOffset=0mm|YOffset=0mm|HoleType=Round|Shape=RoundedRectangle|*
%AMROUNDEDRECTD53*
21,1,1.40000,1.35000,0,0,135.0*
21,1,1.05000,1.70000,0,0,135.0*
1,1,0.35000,0.10607,0.84853*
1,1,0.35000,0.84853,0.10607*
1,1,0.35000,-0.10607,-0.84853*
1,1,0.35000,-0.84853,-0.10607*
%
%ADD53ROUNDEDRECTD53*%
%ADD54R,0.42000X0.55000*%
%TA.AperFunction,SMDPad,SMDef*%
%ADD55R,1.00000X1.00000*%
%TA.AperFunction,ConnectorPad*%
G04:AMPARAMS|DCode=56|XSize=1.6mm|YSize=2.7mm|CornerRadius=0.2mm|HoleSize=0mm|Usage=FLASHONLY|Rotation=0.000|XOffset=0mm|YOffset=0mm|HoleType=Round|Shape=RoundedRectangle|*
%AMROUNDEDRECTD56*
21,1,1.60000,2.30000,0,0,0.0*
21,1,1.20000,2.70000,0,0,0.0*
1,1,0.40000,0.60000,-1.15000*
1,1,0.40000,-0.60000,-1.15000*
1,1,0.40000,-0.60000,1.15000*
1,1,0.40000,0.60000,1.15000*
%
%ADD56ROUNDEDRECTD56*%
%TA.AperFunction,SMDPad,CuDef*%
G04:AMPARAMS|DCode=57|XSize=0.55mm|YSize=0.8mm|CornerRadius=0.0495mm|HoleSize=0mm|Usage=FLASHONLY|Rotation=0.000|XOffset=0mm|YOffset=0mm|HoleType=Round|Shape=RoundedRectangle|*
%AMROUNDEDRECTD57*
21,1,0.55000,0.70100,0,0,0.0*
21,1,0.45100,0.80000,0,0,0.0*
1,1,0.09900,0.22550,-0.35050*
1,1,0.09900,-0.22550,-0.35050*
1,1,0.09900,-0.22550,0.35050*
1,1,0.09900,0.22550,0.35050*
%
%ADD57ROUNDEDRECTD57*%
%ADD58R,0.30000X0.70000*%
%ADD59R,1.70000X1.00000*%
G04:AMPARAMS|DCode=60|XSize=0.63mm|YSize=0.83mm|CornerRadius=0.07875mm|HoleSize=0mm|Usage=FLASHONLY|Rotation=90.000|XOffset=0mm|YOffset=0mm|HoleType=Round|Shape=RoundedRectangle|*
%AMROUNDEDRECTD60*
21,1,0.63000,0.67250,0,0,90.0*
21,1,0.47250,0.83000,0,0,90.0*
1,1,0.15750,0.33625,0.23625*
1,1,0.15750,0.33625,-0.23625*
1,1,0.15750,-0.33625,-0.23625*
1,1,0.15750,-0.33625,0.23625*
%
%ADD60ROUNDEDRECTD60*%
%ADD61R,5.00000X6.50000*%
%ADD62R,0.25500X0.31000*%
%ADD63R,3.91000X3.81000*%
%ADD64R,0.61000X0.71000*%
%ADD65R,0.61000X1.27000*%
G04:AMPARAMS|DCode=66|XSize=1mm|YSize=1.8mm|CornerRadius=0.125mm|HoleSize=0mm|Usage=FLASHONLY|Rotation=0.000|XOffset=0mm|YOffset=0mm|HoleType=Round|Shape=RoundedRectangle|*
%AMROUNDEDRECTD66*
21,1,1.00000,1.55000,0,0,0.0*
21,1,0.75000,1.80000,0,0,0.0*
1,1,0.25000,0.37500,-0.77500*
1,1,0.25000,-0.37500,-0.77500*
1,1,0.25000,-0.37500,0.77500*
1,1,0.25000,0.37500,0.77500*
%
%ADD66ROUNDEDRECTD66*%
G04:AMPARAMS|DCode=67|XSize=1mm|YSize=1.7mm|CornerRadius=0.125mm|HoleSize=0mm|Usage=FLASHONLY|Rotation=0.000|XOffset=0mm|YOffset=0mm|HoleType=Round|Shape=RoundedRectangle|*
%AMROUNDEDRECTD67*
21,1,1.00000,1.45000,0,0,0.0*
21,1,0.75000,1.70000,0,0,0.0*
1,1,0.25000,0.37500,-0.72500*
1,1,0.25000,-0.37500,-0.72500*
1,1,0.25000,-0.37500,0.72500*
1,1,0.25000,0.37500,0.72500*
%
%ADD67ROUNDEDRECTD67*%
%ADD68R,0.35000X0.40000*%
%ADD69R,0.22500X0.75000*%
%ADD70R,0.25000X0.60000*%
%ADD71R,1.20000X1.80000*%
%TA.AperFunction,TestPad*%
G04:AMPARAMS|DCode=72|XSize=0.25mm|YSize=0.5mm|CornerRadius=0.03125mm|HoleSize=0mm|Usage=FLASHONLY|Rotation=180.000|XOffset=0mm|YOffset=0mm|HoleType=Round|Shape=RoundedRectangle|*
%AMROUNDEDRECTD72*
21,1,0.25000,0.43750,0,0,180.0*
21,1,0.18750,0.50000,0,0,180.0*
1,1,0.06250,-0.09375,0.21875*
1,1,0.06250,0.09375,0.21875*
1,1,0.06250,0.09375,-0.21875*
1,1,0.06250,-0.09375,-0.21875*
%
%ADD72ROUNDEDRECTD72*%
%TA.AperFunction,SMDPad,CuDef*%
%AMCUSTOMSHAPE73*
4,1,12,0.75000,-0.25000,0.25000,-0.25000,0.25000,-0.75001,-0.25000,-0.75000,-0.25000,-0.25000,-0.75000,-0.25000,-0.75000,0.25000,-0.25000,0.25000,-0.25000,0.75000,0.25000,0.75000,0.25000,0.25000,0.75000,0.25000,0.75000,-0.25000,0.0*%
%ADD73CUSTOMSHAPE73*%

%ADD74R,1.50000X0.30000*%
%TA.AperFunction,ComponentPad*%
%ADD85C,5.20000*%
%ADD86C,1.52400*%
%ADD87C,1.06700*%
%ADD88O,3.00000X1.90000*%
%ADD89C,0.60000*%
%ADD90O,2.20000X1.00000*%
%ADD91O,1.90000X1.00000*%
D10*
X6945000Y5400000D02*
D03*
Y5300001D02*
D03*
Y5200000D02*
D03*
Y5100000D02*
D03*
Y5000000D02*
D03*
Y4900000D02*
D03*
D11*
X6555000Y5530000D02*
D03*
X6555000Y4770000D02*
D03*
D12*
X7675000Y10885000D02*
D03*
Y11165001D02*
D03*
X10030000Y10150000D02*
D03*
X10030000Y9870000D02*
D03*
X9720000Y10150000D02*
D03*
X9720000Y9870000D02*
D03*
X7999999Y10815000D02*
D03*
X8300000D02*
D03*
X7675000Y9910000D02*
D03*
X7975000D02*
D03*
X11014999Y10905000D02*
D03*
X11340000Y10905000D02*
D03*
X11820000Y10490000D02*
D03*
X12450000D02*
D03*
X12750000D02*
D03*
X12500000Y10785000D02*
D03*
X12800000D02*
D03*
X12750000Y10209999D02*
D03*
X11014999Y10625000D02*
D03*
X11339999Y10625000D02*
D03*
X12450000Y10210000D02*
D03*
X12800000Y11065000D02*
D03*
X12500000D02*
D03*
X11820000Y10209999D02*
D03*
X8300000Y10535000D02*
D03*
X7675000Y10190000D02*
D03*
X7975000D02*
D03*
X7999999Y10535000D02*
D03*
D13*
X13710001Y7425000D02*
D03*
Y7615000D02*
D03*
X13010001Y7925000D02*
D03*
Y8115000D02*
D03*
X11325000Y8520000D02*
D03*
Y8330000D02*
D03*
X8875000Y7955000D02*
D03*
Y8145000D02*
D03*
X9175000Y7955000D02*
D03*
Y8145000D02*
D03*
X10100000Y8545000D02*
D03*
Y8355000D02*
D03*
X7225000Y8520000D02*
D03*
Y8330000D02*
D03*
X11590000Y10925000D02*
D03*
X11590000Y10735000D02*
D03*
X7725000Y10720000D02*
D03*
Y10530000D02*
D03*
D14*
X13714301Y7230000D02*
D03*
X13485699D02*
D03*
X13724300Y7820000D02*
D03*
X13495700D02*
D03*
X8919300Y10162500D02*
D03*
X8690700D02*
D03*
X13485699Y7000000D02*
D03*
X13465700Y6400000D02*
D03*
X13714301Y7000000D02*
D03*
X13694299Y6400000D02*
D03*
D15*
X10850000Y10435000D02*
D03*
X10850000Y10285000D02*
D03*
X10200000Y10445000D02*
D03*
Y10295000D02*
D03*
X8900000Y10675000D02*
D03*
Y10825000D02*
D03*
X8750000D02*
D03*
Y10675000D02*
D03*
X9150000D02*
D03*
Y10825000D02*
D03*
X9025000Y10675000D02*
D03*
Y10825000D02*
D03*
X7175000Y4500000D02*
D03*
X10330000Y10290000D02*
D03*
X10590000Y10285000D02*
D03*
X11875000Y4625000D02*
D03*
X13360001Y6725000D02*
D03*
X12975002Y7725000D02*
D03*
X13125002D02*
D03*
X13360001Y6575000D02*
D03*
X12975002Y7575000D02*
D03*
X8500000Y6675000D02*
D03*
Y6825000D02*
D03*
X8031800Y6702401D02*
D03*
Y6852401D02*
D03*
X13275002Y7575000D02*
D03*
Y7725000D02*
D03*
X13125002Y7575000D02*
D03*
X9250000Y7100000D02*
D03*
Y7250000D02*
D03*
X12575001Y6850000D02*
D03*
Y6700000D02*
D03*
X12100000Y6700000D02*
D03*
Y6850000D02*
D03*
X10460000Y10290000D02*
D03*
Y10440000D02*
D03*
X10590000Y10435000D02*
D03*
X10330000Y10440000D02*
D03*
X12180000Y10790000D02*
D03*
Y10640000D02*
D03*
X10720000Y10285000D02*
D03*
Y10435000D02*
D03*
X7175000Y4350000D02*
D03*
X11875000Y4475000D02*
D03*
D16*
X10965000Y10460000D02*
D03*
X11115000D02*
D03*
X9110000Y10285000D02*
D03*
X9260000D02*
D03*
X9150000Y10410000D02*
D03*
X9300000D02*
D03*
X9150000Y10540000D02*
D03*
X9300000D02*
D03*
X6650000Y7275000D02*
D03*
X6500000D02*
D03*
X6650000Y7125000D02*
D03*
X6500000D02*
D03*
X6647800Y6985000D02*
D03*
X6497800D02*
D03*
X7135000Y6240000D02*
D03*
X6985000D02*
D03*
X7085000Y6900000D02*
D03*
X6935000D02*
D03*
X8100000Y5150000D02*
D03*
X7275000Y5700000D02*
D03*
X8125000Y5825000D02*
D03*
X11800000Y3675000D02*
D03*
X11800000Y3825000D02*
D03*
X11925000D02*
D03*
X12575000Y5725000D02*
D03*
X10075000Y6900000D02*
D03*
X10225000D02*
D03*
X13314999Y10220000D02*
D03*
X13164999D02*
D03*
X7125000Y5700000D02*
D03*
X12075000Y3824999D02*
D03*
X11650000Y3825000D02*
D03*
Y3675000D02*
D03*
X12725000Y5725000D02*
D03*
X7975000Y5825000D02*
D03*
X7950000Y5150000D02*
D03*
D17*
X10452500Y10566200D02*
D03*
X10452500Y10713800D02*
D03*
X10287500Y10713800D02*
D03*
Y10566200D02*
D03*
D18*
X10460000Y10615000D02*
D03*
Y10665000D02*
D03*
X10280000D02*
D03*
Y10615000D02*
D03*
D19*
X10435000Y10537400D02*
D03*
Y10742600D02*
D03*
X10305000D02*
D03*
Y10537400D02*
D03*
D20*
X10370000Y10585000D02*
D03*
D21*
X10030000Y10545700D02*
D03*
Y10774300D02*
D03*
X8575000Y10764300D02*
D03*
X10660000Y11004300D02*
D03*
X13000000Y9985700D02*
D03*
X13000000Y8285700D02*
D03*
Y8514300D02*
D03*
X11325000Y7935700D02*
D03*
Y8164300D02*
D03*
X10100000Y7960700D02*
D03*
Y8189300D02*
D03*
X8875000Y8539300D02*
D03*
Y8310700D02*
D03*
X9175000Y8539300D02*
D03*
Y8310700D02*
D03*
X7225000Y7935700D02*
D03*
Y8164300D02*
D03*
X10660000Y10775700D02*
D03*
X13000000Y10214300D02*
D03*
X8575000Y10535700D02*
D03*
D22*
X9710000Y10372500D02*
D03*
Y10667500D02*
D03*
X13175000Y10775000D02*
D03*
Y11070000D02*
D03*
D23*
X8227500Y10152500D02*
D03*
X8522500D02*
D03*
D24*
X7525000Y7675000D02*
D03*
Y7375000D02*
D03*
X10725000Y7425000D02*
D03*
X11575000Y7400000D02*
D03*
Y7700001D02*
D03*
X10725000Y7725000D02*
D03*
D25*
X10220000Y3060000D02*
D03*
Y2960000D02*
D03*
X10065000Y2960000D02*
D03*
X9910000D02*
D03*
X9755000Y2970000D02*
D03*
X9910000Y3060000D02*
D03*
X10065000Y3060000D02*
D03*
X9755000Y3070000D02*
D03*
D26*
X6960000Y2980000D02*
D03*
X6860000D02*
D03*
X7400000Y4350000D02*
D03*
X7675000Y4375000D02*
D03*
X7230000Y5580000D02*
D03*
X7325000Y5500000D02*
D03*
Y4950000D02*
D03*
Y4625000D02*
D03*
X7675000Y4475000D02*
D03*
X8075000Y5275000D02*
D03*
X8100000Y5950000D02*
D03*
X11950000Y3675000D02*
D03*
X12175000Y3725000D02*
D03*
X12550000Y3725000D02*
D03*
X12600000Y5600000D02*
D03*
X7130000Y5580000D02*
D03*
X7975000Y5275000D02*
D03*
X7325000Y5300000D02*
D03*
X7425000D02*
D03*
X7325000Y5150000D02*
D03*
X7425000D02*
D03*
X7325000Y4825000D02*
D03*
X7425000D02*
D03*
X12250000Y5945000D02*
D03*
X12150000D02*
D03*
X12050001Y3675000D02*
D03*
X12450000Y3725000D02*
D03*
X12275000D02*
D03*
X7325000Y4725000D02*
D03*
X7425000D02*
D03*
X7325000Y5050000D02*
D03*
X7425000D02*
D03*
X7325000Y5400000D02*
D03*
X7425000Y5400000D02*
D03*
X7425000Y4625000D02*
D03*
Y4950000D02*
D03*
Y5500000D02*
D03*
X7300000Y4350000D02*
D03*
X7575000Y4375000D02*
D03*
X7575000Y4475000D02*
D03*
X12700000Y5600000D02*
D03*
X8000000Y5950000D02*
D03*
X7875000Y6300000D02*
D03*
X7775000D02*
D03*
X7850000Y5625000D02*
D03*
X7750000D02*
D03*
D27*
X7110000Y4880000D02*
D03*
Y4980000D02*
D03*
Y5110000D02*
D03*
Y5210000D02*
D03*
Y5490000D02*
D03*
Y5390000D02*
D03*
X13030000Y4750000D02*
D03*
Y4650000D02*
D03*
Y4330000D02*
D03*
Y4430000D02*
D03*
X13010001Y5130000D02*
D03*
Y5230000D02*
D03*
Y5490000D02*
D03*
Y5390000D02*
D03*
X12875000Y5175000D02*
D03*
Y5275000D02*
D03*
Y5475000D02*
D03*
Y5375000D02*
D03*
X7700000Y3650000D02*
D03*
X7275000Y5825000D02*
D03*
Y6450000D02*
D03*
X7750000Y5825000D02*
D03*
X7775000Y6500000D02*
D03*
X12730000Y4160000D02*
D03*
X12860001Y4170000D02*
D03*
X12000000Y4600000D02*
D03*
X12710000Y4950000D02*
D03*
X11950000Y5125000D02*
D03*
X12875000Y5575000D02*
D03*
X12050000Y6170000D02*
D03*
X10065000Y3260001D02*
D03*
Y3160000D02*
D03*
X12050000Y5970000D02*
D03*
Y6070000D02*
D03*
X9910000Y3260000D02*
D03*
X9910000Y3160000D02*
D03*
X7200000Y3650000D02*
D03*
Y3750000D02*
D03*
X7300000Y3650000D02*
D03*
Y3750000D02*
D03*
X7400000Y3650000D02*
D03*
Y3750000D02*
D03*
X7500000Y3650000D02*
D03*
Y3750000D02*
D03*
X12900000Y4525000D02*
D03*
Y4425000D02*
D03*
X12050000Y6270000D02*
D03*
X9755000Y3170000D02*
D03*
Y3270001D02*
D03*
X11950000Y6170000D02*
D03*
Y6270000D02*
D03*
X10220000Y3160000D02*
D03*
Y3260000D02*
D03*
X7600000Y3650000D02*
D03*
Y3750000D02*
D03*
X7700000Y3750000D02*
D03*
X12875000Y5075000D02*
D03*
X11950000Y5425000D02*
D03*
Y5325000D02*
D03*
Y5225000D02*
D03*
X7275000Y6550000D02*
D03*
X7775000Y6400000D02*
D03*
X7275000Y5925000D02*
D03*
X7750000Y5725000D02*
D03*
X12000000Y4500000D02*
D03*
X12900000Y4625000D02*
D03*
Y4725000D02*
D03*
X12860001Y4270000D02*
D03*
X12710000Y4850000D02*
D03*
X12730000Y4260000D02*
D03*
D28*
X13210001Y4445000D02*
D03*
X13210001Y4645000D02*
D03*
Y4545000D02*
D03*
X13201300Y5225000D02*
D03*
Y6050000D02*
D03*
Y5425000D02*
D03*
Y5850000D02*
D03*
X6940000Y5830000D02*
D03*
X6940000Y6455000D02*
D03*
X13210001Y3920000D02*
D03*
X13201300Y5325000D02*
D03*
Y5950000D02*
D03*
X6940000Y6030000D02*
D03*
X6940000Y5930000D02*
D03*
Y6655000D02*
D03*
Y6555000D02*
D03*
X13210001Y3820000D02*
D03*
Y4020000D02*
D03*
D29*
X13600000Y4315000D02*
D03*
X13600000Y4775000D02*
D03*
X6550000Y6160000D02*
D03*
Y5700000D02*
D03*
X6550000Y6785000D02*
D03*
X6550000Y6325000D02*
D03*
X13600000Y3690000D02*
D03*
X13600000Y4150000D02*
D03*
X13591299Y5555000D02*
D03*
Y5095000D02*
D03*
Y6180000D02*
D03*
Y5720000D02*
D03*
D30*
X12697500Y5186500D02*
D03*
X12152500Y5440500D02*
D03*
Y5059500D02*
D03*
X12697500Y5313500D02*
D03*
X12180000Y4627000D02*
D03*
X12697500Y5059500D02*
D03*
Y5440500D02*
D03*
X12152500Y5186500D02*
D03*
Y5313500D02*
D03*
X12725000Y4373000D02*
D03*
Y4500000D02*
D03*
Y4627000D02*
D03*
Y4754000D02*
D03*
X12180000Y4373000D02*
D03*
Y4500000D02*
D03*
Y4754000D02*
D03*
D31*
X9781669Y4873156D02*
D03*
X9286694Y4378181D02*
D03*
X9428115Y4519602D02*
D03*
X10557789Y4026325D02*
D03*
X9746313Y4837801D02*
D03*
X9710958Y4802445D02*
D03*
X9675602Y4767090D02*
D03*
X9640247Y4731735D02*
D03*
X9604892Y4696379D02*
D03*
X9569536Y4661024D02*
D03*
X9534181Y4625668D02*
D03*
X9498826Y4590313D02*
D03*
X9463470Y4554958D02*
D03*
X9392760Y4484247D02*
D03*
X9357404Y4448892D02*
D03*
X9322049Y4413537D02*
D03*
X9251338Y4342826D02*
D03*
X10062814Y3531350D02*
D03*
X10098169Y3566705D02*
D03*
X10133525Y3602061D02*
D03*
X10168880Y3637416D02*
D03*
X10204235Y3672771D02*
D03*
X10239591Y3708127D02*
D03*
X10274946Y3743482D02*
D03*
X10310301Y3778838D02*
D03*
X10345657Y3814193D02*
D03*
X10381012Y3849548D02*
D03*
X10416368Y3884903D02*
D03*
X10451723Y3920259D02*
D03*
X10487078Y3955614D02*
D03*
X10522433Y3990969D02*
D03*
X10593144Y4061680D02*
D03*
D32*
X10133525Y4802445D02*
D03*
X9746313Y3566705D02*
D03*
X10098169Y4837801D02*
D03*
X10593144Y4342826D02*
D03*
X10557789Y4378181D02*
D03*
X10522433Y4413537D02*
D03*
X10487078Y4448892D02*
D03*
X10451723Y4484247D02*
D03*
X10416368Y4519602D02*
D03*
X10381012Y4554958D02*
D03*
X10345657Y4590313D02*
D03*
X10310301Y4625668D02*
D03*
X10274946Y4661024D02*
D03*
X10239591Y4696379D02*
D03*
X10204235Y4731735D02*
D03*
X10168880Y4767090D02*
D03*
X10062814Y4873156D02*
D03*
X9251338Y4061680D02*
D03*
X9286694Y4026325D02*
D03*
X9322049Y3990969D02*
D03*
X9357404Y3955614D02*
D03*
X9392760Y3920259D02*
D03*
X9428115Y3884903D02*
D03*
X9463470Y3849548D02*
D03*
X9498826Y3814193D02*
D03*
X9534181Y3778838D02*
D03*
X9569536Y3743482D02*
D03*
X9604892Y3708127D02*
D03*
X9640247Y3672771D02*
D03*
X9675602Y3637416D02*
D03*
X9710958Y3602061D02*
D03*
X9781669Y3531350D02*
D03*
D33*
X7375000Y3445000D02*
D03*
Y3525000D02*
D03*
X12775000Y3700001D02*
D03*
X12775000Y3780000D02*
D03*
D34*
X6960000Y3730000D02*
D03*
Y4370000D02*
D03*
Y4290000D02*
D03*
Y3810000D02*
D03*
D35*
X7475000Y3123000D02*
D03*
X7475000Y3250000D02*
D03*
X7348000Y3250000D02*
D03*
X7221000Y3250000D02*
D03*
X7348000Y3123000D02*
D03*
X7221000Y3123000D02*
D03*
D36*
X7280000Y4080000D02*
D03*
X7520000Y4175000D02*
D03*
Y4080000D02*
D03*
Y3985000D02*
D03*
X7280000D02*
D03*
Y4175000D02*
D03*
D37*
X8828984Y4187132D02*
D03*
X8970406Y4045711D02*
D03*
X9634645Y3455355D02*
D03*
X9182538Y3833579D02*
D03*
X9560355Y5789645D02*
D03*
X10685355Y3789645D02*
D03*
X10210355Y4964645D02*
D03*
X10835355Y4364645D02*
D03*
X9489644Y5860356D02*
D03*
X10764645Y4435356D02*
D03*
X9645355Y5004645D02*
D03*
X9574645Y5075356D02*
D03*
X9705355Y3384645D02*
D03*
X8899695Y4116422D02*
D03*
X9111827Y3904289D02*
D03*
X9041117Y3975000D02*
D03*
X10139645Y5035355D02*
D03*
X9589645Y5635355D02*
D03*
X9660356Y5564645D02*
D03*
X10614645Y3860356D02*
D03*
D38*
X9135355Y4485355D02*
D03*
X9285355Y4635355D02*
D03*
X10714645Y3914645D02*
D03*
X10785356Y3985356D02*
D03*
X9064645Y4414645D02*
D03*
X9214645Y4564645D02*
D03*
X8758274Y3975000D02*
D03*
X8828984Y4045711D02*
D03*
X8970406Y3762868D02*
D03*
X9041117Y3833579D02*
D03*
X8899695D02*
D03*
X8970406Y3904289D02*
D03*
X10085355Y5635355D02*
D03*
X10014644Y5564645D02*
D03*
D39*
X9203033Y4728033D02*
D03*
X8903033Y4803033D02*
D03*
X10578033Y6403033D02*
D03*
X10371967Y6396967D02*
D03*
X10478033Y6503033D02*
D03*
X10471967Y6296967D02*
D03*
X9096967Y4621967D02*
D03*
X9003033Y4703033D02*
D03*
X8896967Y4596967D02*
D03*
X8796967Y4696967D02*
D03*
D40*
X7425000Y5825000D02*
D03*
X7450000Y6500000D02*
D03*
X12369100Y6160300D02*
D03*
X12169100Y6065300D02*
D03*
Y6255300D02*
D03*
X7650000Y6595000D02*
D03*
Y6405000D02*
D03*
X7625000Y5920000D02*
D03*
Y5730000D02*
D03*
D41*
X8265000Y5520000D02*
D03*
X8290000Y6180000D02*
D03*
Y6085000D02*
D03*
X8290000Y6275000D02*
D03*
X8025000D02*
D03*
Y6085000D02*
D03*
X8265000Y5425000D02*
D03*
X8265000Y5615000D02*
D03*
X8000000D02*
D03*
Y5425000D02*
D03*
D42*
X7550000Y7230000D02*
D03*
X11730000Y7250000D02*
D03*
X11880000D02*
D03*
Y7050000D02*
D03*
X11730000D02*
D03*
X8200000Y6900000D02*
D03*
Y6700000D02*
D03*
X7550000Y7030000D02*
D03*
X7690000D02*
D03*
Y7230000D02*
D03*
X9900000Y7050000D02*
D03*
Y7250000D02*
D03*
X12400000Y6900000D02*
D03*
Y6700000D02*
D03*
D43*
X8055000Y7000000D02*
D03*
X12070000Y7050000D02*
D03*
X12970000Y7450000D02*
D03*
X13130000D02*
D03*
X7895000Y7000000D02*
D03*
X10230000Y7050000D02*
D03*
X10070000D02*
D03*
X12230000Y7050000D02*
D03*
X11805000Y3975000D02*
D03*
X11645000D02*
D03*
D44*
X9478033Y5671967D02*
D03*
X10953033Y4446967D02*
D03*
X10606066Y5768934D02*
D03*
X10703032Y5871967D02*
D03*
X10500000Y5875000D02*
D03*
X10596966Y5978033D02*
D03*
X9371967Y5778033D02*
D03*
X10678033Y6096966D02*
D03*
X10571967Y6203033D02*
D03*
X10846967Y4553033D02*
D03*
D45*
X9743163Y5947452D02*
D03*
X9919939Y5770675D02*
D03*
X9884584Y5806031D02*
D03*
X9849229Y5841386D02*
D03*
X9813873Y5876741D02*
D03*
X9778518Y5912097D02*
D03*
X9707807Y5982807D02*
D03*
X9672452Y6018163D02*
D03*
X9637097Y6053518D02*
D03*
X9601741Y6088874D02*
D03*
X10018934Y6506066D02*
D03*
X10054289Y6470711D02*
D03*
X10089645Y6435355D02*
D03*
X10125000Y6400000D02*
D03*
X10160355Y6364645D02*
D03*
X10195711Y6329290D02*
D03*
X10231066Y6293934D02*
D03*
X10266421Y6258579D02*
D03*
X10301776Y6223224D02*
D03*
X10337132Y6187868D02*
D03*
D46*
X9969437Y6138371D02*
D03*
D47*
X8625000Y7650000D02*
D03*
X9335000Y7675000D02*
D03*
X12765000Y7650000D02*
D03*
X8345000D02*
D03*
X12485000D02*
D03*
X9615000Y7675000D02*
D03*
D48*
X8880000Y10425000D02*
D03*
D49*
X11775000Y3500000D02*
D03*
X11575000D02*
D03*
X11675000D02*
D03*
D50*
X12170000Y3110000D02*
D03*
X13130000Y3110001D02*
D03*
D51*
X13000000Y3500000D02*
D03*
X12700000D02*
D03*
X12800000Y3500000D02*
D03*
X12900000Y3500000D02*
D03*
X12300000Y3500000D02*
D03*
X12400000Y3500000D02*
D03*
X12500000Y3500000D02*
D03*
X12600000D02*
D03*
D52*
X10301776Y6053518D02*
D03*
X10337132Y6088873D02*
D03*
X10266421Y6018163D02*
D03*
X10231066Y5982807D02*
D03*
X10195711Y5947452D02*
D03*
X10160355Y5912096D02*
D03*
X10125000Y5876741D02*
D03*
X10089645Y5841386D02*
D03*
X10054290Y5806031D02*
D03*
X10018934Y5770675D02*
D03*
X9601741Y6187868D02*
D03*
X9637096Y6223224D02*
D03*
X9672452Y6258579D02*
D03*
X9707807Y6293934D02*
D03*
X9743163Y6329290D02*
D03*
X9778518Y6364645D02*
D03*
X9813873Y6400000D02*
D03*
X9849229Y6435355D02*
D03*
X9884584Y6470711D02*
D03*
X9919939Y6506066D02*
D03*
D53*
X10880822Y6144177D02*
D03*
X10719177Y6305822D02*
D03*
D54*
X10350000Y7200000D02*
D03*
X8350000Y6670000D02*
D03*
Y6830000D02*
D03*
X7900000Y6855001D02*
D03*
Y6695000D02*
D03*
X9120000Y7260000D02*
D03*
Y7100000D02*
D03*
X10350000Y7040000D02*
D03*
X12700000Y6855000D02*
D03*
Y6695000D02*
D03*
X12225000Y6855000D02*
D03*
Y6695000D02*
D03*
X7550000Y4780000D02*
D03*
X7550000Y4620000D02*
D03*
Y5105000D02*
D03*
Y4945000D02*
D03*
X7540000Y5340000D02*
D03*
Y5500000D02*
D03*
D55*
X10900000Y7425000D02*
D03*
X11100000Y7725000D02*
D03*
X10900000D02*
D03*
X11100000Y7425000D02*
D03*
D56*
X11300000Y11165000D02*
D03*
X11580000Y11165000D02*
D03*
D57*
X13614999Y6827500D02*
D03*
X13710001D02*
D03*
X13520000D02*
D03*
X13520000Y6572500D02*
D03*
X13710001D02*
D03*
D58*
X13007500Y10375000D02*
D03*
X13157500D02*
D03*
Y10585000D02*
D03*
X13007500D02*
D03*
X13057500D02*
D03*
X13107500D02*
D03*
Y10375000D02*
D03*
X13057500D02*
D03*
D59*
X13082500Y10480000D02*
D03*
D60*
X7275000Y6900000D02*
D03*
Y6677000D02*
D03*
Y6063500D02*
D03*
Y6286500D02*
D03*
D61*
X10075000Y9175000D02*
D03*
X8025000Y9150000D02*
D03*
X12125000Y9175000D02*
D03*
D62*
X8608301Y8000000D02*
D03*
X8191700D02*
D03*
X11580200Y8486000D02*
D03*
X11996800D02*
D03*
X12733300Y7995000D02*
D03*
X12316700D02*
D03*
X10316700Y8530000D02*
D03*
X10733300D02*
D03*
X7491672Y8479987D02*
D03*
X7908272D02*
D03*
X9858300Y8045000D02*
D03*
X9441700D02*
D03*
D63*
X8400000Y8175000D02*
D03*
X11788500Y8311000D02*
D03*
X12525000Y8170000D02*
D03*
X10525000Y8355000D02*
D03*
X7699972Y8304987D02*
D03*
X9650000Y8220001D02*
D03*
D64*
X8590501Y7949000D02*
D03*
X8463500D02*
D03*
X8336500D02*
D03*
X8209500D02*
D03*
X11598001Y8537000D02*
D03*
X11725000D02*
D03*
X11852000D02*
D03*
X11979000D02*
D03*
X12715501Y7944000D02*
D03*
X12588500D02*
D03*
X12461500D02*
D03*
X12334500D02*
D03*
X10334500Y8581000D02*
D03*
X10461500D02*
D03*
X10588500D02*
D03*
X10715501D02*
D03*
X7509472Y8530987D02*
D03*
X7636472D02*
D03*
X7763472D02*
D03*
X7890472D02*
D03*
X9840501Y7994001D02*
D03*
X9713500D02*
D03*
X9586500D02*
D03*
X9459500D02*
D03*
D65*
X8209500Y8511000D02*
D03*
X8336500D02*
D03*
X8463500D02*
D03*
X8590501D02*
D03*
X11979000Y7975000D02*
D03*
X11852000D02*
D03*
X11725000D02*
D03*
X11598001D02*
D03*
X12334500Y8506000D02*
D03*
X12461500D02*
D03*
X12588500D02*
D03*
X12715501D02*
D03*
X10715501Y8019000D02*
D03*
X10588500D02*
D03*
X10461500D02*
D03*
X10334500D02*
D03*
X7890472Y7968987D02*
D03*
X7763472D02*
D03*
X7636472D02*
D03*
X7509472D02*
D03*
X9459500Y8556000D02*
D03*
X9586500D02*
D03*
X9713500D02*
D03*
X9840501D02*
D03*
D66*
X8180000Y7680000D02*
D03*
X7870000D02*
D03*
X12305000Y7700000D02*
D03*
X11995000D02*
D03*
X9795000Y7650000D02*
D03*
X10105000D02*
D03*
D67*
X12035000Y10210000D02*
D03*
X12225000D02*
D03*
D68*
X8927599Y10360000D02*
D03*
X8722400D02*
D03*
Y10490000D02*
D03*
X8927599Y10490000D02*
D03*
D69*
X8898799Y10342500D02*
D03*
X8751200Y10342500D02*
D03*
Y10507500D02*
D03*
X8898800Y10507500D02*
D03*
D70*
X8850000Y10335000D02*
D03*
X8800000D02*
D03*
Y10515000D02*
D03*
X8850000D02*
D03*
D71*
X11445000Y3110000D02*
D03*
X11905000D02*
D03*
D72*
X12725000Y3780000D02*
D03*
X12675000D02*
D03*
X12875000Y3780000D02*
D03*
X12675000Y3700000D02*
D03*
X12875000D02*
D03*
X12725000Y3700001D02*
D03*
X12825000Y3700000D02*
D03*
Y3780000D02*
D03*
X7425000Y3445000D02*
D03*
X7475000D02*
D03*
X7275000D02*
D03*
X7475000Y3525000D02*
D03*
X7275000D02*
D03*
X7425000Y3525000D02*
D03*
X7325000D02*
D03*
Y3445000D02*
D03*
D73*
X13650000Y10560000D02*
D03*
X6620000Y10490000D02*
D03*
X6570000Y7890000D02*
D03*
X11200000Y5720000D02*
D03*
D74*
X6960000Y4225000D02*
D03*
Y4175000D02*
D03*
Y4125000D02*
D03*
Y3875000D02*
D03*
Y3925000D02*
D03*
Y3975000D02*
D03*
Y4025000D02*
D03*
Y4075000D02*
D03*
D85*
X7150000Y10860000D02*
D03*
Y10140000D02*
D03*
D86*
X10225000Y8950000D02*
D03*
X9925000D02*
D03*
X10225000Y9400000D02*
D03*
X9925000D02*
D03*
X10075000Y9175000D02*
D03*
X8175000Y8925000D02*
D03*
X7875000D02*
D03*
X8175000Y9375000D02*
D03*
X7875000D02*
D03*
X8025000Y9150000D02*
D03*
X12275000Y8950000D02*
D03*
X11975000D02*
D03*
X12275000Y9400000D02*
D03*
X11975000D02*
D03*
X12125000Y9175000D02*
D03*
D87*
X7602000Y3084900D02*
D03*
Y3288100D02*
D03*
X7094000Y3186500D02*
D03*
D88*
X6550000Y9825000D02*
D03*
Y11175000D02*
D03*
D89*
X6835000Y3760000D02*
D03*
Y4340000D02*
D03*
D90*
X6885000Y4482500D02*
D03*
Y3617500D02*
D03*
D91*
X6465000D02*
D03*
Y4482500D02*
D03*
%TF.MD5,73af3eccb812e534e25ccb0082674b67*%
M02*
