%TF.GenerationSoftware,Altium Limited,Altium Designer,23.1.1 (15)*%
G04 Layer_Color=16711935*
%FSLAX45Y45*%
%MOMM*%
%TF.SameCoordinates,3B15BE60-5205-462F-B1BE-89E8C5D5736D*%
%TF.FilePolarity,Negative*%
%TF.FileFunction,Soldermask,Bot*%
%TF.Part,Single*%
G01*
G75*
%TA.AperFunction,ComponentPad*%
%ADD162C,5.40320*%
%ADD163C,1.72720*%
%ADD164C,1.27020*%
%ADD165C,0.20320*%
%ADD166O,3.20320X2.10320*%
%ADD167C,1.20000*%
%ADD168O,2.30000X1.10000*%
%ADD169O,2.00000X1.10000*%
D162*
X7150000Y10860000D02*
D03*
Y10140000D02*
D03*
D163*
X10225000Y8950000D02*
D03*
X9925000D02*
D03*
X10225000Y9400000D02*
D03*
X9925000D02*
D03*
X10075000Y9175000D02*
D03*
X8175000Y8925000D02*
D03*
X7875000D02*
D03*
X8175000Y9375000D02*
D03*
X7875000D02*
D03*
X8025000Y9150000D02*
D03*
X12275000Y8950000D02*
D03*
X11975000D02*
D03*
X12275000Y9400000D02*
D03*
X11975000D02*
D03*
X12125000Y9175000D02*
D03*
D164*
X7602000Y3084900D02*
D03*
Y3288100D02*
D03*
X7094000Y3186500D02*
D03*
D165*
X6600000Y9200000D02*
D03*
Y3200000D02*
D03*
X13600000D02*
D03*
Y9775000D02*
D03*
D166*
X6550000Y9825000D02*
D03*
Y11175000D02*
D03*
D167*
X6835000Y3760000D02*
D03*
Y4340000D02*
D03*
D168*
X6885000Y4482500D02*
D03*
Y3617500D02*
D03*
D169*
X6465000D02*
D03*
Y4482500D02*
D03*
%TF.MD5,34f1982a69fe891d42a1d59c9c4c039e*%
M02*
