%TF.GenerationSoftware,Altium Limited,Altium Designer,23.1.1 (15)*%
G04 Layer_Color=128*
%FSLAX45Y45*%
%MOMM*%
%TF.SameCoordinates,3B15BE60-5205-462F-B1BE-89E8C5D5736D*%
%TF.FilePolarity,Positive*%
%TF.FileFunction,Drillmap*%
%TF.Part,Single*%
G01*
G75*
%TA.AperFunction,NonConductor*%
%ADD188C,0.12700*%
D188*
X7005000Y10860000D02*
X7295000D01*
X7150000Y10715000D02*
Y11005000D01*
X10175000Y8950000D02*
X10275000D01*
X10225000Y8900000D02*
Y9000000D01*
X9875000Y8950000D02*
X9975000D01*
X9925000Y8900000D02*
Y9000000D01*
X10175000Y9400000D02*
X10275000D01*
X10225000Y9350000D02*
Y9450000D01*
X9875000Y9400000D02*
X9975000D01*
X9925000Y9350000D02*
Y9450000D01*
X9997500Y9175000D02*
X10152500D01*
X10075000Y9097500D02*
Y9252500D01*
X8125000Y8925000D02*
X8225000D01*
X8175000Y8875000D02*
Y8975000D01*
X7825000Y8925000D02*
X7925000D01*
X7875000Y8875000D02*
Y8975000D01*
X8125000Y9375000D02*
X8225000D01*
X8175000Y9325000D02*
Y9425000D01*
X7825000Y9375000D02*
X7925000D01*
X7875000Y9325000D02*
Y9425000D01*
X7947500Y9150000D02*
X8102500D01*
X8025000Y9072500D02*
Y9227500D01*
X12225000Y8950000D02*
X12325000D01*
X12275000Y8900000D02*
Y9000000D01*
X11925001Y8950000D02*
X12025000D01*
X11975000Y8900000D02*
Y9000000D01*
X12225000Y9400000D02*
X12325000D01*
X12275000Y9350000D02*
Y9450000D01*
X11925001Y9400000D02*
X12025000D01*
X11975000Y9350000D02*
Y9450000D01*
X12047500Y9175000D02*
X12202500D01*
X12125000Y9097500D02*
Y9252500D01*
X7548650Y3084900D02*
X7655350D01*
X7602000Y3031550D02*
Y3138250D01*
X7548650Y3288100D02*
X7655350D01*
X7602000Y3234750D02*
Y3341450D01*
X7040650Y3186500D02*
X7147350D01*
X7094000Y3133150D02*
Y3239850D01*
X6400000Y9200000D02*
X6800000D01*
X6600000Y9000000D02*
Y9400000D01*
X7005000Y10140000D02*
X7295000D01*
X7150000Y9995000D02*
Y10285000D01*
X6505000Y9825000D02*
X6595000D01*
X6550000Y9780000D02*
Y9870000D01*
X6505000Y11175000D02*
X6595000D01*
X6550000Y11130000D02*
Y11220000D01*
X6400000Y3200000D02*
X6800000D01*
X6600000Y3000000D02*
Y3400000D01*
X13400000Y3200000D02*
X13800000D01*
X13600000Y3000000D02*
Y3400000D01*
X13400000Y9775000D02*
X13800000D01*
X13600000Y9575000D02*
Y9975000D01*
X6805000Y3760000D02*
X6865000D01*
X6835000Y3730000D02*
Y3790000D01*
X6805000Y4340000D02*
X6865000D01*
X6835000Y4310000D02*
Y4370000D01*
X6857500Y4482500D02*
X6912500D01*
X6885000Y4455000D02*
Y4510000D01*
X6857500Y3617500D02*
X6912500D01*
X6885000Y3590000D02*
Y3645000D01*
X6437500Y3617500D02*
X6492500D01*
X6465000Y3590000D02*
Y3645000D01*
X6437500Y4482500D02*
X6492500D01*
X6465000Y4455000D02*
Y4510000D01*
X11595000Y4330000D02*
X11625000D01*
X11610000Y4315000D02*
Y4345000D01*
X13295000Y7940000D02*
X13325000D01*
X13310001Y7925000D02*
Y7955000D01*
X13225000Y7940000D02*
X13255000D01*
X13239999Y7925000D02*
Y7955000D01*
X13295000Y7870000D02*
X13325000D01*
X13310001Y7855000D02*
Y7885000D01*
X13225000Y7870000D02*
X13255000D01*
X13239999Y7855000D02*
Y7885000D01*
X9225000Y5070000D02*
X9255000D01*
X9240000Y5055000D02*
Y5085000D01*
X9995000Y4480000D02*
X10025000D01*
X10010000Y4465000D02*
Y4495000D01*
X9655000Y4270000D02*
X9685000D01*
X9670000Y4255000D02*
Y4285000D01*
X10045000Y5520000D02*
X10075000D01*
X10060000Y5505000D02*
Y5535000D01*
X9025000Y5140000D02*
X9055000D01*
X9040000Y5125000D02*
Y5155000D01*
X7475000Y4510000D02*
X7505000D01*
X7490000Y4495000D02*
Y4525000D01*
X7425000Y3820000D02*
X7455000D01*
X7440000Y3805000D02*
Y3835000D01*
X7155000Y3820000D02*
X7185000D01*
X7170000Y3805000D02*
Y3835000D01*
X10445000Y3430000D02*
X10475000D01*
X10460000Y3415000D02*
Y3445000D01*
X10515000Y3230000D02*
X10545000D01*
X10530000Y3215000D02*
Y3245000D01*
X9555000Y4150000D02*
X9585000D01*
X9570000Y4135000D02*
Y4165000D01*
X6360300Y6002658D02*
X6390300D01*
X6375300Y5987658D02*
Y6017658D01*
X6360300Y5932658D02*
X6390300D01*
X6375300Y5917658D02*
Y5947658D01*
X6360300Y5862658D02*
X6390300D01*
X6375300Y5847658D02*
Y5877658D01*
X6440300Y6072658D02*
X6470300D01*
X6455300Y6057658D02*
Y6087658D01*
X6440300Y6002658D02*
X6470300D01*
X6455300Y5987658D02*
Y6017658D01*
X6440300Y5932658D02*
X6470300D01*
X6455300Y5917658D02*
Y5947658D01*
X6440300Y5862658D02*
X6470300D01*
X6455300Y5847658D02*
Y5877658D01*
X6360300Y6072658D02*
X6390300D01*
X6375300Y6057658D02*
Y6087658D01*
X12975000Y3030000D02*
X13005000D01*
X12989999Y3015000D02*
Y3045000D01*
X6465000Y4910000D02*
X6495000D01*
X6480000Y4895000D02*
Y4925000D01*
X6465000Y4990000D02*
X6495000D01*
X6480000Y4975000D02*
Y5005000D01*
X6465000Y5070000D02*
X6495000D01*
X6480000Y5055000D02*
Y5085000D01*
X6465000Y5150000D02*
X6495000D01*
X6480000Y5135000D02*
Y5165000D01*
X6465000Y5220000D02*
X6495000D01*
X6480000Y5205000D02*
Y5235000D01*
X6465000Y5290000D02*
X6495000D01*
X6480000Y5275000D02*
Y5305000D01*
X6465000Y5360000D02*
X6495000D01*
X6480000Y5345000D02*
Y5375000D01*
X6465000Y5430000D02*
X6495000D01*
X6480000Y5415000D02*
Y5445000D01*
X6395000Y5430000D02*
X6425000D01*
X6410000Y5415000D02*
Y5445000D01*
X6395000Y5360000D02*
X6425000D01*
X6410000Y5345000D02*
Y5375000D01*
X6395000Y5290000D02*
X6425000D01*
X6410000Y5275000D02*
Y5305000D01*
X6395000Y5220000D02*
X6425000D01*
X6410000Y5205000D02*
Y5235000D01*
X6395000Y5150000D02*
X6425000D01*
X6410000Y5135000D02*
Y5165000D01*
X6395000Y5070000D02*
X6425000D01*
X6410000Y5055000D02*
Y5085000D01*
X6395000Y4990000D02*
X6425000D01*
X6410000Y4975000D02*
Y5005000D01*
X6395000Y4910000D02*
X6425000D01*
X6410000Y4895000D02*
Y4925000D01*
X6535000Y5430000D02*
X6565000D01*
X6550000Y5415000D02*
Y5445000D01*
X6535000Y5360000D02*
X6565000D01*
X6550000Y5345000D02*
Y5375000D01*
X6535000Y5290000D02*
X6565000D01*
X6550000Y5275000D02*
Y5305000D01*
X6535000Y5220000D02*
X6565000D01*
X6550000Y5205000D02*
Y5235000D01*
X6535000Y5150000D02*
X6565000D01*
X6550000Y5135000D02*
Y5165000D01*
X6535000Y5070000D02*
X6565000D01*
X6550000Y5055000D02*
Y5085000D01*
X6535000Y4990000D02*
X6565000D01*
X6550000Y4975000D02*
Y5005000D01*
X6535000Y4910000D02*
X6565000D01*
X6550000Y4895000D02*
Y4925000D01*
X6615000Y5430000D02*
X6645000D01*
X6630000Y5415000D02*
Y5445000D01*
X6615000Y5360000D02*
X6645000D01*
X6630000Y5345000D02*
Y5375000D01*
X6615000Y5290000D02*
X6645000D01*
X6630000Y5275000D02*
Y5305000D01*
X6615000Y5220000D02*
X6645000D01*
X6630000Y5205000D02*
Y5235000D01*
X6615000Y5150000D02*
X6645000D01*
X6630000Y5135000D02*
Y5165000D01*
X6615000Y5070000D02*
X6645000D01*
X6630000Y5055000D02*
Y5085000D01*
X6615000Y4990000D02*
X6645000D01*
X6630000Y4975000D02*
Y5005000D01*
X6615000Y4910000D02*
X6645000D01*
X6630000Y4895000D02*
Y4925000D01*
X12455000Y2950000D02*
X12485000D01*
X12470000Y2935000D02*
Y2965000D01*
X12535000Y2950000D02*
X12565000D01*
X12550000Y2935000D02*
Y2965000D01*
X12615000Y2950000D02*
X12645000D01*
X12630000Y2935000D02*
Y2965000D01*
X12695000Y2950000D02*
X12725000D01*
X12710000Y2935000D02*
Y2965000D01*
X12765000Y2950000D02*
X12795000D01*
X12780000Y2935000D02*
Y2965000D01*
X12835001Y2950000D02*
X12864999D01*
X12850000Y2935000D02*
Y2965000D01*
X12905000Y2950000D02*
X12935001D01*
X12920000Y2935000D02*
Y2965000D01*
X12975000Y2950000D02*
X13005000D01*
X12989999Y2935000D02*
Y2965000D01*
X12455000Y3030000D02*
X12485000D01*
X12470000Y3015000D02*
Y3045000D01*
X12535000Y3030000D02*
X12565000D01*
X12550000Y3015000D02*
Y3045000D01*
X12615000Y3030000D02*
X12645000D01*
X12630000Y3015000D02*
Y3045000D01*
X12695000Y3030000D02*
X12725000D01*
X12710000Y3015000D02*
Y3045000D01*
X12765000Y3030000D02*
X12795000D01*
X12780000Y3015000D02*
Y3045000D01*
X12835001Y3030000D02*
X12864999D01*
X12850000Y3015000D02*
Y3045000D01*
X12905000Y3030000D02*
X12935001D01*
X12920000Y3015000D02*
Y3045000D01*
X12455000Y3170000D02*
X12485000D01*
X12470000Y3155000D02*
Y3185000D01*
X12535000Y3170000D02*
X12565000D01*
X12550000Y3155000D02*
Y3185000D01*
X12615000Y3170000D02*
X12645000D01*
X12630000Y3155000D02*
Y3185000D01*
X12695000Y3170000D02*
X12725000D01*
X12710000Y3155000D02*
Y3185000D01*
X12765000Y3170000D02*
X12795000D01*
X12780000Y3155000D02*
Y3185000D01*
X12835001Y3170000D02*
X12864999D01*
X12850000Y3155000D02*
Y3185000D01*
X12905000Y3170000D02*
X12935001D01*
X12920000Y3155000D02*
Y3185000D01*
X12975000Y3170000D02*
X13005000D01*
X12989999Y3155000D02*
Y3185000D01*
X12975000Y3100000D02*
X13005000D01*
X12989999Y3085000D02*
Y3115000D01*
X12905000Y3100000D02*
X12935001D01*
X12920000Y3085000D02*
Y3115000D01*
X12835001Y3100000D02*
X12864999D01*
X12850000Y3085000D02*
Y3115000D01*
X12765000Y3100000D02*
X12795000D01*
X12780000Y3085000D02*
Y3115000D01*
X12695000Y3100000D02*
X12725000D01*
X12710000Y3085000D02*
Y3115000D01*
X12615000Y3100000D02*
X12645000D01*
X12630000Y3085000D02*
Y3115000D01*
X12535000Y3100000D02*
X12565000D01*
X12550000Y3085000D02*
Y3115000D01*
X12455000Y3100000D02*
X12485000D01*
X12470000Y3085000D02*
Y3115000D01*
X12675000Y4000000D02*
X12705000D01*
X12690000Y3985000D02*
Y4015000D01*
X12814999Y4030000D02*
X12845000D01*
X12830000Y4015000D02*
Y4045000D01*
X9557218Y5400000D02*
X9587218D01*
X9572218Y5385000D02*
Y5415000D01*
X9445000Y4170000D02*
X9475000D01*
X9460000Y4155000D02*
Y4185000D01*
X10085000Y5410000D02*
X10115000D01*
X10100000Y5395000D02*
Y5425000D01*
X10195000Y5520000D02*
X10225000D01*
X10210000Y5505000D02*
Y5535000D01*
X6795000Y5830000D02*
X6825000D01*
X6810000Y5815000D02*
Y5845000D01*
X11415000Y7260000D02*
X11445000D01*
X11430000Y7245000D02*
Y7275000D01*
X11415000Y7320000D02*
X11445000D01*
X11430000Y7305000D02*
Y7335000D01*
X11415000Y7400000D02*
X11445000D01*
X11430000Y7385000D02*
Y7415000D01*
X11415000Y7480000D02*
X11445000D01*
X11430000Y7465000D02*
Y7495000D01*
X13475000Y7960000D02*
X13505000D01*
X13489999Y7945000D02*
Y7975000D01*
X13464999Y7360000D02*
X13495000D01*
X13480000Y7345000D02*
Y7375000D01*
X13251678Y6722405D02*
X13281677D01*
X13266678Y6707405D02*
Y6737405D01*
X13330637Y6390240D02*
X13360637D01*
X13345638Y6375240D02*
Y6405240D01*
X12745000Y7470000D02*
X12775000D01*
X12760000Y7455000D02*
Y7485000D01*
X11743189Y11099973D02*
X11773189D01*
X11758189Y11084974D02*
Y11114973D01*
X11739784Y11171657D02*
X11769784D01*
X11754784Y11156657D02*
Y11186657D01*
X11739784Y11241657D02*
X11769784D01*
X11754784Y11226657D02*
Y11256657D01*
X9825000Y4270000D02*
X9855000D01*
X9840000Y4255000D02*
Y4285000D01*
X6395000Y6980000D02*
X6425000D01*
X6410000Y6965000D02*
Y6995000D01*
X12035000Y3930000D02*
X12065000D01*
X12050000Y3915000D02*
Y3945000D01*
X9895000Y3330000D02*
X9925000D01*
X9910000Y3315000D02*
Y3345000D01*
X10045000Y3330000D02*
X10075000D01*
X10060000Y3315000D02*
Y3345000D01*
X10205000Y3340000D02*
X10235000D01*
X10220000Y3325000D02*
Y3355000D01*
X13114999Y9990000D02*
X13145000D01*
X13130000Y9975000D02*
Y10005000D01*
X11995000Y10550000D02*
X12025000D01*
X12010000Y10535000D02*
Y10565000D01*
X11995000Y10490000D02*
X12025000D01*
X12010000Y10475000D02*
Y10505000D01*
X11995000Y10420000D02*
X12025000D01*
X12010000Y10405000D02*
Y10435000D01*
X12085000Y10550000D02*
X12115000D01*
X12100000Y10535000D02*
Y10565000D01*
X12085000Y10490000D02*
X12115000D01*
X12100000Y10475000D02*
Y10505000D01*
X12085000Y10420000D02*
X12115000D01*
X12100000Y10405000D02*
Y10435000D01*
X12195000Y10550000D02*
X12225000D01*
X12210000Y10535000D02*
Y10565000D01*
X12195000Y10490000D02*
X12225000D01*
X12210000Y10475000D02*
Y10505000D01*
X12195000Y10420000D02*
X12225000D01*
X12210000Y10405000D02*
Y10435000D01*
X13845000Y6470000D02*
X13875000D01*
X13860001Y6455000D02*
Y6485000D01*
X13845000Y6400000D02*
X13875000D01*
X13860001Y6385000D02*
Y6415000D01*
X13845000Y6340000D02*
X13875000D01*
X13860001Y6325000D02*
Y6355000D01*
X13755000Y7960000D02*
X13785001D01*
X13770000Y7945000D02*
Y7975000D01*
X13695000Y7960000D02*
X13725000D01*
X13710001Y7945000D02*
Y7975000D01*
X13635001Y7960000D02*
X13664999D01*
X13650000Y7945000D02*
Y7975000D01*
X13195000Y10650000D02*
X13225000D01*
X13210001Y10635000D02*
Y10665000D01*
X12125000Y11030000D02*
X12155000D01*
X12140000Y11015000D02*
Y11045000D01*
X12185000Y11030000D02*
X12215000D01*
X12200000Y11015000D02*
Y11045000D01*
X12255000Y11030000D02*
X12285000D01*
X12270000Y11015000D02*
Y11045000D01*
X12125000Y11100000D02*
X12155000D01*
X12140000Y11085000D02*
Y11115000D01*
X12185000Y11100000D02*
X12215000D01*
X12200000Y11085000D02*
Y11115000D01*
X12255000Y11100000D02*
X12285000D01*
X12270000Y11085000D02*
Y11115000D01*
X12315000Y10730000D02*
X12345000D01*
X12330000Y10715000D02*
Y10745000D01*
X12315000Y10800000D02*
X12345000D01*
X12330000Y10785000D02*
Y10815000D01*
X12315000Y10860000D02*
X12345000D01*
X12330000Y10845000D02*
Y10875000D01*
X13064999Y10480000D02*
X13095000D01*
X13080000Y10465000D02*
Y10495000D01*
X12305000Y10420000D02*
X12335000D01*
X12320000Y10405000D02*
Y10435000D01*
X12305000Y10490000D02*
X12335000D01*
X12320000Y10475000D02*
Y10505000D01*
X12305000Y10550000D02*
X12335000D01*
X12320000Y10535000D02*
Y10565000D01*
X11192764Y10115706D02*
X11222764D01*
X11207764Y10100706D02*
Y10130706D01*
X11192764Y10185706D02*
X11222764D01*
X11207764Y10170706D02*
Y10200706D01*
X11192764Y10265706D02*
X11222764D01*
X11207764Y10250706D02*
Y10280706D01*
X11102764Y10115706D02*
X11132764D01*
X11117764Y10100706D02*
Y10130706D01*
X11102764Y10195706D02*
X11132764D01*
X11117764Y10180706D02*
Y10210706D01*
X11102764Y10265706D02*
X11132764D01*
X11117764Y10250706D02*
Y10280706D01*
X10202764Y9805706D02*
X10232764D01*
X10217764Y9790706D02*
Y9820706D01*
X10202764Y9875706D02*
X10232764D01*
X10217764Y9860706D02*
Y9890706D01*
X10202764Y9945706D02*
X10232764D01*
X10217764Y9930706D02*
Y9960706D01*
X11015000Y11280000D02*
X11045000D01*
X11030000Y11265000D02*
Y11295000D01*
X10935000Y11280000D02*
X10965000D01*
X10950000Y11265000D02*
Y11295000D01*
X10855000Y11280000D02*
X10885000D01*
X10870000Y11265000D02*
Y11295000D01*
X10785000Y11280000D02*
X10815000D01*
X10800000Y11265000D02*
Y11295000D01*
X10785000Y11200000D02*
X10815000D01*
X10800000Y11185000D02*
Y11215000D01*
X10855000Y11200000D02*
X10885000D01*
X10870000Y11185000D02*
Y11215000D01*
X10935000Y11200000D02*
X10965000D01*
X10950000Y11185000D02*
Y11215000D01*
X11015000Y11200000D02*
X11045000D01*
X11030000Y11185000D02*
Y11215000D01*
X10785000Y11130000D02*
X10815000D01*
X10800000Y11115000D02*
Y11145000D01*
X10855000Y11130000D02*
X10885000D01*
X10870000Y11115000D02*
Y11145000D01*
X10935000Y11130000D02*
X10965000D01*
X10950000Y11115000D02*
Y11145000D01*
X11015000Y11130000D02*
X11045000D01*
X11030000Y11115000D02*
Y11145000D01*
X10785000Y11060000D02*
X10815000D01*
X10800000Y11045000D02*
Y11075000D01*
X10855000Y11060000D02*
X10885000D01*
X10870000Y11045000D02*
Y11075000D01*
X10935000Y11060000D02*
X10965000D01*
X10950000Y11045000D02*
Y11075000D01*
X11015000Y11060000D02*
X11045000D01*
X11030000Y11045000D02*
Y11075000D01*
X10945000Y10280000D02*
X10975000D01*
X10960000Y10265000D02*
Y10295000D01*
X10575000Y10210000D02*
X10605000D01*
X10590000Y10195000D02*
Y10225000D01*
X10085000Y10290000D02*
X10115000D01*
X10100000Y10275000D02*
Y10305000D01*
X10345000Y10820000D02*
X10375000D01*
X10360000Y10805000D02*
Y10835000D01*
X8055000Y9800000D02*
X8085000D01*
X8070000Y9785000D02*
Y9815000D01*
X7955000Y9800000D02*
X7985000D01*
X7970000Y9785000D02*
Y9815000D01*
X7865000Y9800000D02*
X7895000D01*
X7880000Y9785000D02*
Y9815000D01*
X7785000Y9800000D02*
X7815000D01*
X7800000Y9785000D02*
Y9815000D01*
X7715000Y9800000D02*
X7745000D01*
X7730000Y9785000D02*
Y9815000D01*
X7635000Y9800000D02*
X7665000D01*
X7650000Y9785000D02*
Y9815000D01*
X7565000Y9800000D02*
X7595000D01*
X7580000Y9785000D02*
Y9815000D01*
X9285000Y10630000D02*
X9315000D01*
X9300000Y10615000D02*
Y10645000D01*
X9015000Y10920000D02*
X9045000D01*
X9030000Y10905000D02*
Y10935000D01*
X8875000Y10920000D02*
X8905000D01*
X8890000Y10905000D02*
Y10935000D01*
X9135000Y10920000D02*
X9165000D01*
X9150000Y10905000D02*
Y10935000D01*
X9365000Y10410000D02*
X9395000D01*
X9380000Y10395000D02*
Y10425000D01*
X9325000Y10290000D02*
X9355000D01*
X9340000Y10275000D02*
Y10305000D01*
X8575000Y11050000D02*
X8605000D01*
X8590000Y11035000D02*
Y11065000D01*
X8495000Y11050000D02*
X8525000D01*
X8510000Y11035000D02*
Y11065000D01*
X8415000Y11050000D02*
X8445000D01*
X8430000Y11035000D02*
Y11065000D01*
X8345000Y11050000D02*
X8375000D01*
X8360000Y11035000D02*
Y11065000D01*
X8275000Y11050000D02*
X8305000D01*
X8290000Y11035000D02*
Y11065000D01*
X8205000Y11050000D02*
X8235000D01*
X8220000Y11035000D02*
Y11065000D01*
X8135000Y11050000D02*
X8165000D01*
X8150000Y11035000D02*
Y11065000D01*
X8065000Y11050000D02*
X8095000D01*
X8080000Y11035000D02*
Y11065000D01*
X7995000Y11050000D02*
X8025000D01*
X8010000Y11035000D02*
Y11065000D01*
X7915000Y11050000D02*
X7945000D01*
X7930000Y11035000D02*
Y11065000D01*
X8575000Y11120000D02*
X8605000D01*
X8590000Y11105000D02*
Y11135000D01*
X8495000Y11120000D02*
X8525000D01*
X8510000Y11105000D02*
Y11135000D01*
X8415000Y11120000D02*
X8445000D01*
X8430000Y11105000D02*
Y11135000D01*
X8345000Y11120000D02*
X8375000D01*
X8360000Y11105000D02*
Y11135000D01*
X8275000Y11120000D02*
X8305000D01*
X8290000Y11105000D02*
Y11135000D01*
X8205000Y11120000D02*
X8235000D01*
X8220000Y11105000D02*
Y11135000D01*
X8135000Y11120000D02*
X8165000D01*
X8150000Y11105000D02*
Y11135000D01*
X8065000Y11120000D02*
X8095000D01*
X8080000Y11105000D02*
Y11135000D01*
X7995000Y11120000D02*
X8025000D01*
X8010000Y11105000D02*
Y11135000D01*
X7915000Y11120000D02*
X7945000D01*
X7930000Y11105000D02*
Y11135000D01*
X8575000Y11190000D02*
X8605000D01*
X8590000Y11175000D02*
Y11205000D01*
X8495000Y11190000D02*
X8525000D01*
X8510000Y11175000D02*
Y11205000D01*
X8415000Y11190000D02*
X8445000D01*
X8430000Y11175000D02*
Y11205000D01*
X8345000Y11190000D02*
X8375000D01*
X8360000Y11175000D02*
Y11205000D01*
X8275000Y11190000D02*
X8305000D01*
X8290000Y11175000D02*
Y11205000D01*
X8205000Y11190000D02*
X8235000D01*
X8220000Y11175000D02*
Y11205000D01*
X8135000Y11190000D02*
X8165000D01*
X8150000Y11175000D02*
Y11205000D01*
X8065000Y11190000D02*
X8095000D01*
X8080000Y11175000D02*
Y11205000D01*
X7995000Y11190000D02*
X8025000D01*
X8010000Y11175000D02*
Y11205000D01*
X7915000Y11190000D02*
X7945000D01*
X7930000Y11175000D02*
Y11205000D01*
X7915000Y11270000D02*
X7945000D01*
X7930000Y11255000D02*
Y11285000D01*
X7995000Y11270000D02*
X8025000D01*
X8010000Y11255000D02*
Y11285000D01*
X8065000Y11270000D02*
X8095000D01*
X8080000Y11255000D02*
Y11285000D01*
X8135000Y11270000D02*
X8165000D01*
X8150000Y11255000D02*
Y11285000D01*
X8205000Y11270000D02*
X8235000D01*
X8220000Y11255000D02*
Y11285000D01*
X8275000Y11270000D02*
X8305000D01*
X8290000Y11255000D02*
Y11285000D01*
X8345000Y11270000D02*
X8375000D01*
X8360000Y11255000D02*
Y11285000D01*
X8415000Y11270000D02*
X8445000D01*
X8430000Y11255000D02*
Y11285000D01*
X8495000Y11270000D02*
X8525000D01*
X8510000Y11255000D02*
Y11285000D01*
X8575000Y11270000D02*
X8605000D01*
X8590000Y11255000D02*
Y11285000D01*
X8045000Y10320000D02*
X8075000D01*
X8060000Y10305000D02*
Y10335000D01*
X7975000Y10320000D02*
X8005000D01*
X7990000Y10305000D02*
Y10335000D01*
X7895000Y10320000D02*
X7925000D01*
X7910000Y10305000D02*
Y10335000D01*
X7815000Y10320000D02*
X7845000D01*
X7830000Y10305000D02*
Y10335000D01*
X7725000Y10320000D02*
X7755000D01*
X7740000Y10305000D02*
Y10335000D01*
X7625349Y10318751D02*
X7655349D01*
X7640349Y10303751D02*
Y10333751D01*
X7535000Y10320000D02*
X7565000D01*
X7550000Y10305000D02*
Y10335000D01*
X9025000Y10470000D02*
X9055000D01*
X9040000Y10455000D02*
Y10485000D01*
X7765000Y10940000D02*
X7795000D01*
X7780000Y10925000D02*
Y10955000D01*
X7705000Y10940000D02*
X7735000D01*
X7720000Y10925000D02*
Y10955000D01*
X7635000Y10940000D02*
X7665000D01*
X7650000Y10925000D02*
Y10955000D01*
X7555000Y10940000D02*
X7585000D01*
X7570000Y10925000D02*
Y10955000D01*
X7755000Y11000000D02*
X7785000D01*
X7770000Y10985000D02*
Y11015000D01*
X7685000Y11000000D02*
X7715000D01*
X7700000Y10985000D02*
Y11015000D01*
X7625000Y11000000D02*
X7655000D01*
X7640000Y10985000D02*
Y11015000D01*
X7555000Y11000000D02*
X7585000D01*
X7570000Y10985000D02*
Y11015000D01*
X12705000Y8010000D02*
X12735000D01*
X12720000Y7995000D02*
Y8025000D01*
X12705000Y8080000D02*
X12735000D01*
X12720000Y8065000D02*
Y8095000D01*
X12705000Y8140000D02*
X12735000D01*
X12720000Y8125000D02*
Y8155000D01*
X12705000Y8210000D02*
X12735000D01*
X12720000Y8195000D02*
Y8225000D01*
X12705000Y8270000D02*
X12735000D01*
X12720000Y8255000D02*
Y8285000D01*
X12705000Y8340000D02*
X12735000D01*
X12720000Y8325000D02*
Y8355000D01*
X12635000Y8270000D02*
X12665000D01*
X12650000Y8255000D02*
Y8285000D01*
X12635000Y8340000D02*
X12665000D01*
X12650000Y8325000D02*
Y8355000D01*
X12635000Y8140000D02*
X12665000D01*
X12650000Y8125000D02*
Y8155000D01*
X12635000Y8210000D02*
X12665000D01*
X12650000Y8195000D02*
Y8225000D01*
X12635000Y8010000D02*
X12665000D01*
X12650000Y7995000D02*
Y8025000D01*
X12635000Y8080000D02*
X12665000D01*
X12650000Y8065000D02*
Y8095000D01*
X13225000Y7700000D02*
X13255000D01*
X13239999Y7685000D02*
Y7715000D01*
X13295000Y7700000D02*
X13325000D01*
X13310001Y7685000D02*
Y7715000D01*
X13225000Y7760000D02*
X13255000D01*
X13239999Y7745000D02*
Y7775000D01*
X13295000Y7760000D02*
X13325000D01*
X13310001Y7745000D02*
Y7775000D01*
X13225000Y7810000D02*
X13255000D01*
X13239999Y7795000D02*
Y7825000D01*
X13295000Y7810000D02*
X13325000D01*
X13310001Y7795000D02*
Y7825000D01*
X12845000Y7940000D02*
X12875000D01*
X12860001Y7925000D02*
Y7955000D01*
X12845000Y7870000D02*
X12875000D01*
X12860001Y7855000D02*
Y7885000D01*
X12775000Y7940000D02*
X12805000D01*
X12790000Y7925000D02*
Y7955000D01*
X12775000Y7870000D02*
X12805000D01*
X12790000Y7855000D02*
Y7885000D01*
X12700501Y7944000D02*
X12730501D01*
X12715501Y7929000D02*
Y7959000D01*
X12700501Y7874000D02*
X12730501D01*
X12715501Y7859000D02*
Y7889000D01*
X12635000Y7940000D02*
X12665000D01*
X12650000Y7925000D02*
Y7955000D01*
X12635000Y7870000D02*
X12665000D01*
X12650000Y7855000D02*
Y7885000D01*
X12545000Y7330000D02*
X12575000D01*
X12560000Y7315000D02*
Y7345000D01*
X12465000Y7330000D02*
X12495000D01*
X12480000Y7315000D02*
Y7345000D01*
X12465000Y7390000D02*
X12495000D01*
X12480000Y7375000D02*
Y7405000D01*
X12545000Y7390000D02*
X12575000D01*
X12560000Y7375000D02*
Y7405000D01*
X12385000Y7450000D02*
X12415000D01*
X12400000Y7435000D02*
Y7465000D01*
X12465000Y7450000D02*
X12495000D01*
X12480000Y7435000D02*
Y7465000D01*
X12545000Y7450000D02*
X12575000D01*
X12560000Y7435000D02*
Y7465000D01*
X12545000Y7510000D02*
X12575000D01*
X12560000Y7495000D02*
Y7525000D01*
X12465000Y7510000D02*
X12495000D01*
X12480000Y7495000D02*
Y7525000D01*
X12385000Y7510000D02*
X12415000D01*
X12400000Y7495000D02*
Y7525000D01*
X12305000Y7510000D02*
X12335000D01*
X12320000Y7495000D02*
Y7525000D01*
X12545000Y7560000D02*
X12575000D01*
X12560000Y7545000D02*
Y7575000D01*
X12465000Y7560000D02*
X12495000D01*
X12480000Y7545000D02*
Y7575000D01*
X12385000Y7560000D02*
X12415000D01*
X12400000Y7545000D02*
Y7575000D01*
X12305000Y7560000D02*
X12335000D01*
X12320000Y7545000D02*
Y7575000D01*
X12545000Y7620000D02*
X12575000D01*
X12560000Y7605000D02*
Y7635000D01*
X12465000Y7620000D02*
X12495000D01*
X12480000Y7605000D02*
Y7635000D01*
X12385000Y7620000D02*
X12415000D01*
X12400000Y7605000D02*
Y7635000D01*
X12305000Y7620000D02*
X12335000D01*
X12320000Y7605000D02*
Y7635000D01*
X12545000Y7680000D02*
X12575000D01*
X12560000Y7665000D02*
Y7695000D01*
X12465000Y7680000D02*
X12495000D01*
X12480000Y7665000D02*
Y7695000D01*
X12385000Y7680000D02*
X12415000D01*
X12400000Y7665000D02*
Y7695000D01*
X12305000Y7680000D02*
X12335000D01*
X12320000Y7665000D02*
Y7695000D01*
X12545000Y7750000D02*
X12575000D01*
X12560000Y7735000D02*
Y7765000D01*
X12465000Y7750000D02*
X12495000D01*
X12480000Y7735000D02*
Y7765000D01*
X12385000Y7750000D02*
X12415000D01*
X12400000Y7735000D02*
Y7765000D01*
X12305000Y7750000D02*
X12335000D01*
X12320000Y7735000D02*
Y7765000D01*
X12545000Y7810000D02*
X12575000D01*
X12560000Y7795000D02*
Y7825000D01*
X12465000Y7810000D02*
X12495000D01*
X12480000Y7795000D02*
Y7825000D01*
X12385000Y7810000D02*
X12415000D01*
X12400000Y7795000D02*
Y7825000D01*
X12305000Y7810000D02*
X12335000D01*
X12320000Y7795000D02*
Y7825000D01*
X12545000Y7880000D02*
X12575000D01*
X12560000Y7865000D02*
Y7895000D01*
X12465000Y7880000D02*
X12495000D01*
X12480000Y7865000D02*
Y7895000D01*
X12385000Y7880000D02*
X12415000D01*
X12400000Y7865000D02*
Y7895000D01*
X12305000Y7880000D02*
X12335000D01*
X12320000Y7865000D02*
Y7895000D01*
X12545000Y7940000D02*
X12575000D01*
X12560000Y7925000D02*
Y7955000D01*
X12465000Y7940000D02*
X12495000D01*
X12480000Y7925000D02*
Y7955000D01*
X12385000Y7940000D02*
X12415000D01*
X12400000Y7925000D02*
Y7955000D01*
X12305000Y7940000D02*
X12335000D01*
X12320000Y7925000D02*
Y7955000D01*
X12541700Y7995000D02*
X12571700D01*
X12556700Y7980000D02*
Y8010000D01*
X12461701Y7995000D02*
X12491700D01*
X12476700Y7980000D02*
Y8010000D01*
X12381700Y7995000D02*
X12411700D01*
X12396700Y7980000D02*
Y8010000D01*
X12301700Y7995000D02*
X12331700D01*
X12316700Y7980000D02*
Y8010000D01*
X12545000Y8050000D02*
X12575000D01*
X12560000Y8035000D02*
Y8065000D01*
X12465000Y8050000D02*
X12495000D01*
X12480000Y8035000D02*
Y8065000D01*
X12385000Y8050000D02*
X12415000D01*
X12400000Y8035000D02*
Y8065000D01*
X12305000Y8050000D02*
X12335000D01*
X12320000Y8035000D02*
Y8065000D01*
X12545000Y8100000D02*
X12575000D01*
X12560000Y8085000D02*
Y8115000D01*
X12465000Y8100000D02*
X12495000D01*
X12480000Y8085000D02*
Y8115000D01*
X12385000Y8100000D02*
X12415000D01*
X12400000Y8085000D02*
Y8115000D01*
X12305000Y8100000D02*
X12335000D01*
X12320000Y8085000D02*
Y8115000D01*
X12545000Y8150000D02*
X12575000D01*
X12560000Y8135000D02*
Y8165000D01*
X12465000Y8150000D02*
X12495000D01*
X12480000Y8135000D02*
Y8165000D01*
X12385000Y8150000D02*
X12415000D01*
X12400000Y8135000D02*
Y8165000D01*
X12305000Y8150000D02*
X12335000D01*
X12320000Y8135000D02*
Y8165000D01*
X12545000Y8210000D02*
X12575000D01*
X12560000Y8195000D02*
Y8225000D01*
X12465000Y8210000D02*
X12495000D01*
X12480000Y8195000D02*
Y8225000D01*
X12385000Y8210000D02*
X12415000D01*
X12400000Y8195000D02*
Y8225000D01*
X12305000Y8210000D02*
X12335000D01*
X12320000Y8195000D02*
Y8225000D01*
X12545000Y8270000D02*
X12575000D01*
X12560000Y8255000D02*
Y8285000D01*
X12465000Y8270000D02*
X12495000D01*
X12480000Y8255000D02*
Y8285000D01*
X12385000Y8270000D02*
X12415000D01*
X12400000Y8255000D02*
Y8285000D01*
X12305000Y8270000D02*
X12335000D01*
X12320000Y8255000D02*
Y8285000D01*
X12545000Y8330000D02*
X12575000D01*
X12560000Y8315000D02*
Y8345000D01*
X12465000Y8330000D02*
X12495000D01*
X12480000Y8315000D02*
Y8345000D01*
X12385000Y8330000D02*
X12415000D01*
X12400000Y8315000D02*
Y8345000D01*
X12305000Y8330000D02*
X12335000D01*
X12320000Y8315000D02*
Y8345000D01*
X10625000Y7120000D02*
X10655000D01*
X10640000Y7105000D02*
Y7135000D01*
X10705000Y7120000D02*
X10735000D01*
X10720000Y7105000D02*
Y7135000D01*
X10785000Y7120000D02*
X10815000D01*
X10800000Y7105000D02*
Y7135000D01*
X10775000Y7350000D02*
X10805000D01*
X10790000Y7335000D02*
Y7365000D01*
X10695000Y7350000D02*
X10725000D01*
X10710000Y7335000D02*
Y7365000D01*
X10615000Y7350000D02*
X10645000D01*
X10630000Y7335000D02*
Y7365000D01*
X9265000Y7390000D02*
X9295000D01*
X9280000Y7375000D02*
Y7405000D01*
X9345000Y7390000D02*
X9375000D01*
X9360000Y7375000D02*
Y7405000D01*
X9265000Y7460000D02*
X9295000D01*
X9280000Y7445000D02*
Y7475000D01*
X9345000Y7460000D02*
X9375000D01*
X9360000Y7445000D02*
Y7475000D01*
X9255000Y7530000D02*
X9285000D01*
X9270000Y7515000D02*
Y7545000D01*
X9335000Y7530000D02*
X9365000D01*
X9350000Y7515000D02*
Y7545000D01*
X9335000Y7620000D02*
X9365000D01*
X9350000Y7605000D02*
Y7635000D01*
X9255000Y7620000D02*
X9285000D01*
X9270000Y7605000D02*
Y7635000D01*
X9805000Y8070000D02*
X9835000D01*
X9820000Y8055000D02*
Y8085000D01*
X9805000Y8140000D02*
X9835000D01*
X9820000Y8125000D02*
Y8155000D01*
X9805000Y8200000D02*
X9835000D01*
X9820000Y8185000D02*
Y8215000D01*
X9805000Y8270000D02*
X9835000D01*
X9820000Y8255000D02*
Y8285000D01*
X9805000Y8340000D02*
X9835000D01*
X9820000Y8325000D02*
Y8355000D01*
X9805000Y8390000D02*
X9835000D01*
X9820000Y8375000D02*
Y8405000D01*
X9425000Y8390000D02*
X9455000D01*
X9440000Y8375000D02*
Y8405000D01*
X9505000Y8390000D02*
X9535000D01*
X9520000Y8375000D02*
Y8405000D01*
X9585000Y8390000D02*
X9615000D01*
X9600000Y8375000D02*
Y8405000D01*
X9665000Y8390000D02*
X9695000D01*
X9680000Y8375000D02*
Y8405000D01*
X9745335Y8386095D02*
X9775335D01*
X9760335Y8371095D02*
Y8401095D01*
X9425000Y8340000D02*
X9455000D01*
X9440000Y8325000D02*
Y8355000D01*
X9505000Y8340000D02*
X9535000D01*
X9520000Y8325000D02*
Y8355000D01*
X9585000Y8340000D02*
X9615000D01*
X9600000Y8325000D02*
Y8355000D01*
X9665000Y8340000D02*
X9695000D01*
X9680000Y8325000D02*
Y8355000D01*
X9745335Y8336095D02*
X9775335D01*
X9760335Y8321095D02*
Y8351095D01*
X9425000Y8270000D02*
X9455000D01*
X9440000Y8255000D02*
Y8285000D01*
X9505000Y8270000D02*
X9535000D01*
X9520000Y8255000D02*
Y8285000D01*
X9585000Y8270000D02*
X9615000D01*
X9600000Y8255000D02*
Y8285000D01*
X9665000Y8270000D02*
X9695000D01*
X9680000Y8255000D02*
Y8285000D01*
X9745335Y8266095D02*
X9775335D01*
X9760335Y8251095D02*
Y8281095D01*
X9425000Y8200000D02*
X9455000D01*
X9440000Y8185000D02*
Y8215000D01*
X9505000Y8200000D02*
X9535000D01*
X9520000Y8185000D02*
Y8215000D01*
X9585000Y8200000D02*
X9615000D01*
X9600000Y8185000D02*
Y8215000D01*
X9665000Y8200000D02*
X9695000D01*
X9680000Y8185000D02*
Y8215000D01*
X9745335Y8196095D02*
X9775335D01*
X9760335Y8181095D02*
Y8211095D01*
X9425000Y8140000D02*
X9455000D01*
X9440000Y8125000D02*
Y8155000D01*
X9505000Y8140000D02*
X9535000D01*
X9520000Y8125000D02*
Y8155000D01*
X9585000Y8140000D02*
X9615000D01*
X9600000Y8125000D02*
Y8155000D01*
X9665000Y8140000D02*
X9695000D01*
X9680000Y8125000D02*
Y8155000D01*
X9745335Y8136095D02*
X9775335D01*
X9760335Y8121095D02*
Y8151095D01*
X9425000Y8070000D02*
X9455000D01*
X9440000Y8055000D02*
Y8085000D01*
X9505000Y8070000D02*
X9535000D01*
X9520000Y8055000D02*
Y8085000D01*
X9585000Y8070000D02*
X9615000D01*
X9600000Y8055000D02*
Y8085000D01*
X9665000Y8070000D02*
X9695000D01*
X9680000Y8055000D02*
Y8085000D01*
X9745335Y8066095D02*
X9775335D01*
X9760335Y8051095D02*
Y8081095D01*
X9815000Y7440000D02*
X9845000D01*
X9830000Y7425000D02*
Y7455000D01*
X9805000Y8000000D02*
X9835000D01*
X9820000Y7985000D02*
Y8015000D01*
X9425000Y7940000D02*
X9455000D01*
X9440000Y7925000D02*
Y7955000D01*
X9425000Y8000000D02*
X9455000D01*
X9440000Y7985000D02*
Y8015000D01*
X9505000Y8000000D02*
X9535000D01*
X9520000Y7985000D02*
Y8015000D01*
X9585000Y8000000D02*
X9615000D01*
X9600000Y7985000D02*
Y8015000D01*
X9665000Y8000000D02*
X9695000D01*
X9680000Y7985000D02*
Y8015000D01*
X9745335Y7996095D02*
X9775335D01*
X9760335Y7981095D02*
Y8011095D01*
X9495000Y7920000D02*
X9525000D01*
X9510000Y7905000D02*
Y7935000D01*
X9575000Y7920000D02*
X9605000D01*
X9590000Y7905000D02*
Y7935000D01*
X9655000Y7920000D02*
X9685000D01*
X9670000Y7905000D02*
Y7935000D01*
X9735000Y7920000D02*
X9765000D01*
X9750000Y7905000D02*
Y7935000D01*
X9815335Y7916095D02*
X9845335D01*
X9830335Y7901095D02*
Y7931095D01*
X9495000Y7860000D02*
X9525000D01*
X9510000Y7845000D02*
Y7875000D01*
X9575000Y7860000D02*
X9605000D01*
X9590000Y7845000D02*
Y7875000D01*
X9655000Y7860000D02*
X9685000D01*
X9670000Y7845000D02*
Y7875000D01*
X9735000Y7860000D02*
X9765000D01*
X9750000Y7845000D02*
Y7875000D01*
X9815335Y7856095D02*
X9845335D01*
X9830335Y7841095D02*
Y7871095D01*
X9495000Y7790000D02*
X9525000D01*
X9510000Y7775000D02*
Y7805000D01*
X9575000Y7790000D02*
X9605000D01*
X9590000Y7775000D02*
Y7805000D01*
X9655000Y7790000D02*
X9685000D01*
X9670000Y7775000D02*
Y7805000D01*
X9735000Y7790000D02*
X9765000D01*
X9750000Y7775000D02*
Y7805000D01*
X9815335Y7786095D02*
X9845335D01*
X9830335Y7771095D02*
Y7801095D01*
X9495000Y7720000D02*
X9525000D01*
X9510000Y7705000D02*
Y7735000D01*
X9575000Y7720000D02*
X9605000D01*
X9590000Y7705000D02*
Y7735000D01*
X9655000Y7720000D02*
X9685000D01*
X9670000Y7705000D02*
Y7735000D01*
X9735000Y7720000D02*
X9765000D01*
X9750000Y7705000D02*
Y7735000D01*
X9815335Y7716095D02*
X9845335D01*
X9830335Y7701095D02*
Y7731095D01*
X9495000Y7650000D02*
X9525000D01*
X9510000Y7635000D02*
Y7665000D01*
X9575000Y7650000D02*
X9605000D01*
X9590000Y7635000D02*
Y7665000D01*
X9655000Y7650000D02*
X9685000D01*
X9670000Y7635000D02*
Y7665000D01*
X9735000Y7650000D02*
X9765000D01*
X9750000Y7635000D02*
Y7665000D01*
X9815335Y7646095D02*
X9845335D01*
X9830335Y7631095D02*
Y7661095D01*
X9495000Y7580000D02*
X9525000D01*
X9510000Y7565000D02*
Y7595000D01*
X9575000Y7580000D02*
X9605000D01*
X9590000Y7565000D02*
Y7595000D01*
X9655000Y7580000D02*
X9685000D01*
X9670000Y7565000D02*
Y7595000D01*
X9735000Y7580000D02*
X9765000D01*
X9750000Y7565000D02*
Y7595000D01*
X9815335Y7576095D02*
X9845335D01*
X9830335Y7561095D02*
Y7591095D01*
X9495000Y7510000D02*
X9525000D01*
X9510000Y7495000D02*
Y7525000D01*
X9575000Y7510000D02*
X9605000D01*
X9590000Y7495000D02*
Y7525000D01*
X9655000Y7510000D02*
X9685000D01*
X9670000Y7495000D02*
Y7525000D01*
X9735000Y7510000D02*
X9765000D01*
X9750000Y7495000D02*
Y7525000D01*
X9815335Y7506095D02*
X9845335D01*
X9830335Y7491095D02*
Y7521095D01*
X9734665Y7443905D02*
X9764665D01*
X9749665Y7428905D02*
Y7458905D01*
X9654665Y7443905D02*
X9684665D01*
X9669665Y7428905D02*
Y7458905D01*
X9574665Y7443905D02*
X9604665D01*
X9589665Y7428905D02*
Y7458905D01*
X9494665Y7443905D02*
X9524665D01*
X9509665Y7428905D02*
Y7458905D01*
X8715000Y7560000D02*
X8745000D01*
X8730000Y7545000D02*
Y7575000D01*
X8715000Y7640000D02*
X8745000D01*
X8730000Y7625000D02*
Y7655000D01*
X8715000Y7720000D02*
X8745000D01*
X8730000Y7705000D02*
Y7735000D01*
X8805000Y7720000D02*
X8835000D01*
X8820000Y7705000D02*
Y7735000D01*
X8805000Y7640000D02*
X8835000D01*
X8820000Y7625000D02*
Y7655000D01*
X8805000Y7560000D02*
X8835000D01*
X8820000Y7545000D02*
Y7575000D01*
X8875000Y7730000D02*
X8905000D01*
X8890000Y7715000D02*
Y7745000D01*
X8875000Y7650000D02*
X8905000D01*
X8890000Y7635000D02*
Y7665000D01*
X8875000Y7570000D02*
X8905000D01*
X8890000Y7555000D02*
Y7585000D01*
X8945000Y7730000D02*
X8975000D01*
X8960000Y7715000D02*
Y7745000D01*
X8945000Y7650000D02*
X8975000D01*
X8960000Y7635000D02*
Y7665000D01*
X8945000Y7570000D02*
X8975000D01*
X8960000Y7555000D02*
Y7585000D01*
X9015000Y7730000D02*
X9045000D01*
X9030000Y7715000D02*
Y7745000D01*
X9015000Y7650000D02*
X9045000D01*
X9030000Y7635000D02*
Y7665000D01*
X9015000Y7570000D02*
X9045000D01*
X9030000Y7555000D02*
Y7585000D01*
X7445000Y7390000D02*
X7475000D01*
X7460000Y7375000D02*
Y7405000D01*
X7445000Y7310000D02*
X7475000D01*
X7460000Y7295000D02*
Y7325000D01*
X7445000Y7230000D02*
X7475000D01*
X7460000Y7215000D02*
Y7245000D01*
X7375000Y7230000D02*
X7405000D01*
X7390000Y7215000D02*
Y7245000D01*
X7375000Y7310000D02*
X7405000D01*
X7390000Y7295000D02*
Y7325000D01*
X7375000Y7390000D02*
X7405000D01*
X7390000Y7375000D02*
Y7405000D01*
X7305000Y7230000D02*
X7335000D01*
X7320000Y7215000D02*
Y7245000D01*
X7305000Y7310000D02*
X7335000D01*
X7320000Y7295000D02*
Y7325000D01*
X7305000Y7390000D02*
X7335000D01*
X7320000Y7375000D02*
Y7405000D01*
X7235000Y7230000D02*
X7265000D01*
X7250000Y7215000D02*
Y7245000D01*
X7235000Y7310000D02*
X7265000D01*
X7250000Y7295000D02*
Y7325000D01*
X7235000Y7390000D02*
X7265000D01*
X7250000Y7375000D02*
Y7405000D01*
X7165000Y7220000D02*
X7195000D01*
X7180000Y7205000D02*
Y7235000D01*
X7165000Y7300000D02*
X7195000D01*
X7180000Y7285000D02*
Y7315000D01*
X7165000Y7380000D02*
X7195000D01*
X7180000Y7365000D02*
Y7395000D01*
X7075000Y7380000D02*
X7105000D01*
X7090000Y7365000D02*
Y7395000D01*
X7075000Y7300000D02*
X7105000D01*
X7090000Y7285000D02*
Y7315000D01*
X7075000Y7220000D02*
X7105000D01*
X7090000Y7205000D02*
Y7235000D01*
X8575000Y8330000D02*
X8605000D01*
X8590000Y8315000D02*
Y8345000D01*
X8495000Y8330000D02*
X8525000D01*
X8510000Y8315000D02*
Y8345000D01*
X8415000Y8330000D02*
X8445000D01*
X8430000Y8315000D02*
Y8345000D01*
X8345000Y8330000D02*
X8375000D01*
X8360000Y8315000D02*
Y8345000D01*
X8265000Y8330000D02*
X8295000D01*
X8280000Y8315000D02*
Y8345000D01*
X8185000Y8330000D02*
X8215000D01*
X8200000Y8315000D02*
Y8345000D01*
X8575000Y8250000D02*
X8605000D01*
X8590000Y8235000D02*
Y8265000D01*
X8495000Y8250000D02*
X8525000D01*
X8510000Y8235000D02*
Y8265000D01*
X8415000Y8250000D02*
X8445000D01*
X8430000Y8235000D02*
Y8265000D01*
X8345000Y8250000D02*
X8375000D01*
X8360000Y8235000D02*
Y8265000D01*
X8265000Y8250000D02*
X8295000D01*
X8280000Y8235000D02*
Y8265000D01*
X8185000Y8250000D02*
X8215000D01*
X8200000Y8235000D02*
Y8265000D01*
X8575000Y8170000D02*
X8605000D01*
X8590000Y8155000D02*
Y8185000D01*
X8495000Y8170000D02*
X8525000D01*
X8510000Y8155000D02*
Y8185000D01*
X8415000Y8170000D02*
X8445000D01*
X8430000Y8155000D02*
Y8185000D01*
X8345000Y8170000D02*
X8375000D01*
X8360000Y8155000D02*
Y8185000D01*
X8265000Y8170000D02*
X8295000D01*
X8280000Y8155000D02*
Y8185000D01*
X8185000Y8170000D02*
X8215000D01*
X8200000Y8155000D02*
Y8185000D01*
X8575000Y8090000D02*
X8605000D01*
X8590000Y8075000D02*
Y8105000D01*
X8495000Y8090000D02*
X8525000D01*
X8510000Y8075000D02*
Y8105000D01*
X8415000Y8090000D02*
X8445000D01*
X8430000Y8075000D02*
Y8105000D01*
X8345000Y8090000D02*
X8375000D01*
X8360000Y8075000D02*
Y8105000D01*
X8265000Y8090000D02*
X8295000D01*
X8280000Y8075000D02*
Y8105000D01*
X8185000Y8090000D02*
X8215000D01*
X8200000Y8075000D02*
Y8105000D01*
X8187500Y8019889D02*
X8217500D01*
X8202500Y8004889D02*
Y8034889D01*
X8267500Y8019889D02*
X8297500D01*
X8282500Y8004889D02*
Y8034889D01*
X8347500Y8019889D02*
X8377500D01*
X8362500Y8004889D02*
Y8034889D01*
X8417500Y8019889D02*
X8447500D01*
X8432500Y8004889D02*
Y8034889D01*
X8497500Y8019889D02*
X8527500D01*
X8512500Y8004889D02*
Y8034889D01*
X8577500Y8019889D02*
X8607500D01*
X8592500Y8004889D02*
Y8034889D01*
X8775000Y7860000D02*
X8805000D01*
X8790000Y7845000D02*
Y7875000D01*
X8745000Y7930000D02*
X8775000D01*
X8760000Y7915000D02*
Y7945000D01*
X8665000Y7930000D02*
X8695000D01*
X8680000Y7915000D02*
Y7945000D01*
X8585000Y7930000D02*
X8615000D01*
X8600000Y7915000D02*
Y7945000D01*
X8505000Y7930000D02*
X8535000D01*
X8520000Y7915000D02*
Y7945000D01*
X8425000Y7930000D02*
X8455000D01*
X8440000Y7915000D02*
Y7945000D01*
X8345000Y7930000D02*
X8375000D01*
X8360000Y7915000D02*
Y7945000D01*
X8265000Y7930000D02*
X8295000D01*
X8280000Y7915000D02*
Y7945000D01*
X8185000Y7930000D02*
X8215000D01*
X8200000Y7915000D02*
Y7945000D01*
X9215000Y7950000D02*
X9245000D01*
X9230000Y7935000D02*
Y7965000D01*
X9135000Y7950000D02*
X9165000D01*
X9150000Y7935000D02*
Y7965000D01*
X9055000Y7950000D02*
X9085000D01*
X9070000Y7935000D02*
Y7965000D01*
X8975000Y7950000D02*
X9005000D01*
X8990000Y7935000D02*
Y7965000D01*
X9015000Y7860000D02*
X9045000D01*
X9030000Y7845000D02*
Y7875000D01*
X8935000Y7860000D02*
X8965000D01*
X8950000Y7845000D02*
Y7875000D01*
X8855000Y7860000D02*
X8885000D01*
X8870000Y7845000D02*
Y7875000D01*
X8695000Y7860000D02*
X8725000D01*
X8710000Y7845000D02*
Y7875000D01*
X8615000Y7860000D02*
X8645000D01*
X8630000Y7845000D02*
Y7875000D01*
X8535000Y7860000D02*
X8565000D01*
X8550000Y7845000D02*
Y7875000D01*
X8455000Y7860000D02*
X8485000D01*
X8470000Y7845000D02*
Y7875000D01*
X8385000Y7860000D02*
X8415000D01*
X8400000Y7845000D02*
Y7875000D01*
X8305000Y7860000D02*
X8335000D01*
X8320000Y7845000D02*
Y7875000D01*
X8225000Y7860000D02*
X8255000D01*
X8240000Y7845000D02*
Y7875000D01*
X8145000Y7860000D02*
X8175000D01*
X8160000Y7845000D02*
Y7875000D01*
X8385000Y7790000D02*
X8415000D01*
X8400000Y7775000D02*
Y7805000D01*
X8305000Y7790000D02*
X8335000D01*
X8320000Y7775000D02*
Y7805000D01*
X8225000Y7790000D02*
X8255000D01*
X8240000Y7775000D02*
Y7805000D01*
X8145000Y7790000D02*
X8175000D01*
X8160000Y7775000D02*
Y7805000D01*
X8385000Y7720000D02*
X8415000D01*
X8400000Y7705000D02*
Y7735000D01*
X8305000Y7720000D02*
X8335000D01*
X8320000Y7705000D02*
Y7735000D01*
X8225000Y7720000D02*
X8255000D01*
X8240000Y7705000D02*
Y7735000D01*
X8145000Y7720000D02*
X8175000D01*
X8160000Y7705000D02*
Y7735000D01*
X8385000Y7650000D02*
X8415000D01*
X8400000Y7635000D02*
Y7665000D01*
X8305000Y7650000D02*
X8335000D01*
X8320000Y7635000D02*
Y7665000D01*
X8225000Y7650000D02*
X8255000D01*
X8240000Y7635000D02*
Y7665000D01*
X8145000Y7650000D02*
X8175000D01*
X8160000Y7635000D02*
Y7665000D01*
X8395000Y7570000D02*
X8425000D01*
X8410000Y7555000D02*
Y7585000D01*
X8315000Y7570000D02*
X8345000D01*
X8330000Y7555000D02*
Y7585000D01*
X8235000Y7570000D02*
X8265000D01*
X8250000Y7555000D02*
Y7585000D01*
X8155000Y7570000D02*
X8185000D01*
X8170000Y7555000D02*
Y7585000D01*
X8385000Y7500000D02*
X8415000D01*
X8400000Y7485000D02*
Y7515000D01*
X8305000Y7500000D02*
X8335000D01*
X8320000Y7485000D02*
Y7515000D01*
X8225000Y7500000D02*
X8255000D01*
X8240000Y7485000D02*
Y7515000D01*
X8145000Y7500000D02*
X8175000D01*
X8160000Y7485000D02*
Y7515000D01*
X8145000Y7430000D02*
X8175000D01*
X8160000Y7415000D02*
Y7445000D01*
X8225000Y7430000D02*
X8255000D01*
X8240000Y7415000D02*
Y7445000D01*
X8305000Y7430000D02*
X8335000D01*
X8320000Y7415000D02*
Y7445000D01*
X8385000Y7430000D02*
X8415000D01*
X8400000Y7415000D02*
Y7445000D01*
X10035000Y3850000D02*
X10065000D01*
X10050000Y3835000D02*
Y3865000D01*
X10313027Y2973736D02*
X10343027D01*
X10328027Y2958736D02*
Y2988736D01*
X10335000Y3330000D02*
X10365000D01*
X10350000Y3315000D02*
Y3345000D01*
X9824644Y4072079D02*
X9854644D01*
X9839644Y4057079D02*
Y4087079D01*
X9968162Y3996125D02*
X9998162D01*
X9983162Y3981125D02*
Y4011125D01*
X9886582Y3720007D02*
X9916582D01*
X9901582Y3705007D02*
Y3735007D01*
X9915000Y3620000D02*
X9945000D01*
X9930000Y3605000D02*
Y3635000D01*
X7680067Y3822599D02*
X7710067D01*
X7695067Y3807599D02*
Y3837599D01*
X7282962Y3821996D02*
X7312961D01*
X7297962Y3806996D02*
Y3836996D01*
X7435000Y3040000D02*
X7465000D01*
X7450000Y3025000D02*
Y3055000D01*
X6844874Y3061769D02*
X6874873D01*
X6859874Y3046769D02*
Y3076769D01*
X7045000Y2980000D02*
X7075000D01*
X7060000Y2965000D02*
Y2995000D01*
X7685894Y3583847D02*
X7715894D01*
X7700894Y3568847D02*
Y3598847D01*
X7585000Y3580000D02*
X7615000D01*
X7600000Y3565000D02*
Y3595000D01*
X7362500Y3372500D02*
X7392500D01*
X7377500Y3357500D02*
Y3387500D01*
X12885001Y3860000D02*
X12914999D01*
X12900000Y3845000D02*
Y3875000D01*
X12628149Y3898502D02*
X12658149D01*
X12643149Y3883502D02*
Y3913502D01*
X12415000Y3850000D02*
X12445000D01*
X12430000Y3835000D02*
Y3865000D01*
X12254298Y3846263D02*
X12284298D01*
X12269298Y3831263D02*
Y3861263D01*
X10534874Y3521346D02*
X10564874D01*
X10549874Y3506346D02*
Y3536345D01*
X10455000Y3620000D02*
X10485000D01*
X10470000Y3605000D02*
Y3635000D01*
X12535000Y3810000D02*
X12565000D01*
X12550000Y3795000D02*
Y3825000D01*
X12165000Y3810000D02*
X12195000D01*
X12180000Y3795000D02*
Y3825000D01*
X11787937Y4042814D02*
X11817937D01*
X11802937Y4027814D02*
Y4057814D01*
X11915000Y3920000D02*
X11945000D01*
X11930000Y3905000D02*
Y3935000D01*
X11485000Y3500000D02*
X11515000D01*
X11500000Y3485000D02*
Y3515000D01*
X11430000Y3110000D02*
X11460000D01*
X11445000Y3095000D02*
Y3125000D01*
X11890000Y3110000D02*
X11920000D01*
X11905000Y3095000D02*
Y3125000D01*
X12155000Y3110000D02*
X12185000D01*
X12170000Y3095000D02*
Y3125000D01*
X13114999Y3110001D02*
X13145000D01*
X13130000Y3095001D02*
Y3125001D01*
X12985001Y3500000D02*
X13014999D01*
X13000000Y3485000D02*
Y3515000D01*
X13585001Y3690000D02*
X13614999D01*
X13600000Y3675000D02*
Y3705000D01*
X12762500Y3847500D02*
X12792500D01*
X12777500Y3832500D02*
Y3862500D01*
X12445000Y6160000D02*
X12475000D01*
X12460000Y6145000D02*
Y6175000D01*
X11515000Y5350000D02*
X11545000D01*
X11530000Y5335000D02*
Y5365000D01*
X12110637Y6170241D02*
X12140637D01*
X12125637Y6155241D02*
Y6185241D01*
X11965000Y6070000D02*
X11995000D01*
X11980000Y6055000D02*
Y6085000D01*
X10635000Y4530000D02*
X10665000D01*
X10650000Y4515000D02*
Y4545000D01*
X12955000Y7380000D02*
X12985001D01*
X12970000Y7365000D02*
Y7395000D01*
X13204318Y7449789D02*
X13234319D01*
X13219318Y7434789D02*
Y7464788D01*
X11125000Y4760000D02*
X11155000D01*
X11140000Y4745000D02*
Y4775000D01*
X6865000Y7260000D02*
X6895000D01*
X6880000Y7245000D02*
Y7275000D01*
X6405000Y7280000D02*
X6435000D01*
X6420000Y7265000D02*
Y7295000D01*
X6395000Y7120000D02*
X6425000D01*
X6410000Y7105000D02*
Y7135000D01*
X10875000Y4790000D02*
X10905000D01*
X10890000Y4775000D02*
Y4805000D01*
X10674078Y4779542D02*
X10704078D01*
X10689078Y4764542D02*
Y4794542D01*
X7255000Y7000000D02*
X7285000D01*
X7270000Y6985000D02*
Y7015000D01*
X7065000Y7000000D02*
X7095000D01*
X7080000Y6985000D02*
Y7015000D01*
X6915000Y7000000D02*
X6945000D01*
X6930000Y6985000D02*
Y7015000D01*
X8184379Y6180777D02*
X8214379D01*
X8199379Y6165777D02*
Y6195777D01*
X8085000Y5060000D02*
X8115000D01*
X8100000Y5045000D02*
Y5075000D01*
X7935000Y5050000D02*
X7965000D01*
X7950000Y5035000D02*
Y5065000D01*
X8165000Y5520000D02*
X8195000D01*
X8180000Y5505000D02*
Y5535000D01*
X8115000Y5740000D02*
X8145000D01*
X8130000Y5725000D02*
Y5755000D01*
X7735000Y5900000D02*
X7765000D01*
X7750000Y5885000D02*
Y5915000D01*
X7965000Y5740000D02*
X7995000D01*
X7980000Y5725000D02*
Y5755000D01*
X7835000Y6500000D02*
X7865000D01*
X7850000Y6485000D02*
Y6515000D01*
X7046558Y6461709D02*
X7076558D01*
X7061558Y6446709D02*
Y6476709D01*
X7526788Y6501663D02*
X7556788D01*
X7541788Y6486663D02*
Y6516663D01*
X7335000Y6290000D02*
X7365000D01*
X7350000Y6275000D02*
Y6305000D01*
X7115498Y6339497D02*
X7145498D01*
X7130498Y6324497D02*
Y6354497D01*
X6965000Y6340000D02*
X6995000D01*
X6980000Y6325000D02*
Y6355000D01*
X10048594Y4613642D02*
X10078594D01*
X10063594Y4598642D02*
Y4628642D01*
X8693662Y6218442D02*
X8723661D01*
X8708662Y6203443D02*
Y6233442D01*
X8387459Y5620406D02*
X8417459D01*
X8402459Y5605406D02*
Y5635406D01*
X6533662Y6783442D02*
X6563662D01*
X6548662Y6768442D02*
Y6798442D01*
X6533662Y6323443D02*
X6563661D01*
X6548662Y6308443D02*
Y6338442D01*
X6533662Y6158443D02*
X6563661D01*
X6548662Y6143443D02*
Y6173443D01*
X6533662Y5698443D02*
X6563661D01*
X6548662Y5683443D02*
Y5713442D01*
X7680991Y5498528D02*
X7710991D01*
X7695991Y5483529D02*
Y5513528D01*
X7638661Y4943442D02*
X7668661D01*
X7653661Y4928443D02*
Y4958442D01*
X7680991Y4623023D02*
X7710991D01*
X7695991Y4608023D02*
Y4638023D01*
X6540000Y5530000D02*
X6570000D01*
X6555000Y5515000D02*
Y5545000D01*
X6540000Y4770000D02*
X6570000D01*
X6555000Y4755000D02*
Y4785000D01*
X7584609Y5343364D02*
X7614609D01*
X7599609Y5328364D02*
Y5358364D01*
X7598335Y5107139D02*
X7628335D01*
X7613335Y5092139D02*
Y5122139D01*
X7593278Y4782060D02*
X7623278D01*
X7608278Y4767060D02*
Y4797060D01*
X7242915Y4628912D02*
X7272915D01*
X7257915Y4613912D02*
Y4643912D01*
X7245000Y4730000D02*
X7275000D01*
X7260000Y4715000D02*
Y4745000D01*
X7095000Y4810000D02*
X7125000D01*
X7110000Y4795000D02*
Y4825000D01*
X7105000Y5800000D02*
X7135000D01*
X7120000Y5785000D02*
Y5815000D01*
X7495000Y5820000D02*
X7525000D01*
X7510000Y5805000D02*
Y5835000D01*
X7240931Y5499879D02*
X7270931D01*
X7255931Y5484879D02*
Y5514879D01*
X7165000Y5490000D02*
X7195000D01*
X7180000Y5475000D02*
Y5505000D01*
X7245000Y5410000D02*
X7275000D01*
X7260000Y5395000D02*
Y5425000D01*
X7247438Y4950803D02*
X7277438D01*
X7262438Y4935803D02*
Y4965803D01*
X7240930Y5049612D02*
X7270930D01*
X7255930Y5034612D02*
Y5064612D01*
X7175000Y5110000D02*
X7205000D01*
X7190000Y5095000D02*
Y5125000D01*
X12994540Y5559865D02*
X13024541D01*
X13009541Y5544865D02*
Y5574865D01*
X12993748Y5059599D02*
X13023749D01*
X13008749Y5044599D02*
Y5074599D01*
X13014999Y4820000D02*
X13045000D01*
X13030000Y4805000D02*
Y4835000D01*
X12713292Y4094618D02*
X12743292D01*
X12728292Y4079618D02*
Y4109618D01*
X12845000Y4100000D02*
X12875000D01*
X12860001Y4085000D02*
Y4115000D01*
X13014999Y4250000D02*
X13045000D01*
X13030000Y4235000D02*
Y4265000D01*
X12845000Y4340000D02*
X12875000D01*
X12860001Y4325000D02*
Y4355000D01*
X7265000Y4080000D02*
X7295000D01*
X7280000Y4065000D02*
Y4095000D01*
X7475000Y4380000D02*
X7505000D01*
X7490000Y4365000D02*
Y4395000D01*
X6955000Y4670000D02*
X6985000D01*
X6970000Y4655000D02*
Y4685000D01*
X6925859Y4581944D02*
X6955859D01*
X6940859Y4566944D02*
Y4596944D01*
X7075000Y3730000D02*
X7105000D01*
X7090000Y3715000D02*
Y3745000D01*
X7255000Y4500000D02*
X7285000D01*
X7270000Y4485000D02*
Y4515000D01*
X7385000Y4430000D02*
X7415000D01*
X7400000Y4415000D02*
Y4445000D01*
X7755000Y4380000D02*
X7785000D01*
X7770000Y4365000D02*
Y4395000D01*
X7745000Y4470000D02*
X7775000D01*
X7760000Y4455000D02*
Y4485000D01*
X9054363Y4529363D02*
X9084363D01*
X9069363Y4514363D02*
Y4544363D01*
X11647784Y4771143D02*
X11677784D01*
X11662784Y4756143D02*
Y4786143D01*
X11225465Y4370722D02*
X11255465D01*
X11240465Y4355722D02*
Y4385722D01*
X12629252Y4264098D02*
X12659252D01*
X12644252Y4249098D02*
Y4279098D01*
X12585000Y4850000D02*
X12615000D01*
X12600000Y4835000D02*
Y4865000D01*
X13195000Y4545000D02*
X13225000D01*
X13210001Y4530000D02*
Y4560000D01*
X13085001Y3920000D02*
X13114999D01*
X13100000Y3905000D02*
Y3935000D01*
X12950000Y4575000D02*
X12980000D01*
X12964999Y4560000D02*
Y4590000D01*
X11775000Y4480000D02*
X11805000D01*
X11790000Y4465000D02*
Y4495000D01*
X11775000Y4620000D02*
X11805000D01*
X11790000Y4605000D02*
Y4635000D01*
X13585001Y4150000D02*
X13614999D01*
X13600000Y4135000D02*
Y4165000D01*
X13585001Y4315000D02*
X13614999D01*
X13600000Y4300000D02*
Y4330000D01*
X13585001Y4775000D02*
X13614999D01*
X13600000Y4760000D02*
Y4790000D01*
X13576300Y5095000D02*
X13606300D01*
X13591299Y5080000D02*
Y5110000D01*
X13186301Y5325000D02*
X13216299D01*
X13201300Y5310000D02*
Y5340000D01*
X13576300Y5555000D02*
X13606300D01*
X13591299Y5540000D02*
Y5570000D01*
X13576300Y5720000D02*
X13606300D01*
X13591299Y5705000D02*
Y5735000D01*
X13576300Y6180000D02*
X13606300D01*
X13591299Y6165000D02*
Y6195000D01*
X13064999Y5950000D02*
X13095000D01*
X13080000Y5935000D02*
Y5965000D01*
X12858789Y5641425D02*
X12888789D01*
X12873788Y5626425D02*
Y5656425D01*
X12855000Y5010000D02*
X12885001D01*
X12870000Y4995000D02*
Y5025000D01*
X12574006Y5058949D02*
X12604006D01*
X12589006Y5043949D02*
Y5073949D01*
X12556089Y5812193D02*
X12586089D01*
X12571089Y5797193D02*
Y5827193D01*
X12715000Y5810000D02*
X12745000D01*
X12730000Y5795000D02*
Y5825000D01*
X11935000Y5508800D02*
X11965000D01*
X11950000Y5493800D02*
Y5523800D01*
X11935000Y5050000D02*
X11965000D01*
X11950000Y5035000D02*
Y5065000D01*
X8755000Y4130000D02*
X8785000D01*
X8770000Y4115000D02*
Y4145000D01*
X8825000Y4860000D02*
X8855000D01*
X8840000Y4845000D02*
Y4875000D01*
X8895000Y3990000D02*
X8925000D01*
X8910000Y3975000D02*
Y4005000D01*
X9115000Y3780000D02*
X9145000D01*
X9130000Y3765000D02*
Y3795000D01*
X9555000Y3380000D02*
X9585000D01*
X9570000Y3365000D02*
Y3395000D01*
X9125000Y4790000D02*
X9155000D01*
X9140000Y4775000D02*
Y4805000D01*
X8037500Y7067500D02*
X8067500D01*
X8052500Y7052500D02*
Y7082500D01*
X9405000Y5610000D02*
X9435000D01*
X9420000Y5595000D02*
Y5625000D01*
X9945000Y5930000D02*
X9975000D01*
X9960000Y5915000D02*
Y5945000D01*
X10045000Y6030000D02*
X10075000D01*
X10060000Y6015000D02*
Y6045000D01*
X9835000Y6050000D02*
X9865000D01*
X9850000Y6035000D02*
Y6065000D01*
X9735000Y6150000D02*
X9765000D01*
X9750000Y6135000D02*
Y6165000D01*
X9845000Y6240000D02*
X9875000D01*
X9860000Y6225000D02*
Y6255000D01*
X9954437Y6138371D02*
X9984437D01*
X9969437Y6123371D02*
Y6153371D01*
X9945000Y6330000D02*
X9975000D01*
X9960000Y6315000D02*
Y6345000D01*
X10055000Y6240000D02*
X10085000D01*
X10070000Y6225000D02*
Y6255000D01*
X10735000Y3730000D02*
X10765000D01*
X10750000Y3715000D02*
Y3745000D01*
X10765000Y3850000D02*
X10795000D01*
X10780000Y3835000D02*
Y3865000D01*
X10646192Y5707668D02*
X10676192D01*
X10661192Y5692668D02*
Y5722667D01*
X10165000Y6130000D02*
X10195000D01*
X10180000Y6115000D02*
Y6145000D01*
X10625000Y6470000D02*
X10655000D01*
X10640000Y6455000D02*
Y6485000D01*
X10755000Y5810000D02*
X10785000D01*
X10770000Y5795000D02*
Y5825000D01*
X10971645Y6250000D02*
X11001645D01*
X10986645Y6235000D02*
Y6265000D01*
X10335000Y7280000D02*
X10365000D01*
X10350000Y7265000D02*
Y7295000D01*
X12055268Y7124077D02*
X12085268D01*
X12070268Y7109077D02*
Y7139077D01*
X10995000Y4510000D02*
X11025000D01*
X11010000Y4495000D02*
Y4525000D01*
X10255000Y5030000D02*
X10285000D01*
X10270000Y5015000D02*
Y5045000D01*
X11818012Y6923569D02*
X11848012D01*
X11833012Y6908569D02*
Y6938569D01*
X11769562Y6873046D02*
X11799562D01*
X11784562Y6858046D02*
Y6888046D01*
X10154497Y6680503D02*
X10184497D01*
X10169497Y6665503D02*
Y6695502D01*
X10105000Y6730000D02*
X10135000D01*
X10120000Y6715000D02*
Y6745000D01*
X11177393Y7614326D02*
X11207393D01*
X11192393Y7599326D02*
Y7629326D01*
X11205000Y7550000D02*
X11235000D01*
X11220000Y7535000D02*
Y7565000D01*
X9870512Y6757357D02*
X9900512D01*
X9885512Y6742357D02*
Y6772357D01*
X9815000Y6800000D02*
X9845000D01*
X9830000Y6785000D02*
Y6815000D01*
X7588224Y6806864D02*
X7618224D01*
X7603224Y6791864D02*
Y6821864D01*
X7645343Y6847327D02*
X7675343D01*
X7660343Y6832327D02*
Y6862327D01*
X9215000Y6270000D02*
X9245000D01*
X9230000Y6255000D02*
Y6285000D01*
X9203492Y6339047D02*
X9233492D01*
X9218492Y6324047D02*
Y6354047D01*
X9465000Y4760000D02*
X9495000D01*
X9480000Y4745000D02*
Y4775000D01*
X10525000Y6560000D02*
X10555000D01*
X10540000Y6545000D02*
Y6575000D01*
X10795000Y6400000D02*
X10825000D01*
X10810000Y6385000D02*
Y6415000D01*
X9795000Y4660000D02*
X9825000D01*
X9810000Y4645000D02*
Y4675000D01*
X10285000Y5390000D02*
X10315000D01*
X10300000Y5375000D02*
Y5405000D01*
X10285622Y5865961D02*
X10315621D01*
X10300622Y5850961D02*
Y5880961D01*
X10263570Y5736596D02*
X10293570D01*
X10278570Y5721596D02*
Y5751596D01*
X9082778Y5040914D02*
X9112778D01*
X9097778Y5025914D02*
Y5055914D01*
X9295000Y5720000D02*
X9325000D01*
X9310000Y5705000D02*
Y5735000D01*
X9595000Y5510000D02*
X9625000D01*
X9610000Y5495000D02*
Y5525000D01*
X9751822Y5639091D02*
X9781822D01*
X9766822Y5624091D02*
Y5654091D01*
X9695000Y5740000D02*
X9725000D01*
X9710000Y5725000D02*
Y5755000D01*
X9471342Y5071069D02*
X9501342D01*
X9486342Y5056069D02*
Y5086069D01*
X9452306Y4935197D02*
X9482306D01*
X9467306Y4920197D02*
Y4950197D01*
X9621360Y5130000D02*
X9651360D01*
X9636360Y5115000D02*
Y5145000D01*
X10835000Y3920000D02*
X10865000D01*
X10850000Y3905000D02*
Y3935000D01*
X9625000Y3320000D02*
X9655000D01*
X9640000Y3305000D02*
Y3335000D01*
X10895000Y4610000D02*
X10925000D01*
X10910000Y4595000D02*
Y4625000D01*
X10175000Y5090000D02*
X10205000D01*
X10190000Y5075000D02*
Y5105000D01*
X8995000Y4470000D02*
X9025000D01*
X9010000Y4455000D02*
Y4485000D01*
X8715000Y4760000D02*
X8745000D01*
X8730000Y4745000D02*
Y4775000D01*
%TF.MD5,0880ad5fed4b790e5cff8724d1f53ad6*%
M02*
