%TF.GenerationSoftware,Altium Limited,Altium Designer,23.1.1 (15)*%
G04 Layer_Color=0*
%FSLAX45Y45*%
%MOMM*%
%TF.SameCoordinates,3B15BE60-5205-462F-B1BE-89E8C5D5736D*%
%TF.FilePolarity,Positive*%
%TF.FileFunction,Plated,1,6,PTH,Drill*%
%TF.Part,Single*%
G01*
G75*
%TA.AperFunction,ComponentDrill*%
%ADD178C,2.90000*%
%ADD179C,1.00000*%
%ADD180C,1.55000*%
%ADD181C,4.00000*%
%ADD182O,2.00000X0.90000*%
%ADD183C,4.00000*%
%ADD184O,1.75000X0.55000*%
%ADD185O,1.45000X0.55000*%
%TA.AperFunction,ViaDrill,NotFilled*%
%ADD186C,0.30000*%
D178*
X7150000Y10860000D02*
D03*
Y10140000D02*
D03*
D179*
X10225000Y8950000D02*
D03*
X9925000D02*
D03*
X10225000Y9400000D02*
D03*
X9925000D02*
D03*
X8175000Y8925000D02*
D03*
X7875000D02*
D03*
X8175000Y9375000D02*
D03*
X7875000D02*
D03*
X12275000Y8950000D02*
D03*
X11975000D02*
D03*
X12275000Y9400000D02*
D03*
X11975000D02*
D03*
D180*
X10075000Y9175000D02*
D03*
X8025000Y9150000D02*
D03*
X12125000Y9175000D02*
D03*
D181*
X6600000Y9200000D02*
D03*
D182*
X6550000Y9825000D02*
D03*
Y11175000D02*
D03*
D183*
X6600000Y3200000D02*
D03*
X13600000D02*
D03*
Y9775000D02*
D03*
D184*
X6885000Y4482500D02*
D03*
Y3617500D02*
D03*
D185*
X6465000D02*
D03*
Y4482500D02*
D03*
D186*
X11610000Y4330000D02*
D03*
X13310001Y7940000D02*
D03*
X13239999D02*
D03*
X13310001Y7870000D02*
D03*
X13239999D02*
D03*
X9240000Y5070000D02*
D03*
X10010000Y4480000D02*
D03*
X9670000Y4270000D02*
D03*
X10060000Y5520000D02*
D03*
X9040000Y5140000D02*
D03*
X7490000Y4510000D02*
D03*
X7440000Y3820000D02*
D03*
X7170000D02*
D03*
X10460000Y3430000D02*
D03*
X10530000Y3230000D02*
D03*
X9570000Y4150000D02*
D03*
X6375300Y6002658D02*
D03*
Y5932658D02*
D03*
Y5862658D02*
D03*
X6455300Y6072658D02*
D03*
Y6002658D02*
D03*
Y5932658D02*
D03*
Y5862658D02*
D03*
X6375300Y6072658D02*
D03*
X12989999Y3030000D02*
D03*
X6480000Y4910000D02*
D03*
Y4990000D02*
D03*
X6480000Y5070000D02*
D03*
Y5150000D02*
D03*
Y5220000D02*
D03*
Y5290000D02*
D03*
Y5360000D02*
D03*
X6480000Y5430000D02*
D03*
X6410000D02*
D03*
X6410000Y5360000D02*
D03*
X6410000Y5290000D02*
D03*
Y5220000D02*
D03*
X6410000Y5150000D02*
D03*
Y5070000D02*
D03*
X6410000Y4990000D02*
D03*
Y4910000D02*
D03*
X6550000Y5430000D02*
D03*
X6550000Y5360000D02*
D03*
X6550000Y5290000D02*
D03*
Y5220000D02*
D03*
X6550000Y5150000D02*
D03*
X6550000Y5070000D02*
D03*
Y4990000D02*
D03*
Y4910000D02*
D03*
X6630000Y5430000D02*
D03*
Y5360000D02*
D03*
Y5290000D02*
D03*
Y5220000D02*
D03*
Y5150000D02*
D03*
Y5070000D02*
D03*
Y4990000D02*
D03*
Y4910000D02*
D03*
X12470000Y2950000D02*
D03*
X12550000D02*
D03*
X12630000D02*
D03*
X12710000D02*
D03*
X12780000D02*
D03*
X12850000D02*
D03*
X12920000D02*
D03*
X12989999D02*
D03*
X12470000Y3030000D02*
D03*
X12550000D02*
D03*
X12630000D02*
D03*
X12710000D02*
D03*
X12780000D02*
D03*
X12850000D02*
D03*
X12920000D02*
D03*
X12470000Y3170000D02*
D03*
X12550000D02*
D03*
X12630000D02*
D03*
X12710000D02*
D03*
X12780000D02*
D03*
X12850000D02*
D03*
X12920000D02*
D03*
X12989999D02*
D03*
Y3100000D02*
D03*
X12920000D02*
D03*
X12850000D02*
D03*
X12780000D02*
D03*
X12710000D02*
D03*
X12630000D02*
D03*
X12550000D02*
D03*
X12470000D02*
D03*
X12690000Y4000000D02*
D03*
X12830000Y4030000D02*
D03*
X9572218Y5400000D02*
D03*
X9460000Y4170000D02*
D03*
X10100000Y5410000D02*
D03*
X10210000Y5520000D02*
D03*
X6810000Y5830000D02*
D03*
X11430000Y7260000D02*
D03*
Y7320000D02*
D03*
Y7400000D02*
D03*
Y7480000D02*
D03*
X13489999Y7960000D02*
D03*
X13480000Y7360000D02*
D03*
X13266678Y6722405D02*
D03*
X13345638Y6390240D02*
D03*
X12760000Y7470000D02*
D03*
X11758189Y11099973D02*
D03*
X11754784Y11171657D02*
D03*
Y11241657D02*
D03*
X9840000Y4270000D02*
D03*
X6410000Y6980000D02*
D03*
X12050000Y3930000D02*
D03*
X9910000Y3330000D02*
D03*
X10060000D02*
D03*
X10220000Y3340000D02*
D03*
X13130000Y9990000D02*
D03*
X12010000Y10550000D02*
D03*
Y10490000D02*
D03*
Y10420000D02*
D03*
X12100000Y10550000D02*
D03*
Y10490000D02*
D03*
Y10420000D02*
D03*
X12210000Y10550000D02*
D03*
Y10490000D02*
D03*
Y10420000D02*
D03*
X13860001Y6470000D02*
D03*
Y6400000D02*
D03*
Y6340000D02*
D03*
X13770000Y7960000D02*
D03*
X13710001D02*
D03*
X13650000D02*
D03*
X13210001Y10650000D02*
D03*
X12140000Y11030000D02*
D03*
X12200000D02*
D03*
X12270000D02*
D03*
X12140000Y11100000D02*
D03*
X12200000D02*
D03*
X12270000D02*
D03*
X12330000Y10730000D02*
D03*
Y10800000D02*
D03*
Y10860000D02*
D03*
X13080000Y10480000D02*
D03*
X12320000Y10420000D02*
D03*
Y10490000D02*
D03*
Y10550000D02*
D03*
X11207764Y10115706D02*
D03*
Y10185706D02*
D03*
Y10265706D02*
D03*
X11117764Y10115706D02*
D03*
Y10195706D02*
D03*
Y10265706D02*
D03*
X10217764Y9805706D02*
D03*
Y9875706D02*
D03*
Y9945706D02*
D03*
X11030000Y11280000D02*
D03*
X10950000D02*
D03*
X10870000D02*
D03*
X10800000D02*
D03*
Y11200000D02*
D03*
X10870000D02*
D03*
X10950000D02*
D03*
X11030000D02*
D03*
X10800000Y11130000D02*
D03*
X10870000D02*
D03*
X10950000D02*
D03*
X11030000D02*
D03*
X10800000Y11060000D02*
D03*
X10870000D02*
D03*
X10950000D02*
D03*
X11030000D02*
D03*
X10960000Y10280000D02*
D03*
X10590000Y10210000D02*
D03*
X10100000Y10290000D02*
D03*
X10360000Y10820000D02*
D03*
X8070000Y9800000D02*
D03*
X7970000D02*
D03*
X7880000D02*
D03*
X7800000D02*
D03*
X7730000D02*
D03*
X7650000D02*
D03*
X7580000D02*
D03*
X9300000Y10630000D02*
D03*
X9030000Y10920000D02*
D03*
X8890000D02*
D03*
X9150000D02*
D03*
X9380000Y10410000D02*
D03*
X9340000Y10290000D02*
D03*
X8590000Y11050000D02*
D03*
X8510000D02*
D03*
X8430000D02*
D03*
X8360000D02*
D03*
X8290000D02*
D03*
X8220000D02*
D03*
X8150000D02*
D03*
X8080000D02*
D03*
X8010000D02*
D03*
X7930000D02*
D03*
X8590000Y11120000D02*
D03*
X8510000D02*
D03*
X8430000D02*
D03*
X8360000D02*
D03*
X8290000D02*
D03*
X8220000D02*
D03*
X8150000D02*
D03*
X8080000D02*
D03*
X8010000D02*
D03*
X7930000D02*
D03*
X8590000Y11190000D02*
D03*
X8510000D02*
D03*
X8430000D02*
D03*
X8360000D02*
D03*
X8290000D02*
D03*
X8220000D02*
D03*
X8150000D02*
D03*
X8080000D02*
D03*
X8010000D02*
D03*
X7930000D02*
D03*
Y11270000D02*
D03*
X8010000D02*
D03*
X8080000D02*
D03*
X8150000D02*
D03*
X8220000D02*
D03*
X8290000D02*
D03*
X8360000D02*
D03*
X8430000D02*
D03*
X8510000D02*
D03*
X8590000D02*
D03*
X8060000Y10320000D02*
D03*
X7990000D02*
D03*
X7910000D02*
D03*
X7830000D02*
D03*
X7740000D02*
D03*
X7640349Y10318751D02*
D03*
X7550000Y10320000D02*
D03*
X9040000Y10470000D02*
D03*
X7780000Y10940000D02*
D03*
X7720000D02*
D03*
X7650000D02*
D03*
X7570000D02*
D03*
X7770000Y11000000D02*
D03*
X7700000D02*
D03*
X7640000D02*
D03*
X7570000D02*
D03*
X12720000Y8010000D02*
D03*
Y8080000D02*
D03*
Y8140000D02*
D03*
Y8210000D02*
D03*
Y8270000D02*
D03*
Y8340000D02*
D03*
X12650000Y8270000D02*
D03*
Y8340000D02*
D03*
Y8140000D02*
D03*
Y8210000D02*
D03*
Y8010000D02*
D03*
Y8080000D02*
D03*
X13239999Y7700000D02*
D03*
X13310001D02*
D03*
X13239999Y7760000D02*
D03*
X13310001D02*
D03*
X13239999Y7810000D02*
D03*
X13310001D02*
D03*
X12860001Y7940000D02*
D03*
Y7870000D02*
D03*
X12790000Y7940000D02*
D03*
Y7870000D02*
D03*
X12715501Y7944000D02*
D03*
Y7874000D02*
D03*
X12650000Y7940000D02*
D03*
Y7870000D02*
D03*
X12560000Y7330000D02*
D03*
X12480000D02*
D03*
Y7390000D02*
D03*
X12560000D02*
D03*
X12400000Y7450000D02*
D03*
X12480000D02*
D03*
X12560000D02*
D03*
X12560000Y7510000D02*
D03*
X12480000D02*
D03*
X12400000D02*
D03*
X12320000D02*
D03*
X12560000Y7560000D02*
D03*
X12480000D02*
D03*
X12400000D02*
D03*
X12320000D02*
D03*
X12560000Y7620000D02*
D03*
X12480000D02*
D03*
X12400000D02*
D03*
X12320000D02*
D03*
X12560000Y7680000D02*
D03*
X12480000D02*
D03*
X12400000D02*
D03*
X12320000D02*
D03*
X12560000Y7750000D02*
D03*
X12480000D02*
D03*
X12400000D02*
D03*
X12320000D02*
D03*
X12560000Y7810000D02*
D03*
X12480000D02*
D03*
X12400000D02*
D03*
X12320000D02*
D03*
X12560000Y7880000D02*
D03*
X12480000D02*
D03*
X12400000D02*
D03*
X12320000D02*
D03*
X12560000Y7940000D02*
D03*
X12480000D02*
D03*
X12400000D02*
D03*
X12320000D02*
D03*
X12556700Y7995000D02*
D03*
X12476700D02*
D03*
X12396700D02*
D03*
X12316700D02*
D03*
X12560000Y8050000D02*
D03*
X12480000D02*
D03*
X12400000D02*
D03*
X12320000D02*
D03*
X12560000Y8100000D02*
D03*
X12480000D02*
D03*
X12400000D02*
D03*
X12320000D02*
D03*
X12560000Y8150000D02*
D03*
X12480000D02*
D03*
X12400000D02*
D03*
X12320000D02*
D03*
X12560000Y8210000D02*
D03*
X12480000D02*
D03*
X12400000D02*
D03*
X12320000D02*
D03*
X12560000Y8270000D02*
D03*
X12480000D02*
D03*
X12400000D02*
D03*
X12320000D02*
D03*
X12560000Y8330000D02*
D03*
X12480000D02*
D03*
X12400000D02*
D03*
X12320000D02*
D03*
X10640000Y7120000D02*
D03*
X10720000D02*
D03*
X10800000D02*
D03*
X10790000Y7350000D02*
D03*
X10710000D02*
D03*
X10630000D02*
D03*
X9280000Y7390000D02*
D03*
X9360000D02*
D03*
X9280000Y7460000D02*
D03*
X9360000D02*
D03*
X9270000Y7530000D02*
D03*
X9350000D02*
D03*
Y7620000D02*
D03*
X9270000D02*
D03*
X9820000Y8070000D02*
D03*
Y8140000D02*
D03*
Y8200000D02*
D03*
Y8270000D02*
D03*
Y8340000D02*
D03*
Y8390000D02*
D03*
X9440000D02*
D03*
X9520000D02*
D03*
X9600000D02*
D03*
X9680000D02*
D03*
X9760335Y8386095D02*
D03*
X9440000Y8340000D02*
D03*
X9520000D02*
D03*
X9600000D02*
D03*
X9680000D02*
D03*
X9760335Y8336095D02*
D03*
X9440000Y8270000D02*
D03*
X9520000D02*
D03*
X9600000D02*
D03*
X9680000D02*
D03*
X9760335Y8266095D02*
D03*
X9440000Y8200000D02*
D03*
X9520000D02*
D03*
X9600000D02*
D03*
X9680000D02*
D03*
X9760335Y8196095D02*
D03*
X9440000Y8140000D02*
D03*
X9520000D02*
D03*
X9600000D02*
D03*
X9680000D02*
D03*
X9760335Y8136095D02*
D03*
X9440000Y8070000D02*
D03*
X9520000D02*
D03*
X9600000D02*
D03*
X9680000D02*
D03*
X9760335Y8066095D02*
D03*
X9830000Y7440000D02*
D03*
X9820000Y8000000D02*
D03*
X9440000Y7940000D02*
D03*
Y8000000D02*
D03*
X9520000D02*
D03*
X9600000D02*
D03*
X9680000D02*
D03*
X9760335Y7996095D02*
D03*
X9510000Y7920000D02*
D03*
X9590000D02*
D03*
X9670000D02*
D03*
X9750000D02*
D03*
X9830335Y7916095D02*
D03*
X9510000Y7860000D02*
D03*
X9590000D02*
D03*
X9670000D02*
D03*
X9750000D02*
D03*
X9830335Y7856095D02*
D03*
X9510000Y7790000D02*
D03*
X9590000D02*
D03*
X9670000D02*
D03*
X9750000D02*
D03*
X9830335Y7786095D02*
D03*
X9510000Y7720000D02*
D03*
X9590000D02*
D03*
X9670000D02*
D03*
X9750000D02*
D03*
X9830335Y7716095D02*
D03*
X9510000Y7650000D02*
D03*
X9590000D02*
D03*
X9670000D02*
D03*
X9750000D02*
D03*
X9830335Y7646095D02*
D03*
X9510000Y7580000D02*
D03*
X9590000D02*
D03*
X9670000D02*
D03*
X9750000D02*
D03*
X9830335Y7576095D02*
D03*
X9510000Y7510000D02*
D03*
X9590000D02*
D03*
X9670000D02*
D03*
X9750000D02*
D03*
X9830335Y7506095D02*
D03*
X9749665Y7443905D02*
D03*
X9669665D02*
D03*
X9589665D02*
D03*
X9509665D02*
D03*
X8730000Y7560000D02*
D03*
Y7640000D02*
D03*
Y7720000D02*
D03*
X8820000D02*
D03*
Y7640000D02*
D03*
Y7560000D02*
D03*
X8890000Y7730000D02*
D03*
Y7650000D02*
D03*
Y7570000D02*
D03*
X8960000Y7730000D02*
D03*
Y7650000D02*
D03*
Y7570000D02*
D03*
X9030000Y7730000D02*
D03*
Y7650000D02*
D03*
Y7570000D02*
D03*
X7460000Y7390000D02*
D03*
Y7310000D02*
D03*
Y7230000D02*
D03*
X7390000D02*
D03*
Y7310000D02*
D03*
Y7390000D02*
D03*
X7320000Y7230000D02*
D03*
Y7310000D02*
D03*
Y7390000D02*
D03*
X7250000Y7230000D02*
D03*
Y7310000D02*
D03*
Y7390000D02*
D03*
X7180000Y7220000D02*
D03*
Y7300000D02*
D03*
Y7380000D02*
D03*
X7090000D02*
D03*
Y7300000D02*
D03*
Y7220000D02*
D03*
X8590000Y8330000D02*
D03*
X8510000D02*
D03*
X8430000D02*
D03*
X8360000D02*
D03*
X8280000D02*
D03*
X8200000D02*
D03*
X8590000Y8250000D02*
D03*
X8510000D02*
D03*
X8430000D02*
D03*
X8360000D02*
D03*
X8280000D02*
D03*
X8200000D02*
D03*
X8590000Y8170000D02*
D03*
X8510000D02*
D03*
X8430000D02*
D03*
X8360000D02*
D03*
X8280000D02*
D03*
X8200000D02*
D03*
X8590000Y8090000D02*
D03*
X8510000D02*
D03*
X8430000D02*
D03*
X8360000D02*
D03*
X8280000D02*
D03*
X8200000D02*
D03*
X8202500Y8019889D02*
D03*
X8282500D02*
D03*
X8362500D02*
D03*
X8432500D02*
D03*
X8512500D02*
D03*
X8592500D02*
D03*
X8790000Y7860000D02*
D03*
X8760000Y7930000D02*
D03*
X8680000D02*
D03*
X8600000D02*
D03*
X8520000D02*
D03*
X8440000D02*
D03*
X8360000D02*
D03*
X8280000D02*
D03*
X8200000D02*
D03*
X9230000Y7950000D02*
D03*
X9150000D02*
D03*
X9070000D02*
D03*
X8990000D02*
D03*
X9030000Y7860000D02*
D03*
X8950000D02*
D03*
X8870000D02*
D03*
X8710000D02*
D03*
X8630000D02*
D03*
X8550000D02*
D03*
X8470000D02*
D03*
X8400000D02*
D03*
X8320000D02*
D03*
X8240000D02*
D03*
X8160000D02*
D03*
X8400000Y7790000D02*
D03*
X8320000D02*
D03*
X8240000D02*
D03*
X8160000D02*
D03*
X8400000Y7720000D02*
D03*
X8320000D02*
D03*
X8240000D02*
D03*
X8160000D02*
D03*
X8400000Y7650000D02*
D03*
X8320000D02*
D03*
X8240000D02*
D03*
X8160000D02*
D03*
X8410000Y7570000D02*
D03*
X8330000D02*
D03*
X8250000D02*
D03*
X8170000D02*
D03*
X8400000Y7500000D02*
D03*
X8320000D02*
D03*
X8240000D02*
D03*
X8160000D02*
D03*
Y7430000D02*
D03*
X8240000D02*
D03*
X8320000D02*
D03*
X8400000D02*
D03*
X10050000Y3850000D02*
D03*
X10328027Y2973736D02*
D03*
X10350000Y3330000D02*
D03*
X9839644Y4072079D02*
D03*
X9983162Y3996125D02*
D03*
X9901582Y3720007D02*
D03*
X9930000Y3620000D02*
D03*
X7695067Y3822599D02*
D03*
X7297962Y3821996D02*
D03*
X7450000Y3040000D02*
D03*
X6859874Y3061769D02*
D03*
X7060000Y2980000D02*
D03*
X7700894Y3583847D02*
D03*
X7600000Y3580000D02*
D03*
X7377500Y3372500D02*
D03*
X12900000Y3860000D02*
D03*
X12643149Y3898502D02*
D03*
X12430000Y3850000D02*
D03*
X12269298Y3846263D02*
D03*
X10549874Y3521346D02*
D03*
X10470000Y3620000D02*
D03*
X12550000Y3810000D02*
D03*
X12180000D02*
D03*
X11802937Y4042814D02*
D03*
X11930000Y3920000D02*
D03*
X11500000Y3500000D02*
D03*
X11445000Y3110000D02*
D03*
X11905000D02*
D03*
X12170000D02*
D03*
X13130000Y3110001D02*
D03*
X13000000Y3500000D02*
D03*
X13600000Y3690000D02*
D03*
X12777500Y3847500D02*
D03*
X12460000Y6160000D02*
D03*
X11530000Y5350000D02*
D03*
X12125637Y6170241D02*
D03*
X11980000Y6070000D02*
D03*
X10650000Y4530000D02*
D03*
X12970000Y7380000D02*
D03*
X13219318Y7449789D02*
D03*
X11140000Y4760000D02*
D03*
X6880000Y7260000D02*
D03*
X6420000Y7280000D02*
D03*
X6410000Y7120000D02*
D03*
X10890000Y4790000D02*
D03*
X10689078Y4779542D02*
D03*
X7270000Y7000000D02*
D03*
X7080000D02*
D03*
X6930000D02*
D03*
X8199379Y6180777D02*
D03*
X8100000Y5060000D02*
D03*
X7950000Y5050000D02*
D03*
X8180000Y5520000D02*
D03*
X8130000Y5740000D02*
D03*
X7750000Y5900000D02*
D03*
X7980000Y5740000D02*
D03*
X7850000Y6500000D02*
D03*
X7061558Y6461709D02*
D03*
X7541788Y6501663D02*
D03*
X7350000Y6290000D02*
D03*
X7130498Y6339497D02*
D03*
X6980000Y6340000D02*
D03*
X10063594Y4613642D02*
D03*
X8708662Y6218442D02*
D03*
X8402459Y5620406D02*
D03*
X6548662Y6783442D02*
D03*
X6548662Y6323443D02*
D03*
Y6158443D02*
D03*
Y5698443D02*
D03*
X7695991Y5498528D02*
D03*
X7653661Y4943442D02*
D03*
X7695991Y4623023D02*
D03*
X6555000Y5530000D02*
D03*
X6555000Y4770000D02*
D03*
X7599609Y5343364D02*
D03*
X7613335Y5107139D02*
D03*
X7608278Y4782060D02*
D03*
X7257915Y4628912D02*
D03*
X7260000Y4730000D02*
D03*
X7110000Y4810000D02*
D03*
X7120000Y5800000D02*
D03*
X7510000Y5820000D02*
D03*
X7255931Y5499879D02*
D03*
X7180000Y5490000D02*
D03*
X7260000Y5410000D02*
D03*
X7262438Y4950803D02*
D03*
X7255930Y5049612D02*
D03*
X7190000Y5110000D02*
D03*
X13009541Y5559865D02*
D03*
X13008749Y5059599D02*
D03*
X13030000Y4820000D02*
D03*
X12728292Y4094618D02*
D03*
X12860001Y4100000D02*
D03*
X13030000Y4250000D02*
D03*
X12860001Y4340000D02*
D03*
X7280000Y4080000D02*
D03*
X7490000Y4380000D02*
D03*
X6970000Y4670000D02*
D03*
X6940859Y4581944D02*
D03*
X7090000Y3730000D02*
D03*
X7270000Y4500000D02*
D03*
X7400000Y4430000D02*
D03*
X7770000Y4380000D02*
D03*
X7760000Y4470000D02*
D03*
X9069363Y4529363D02*
D03*
X11662784Y4771143D02*
D03*
X11240465Y4370722D02*
D03*
X12644252Y4264098D02*
D03*
X12600000Y4850000D02*
D03*
X13210001Y4545000D02*
D03*
X13100000Y3920000D02*
D03*
X12964999Y4575000D02*
D03*
X11790000Y4480000D02*
D03*
Y4620000D02*
D03*
X13600000Y4150000D02*
D03*
X13600000Y4315000D02*
D03*
X13600000Y4775000D02*
D03*
X13591299Y5095000D02*
D03*
X13201300Y5325000D02*
D03*
X13591299Y5555000D02*
D03*
Y5720000D02*
D03*
Y6180000D02*
D03*
X13080000Y5950000D02*
D03*
X12873788Y5641425D02*
D03*
X12870000Y5010000D02*
D03*
X12589006Y5058949D02*
D03*
X12571089Y5812193D02*
D03*
X12730000Y5810000D02*
D03*
X11950000Y5508800D02*
D03*
Y5050000D02*
D03*
X8770000Y4130000D02*
D03*
X8840000Y4860000D02*
D03*
X8910000Y3990000D02*
D03*
X9130000Y3780000D02*
D03*
X9570000Y3380000D02*
D03*
X9140000Y4790000D02*
D03*
X8052500Y7067500D02*
D03*
X9420000Y5610000D02*
D03*
X9960000Y5930000D02*
D03*
X10060000Y6030000D02*
D03*
X9850000Y6050000D02*
D03*
X9750000Y6150000D02*
D03*
X9860000Y6240000D02*
D03*
X9969437Y6138371D02*
D03*
X9960000Y6330000D02*
D03*
X10070000Y6240000D02*
D03*
X10750000Y3730000D02*
D03*
X10780000Y3850000D02*
D03*
X10661192Y5707668D02*
D03*
X10180000Y6130000D02*
D03*
X10640000Y6470000D02*
D03*
X10770000Y5810000D02*
D03*
X10986645Y6250000D02*
D03*
X10350000Y7280000D02*
D03*
X12070268Y7124077D02*
D03*
X11010000Y4510000D02*
D03*
X10270000Y5030000D02*
D03*
X11833012Y6923569D02*
D03*
X11784562Y6873046D02*
D03*
X10169497Y6680503D02*
D03*
X10120000Y6730000D02*
D03*
X11192393Y7614326D02*
D03*
X11220000Y7550000D02*
D03*
X9885512Y6757357D02*
D03*
X9830000Y6800000D02*
D03*
X7603224Y6806864D02*
D03*
X7660343Y6847327D02*
D03*
X9230000Y6270000D02*
D03*
X9218492Y6339047D02*
D03*
X9480000Y4760000D02*
D03*
X10540000Y6560000D02*
D03*
X10810000Y6400000D02*
D03*
X9810000Y4660000D02*
D03*
X10300000Y5390000D02*
D03*
X10300622Y5865961D02*
D03*
X10278570Y5736596D02*
D03*
X9097778Y5040914D02*
D03*
X9310000Y5720000D02*
D03*
X9610000Y5510000D02*
D03*
X9766822Y5639091D02*
D03*
X9710000Y5740000D02*
D03*
X9486342Y5071069D02*
D03*
X9467306Y4935197D02*
D03*
X9636360Y5130000D02*
D03*
X10850000Y3920000D02*
D03*
X9640000Y3320000D02*
D03*
X10910000Y4610000D02*
D03*
X10190000Y5090000D02*
D03*
X9010000Y4470000D02*
D03*
X8730000Y4760000D02*
D03*
%TF.MD5,6bed25c865ee3d135e057df45a276d9e*%
M02*
