%TF.GenerationSoftware,Altium Limited,Altium Designer,23.1.1 (15)*%
G04 Layer_Physical_Order=6*
G04 Layer_Color=16711680*
%FSLAX45Y45*%
%MOMM*%
%TF.SameCoordinates,3B15BE60-5205-462F-B1BE-89E8C5D5736D*%
%TF.FilePolarity,Positive*%
%TF.FileFunction,Copper,L6,Bot,Signal*%
%TF.Part,Single*%
G01*
G75*
%TA.AperFunction,Conductor*%
%ADD75C,0.30000*%
%ADD77C,0.25000*%
%ADD78C,0.50000*%
%ADD79C,0.12400*%
%TA.AperFunction,ComponentPad*%
%ADD85C,5.20000*%
%ADD86C,1.52400*%
%ADD87C,1.06700*%
%ADD88O,3.00000X1.90000*%
%ADD89C,0.60000*%
%ADD90O,2.20000X1.00000*%
%ADD91O,1.90000X1.00000*%
%TA.AperFunction,ViaPad*%
%ADD92C,0.50000*%
G36*
X13694550Y11327974D02*
X13729677Y11313423D01*
X13761292Y11292299D01*
X13774734Y11278857D01*
X13870551Y11183040D01*
X13880582Y11173008D01*
X13896346Y11149417D01*
X13907204Y11123203D01*
X13912740Y11095375D01*
Y11081188D01*
Y7258195D01*
X13908279Y7254040D01*
X13900040Y7249536D01*
X13898280Y7249885D01*
X13895953Y7250000D01*
X13003137D01*
Y7349497D01*
X13008150Y7354510D01*
X13014999Y7371049D01*
Y7388951D01*
X13008150Y7405491D01*
X12995491Y7418149D01*
X12978951Y7425000D01*
X12961049D01*
X12944510Y7418149D01*
X12931851Y7405491D01*
X12925000Y7388951D01*
Y7371049D01*
X12931851Y7354510D01*
X12936864Y7349497D01*
Y7250000D01*
X11800000D01*
Y7830000D01*
X10620000D01*
Y7394565D01*
X10604510Y7388149D01*
X10591851Y7375490D01*
X10585000Y7358951D01*
Y7341049D01*
X10591851Y7324510D01*
X10599991Y7316369D01*
X10594731Y7303669D01*
X10388903D01*
X10388149Y7305490D01*
X10375490Y7318149D01*
X10358951Y7325000D01*
X10341049D01*
X10324509Y7318149D01*
X10311851Y7305490D01*
X10311096Y7303669D01*
X7505000D01*
Y7318951D01*
X7498149Y7335490D01*
X7491936Y7341703D01*
X7486667Y7350000D01*
X7491936Y7358297D01*
X7498149Y7364510D01*
X7505000Y7381049D01*
Y7398951D01*
X7498149Y7415490D01*
X7485490Y7428149D01*
X7468951Y7435000D01*
X7451049D01*
X7434510Y7428149D01*
X7425000Y7418639D01*
X7415490Y7428149D01*
X7398951Y7435000D01*
X7381049D01*
X7364510Y7428149D01*
X7355000Y7418639D01*
X7345491Y7428149D01*
X7328951Y7435000D01*
X7311049D01*
X7294510Y7428149D01*
X7285000Y7418639D01*
X7275490Y7428149D01*
X7258951Y7435000D01*
X7241049D01*
X7224510Y7428149D01*
X7211851Y7415491D01*
X7208763Y7414876D01*
X7205491Y7418149D01*
X7188951Y7425000D01*
X7171049D01*
X7154510Y7418149D01*
X7141851Y7405491D01*
X7128149D01*
X7115490Y7418149D01*
X7098951Y7425000D01*
X7081049D01*
X7064510Y7418149D01*
X7051851Y7405490D01*
X7045000Y7388951D01*
Y7371049D01*
X7051851Y7354510D01*
X7058064Y7348297D01*
X7063334Y7340000D01*
X7058064Y7331703D01*
X7051851Y7325490D01*
X7045000Y7308951D01*
Y7303669D01*
X6892163D01*
X6888951Y7305000D01*
X6871049D01*
X6867837Y7303669D01*
X6458904D01*
X6458149Y7305490D01*
X6445491Y7318149D01*
X6428951Y7325000D01*
X6411049D01*
X6394510Y7318149D01*
X6381851Y7305490D01*
X6381097Y7303669D01*
X6287261D01*
Y11087205D01*
Y11092570D01*
X6289354Y11103095D01*
X6293461Y11113009D01*
X6299423Y11121932D01*
X6303217Y11125726D01*
Y11132793D01*
X6305974Y11146655D01*
X6311383Y11159713D01*
X6319235Y11171465D01*
X6324232Y11176462D01*
X6380825Y11233055D01*
X6391592Y11225861D01*
X6382960Y11205021D01*
X6379008Y11175000D01*
X6382960Y11144979D01*
X6394548Y11117004D01*
X6412981Y11092981D01*
X6437004Y11074548D01*
X6464979Y11062960D01*
X6495000Y11059008D01*
X6605000D01*
X6635021Y11062960D01*
X6662996Y11074548D01*
X6687019Y11092981D01*
X6705452Y11117004D01*
X6717040Y11144979D01*
X6720992Y11175000D01*
X6717040Y11205021D01*
X6705452Y11232996D01*
X6687019Y11257019D01*
X6662996Y11275452D01*
X6635021Y11287040D01*
X6605000Y11290992D01*
X6495000D01*
X6464979Y11287040D01*
X6452521Y11281880D01*
X6442180Y11291343D01*
X6443583Y11295812D01*
Y11295812D01*
Y11295813D01*
X6452994Y11305223D01*
X6475126Y11320012D01*
X6499719Y11330198D01*
X6525826Y11335392D01*
X10782950D01*
X10785476Y11322692D01*
X10774510Y11318149D01*
X10761851Y11305490D01*
X10755000Y11288951D01*
Y11271049D01*
X10761851Y11254510D01*
X10768064Y11248297D01*
X10773334Y11240000D01*
X10768064Y11231703D01*
X10761851Y11225490D01*
X10755000Y11208951D01*
Y11191049D01*
X10761851Y11174510D01*
X10771361Y11165000D01*
X10761851Y11155491D01*
X10755000Y11138951D01*
Y11121049D01*
X10761851Y11104510D01*
X10771361Y11095000D01*
X10761851Y11085490D01*
X10755000Y11068951D01*
Y11051049D01*
X10761851Y11034510D01*
X10774510Y11021851D01*
X10791049Y11015000D01*
X10808951D01*
X10825491Y11021851D01*
X10835000Y11031360D01*
X10844510Y11021851D01*
X10861049Y11015000D01*
X10878951D01*
X10895491Y11021851D01*
X10901703Y11028064D01*
X10910000Y11033334D01*
X10918297Y11028064D01*
X10924510Y11021851D01*
X10941049Y11015000D01*
X10958951D01*
X10975491Y11021851D01*
X10981703Y11028064D01*
X10990000Y11033334D01*
X10998297Y11028064D01*
X11004510Y11021851D01*
X11021049Y11015000D01*
X11038951D01*
X11055491Y11021851D01*
X11068149Y11034510D01*
X11075000Y11051049D01*
Y11068951D01*
X11068149Y11085490D01*
X11058640Y11095000D01*
X11068149Y11104510D01*
X11075000Y11121049D01*
Y11138951D01*
X11068149Y11155491D01*
X11058640Y11165000D01*
X11068149Y11174510D01*
X11075000Y11191049D01*
Y11208951D01*
X11068149Y11225490D01*
X11061936Y11231703D01*
X11056667Y11240000D01*
X11061936Y11248297D01*
X11068149Y11254510D01*
X11075000Y11271049D01*
Y11288951D01*
X11068149Y11305490D01*
X11055491Y11318149D01*
X11044524Y11322692D01*
X11047051Y11335392D01*
X13657257D01*
X13694550Y11327974D01*
D02*
G37*
G36*
X11779608Y7250000D02*
X11781160Y7242196D01*
X11785581Y7235581D01*
X11792196Y7231160D01*
X11800000Y7229608D01*
X12504119D01*
Y6949005D01*
X12060995Y6505882D01*
X10969005D01*
X10882443Y6592443D01*
X10867558Y6602389D01*
X10850000Y6605882D01*
X10540000D01*
X10535568Y6605000D01*
X10531049D01*
X10526874Y6603271D01*
X10522442Y6602389D01*
X10518684Y6599878D01*
X10514510Y6598149D01*
X10511315Y6594954D01*
X10507557Y6592443D01*
X10505046Y6588686D01*
X10501851Y6585491D01*
X10500122Y6581316D01*
X10497611Y6577558D01*
X10496729Y6573126D01*
X10495000Y6568951D01*
Y6564432D01*
X10494118Y6560000D01*
X10495000Y6555568D01*
Y6551049D01*
X10496729Y6546874D01*
X10497611Y6542442D01*
X10500122Y6538684D01*
X10501851Y6534510D01*
X10505046Y6531315D01*
X10507557Y6527557D01*
X10511315Y6525046D01*
X10514510Y6521851D01*
X10518684Y6520122D01*
X10522442Y6517611D01*
X10526874Y6516729D01*
X10531049Y6515000D01*
X10535568D01*
X10540000Y6514119D01*
X10830801D01*
X10839314Y6505102D01*
X10837995Y6492736D01*
X10837557Y6492443D01*
X10777557Y6432443D01*
X10775046Y6428685D01*
X10771851Y6425490D01*
X10770122Y6421316D01*
X10767611Y6417558D01*
X10766729Y6413125D01*
X10765000Y6408951D01*
Y6404432D01*
X10764118Y6400000D01*
X10765000Y6395568D01*
Y6391049D01*
X10766729Y6386874D01*
X10767611Y6382442D01*
X10770122Y6378684D01*
X10771851Y6374509D01*
X10775046Y6371314D01*
X10777557Y6367557D01*
X10781314Y6365046D01*
X10784510Y6361851D01*
X10788684Y6360122D01*
X10792442Y6357611D01*
X10796875Y6356729D01*
X10801049Y6355000D01*
X10805568D01*
X10810000Y6354118D01*
X10814432Y6355000D01*
X10818951D01*
X10823125Y6356729D01*
X10827558Y6357611D01*
X10831316Y6360122D01*
X10835490Y6361851D01*
X10838685Y6365046D01*
X10842443Y6367557D01*
X10889005Y6414118D01*
X12080000D01*
X12097558Y6417611D01*
X12112443Y6427557D01*
X12582443Y6897557D01*
X12592389Y6912442D01*
X12595882Y6930000D01*
Y7229608D01*
X12936864D01*
Y6923726D01*
X11116569Y5103431D01*
X11109386Y5092681D01*
X11106863Y5080000D01*
Y4790503D01*
X11101851Y4785490D01*
X11095000Y4768951D01*
Y4751049D01*
X11100245Y4738386D01*
X11094081Y4725686D01*
X10793401D01*
X10734078Y4785009D01*
Y4788493D01*
X10727227Y4805032D01*
X10714568Y4817691D01*
X10698029Y4824542D01*
X10680127D01*
X10663588Y4817691D01*
X10650929Y4805032D01*
X10644078Y4788493D01*
Y4770591D01*
X10650929Y4754051D01*
X10663588Y4741393D01*
X10680127Y4734542D01*
X10683611D01*
X10753386Y4664766D01*
X10764963Y4657031D01*
X10778620Y4654314D01*
X10872714D01*
X10877975Y4641614D01*
X10871851Y4635490D01*
X10865000Y4618951D01*
Y4601049D01*
X10871851Y4584509D01*
X10884510Y4571851D01*
X10901049Y4565000D01*
X10918951D01*
X10935490Y4571851D01*
X10948149Y4584509D01*
X10955000Y4601049D01*
Y4618951D01*
X10948149Y4635490D01*
X10942025Y4641614D01*
X10947286Y4654314D01*
X11335219D01*
X11574314Y4415219D01*
Y4357954D01*
X11571851Y4355490D01*
X11565000Y4338951D01*
Y4321049D01*
X11569604Y4309934D01*
X11562533Y4297234D01*
X11360815D01*
X11285465Y4372584D01*
Y4379673D01*
X11278614Y4396213D01*
X11265956Y4408871D01*
X11249416Y4415722D01*
X11231514D01*
X11214975Y4408871D01*
X11202316Y4396213D01*
X11195465Y4379673D01*
Y4361771D01*
X11202316Y4345232D01*
X11214975Y4332573D01*
X11231514Y4325722D01*
X11238603D01*
X11323659Y4240667D01*
X11334409Y4233484D01*
X11347090Y4230961D01*
X12613749D01*
X12618762Y4225949D01*
X12635301Y4219098D01*
X12653203D01*
X12669743Y4225949D01*
X12682401Y4238607D01*
X12689252Y4255147D01*
Y4273049D01*
X12682401Y4289588D01*
X12669743Y4302247D01*
X12653203Y4309098D01*
X12635301D01*
X12618762Y4302247D01*
X12613749Y4297234D01*
X11657467D01*
X11650396Y4309934D01*
X11655000Y4321049D01*
Y4338951D01*
X11648149Y4355490D01*
X11645686Y4357954D01*
Y4430000D01*
X11642969Y4443657D01*
X11635234Y4455234D01*
X11375234Y4715234D01*
X11363656Y4722969D01*
X11350000Y4725686D01*
X11185919D01*
X11179755Y4738386D01*
X11185000Y4751049D01*
Y4768951D01*
X11178149Y4785490D01*
X11173137Y4790503D01*
Y5066275D01*
X11475101Y5368239D01*
X11485867Y5361045D01*
X11485000Y5358951D01*
Y5341049D01*
X11491851Y5324510D01*
X11504510Y5311851D01*
X11521049Y5305000D01*
X11538951D01*
X11555490Y5311851D01*
X11568149Y5324510D01*
X11575000Y5341049D01*
Y5358951D01*
X11568149Y5375490D01*
X11555490Y5388149D01*
X11538951Y5395000D01*
X11521049D01*
X11518955Y5394133D01*
X11511761Y5404899D01*
X12993431Y6886569D01*
X13000613Y6897319D01*
X13003137Y6910000D01*
Y7229608D01*
X13434314D01*
Y4164782D01*
X12805219Y3535686D01*
X11527954D01*
X11525491Y3538149D01*
X11508951Y3545000D01*
X11491049D01*
X11474510Y3538149D01*
X11461851Y3525491D01*
X11455000Y3508951D01*
Y3491049D01*
X11461851Y3474510D01*
X11474510Y3461851D01*
X11491049Y3455000D01*
X11508951D01*
X11525491Y3461851D01*
X11527954Y3464314D01*
X12820000D01*
X12833656Y3467031D01*
X12845235Y3474766D01*
X13495235Y4124766D01*
X13502969Y4136344D01*
X13505685Y4150000D01*
Y7229608D01*
X13895451D01*
X13895776Y7229592D01*
X13896062Y7229535D01*
X13896925D01*
X13897278Y7229518D01*
X13897395Y7229535D01*
X13899150D01*
X13902228Y7229262D01*
X13906154Y7226640D01*
X13909601Y7223371D01*
X13911871Y7220863D01*
X13912697Y7219235D01*
X13911755Y6495827D01*
X13899052Y6493309D01*
X13898149Y6495490D01*
X13885490Y6508149D01*
X13868951Y6515000D01*
X13851048D01*
X13834509Y6508149D01*
X13821851Y6495490D01*
X13814999Y6478951D01*
Y6461049D01*
X13821851Y6444510D01*
X13831361Y6435000D01*
X13821851Y6425490D01*
X13814999Y6408951D01*
Y6391049D01*
X13821851Y6374509D01*
X13826360Y6370000D01*
X13821851Y6365490D01*
X13814999Y6348951D01*
Y6331049D01*
X13821851Y6314510D01*
X13834509Y6301851D01*
X13851048Y6295000D01*
X13868951D01*
X13885490Y6301851D01*
X13898149Y6314510D01*
X13898822Y6316135D01*
X13911519Y6313601D01*
X13907388Y3138857D01*
Y3122220D01*
X13900897Y3089587D01*
X13888164Y3058847D01*
X13869679Y3031182D01*
X13790382Y2951887D01*
X13790382D01*
X13775653Y2937156D01*
X13741010Y2914009D01*
X13702518Y2898065D01*
X13661653Y2889936D01*
X6537447D01*
X6494818Y2898416D01*
X6454662Y2915049D01*
X6418523Y2939196D01*
X6403157Y2954563D01*
X6344760Y3012960D01*
X6344760D01*
X6332360Y3025359D01*
X6312875Y3054521D01*
X6299454Y3086923D01*
X6292612Y3121321D01*
Y3138857D01*
Y7283278D01*
X6381097D01*
X6384625Y7283979D01*
X6388899Y7284829D01*
X6388900Y7284830D01*
X6395516Y7289250D01*
X6397664Y7292464D01*
X6406061Y7300862D01*
X6415106Y7304608D01*
X6424895D01*
X6433939Y7300862D01*
X6442337Y7292464D01*
X6444484Y7289250D01*
X6451100Y7284830D01*
X6451101Y7284829D01*
X6455375Y7283979D01*
X6458904Y7283278D01*
X6829505D01*
X6836560Y7272718D01*
X6835000Y7268951D01*
Y7251049D01*
X6841851Y7234510D01*
X6854510Y7221851D01*
X6871049Y7215000D01*
X6874533D01*
X6994766Y7094766D01*
X7006344Y7087031D01*
X7020000Y7084314D01*
X8020148D01*
X8033804Y7087031D01*
X8040963Y7091814D01*
X8064038D01*
X8071196Y7087031D01*
X8084853Y7084314D01*
X9025219D01*
X9564766Y6544766D01*
X9576344Y6537031D01*
X9590000Y6534314D01*
X10045218D01*
X10444314Y6135218D01*
Y5530000D01*
X10447031Y5516344D01*
X10454766Y5504766D01*
X10854314Y5105218D01*
Y4817954D01*
X10851851Y4815490D01*
X10845000Y4798951D01*
Y4781049D01*
X10851851Y4764510D01*
X10864510Y4751851D01*
X10881049Y4745000D01*
X10898951D01*
X10915490Y4751851D01*
X10928149Y4764510D01*
X10935000Y4781049D01*
Y4798951D01*
X10928149Y4815490D01*
X10925686Y4817954D01*
Y5120000D01*
X10922969Y5133656D01*
X10915234Y5145234D01*
X10515686Y5544781D01*
Y6150000D01*
X10512969Y6163656D01*
X10505234Y6175234D01*
X10085234Y6595234D01*
X10073656Y6602969D01*
X10060000Y6605686D01*
X9604782D01*
X9065234Y7145234D01*
X9053657Y7152969D01*
X9040000Y7155686D01*
X8098168D01*
X8091009Y7160469D01*
X8077353Y7163185D01*
X8027648D01*
X8013991Y7160469D01*
X8006833Y7155686D01*
X7034781D01*
X6925000Y7265467D01*
Y7268951D01*
X6923440Y7272718D01*
X6930495Y7283278D01*
X7045000D01*
X7052804Y7284830D01*
X7059419Y7289250D01*
X7063840Y7295866D01*
X7065392Y7303669D01*
Y7304894D01*
X7067507Y7310000D01*
X7484608D01*
Y7303669D01*
X7486160Y7295866D01*
X7490581Y7289250D01*
X7497196Y7284830D01*
X7505000Y7283278D01*
X10311096D01*
X10314625Y7283979D01*
X10318899Y7284829D01*
X10318900Y7284830D01*
X10325516Y7289250D01*
X10327663Y7292464D01*
X10336061Y7300862D01*
X10345105Y7304608D01*
X10354894D01*
X10363939Y7300862D01*
X10372336Y7292464D01*
X10374484Y7289250D01*
X10381100Y7284830D01*
X10381101Y7284829D01*
X10385375Y7283979D01*
X10388903Y7283278D01*
X10594731D01*
X10602534Y7284829D01*
X10609150Y7289250D01*
X10613570Y7295866D01*
X10618831Y7308566D01*
X10619116Y7310000D01*
X10620001D01*
X10620384Y7316369D01*
X10620000Y7318295D01*
X10620000Y7322700D01*
Y7372493D01*
X10627804Y7375726D01*
X10634419Y7380146D01*
X10638840Y7386762D01*
X10640392Y7394565D01*
Y7809608D01*
X11779608D01*
Y7250000D01*
D02*
G37*
%LPC*%
G36*
X8598951Y11315000D02*
X8581049D01*
X8564510Y11308149D01*
X8558297Y11301936D01*
X8550000Y11296667D01*
X8541703Y11301936D01*
X8535490Y11308149D01*
X8518951Y11315000D01*
X8501049D01*
X8484510Y11308149D01*
X8478297Y11301936D01*
X8470000Y11296667D01*
X8461703Y11301936D01*
X8455490Y11308149D01*
X8438951Y11315000D01*
X8421049D01*
X8404509Y11308149D01*
X8395000Y11298640D01*
X8385490Y11308149D01*
X8368951Y11315000D01*
X8351049D01*
X8334510Y11308149D01*
X8325000Y11298639D01*
X8315490Y11308149D01*
X8298951Y11315000D01*
X8281049D01*
X8264510Y11308149D01*
X8255000Y11298640D01*
X8245490Y11308149D01*
X8228951Y11315000D01*
X8211049D01*
X8194510Y11308149D01*
X8185000Y11298639D01*
X8175490Y11308149D01*
X8158951Y11315000D01*
X8141049D01*
X8124510Y11308149D01*
X8115000Y11298640D01*
X8105491Y11308149D01*
X8088951Y11315000D01*
X8071049D01*
X8054510Y11308149D01*
X8045000Y11298639D01*
X8035490Y11308149D01*
X8018951Y11315000D01*
X8001049D01*
X7984510Y11308149D01*
X7978297Y11301936D01*
X7970000Y11296667D01*
X7961703Y11301936D01*
X7955490Y11308149D01*
X7938951Y11315000D01*
X7921049D01*
X7904509Y11308149D01*
X7891851Y11295490D01*
X7885000Y11278951D01*
Y11261049D01*
X7891851Y11244510D01*
X7898064Y11238297D01*
X7903333Y11230000D01*
X7898064Y11221703D01*
X7891851Y11215490D01*
X7885000Y11198951D01*
Y11181049D01*
X7891851Y11164510D01*
X7901360Y11155000D01*
X7891851Y11145491D01*
X7885000Y11128951D01*
Y11111049D01*
X7891851Y11094510D01*
X7901360Y11085000D01*
X7891851Y11075490D01*
X7885000Y11058951D01*
Y11041049D01*
X7891851Y11024510D01*
X7904509Y11011851D01*
X7921049Y11005000D01*
X7938951D01*
X7955490Y11011851D01*
X7961703Y11018064D01*
X7970000Y11023334D01*
X7978297Y11018064D01*
X7984510Y11011851D01*
X8001049Y11005000D01*
X8018951D01*
X8035490Y11011851D01*
X8045000Y11021361D01*
X8054510Y11011851D01*
X8071049Y11005000D01*
X8088951D01*
X8105491Y11011851D01*
X8115000Y11021360D01*
X8124510Y11011851D01*
X8141049Y11005000D01*
X8158951D01*
X8175490Y11011851D01*
X8185000Y11021361D01*
X8194510Y11011851D01*
X8211049Y11005000D01*
X8228951D01*
X8245490Y11011851D01*
X8255000Y11021360D01*
X8264510Y11011851D01*
X8281049Y11005000D01*
X8298951D01*
X8315490Y11011851D01*
X8325000Y11021361D01*
X8334510Y11011851D01*
X8351049Y11005000D01*
X8368951D01*
X8385490Y11011851D01*
X8395000Y11021360D01*
X8404509Y11011851D01*
X8421049Y11005000D01*
X8438951D01*
X8455490Y11011851D01*
X8461703Y11018064D01*
X8470000Y11023334D01*
X8478297Y11018064D01*
X8484510Y11011851D01*
X8501049Y11005000D01*
X8518951D01*
X8535490Y11011851D01*
X8541703Y11018064D01*
X8550000Y11023334D01*
X8558297Y11018064D01*
X8564510Y11011851D01*
X8581049Y11005000D01*
X8598951D01*
X8615491Y11011851D01*
X8628149Y11024510D01*
X8635000Y11041049D01*
Y11058951D01*
X8628149Y11075490D01*
X8618640Y11085000D01*
X8628149Y11094510D01*
X8635000Y11111049D01*
Y11128951D01*
X8628149Y11145491D01*
X8618640Y11155000D01*
X8628149Y11164510D01*
X8635000Y11181049D01*
Y11198951D01*
X8628149Y11215490D01*
X8621936Y11221703D01*
X8616667Y11230000D01*
X8621936Y11238297D01*
X8628149Y11244510D01*
X8635000Y11261049D01*
Y11278951D01*
X8628149Y11295490D01*
X8615491Y11308149D01*
X8598951Y11315000D01*
D02*
G37*
G36*
X12278951Y11145000D02*
X12261049D01*
X12244510Y11138149D01*
X12235000Y11128639D01*
X12225490Y11138149D01*
X12208951Y11145000D01*
X12191049D01*
X12174509Y11138149D01*
X12170000Y11133639D01*
X12165491Y11138149D01*
X12148951Y11145000D01*
X12131049D01*
X12114510Y11138149D01*
X12101851Y11125490D01*
X12095000Y11108951D01*
Y11091049D01*
X12101851Y11074509D01*
X12111361Y11065000D01*
X12101851Y11055490D01*
X12095000Y11038951D01*
Y11021049D01*
X12101851Y11004510D01*
X12114510Y10991851D01*
X12131049Y10985000D01*
X12148951D01*
X12165491Y10991851D01*
X12170000Y10996361D01*
X12174509Y10991851D01*
X12191049Y10985000D01*
X12208951D01*
X12225490Y10991851D01*
X12235000Y11001361D01*
X12244510Y10991851D01*
X12261049Y10985000D01*
X12278951D01*
X12295491Y10991851D01*
X12308149Y11004510D01*
X12315000Y11021049D01*
Y11038951D01*
X12308149Y11055490D01*
X12298640Y11065000D01*
X12308149Y11074509D01*
X12315000Y11091049D01*
Y11108951D01*
X12308149Y11125490D01*
X12295491Y11138149D01*
X12278951Y11145000D01*
D02*
G37*
G36*
X9158951Y10965000D02*
X9141049D01*
X9124510Y10958149D01*
X9111851Y10945490D01*
X9105000Y10928951D01*
Y10911049D01*
X9111851Y10894510D01*
X9124510Y10881851D01*
X9141049Y10875000D01*
X9158951D01*
X9175490Y10881851D01*
X9188149Y10894510D01*
X9195000Y10911049D01*
Y10928951D01*
X9188149Y10945490D01*
X9175490Y10958149D01*
X9158951Y10965000D01*
D02*
G37*
G36*
X9038951D02*
X9021049D01*
X9004510Y10958149D01*
X8991851Y10945490D01*
X8985000Y10928951D01*
Y10911049D01*
X8991851Y10894510D01*
X9004510Y10881851D01*
X9021049Y10875000D01*
X9038951D01*
X9055490Y10881851D01*
X9068149Y10894510D01*
X9075000Y10911049D01*
Y10928951D01*
X9068149Y10945490D01*
X9055490Y10958149D01*
X9038951Y10965000D01*
D02*
G37*
G36*
X8898951D02*
X8881049D01*
X8864510Y10958149D01*
X8851851Y10945490D01*
X8845000Y10928951D01*
Y10911049D01*
X8851851Y10894510D01*
X8864510Y10881851D01*
X8881049Y10875000D01*
X8898951D01*
X8915490Y10881851D01*
X8928149Y10894510D01*
X8935000Y10911049D01*
Y10928951D01*
X8928149Y10945490D01*
X8915490Y10958149D01*
X8898951Y10965000D01*
D02*
G37*
G36*
X10368951Y10865000D02*
X10351049D01*
X10334510Y10858149D01*
X10321851Y10845490D01*
X10315000Y10828951D01*
Y10811049D01*
X10321851Y10794510D01*
X10334510Y10781851D01*
X10351049Y10775000D01*
X10368951D01*
X10385491Y10781851D01*
X10398149Y10794510D01*
X10405000Y10811049D01*
Y10828951D01*
X10398149Y10845490D01*
X10385491Y10858149D01*
X10368951Y10865000D01*
D02*
G37*
G36*
X12338951Y10905000D02*
X12321049D01*
X12304510Y10898149D01*
X12291851Y10885491D01*
X12285000Y10868951D01*
Y10851049D01*
X12291851Y10834510D01*
X12296360Y10830000D01*
X12291851Y10825491D01*
X12285000Y10808951D01*
Y10791049D01*
X12291851Y10774510D01*
X12301361Y10765000D01*
X12291851Y10755491D01*
X12285000Y10738951D01*
Y10721049D01*
X12291851Y10704510D01*
X12304510Y10691851D01*
X12321049Y10685000D01*
X12338951D01*
X12355490Y10691851D01*
X12368149Y10704510D01*
X12375000Y10721049D01*
Y10738951D01*
X12368149Y10755491D01*
X12358639Y10765000D01*
X12368149Y10774510D01*
X12375000Y10791049D01*
Y10808951D01*
X12368149Y10825491D01*
X12363639Y10830000D01*
X12368149Y10834510D01*
X12375000Y10851049D01*
Y10868951D01*
X12368149Y10885491D01*
X12355490Y10898149D01*
X12338951Y10905000D01*
D02*
G37*
G36*
X13218951Y10695000D02*
X13201048D01*
X13184509Y10688149D01*
X13171851Y10675491D01*
X13164999Y10658951D01*
Y10641049D01*
X13171851Y10624510D01*
X13184509Y10611851D01*
X13201048Y10605000D01*
X13218951D01*
X13235490Y10611851D01*
X13248149Y10624510D01*
X13255000Y10641049D01*
Y10658951D01*
X13248149Y10675491D01*
X13235490Y10688149D01*
X13218951Y10695000D01*
D02*
G37*
G36*
X9308951Y10675000D02*
X9291049D01*
X9274510Y10668149D01*
X9261851Y10655491D01*
X9255000Y10638951D01*
Y10621049D01*
X9261851Y10604510D01*
X9274510Y10591851D01*
X9291049Y10585000D01*
X9308951D01*
X9325490Y10591851D01*
X9338149Y10604510D01*
X9345000Y10621049D01*
Y10638951D01*
X9338149Y10655491D01*
X9325490Y10668149D01*
X9308951Y10675000D01*
D02*
G37*
G36*
X7172036Y11140000D02*
X7127963D01*
X7084433Y11133105D01*
X7042517Y11119486D01*
X7003248Y11099478D01*
X6967592Y11073572D01*
X6936428Y11042408D01*
X6910522Y11006752D01*
X6890514Y10967483D01*
X6876895Y10925567D01*
X6870000Y10882037D01*
Y10837964D01*
X6876895Y10794433D01*
X6890514Y10752517D01*
X6910522Y10713248D01*
X6936428Y10677592D01*
X6967592Y10646428D01*
X7003248Y10620523D01*
X7042517Y10600514D01*
X7084433Y10586895D01*
X7127963Y10580000D01*
X7172036D01*
X7215567Y10586895D01*
X7257483Y10600514D01*
X7296752Y10620523D01*
X7332408Y10646428D01*
X7363572Y10677592D01*
X7389477Y10713248D01*
X7409486Y10752517D01*
X7423105Y10794433D01*
X7430000Y10837964D01*
Y10882037D01*
X7423105Y10925567D01*
X7409486Y10967483D01*
X7389477Y11006752D01*
X7363572Y11042408D01*
X7332408Y11073572D01*
X7296752Y11099478D01*
X7257483Y11119486D01*
X7215567Y11133105D01*
X7172036Y11140000D01*
D02*
G37*
G36*
X12108951Y10595000D02*
X12091049D01*
X12074510Y10588149D01*
X12061851Y10575491D01*
X12061350Y10574282D01*
X12048650D01*
X12048149Y10575491D01*
X12035491Y10588149D01*
X12018951Y10595000D01*
X12001049D01*
X11984510Y10588149D01*
X11971851Y10575491D01*
X11965000Y10558951D01*
Y10541049D01*
X11971851Y10524510D01*
X11976361Y10520000D01*
X11971851Y10515491D01*
X11965000Y10498951D01*
Y10481049D01*
X11971851Y10464510D01*
X11981361Y10455000D01*
X11971851Y10445491D01*
X11965000Y10428951D01*
Y10411049D01*
X11971851Y10394510D01*
X11984510Y10381851D01*
X12001049Y10375000D01*
X12018951D01*
X12035491Y10381851D01*
X12048149Y10394510D01*
X12048650Y10395719D01*
X12061350D01*
X12061851Y10394510D01*
X12074510Y10381851D01*
X12091049Y10375000D01*
X12108951D01*
X12125490Y10381851D01*
X12138149Y10394510D01*
X12145000Y10411049D01*
Y10428951D01*
X12138149Y10445491D01*
X12128639Y10455000D01*
X12138149Y10464510D01*
X12145000Y10481049D01*
Y10498951D01*
X12138149Y10515491D01*
X12133639Y10520000D01*
X12138149Y10524510D01*
X12145000Y10541049D01*
Y10558951D01*
X12138149Y10575491D01*
X12125490Y10588149D01*
X12108951Y10595000D01*
D02*
G37*
G36*
X13088951Y10525000D02*
X13071049D01*
X13054510Y10518149D01*
X13041850Y10505491D01*
X13035001Y10488951D01*
Y10471049D01*
X13041850Y10454510D01*
X13054510Y10441851D01*
X13071049Y10435000D01*
X13088951D01*
X13105490Y10441851D01*
X13118149Y10454510D01*
X13125000Y10471049D01*
Y10488951D01*
X13118149Y10505491D01*
X13105490Y10518149D01*
X13088951Y10525000D01*
D02*
G37*
G36*
X9048951Y10515000D02*
X9031049D01*
X9014510Y10508149D01*
X9001851Y10495490D01*
X8995000Y10478951D01*
Y10461049D01*
X9001851Y10444509D01*
X9014510Y10431851D01*
X9031049Y10425000D01*
X9048951D01*
X9065490Y10431851D01*
X9078149Y10444509D01*
X9085000Y10461049D01*
Y10478951D01*
X9078149Y10495490D01*
X9065490Y10508149D01*
X9048951Y10515000D01*
D02*
G37*
G36*
X12218951Y10595000D02*
X12201049D01*
X12184510Y10588149D01*
X12171851Y10575491D01*
X12165000Y10558951D01*
Y10541049D01*
X12171851Y10524510D01*
X12176360Y10520000D01*
X12171851Y10515491D01*
X12165000Y10498951D01*
Y10481049D01*
X12171851Y10464510D01*
X12181360Y10455000D01*
X12171851Y10445491D01*
X12165000Y10428951D01*
Y10411049D01*
X12171851Y10394510D01*
X12184510Y10381851D01*
X12201049Y10375000D01*
X12218951D01*
X12235490Y10381851D01*
X12248149Y10394510D01*
X12255000Y10411049D01*
Y10428951D01*
X12248149Y10445491D01*
X12238639Y10455000D01*
X12248149Y10464510D01*
X12255000Y10481049D01*
Y10498951D01*
X12248149Y10515491D01*
X12243639Y10520000D01*
X12248149Y10524510D01*
X12255000Y10541049D01*
Y10558951D01*
X12248149Y10575491D01*
X12235490Y10588149D01*
X12218951Y10595000D01*
D02*
G37*
G36*
X12328951Y10595000D02*
X12311049D01*
X12294510Y10588149D01*
X12281851Y10575490D01*
X12275000Y10558951D01*
Y10541049D01*
X12281851Y10524510D01*
X12286360Y10520000D01*
X12281851Y10515491D01*
X12275000Y10498951D01*
Y10481049D01*
X12281851Y10464510D01*
X12291361Y10455000D01*
X12281851Y10445490D01*
X12275000Y10428951D01*
Y10411049D01*
X12281851Y10394510D01*
X12294510Y10381851D01*
X12311049Y10375000D01*
X12328951D01*
X12345490Y10381851D01*
X12358149Y10394510D01*
X12365000Y10411049D01*
Y10428951D01*
X12358149Y10445490D01*
X12348639Y10455000D01*
X12358149Y10464510D01*
X12365000Y10481049D01*
Y10498951D01*
X12358149Y10515491D01*
X12353640Y10520000D01*
X12358149Y10524510D01*
X12365000Y10541049D01*
Y10558951D01*
X12358149Y10575490D01*
X12345490Y10588149D01*
X12328951Y10595000D01*
D02*
G37*
G36*
X9388951Y10455000D02*
X9371049D01*
X9354510Y10448149D01*
X9341851Y10435490D01*
X9335000Y10418951D01*
Y10401049D01*
X9341851Y10384510D01*
X9354510Y10371851D01*
X9371049Y10365000D01*
X9388951D01*
X9405490Y10371851D01*
X9418149Y10384510D01*
X9425000Y10401049D01*
Y10418951D01*
X9418149Y10435490D01*
X9405490Y10448149D01*
X9388951Y10455000D01*
D02*
G37*
G36*
X8068951Y10365000D02*
X8051049D01*
X8034509Y10358149D01*
X8025000Y10348639D01*
X8015490Y10358149D01*
X7998951Y10365000D01*
X7981049D01*
X7964510Y10358149D01*
X7958297Y10351936D01*
X7950000Y10346666D01*
X7941703Y10351936D01*
X7935490Y10358149D01*
X7918951Y10365000D01*
X7901049D01*
X7884510Y10358149D01*
X7878297Y10351936D01*
X7870000Y10346666D01*
X7861703Y10351936D01*
X7855491Y10358149D01*
X7838951Y10365000D01*
X7821049D01*
X7804510Y10358149D01*
X7791851Y10345491D01*
X7778149D01*
X7765490Y10358149D01*
X7748951Y10365000D01*
X7731049D01*
X7714510Y10358149D01*
X7701851Y10345490D01*
X7696789Y10333270D01*
X7683267Y10332729D01*
X7678498Y10344241D01*
X7665839Y10356900D01*
X7649300Y10363751D01*
X7631398D01*
X7614859Y10356900D01*
X7602200Y10344242D01*
X7588560Y10344498D01*
X7588149Y10345490D01*
X7575490Y10358149D01*
X7558951Y10365000D01*
X7541049D01*
X7524509Y10358149D01*
X7511851Y10345490D01*
X7505000Y10328951D01*
Y10311049D01*
X7511851Y10294510D01*
X7524509Y10281851D01*
X7541049Y10275000D01*
X7558951D01*
X7575490Y10281851D01*
X7588149Y10294509D01*
X7601789Y10294253D01*
X7602200Y10293261D01*
X7614859Y10280602D01*
X7631398Y10273751D01*
X7649300D01*
X7665839Y10280602D01*
X7678498Y10293261D01*
X7683560Y10305481D01*
X7697082Y10306022D01*
X7701851Y10294510D01*
X7714510Y10281851D01*
X7731049Y10275000D01*
X7748951D01*
X7765490Y10281851D01*
X7778149Y10294509D01*
X7791851D01*
X7804510Y10281851D01*
X7821049Y10275000D01*
X7838951D01*
X7855491Y10281851D01*
X7861703Y10288064D01*
X7870000Y10293334D01*
X7878297Y10288064D01*
X7884510Y10281851D01*
X7901049Y10275000D01*
X7918951D01*
X7935490Y10281851D01*
X7941703Y10288064D01*
X7950000Y10293333D01*
X7958297Y10288064D01*
X7964510Y10281851D01*
X7981049Y10275000D01*
X7998951D01*
X8015490Y10281851D01*
X8025000Y10291360D01*
X8034509Y10281851D01*
X8051049Y10275000D01*
X8068951D01*
X8085490Y10281851D01*
X8098149Y10294510D01*
X8105000Y10311049D01*
Y10328951D01*
X8098149Y10345490D01*
X8085490Y10358149D01*
X8068951Y10365000D01*
D02*
G37*
G36*
X11216715Y10310706D02*
X11198813D01*
X11182274Y10303855D01*
X11169615Y10291197D01*
X11169114Y10289988D01*
X11156414D01*
X11155913Y10291197D01*
X11143255Y10303855D01*
X11126715Y10310706D01*
X11108813D01*
X11092274Y10303855D01*
X11079615Y10291197D01*
X11072764Y10274657D01*
Y10256755D01*
X11079615Y10240216D01*
X11089125Y10230706D01*
X11079615Y10221196D01*
X11072764Y10204657D01*
Y10186755D01*
X11079615Y10170216D01*
X11085828Y10164003D01*
X11091098Y10155706D01*
X11085828Y10147409D01*
X11079615Y10141197D01*
X11072764Y10124657D01*
Y10106755D01*
X11079615Y10090216D01*
X11092274Y10077557D01*
X11108813Y10070706D01*
X11126715D01*
X11143255Y10077557D01*
X11155913Y10090216D01*
X11156414Y10091425D01*
X11169114D01*
X11169615Y10090216D01*
X11182274Y10077557D01*
X11198813Y10070706D01*
X11216715D01*
X11233255Y10077557D01*
X11245913Y10090216D01*
X11252764Y10106755D01*
Y10124657D01*
X11245913Y10141197D01*
X11236404Y10150706D01*
X11245913Y10160216D01*
X11252764Y10176755D01*
Y10194657D01*
X11245913Y10211196D01*
X11239700Y10217409D01*
X11234431Y10225706D01*
X11239700Y10234003D01*
X11245913Y10240216D01*
X11252764Y10256755D01*
Y10274657D01*
X11245913Y10291197D01*
X11233255Y10303855D01*
X11216715Y10310706D01*
D02*
G37*
G36*
X10108951Y10335000D02*
X10091049D01*
X10074510Y10328149D01*
X10061851Y10315490D01*
X10055000Y10298951D01*
Y10281049D01*
X10061851Y10264510D01*
X10074510Y10251851D01*
X10091049Y10245000D01*
X10108951D01*
X10125491Y10251851D01*
X10138149Y10264510D01*
X10145000Y10281049D01*
Y10298951D01*
X10138149Y10315490D01*
X10125491Y10328149D01*
X10108951Y10335000D01*
D02*
G37*
G36*
X9348951D02*
X9331049D01*
X9314510Y10328149D01*
X9301851Y10315490D01*
X9295000Y10298951D01*
Y10281049D01*
X9301851Y10264510D01*
X9314510Y10251851D01*
X9331049Y10245000D01*
X9348951D01*
X9365491Y10251851D01*
X9378149Y10264510D01*
X9385000Y10281049D01*
Y10298951D01*
X9378149Y10315490D01*
X9365491Y10328149D01*
X9348951Y10335000D01*
D02*
G37*
G36*
X10968951Y10325000D02*
X10951049D01*
X10934510Y10318149D01*
X10921851Y10305490D01*
X10915000Y10288951D01*
Y10271049D01*
X10921851Y10254510D01*
X10934510Y10241851D01*
X10951049Y10235000D01*
X10968951D01*
X10985490Y10241851D01*
X10998149Y10254510D01*
X11005000Y10271049D01*
Y10288951D01*
X10998149Y10305490D01*
X10985490Y10318149D01*
X10968951Y10325000D01*
D02*
G37*
G36*
X10598951Y10255000D02*
X10581049D01*
X10564509Y10248149D01*
X10551851Y10235490D01*
X10545000Y10218951D01*
Y10201049D01*
X10551851Y10184509D01*
X10564509Y10171851D01*
X10581049Y10165000D01*
X10598951D01*
X10615490Y10171851D01*
X10628149Y10184509D01*
X10635000Y10201049D01*
Y10218951D01*
X10628149Y10235490D01*
X10615490Y10248149D01*
X10598951Y10255000D01*
D02*
G37*
G36*
X13138951Y10035000D02*
X13121049D01*
X13104509Y10028149D01*
X13091850Y10015491D01*
X13085001Y9998951D01*
Y9981049D01*
X13091850Y9964510D01*
X13104509Y9951851D01*
X13121049Y9945000D01*
X13138951D01*
X13155490Y9951851D01*
X13168149Y9964510D01*
X13175000Y9981049D01*
Y9998951D01*
X13168149Y10015491D01*
X13155490Y10028149D01*
X13138951Y10035000D01*
D02*
G37*
G36*
X8078951Y9845000D02*
X8061049D01*
X8044510Y9838149D01*
X8031851Y9825490D01*
X8026733Y9813135D01*
X8013267D01*
X8008149Y9825490D01*
X7995490Y9838149D01*
X7978951Y9845000D01*
X7961049D01*
X7944510Y9838149D01*
X7931851Y9825491D01*
X7918149D01*
X7905490Y9838149D01*
X7888951Y9845000D01*
X7871049D01*
X7854510Y9838149D01*
X7848297Y9831936D01*
X7840000Y9826666D01*
X7831703Y9831936D01*
X7825490Y9838149D01*
X7808951Y9845000D01*
X7791049D01*
X7774509Y9838149D01*
X7765000Y9828639D01*
X7755490Y9838149D01*
X7738951Y9845000D01*
X7721049D01*
X7704510Y9838149D01*
X7698297Y9831936D01*
X7690000Y9826666D01*
X7681703Y9831936D01*
X7675490Y9838149D01*
X7658951Y9845000D01*
X7641049D01*
X7624510Y9838149D01*
X7615000Y9828639D01*
X7605491Y9838149D01*
X7588951Y9845000D01*
X7571049D01*
X7554510Y9838149D01*
X7541851Y9825490D01*
X7535000Y9808951D01*
Y9791049D01*
X7541851Y9774510D01*
X7554510Y9761851D01*
X7571049Y9755000D01*
X7588951D01*
X7605491Y9761851D01*
X7615000Y9771360D01*
X7624510Y9761851D01*
X7641049Y9755000D01*
X7658951D01*
X7675490Y9761851D01*
X7681703Y9768064D01*
X7690000Y9773334D01*
X7698297Y9768064D01*
X7704510Y9761851D01*
X7721049Y9755000D01*
X7738951D01*
X7755490Y9761851D01*
X7765000Y9771360D01*
X7774509Y9761851D01*
X7791049Y9755000D01*
X7808951D01*
X7825490Y9761851D01*
X7831703Y9768064D01*
X7840000Y9773334D01*
X7848297Y9768064D01*
X7854510Y9761851D01*
X7871049Y9755000D01*
X7888951D01*
X7905490Y9761851D01*
X7918149Y9774509D01*
X7931851D01*
X7944510Y9761851D01*
X7961049Y9755000D01*
X7978951D01*
X7995490Y9761851D01*
X8008149Y9774510D01*
X8013267Y9786865D01*
X8026733D01*
X8031851Y9774510D01*
X8044510Y9761851D01*
X8061049Y9755000D01*
X8078951D01*
X8095491Y9761851D01*
X8108149Y9774510D01*
X8115000Y9791049D01*
Y9808951D01*
X8108149Y9825490D01*
X8095491Y9838149D01*
X8078951Y9845000D01*
D02*
G37*
G36*
X10226715Y9990706D02*
X10208813D01*
X10192274Y9983855D01*
X10179615Y9971196D01*
X10172764Y9954657D01*
Y9936755D01*
X10179615Y9920216D01*
X10189125Y9910706D01*
X10179615Y9901197D01*
X10172764Y9884657D01*
Y9866755D01*
X10179615Y9850216D01*
X10189125Y9840706D01*
X10179615Y9831196D01*
X10172764Y9814657D01*
Y9796755D01*
X10179615Y9780216D01*
X10192274Y9767557D01*
X10208813Y9760706D01*
X10226715D01*
X10243255Y9767557D01*
X10255913Y9780216D01*
X10262764Y9796755D01*
Y9814657D01*
X10255913Y9831196D01*
X10246404Y9840706D01*
X10255913Y9850216D01*
X10262764Y9866755D01*
Y9884657D01*
X10255913Y9901197D01*
X10246404Y9910706D01*
X10255913Y9920216D01*
X10262764Y9936755D01*
Y9954657D01*
X10255913Y9971196D01*
X10243255Y9983855D01*
X10226715Y9990706D01*
D02*
G37*
G36*
X6605000Y9940992D02*
X6495000D01*
X6464979Y9937040D01*
X6437004Y9925452D01*
X6412981Y9907019D01*
X6394548Y9882996D01*
X6382960Y9855021D01*
X6379008Y9825000D01*
X6382960Y9794979D01*
X6394548Y9767004D01*
X6412981Y9742981D01*
X6437004Y9724548D01*
X6464979Y9712960D01*
X6495000Y9709008D01*
X6605000D01*
X6635021Y9712960D01*
X6662996Y9724548D01*
X6687019Y9742981D01*
X6705452Y9767004D01*
X6717040Y9794979D01*
X6720992Y9825000D01*
X6717040Y9855021D01*
X6705452Y9882996D01*
X6687019Y9907019D01*
X6662996Y9925452D01*
X6635021Y9937040D01*
X6605000Y9940992D01*
D02*
G37*
G36*
X13621667Y9995000D02*
X13578333D01*
X13535828Y9986545D01*
X13495792Y9969961D01*
X13459758Y9945885D01*
X13429115Y9915242D01*
X13405038Y9879209D01*
X13388455Y9839172D01*
X13380000Y9796668D01*
Y9753332D01*
X13388455Y9710828D01*
X13405038Y9670791D01*
X13429115Y9634758D01*
X13459758Y9604115D01*
X13495792Y9580039D01*
X13535828Y9563455D01*
X13578333Y9555000D01*
X13621667D01*
X13664172Y9563455D01*
X13704208Y9580039D01*
X13740242Y9604115D01*
X13770885Y9634758D01*
X13794962Y9670791D01*
X13811545Y9710828D01*
X13820000Y9753332D01*
Y9796668D01*
X13811545Y9839172D01*
X13794962Y9879209D01*
X13770885Y9915242D01*
X13740242Y9945885D01*
X13704208Y9969961D01*
X13664172Y9986545D01*
X13621667Y9995000D01*
D02*
G37*
G36*
X12287665Y9496200D02*
X12262335D01*
X12237869Y9489644D01*
X12215932Y9476979D01*
X12198021Y9459068D01*
X12185356Y9437132D01*
X12178800Y9412665D01*
Y9387335D01*
X12185356Y9362868D01*
X12198021Y9340932D01*
X12215932Y9323021D01*
X12237869Y9310356D01*
X12262335Y9303800D01*
X12287665D01*
X12312132Y9310356D01*
X12334069Y9323021D01*
X12351979Y9340932D01*
X12364644Y9362868D01*
X12371200Y9387335D01*
Y9412665D01*
X12364644Y9437132D01*
X12351979Y9459068D01*
X12334069Y9476979D01*
X12312132Y9489644D01*
X12287665Y9496200D01*
D02*
G37*
G36*
X11987665D02*
X11962335D01*
X11937869Y9489644D01*
X11915932Y9476979D01*
X11898021Y9459068D01*
X11885356Y9437132D01*
X11878800Y9412665D01*
Y9387335D01*
X11885356Y9362868D01*
X11898021Y9340932D01*
X11915932Y9323021D01*
X11937869Y9310356D01*
X11962335Y9303800D01*
X11987665D01*
X12012132Y9310356D01*
X12034069Y9323021D01*
X12051979Y9340932D01*
X12064644Y9362868D01*
X12071200Y9387335D01*
Y9412665D01*
X12064644Y9437132D01*
X12051979Y9459068D01*
X12034069Y9476979D01*
X12012132Y9489644D01*
X11987665Y9496200D01*
D02*
G37*
G36*
X10237665D02*
X10212335D01*
X10187868Y9489644D01*
X10165932Y9476979D01*
X10148021Y9459068D01*
X10135356Y9437132D01*
X10128800Y9412665D01*
Y9387335D01*
X10135356Y9362868D01*
X10148021Y9340932D01*
X10165932Y9323021D01*
X10187868Y9310356D01*
X10212335Y9303800D01*
X10237665D01*
X10262132Y9310356D01*
X10284068Y9323021D01*
X10301979Y9340932D01*
X10314644Y9362868D01*
X10321200Y9387335D01*
Y9412665D01*
X10314644Y9437132D01*
X10301979Y9459068D01*
X10284068Y9476979D01*
X10262132Y9489644D01*
X10237665Y9496200D01*
D02*
G37*
G36*
X9937665D02*
X9912335D01*
X9887868Y9489644D01*
X9865932Y9476979D01*
X9848021Y9459068D01*
X9835356Y9437132D01*
X9828800Y9412665D01*
Y9387335D01*
X9835356Y9362868D01*
X9848021Y9340932D01*
X9865932Y9323021D01*
X9887868Y9310356D01*
X9912335Y9303800D01*
X9937665D01*
X9962132Y9310356D01*
X9984068Y9323021D01*
X10001979Y9340932D01*
X10014644Y9362868D01*
X10021200Y9387335D01*
Y9412665D01*
X10014644Y9437132D01*
X10001979Y9459068D01*
X9984068Y9476979D01*
X9962132Y9489644D01*
X9937665Y9496200D01*
D02*
G37*
G36*
X8187665Y9471200D02*
X8162335D01*
X8137868Y9464644D01*
X8115932Y9451979D01*
X8098021Y9434069D01*
X8085356Y9412132D01*
X8078800Y9387665D01*
Y9362335D01*
X8085356Y9337869D01*
X8098021Y9315932D01*
X8115932Y9298021D01*
X8137868Y9285356D01*
X8162335Y9278800D01*
X8187665D01*
X8212132Y9285356D01*
X8234068Y9298021D01*
X8251979Y9315932D01*
X8264644Y9337869D01*
X8271200Y9362335D01*
Y9387665D01*
X8264644Y9412132D01*
X8251979Y9434069D01*
X8234068Y9451979D01*
X8212132Y9464644D01*
X8187665Y9471200D01*
D02*
G37*
G36*
X7887665D02*
X7862335D01*
X7837869Y9464644D01*
X7815932Y9451979D01*
X7798021Y9434069D01*
X7785356Y9412132D01*
X7778800Y9387665D01*
Y9362335D01*
X7785356Y9337869D01*
X7798021Y9315932D01*
X7815932Y9298021D01*
X7837869Y9285356D01*
X7862335Y9278800D01*
X7887665D01*
X7912132Y9285356D01*
X7934068Y9298021D01*
X7951979Y9315932D01*
X7964644Y9337869D01*
X7971200Y9362335D01*
Y9387665D01*
X7964644Y9412132D01*
X7951979Y9434069D01*
X7934068Y9451979D01*
X7912132Y9464644D01*
X7887665Y9471200D01*
D02*
G37*
G36*
X12137837Y9272500D02*
X12112164D01*
X12087367Y9265855D01*
X12065134Y9253020D01*
X12046981Y9234866D01*
X12034145Y9212634D01*
X12027500Y9187836D01*
Y9162164D01*
X12034145Y9137367D01*
X12046981Y9115134D01*
X12065134Y9096981D01*
X12087367Y9084145D01*
X12112164Y9077500D01*
X12137837D01*
X12162634Y9084145D01*
X12184867Y9096981D01*
X12203020Y9115134D01*
X12215856Y9137367D01*
X12222500Y9162164D01*
Y9187836D01*
X12215856Y9212634D01*
X12203020Y9234866D01*
X12184867Y9253020D01*
X12162634Y9265855D01*
X12137837Y9272500D01*
D02*
G37*
G36*
X10087836D02*
X10062164D01*
X10037367Y9265855D01*
X10015134Y9253020D01*
X9996981Y9234866D01*
X9984145Y9212634D01*
X9977500Y9187836D01*
Y9162164D01*
X9984145Y9137367D01*
X9996981Y9115134D01*
X10015134Y9096981D01*
X10037367Y9084145D01*
X10062164Y9077500D01*
X10087836D01*
X10112634Y9084145D01*
X10134866Y9096981D01*
X10153020Y9115134D01*
X10165855Y9137367D01*
X10172500Y9162164D01*
Y9187836D01*
X10165855Y9212634D01*
X10153020Y9234866D01*
X10134866Y9253020D01*
X10112634Y9265855D01*
X10087836Y9272500D01*
D02*
G37*
G36*
X8037836Y9247500D02*
X8012164D01*
X7987367Y9240856D01*
X7965134Y9228020D01*
X7946981Y9209867D01*
X7934145Y9187634D01*
X7927500Y9162836D01*
Y9137164D01*
X7934145Y9112367D01*
X7946981Y9090134D01*
X7965134Y9071981D01*
X7987367Y9059145D01*
X8012164Y9052500D01*
X8037836D01*
X8062634Y9059145D01*
X8084866Y9071981D01*
X8103020Y9090134D01*
X8115855Y9112367D01*
X8122500Y9137164D01*
Y9162836D01*
X8115855Y9187634D01*
X8103020Y9209867D01*
X8084866Y9228020D01*
X8062634Y9240856D01*
X8037836Y9247500D01*
D02*
G37*
G36*
X6621668Y9420000D02*
X6578332D01*
X6535828Y9411545D01*
X6495791Y9394961D01*
X6459758Y9370885D01*
X6429115Y9340242D01*
X6405039Y9304209D01*
X6388455Y9264171D01*
X6380000Y9221668D01*
Y9178332D01*
X6388455Y9135828D01*
X6405039Y9095791D01*
X6429115Y9059758D01*
X6459758Y9029115D01*
X6495791Y9005039D01*
X6535828Y8988454D01*
X6578332Y8980000D01*
X6621668D01*
X6664172Y8988454D01*
X6704209Y9005039D01*
X6740242Y9029115D01*
X6770885Y9059758D01*
X6794961Y9095791D01*
X6811545Y9135828D01*
X6820000Y9178332D01*
Y9221668D01*
X6811545Y9264171D01*
X6794961Y9304209D01*
X6770885Y9340242D01*
X6740242Y9370885D01*
X6704209Y9394961D01*
X6664172Y9411545D01*
X6621668Y9420000D01*
D02*
G37*
G36*
X12287665Y9046200D02*
X12262335D01*
X12237869Y9039644D01*
X12215932Y9026979D01*
X12198021Y9009068D01*
X12185356Y8987132D01*
X12178800Y8962665D01*
Y8937335D01*
X12185356Y8912868D01*
X12198021Y8890932D01*
X12215932Y8873021D01*
X12237869Y8860356D01*
X12262335Y8853800D01*
X12287665D01*
X12312132Y8860356D01*
X12334069Y8873021D01*
X12351979Y8890932D01*
X12364644Y8912868D01*
X12371200Y8937335D01*
Y8962665D01*
X12364644Y8987132D01*
X12351979Y9009068D01*
X12334069Y9026979D01*
X12312132Y9039644D01*
X12287665Y9046200D01*
D02*
G37*
G36*
X11987665D02*
X11962335D01*
X11937869Y9039644D01*
X11915932Y9026979D01*
X11898021Y9009068D01*
X11885356Y8987132D01*
X11878800Y8962665D01*
Y8937335D01*
X11885356Y8912868D01*
X11898021Y8890932D01*
X11915932Y8873021D01*
X11937869Y8860356D01*
X11962335Y8853800D01*
X11987665D01*
X12012132Y8860356D01*
X12034069Y8873021D01*
X12051979Y8890932D01*
X12064644Y8912868D01*
X12071200Y8937335D01*
Y8962665D01*
X12064644Y8987132D01*
X12051979Y9009068D01*
X12034069Y9026979D01*
X12012132Y9039644D01*
X11987665Y9046200D01*
D02*
G37*
G36*
X10237665D02*
X10212335D01*
X10187868Y9039644D01*
X10165932Y9026979D01*
X10148021Y9009068D01*
X10135356Y8987132D01*
X10128800Y8962665D01*
Y8937335D01*
X10135356Y8912868D01*
X10148021Y8890932D01*
X10165932Y8873021D01*
X10187868Y8860356D01*
X10212335Y8853800D01*
X10237665D01*
X10262132Y8860356D01*
X10284068Y8873021D01*
X10301979Y8890932D01*
X10314644Y8912868D01*
X10321200Y8937335D01*
Y8962665D01*
X10314644Y8987132D01*
X10301979Y9009068D01*
X10284068Y9026979D01*
X10262132Y9039644D01*
X10237665Y9046200D01*
D02*
G37*
G36*
X9937665D02*
X9912335D01*
X9887868Y9039644D01*
X9865932Y9026979D01*
X9848021Y9009068D01*
X9835356Y8987132D01*
X9828800Y8962665D01*
Y8937335D01*
X9835356Y8912868D01*
X9848021Y8890932D01*
X9865932Y8873021D01*
X9887868Y8860356D01*
X9912335Y8853800D01*
X9937665D01*
X9962132Y8860356D01*
X9984068Y8873021D01*
X10001979Y8890932D01*
X10014644Y8912868D01*
X10021200Y8937335D01*
Y8962665D01*
X10014644Y8987132D01*
X10001979Y9009068D01*
X9984068Y9026979D01*
X9962132Y9039644D01*
X9937665Y9046200D01*
D02*
G37*
G36*
X8187665Y9021200D02*
X8162335D01*
X8137868Y9014644D01*
X8115932Y9001979D01*
X8098021Y8984068D01*
X8085356Y8962132D01*
X8078800Y8937665D01*
Y8912335D01*
X8085356Y8887868D01*
X8098021Y8865932D01*
X8115932Y8848021D01*
X8137868Y8835356D01*
X8162335Y8828800D01*
X8187665D01*
X8212132Y8835356D01*
X8234068Y8848021D01*
X8251979Y8865932D01*
X8264644Y8887868D01*
X8271200Y8912335D01*
Y8937665D01*
X8264644Y8962132D01*
X8251979Y8984068D01*
X8234068Y9001979D01*
X8212132Y9014644D01*
X8187665Y9021200D01*
D02*
G37*
G36*
X7887665D02*
X7862335D01*
X7837869Y9014644D01*
X7815932Y9001979D01*
X7798021Y8984068D01*
X7785356Y8962132D01*
X7778800Y8937665D01*
Y8912335D01*
X7785356Y8887868D01*
X7798021Y8865932D01*
X7815932Y8848021D01*
X7837869Y8835356D01*
X7862335Y8828800D01*
X7887665D01*
X7912132Y8835356D01*
X7934068Y8848021D01*
X7951979Y8865932D01*
X7964644Y8887868D01*
X7971200Y8912335D01*
Y8937665D01*
X7964644Y8962132D01*
X7951979Y8984068D01*
X7934068Y9001979D01*
X7912132Y9014644D01*
X7887665Y9021200D01*
D02*
G37*
G36*
X13778951Y8005000D02*
X13761049D01*
X13744508Y7998149D01*
X13739999Y7993640D01*
X13735490Y7998149D01*
X13718951Y8005000D01*
X13701048D01*
X13684509Y7998149D01*
X13680000Y7993640D01*
X13675490Y7998149D01*
X13658951Y8005000D01*
X13641049D01*
X13624509Y7998149D01*
X13611852Y7985491D01*
X13605000Y7968951D01*
Y7951049D01*
X13611852Y7934510D01*
X13624509Y7921851D01*
X13641049Y7915000D01*
X13658951D01*
X13675490Y7921851D01*
X13680000Y7926361D01*
X13684509Y7921851D01*
X13701048Y7915000D01*
X13718951D01*
X13735490Y7921851D01*
X13739999Y7926361D01*
X13744508Y7921851D01*
X13761049Y7915000D01*
X13778951D01*
X13795490Y7921851D01*
X13808150Y7934510D01*
X13814999Y7951049D01*
Y7968951D01*
X13808150Y7985491D01*
X13795490Y7998149D01*
X13778951Y8005000D01*
D02*
G37*
G36*
X13498952D02*
X13481049D01*
X13464510Y7998149D01*
X13451851Y7985491D01*
X13445000Y7968951D01*
Y7951049D01*
X13451851Y7934510D01*
X13464510Y7921851D01*
X13481049Y7915000D01*
X13498952D01*
X13515491Y7921851D01*
X13528149Y7934510D01*
X13535001Y7951049D01*
Y7968951D01*
X13528149Y7985491D01*
X13515491Y7998149D01*
X13498952Y8005000D01*
D02*
G37*
G36*
X9038951Y7775000D02*
X9021049D01*
X9004510Y7768149D01*
X8995000Y7758640D01*
X8985491Y7768149D01*
X8968951Y7775000D01*
X8951049D01*
X8934510Y7768149D01*
X8925000Y7758639D01*
X8915490Y7768149D01*
X8898951Y7775000D01*
X8881049D01*
X8864510Y7768149D01*
X8858468Y7762108D01*
X8845490Y7758149D01*
X8828951Y7765000D01*
X8811049D01*
X8794510Y7758149D01*
X8781851Y7745491D01*
X8768149D01*
X8755490Y7758149D01*
X8738951Y7765000D01*
X8721049D01*
X8704510Y7758149D01*
X8691851Y7745490D01*
X8685000Y7728951D01*
Y7711049D01*
X8691851Y7694510D01*
X8698064Y7688297D01*
X8703334Y7680000D01*
X8698064Y7671703D01*
X8691851Y7665490D01*
X8685000Y7648951D01*
Y7631049D01*
X8691851Y7614510D01*
X8698064Y7608297D01*
X8703334Y7600000D01*
X8698064Y7591703D01*
X8691851Y7585491D01*
X8685000Y7568951D01*
Y7551049D01*
X8691851Y7534510D01*
X8704510Y7521851D01*
X8721049Y7515000D01*
X8738951D01*
X8755490Y7521851D01*
X8768149Y7534509D01*
X8781851D01*
X8794510Y7521851D01*
X8811049Y7515000D01*
X8828951D01*
X8845491Y7521851D01*
X8851532Y7527892D01*
X8864510Y7531851D01*
X8881049Y7525000D01*
X8898951D01*
X8915490Y7531851D01*
X8925000Y7541361D01*
X8934510Y7531851D01*
X8951049Y7525000D01*
X8968951D01*
X8985491Y7531851D01*
X8995000Y7541361D01*
X9004510Y7531851D01*
X9021049Y7525000D01*
X9038951D01*
X9055490Y7531851D01*
X9068149Y7544510D01*
X9075000Y7561049D01*
Y7578951D01*
X9068149Y7595491D01*
X9061936Y7601703D01*
X9056666Y7610000D01*
X9061936Y7618297D01*
X9068149Y7624510D01*
X9075000Y7641049D01*
Y7658951D01*
X9068149Y7675490D01*
X9061936Y7681703D01*
X9056666Y7690000D01*
X9061936Y7698297D01*
X9068149Y7704510D01*
X9075000Y7721049D01*
Y7738951D01*
X9068149Y7755490D01*
X9055490Y7768149D01*
X9038951Y7775000D01*
D02*
G37*
G36*
X9358951Y7665000D02*
X9341049D01*
X9324509Y7658149D01*
X9318297Y7651936D01*
X9310000Y7646666D01*
X9301703Y7651936D01*
X9295490Y7658149D01*
X9278951Y7665000D01*
X9261049D01*
X9244510Y7658149D01*
X9231851Y7645490D01*
X9225000Y7628951D01*
Y7611049D01*
X9231851Y7594510D01*
X9244509Y7581851D01*
Y7568149D01*
X9231851Y7555490D01*
X9225000Y7538951D01*
Y7521049D01*
X9231851Y7504510D01*
X9244509Y7491851D01*
X9245124Y7488763D01*
X9241851Y7485490D01*
X9235000Y7468951D01*
Y7451049D01*
X9241851Y7434510D01*
X9251361Y7425000D01*
X9241851Y7415490D01*
X9235000Y7398951D01*
Y7381049D01*
X9241851Y7364510D01*
X9254510Y7351851D01*
X9271049Y7345000D01*
X9288951D01*
X9305490Y7351851D01*
X9311703Y7358064D01*
X9320000Y7363334D01*
X9328297Y7358064D01*
X9334509Y7351851D01*
X9351049Y7345000D01*
X9368951D01*
X9385490Y7351851D01*
X9398149Y7364510D01*
X9405000Y7381049D01*
Y7398951D01*
X9398149Y7415490D01*
X9388639Y7425000D01*
X9398149Y7434510D01*
X9405000Y7451049D01*
Y7468951D01*
X9398149Y7485490D01*
X9385491Y7498149D01*
X9388130Y7504491D01*
X9388149Y7504510D01*
X9395000Y7521049D01*
Y7538951D01*
X9388149Y7555490D01*
X9375491Y7568149D01*
Y7581851D01*
X9388149Y7594510D01*
X9395000Y7611049D01*
Y7628951D01*
X9388149Y7645490D01*
X9375490Y7658149D01*
X9358951Y7665000D01*
D02*
G37*
G36*
X12768951Y7515000D02*
X12751049D01*
X12734509Y7508149D01*
X12721851Y7495490D01*
X12715000Y7478951D01*
Y7461049D01*
X12721851Y7444510D01*
X12734509Y7431851D01*
X12751049Y7425000D01*
X12768951D01*
X12785490Y7431851D01*
X12798149Y7444510D01*
X12805000Y7461049D01*
Y7478951D01*
X12798149Y7495490D01*
X12785490Y7508149D01*
X12768951Y7515000D01*
D02*
G37*
G36*
X13228268Y7494788D02*
X13210367D01*
X13193828Y7487938D01*
X13181169Y7475279D01*
X13174318Y7458739D01*
Y7440838D01*
X13181169Y7424298D01*
X13193828Y7411639D01*
X13210367Y7404789D01*
X13228268D01*
X13244809Y7411639D01*
X13257468Y7424298D01*
X13264317Y7440838D01*
Y7458739D01*
X13257468Y7475279D01*
X13244809Y7487938D01*
X13228268Y7494788D01*
D02*
G37*
G36*
X13488951Y7405000D02*
X13471049D01*
X13454510Y7398149D01*
X13441850Y7385490D01*
X13435001Y7368951D01*
Y7351049D01*
X13441850Y7334510D01*
X13454510Y7321851D01*
X13471049Y7315000D01*
X13488951D01*
X13505490Y7321851D01*
X13518149Y7334510D01*
X13525000Y7351049D01*
Y7368951D01*
X13518149Y7385490D01*
X13505490Y7398149D01*
X13488951Y7405000D01*
D02*
G37*
G36*
X11269221Y7700000D02*
X11120000D01*
X11119302Y7685802D01*
X11113763Y7657951D01*
X11102896Y7631717D01*
X11087120Y7608106D01*
X11077574Y7597574D01*
X11077573Y7597574D01*
Y7597574D01*
X10814394Y7334395D01*
X10795925Y7317655D01*
X10754524Y7289992D01*
X10708522Y7270937D01*
X10659686Y7261223D01*
X10634789Y7260000D01*
X10221559D01*
X10208366Y7257376D01*
X10195939Y7252228D01*
X10189435Y7247882D01*
X10184755Y7244756D01*
X10179999Y7240000D01*
X10180000Y7240000D01*
X9780000Y6840000D01*
Y6784142D01*
X9779835Y6780795D01*
X9778530Y6774231D01*
X9776739Y6769908D01*
X9770000Y6760000D01*
X9770000Y6760000D01*
X9840000Y6690000D01*
X9930000Y6700000D01*
X9987662Y6757662D01*
X10003514Y6781386D01*
X10014433Y6807748D01*
X10020000Y6835733D01*
Y6850000D01*
X10020349Y6857099D01*
X10023119Y6871024D01*
X10028552Y6884141D01*
X10036440Y6895947D01*
X10041213Y6901213D01*
X10155605Y7015605D01*
X10174074Y7032345D01*
X10215476Y7060008D01*
X10261478Y7079063D01*
X10310314Y7088777D01*
X10335210Y7090000D01*
X10805323D01*
X10844901Y7097872D01*
X10882181Y7113314D01*
X10915733Y7135733D01*
X10930000Y7150000D01*
X10930000D01*
X11281716Y7501715D01*
X11288441Y7508441D01*
X11299009Y7524257D01*
X11306289Y7541832D01*
X11310000Y7560489D01*
Y7648441D01*
X11307376Y7661634D01*
X11302228Y7674061D01*
X11294755Y7685244D01*
X11290000Y7690000D01*
X11287622Y7692378D01*
X11282030Y7696114D01*
X11275817Y7698688D01*
X11269221Y7700000D01*
D02*
G37*
G36*
X12030000Y6990000D02*
X12027517Y6987750D01*
X12021952Y6984031D01*
X12017630Y6982241D01*
X12005858Y6980000D01*
X12005857Y6980001D01*
X12005857Y6980000D01*
X11729999Y6980000D01*
X11729419Y6968168D01*
X11724802Y6944959D01*
X11715746Y6923097D01*
X11702928Y6903913D01*
X11694644Y6894644D01*
X11694644D01*
X11694644Y6894644D01*
X11679999Y6880000D01*
X11667587Y6868749D01*
X11639762Y6850157D01*
X11608844Y6837351D01*
X11576022Y6830822D01*
X11559289Y6830000D01*
X11559289Y6830001D01*
X11559289Y6830000D01*
X10176569Y6830000D01*
X10163118Y6830000D01*
X10136733Y6824752D01*
X10111879Y6814457D01*
X10089511Y6799511D01*
X10080000Y6790000D01*
X10060000Y6800000D01*
Y6713118D01*
X10065248Y6686733D01*
X10075543Y6661879D01*
X10090489Y6639511D01*
X10100000Y6630000D01*
X11765997Y6630000D01*
X11783357Y6622670D01*
X11819862Y6613296D01*
X11857350Y6609410D01*
X11895001Y6611100D01*
X11931991Y6618327D01*
X11967509Y6630934D01*
X12000778Y6648644D01*
X12031069Y6671069D01*
X12080000Y6720000D01*
X12079999Y6930000D01*
X12080000Y6932378D01*
X12079072Y6937042D01*
X12077252Y6941436D01*
X12074610Y6945390D01*
X12072929Y6947071D01*
X12072929Y6947071D01*
X12030000Y6990000D01*
D02*
G37*
G36*
X7278951Y7045000D02*
X7261049D01*
X7244510Y7038149D01*
X7231851Y7025490D01*
X7225000Y7008951D01*
Y6991049D01*
X7231851Y6974510D01*
X7244510Y6961851D01*
X7261049Y6955000D01*
X7278951D01*
X7295490Y6961851D01*
X7308149Y6974510D01*
X7315000Y6991049D01*
Y7008951D01*
X7308149Y7025490D01*
X7295490Y7038149D01*
X7278951Y7045000D01*
D02*
G37*
G36*
X6938951D02*
X6921049D01*
X6904510Y7038149D01*
X6891851Y7025490D01*
X6885000Y7008951D01*
Y6991049D01*
X6891851Y6974510D01*
X6904510Y6961851D01*
X6921049Y6955000D01*
X6938951D01*
X6955491Y6961851D01*
X6968149Y6974510D01*
X6975000Y6991049D01*
Y7008951D01*
X6968149Y7025490D01*
X6955491Y7038149D01*
X6938951Y7045000D01*
D02*
G37*
G36*
X6418951Y7025000D02*
X6401049D01*
X6384510Y7018149D01*
X6371851Y7005490D01*
X6365000Y6988951D01*
Y6971049D01*
X6371851Y6954510D01*
X6384510Y6941851D01*
X6401049Y6935000D01*
X6418951D01*
X6435491Y6941851D01*
X6448149Y6954510D01*
X6455000Y6971049D01*
Y6988951D01*
X6448149Y7005490D01*
X6435491Y7018149D01*
X6418951Y7025000D01*
D02*
G37*
G36*
X7666103Y6900000D02*
X7642866D01*
X7628874Y6897217D01*
X7615693Y6891757D01*
X7608191Y6886744D01*
X7603830Y6883831D01*
X7598787Y6878787D01*
X7598786Y6878787D01*
Y6878786D01*
X7530000Y6810000D01*
X8070000Y6270000D01*
Y6262866D01*
X8072783Y6248874D01*
X8078243Y6235693D01*
X8083256Y6228191D01*
X8086169Y6223830D01*
X8091213Y6218786D01*
X8091213Y6218787D01*
X8100000Y6210000D01*
X8663662D01*
Y6209492D01*
X8670513Y6192952D01*
X8683171Y6180293D01*
X8699711Y6173443D01*
X8717612D01*
X8734152Y6180293D01*
X8746811Y6192952D01*
X8753661Y6209492D01*
Y6210000D01*
X9247661D01*
X9267450Y6213936D01*
X9286090Y6221657D01*
X9302866Y6232866D01*
X9310000Y6240000D01*
X9312378Y6242378D01*
X9316114Y6247970D01*
X9318688Y6254183D01*
X9320000Y6260779D01*
Y6400000D01*
X9312901Y6400349D01*
X9298976Y6403119D01*
X9285858Y6408552D01*
X9274054Y6416440D01*
X9268787Y6421213D01*
Y6421213D01*
X9230000Y6460000D01*
X9212622Y6444249D01*
X9173666Y6418220D01*
X9130381Y6400291D01*
X9084430Y6391151D01*
X9061005Y6390000D01*
X8230000D01*
X7770000Y6850000D01*
X7758111Y6861889D01*
X7730151Y6880571D01*
X7699084Y6893440D01*
X7666103Y6900000D01*
D02*
G37*
G36*
X6988951Y6385000D02*
X6971049D01*
X6954510Y6378149D01*
X6941851Y6365490D01*
X6935000Y6348951D01*
Y6331049D01*
X6941851Y6314510D01*
X6954510Y6301851D01*
X6971049Y6295000D01*
X6988951D01*
X7005490Y6301851D01*
X7018149Y6314510D01*
X7025000Y6331049D01*
Y6348951D01*
X7018149Y6365490D01*
X7005490Y6378149D01*
X6988951Y6385000D01*
D02*
G37*
G36*
X7358951Y6335000D02*
X7341049D01*
X7324510Y6328149D01*
X7311851Y6315491D01*
X7305000Y6298951D01*
Y6281049D01*
X7311851Y6264510D01*
X7324510Y6251851D01*
X7341049Y6245000D01*
X7358951D01*
X7375490Y6251851D01*
X7388149Y6264510D01*
X7395000Y6281049D01*
Y6298951D01*
X7388149Y6315491D01*
X7375490Y6328149D01*
X7358951Y6335000D01*
D02*
G37*
G36*
X11988951Y6115000D02*
X11971049D01*
X11954509Y6108149D01*
X11941851Y6095490D01*
X11935000Y6078951D01*
Y6061049D01*
X11941851Y6044510D01*
X11954509Y6031851D01*
X11971049Y6025000D01*
X11988951D01*
X12005490Y6031851D01*
X12018149Y6044510D01*
X12025000Y6061049D01*
Y6078951D01*
X12018149Y6095490D01*
X12005490Y6108149D01*
X11988951Y6115000D01*
D02*
G37*
G36*
X10309572Y5910961D02*
X10291671D01*
X10275131Y5904110D01*
X10262472Y5891452D01*
X10255622Y5874912D01*
Y5857010D01*
X10262472Y5840471D01*
X10275131Y5827812D01*
X10291671Y5820961D01*
X10309572D01*
X10326112Y5827812D01*
X10338771Y5840471D01*
X10345621Y5857010D01*
Y5874912D01*
X10338771Y5891452D01*
X10326112Y5904110D01*
X10309572Y5910961D01*
D02*
G37*
G36*
X12738951Y5855000D02*
X12721049D01*
X12704510Y5848149D01*
X12691851Y5835490D01*
X12685000Y5818951D01*
Y5801049D01*
X12691851Y5784510D01*
X12704510Y5771851D01*
X12721049Y5765000D01*
X12738951D01*
X12755490Y5771851D01*
X12768149Y5784510D01*
X12775000Y5801049D01*
Y5818951D01*
X12768149Y5835490D01*
X12755490Y5848149D01*
X12738951Y5855000D01*
D02*
G37*
G36*
X7128951Y5845000D02*
X7111049D01*
X7094510Y5838149D01*
X7081851Y5825491D01*
X7075000Y5808951D01*
Y5791049D01*
X7081851Y5774510D01*
X7094510Y5761851D01*
X7111049Y5755000D01*
X7128951D01*
X7145490Y5761851D01*
X7158149Y5774510D01*
X7165000Y5791049D01*
Y5808951D01*
X7158149Y5825491D01*
X7145490Y5838149D01*
X7128951Y5845000D01*
D02*
G37*
G36*
X9718951Y5785000D02*
X9701049D01*
X9684509Y5778149D01*
X9682046Y5775686D01*
X9430000D01*
X9416344Y5772969D01*
X9404766Y5765234D01*
X9366733Y5727200D01*
X9353689Y5732117D01*
X9348149Y5745490D01*
X9335490Y5758149D01*
X9318951Y5765000D01*
X9301049D01*
X9284509Y5758149D01*
X9271851Y5745490D01*
X9265000Y5728951D01*
Y5711049D01*
X9271851Y5694510D01*
X9284509Y5681851D01*
X9297883Y5676311D01*
X9300556Y5672010D01*
X9302113Y5667309D01*
X9302806Y5662300D01*
X9297031Y5653656D01*
X9294314Y5640000D01*
Y5089651D01*
X9281614Y5087125D01*
X9278149Y5095490D01*
X9265490Y5108149D01*
X9248951Y5115000D01*
X9231049D01*
X9214510Y5108149D01*
X9201851Y5095490D01*
X9195000Y5078951D01*
Y5061049D01*
X9201851Y5044510D01*
X9214510Y5031851D01*
X9231049Y5025000D01*
X9248951D01*
X9265490Y5031851D01*
X9278149Y5044510D01*
X9281614Y5052875D01*
X9294314Y5050349D01*
Y4980000D01*
X9297031Y4966344D01*
X9304766Y4954767D01*
X9349570Y4909963D01*
X9361147Y4902227D01*
X9374803Y4899511D01*
X9439353D01*
X9441816Y4897048D01*
X9458355Y4890197D01*
X9476257D01*
X9492797Y4897048D01*
X9505455Y4909706D01*
X9512306Y4926246D01*
Y4944148D01*
X9505455Y4960687D01*
X9492797Y4973346D01*
X9476257Y4980197D01*
X9458355D01*
X9441816Y4973346D01*
X9439353Y4970882D01*
X9389585D01*
X9365686Y4994782D01*
Y5625218D01*
X9444781Y5704314D01*
X9682046D01*
X9684509Y5701851D01*
X9701049Y5695000D01*
X9718951D01*
X9735490Y5701851D01*
X9748149Y5714510D01*
X9755000Y5731049D01*
Y5748951D01*
X9748149Y5765490D01*
X9735490Y5778149D01*
X9718951Y5785000D01*
D02*
G37*
G36*
X7988951D02*
X7971049D01*
X7954510Y5778149D01*
X7941851Y5765490D01*
X7935000Y5748951D01*
Y5731049D01*
X7941851Y5714510D01*
X7954510Y5701851D01*
X7971049Y5695000D01*
X7988951D01*
X8005490Y5701851D01*
X8018149Y5714510D01*
X8025000Y5731049D01*
Y5748951D01*
X8018149Y5765490D01*
X8005490Y5778149D01*
X7988951Y5785000D01*
D02*
G37*
G36*
X10287521Y5781596D02*
X10269619D01*
X10253080Y5774745D01*
X10240421Y5762087D01*
X10233570Y5745547D01*
Y5727645D01*
X10240421Y5711106D01*
X10246094Y5705433D01*
X10239837Y5693729D01*
X10230000Y5695686D01*
X10010000D01*
X9996344Y5692969D01*
X9984766Y5685234D01*
X9745219Y5445686D01*
X9600000D01*
X9586344Y5442969D01*
X9586239Y5442900D01*
X9581169Y5445000D01*
X9563267D01*
X9546728Y5438149D01*
X9534069Y5425490D01*
X9527218Y5408951D01*
Y5391049D01*
X9534069Y5374509D01*
X9546728Y5361851D01*
X9563267Y5355000D01*
X9581169D01*
X9597709Y5361851D01*
X9606525Y5370667D01*
X9607483Y5370857D01*
X9612657Y5374314D01*
X9760000D01*
X9773656Y5377031D01*
X9785234Y5384766D01*
X10024782Y5624314D01*
X10215218D01*
X10384766Y5454767D01*
X10384766Y5454766D01*
X10474314Y5365218D01*
Y4734781D01*
X10045219Y4305686D01*
X9867954D01*
X9865490Y4308149D01*
X9848951Y4315000D01*
X9831049D01*
X9814509Y4308149D01*
X9801851Y4295491D01*
X9795000Y4278951D01*
Y4261049D01*
X9801851Y4244510D01*
X9814509Y4231851D01*
X9831049Y4225000D01*
X9848951D01*
X9865490Y4231851D01*
X9867954Y4234314D01*
X10060000D01*
X10073657Y4237031D01*
X10085234Y4244766D01*
X10535234Y4694766D01*
X10542969Y4706344D01*
X10545686Y4720000D01*
Y5380000D01*
X10542969Y5393656D01*
X10535234Y5405233D01*
X10435234Y5505233D01*
X10435234Y5505234D01*
X10257667Y5682801D01*
X10264861Y5693567D01*
X10269619Y5691596D01*
X10287521D01*
X10304061Y5698447D01*
X10316719Y5711106D01*
X10323570Y5727645D01*
Y5745547D01*
X10316719Y5762087D01*
X10304061Y5774745D01*
X10287521Y5781596D01*
D02*
G37*
G36*
X9775773Y5684090D02*
X9757871D01*
X9741332Y5677240D01*
X9738869Y5674776D01*
X9519091D01*
X9505434Y5672060D01*
X9493857Y5664324D01*
X9454766Y5625233D01*
X9447031Y5613656D01*
X9444314Y5600000D01*
Y5599704D01*
X9437031Y5588804D01*
X9434314Y5575148D01*
Y5092823D01*
X9437031Y5079167D01*
X9441342Y5072714D01*
Y5062118D01*
X9448193Y5045578D01*
X9460852Y5032920D01*
X9477391Y5026069D01*
X9495293D01*
X9511833Y5032920D01*
X9524491Y5045578D01*
X9531342Y5062118D01*
Y5080020D01*
X9524491Y5096559D01*
X9511833Y5109218D01*
X9505686Y5111764D01*
Y5560591D01*
X9512969Y5571491D01*
X9515686Y5585147D01*
Y5585218D01*
X9533872Y5603405D01*
X9738869D01*
X9741332Y5600942D01*
X9757871Y5594091D01*
X9775773D01*
X9792313Y5600942D01*
X9804971Y5613600D01*
X9811822Y5630140D01*
Y5648042D01*
X9804971Y5664581D01*
X9792313Y5677240D01*
X9775773Y5684090D01*
D02*
G37*
G36*
X8411410Y5665406D02*
X8393508D01*
X8376969Y5658555D01*
X8364310Y5645897D01*
X8357459Y5629357D01*
Y5611455D01*
X8364310Y5594916D01*
X8376969Y5582257D01*
X8393508Y5575406D01*
X8411410D01*
X8427950Y5582257D01*
X8440608Y5594916D01*
X8447459Y5611455D01*
Y5629357D01*
X8440608Y5645897D01*
X8427950Y5658555D01*
X8411410Y5665406D01*
D02*
G37*
G36*
X10218951Y5565000D02*
X10201049D01*
X10184509Y5558149D01*
X10171851Y5545490D01*
X10165000Y5528951D01*
Y5511049D01*
X10171851Y5494509D01*
X10184509Y5481851D01*
X10201049Y5475000D01*
X10218951D01*
X10235490Y5481851D01*
X10248149Y5494509D01*
X10255000Y5511049D01*
Y5528951D01*
X10248149Y5545490D01*
X10235490Y5558149D01*
X10218951Y5565000D01*
D02*
G37*
G36*
X10068951D02*
X10051049D01*
X10034510Y5558149D01*
X10021851Y5545490D01*
X10015000Y5528951D01*
Y5511049D01*
X10021851Y5494509D01*
X10034510Y5481851D01*
X10051049Y5475000D01*
X10068951D01*
X10085490Y5481851D01*
X10098149Y5494509D01*
X10105000Y5511049D01*
Y5528951D01*
X10098149Y5545490D01*
X10085490Y5558149D01*
X10068951Y5565000D01*
D02*
G37*
G36*
X9618951Y5555000D02*
X9601049D01*
X9584510Y5548149D01*
X9571851Y5535490D01*
X9565000Y5518951D01*
Y5501049D01*
X9571851Y5484509D01*
X9584510Y5471851D01*
X9601049Y5465000D01*
X9618951D01*
X9635491Y5471851D01*
X9648149Y5484509D01*
X9655000Y5501049D01*
Y5518951D01*
X9648149Y5535490D01*
X9635491Y5548149D01*
X9618951Y5555000D01*
D02*
G37*
G36*
X11958951Y5553800D02*
X11941049D01*
X11924510Y5546949D01*
X11911851Y5534290D01*
X11905000Y5517751D01*
Y5499849D01*
X11911851Y5483310D01*
X11924510Y5470651D01*
X11941049Y5463800D01*
X11958951D01*
X11975490Y5470651D01*
X11988149Y5483310D01*
X11995000Y5499849D01*
Y5517751D01*
X11988149Y5534290D01*
X11975490Y5546949D01*
X11958951Y5553800D01*
D02*
G37*
G36*
X10108951Y5455000D02*
X10091049D01*
X10074510Y5448149D01*
X10072046Y5445686D01*
X9932347D01*
X9918690Y5442969D01*
X9907113Y5435234D01*
X9794766Y5322887D01*
X9787031Y5311310D01*
X9784314Y5297653D01*
Y4874781D01*
X9705218Y4795686D01*
X9507954D01*
X9505491Y4798149D01*
X9488951Y4805000D01*
X9471049D01*
X9454510Y4798149D01*
X9441851Y4785490D01*
X9435000Y4768951D01*
Y4751049D01*
X9441851Y4734509D01*
X9454510Y4721851D01*
X9471049Y4715000D01*
X9488951D01*
X9505491Y4721851D01*
X9507954Y4724314D01*
X9720000D01*
X9733656Y4727031D01*
X9745233Y4734766D01*
X9845234Y4834766D01*
X9852969Y4846344D01*
X9855686Y4860000D01*
Y5282872D01*
X9947128Y5374314D01*
X10072046D01*
X10074510Y5371851D01*
X10091049Y5365000D01*
X10108951D01*
X10125491Y5371851D01*
X10138149Y5384510D01*
X10145000Y5401049D01*
Y5418951D01*
X10138149Y5435491D01*
X10125491Y5448149D01*
X10108951Y5455000D01*
D02*
G37*
G36*
X7268951D02*
X7251049D01*
X7234510Y5448149D01*
X7221851Y5435491D01*
X7215000Y5418951D01*
Y5401049D01*
X7221851Y5384510D01*
X7234510Y5371851D01*
X7251049Y5365000D01*
X7268951D01*
X7285490Y5371851D01*
X7298149Y5384510D01*
X7305000Y5401049D01*
Y5418951D01*
X7298149Y5435491D01*
X7285490Y5448149D01*
X7268951Y5455000D01*
D02*
G37*
G36*
X10308951Y5435000D02*
X10291049D01*
X10274510Y5428149D01*
X10261851Y5415490D01*
X10255000Y5398951D01*
Y5381049D01*
X10261851Y5364509D01*
X10274510Y5351851D01*
X10291049Y5345000D01*
X10308951D01*
X10325490Y5351851D01*
X10338149Y5364509D01*
X10345000Y5381049D01*
Y5398951D01*
X10338149Y5415490D01*
X10325490Y5428149D01*
X10308951Y5435000D01*
D02*
G37*
G36*
X7608560Y5388364D02*
X7590658D01*
X7574118Y5381513D01*
X7561460Y5368854D01*
X7554609Y5352315D01*
Y5334413D01*
X7561460Y5317874D01*
X7574118Y5305215D01*
X7590658Y5298364D01*
X7608560D01*
X7625099Y5305215D01*
X7637758Y5317874D01*
X7644609Y5334413D01*
Y5352315D01*
X7637758Y5368854D01*
X7625099Y5381513D01*
X7608560Y5388364D01*
D02*
G37*
G36*
X9048951Y5185000D02*
X9031049D01*
X9014510Y5178149D01*
X9001851Y5165490D01*
X8995000Y5148951D01*
Y5131049D01*
X9001851Y5114509D01*
X9014510Y5101851D01*
X9031049Y5095000D01*
X9048951D01*
X9065490Y5101851D01*
X9078149Y5114509D01*
X9085000Y5131049D01*
Y5148951D01*
X9078149Y5165490D01*
X9065490Y5178149D01*
X9048951Y5185000D01*
D02*
G37*
G36*
X9645311Y5175000D02*
X9627409D01*
X9610869Y5168149D01*
X9598211Y5155490D01*
X9591360Y5138951D01*
Y5121049D01*
X9598211Y5104509D01*
X9610869Y5091851D01*
X9627409Y5085000D01*
X9645311D01*
X9661850Y5091851D01*
X9674509Y5104509D01*
X9681360Y5121049D01*
Y5138951D01*
X9674509Y5155490D01*
X9661850Y5168149D01*
X9645311Y5175000D01*
D02*
G37*
G36*
X7622285Y5152139D02*
X7604384D01*
X7587844Y5145288D01*
X7575186Y5132630D01*
X7568335Y5116090D01*
Y5098188D01*
X7575186Y5081649D01*
X7587844Y5068990D01*
X7604384Y5062139D01*
X7622285D01*
X7638825Y5068990D01*
X7651484Y5081649D01*
X7658334Y5098188D01*
Y5116090D01*
X7651484Y5132630D01*
X7638825Y5145288D01*
X7622285Y5152139D01*
D02*
G37*
G36*
X10198951Y5135000D02*
X10181049D01*
X10164510Y5128149D01*
X10151851Y5115490D01*
X10145000Y5098951D01*
Y5081049D01*
X10151851Y5064510D01*
X10164510Y5051851D01*
X10181049Y5045000D01*
X10198951D01*
X10215490Y5051851D01*
X10228149Y5064510D01*
X10235000Y5081049D01*
Y5098951D01*
X10228149Y5115490D01*
X10215490Y5128149D01*
X10198951Y5135000D01*
D02*
G37*
G36*
X7958951Y5095000D02*
X7941049D01*
X7924510Y5088149D01*
X7911851Y5075490D01*
X7905000Y5058951D01*
Y5041049D01*
X7911851Y5024510D01*
X7924510Y5011851D01*
X7941049Y5005000D01*
X7958951D01*
X7975491Y5011851D01*
X7988149Y5024510D01*
X7995000Y5041049D01*
Y5058951D01*
X7988149Y5075490D01*
X7975491Y5088149D01*
X7958951Y5095000D01*
D02*
G37*
G36*
X7264881Y5094612D02*
X7246979D01*
X7230439Y5087761D01*
X7217781Y5075102D01*
X7210930Y5058563D01*
Y5040661D01*
X7217781Y5024122D01*
X7230439Y5011463D01*
X7246979Y5004612D01*
X7264881D01*
X7281420Y5011463D01*
X7294079Y5024122D01*
X7300930Y5040661D01*
Y5058563D01*
X7294079Y5075102D01*
X7281420Y5087761D01*
X7264881Y5094612D01*
D02*
G37*
G36*
X12878951Y5055000D02*
X12861049D01*
X12844508Y5048149D01*
X12831851Y5035490D01*
X12825000Y5018951D01*
Y5001049D01*
X12831851Y4984509D01*
X12844508Y4971851D01*
X12861049Y4965000D01*
X12878951D01*
X12895490Y4971851D01*
X12908150Y4984509D01*
X12914999Y5001049D01*
Y5018951D01*
X12908150Y5035490D01*
X12895490Y5048149D01*
X12878951Y5055000D01*
D02*
G37*
G36*
X12608951Y4895000D02*
X12591049D01*
X12574510Y4888149D01*
X12569497Y4883137D01*
X11741641D01*
X11728960Y4880614D01*
X11718210Y4873431D01*
X11660922Y4816143D01*
X11653833D01*
X11637293Y4809292D01*
X11624635Y4796634D01*
X11617784Y4780094D01*
Y4762192D01*
X11624635Y4745653D01*
X11637293Y4732994D01*
X11653833Y4726143D01*
X11671735D01*
X11688274Y4732994D01*
X11700933Y4745653D01*
X11707784Y4762192D01*
Y4769281D01*
X11755366Y4816863D01*
X12569497D01*
X12574510Y4811851D01*
X12591049Y4805000D01*
X12608951D01*
X12625490Y4811851D01*
X12638149Y4824510D01*
X12645000Y4841049D01*
Y4858951D01*
X12638149Y4875490D01*
X12625490Y4888149D01*
X12608951Y4895000D01*
D02*
G37*
G36*
X7617229Y4827060D02*
X7599327D01*
X7582787Y4820209D01*
X7570129Y4807550D01*
X7563278Y4791011D01*
Y4773109D01*
X7570129Y4756570D01*
X7582787Y4743911D01*
X7599327Y4737060D01*
X7617229D01*
X7633768Y4743911D01*
X7646427Y4756570D01*
X7653278Y4773109D01*
Y4791011D01*
X7646427Y4807550D01*
X7633768Y4820209D01*
X7617229Y4827060D01*
D02*
G37*
G36*
X8738951Y4805000D02*
X8721049D01*
X8704510Y4798149D01*
X8691851Y4785490D01*
X8685000Y4768951D01*
Y4751049D01*
X8691851Y4734509D01*
X8704510Y4721851D01*
X8721049Y4715000D01*
X8738951D01*
X8755490Y4721851D01*
X8768149Y4734509D01*
X8775000Y4751049D01*
Y4768951D01*
X8768149Y4785490D01*
X8755490Y4798149D01*
X8738951Y4805000D01*
D02*
G37*
G36*
X7268951Y4775000D02*
X7251049D01*
X7234510Y4768149D01*
X7221851Y4755490D01*
X7215000Y4738951D01*
Y4721049D01*
X7221851Y4704510D01*
X7234510Y4691851D01*
X7251049Y4685000D01*
X7268951D01*
X7285490Y4691851D01*
X7298149Y4704510D01*
X7305000Y4721049D01*
Y4738951D01*
X7298149Y4755490D01*
X7285490Y4768149D01*
X7268951Y4775000D01*
D02*
G37*
G36*
X9818951Y4705000D02*
X9801049D01*
X9784510Y4698149D01*
X9771851Y4685491D01*
X9765000Y4668951D01*
Y4651049D01*
X9771851Y4634510D01*
X9784510Y4621851D01*
X9801049Y4615000D01*
X9818951D01*
X9835490Y4621851D01*
X9848149Y4634510D01*
X9855000Y4651049D01*
Y4668951D01*
X9848149Y4685491D01*
X9835490Y4698149D01*
X9818951Y4705000D01*
D02*
G37*
G36*
X10072545Y4658642D02*
X10054643D01*
X10038104Y4651791D01*
X10025445Y4639133D01*
X10018594Y4622593D01*
Y4604691D01*
X10025445Y4588152D01*
X10038104Y4575493D01*
X10054643Y4568642D01*
X10072545D01*
X10089085Y4575493D01*
X10101743Y4588152D01*
X10108594Y4604691D01*
Y4622593D01*
X10101743Y4639133D01*
X10089085Y4651791D01*
X10072545Y4658642D01*
D02*
G37*
G36*
X10658951Y4575000D02*
X10641049D01*
X10624510Y4568149D01*
X10611851Y4555491D01*
X10605000Y4538951D01*
Y4521049D01*
X10611851Y4504510D01*
X10624510Y4491851D01*
X10641049Y4485000D01*
X10658951D01*
X10675490Y4491851D01*
X10688149Y4504510D01*
X10695000Y4521049D01*
Y4538951D01*
X10688149Y4555491D01*
X10675490Y4568149D01*
X10658951Y4575000D01*
D02*
G37*
G36*
X6978951Y4715000D02*
X6961049D01*
X6944510Y4708149D01*
X6931851Y4695490D01*
X6925000Y4678951D01*
Y4661049D01*
X6931851Y4644510D01*
X6936717Y4639644D01*
X6931908Y4626944D01*
X6915368Y4620093D01*
X6902710Y4607435D01*
X6895859Y4590895D01*
Y4572993D01*
X6898837Y4565804D01*
X6890351Y4553104D01*
X6825000D01*
X6806726Y4550698D01*
X6789698Y4543645D01*
X6775075Y4532425D01*
X6763855Y4517802D01*
X6756802Y4500774D01*
X6754396Y4482500D01*
X6756802Y4464227D01*
X6763855Y4447198D01*
X6775075Y4432576D01*
X6789698Y4421355D01*
X6806726Y4414302D01*
X6825000Y4411896D01*
X6945000D01*
X6963274Y4414302D01*
X6980302Y4421355D01*
X6994925Y4432576D01*
X7006145Y4447198D01*
X7013198Y4464227D01*
X7015604Y4482500D01*
X7013562Y4498010D01*
X7020860Y4503273D01*
X7024931Y4504601D01*
X7224766Y4304766D01*
X7236344Y4297031D01*
X7250000Y4294314D01*
X7440000D01*
X7453656Y4297031D01*
X7465234Y4304766D01*
X7495467Y4335000D01*
X7498951D01*
X7515490Y4341851D01*
X7528149Y4354509D01*
X7535000Y4371049D01*
Y4388951D01*
X7528149Y4405490D01*
X7515490Y4418149D01*
X7498951Y4425000D01*
X7481049D01*
X7464510Y4418149D01*
X7451851Y4405490D01*
X7445000Y4388951D01*
Y4385467D01*
X7425219Y4365686D01*
X7264782D01*
X7235337Y4395130D01*
X7240197Y4406863D01*
X7310000D01*
X7322681Y4409386D01*
X7333431Y4416569D01*
X7373725Y4456863D01*
X7415000D01*
X7427681Y4459386D01*
X7438431Y4466569D01*
X7443942Y4472080D01*
X7464280D01*
X7464510Y4471851D01*
X7481049Y4465000D01*
X7498951D01*
X7515490Y4471851D01*
X7528149Y4484510D01*
X7535000Y4501049D01*
Y4518951D01*
X7528149Y4535491D01*
X7515490Y4548149D01*
X7498951Y4555000D01*
X7481049D01*
X7464510Y4548149D01*
X7454714Y4538353D01*
X7430217D01*
X7417536Y4535831D01*
X7406785Y4528648D01*
X7401274Y4523136D01*
X7360000D01*
X7347319Y4520614D01*
X7336569Y4513431D01*
X7296275Y4473137D01*
X7233725D01*
X7019171Y4687691D01*
X7008421Y4694874D01*
X7008403Y4694878D01*
X7008149Y4695490D01*
X6995490Y4708149D01*
X6978951Y4715000D01*
D02*
G37*
G36*
X11798951Y4525000D02*
X11781049D01*
X11764510Y4518149D01*
X11751851Y4505490D01*
X11745000Y4488951D01*
Y4471049D01*
X11751851Y4454510D01*
X11764510Y4441851D01*
X11781049Y4435000D01*
X11798951D01*
X11815490Y4441851D01*
X11828149Y4454510D01*
X11835000Y4471049D01*
Y4488951D01*
X11828149Y4505490D01*
X11815490Y4518149D01*
X11798951Y4525000D01*
D02*
G37*
G36*
X10018951D02*
X10001049D01*
X9984510Y4518149D01*
X9971851Y4505490D01*
X9965000Y4488951D01*
Y4471049D01*
X9971851Y4454510D01*
X9984510Y4441851D01*
X10001049Y4435000D01*
X10018951D01*
X10035490Y4441851D01*
X10048149Y4454510D01*
X10055000Y4471049D01*
Y4488951D01*
X10048149Y4505490D01*
X10035490Y4518149D01*
X10018951Y4525000D01*
D02*
G37*
G36*
X9018951Y4515000D02*
X9001049D01*
X8984510Y4508149D01*
X8971851Y4495490D01*
X8965000Y4478951D01*
Y4461049D01*
X8971851Y4444510D01*
X8984510Y4431851D01*
X9001049Y4425000D01*
X9018951D01*
X9035490Y4431851D01*
X9048149Y4444510D01*
X9055000Y4461049D01*
Y4478951D01*
X9048149Y4495490D01*
X9035490Y4508149D01*
X9018951Y4515000D01*
D02*
G37*
G36*
X6510000Y4553104D02*
X6420000D01*
X6401727Y4550698D01*
X6384698Y4543645D01*
X6370076Y4532425D01*
X6358855Y4517802D01*
X6351802Y4500774D01*
X6349396Y4482500D01*
X6351802Y4464227D01*
X6358855Y4447198D01*
X6370076Y4432576D01*
X6384698Y4421355D01*
X6401727Y4414302D01*
X6420000Y4411896D01*
X6510000D01*
X6528273Y4414302D01*
X6545302Y4421355D01*
X6559924Y4432576D01*
X6571145Y4447198D01*
X6578198Y4464227D01*
X6580604Y4482500D01*
X6578198Y4500774D01*
X6571145Y4517802D01*
X6559924Y4532425D01*
X6545302Y4543645D01*
X6528273Y4550698D01*
X6510000Y4553104D01*
D02*
G37*
G36*
X12973952Y4620000D02*
X12956049D01*
X12939510Y4613149D01*
X12926851Y4600490D01*
X12920000Y4583951D01*
Y4566049D01*
X12926851Y4549510D01*
X12939510Y4536851D01*
X12944315Y4534861D01*
Y4394782D01*
X12925218Y4375686D01*
X12887955D01*
X12885490Y4378149D01*
X12868951Y4385000D01*
X12851048D01*
X12834509Y4378149D01*
X12821851Y4365490D01*
X12814999Y4348951D01*
Y4331049D01*
X12821851Y4314510D01*
X12834509Y4301851D01*
X12851048Y4295000D01*
X12868951D01*
X12885490Y4301851D01*
X12887955Y4304314D01*
X12939999D01*
X12953656Y4307031D01*
X12965233Y4314766D01*
X13005234Y4354766D01*
X13012968Y4366344D01*
X13015686Y4380000D01*
Y4554588D01*
X13012968Y4568244D01*
X13010001Y4572688D01*
Y4583951D01*
X13003149Y4600490D01*
X12990491Y4613149D01*
X12973952Y4620000D01*
D02*
G37*
G36*
X6844946Y4390000D02*
X6825054D01*
X6806677Y4382388D01*
X6792612Y4368323D01*
X6785000Y4349946D01*
Y4330054D01*
X6792612Y4311677D01*
X6806677Y4297612D01*
X6825054Y4290000D01*
X6844946D01*
X6863323Y4297612D01*
X6877388Y4311677D01*
X6885000Y4330054D01*
Y4349946D01*
X6877388Y4368323D01*
X6863323Y4382388D01*
X6844946Y4390000D01*
D02*
G37*
G36*
X7704942Y5543528D02*
X7687040D01*
X7670500Y5536678D01*
X7657842Y5524019D01*
X7650991Y5507479D01*
Y5489578D01*
X7657842Y5473038D01*
X7670500Y5460379D01*
X7687040Y5453529D01*
X7704942D01*
X7721481Y5460379D01*
X7726494Y5465392D01*
X8037746D01*
X8506569Y4996569D01*
X8517319Y4989386D01*
X8530000Y4986864D01*
X8986274D01*
X9636863Y4336274D01*
Y4300503D01*
X9631851Y4295491D01*
X9625000Y4278951D01*
Y4261049D01*
X9631851Y4244510D01*
X9644510Y4231851D01*
X9661049Y4225000D01*
X9678951D01*
X9695490Y4231851D01*
X9708149Y4244510D01*
X9715000Y4261049D01*
Y4278951D01*
X9708149Y4295491D01*
X9703137Y4300503D01*
Y4350000D01*
X9700614Y4362681D01*
X9693431Y4373431D01*
X9081772Y4985090D01*
X9088670Y4995672D01*
X9088908Y4995914D01*
X9106729D01*
X9123269Y5002765D01*
X9135927Y5015424D01*
X9142778Y5031963D01*
Y5049865D01*
X9135927Y5066404D01*
X9123269Y5079063D01*
X9106729Y5085914D01*
X9088827D01*
X9072288Y5079063D01*
X9059629Y5066404D01*
X9052778Y5049865D01*
Y5032044D01*
X9052536Y5031806D01*
X9041954Y5024908D01*
X9023431Y5043431D01*
X9012681Y5050614D01*
X9000000Y5053137D01*
X8543726D01*
X8074903Y5521959D01*
X8064153Y5529143D01*
X8051472Y5531665D01*
X7726494D01*
X7721481Y5536678D01*
X7704942Y5543528D01*
D02*
G37*
G36*
Y4668023D02*
X7687040D01*
X7670500Y4661172D01*
X7657842Y4648513D01*
X7650991Y4631974D01*
Y4614072D01*
X7657842Y4597533D01*
X7670500Y4584874D01*
X7687040Y4578023D01*
X7690523D01*
X7793780Y4474766D01*
X7805358Y4467031D01*
X7819014Y4464314D01*
X8705219D01*
X8914766Y4254766D01*
X8926344Y4247031D01*
X8940000Y4244314D01*
X8952815Y4246863D01*
X9333379D01*
X9415000Y4165242D01*
Y4161049D01*
X9421851Y4144510D01*
X9434509Y4131851D01*
X9451049Y4125000D01*
X9468951D01*
X9485490Y4131851D01*
X9498149Y4144510D01*
X9505000Y4161049D01*
Y4178951D01*
X9498149Y4195490D01*
X9485490Y4208149D01*
X9468951Y4215000D01*
X9458966D01*
X9370535Y4303431D01*
X9359785Y4310614D01*
X9347104Y4313137D01*
X8957331D01*
X8745234Y4525234D01*
X8733656Y4532969D01*
X8720000Y4535686D01*
X7833795D01*
X7740991Y4628490D01*
Y4631974D01*
X7734140Y4648513D01*
X7721481Y4661172D01*
X7704942Y4668023D01*
D02*
G37*
G36*
X11811888Y4087814D02*
X11793986D01*
X11777447Y4080963D01*
X11764788Y4068305D01*
X11757937Y4051765D01*
Y4033863D01*
X11764788Y4017324D01*
X11777447Y4004665D01*
X11793986Y3997814D01*
X11811888D01*
X11828427Y4004665D01*
X11841086Y4017324D01*
X11847937Y4033863D01*
Y4051765D01*
X11841086Y4068305D01*
X11828427Y4080963D01*
X11811888Y4087814D01*
D02*
G37*
G36*
X12838951Y4075000D02*
X12821049D01*
X12804510Y4068149D01*
X12791851Y4055490D01*
X12785000Y4038951D01*
Y4021049D01*
X12791851Y4004510D01*
X12804510Y3991851D01*
X12821049Y3985000D01*
X12838951D01*
X12855490Y3991851D01*
X12868149Y4004510D01*
X12875000Y4021049D01*
Y4038951D01*
X12868149Y4055490D01*
X12855490Y4068149D01*
X12838951Y4075000D01*
D02*
G37*
G36*
X12698951Y4045000D02*
X12681049D01*
X12664510Y4038149D01*
X12651851Y4025490D01*
X12645000Y4008951D01*
Y3991049D01*
X12651851Y3974509D01*
X12664510Y3961851D01*
X12681049Y3955000D01*
X12698951D01*
X12715490Y3961851D01*
X12728149Y3974509D01*
X12735000Y3991049D01*
Y4008951D01*
X12728149Y4025490D01*
X12715490Y4038149D01*
X12698951Y4045000D01*
D02*
G37*
G36*
X7662612Y4988442D02*
X7644710D01*
X7628171Y4981592D01*
X7615512Y4968933D01*
X7608661Y4952393D01*
Y4934492D01*
X7615512Y4917952D01*
X7628171Y4905293D01*
X7644710Y4898443D01*
X7662612D01*
X7679152Y4905293D01*
X7684164Y4910306D01*
X8342832D01*
X8626569Y4626569D01*
X8637319Y4619386D01*
X8650000Y4616864D01*
X9166274D01*
X9536863Y4246274D01*
Y4180503D01*
X9531851Y4175491D01*
X9525000Y4158951D01*
Y4141049D01*
X9531851Y4124510D01*
X9539532Y4116828D01*
X9534272Y4104128D01*
X9238443D01*
X9224786Y4101412D01*
X9213209Y4093676D01*
X8977818Y3858285D01*
X7723020D01*
X7720557Y3860748D01*
X7704018Y3867599D01*
X7686116D01*
X7669576Y3860748D01*
X7656918Y3848090D01*
X7650067Y3831550D01*
Y3813648D01*
X7656918Y3797109D01*
X7669576Y3784450D01*
X7686116Y3777599D01*
X7704018D01*
X7720557Y3784450D01*
X7723020Y3786913D01*
X8992599D01*
X9006256Y3789630D01*
X9017833Y3797366D01*
X9253224Y4032757D01*
X9609591D01*
X9613444Y4020057D01*
X9612694Y4019556D01*
X9346275Y3753137D01*
X7546961D01*
X7485000Y3815097D01*
Y3828951D01*
X7478149Y3845490D01*
X7465491Y3858149D01*
X7448951Y3865000D01*
X7431049D01*
X7414510Y3858149D01*
X7401851Y3845490D01*
X7395000Y3828951D01*
Y3811049D01*
X7401851Y3794510D01*
X7414510Y3781851D01*
X7431049Y3775000D01*
X7431373D01*
X7509804Y3696569D01*
X7510900Y3695837D01*
X7507047Y3683137D01*
X7403726D01*
X7331098Y3755764D01*
Y3791493D01*
X7336111Y3796505D01*
X7342961Y3813045D01*
Y3830947D01*
X7336111Y3847486D01*
X7323452Y3860145D01*
X7306912Y3866996D01*
X7289011D01*
X7272471Y3860145D01*
X7259813Y3847486D01*
X7252962Y3830947D01*
Y3813045D01*
X7259813Y3796505D01*
X7264825Y3791493D01*
Y3742038D01*
X7267347Y3729358D01*
X7274531Y3718607D01*
X7366569Y3626569D01*
X7377319Y3619386D01*
X7390000Y3616863D01*
X7556631D01*
X7561301Y3604163D01*
X7555000Y3588951D01*
Y3571049D01*
X7561851Y3554510D01*
X7574510Y3541851D01*
X7591049Y3535000D01*
X7608951D01*
X7625490Y3541851D01*
X7638149Y3554510D01*
X7645000Y3571049D01*
Y3588951D01*
X7638699Y3604163D01*
X7643370Y3616863D01*
X9831576D01*
X9844257Y3619386D01*
X9855007Y3626569D01*
X9882844Y3654406D01*
X9891851Y3645490D01*
X9885000Y3628951D01*
Y3611049D01*
X9891851Y3594510D01*
X9896863Y3589497D01*
Y3553726D01*
X9846274Y3503137D01*
X7373725D01*
X7203136Y3673725D01*
Y3789497D01*
X7208149Y3794510D01*
X7215000Y3811049D01*
Y3828951D01*
X7208149Y3845490D01*
X7195490Y3858149D01*
X7178951Y3865000D01*
X7161049D01*
X7144509Y3858149D01*
X7131851Y3845490D01*
X7125000Y3828951D01*
Y3811049D01*
X7131851Y3794510D01*
X7136863Y3789497D01*
Y3660000D01*
X7139386Y3647319D01*
X7146569Y3636569D01*
X7336569Y3446569D01*
X7347319Y3439386D01*
X7360000Y3436863D01*
X9860000D01*
X9872681Y3439386D01*
X9883431Y3446569D01*
X9953431Y3516569D01*
X9960614Y3527319D01*
X9963137Y3540000D01*
Y3589497D01*
X9968149Y3594510D01*
X9975000Y3611049D01*
Y3628951D01*
X9968149Y3645491D01*
X9955490Y3658149D01*
X9938951Y3665000D01*
X9921049D01*
X9911365Y3660989D01*
X9903096Y3671310D01*
X9905693Y3675007D01*
X9910533D01*
X9927073Y3681858D01*
X9939731Y3694516D01*
X9946582Y3711056D01*
Y3728958D01*
X9939731Y3745497D01*
X9927073Y3758156D01*
X9910533Y3765007D01*
X9892631D01*
X9876092Y3758156D01*
X9863433Y3745497D01*
X9856583Y3728958D01*
Y3721869D01*
X9817850Y3683137D01*
X9386188D01*
X9382335Y3695837D01*
X9383431Y3696569D01*
X9649850Y3962988D01*
X9952659D01*
X9957672Y3957976D01*
X9974211Y3951125D01*
X9992113D01*
X10008653Y3957976D01*
X10021311Y3970634D01*
X10028162Y3987174D01*
Y4005076D01*
X10021311Y4021615D01*
X10008653Y4034274D01*
X9992113Y4041125D01*
X9974211D01*
X9957672Y4034274D01*
X9952659Y4029261D01*
X9878427D01*
X9873166Y4041961D01*
X9877793Y4046589D01*
X9884644Y4063128D01*
Y4081030D01*
X9877793Y4097569D01*
X9865134Y4110228D01*
X9848595Y4117079D01*
X9830693D01*
X9814154Y4110228D01*
X9808054Y4104128D01*
X9605728D01*
X9600468Y4116828D01*
X9608149Y4124510D01*
X9615000Y4141049D01*
Y4158951D01*
X9608149Y4175491D01*
X9603136Y4180503D01*
Y4260000D01*
X9600614Y4272681D01*
X9593431Y4283431D01*
X9203431Y4673431D01*
X9192681Y4680614D01*
X9180000Y4683137D01*
X8663725D01*
X8379988Y4966873D01*
X8369238Y4974057D01*
X8356557Y4976579D01*
X7684164D01*
X7679152Y4981592D01*
X7662612Y4988442D01*
D02*
G37*
G36*
X12058951Y3975000D02*
X12041049D01*
X12024510Y3968149D01*
X12011851Y3955490D01*
X12005000Y3938951D01*
Y3921049D01*
X12011851Y3904510D01*
X12024510Y3891851D01*
X12041049Y3885000D01*
X12058951D01*
X12075490Y3891851D01*
X12088149Y3904510D01*
X12095000Y3921049D01*
Y3938951D01*
X12088149Y3955490D01*
X12075490Y3968149D01*
X12058951Y3975000D01*
D02*
G37*
G36*
X10858951Y3965000D02*
X10841049D01*
X10824509Y3958149D01*
X10811851Y3945490D01*
X10805000Y3928951D01*
Y3911049D01*
X10811851Y3894510D01*
X10824509Y3881851D01*
X10841049Y3875000D01*
X10858951D01*
X10875490Y3881851D01*
X10888149Y3894510D01*
X10895000Y3911049D01*
Y3928951D01*
X10888149Y3945490D01*
X10875490Y3958149D01*
X10858951Y3965000D01*
D02*
G37*
G36*
X12652100Y3943502D02*
X12634198D01*
X12617658Y3936651D01*
X12605000Y3923992D01*
X12598149Y3907453D01*
Y3889551D01*
X12605000Y3873011D01*
X12617658Y3860353D01*
X12634198Y3853502D01*
X12652100D01*
X12668639Y3860353D01*
X12681298Y3873011D01*
X12688149Y3889551D01*
Y3907453D01*
X12681298Y3923992D01*
X12668639Y3936651D01*
X12652100Y3943502D01*
D02*
G37*
G36*
X12908951Y3905000D02*
X12891049D01*
X12874510Y3898149D01*
X12861852Y3885490D01*
X12855000Y3868951D01*
Y3851049D01*
X12861852Y3834509D01*
X12874510Y3821851D01*
X12891049Y3815000D01*
X12908951D01*
X12925491Y3821851D01*
X12938148Y3834509D01*
X12945000Y3851049D01*
Y3868951D01*
X12938148Y3885490D01*
X12925491Y3898149D01*
X12908951Y3905000D01*
D02*
G37*
G36*
X12210000Y4193137D02*
X10360000D01*
X10347319Y4190614D01*
X10336569Y4183431D01*
X10048138Y3895000D01*
X10041049D01*
X10024510Y3888149D01*
X10011851Y3875490D01*
X10005000Y3858951D01*
Y3841049D01*
X10011851Y3824509D01*
X10024510Y3811851D01*
X10041049Y3805000D01*
X10058951D01*
X10075490Y3811851D01*
X10088149Y3824509D01*
X10095000Y3841049D01*
Y3848138D01*
X10373726Y4126863D01*
X12196275D01*
X12396863Y3926274D01*
Y3880503D01*
X12391851Y3875490D01*
X12385000Y3858951D01*
Y3841049D01*
X12391851Y3824509D01*
X12404510Y3811851D01*
X12421049Y3805000D01*
X12438951D01*
X12455490Y3811851D01*
X12468149Y3824509D01*
X12475000Y3841049D01*
Y3858951D01*
X12468149Y3875490D01*
X12463137Y3880503D01*
Y3940000D01*
X12460614Y3952681D01*
X12453431Y3963431D01*
X12233431Y4183431D01*
X12222681Y4190614D01*
X12220577Y4191033D01*
X12210000Y4193137D01*
D02*
G37*
G36*
X6844946Y3810000D02*
X6825054D01*
X6806677Y3802388D01*
X6792612Y3788323D01*
X6785000Y3769946D01*
Y3750054D01*
X6792612Y3731677D01*
X6806677Y3717612D01*
X6825054Y3710000D01*
X6844946D01*
X6863323Y3717612D01*
X6877388Y3731677D01*
X6885000Y3750054D01*
Y3769946D01*
X6877388Y3788323D01*
X6863323Y3802388D01*
X6844946Y3810000D01*
D02*
G37*
G36*
X12278249Y3891263D02*
X12260347D01*
X12243808Y3884412D01*
X12231149Y3871753D01*
X12224298Y3855214D01*
Y3837312D01*
X12226864Y3831119D01*
Y3703726D01*
X12176275Y3653137D01*
X10500503D01*
X10495490Y3658149D01*
X10478951Y3665000D01*
X10461049D01*
X10444509Y3658149D01*
X10431851Y3645491D01*
X10425000Y3628951D01*
Y3611049D01*
X10431851Y3594510D01*
X10444509Y3581851D01*
X10461049Y3575000D01*
X10478951D01*
X10495490Y3581851D01*
X10500503Y3586864D01*
X12190000D01*
X12202681Y3589386D01*
X12213431Y3596569D01*
X12283431Y3666569D01*
X12290614Y3677320D01*
X12293137Y3690000D01*
Y3807430D01*
X12294789Y3808114D01*
X12307447Y3820773D01*
X12314298Y3837312D01*
Y3855214D01*
X12307447Y3871753D01*
X12294789Y3884412D01*
X12278249Y3891263D01*
D02*
G37*
G36*
X6945000Y3688104D02*
X6825000D01*
X6806726Y3685698D01*
X6789698Y3678645D01*
X6775075Y3667424D01*
X6763855Y3652802D01*
X6756802Y3635774D01*
X6754396Y3617500D01*
X6756802Y3599226D01*
X6763855Y3582198D01*
X6775075Y3567576D01*
X6789698Y3556355D01*
X6806726Y3549302D01*
X6825000Y3546896D01*
X6945000D01*
X6963274Y3549302D01*
X6980302Y3556355D01*
X6994925Y3567576D01*
X7006145Y3582198D01*
X7013198Y3599226D01*
X7015604Y3617500D01*
X7013198Y3635774D01*
X7006145Y3652802D01*
X6994925Y3667424D01*
X6980302Y3678645D01*
X6963274Y3685698D01*
X6945000Y3688104D01*
D02*
G37*
G36*
X6510000D02*
X6420000D01*
X6401727Y3685698D01*
X6384698Y3678645D01*
X6370076Y3667424D01*
X6358855Y3652802D01*
X6351802Y3635774D01*
X6349396Y3617500D01*
X6351802Y3599226D01*
X6358855Y3582198D01*
X6370076Y3567576D01*
X6384698Y3556355D01*
X6401727Y3549302D01*
X6420000Y3546896D01*
X6510000D01*
X6528273Y3549302D01*
X6545302Y3556355D01*
X6559924Y3567576D01*
X6571145Y3582198D01*
X6578198Y3599226D01*
X6580604Y3617500D01*
X6578198Y3635774D01*
X6571145Y3652802D01*
X6559924Y3667424D01*
X6545302Y3678645D01*
X6528273Y3685698D01*
X6510000Y3688104D01*
D02*
G37*
G36*
X10558825Y3566345D02*
X10540923D01*
X10524383Y3559495D01*
X10511725Y3546836D01*
X10504874Y3530296D01*
Y3512395D01*
X10511725Y3495855D01*
X10524383Y3483196D01*
X10540923Y3476346D01*
X10558825D01*
X10575364Y3483196D01*
X10588023Y3495855D01*
X10594874Y3512395D01*
Y3530296D01*
X10588023Y3546836D01*
X10575364Y3559495D01*
X10558825Y3566345D01*
D02*
G37*
G36*
X10468951Y3475000D02*
X10451049D01*
X10434509Y3468149D01*
X10421851Y3455490D01*
X10415000Y3438951D01*
Y3421049D01*
X10421851Y3404510D01*
X10434509Y3391851D01*
X10451049Y3385000D01*
X10468951D01*
X10485490Y3391851D01*
X10498149Y3404510D01*
X10505000Y3421049D01*
Y3438951D01*
X10498149Y3455490D01*
X10485490Y3468149D01*
X10468951Y3475000D01*
D02*
G37*
G36*
X10228951Y3385000D02*
X10211049D01*
X10194509Y3378149D01*
X10181851Y3365490D01*
X10175000Y3348951D01*
Y3331049D01*
X10181851Y3314509D01*
X10194509Y3301851D01*
X10211049Y3295000D01*
X10228951D01*
X10245490Y3301851D01*
X10258149Y3314509D01*
X10265000Y3331049D01*
Y3348951D01*
X10258149Y3365490D01*
X10245490Y3378149D01*
X10228951Y3385000D01*
D02*
G37*
G36*
X10358951Y3375000D02*
X10341049D01*
X10324509Y3368149D01*
X10311851Y3355490D01*
X10305000Y3338951D01*
Y3321049D01*
X10311851Y3304510D01*
X10324509Y3291851D01*
X10341049Y3285000D01*
X10358951D01*
X10375490Y3291851D01*
X10388149Y3304510D01*
X10395000Y3321049D01*
Y3338951D01*
X10388149Y3355490D01*
X10375490Y3368149D01*
X10358951Y3375000D01*
D02*
G37*
G36*
X10068951D02*
X10051049D01*
X10034510Y3368149D01*
X10021851Y3355490D01*
X10015000Y3338951D01*
Y3321049D01*
X10021851Y3304510D01*
X10034510Y3291851D01*
X10051049Y3285000D01*
X10068951D01*
X10085490Y3291851D01*
X10098149Y3304510D01*
X10105000Y3321049D01*
Y3338951D01*
X10098149Y3355490D01*
X10085490Y3368149D01*
X10068951Y3375000D01*
D02*
G37*
G36*
X9918951D02*
X9901049D01*
X9884510Y3368149D01*
X9871851Y3355490D01*
X9865000Y3338951D01*
Y3321049D01*
X9871851Y3304510D01*
X9884510Y3291851D01*
X9901049Y3285000D01*
X9918951D01*
X9935490Y3291851D01*
X9948149Y3304510D01*
X9955000Y3321049D01*
Y3338951D01*
X9948149Y3355490D01*
X9935490Y3368149D01*
X9918951Y3375000D01*
D02*
G37*
G36*
X9648951Y3365000D02*
X9631049D01*
X9614510Y3358149D01*
X9601851Y3345490D01*
X9595000Y3328951D01*
Y3311049D01*
X9601851Y3294510D01*
X9614510Y3281851D01*
X9631049Y3275000D01*
X9648951D01*
X9665490Y3281851D01*
X9678149Y3294510D01*
X9685000Y3311049D01*
Y3328951D01*
X9678149Y3345490D01*
X9665490Y3358149D01*
X9648951Y3365000D01*
D02*
G37*
G36*
X7611656Y3361450D02*
X7592343D01*
X7573688Y3356451D01*
X7556962Y3346795D01*
X7543305Y3333138D01*
X7533649Y3316412D01*
X7528650Y3297757D01*
Y3278444D01*
X7533649Y3259788D01*
X7543305Y3243062D01*
X7556962Y3229406D01*
X7573688Y3219749D01*
X7592343Y3214750D01*
X7611656D01*
X7630312Y3219749D01*
X7647038Y3229406D01*
X7660694Y3243062D01*
X7670351Y3259788D01*
X7675350Y3278444D01*
Y3297757D01*
X7670351Y3316412D01*
X7660694Y3333138D01*
X7647038Y3346795D01*
X7630312Y3356451D01*
X7611656Y3361450D01*
D02*
G37*
G36*
X10538951Y3275000D02*
X10521049D01*
X10504510Y3268149D01*
X10491851Y3255490D01*
X10485000Y3238951D01*
Y3221049D01*
X10491851Y3204509D01*
X10504510Y3191851D01*
X10521049Y3185000D01*
X10538951D01*
X10555490Y3191851D01*
X10568149Y3204509D01*
X10575000Y3221049D01*
Y3238951D01*
X10568149Y3255490D01*
X10555490Y3268149D01*
X10538951Y3275000D01*
D02*
G37*
G36*
X7103656Y3259850D02*
X7084343D01*
X7065688Y3254851D01*
X7048962Y3245195D01*
X7035305Y3231538D01*
X7025649Y3214812D01*
X7020650Y3196157D01*
Y3176844D01*
X7025649Y3158188D01*
X7035305Y3141462D01*
X7048962Y3127806D01*
X7065688Y3118149D01*
X7084343Y3113150D01*
X7103656D01*
X7122312Y3118149D01*
X7139038Y3127806D01*
X7152694Y3141462D01*
X7162351Y3158188D01*
X7167350Y3176844D01*
Y3196157D01*
X7162351Y3214812D01*
X7152694Y3231538D01*
X7139038Y3245195D01*
X7122312Y3254851D01*
X7103656Y3259850D01*
D02*
G37*
G36*
X7611656Y3158250D02*
X7592343D01*
X7573688Y3153252D01*
X7556962Y3143595D01*
X7543305Y3129938D01*
X7533649Y3113212D01*
X7528650Y3094557D01*
Y3075244D01*
X7533649Y3056588D01*
X7543305Y3039862D01*
X7556962Y3026206D01*
X7573688Y3016549D01*
X7592343Y3011550D01*
X7611656D01*
X7630312Y3016549D01*
X7647038Y3026206D01*
X7660694Y3039862D01*
X7670351Y3056588D01*
X7675350Y3075244D01*
Y3094557D01*
X7670351Y3113212D01*
X7660694Y3129938D01*
X7647038Y3143595D01*
X7630312Y3153252D01*
X7611656Y3158250D01*
D02*
G37*
G36*
X13621667Y3420000D02*
X13578333D01*
X13535828Y3411545D01*
X13495792Y3394961D01*
X13459758Y3370885D01*
X13429115Y3340242D01*
X13405038Y3304209D01*
X13388455Y3264172D01*
X13380000Y3221668D01*
Y3178332D01*
X13388455Y3135828D01*
X13405038Y3095791D01*
X13429115Y3059758D01*
X13459758Y3029115D01*
X13495792Y3005039D01*
X13535828Y2988455D01*
X13578333Y2980000D01*
X13621667D01*
X13664172Y2988455D01*
X13704208Y3005039D01*
X13740242Y3029115D01*
X13770885Y3059758D01*
X13794962Y3095791D01*
X13811545Y3135828D01*
X13820000Y3178332D01*
Y3221668D01*
X13811545Y3264172D01*
X13794962Y3304209D01*
X13770885Y3340242D01*
X13740242Y3370885D01*
X13704208Y3394961D01*
X13664172Y3411545D01*
X13621667Y3420000D01*
D02*
G37*
G36*
X6621668D02*
X6578332D01*
X6535828Y3411545D01*
X6495791Y3394961D01*
X6459758Y3370885D01*
X6429115Y3340242D01*
X6405039Y3304209D01*
X6388455Y3264172D01*
X6380000Y3221668D01*
Y3178332D01*
X6388455Y3135828D01*
X6405039Y3095791D01*
X6429115Y3059758D01*
X6459758Y3029115D01*
X6495791Y3005039D01*
X6535828Y2988455D01*
X6578332Y2980000D01*
X6621668D01*
X6664172Y2988455D01*
X6704209Y3005039D01*
X6740242Y3029115D01*
X6770885Y3059758D01*
X6794961Y3095791D01*
X6811545Y3135828D01*
X6820000Y3178332D01*
Y3221668D01*
X6811545Y3264172D01*
X6794961Y3304209D01*
X6770885Y3340242D01*
X6740242Y3370885D01*
X6704209Y3394961D01*
X6664172Y3411545D01*
X6621668Y3420000D01*
D02*
G37*
G36*
X7068951Y3025000D02*
X7051049D01*
X7034510Y3018149D01*
X7021851Y3005490D01*
X7015000Y2988951D01*
Y2971049D01*
X7021851Y2954509D01*
X7034510Y2941851D01*
X7051049Y2935000D01*
X7068951D01*
X7085491Y2941851D01*
X7098149Y2954509D01*
X7105000Y2971049D01*
Y2988951D01*
X7098149Y3005490D01*
X7085491Y3018149D01*
X7068951Y3025000D01*
D02*
G37*
%LPD*%
D75*
X11610000Y4330000D02*
Y4430000D01*
X11350000Y4690000D02*
X11610000Y4430000D01*
X9932347Y5410000D02*
X10100000D01*
X9820000Y5297653D02*
X9932347Y5410000D01*
X9593827Y5403827D02*
X9600000Y5410000D01*
X9572218Y5400000D02*
X9576045Y5403827D01*
X9593827D01*
X9600000Y5410000D02*
X9760000D01*
X10010000Y5660000D01*
X7001883Y4578117D02*
X7250000Y4330000D01*
X7440000D01*
X10410000Y5480000D02*
Y5480000D01*
X10510000Y4720000D02*
Y5380000D01*
X10410000Y5480000D02*
X10510000Y5380000D01*
X10230000Y5660000D02*
X10410000Y5480000D01*
X10010000Y5660000D02*
X10230000D01*
X10060000Y4270000D02*
X10510000Y4720000D01*
X9840000Y4270000D02*
X10060000D01*
X9470000Y5575148D02*
X9480000Y5585147D01*
X9470000Y5092823D02*
X9486342Y5076481D01*
X9480000Y5600000D02*
X9519091Y5639091D01*
X9480000Y5585147D02*
Y5600000D01*
X9486342Y5071069D02*
Y5076481D01*
X9470000Y5092823D02*
Y5575148D01*
X13470000Y4150000D02*
Y7271005D01*
X12820000Y3500000D02*
X13470000Y4150000D01*
X8720000Y4500000D02*
X8940000Y4280000D01*
X7819014Y4500000D02*
X8720000D01*
X9820000Y4860000D02*
Y5297653D01*
X11500000Y3500000D02*
X12820000D01*
X8084853Y7120000D02*
X9040000D01*
X6880000Y7260000D02*
X7020000Y7120000D01*
X9040000D02*
X9590000Y6570000D01*
X7020000Y7120000D02*
X8020148D01*
X8027648Y7127500D02*
X8077353D01*
X8084853Y7120000D01*
X8020148D02*
X8027648Y7127500D01*
X9238443Y4068443D02*
X9836008D01*
X8992599Y3822599D02*
X9238443Y4068443D01*
X9836008D02*
X9839644Y4072079D01*
X7695067Y3822599D02*
X8992599D01*
X10480000Y5530000D02*
X10890000Y5120000D01*
Y4790000D02*
Y5120000D01*
X10480000Y5530000D02*
Y6150000D01*
X10060000Y6570000D02*
X10480000Y6150000D01*
X9590000Y6570000D02*
X10060000D01*
X10689078Y4779542D02*
X10778620Y4690000D01*
X11350000D01*
X7695991Y4623023D02*
X7819014Y4500000D01*
X12860001Y4340000D02*
X12939999D01*
X12980000Y4380000D01*
Y4554588D01*
X6940859Y4581944D02*
X6944686Y4578117D01*
X7001883D01*
X7440000Y4330000D02*
X7490000Y4380000D01*
X12964999Y4569588D02*
X12980000Y4554588D01*
X12964999Y4569588D02*
Y4575000D01*
X9720000Y4760000D02*
X9820000Y4860000D01*
X9480000Y4760000D02*
X9720000D01*
X9519091Y5639091D02*
X9766822D01*
X9330000Y5640000D02*
X9430000Y5740000D01*
X9710000D01*
X9330000Y4980000D02*
Y5640000D01*
Y4980000D02*
X9374803Y4935197D01*
X9467306D01*
D77*
X7360000Y3470000D02*
X9860000D01*
X9930000Y3540000D02*
Y3620000D01*
X9860000Y3470000D02*
X9930000Y3540000D01*
X7695991Y5498528D02*
X8051472D01*
X8530000Y5020000D02*
X9000000D01*
X8051472Y5498528D02*
X8530000Y5020000D01*
X9670000Y4270000D02*
Y4350000D01*
X9000000Y5020000D02*
X9670000Y4350000D01*
X7415000Y4490000D02*
X7430217Y4505217D01*
X7360000Y4490000D02*
X7415000D01*
X7485217Y4505217D02*
X7490000Y4510000D01*
X7430217Y4505217D02*
X7485217D01*
X9360000Y3720000D02*
X9636125Y3996125D01*
X7440000Y3813235D02*
X7533235Y3720000D01*
X9360000D01*
X7170000Y3660000D02*
X7360000Y3470000D01*
X7170000Y3660000D02*
Y3820000D01*
X7440000Y3813235D02*
Y3820000D01*
X9570000Y4150000D02*
Y4260000D01*
X9180000Y4650000D02*
X9570000Y4260000D01*
X9347104Y4280000D02*
X9457104Y4170000D01*
X9460000D01*
X8940000Y4280000D02*
X9347104D01*
X12430000Y3850000D02*
Y3940000D01*
X12210000Y4160000D02*
X12430000Y3940000D01*
X10360000Y4160000D02*
X12210000D01*
X10050000Y3850000D02*
X10360000Y4160000D01*
X9831576Y3650000D02*
X9901582Y3720007D01*
X7390000Y3650000D02*
X9831576D01*
X7297962Y3742038D02*
Y3821996D01*
Y3742038D02*
X7390000Y3650000D01*
X9636125Y3996125D02*
X9983162D01*
X12260000Y3690000D02*
Y3836965D01*
X12269298Y3846263D01*
X12190000Y3620000D02*
X12260000Y3690000D01*
X10470000Y3620000D02*
X12190000D01*
X11140000Y5080000D02*
X12970000Y6910000D01*
Y7380000D01*
X11140000Y4760000D02*
Y5080000D01*
X7653661Y4943442D02*
X8356557D01*
X8650000Y4650000D01*
X9180000D01*
X7310000Y4440000D02*
X7360000Y4490000D01*
X6975740Y4664260D02*
X6995740D01*
X6970000Y4670000D02*
X6975740Y4664260D01*
X6995740D02*
X7220000Y4440000D01*
X7310000D01*
X11662784Y4771143D02*
X11741641Y4850000D01*
X12600000D01*
X11240465Y4370722D02*
X11347090Y4264098D01*
X12644252D01*
D78*
X13470000Y7448995D02*
Y7540000D01*
X13410001Y7388995D02*
X13470000Y7448995D01*
X13410001Y7331005D02*
X13470000Y7271005D01*
X13310001Y7700000D02*
X13470000Y7540000D01*
X13410001Y7331005D02*
Y7388995D01*
X10950000Y6460000D02*
X12080000D01*
X10870000D02*
X10950000D01*
X10540000Y6560000D02*
X10850000D01*
X10950000Y6460000D01*
X12550000Y6930000D02*
Y7360000D01*
X12080000Y6460000D02*
X12550000Y6930000D01*
X10810000Y6400000D02*
X10870000Y6460000D01*
D79*
X11784562Y6873046D02*
X11789817Y6867791D01*
X11781812Y6875796D02*
X11784562Y6873046D01*
X11942752Y6847248D02*
X11960000Y6830000D01*
X11836710Y6847248D02*
X11942752D01*
X11816167Y6867791D02*
X11836710Y6847248D01*
X11789817Y6867791D02*
X11816167D01*
X11992720Y6782720D02*
Y6843553D01*
X11956305Y6879968D02*
X11992720Y6843553D01*
X11838267Y6891964D02*
Y6918314D01*
Y6891964D02*
X11850263Y6879968D01*
X11833012Y6923569D02*
X11838267Y6918314D01*
X11850263Y6879968D02*
X11956305D01*
X11960000Y6796273D02*
Y6830000D01*
X11920549Y6756823D02*
X11960000Y6796273D01*
X11934102Y6724103D02*
X11992720Y6782720D01*
X10120000Y6730000D02*
X10125249Y6735249D01*
X10151611D01*
X10173184Y6756823D01*
X11920549D01*
X10186737Y6724103D02*
X11934102D01*
X10174747Y6685752D02*
Y6712113D01*
X10186737Y6724103D01*
X10169497Y6680503D02*
X10174747Y6685752D01*
X11183827Y7549313D02*
X11219313D01*
X10276941Y7178092D02*
X10812607D01*
X9889288Y6790440D02*
X10276941Y7178092D01*
X9885512Y6757357D02*
X9889288Y6761134D01*
X10263388Y7210812D02*
X10799054D01*
X9889288Y6761134D02*
Y6790440D01*
X9859718Y6807142D02*
X10263388Y7210812D01*
X11219313Y7549313D02*
X11220000Y7550000D01*
X9837142Y6807142D02*
X9859718D01*
X10812607Y7178092D02*
X11183827Y7549313D01*
X9830000Y6800000D02*
X9837142Y6807142D01*
X11192393Y7604151D02*
Y7614326D01*
X10799054Y7210812D02*
X11192393Y7604151D01*
X9219826Y6270000D02*
X9230000D01*
X9204660Y6285166D02*
X9219826Y6270000D01*
X7665706Y6815830D02*
Y6841965D01*
Y6815830D02*
X8163649Y6317886D01*
X9192428D01*
X9213589Y6339047D01*
X8150096Y6285166D02*
X9204660D01*
X7609066Y6801021D02*
X7634241D01*
X8150096Y6285166D01*
X7603224Y6806864D02*
X7609066Y6801021D01*
X9213589Y6339047D02*
X9218492D01*
X7660343Y6847327D02*
X7665706Y6841965D01*
D85*
X7150000Y10860000D02*
D03*
Y10140000D02*
D03*
D86*
X10225000Y8950000D02*
D03*
X9925000D02*
D03*
X10225000Y9400000D02*
D03*
X9925000D02*
D03*
X10075000Y9175000D02*
D03*
X8175000Y8925000D02*
D03*
X7875000D02*
D03*
X8175000Y9375000D02*
D03*
X7875000D02*
D03*
X8025000Y9150000D02*
D03*
X12275000Y8950000D02*
D03*
X11975000D02*
D03*
X12275000Y9400000D02*
D03*
X11975000D02*
D03*
X12125000Y9175000D02*
D03*
D87*
X7602000Y3084900D02*
D03*
Y3288100D02*
D03*
X7094000Y3186500D02*
D03*
D88*
X6550000Y9825000D02*
D03*
Y11175000D02*
D03*
D89*
X6835000Y3760000D02*
D03*
Y4340000D02*
D03*
D90*
X6885000Y4482500D02*
D03*
Y3617500D02*
D03*
D91*
X6465000D02*
D03*
Y4482500D02*
D03*
D92*
X11610000Y4330000D02*
D03*
X13310001Y7940000D02*
D03*
X13239999D02*
D03*
X13310001Y7870000D02*
D03*
X13239999D02*
D03*
X9240000Y5070000D02*
D03*
X10010000Y4480000D02*
D03*
X9670000Y4270000D02*
D03*
X10060000Y5520000D02*
D03*
X9040000Y5140000D02*
D03*
X7490000Y4510000D02*
D03*
X7440000Y3820000D02*
D03*
X7170000D02*
D03*
X10460000Y3430000D02*
D03*
X10530000Y3230000D02*
D03*
X9570000Y4150000D02*
D03*
X6375300Y6002658D02*
D03*
Y5932658D02*
D03*
Y5862658D02*
D03*
X6455300Y6072658D02*
D03*
Y6002658D02*
D03*
Y5932658D02*
D03*
Y5862658D02*
D03*
X6375300Y6072658D02*
D03*
X12989999Y3030000D02*
D03*
X6480000Y4910000D02*
D03*
Y4990000D02*
D03*
X6480000Y5070000D02*
D03*
Y5150000D02*
D03*
Y5220000D02*
D03*
Y5290000D02*
D03*
Y5360000D02*
D03*
X6480000Y5430000D02*
D03*
X6410000D02*
D03*
X6410000Y5360000D02*
D03*
X6410000Y5290000D02*
D03*
Y5220000D02*
D03*
X6410000Y5150000D02*
D03*
Y5070000D02*
D03*
X6410000Y4990000D02*
D03*
Y4910000D02*
D03*
X6550000Y5430000D02*
D03*
X6550000Y5360000D02*
D03*
X6550000Y5290000D02*
D03*
Y5220000D02*
D03*
X6550000Y5150000D02*
D03*
X6550000Y5070000D02*
D03*
Y4990000D02*
D03*
Y4910000D02*
D03*
X6630000Y5430000D02*
D03*
Y5360000D02*
D03*
Y5290000D02*
D03*
Y5220000D02*
D03*
Y5150000D02*
D03*
Y5070000D02*
D03*
Y4990000D02*
D03*
Y4910000D02*
D03*
X12470000Y2950000D02*
D03*
X12550000D02*
D03*
X12630000D02*
D03*
X12710000D02*
D03*
X12780000D02*
D03*
X12850000D02*
D03*
X12920000D02*
D03*
X12989999D02*
D03*
X12470000Y3030000D02*
D03*
X12550000D02*
D03*
X12630000D02*
D03*
X12710000D02*
D03*
X12780000D02*
D03*
X12850000D02*
D03*
X12920000D02*
D03*
X12470000Y3170000D02*
D03*
X12550000D02*
D03*
X12630000D02*
D03*
X12710000D02*
D03*
X12780000D02*
D03*
X12850000D02*
D03*
X12920000D02*
D03*
X12989999D02*
D03*
Y3100000D02*
D03*
X12920000D02*
D03*
X12850000D02*
D03*
X12780000D02*
D03*
X12710000D02*
D03*
X12630000D02*
D03*
X12550000D02*
D03*
X12470000D02*
D03*
X12690000Y4000000D02*
D03*
X12830000Y4030000D02*
D03*
X9572218Y5400000D02*
D03*
X9460000Y4170000D02*
D03*
X10100000Y5410000D02*
D03*
X10210000Y5520000D02*
D03*
X6810000Y5830000D02*
D03*
X11430000Y7260000D02*
D03*
Y7320000D02*
D03*
Y7400000D02*
D03*
Y7480000D02*
D03*
X13489999Y7960000D02*
D03*
X13480000Y7360000D02*
D03*
X13266678Y6722405D02*
D03*
X13345638Y6390240D02*
D03*
X12760000Y7470000D02*
D03*
X11758189Y11099973D02*
D03*
X11754784Y11171657D02*
D03*
Y11241657D02*
D03*
X9840000Y4270000D02*
D03*
X6410000Y6980000D02*
D03*
X12050000Y3930000D02*
D03*
X9910000Y3330000D02*
D03*
X10060000D02*
D03*
X10220000Y3340000D02*
D03*
X13130000Y9990000D02*
D03*
X12010000Y10550000D02*
D03*
Y10490000D02*
D03*
Y10420000D02*
D03*
X12100000Y10550000D02*
D03*
Y10490000D02*
D03*
Y10420000D02*
D03*
X12210000Y10550000D02*
D03*
Y10490000D02*
D03*
Y10420000D02*
D03*
X13860001Y6470000D02*
D03*
Y6400000D02*
D03*
Y6340000D02*
D03*
X13770000Y7960000D02*
D03*
X13710001D02*
D03*
X13650000D02*
D03*
X13210001Y10650000D02*
D03*
X12140000Y11030000D02*
D03*
X12200000D02*
D03*
X12270000D02*
D03*
X12140000Y11100000D02*
D03*
X12200000D02*
D03*
X12270000D02*
D03*
X12330000Y10730000D02*
D03*
Y10800000D02*
D03*
Y10860000D02*
D03*
X13080000Y10480000D02*
D03*
X12320000Y10420000D02*
D03*
Y10490000D02*
D03*
Y10550000D02*
D03*
X11207764Y10115706D02*
D03*
Y10185706D02*
D03*
Y10265706D02*
D03*
X11117764Y10115706D02*
D03*
Y10195706D02*
D03*
Y10265706D02*
D03*
X10217764Y9805706D02*
D03*
Y9875706D02*
D03*
Y9945706D02*
D03*
X11030000Y11280000D02*
D03*
X10950000D02*
D03*
X10870000D02*
D03*
X10800000D02*
D03*
Y11200000D02*
D03*
X10870000D02*
D03*
X10950000D02*
D03*
X11030000D02*
D03*
X10800000Y11130000D02*
D03*
X10870000D02*
D03*
X10950000D02*
D03*
X11030000D02*
D03*
X10800000Y11060000D02*
D03*
X10870000D02*
D03*
X10950000D02*
D03*
X11030000D02*
D03*
X10960000Y10280000D02*
D03*
X10590000Y10210000D02*
D03*
X10100000Y10290000D02*
D03*
X10360000Y10820000D02*
D03*
X8070000Y9800000D02*
D03*
X7970000D02*
D03*
X7880000D02*
D03*
X7800000D02*
D03*
X7730000D02*
D03*
X7650000D02*
D03*
X7580000D02*
D03*
X9300000Y10630000D02*
D03*
X9030000Y10920000D02*
D03*
X8890000D02*
D03*
X9150000D02*
D03*
X9380000Y10410000D02*
D03*
X9340000Y10290000D02*
D03*
X8590000Y11050000D02*
D03*
X8510000D02*
D03*
X8430000D02*
D03*
X8360000D02*
D03*
X8290000D02*
D03*
X8220000D02*
D03*
X8150000D02*
D03*
X8080000D02*
D03*
X8010000D02*
D03*
X7930000D02*
D03*
X8590000Y11120000D02*
D03*
X8510000D02*
D03*
X8430000D02*
D03*
X8360000D02*
D03*
X8290000D02*
D03*
X8220000D02*
D03*
X8150000D02*
D03*
X8080000D02*
D03*
X8010000D02*
D03*
X7930000D02*
D03*
X8590000Y11190000D02*
D03*
X8510000D02*
D03*
X8430000D02*
D03*
X8360000D02*
D03*
X8290000D02*
D03*
X8220000D02*
D03*
X8150000D02*
D03*
X8080000D02*
D03*
X8010000D02*
D03*
X7930000D02*
D03*
Y11270000D02*
D03*
X8010000D02*
D03*
X8080000D02*
D03*
X8150000D02*
D03*
X8220000D02*
D03*
X8290000D02*
D03*
X8360000D02*
D03*
X8430000D02*
D03*
X8510000D02*
D03*
X8590000D02*
D03*
X8060000Y10320000D02*
D03*
X7990000D02*
D03*
X7910000D02*
D03*
X7830000D02*
D03*
X7740000D02*
D03*
X7640349Y10318751D02*
D03*
X7550000Y10320000D02*
D03*
X9040000Y10470000D02*
D03*
X7780000Y10940000D02*
D03*
X7720000D02*
D03*
X7650000D02*
D03*
X7570000D02*
D03*
X7770000Y11000000D02*
D03*
X7700000D02*
D03*
X7640000D02*
D03*
X7570000D02*
D03*
X12720000Y8010000D02*
D03*
Y8080000D02*
D03*
Y8140000D02*
D03*
Y8210000D02*
D03*
Y8270000D02*
D03*
Y8340000D02*
D03*
X12650000Y8270000D02*
D03*
Y8340000D02*
D03*
Y8140000D02*
D03*
Y8210000D02*
D03*
Y8010000D02*
D03*
Y8080000D02*
D03*
X13239999Y7700000D02*
D03*
X13310001D02*
D03*
X13239999Y7760000D02*
D03*
X13310001D02*
D03*
X13239999Y7810000D02*
D03*
X13310001D02*
D03*
X12860001Y7940000D02*
D03*
Y7870000D02*
D03*
X12790000Y7940000D02*
D03*
Y7870000D02*
D03*
X12715501Y7944000D02*
D03*
Y7874000D02*
D03*
X12650000Y7940000D02*
D03*
Y7870000D02*
D03*
X12560000Y7330000D02*
D03*
X12480000D02*
D03*
Y7390000D02*
D03*
X12560000D02*
D03*
X12400000Y7450000D02*
D03*
X12480000D02*
D03*
X12560000D02*
D03*
X12560000Y7510000D02*
D03*
X12480000D02*
D03*
X12400000D02*
D03*
X12320000D02*
D03*
X12560000Y7560000D02*
D03*
X12480000D02*
D03*
X12400000D02*
D03*
X12320000D02*
D03*
X12560000Y7620000D02*
D03*
X12480000D02*
D03*
X12400000D02*
D03*
X12320000D02*
D03*
X12560000Y7680000D02*
D03*
X12480000D02*
D03*
X12400000D02*
D03*
X12320000D02*
D03*
X12560000Y7750000D02*
D03*
X12480000D02*
D03*
X12400000D02*
D03*
X12320000D02*
D03*
X12560000Y7810000D02*
D03*
X12480000D02*
D03*
X12400000D02*
D03*
X12320000D02*
D03*
X12560000Y7880000D02*
D03*
X12480000D02*
D03*
X12400000D02*
D03*
X12320000D02*
D03*
X12560000Y7940000D02*
D03*
X12480000D02*
D03*
X12400000D02*
D03*
X12320000D02*
D03*
X12556700Y7995000D02*
D03*
X12476700D02*
D03*
X12396700D02*
D03*
X12316700D02*
D03*
X12560000Y8050000D02*
D03*
X12480000D02*
D03*
X12400000D02*
D03*
X12320000D02*
D03*
X12560000Y8100000D02*
D03*
X12480000D02*
D03*
X12400000D02*
D03*
X12320000D02*
D03*
X12560000Y8150000D02*
D03*
X12480000D02*
D03*
X12400000D02*
D03*
X12320000D02*
D03*
X12560000Y8210000D02*
D03*
X12480000D02*
D03*
X12400000D02*
D03*
X12320000D02*
D03*
X12560000Y8270000D02*
D03*
X12480000D02*
D03*
X12400000D02*
D03*
X12320000D02*
D03*
X12560000Y8330000D02*
D03*
X12480000D02*
D03*
X12400000D02*
D03*
X12320000D02*
D03*
X10640000Y7120000D02*
D03*
X10720000D02*
D03*
X10800000D02*
D03*
X10790000Y7350000D02*
D03*
X10710000D02*
D03*
X10630000D02*
D03*
X9280000Y7390000D02*
D03*
X9360000D02*
D03*
X9280000Y7460000D02*
D03*
X9360000D02*
D03*
X9270000Y7530000D02*
D03*
X9350000D02*
D03*
Y7620000D02*
D03*
X9270000D02*
D03*
X9820000Y8070000D02*
D03*
Y8140000D02*
D03*
Y8200000D02*
D03*
Y8270000D02*
D03*
Y8340000D02*
D03*
Y8390000D02*
D03*
X9440000D02*
D03*
X9520000D02*
D03*
X9600000D02*
D03*
X9680000D02*
D03*
X9760335Y8386095D02*
D03*
X9440000Y8340000D02*
D03*
X9520000D02*
D03*
X9600000D02*
D03*
X9680000D02*
D03*
X9760335Y8336095D02*
D03*
X9440000Y8270000D02*
D03*
X9520000D02*
D03*
X9600000D02*
D03*
X9680000D02*
D03*
X9760335Y8266095D02*
D03*
X9440000Y8200000D02*
D03*
X9520000D02*
D03*
X9600000D02*
D03*
X9680000D02*
D03*
X9760335Y8196095D02*
D03*
X9440000Y8140000D02*
D03*
X9520000D02*
D03*
X9600000D02*
D03*
X9680000D02*
D03*
X9760335Y8136095D02*
D03*
X9440000Y8070000D02*
D03*
X9520000D02*
D03*
X9600000D02*
D03*
X9680000D02*
D03*
X9760335Y8066095D02*
D03*
X9830000Y7440000D02*
D03*
X9820000Y8000000D02*
D03*
X9440000Y7940000D02*
D03*
Y8000000D02*
D03*
X9520000D02*
D03*
X9600000D02*
D03*
X9680000D02*
D03*
X9760335Y7996095D02*
D03*
X9510000Y7920000D02*
D03*
X9590000D02*
D03*
X9670000D02*
D03*
X9750000D02*
D03*
X9830335Y7916095D02*
D03*
X9510000Y7860000D02*
D03*
X9590000D02*
D03*
X9670000D02*
D03*
X9750000D02*
D03*
X9830335Y7856095D02*
D03*
X9510000Y7790000D02*
D03*
X9590000D02*
D03*
X9670000D02*
D03*
X9750000D02*
D03*
X9830335Y7786095D02*
D03*
X9510000Y7720000D02*
D03*
X9590000D02*
D03*
X9670000D02*
D03*
X9750000D02*
D03*
X9830335Y7716095D02*
D03*
X9510000Y7650000D02*
D03*
X9590000D02*
D03*
X9670000D02*
D03*
X9750000D02*
D03*
X9830335Y7646095D02*
D03*
X9510000Y7580000D02*
D03*
X9590000D02*
D03*
X9670000D02*
D03*
X9750000D02*
D03*
X9830335Y7576095D02*
D03*
X9510000Y7510000D02*
D03*
X9590000D02*
D03*
X9670000D02*
D03*
X9750000D02*
D03*
X9830335Y7506095D02*
D03*
X9749665Y7443905D02*
D03*
X9669665D02*
D03*
X9589665D02*
D03*
X9509665D02*
D03*
X8730000Y7560000D02*
D03*
Y7640000D02*
D03*
Y7720000D02*
D03*
X8820000D02*
D03*
Y7640000D02*
D03*
Y7560000D02*
D03*
X8890000Y7730000D02*
D03*
Y7650000D02*
D03*
Y7570000D02*
D03*
X8960000Y7730000D02*
D03*
Y7650000D02*
D03*
Y7570000D02*
D03*
X9030000Y7730000D02*
D03*
Y7650000D02*
D03*
Y7570000D02*
D03*
X7460000Y7390000D02*
D03*
Y7310000D02*
D03*
Y7230000D02*
D03*
X7390000D02*
D03*
Y7310000D02*
D03*
Y7390000D02*
D03*
X7320000Y7230000D02*
D03*
Y7310000D02*
D03*
Y7390000D02*
D03*
X7250000Y7230000D02*
D03*
Y7310000D02*
D03*
Y7390000D02*
D03*
X7180000Y7220000D02*
D03*
Y7300000D02*
D03*
Y7380000D02*
D03*
X7090000D02*
D03*
Y7300000D02*
D03*
Y7220000D02*
D03*
X8590000Y8330000D02*
D03*
X8510000D02*
D03*
X8430000D02*
D03*
X8360000D02*
D03*
X8280000D02*
D03*
X8200000D02*
D03*
X8590000Y8250000D02*
D03*
X8510000D02*
D03*
X8430000D02*
D03*
X8360000D02*
D03*
X8280000D02*
D03*
X8200000D02*
D03*
X8590000Y8170000D02*
D03*
X8510000D02*
D03*
X8430000D02*
D03*
X8360000D02*
D03*
X8280000D02*
D03*
X8200000D02*
D03*
X8590000Y8090000D02*
D03*
X8510000D02*
D03*
X8430000D02*
D03*
X8360000D02*
D03*
X8280000D02*
D03*
X8200000D02*
D03*
X8202500Y8019889D02*
D03*
X8282500D02*
D03*
X8362500D02*
D03*
X8432500D02*
D03*
X8512500D02*
D03*
X8592500D02*
D03*
X8790000Y7860000D02*
D03*
X8760000Y7930000D02*
D03*
X8680000D02*
D03*
X8600000D02*
D03*
X8520000D02*
D03*
X8440000D02*
D03*
X8360000D02*
D03*
X8280000D02*
D03*
X8200000D02*
D03*
X9230000Y7950000D02*
D03*
X9150000D02*
D03*
X9070000D02*
D03*
X8990000D02*
D03*
X9030000Y7860000D02*
D03*
X8950000D02*
D03*
X8870000D02*
D03*
X8710000D02*
D03*
X8630000D02*
D03*
X8550000D02*
D03*
X8470000D02*
D03*
X8400000D02*
D03*
X8320000D02*
D03*
X8240000D02*
D03*
X8160000D02*
D03*
X8400000Y7790000D02*
D03*
X8320000D02*
D03*
X8240000D02*
D03*
X8160000D02*
D03*
X8400000Y7720000D02*
D03*
X8320000D02*
D03*
X8240000D02*
D03*
X8160000D02*
D03*
X8400000Y7650000D02*
D03*
X8320000D02*
D03*
X8240000D02*
D03*
X8160000D02*
D03*
X8410000Y7570000D02*
D03*
X8330000D02*
D03*
X8250000D02*
D03*
X8170000D02*
D03*
X8400000Y7500000D02*
D03*
X8320000D02*
D03*
X8240000D02*
D03*
X8160000D02*
D03*
Y7430000D02*
D03*
X8240000D02*
D03*
X8320000D02*
D03*
X8400000D02*
D03*
X10050000Y3850000D02*
D03*
X10328027Y2973736D02*
D03*
X10350000Y3330000D02*
D03*
X9839644Y4072079D02*
D03*
X9983162Y3996125D02*
D03*
X9901582Y3720007D02*
D03*
X9930000Y3620000D02*
D03*
X7695067Y3822599D02*
D03*
X7297962Y3821996D02*
D03*
X7450000Y3040000D02*
D03*
X6859874Y3061769D02*
D03*
X7060000Y2980000D02*
D03*
X7700894Y3583847D02*
D03*
X7600000Y3580000D02*
D03*
X7377500Y3372500D02*
D03*
X12900000Y3860000D02*
D03*
X12643149Y3898502D02*
D03*
X12430000Y3850000D02*
D03*
X12269298Y3846263D02*
D03*
X10549874Y3521346D02*
D03*
X10470000Y3620000D02*
D03*
X12550000Y3810000D02*
D03*
X12180000D02*
D03*
X11802937Y4042814D02*
D03*
X11930000Y3920000D02*
D03*
X11500000Y3500000D02*
D03*
X11445000Y3110000D02*
D03*
X11905000D02*
D03*
X12170000D02*
D03*
X13130000Y3110001D02*
D03*
X13000000Y3500000D02*
D03*
X13600000Y3690000D02*
D03*
X12777500Y3847500D02*
D03*
X12460000Y6160000D02*
D03*
X11530000Y5350000D02*
D03*
X12125637Y6170241D02*
D03*
X11980000Y6070000D02*
D03*
X10650000Y4530000D02*
D03*
X12970000Y7380000D02*
D03*
X13219318Y7449789D02*
D03*
X11140000Y4760000D02*
D03*
X6880000Y7260000D02*
D03*
X6420000Y7280000D02*
D03*
X6410000Y7120000D02*
D03*
X10890000Y4790000D02*
D03*
X10689078Y4779542D02*
D03*
X7270000Y7000000D02*
D03*
X7080000D02*
D03*
X6930000D02*
D03*
X8199379Y6180777D02*
D03*
X8100000Y5060000D02*
D03*
X7950000Y5050000D02*
D03*
X8180000Y5520000D02*
D03*
X8130000Y5740000D02*
D03*
X7750000Y5900000D02*
D03*
X7980000Y5740000D02*
D03*
X7850000Y6500000D02*
D03*
X7061558Y6461709D02*
D03*
X7541788Y6501663D02*
D03*
X7350000Y6290000D02*
D03*
X7130498Y6339497D02*
D03*
X6980000Y6340000D02*
D03*
X10063594Y4613642D02*
D03*
X8708662Y6218442D02*
D03*
X8402459Y5620406D02*
D03*
X6548662Y6783442D02*
D03*
X6548662Y6323443D02*
D03*
Y6158443D02*
D03*
Y5698443D02*
D03*
X7695991Y5498528D02*
D03*
X7653661Y4943442D02*
D03*
X7695991Y4623023D02*
D03*
X6555000Y5530000D02*
D03*
X6555000Y4770000D02*
D03*
X7599609Y5343364D02*
D03*
X7613335Y5107139D02*
D03*
X7608278Y4782060D02*
D03*
X7257915Y4628912D02*
D03*
X7260000Y4730000D02*
D03*
X7110000Y4810000D02*
D03*
X7120000Y5800000D02*
D03*
X7510000Y5820000D02*
D03*
X7255931Y5499879D02*
D03*
X7180000Y5490000D02*
D03*
X7260000Y5410000D02*
D03*
X7262438Y4950803D02*
D03*
X7255930Y5049612D02*
D03*
X7190000Y5110000D02*
D03*
X13009541Y5559865D02*
D03*
X13008749Y5059599D02*
D03*
X13030000Y4820000D02*
D03*
X12728292Y4094618D02*
D03*
X12860001Y4100000D02*
D03*
X13030000Y4250000D02*
D03*
X12860001Y4340000D02*
D03*
X7280000Y4080000D02*
D03*
X7490000Y4380000D02*
D03*
X6970000Y4670000D02*
D03*
X6940859Y4581944D02*
D03*
X7090000Y3730000D02*
D03*
X7270000Y4500000D02*
D03*
X7400000Y4430000D02*
D03*
X7770000Y4380000D02*
D03*
X7760000Y4470000D02*
D03*
X9069363Y4529363D02*
D03*
X11662784Y4771143D02*
D03*
X11240465Y4370722D02*
D03*
X12644252Y4264098D02*
D03*
X12600000Y4850000D02*
D03*
X13210001Y4545000D02*
D03*
X13100000Y3920000D02*
D03*
X12964999Y4575000D02*
D03*
X11790000Y4480000D02*
D03*
Y4620000D02*
D03*
X13600000Y4150000D02*
D03*
X13600000Y4315000D02*
D03*
X13600000Y4775000D02*
D03*
X13591299Y5095000D02*
D03*
X13201300Y5325000D02*
D03*
X13591299Y5555000D02*
D03*
Y5720000D02*
D03*
Y6180000D02*
D03*
X13080000Y5950000D02*
D03*
X12873788Y5641425D02*
D03*
X12870000Y5010000D02*
D03*
X12589006Y5058949D02*
D03*
X12571089Y5812193D02*
D03*
X12730000Y5810000D02*
D03*
X11950000Y5508800D02*
D03*
Y5050000D02*
D03*
X8770000Y4130000D02*
D03*
X8840000Y4860000D02*
D03*
X8910000Y3990000D02*
D03*
X9130000Y3780000D02*
D03*
X9570000Y3380000D02*
D03*
X9140000Y4790000D02*
D03*
X8052500Y7067500D02*
D03*
X9420000Y5610000D02*
D03*
X9960000Y5930000D02*
D03*
X10060000Y6030000D02*
D03*
X9850000Y6050000D02*
D03*
X9750000Y6150000D02*
D03*
X9860000Y6240000D02*
D03*
X9969437Y6138371D02*
D03*
X9960000Y6330000D02*
D03*
X10070000Y6240000D02*
D03*
X10750000Y3730000D02*
D03*
X10780000Y3850000D02*
D03*
X10661192Y5707668D02*
D03*
X10180000Y6130000D02*
D03*
X10640000Y6470000D02*
D03*
X10770000Y5810000D02*
D03*
X10986645Y6250000D02*
D03*
X10350000Y7280000D02*
D03*
X12070268Y7124077D02*
D03*
X11010000Y4510000D02*
D03*
X10270000Y5030000D02*
D03*
X11833012Y6923569D02*
D03*
X11784562Y6873046D02*
D03*
X10169497Y6680503D02*
D03*
X10120000Y6730000D02*
D03*
X11192393Y7614326D02*
D03*
X11220000Y7550000D02*
D03*
X9885512Y6757357D02*
D03*
X9830000Y6800000D02*
D03*
X7603224Y6806864D02*
D03*
X7660343Y6847327D02*
D03*
X9230000Y6270000D02*
D03*
X9218492Y6339047D02*
D03*
X9480000Y4760000D02*
D03*
X10540000Y6560000D02*
D03*
X10810000Y6400000D02*
D03*
X9810000Y4660000D02*
D03*
X10300000Y5390000D02*
D03*
X10300622Y5865961D02*
D03*
X10278570Y5736596D02*
D03*
X9097778Y5040914D02*
D03*
X9310000Y5720000D02*
D03*
X9610000Y5510000D02*
D03*
X9766822Y5639091D02*
D03*
X9710000Y5740000D02*
D03*
X9486342Y5071069D02*
D03*
X9467306Y4935197D02*
D03*
X9636360Y5130000D02*
D03*
X10850000Y3920000D02*
D03*
X9640000Y3320000D02*
D03*
X10910000Y4610000D02*
D03*
X10190000Y5090000D02*
D03*
X9010000Y4470000D02*
D03*
X8730000Y4760000D02*
D03*
%TF.MD5,a527885b32b337d4076fd43a19d56a42*%
M02*
