%TF.GenerationSoftware,Altium Limited,Altium Designer,23.1.1 (15)*%
G04 Layer_Color=32768*
%FSLAX45Y45*%
%MOMM*%
%TF.SameCoordinates,3B15BE60-5205-462F-B1BE-89E8C5D5736D*%
%TF.FilePolarity,Positive*%
%TF.FileFunction,Other,Mechanical_15*%
%TF.Part,Single*%
G01*
G75*
%TA.AperFunction,NonConductor*%
%ADD96C,0.10000*%
%ADD173C,0.05000*%
D96*
X10150000Y10419900D02*
X10650000Y10419900D01*
X10150000Y10860100D02*
X10150000Y10419900D01*
X10150000Y10860100D02*
X10650000Y10860100D01*
X10650000Y10419900D02*
X10650000Y10860100D01*
X9415000Y10840000D02*
X10005000D01*
X9415000Y10200000D02*
Y10840000D01*
Y10200000D02*
X10005000D01*
Y10840000D01*
X8695000Y9857500D02*
Y10447500D01*
X8055000D02*
X8695000D01*
X8055000Y9857500D02*
Y10447500D01*
Y9857500D02*
X8695000D01*
X12972501Y4155000D02*
Y4935000D01*
X13844901Y4935000D01*
X13844901Y4155000D01*
X12972501D02*
X13844901D01*
X13614999Y6650000D02*
Y6750000D01*
X13564999Y6700000D02*
X13664999D01*
X8055000Y8674500D02*
X8745001D01*
X8055000Y7813500D02*
Y8674500D01*
Y7813500D02*
X8745001D01*
Y8674500D01*
X11443500Y7811500D02*
X12133500D01*
Y8672500D01*
X11443500D02*
X12133500D01*
X11443500Y7811500D02*
Y8672500D01*
X12180000Y8669500D02*
X12870000D01*
X12180000Y7808500D02*
Y8669500D01*
Y7808500D02*
X12870000D01*
Y8669500D01*
X10180000Y7855501D02*
X10870000D01*
Y8716500D01*
X10180000D02*
X10870000D01*
X10180000Y7855501D02*
Y8716500D01*
X7354972Y7805487D02*
X8044972D01*
Y8666487D01*
X7354972D02*
X8044972D01*
X7354972Y7805487D02*
Y8666487D01*
X9305000Y8719500D02*
X9995000D01*
X9305000Y7858500D02*
Y8719500D01*
Y7858500D02*
X9995000D01*
Y8719500D01*
X12880000Y10602500D02*
Y11242500D01*
X13470000D01*
Y10602500D02*
Y11242500D01*
X12880000Y10602500D02*
X13470000D01*
X8604900Y10705000D02*
X9045100Y10705000D01*
X8604900Y10205000D02*
Y10705000D01*
Y10205000D02*
X9045100Y10205000D01*
Y10705000D01*
X7177501Y5540000D02*
Y6320000D01*
X6305100Y5540000D02*
X7177501D01*
X6305100D02*
Y6320000D01*
X7177501D01*
X11285000Y3737501D02*
X12065000Y3737500D01*
X12065000Y2865100D02*
X12065000Y3737500D01*
X11285000Y2865100D02*
X12065000D01*
X11285000D02*
X11285000Y3737501D01*
X7177501Y6165000D02*
Y6945000D01*
X6305100Y6165000D02*
X7177501Y6165000D01*
X6305100Y6165000D02*
Y6945000D01*
X7177501Y6945000D01*
X12972499Y3530000D02*
Y4310000D01*
X13844901Y4310000D01*
Y3530000D02*
Y4310000D01*
X12972499Y3530000D02*
X13844901Y3530000D01*
X12425000Y5200000D02*
Y5300000D01*
X12375000Y5250000D02*
X12475000D01*
X12963800Y4935000D02*
X13836200Y4935000D01*
Y5715000D01*
X12963800D02*
X13836200D01*
X12963800Y4935000D02*
Y5715000D01*
Y5560000D02*
X13836200Y5560000D01*
Y6340000D01*
X12963800D02*
X13836200D01*
X12963800Y5560000D02*
Y6340000D01*
X8107500Y6180000D02*
X8207500D01*
X8157500Y6130000D02*
Y6230000D01*
X8082500Y5520000D02*
X8182500D01*
X8132500Y5470000D02*
Y5570000D01*
X12452500Y4513500D02*
Y4613500D01*
X12402500Y4563500D02*
X12502500D01*
D173*
X9969437Y6651023D02*
X10482090Y6138371D01*
X9456784D02*
X9969437Y6651023D01*
X9456784Y6138371D02*
X9969437Y5625718D01*
X10482090Y6138371D01*
X9922241Y3251194D02*
X10873300Y4202253D01*
X8971182D02*
X9922241Y3251194D01*
X8971182Y4202253D02*
X9922241Y5153312D01*
X10873300Y4202253D01*
X13450000Y6875000D02*
X13780000D01*
X13450000Y6525000D02*
X13780000D01*
Y6875000D01*
X13450000Y6525000D02*
Y6875000D01*
X13172501Y7390000D02*
Y7510000D01*
X12927499D02*
X13172501D01*
X12927499Y7390000D02*
Y7510000D01*
Y7390000D02*
X13172501D01*
X8290000Y6627500D02*
Y6872500D01*
X8410000D01*
Y6627500D02*
Y6872500D01*
X8290000Y6627500D02*
X8410000D01*
X7852500Y6940001D02*
Y7060000D01*
Y6940001D02*
X8097500D01*
Y7060000D01*
X7852500D02*
X8097500D01*
X7840000Y6652501D02*
X7960000D01*
Y6897500D01*
X7840000D02*
X7960000D01*
X7840000Y6652501D02*
Y6897500D01*
X9060000Y7057500D02*
X9180000D01*
Y7302500D01*
X9060000D02*
X9180000D01*
X9060000Y7057500D02*
Y7302500D01*
X10290001Y6997500D02*
X10410000D01*
Y7242500D01*
X10290001D02*
X10410000D01*
X10290001Y6997500D02*
Y7242500D01*
X10027500Y6990000D02*
Y7110000D01*
Y6990000D02*
X10272500D01*
Y7110000D01*
X10027500D02*
X10272500D01*
X12272500Y6990000D02*
Y7110000D01*
X12027500D02*
X12272500D01*
X12027500Y6990000D02*
Y7110000D01*
Y6990000D02*
X12272500D01*
X12640000Y6652500D02*
X12760000D01*
Y6897500D01*
X12640000D02*
X12760000D01*
X12640000Y6652500D02*
Y6897500D01*
X12165000Y6652500D02*
X12285000D01*
Y6897500D01*
X12165000D02*
X12285000D01*
X12165000Y6652500D02*
Y6897500D01*
X12952499Y10317500D02*
X13212500D01*
Y10642500D01*
X12952499D02*
X13212500D01*
X12952499Y10317500D02*
Y10642500D01*
X11602500Y3915000D02*
X11847500D01*
X11602500D02*
Y4035000D01*
X11847500D01*
Y3915000D02*
Y4035000D01*
X7610000Y4577500D02*
Y4822500D01*
X7490000Y4577500D02*
X7610000Y4577500D01*
X7490000Y4577500D02*
Y4822500D01*
X7610000Y4822500D01*
X7610000Y4902500D02*
Y5147500D01*
X7490000Y4902500D02*
X7610000D01*
X7490000D02*
X7490001Y5147500D01*
X7610000Y5147500D01*
X7480000Y5542500D02*
X7480000Y5297500D01*
X7480000Y5542500D02*
X7600000Y5542500D01*
X7600000Y5297500D01*
X7480000Y5297500D02*
X7600000Y5297500D01*
X12055000Y4975000D02*
X12795000D01*
X12055000Y5525000D02*
X12795000D01*
X12795000Y4975000D01*
X12055000Y5525000D02*
X12055000Y4975000D01*
X8365000Y6010000D02*
Y6350000D01*
X7950000Y6010000D02*
Y6350000D01*
Y6010000D02*
X8365000D01*
X7950000Y6350000D02*
X8365000D01*
X8340000Y5350000D02*
X8340000Y5690000D01*
X7925000Y5350000D02*
Y5690000D01*
Y5350000D02*
X8340000D01*
X7925000Y5690000D02*
X8340000D01*
X12082500Y4288500D02*
X12822501D01*
X12082500Y4838500D02*
X12822501D01*
Y4288500D02*
Y4838500D01*
X12082500Y4288500D02*
Y4838500D01*
%TF.MD5,48037ce17ea7f4c1a342686f0edde682*%
M02*
