%TF.GenerationSoftware,Altium Limited,Altium Designer,23.1.1 (15)*%
G04 Layer_Color=16711935*
%FSLAX45Y45*%
%MOMM*%
%TF.SameCoordinates,3B15BE60-5205-462F-B1BE-89E8C5D5736D*%
%TF.FilePolarity,Positive*%
%TF.FileFunction,Other,Mechanical_1*%
%TF.Part,Single*%
G01*
G75*
%TA.AperFunction,NonConductor*%
%ADD171C,0.25400*%
%ADD172C,0.06000*%
D171*
X13600000Y2900000D02*
G03*
X13900000Y3200000I0J300000D01*
G01*
X6600000Y11325000D02*
G03*
X6300000Y11025000I0J-300000D01*
G01*
X13900000D02*
G03*
X13600000Y11325000I-300000J0D01*
G01*
X6300000Y3200000D02*
G03*
X6600000Y2900000I300000J0D01*
G01*
X13900000Y9200000D02*
Y11050000D01*
X6300000Y9200000D02*
Y11025000D01*
X6600000Y11325000D02*
X13600000D01*
X6300000Y3200000D02*
Y9200000D01*
X6600000Y2900000D02*
X13600000D01*
X13900000Y3200000D02*
Y9200000D01*
D172*
X13629587Y6763500D02*
X13596265D01*
X13589600Y6756835D01*
Y6743506D01*
X13596265Y6736842D01*
X13629587D01*
Y6696855D02*
X13622922Y6710184D01*
X13609595Y6723513D01*
X13596265D01*
X13589600Y6716848D01*
Y6703519D01*
X13596265Y6696855D01*
X13602930D01*
X13609595Y6703519D01*
Y6723513D01*
X13622922Y6683526D02*
X13629587Y6676861D01*
Y6663532D01*
X13622922Y6656868D01*
X13596265D01*
X13589600Y6663532D01*
Y6676861D01*
X13596265Y6683526D01*
X13622922D01*
X13589600Y6643539D02*
Y6630210D01*
Y6636874D01*
X13629587D01*
X13622922Y6643539D01*
%TF.MD5,98e4c696618d4e6b343b63ed2e7b9408*%
M02*
